<?xml version="1.0" encoding="UTF-8"?>
<svg xmlns="http://www.w3.org/2000/svg" xmlns:xlink="http://www.w3.org/1999/xlink" width="473pt" height="433pt" viewBox="0 0 473 433" version="1.1">
<g id="surface63098">
<rect x="0" y="0" width="473" height="433" style="fill:rgb(0%,0%,0%);fill-opacity:1;stroke:none;"/>
<path style="fill:none;stroke-width:0.2;stroke-linecap:butt;stroke-linejoin:miter;stroke:rgb(100%,100%,100%);stroke-opacity:1;stroke-miterlimit:10;" d="M 1.000026 22.000026 L 1.000026 1.598659 " transform="matrix(20,0,0,20,-10.527864,-15.527864)"/>
<path style="fill-rule:evenodd;fill:rgb(100%,100%,100%);fill-opacity:1;stroke-width:0.2;stroke-linecap:butt;stroke-linejoin:miter;stroke:rgb(100%,100%,100%);stroke-opacity:1;stroke-miterlimit:10;" d="M 1.000026 1.223659 L 1.250026 1.723659 L 1.000026 1.598659 L 0.750026 1.723659 Z M 1.000026 1.223659 " transform="matrix(20,0,0,20,-10.527864,-15.527864)"/>
<path style="fill:none;stroke-width:0.2;stroke-linecap:butt;stroke-linejoin:miter;stroke:rgb(100%,100%,100%);stroke-opacity:1;stroke-miterlimit:10;" d="M 1.000026 22.000026 L 23.401393 22.000026 " transform="matrix(20,0,0,20,-10.527864,-15.527864)"/>
<path style="fill-rule:evenodd;fill:rgb(100%,100%,100%);fill-opacity:1;stroke-width:0.2;stroke-linecap:butt;stroke-linejoin:miter;stroke:rgb(100%,100%,100%);stroke-opacity:1;stroke-miterlimit:10;" d="M 23.776393 22.000026 L 23.276393 22.250026 L 23.401393 22.000026 L 23.276393 21.750026 Z M 23.776393 22.000026 " transform="matrix(20,0,0,20,-10.527864,-15.527864)"/>
<path style="fill:none;stroke-width:0.2;stroke-linecap:butt;stroke-linejoin:miter;stroke:rgb(0%,0%,100%);stroke-opacity:1;stroke-miterlimit:10;" d="M 1.000026 22.000026 L 22.557057 2.40276 " transform="matrix(20,0,0,20,-10.527864,-15.527864)"/>
<path style="fill-rule:evenodd;fill:rgb(0%,0%,100%);fill-opacity:1;stroke-width:0.2;stroke-linecap:butt;stroke-linejoin:miter;stroke:rgb(0%,0%,100%);stroke-opacity:1;stroke-miterlimit:10;" d="M 22.834596 2.150417 L 22.632839 2.671706 L 22.557057 2.40276 L 22.296315 2.301784 Z M 22.834596 2.150417 " transform="matrix(20,0,0,20,-10.527864,-15.527864)"/>
<path style="fill:none;stroke-width:0.2;stroke-linecap:butt;stroke-linejoin:miter;stroke:rgb(100%,0%,0%);stroke-opacity:1;stroke-miterlimit:10;" d="M 1.000026 22.000026 C 1.000026 22.000026 4.666628 19.833424 6.000026 17.000026 C 7.333424 14.166628 6.000026 -1.999974 8.000026 5.000026 C 10.000026 12.000026 13.000026 6.000026 16.000026 9.000026 C 19.000026 12.000026 23.000026 3.000026 23.000026 3.000026 " transform="matrix(20,0,0,20,-10.527864,-15.527864)"/>
<path style="fill:none;stroke-width:0.2;stroke-linecap:butt;stroke-linejoin:miter;stroke:rgb(0%,100%,0%);stroke-opacity:1;stroke-miterlimit:10;" d="M 1.000026 22.000026 C 5.000026 22.000026 12.000026 13.000026 16.000026 10.000026 C 20.000026 7.000026 16.000026 2.000026 21.401393 2.000026 " transform="matrix(20,0,0,20,-10.527864,-15.527864)"/>
<path style="fill-rule:evenodd;fill:rgb(0%,100%,0%);fill-opacity:1;stroke-width:0.2;stroke-linecap:butt;stroke-linejoin:miter;stroke:rgb(0%,100%,0%);stroke-opacity:1;stroke-miterlimit:10;" d="M 21.776393 2.000026 L 21.276393 2.250026 L 21.401393 2.000026 L 21.276393 1.750026 Z M 21.776393 2.000026 " transform="matrix(20,0,0,20,-10.527864,-15.527864)"/>
</g>
</svg>
