<!DOCTYPE svg PUBLIC "-//W3C//DTD SVG 1.1//EN"
 "http://www.w3.org/Graphics/SVG/1.1/DTD/svg11.dtd">
<svg version="1.1"
 width="600px" height="648px"
 viewBox="0 0 600 648"
 xmlns="http://www.w3.org/2000/svg" shape-rendering="crispEdges"
 stroke-width="1" text-rendering="geometricPrecision">
<polygon fill="black" points="69,7 129,7 129,16 69,16"/>
<text x="100" y="16" textLength="59" font-family="Helvetica" font-size="12" fill="#FFFF00" text-anchor="middle">

Lightswitch
</text>
<polygon fill="black" points="268,7 330,7 330,16 268,16"/>
<text x="300" y="16" textLength="61" font-family="Helvetica" font-size="12" fill="#FFFF00" text-anchor="middle">

Phone / PC
</text>
<polygon fill="black" points="468,7 530,7 530,16 468,16"/>
<text x="500" y="16" textLength="61" font-family="Helvetica" font-size="12" fill="#FFFF00" text-anchor="middle">

Lightsocket
</text>
<line x1="100" y1="22" x2="100" y2="58" stroke="#FFFF00"/>
<line x1="300" y1="22" x2="300" y2="58" stroke="#FFFF00"/>
<line x1="500" y1="22" x2="500" y2="58" stroke="#FFFF00"/>
<line x1="100" y1="33" x2="300" y2="41" stroke="white"/>
<line x1="300" y1="41" x2="290" y2="47" stroke="white"/>
<polygon fill="black" points="173,27 225,27 225,36 173,36"/>
<text x="174" y="36" textLength="50" font-family="Helvetica" font-size="12" fill="white">
QR Code
</text>
<line x1="100" y1="58" x2="100" y2="94" stroke="#FFFF00"/>
<line x1="300" y1="58" x2="300" y2="94" stroke="#FFFF00"/>
<line x1="500" y1="58" x2="500" y2="94" stroke="#FFFF00"/>
<line x1="300" y1="69" x2="100" y2="77" stroke="white"/>
<line x1="100" y1="77" x2="110" y2="83" stroke="white"/>
<polygon fill="black" points="163,63 236,63 236,72 163,72"/>
<text x="164" y="72" textLength="71" font-family="Helvetica" font-size="12" fill="white">
Configuration
</text>
<line x1="100" y1="94" x2="100" y2="130" stroke="#FFFF00"/>
<line x1="300" y1="94" x2="300" y2="130" stroke="#FFFF00"/>
<line x1="500" y1="94" x2="500" y2="130" stroke="#FFFF00"/>
<line x1="500" y1="105" x2="300" y2="113" stroke="white"/>
<line x1="300" y1="113" x2="310" y2="119" stroke="white"/>
<polygon fill="black" points="373,99 425,99 425,108 373,108"/>
<text x="374" y="108" textLength="50" font-family="Helvetica" font-size="12" fill="white">
QR Code
</text>
<line x1="100" y1="130" x2="100" y2="166" stroke="#FFFF00"/>
<line x1="300" y1="130" x2="300" y2="166" stroke="#FFFF00"/>
<line x1="500" y1="130" x2="500" y2="166" stroke="#FFFF00"/>
<line x1="300" y1="141" x2="500" y2="149" stroke="white"/>
<line x1="500" y1="149" x2="490" y2="155" stroke="white"/>
<polygon fill="black" points="363,135 436,135 436,144 363,144"/>
<text x="364" y="144" textLength="71" font-family="Helvetica" font-size="12" fill="white">
Configuration
</text>
<line x1="100" y1="166" x2="100" y2="191" stroke="#FFFF00"/>
<line x1="300" y1="166" x2="300" y2="191" stroke="#FFFF00"/>
<line x1="500" y1="166" x2="500" y2="191" stroke="#FFFF00"/>
<line x1="100" y1="191" x2="100" y2="216" stroke="#FFFF00"/>
<line x1="300" y1="191" x2="300" y2="216" stroke="#FFFF00"/>
<line x1="500" y1="191" x2="500" y2="216" stroke="#FFFF00"/>
<line x1="50" y1="196" x2="550" y2="196" stroke="red" stroke-dasharray="2,2"/>
<polygon fill="black" points="251,196 348,196 348,205 251,205"/>
<text x="252" y="205" textLength="95" font-family="Helvetica" font-size="12" fill="red">
Normal Operation
</text>
<line x1="100" y1="216" x2="100" y2="252" stroke="#FFFF00"/>
<line x1="300" y1="216" x2="300" y2="252" stroke="#FFFF00"/>
<line x1="500" y1="216" x2="500" y2="252" stroke="#FFFF00"/>
<line x1="100" y1="227" x2="500" y2="235" stroke="white"/>
<line x1="500" y1="235" x2="490" y2="241" stroke="white"/>
<polygon fill="black" points="271,221 328,221 328,230 271,230"/>
<text x="272" y="230" textLength="55" font-family="Helvetica" font-size="12" fill="white">
Switch On
</text>
<line x1="100" y1="252" x2="100" y2="288" stroke="#FFFF00"/>
<line x1="300" y1="252" x2="300" y2="288" stroke="#FFFF00"/>
<line x1="500" y1="252" x2="500" y2="288" stroke="#FFFF00"/>
<line x1="500" y1="263" x2="100" y2="271" stroke="white"/>
<line x1="100" y1="271" x2="110" y2="277" stroke="white"/>
<polygon fill="black" points="272,257 327,257 327,266 272,266"/>
<text x="273" y="266" textLength="53" font-family="Helvetica" font-size="12" fill="white">
Status On
</text>
<line x1="100" y1="288" x2="100" y2="313" stroke="#FFFF00"/>
<line x1="300" y1="288" x2="300" y2="313" stroke="#FFFF00"/>
<line x1="500" y1="288" x2="500" y2="313" stroke="#FFFF00"/>
<line x1="100" y1="313" x2="100" y2="338" stroke="#FFFF00"/>
<line x1="300" y1="313" x2="300" y2="338" stroke="#FFFF00"/>
<line x1="500" y1="313" x2="500" y2="338" stroke="#FFFF00"/>
<line x1="50" y1="318" x2="550" y2="318" stroke="red" stroke-dasharray="2,2"/>
<polygon fill="black" points="240,318 359,318 359,327 240,327"/>
<text x="241" y="327" textLength="117" font-family="Helvetica" font-size="12" fill="red">
Packet loss on Switch
</text>
<line x1="100" y1="338" x2="100" y2="374" stroke="#FFFF00"/>
<line x1="300" y1="338" x2="300" y2="374" stroke="#FFFF00"/>
<line x1="500" y1="338" x2="500" y2="374" stroke="#FFFF00"/>
<line x1="100" y1="349" x2="400" y2="357" stroke="white"/>
<line x1="396" y1="353" x2="404" y2="361" stroke="white"/>
<line x1="404" y1="353" x2="396" y2="361" stroke="white"/>
<polygon fill="black" points="271,343 328,343 328,352 271,352"/>
<text x="272" y="352" textLength="55" font-family="Helvetica" font-size="12" fill="white">
Switch Off
</text>
<line x1="100" y1="374" x2="100" y2="410" stroke="#FFFF00"/>
<line x1="300" y1="374" x2="300" y2="410" stroke="#FFFF00"/>
<line x1="500" y1="374" x2="500" y2="410" stroke="#FFFF00"/>
<line x1="100" y1="385" x2="500" y2="393" stroke="white"/>
<line x1="500" y1="393" x2="490" y2="399" stroke="white"/>
<polygon fill="black" points="271,379 328,379 328,388 271,388"/>
<text x="272" y="388" textLength="55" font-family="Helvetica" font-size="12" fill="white">
Switch Off
</text>
<line x1="100" y1="410" x2="100" y2="446" stroke="#FFFF00"/>
<line x1="300" y1="410" x2="300" y2="446" stroke="#FFFF00"/>
<line x1="500" y1="410" x2="500" y2="446" stroke="#FFFF00"/>
<line x1="500" y1="421" x2="100" y2="429" stroke="white"/>
<line x1="100" y1="429" x2="110" y2="435" stroke="white"/>
<polygon fill="black" points="272,415 327,415 327,424 272,424"/>
<text x="273" y="424" textLength="53" font-family="Helvetica" font-size="12" fill="white">
Status Off
</text>
<line x1="100" y1="446" x2="100" y2="471" stroke="#FFFF00"/>
<line x1="300" y1="446" x2="300" y2="471" stroke="#FFFF00"/>
<line x1="500" y1="446" x2="500" y2="471" stroke="#FFFF00"/>
<line x1="100" y1="471" x2="100" y2="496" stroke="#FFFF00"/>
<line x1="300" y1="471" x2="300" y2="496" stroke="#FFFF00"/>
<line x1="500" y1="471" x2="500" y2="496" stroke="#FFFF00"/>
<line x1="50" y1="476" x2="550" y2="476" stroke="red" stroke-dasharray="2,2"/>
<polygon fill="black" points="241,476 358,476 358,485 241,485"/>
<text x="242" y="485" textLength="115" font-family="Helvetica" font-size="12" fill="red">
Packet loss on Status
</text>
<line x1="100" y1="496" x2="100" y2="532" stroke="#FFFF00"/>
<line x1="300" y1="496" x2="300" y2="532" stroke="#FFFF00"/>
<line x1="500" y1="496" x2="500" y2="532" stroke="#FFFF00"/>
<line x1="100" y1="507" x2="500" y2="515" stroke="white"/>
<line x1="500" y1="515" x2="490" y2="521" stroke="white"/>
<polygon fill="black" points="271,501 328,501 328,510 271,510"/>
<text x="272" y="510" textLength="55" font-family="Helvetica" font-size="12" fill="white">
Switch Off
</text>
<line x1="100" y1="532" x2="100" y2="568" stroke="#FFFF00"/>
<line x1="300" y1="532" x2="300" y2="568" stroke="#FFFF00"/>
<line x1="500" y1="532" x2="500" y2="568" stroke="#FFFF00"/>
<line x1="500" y1="543" x2="200" y2="551" stroke="white"/>
<line x1="196" y1="547" x2="204" y2="555" stroke="white"/>
<line x1="204" y1="547" x2="196" y2="555" stroke="white"/>
<polygon fill="black" points="272,537 327,537 327,546 272,546"/>
<text x="273" y="546" textLength="53" font-family="Helvetica" font-size="12" fill="white">
Status Off
</text>
<line x1="100" y1="568" x2="100" y2="604" stroke="#FFFF00"/>
<line x1="300" y1="568" x2="300" y2="604" stroke="#FFFF00"/>
<line x1="500" y1="568" x2="500" y2="604" stroke="#FFFF00"/>
<line x1="100" y1="579" x2="500" y2="587" stroke="white"/>
<line x1="500" y1="587" x2="490" y2="593" stroke="white"/>
<polygon fill="black" points="271,573 328,573 328,582 271,582"/>
<text x="272" y="582" textLength="55" font-family="Helvetica" font-size="12" fill="white">
Switch Off
</text>
<line x1="100" y1="604" x2="100" y2="640" stroke="#FFFF00"/>
<line x1="300" y1="604" x2="300" y2="640" stroke="#FFFF00"/>
<line x1="500" y1="604" x2="500" y2="640" stroke="#FFFF00"/>
<line x1="500" y1="615" x2="100" y2="623" stroke="white"/>
<line x1="100" y1="623" x2="110" y2="629" stroke="white"/>
<polygon fill="black" points="272,609 327,609 327,618 272,618"/>
<text x="273" y="618" textLength="53" font-family="Helvetica" font-size="12" fill="white">
Status Off
</text>
<line x1="100" y1="626" x2="100" y2="648" stroke="#FFFF00"/>
<line x1="300" y1="626" x2="300" y2="648" stroke="#FFFF00"/>
<line x1="500" y1="626" x2="500" y2="648" stroke="#FFFF00"/>
</svg>
