<?xml version="1.0" encoding="UTF-8" standalone="no"?>
<!-- Created with Inkscape (http://www.inkscape.org/) -->

<svg
   xmlns:dc="http://purl.org/dc/elements/1.1/"
   xmlns:cc="http://creativecommons.org/ns#"
   xmlns:rdf="http://www.w3.org/1999/02/22-rdf-syntax-ns#"
   xmlns:svg="http://www.w3.org/2000/svg"
   xmlns="http://www.w3.org/2000/svg"
   xmlns:sodipodi="http://sodipodi.sourceforge.net/DTD/sodipodi-0.dtd"
   xmlns:inkscape="http://www.inkscape.org/namespaces/inkscape"
   version="1.1"
   id="svg2"
   width="3040"
   height="2306.6667"
   viewBox="0 0 3040 2306.6667"
   sodipodi:docname="python3confirmed.svg"
   inkscape:version="0.92.5 (2060ec1f9f, 2020-04-08)">
  <metadata
     id="metadata8">
    <rdf:RDF>
      <cc:Work
         rdf:about="">
        <dc:format>image/svg+xml</dc:format>
        <dc:type
           rdf:resource="http://purl.org/dc/dcmitype/StillImage" />
        <dc:title></dc:title>
      </cc:Work>
    </rdf:RDF>
  </metadata>
  <defs
     id="defs6" />
  <sodipodi:namedview
     pagecolor="#ffffff"
     bordercolor="#666666"
     borderopacity="1"
     objecttolerance="10"
     gridtolerance="10"
     guidetolerance="10"
     inkscape:pageopacity="0"
     inkscape:pageshadow="2"
     inkscape:window-width="3840"
     inkscape:window-height="2124"
     id="namedview4"
     showgrid="false"
     inkscape:zoom="0.57876484"
     inkscape:cx="633.20064"
     inkscape:cy="1062.4033"
     inkscape:window-x="1200"
     inkscape:window-y="0"
     inkscape:window-maximized="0"
     inkscape:current-layer="svg2" />
  <path
     id="path3718"
     style="fill:#000000;stroke-width:1.33333337"
     d="m 2643.2315,680.6521 c 79.955,-10.48118 130.1206,-52.39944 139.5034,-116.56868 2.3866,-16.32205 1.0192,-44.99809 -2.7061,-56.75008 -12.6307,-39.84536 -47.262,-67.97663 -95.9604,-77.94916 -12.1396,-2.48597 -14.8181,-4.57707 -7.8057,-6.09383 9.6982,-2.09766 27.0114,-8.72873 37.8649,-14.50244 27.8157,-14.79714 45.2928,-35.30257 54.0832,-63.45457 2.7883,-8.92966 3.116,-12.4975 3.0619,-33.33334 -0.057,-21.8592 -0.2959,-24.04934 -3.7843,-34.66666 -7.3295,-22.30818 -19.9873,-41.4484 -36.0049,-54.44427 -24.2626,-19.68523 -55.0179,-32.11763 -91.4542,-36.96903 -19.0404,-2.53518 -60.0814,-2.45788 -78.7674,0.14836 -70.5758,9.84363 -117.0359,45.76771 -133.7404,103.41128 -4.2407,14.63399 -5.6767,25.85498 -3.4823,27.21122 1.9748,1.2205 86.424,7.52568 93.8509,7.00713 l 5.2235,-0.36469 1.704,-8.3885 c 5.0067,-24.64558 20.5172,-40.29553 46.5307,-46.94865 12.8294,-3.28124 35.9549,-3.57341 48.5142,-0.61293 19.1947,4.52458 35.6328,17.16842 43.7088,33.61986 3.5178,7.166 3.762,8.74562 3.762,24.33022 0,15.48038 -0.2608,17.19774 -3.6644,24.12816 -7.529,15.33109 -26.5548,28.78256 -47.8934,33.86132 -8.09,1.92551 -36.5822,4.34697 -59.1088,5.02351 L 2546,388.66667 v 40 40 l 10.6667,0.33563 c 36.0796,1.13524 56.5432,2.96607 69.0282,6.17576 25.269,6.49623 41.1598,17.41815 49.2487,33.84916 3.8596,7.83999 4.3971,10.32412 4.8437,22.38951 0.7606,20.5449 -3.3864,32.7608 -15.6916,46.22468 -8.0508,8.80881 -21.038,16.01133 -35.575,19.72927 -13.209,3.37828 -40.2119,3.62162 -54.2575,0.48896 -28.6031,-6.37952 -46.7009,-24.39743 -54.0985,-53.85963 -2.2492,-8.95743 -2.8682,-10.04331 -5.937,-10.41538 -4.0288,-0.48848 -96.9038,7.59719 -98.4844,8.57402 -1.8397,1.13697 -1.1994,7.31997 2.2187,21.42865 6.976,28.79415 17.99,49.49886 36.6323,68.86267 25.765,26.76247 62.9232,43.61176 107.639,48.80864 16.4656,1.91363 64.5183,1.55381 80.9982,-0.60651 z m -1289.653,3.41248 c 14.4186,-4.82588 27.544,-15.44013 33.3231,-26.9476 6.7315,-13.40397 7.0984,-14.90889 7.0984,-29.11697 0,-14.76623 -1.8473,-22.04497 -8.1213,-32 -4.4954,-7.13283 -14.9935,-16.607 -23.8787,-21.54972 -7.9775,-4.43775 -8.0507,-4.45018 -26,-4.41127 -17.5818,0.0381 -18.1919,0.13773 -26.2602,4.28761 -4.5431,2.33674 -11.4431,7.50298 -15.3333,11.48057 -6.3826,6.52593 -8.745,10.2038 -14.5985,22.728 -1.196,2.55916 -1.8072,9.10277 -1.8056,19.33333 0,14.54637 0.2481,15.97952 4.1416,24.13148 10.3952,21.76479 29.969,34.48455 53.1893,34.56441 7.0264,0.0241 13.2531,-0.82897 18.2452,-2.49984 z m -334.2452,770.53362 c -13.9696,-1.8796 -31.25126,-7.0166 -43.3333,-12.881 -36.23959,-17.5898 -66.49437,-51.5201 -85.34875,-95.7172 -1.56418,-3.6666 -3.70061,-8.5573 -4.74761,-10.8681 -1.047,-2.3109 -1.90364,-5.1255 -1.90364,-6.2547 0,-1.1292 -0.54779,-2.3917 -1.21732,-2.8055 -0.66952,-0.4138 -1.62173,-3.146 -2.11601,-6.0717 -0.49428,-2.9256 -1.37726,-5.6151 -1.96216,-5.9766 -0.58491,-0.3615 -1.48886,-3.5146 -2.00878,-7.007 -0.5199,-3.4923 -1.41672,-6.9497 -1.99289,-7.683 -0.57619,-0.7334 -1.69424,-4.6334 -2.48457,-8.6667 -0.79034,-4.0333 -2.39831,-11.5333 -3.57328,-16.6667 -5.03392,-21.9928 -9.2442,-44.2364 -11.35684,-60 -0.78626,-5.8666 -2.01504,-13.9666 -2.73066,-18 -2.93892,-16.5644 -4.38004,-64.3258 -2.82377,-93.5852 0.83431,-15.6859 2.11188,-31.4962 2.83904,-35.134 0.72716,-3.6377 1.93473,-11.1141 2.68348,-16.6141 2.41756,-17.7581 6.40349,-38.9654 11.40239,-60.66669 1.18246,-5.13333 2.86801,-12.63333 3.74565,-16.66666 0.87765,-4.03334 1.96692,-7.93334 2.4206,-8.66667 0.45368,-0.73333 1.24473,-3.6572 1.75788,-6.49748 0.51315,-2.84028 1.44376,-6.14028 2.06801,-7.33333 0.62427,-1.19306 2.49426,-6.06919 4.15554,-10.83586 3.67797,-10.55309 15.65212,-33.87518 22.78718,-44.38265 23.88794,-35.1786 58.673,-62.17943 97.07321,-75.35004 12.8377,-4.40311 16.3759,-5.40283 30,-8.4764 l 13.3333,-3.00797 234.6667,-0.7248 234.6666,-0.7248 v -18.00001 -18 l -160,-0.66666 -160,-0.66667 -0.3775,-75.33333 c -0.3219,-64.24932 -0.058,-77.39319 1.7902,-89.33334 2.0543,-13.26798 6.3439,-31.3288 8.5269,-35.90209 0.5508,-1.15386 2.1149,-4.49791 3.4757,-7.43124 4.323,-9.31788 15.4095,-24.54363 22.769,-31.26976 9.0507,-8.27186 22.4337,-17.17402 35.1733,-23.3969 5.4867,-2.68002 11.0176,-5.4264 12.291,-6.10305 1.2734,-0.67667 2.9827,-1.23029 3.7985,-1.23029 0.8158,0 3.3739,-0.84439 5.6848,-1.87642 5.6059,-2.50365 22.0967,-7.45692 24.826,-7.45692 1.1965,0 2.7455,-0.53337 3.4421,-1.18528 0.6967,-0.6519 4.8667,-1.88437 9.2667,-2.73881 4.4,-0.85444 12.5,-2.43103 18,-3.50353 13.9397,-2.71824 31.9587,-5.58503 45.3333,-7.21248 6.2334,-0.7585 15.5334,-1.97788 20.6667,-2.70975 37.7228,-5.37827 170.9416,-5.39681 210,-0.0292 5.5,0.75584 15.4,1.98871 22,2.73971 23.4627,2.66977 45.3284,6.35408 56,9.4358 18.828,5.43713 21.506,6.46033 39.3333,15.02896 21.805,10.48042 36.5238,20.94828 53.3936,37.97305 27.1899,27.43943 40.9239,53.47323 45.9847,87.16723 2.8645,19.07177 2.9105,328.90196 0.052,347.94646 -1.9753,13.15861 -5.2816,26.72997 -7.4881,30.73647 -0.7014,1.2734 -1.2751,2.9102 -1.2751,3.6374 0,0.7272 -2.1729,5.9854 -4.8288,11.6848 -10.8061,23.1899 -28.844,45.3958 -49.5996,61.0608 -11.9944,9.0525 -35.4833,21.2729 -48.2383,25.0964 -24.4448,7.3277 -9.4122,6.7766 -207.3333,7.6001 -180.4603,0.7508 -198.3988,1.2041 -205.8717,5.2031 -1.1706,0.6264 -4.9857,1.5674 -8.478,2.0911 -3.4924,0.5236 -6.6778,1.4829 -7.0787,2.1316 -0.4009,0.6487 -1.6529,1.1795 -2.7821,1.1795 -2.2837,0 -6.2226,1.6642 -23.7895,10.0513 -36.1991,17.2827 -69.2778,48.4283 -88.4513,83.282 -5.0911,9.2546 -10.8824,21.2474 -10.8824,22.5354 0,0.6379 -0.8963,2.8783 -1.9918,4.9788 -1.0955,2.1005 -1.9955,4.8337 -2,6.0737 0,1.2401 -0.556,2.5932 -1.2256,3.007 -0.6695,0.4138 -1.6035,3.2992 -2.0755,6.412 -0.4721,3.1129 -1.3993,6.8597 -2.0605,8.3264 -3.4731,7.704 -4.513,28.7779 -5.2305,106 l -0.7495,80.6667 -64,0.1705 c -35.2,0.093 -67.6,-0.3137 -72,-0.9057 z m 688.818,240.0772 c 15.1916,-2.8019 28.7087,-11.637 37.1551,-24.2854 15.8297,-23.7052 13.4947,-53.7193 -5.7635,-74.082 -8.1242,-8.5901 -15.2061,-12.9724 -26.5272,-16.4153 -25.239,-7.6753 -54.0868,4.0695 -66.9017,27.2379 -4.7303,8.552 -8.7781,22.0588 -8.7841,29.3105 0,7.6447 4.4426,22.7608 8.9058,30.2588 13.085,21.982 36.6594,32.6337 61.9156,27.9755 z m -241.5577,106.7156 c -7.0068,-0.5807 -17.2068,-1.7684 -22.6667,-2.6396 -18.023,-2.8755 -39.196,-6.783 -43.2602,-7.9835 -2.2,-0.6499 -6.4,-1.5748 -9.3334,-2.0553 -2.9333,-0.4806 -7.1333,-1.4179 -9.3333,-2.083 -2.2,-0.665 -7.3,-2.098 -11.3333,-3.1842 -17.4798,-4.7078 -27.4726,-7.6602 -29.3771,-8.6792 -1.1241,-0.6016 -3.9672,-1.5162 -6.3181,-2.0326 -2.3508,-0.5162 -4.6165,-1.4926 -5.0349,-2.1694 -0.4184,-0.677 -1.7752,-1.2512 -3.0153,-1.276 -1.24,-0.025 -4.6546,-1.2046 -7.588,-2.6215 -2.9333,-1.4169 -5.8588,-2.5965 -6.5011,-2.6215 -0.6423,-0.025 -8.4423,-3.7033 -17.3333,-8.1745 -14.9156,-7.5007 -19.5832,-10.3103 -37.0567,-22.3061 -10.5817,-7.2646 -32.1779,-28.7775 -39.3513,-39.1998 -12.0738,-17.542 -16.8919,-28.6345 -21.8472,-50.2972 -2.474,-10.8154 -2.577,-17.9918 -2.577,-179.52 0,-162.3861 0.092,-168.6893 2.6309,-180.7341 3.3083,-15.6935 5.2725,-21.9502 10.8247,-34.4801 15.5478,-35.0879 45.1367,-65.8378 78.4833,-81.5629 6.2669,-2.9552 12.3141,-5.8363 13.4382,-6.4023 1.124,-0.566 4.124,-1.4747 6.6666,-2.0193 2.5426,-0.5446 5.2229,-1.4453 5.9563,-2.0016 1.9673,-1.4925 17.0567,-4.2104 30,-5.4036 6.2333,-0.5746 88.5746,-1.0971 182.9808,-1.1609 106.5065,-0.072 173.8053,-0.6104 177.3333,-1.4185 3.1272,-0.7164 8.6859,-1.8785 12.3525,-2.5826 12.2584,-2.3538 19.9887,-4.3853 21.2667,-5.5888 0.6967,-0.6561 2.106,-1.1929 3.1319,-1.1929 2.0172,0 6.1265,-1.7283 21.6014,-9.0852 33.3498,-15.8549 67.2542,-47.2323 86.7482,-80.2825 3.2552,-5.519 6.9321,-12.119 8.1709,-14.6667 4.1945,-8.6262 7.7476,-17.1459 7.7476,-18.5772 0,-0.7835 0.5567,-2.4664 1.2371,-3.7398 2.0744,-3.8823 5.4306,-15.93341 6.3053,-22.64029 0.4549,-3.4879 1.494,-7.54163 2.3091,-9.0083 1.0234,-1.84168 1.6881,-29.0662 2.1485,-88 l 0.6667,-85.33333 h 72 c 70.0266,0 72.3289,0.0816 84,2.97661 22.6145,5.60958 36.1024,12.02719 53.8306,25.61306 13.4735,10.32522 23.769,21.8104 34.8003,38.82157 4.6061,7.10311 18.5057,34.34588 22.7497,44.58876 1.7495,4.22264 8.831,25.94527 11.0838,34 1.128,4.03333 2.9969,10.63333 4.1529,14.66667 1.1561,4.03333 2.6703,10.03333 3.3649,13.33333 0.6946,3.3 2.2256,10.2 3.4023,15.33333 4.1552,18.12839 8.1537,39.78629 11.2001,60.66669 0.8026,5.5 2.0304,13.6 2.7287,18 4.0883,25.7612 4.8268,92.6701 1.3245,120 -3.7314,29.118 -3.7313,29.1175 -10.0758,55.3333 -1.8635,7.7 -4.0215,16.7 -4.7958,20 -0.7741,3.3 -1.86,6.6 -2.413,7.3334 -0.5531,0.7333 -1.4248,3.6572 -1.9372,6.4974 -0.5126,2.8403 -1.4426,6.1403 -2.0668,7.3334 -0.6243,1.193 -2.4314,6.0692 -4.0159,10.8358 -1.5845,4.7667 -3.4327,9.7085 -4.1071,10.9819 -0.6744,1.2734 -1.2466,3.0734 -1.2714,4 -0.025,0.9266 -1.2046,4.0848 -2.6215,7.0181 -1.4169,2.9334 -2.5965,6.0915 -2.6215,7.0181 -0.025,0.9266 -0.6241,2.7266 -1.3317,4.0001 -0.7076,1.2733 -2.5512,5.3152 -4.0968,8.9818 -23.4009,55.5135 -53.4312,89.3567 -90.5572,102.0552 -22.9685,7.8562 0.5848,7.1828 -277.3928,7.9294 l -254,0.6821 V 1475.3334 1494 l 160,0.6667 160,0.6667 0.426,62.6666 c 0.4437,65.2947 -0.4071,81.2599 -5.1876,97.3334 -7.3809,24.8173 -20.066,45.1705 -39.4132,63.2388 -10.6563,9.9517 -27.2649,22.2388 -38.4825,28.4692 -11.6551,6.4733 -36.4079,18.292 -38.3106,18.292 -1.0077,0 -2.4021,0.5068 -3.0988,1.1261 -0.6966,0.6195 -5.1666,2.4676 -9.9333,4.1072 -4.7667,1.6395 -9.6428,3.4916 -10.8359,4.1159 -1.193,0.6242 -4.493,1.5542 -7.3333,2.0668 -2.8403,0.5124 -5.7641,1.3841 -6.4975,1.9372 -0.7333,0.553 -4.3333,1.7073 -8,2.5652 -3.6666,0.8577 -10.2666,2.4669 -14.6666,3.5758 -21.568,5.4362 -39.5508,9.1464 -57.3334,11.8292 -6.6,0.9956 -16.2,2.5018 -21.3333,3.3467 -11.2657,1.8545 -93.4236,2.8777 -111.4064,1.3875 z m 94.0731,217.2653 c 138.8374,-6.1935 266.4389,-41.3749 379.3333,-104.5872 127.9013,-71.6151 228.3601,-161.6495 304.3143,-272.7357 112.0466,-163.8732 166.2508,-379.3248 145.5834,-578.6667 -14.1666,-136.64054 -57.4996,-266.62649 -128.235,-384.66669 -37.6103,-62.76217 -87.5594,-125.81722 -133.8799,-169.00815 -123.9613,-115.58581 -269.8629,-190.09884 -431.1161,-220.17432 -120.599,-22.49302 -261.9542,-19.79396 -383.6021,7.32454 -180.941,40.3365 -336.48957,136.41089 -467.01244,288.44961 C 729.96881,719.81064 667.49801,862.44416 650.09575,1032 c -5.23366,50.9931 -6.80918,127.892 -3.53763,172.6667 12.69469,173.7409 64.86544,321.8476 159.21759,452 69.4014,95.7345 163.48593,180.7945 269.55759,243.702 139.9114,82.9764 315.8195,125.8496 485.3334,118.2876 z M 1474,2221.2472 C 1252.9039,2213.3408 1055.3559,2142.327 872.33788,2004.9636 805.76191,1954.9954 733.06672,1885.0634 677.98699,1818 550.54697,1662.8332 473.26564,1479.3931 450.77163,1278.6667 c -5.29967,-47.2918 -6.10522,-64.6553 -6.09294,-131.3334 0.0133,-70.0471 1.14243,-89.8649 8.09338,-142 C 479.87837,802.0245 563.36223,614.75518 699.44568,452.00001 728.11452,417.71221 777.71539,366.52306 810,337.90558 959.84499,205.08114 1139.0374,120.64243 1341.3333,87.531691 c 52.3006,-8.560278 90.2846,-12.348062 162,-16.154722 90.4362,-4.800352 121.2675,-5.271203 304.6667,-4.652812 324.1055,1.092829 382.8256,0.759028 480,-2.728615 101.9733,-3.65988 237.2187,-4.448841 278.6667,-1.625621 106.467,7.251975 162.06,19.738136 221.3333,49.711459 85.0327,42.99928 141.9736,109.55762 165.2304,193.13776 9.3623,33.64596 11.4416,51.28947 11.406,96.78087 -0.035,43.40517 -1.4011,56.41354 -9.2649,88.161 -10.6406,42.95721 -24.6832,77.79621 -64.7014,160.52001 -27.6474,57.15182 -29.3966,61.1914 -85.9708,198.54363 -99.4364,241.41455 -289.8226,701.57855 -300.9688,727.44205 -56.1677,130.3321 -137.6388,250.9743 -235.0086,348 -174.5148,173.8981 -395.6915,273.4049 -653.3886,293.9579 -22.4556,1.7909 -81.3744,4.0516 -99.3333,3.8113 -7.7,-0.1027 -26.6,-0.638 -42,-1.1887 z" />
</svg>
