<?xml version="1.0" encoding="utf-8" standalone="no"?>
<!DOCTYPE svg PUBLIC "-//W3C//DTD SVG 1.1//EN"
  "http://www.w3.org/Graphics/SVG/1.1/DTD/svg11.dtd">
<svg xmlns:xlink="http://www.w3.org/1999/xlink" width="414.46375pt" height="310.86825pt" viewBox="0 0 414.46375 310.86825" xmlns="http://www.w3.org/2000/svg" version="1.1">
 <metadata>
  <rdf:RDF xmlns:dc="http://purl.org/dc/elements/1.1/" xmlns:cc="http://creativecommons.org/ns#" xmlns:rdf="http://www.w3.org/1999/02/22-rdf-syntax-ns#">
   <cc:Work>
    <dc:type rdf:resource="http://purl.org/dc/dcmitype/StillImage"/>
    <dc:date>2025-09-25T15:52:41.909338</dc:date>
    <dc:format>image/svg+xml</dc:format>
    <dc:creator>
     <cc:Agent>
      <dc:title>Matplotlib v3.10.6, https://matplotlib.org/</dc:title>
     </cc:Agent>
    </dc:creator>
   </cc:Work>
  </rdf:RDF>
 </metadata>
 <defs>
  <style type="text/css">*{stroke-linejoin: round; stroke-linecap: butt}</style>
 </defs>
 <g id="figure_1">
  <g id="patch_1">
   <path d="M 0 310.86825 
L 414.46375 310.86825 
L 414.46375 0 
L 0 0 
z
" style="fill: #ffffff"/>
  </g>
  <g id="axes_1">
   <g id="patch_2">
    <path d="M 50.14375 273.312 
L 407.26375 273.312 
L 407.26375 7.2 
L 50.14375 7.2 
z
" style="fill: #ffffff"/>
   </g>
   <g id="matplotlib.axis_1">
    <g id="xtick_1">
     <g id="line2d_1">
      <defs>
       <path id="m6ae268d5f9" d="M 0 0 
L 0 3.5 
" style="stroke: #000000; stroke-width: 0.8"/>
      </defs>
      <g>
       <use xlink:href="#m6ae268d5f9" x="66.376477" y="273.312" style="stroke: #000000; stroke-width: 0.8"/>
      </g>
     </g>
     <g id="text_1">
      <!-- 0 -->
      <g transform="translate(63.195227 287.910437) scale(0.1 -0.1)">
       <defs>
        <path id="DejaVuSans-30" d="M 2034 4250 
Q 1547 4250 1301 3770 
Q 1056 3291 1056 2328 
Q 1056 1369 1301 889 
Q 1547 409 2034 409 
Q 2525 409 2770 889 
Q 3016 1369 3016 2328 
Q 3016 3291 2770 3770 
Q 2525 4250 2034 4250 
z
M 2034 4750 
Q 2819 4750 3233 4129 
Q 3647 3509 3647 2328 
Q 3647 1150 3233 529 
Q 2819 -91 2034 -91 
Q 1250 -91 836 529 
Q 422 1150 422 2328 
Q 422 3509 836 4129 
Q 1250 4750 2034 4750 
z
" transform="scale(0.015625)"/>
       </defs>
       <use xlink:href="#DejaVuSans-30"/>
      </g>
     </g>
    </g>
    <g id="xtick_2">
     <g id="line2d_2">
      <g>
       <use xlink:href="#m6ae268d5f9" x="120.666535" y="273.312" style="stroke: #000000; stroke-width: 0.8"/>
      </g>
     </g>
     <g id="text_2">
      <!-- 5 -->
      <g transform="translate(117.485285 287.910437) scale(0.1 -0.1)">
       <defs>
        <path id="DejaVuSans-35" d="M 691 4666 
L 3169 4666 
L 3169 4134 
L 1269 4134 
L 1269 2991 
Q 1406 3038 1543 3061 
Q 1681 3084 1819 3084 
Q 2600 3084 3056 2656 
Q 3513 2228 3513 1497 
Q 3513 744 3044 326 
Q 2575 -91 1722 -91 
Q 1428 -91 1123 -41 
Q 819 9 494 109 
L 494 744 
Q 775 591 1075 516 
Q 1375 441 1709 441 
Q 2250 441 2565 725 
Q 2881 1009 2881 1497 
Q 2881 1984 2565 2268 
Q 2250 2553 1709 2553 
Q 1456 2553 1204 2497 
Q 953 2441 691 2322 
L 691 4666 
z
" transform="scale(0.015625)"/>
       </defs>
       <use xlink:href="#DejaVuSans-35"/>
      </g>
     </g>
    </g>
    <g id="xtick_3">
     <g id="line2d_3">
      <g>
       <use xlink:href="#m6ae268d5f9" x="174.956593" y="273.312" style="stroke: #000000; stroke-width: 0.8"/>
      </g>
     </g>
     <g id="text_3">
      <!-- 10 -->
      <g transform="translate(168.594093 287.910437) scale(0.1 -0.1)">
       <defs>
        <path id="DejaVuSans-31" d="M 794 531 
L 1825 531 
L 1825 4091 
L 703 3866 
L 703 4441 
L 1819 4666 
L 2450 4666 
L 2450 531 
L 3481 531 
L 3481 0 
L 794 0 
L 794 531 
z
" transform="scale(0.015625)"/>
       </defs>
       <use xlink:href="#DejaVuSans-31"/>
       <use xlink:href="#DejaVuSans-30" transform="translate(63.623047 0)"/>
      </g>
     </g>
    </g>
    <g id="xtick_4">
     <g id="line2d_4">
      <g>
       <use xlink:href="#m6ae268d5f9" x="229.246651" y="273.312" style="stroke: #000000; stroke-width: 0.8"/>
      </g>
     </g>
     <g id="text_4">
      <!-- 15 -->
      <g transform="translate(222.884151 287.910437) scale(0.1 -0.1)">
       <use xlink:href="#DejaVuSans-31"/>
       <use xlink:href="#DejaVuSans-35" transform="translate(63.623047 0)"/>
      </g>
     </g>
    </g>
    <g id="xtick_5">
     <g id="line2d_5">
      <g>
       <use xlink:href="#m6ae268d5f9" x="283.536708" y="273.312" style="stroke: #000000; stroke-width: 0.8"/>
      </g>
     </g>
     <g id="text_5">
      <!-- 20 -->
      <g transform="translate(277.174208 287.910437) scale(0.1 -0.1)">
       <defs>
        <path id="DejaVuSans-32" d="M 1228 531 
L 3431 531 
L 3431 0 
L 469 0 
L 469 531 
Q 828 903 1448 1529 
Q 2069 2156 2228 2338 
Q 2531 2678 2651 2914 
Q 2772 3150 2772 3378 
Q 2772 3750 2511 3984 
Q 2250 4219 1831 4219 
Q 1534 4219 1204 4116 
Q 875 4013 500 3803 
L 500 4441 
Q 881 4594 1212 4672 
Q 1544 4750 1819 4750 
Q 2544 4750 2975 4387 
Q 3406 4025 3406 3419 
Q 3406 3131 3298 2873 
Q 3191 2616 2906 2266 
Q 2828 2175 2409 1742 
Q 1991 1309 1228 531 
z
" transform="scale(0.015625)"/>
       </defs>
       <use xlink:href="#DejaVuSans-32"/>
       <use xlink:href="#DejaVuSans-30" transform="translate(63.623047 0)"/>
      </g>
     </g>
    </g>
    <g id="xtick_6">
     <g id="line2d_6">
      <g>
       <use xlink:href="#m6ae268d5f9" x="337.826766" y="273.312" style="stroke: #000000; stroke-width: 0.8"/>
      </g>
     </g>
     <g id="text_6">
      <!-- 25 -->
      <g transform="translate(331.464266 287.910437) scale(0.1 -0.1)">
       <use xlink:href="#DejaVuSans-32"/>
       <use xlink:href="#DejaVuSans-35" transform="translate(63.623047 0)"/>
      </g>
     </g>
    </g>
    <g id="xtick_7">
     <g id="line2d_7">
      <g>
       <use xlink:href="#m6ae268d5f9" x="392.116824" y="273.312" style="stroke: #000000; stroke-width: 0.8"/>
      </g>
     </g>
     <g id="text_7">
      <!-- 30 -->
      <g transform="translate(385.754324 287.910437) scale(0.1 -0.1)">
       <defs>
        <path id="DejaVuSans-33" d="M 2597 2516 
Q 3050 2419 3304 2112 
Q 3559 1806 3559 1356 
Q 3559 666 3084 287 
Q 2609 -91 1734 -91 
Q 1441 -91 1130 -33 
Q 819 25 488 141 
L 488 750 
Q 750 597 1062 519 
Q 1375 441 1716 441 
Q 2309 441 2620 675 
Q 2931 909 2931 1356 
Q 2931 1769 2642 2001 
Q 2353 2234 1838 2234 
L 1294 2234 
L 1294 2753 
L 1863 2753 
Q 2328 2753 2575 2939 
Q 2822 3125 2822 3475 
Q 2822 3834 2567 4026 
Q 2313 4219 1838 4219 
Q 1578 4219 1281 4162 
Q 984 4106 628 3988 
L 628 4550 
Q 988 4650 1302 4700 
Q 1616 4750 1894 4750 
Q 2613 4750 3031 4423 
Q 3450 4097 3450 3541 
Q 3450 3153 3228 2886 
Q 3006 2619 2597 2516 
z
" transform="scale(0.015625)"/>
       </defs>
       <use xlink:href="#DejaVuSans-33"/>
       <use xlink:href="#DejaVuSans-30" transform="translate(63.623047 0)"/>
      </g>
     </g>
    </g>
    <g id="text_8">
     <!-- time -->
     <g transform="translate(217.407656 301.588562) scale(0.1 -0.1)">
      <defs>
       <path id="DejaVuSans-74" d="M 1172 4494 
L 1172 3500 
L 2356 3500 
L 2356 3053 
L 1172 3053 
L 1172 1153 
Q 1172 725 1289 603 
Q 1406 481 1766 481 
L 2356 481 
L 2356 0 
L 1766 0 
Q 1100 0 847 248 
Q 594 497 594 1153 
L 594 3053 
L 172 3053 
L 172 3500 
L 594 3500 
L 594 4494 
L 1172 4494 
z
" transform="scale(0.015625)"/>
       <path id="DejaVuSans-69" d="M 603 3500 
L 1178 3500 
L 1178 0 
L 603 0 
L 603 3500 
z
M 603 4863 
L 1178 4863 
L 1178 4134 
L 603 4134 
L 603 4863 
z
" transform="scale(0.015625)"/>
       <path id="DejaVuSans-6d" d="M 3328 2828 
Q 3544 3216 3844 3400 
Q 4144 3584 4550 3584 
Q 5097 3584 5394 3201 
Q 5691 2819 5691 2113 
L 5691 0 
L 5113 0 
L 5113 2094 
Q 5113 2597 4934 2840 
Q 4756 3084 4391 3084 
Q 3944 3084 3684 2787 
Q 3425 2491 3425 1978 
L 3425 0 
L 2847 0 
L 2847 2094 
Q 2847 2600 2669 2842 
Q 2491 3084 2119 3084 
Q 1678 3084 1418 2786 
Q 1159 2488 1159 1978 
L 1159 0 
L 581 0 
L 581 3500 
L 1159 3500 
L 1159 2956 
Q 1356 3278 1631 3431 
Q 1906 3584 2284 3584 
Q 2666 3584 2933 3390 
Q 3200 3197 3328 2828 
z
" transform="scale(0.015625)"/>
       <path id="DejaVuSans-65" d="M 3597 1894 
L 3597 1613 
L 953 1613 
Q 991 1019 1311 708 
Q 1631 397 2203 397 
Q 2534 397 2845 478 
Q 3156 559 3463 722 
L 3463 178 
Q 3153 47 2828 -22 
Q 2503 -91 2169 -91 
Q 1331 -91 842 396 
Q 353 884 353 1716 
Q 353 2575 817 3079 
Q 1281 3584 2069 3584 
Q 2775 3584 3186 3129 
Q 3597 2675 3597 1894 
z
M 3022 2063 
Q 3016 2534 2758 2815 
Q 2500 3097 2075 3097 
Q 1594 3097 1305 2825 
Q 1016 2553 972 2059 
L 3022 2063 
z
" transform="scale(0.015625)"/>
      </defs>
      <use xlink:href="#DejaVuSans-74"/>
      <use xlink:href="#DejaVuSans-69" transform="translate(39.208984 0)"/>
      <use xlink:href="#DejaVuSans-6d" transform="translate(66.992188 0)"/>
      <use xlink:href="#DejaVuSans-65" transform="translate(164.404297 0)"/>
     </g>
    </g>
   </g>
   <g id="matplotlib.axis_2">
    <g id="ytick_1">
     <g id="line2d_8">
      <defs>
       <path id="mda580de901" d="M 0 0 
L -3.5 0 
" style="stroke: #000000; stroke-width: 0.8"/>
      </defs>
      <g>
       <use xlink:href="#mda580de901" x="50.14375" y="261.216" style="stroke: #000000; stroke-width: 0.8"/>
      </g>
     </g>
     <g id="text_9">
      <!-- 0.00 -->
      <g transform="translate(20.878125 265.015219) scale(0.1 -0.1)">
       <defs>
        <path id="DejaVuSans-2e" d="M 684 794 
L 1344 794 
L 1344 0 
L 684 0 
L 684 794 
z
" transform="scale(0.015625)"/>
       </defs>
       <use xlink:href="#DejaVuSans-30"/>
       <use xlink:href="#DejaVuSans-2e" transform="translate(63.623047 0)"/>
       <use xlink:href="#DejaVuSans-30" transform="translate(95.410156 0)"/>
       <use xlink:href="#DejaVuSans-30" transform="translate(159.033203 0)"/>
      </g>
     </g>
    </g>
    <g id="ytick_2">
     <g id="line2d_9">
      <g>
       <use xlink:href="#mda580de901" x="50.14375" y="230.782322" style="stroke: #000000; stroke-width: 0.8"/>
      </g>
     </g>
     <g id="text_10">
      <!-- 0.05 -->
      <g transform="translate(20.878125 234.581541) scale(0.1 -0.1)">
       <use xlink:href="#DejaVuSans-30"/>
       <use xlink:href="#DejaVuSans-2e" transform="translate(63.623047 0)"/>
       <use xlink:href="#DejaVuSans-30" transform="translate(95.410156 0)"/>
       <use xlink:href="#DejaVuSans-35" transform="translate(159.033203 0)"/>
      </g>
     </g>
    </g>
    <g id="ytick_3">
     <g id="line2d_10">
      <g>
       <use xlink:href="#mda580de901" x="50.14375" y="200.348645" style="stroke: #000000; stroke-width: 0.8"/>
      </g>
     </g>
     <g id="text_11">
      <!-- 0.10 -->
      <g transform="translate(20.878125 204.147864) scale(0.1 -0.1)">
       <use xlink:href="#DejaVuSans-30"/>
       <use xlink:href="#DejaVuSans-2e" transform="translate(63.623047 0)"/>
       <use xlink:href="#DejaVuSans-31" transform="translate(95.410156 0)"/>
       <use xlink:href="#DejaVuSans-30" transform="translate(159.033203 0)"/>
      </g>
     </g>
    </g>
    <g id="ytick_4">
     <g id="line2d_11">
      <g>
       <use xlink:href="#mda580de901" x="50.14375" y="169.914967" style="stroke: #000000; stroke-width: 0.8"/>
      </g>
     </g>
     <g id="text_12">
      <!-- 0.15 -->
      <g transform="translate(20.878125 173.714186) scale(0.1 -0.1)">
       <use xlink:href="#DejaVuSans-30"/>
       <use xlink:href="#DejaVuSans-2e" transform="translate(63.623047 0)"/>
       <use xlink:href="#DejaVuSans-31" transform="translate(95.410156 0)"/>
       <use xlink:href="#DejaVuSans-35" transform="translate(159.033203 0)"/>
      </g>
     </g>
    </g>
    <g id="ytick_5">
     <g id="line2d_12">
      <g>
       <use xlink:href="#mda580de901" x="50.14375" y="139.48129" style="stroke: #000000; stroke-width: 0.8"/>
      </g>
     </g>
     <g id="text_13">
      <!-- 0.20 -->
      <g transform="translate(20.878125 143.280508) scale(0.1 -0.1)">
       <use xlink:href="#DejaVuSans-30"/>
       <use xlink:href="#DejaVuSans-2e" transform="translate(63.623047 0)"/>
       <use xlink:href="#DejaVuSans-32" transform="translate(95.410156 0)"/>
       <use xlink:href="#DejaVuSans-30" transform="translate(159.033203 0)"/>
      </g>
     </g>
    </g>
    <g id="ytick_6">
     <g id="line2d_13">
      <g>
       <use xlink:href="#mda580de901" x="50.14375" y="109.047612" style="stroke: #000000; stroke-width: 0.8"/>
      </g>
     </g>
     <g id="text_14">
      <!-- 0.25 -->
      <g transform="translate(20.878125 112.846831) scale(0.1 -0.1)">
       <use xlink:href="#DejaVuSans-30"/>
       <use xlink:href="#DejaVuSans-2e" transform="translate(63.623047 0)"/>
       <use xlink:href="#DejaVuSans-32" transform="translate(95.410156 0)"/>
       <use xlink:href="#DejaVuSans-35" transform="translate(159.033203 0)"/>
      </g>
     </g>
    </g>
    <g id="ytick_7">
     <g id="line2d_14">
      <g>
       <use xlink:href="#mda580de901" x="50.14375" y="78.613934" style="stroke: #000000; stroke-width: 0.8"/>
      </g>
     </g>
     <g id="text_15">
      <!-- 0.30 -->
      <g transform="translate(20.878125 82.413153) scale(0.1 -0.1)">
       <use xlink:href="#DejaVuSans-30"/>
       <use xlink:href="#DejaVuSans-2e" transform="translate(63.623047 0)"/>
       <use xlink:href="#DejaVuSans-33" transform="translate(95.410156 0)"/>
       <use xlink:href="#DejaVuSans-30" transform="translate(159.033203 0)"/>
      </g>
     </g>
    </g>
    <g id="ytick_8">
     <g id="line2d_15">
      <g>
       <use xlink:href="#mda580de901" x="50.14375" y="48.180257" style="stroke: #000000; stroke-width: 0.8"/>
      </g>
     </g>
     <g id="text_16">
      <!-- 0.35 -->
      <g transform="translate(20.878125 51.979476) scale(0.1 -0.1)">
       <use xlink:href="#DejaVuSans-30"/>
       <use xlink:href="#DejaVuSans-2e" transform="translate(63.623047 0)"/>
       <use xlink:href="#DejaVuSans-33" transform="translate(95.410156 0)"/>
       <use xlink:href="#DejaVuSans-35" transform="translate(159.033203 0)"/>
      </g>
     </g>
    </g>
    <g id="ytick_9">
     <g id="line2d_16">
      <g>
       <use xlink:href="#mda580de901" x="50.14375" y="17.746579" style="stroke: #000000; stroke-width: 0.8"/>
      </g>
     </g>
     <g id="text_17">
      <!-- 0.40 -->
      <g transform="translate(20.878125 21.545798) scale(0.1 -0.1)">
       <defs>
        <path id="DejaVuSans-34" d="M 2419 4116 
L 825 1625 
L 2419 1625 
L 2419 4116 
z
M 2253 4666 
L 3047 4666 
L 3047 1625 
L 3713 1625 
L 3713 1100 
L 3047 1100 
L 3047 0 
L 2419 0 
L 2419 1100 
L 313 1100 
L 313 1709 
L 2253 4666 
z
" transform="scale(0.015625)"/>
       </defs>
       <use xlink:href="#DejaVuSans-30"/>
       <use xlink:href="#DejaVuSans-2e" transform="translate(63.623047 0)"/>
       <use xlink:href="#DejaVuSans-34" transform="translate(95.410156 0)"/>
       <use xlink:href="#DejaVuSans-30" transform="translate(159.033203 0)"/>
      </g>
     </g>
    </g>
    <g id="text_18">
     <!-- fraction -->
     <g transform="translate(14.798438 159.46225) rotate(-90) scale(0.1 -0.1)">
      <defs>
       <path id="DejaVuSans-66" d="M 2375 4863 
L 2375 4384 
L 1825 4384 
Q 1516 4384 1395 4259 
Q 1275 4134 1275 3809 
L 1275 3500 
L 2222 3500 
L 2222 3053 
L 1275 3053 
L 1275 0 
L 697 0 
L 697 3053 
L 147 3053 
L 147 3500 
L 697 3500 
L 697 3744 
Q 697 4328 969 4595 
Q 1241 4863 1831 4863 
L 2375 4863 
z
" transform="scale(0.015625)"/>
       <path id="DejaVuSans-72" d="M 2631 2963 
Q 2534 3019 2420 3045 
Q 2306 3072 2169 3072 
Q 1681 3072 1420 2755 
Q 1159 2438 1159 1844 
L 1159 0 
L 581 0 
L 581 3500 
L 1159 3500 
L 1159 2956 
Q 1341 3275 1631 3429 
Q 1922 3584 2338 3584 
Q 2397 3584 2469 3576 
Q 2541 3569 2628 3553 
L 2631 2963 
z
" transform="scale(0.015625)"/>
       <path id="DejaVuSans-61" d="M 2194 1759 
Q 1497 1759 1228 1600 
Q 959 1441 959 1056 
Q 959 750 1161 570 
Q 1363 391 1709 391 
Q 2188 391 2477 730 
Q 2766 1069 2766 1631 
L 2766 1759 
L 2194 1759 
z
M 3341 1997 
L 3341 0 
L 2766 0 
L 2766 531 
Q 2569 213 2275 61 
Q 1981 -91 1556 -91 
Q 1019 -91 701 211 
Q 384 513 384 1019 
Q 384 1609 779 1909 
Q 1175 2209 1959 2209 
L 2766 2209 
L 2766 2266 
Q 2766 2663 2505 2880 
Q 2244 3097 1772 3097 
Q 1472 3097 1187 3025 
Q 903 2953 641 2809 
L 641 3341 
Q 956 3463 1253 3523 
Q 1550 3584 1831 3584 
Q 2591 3584 2966 3190 
Q 3341 2797 3341 1997 
z
" transform="scale(0.015625)"/>
       <path id="DejaVuSans-63" d="M 3122 3366 
L 3122 2828 
Q 2878 2963 2633 3030 
Q 2388 3097 2138 3097 
Q 1578 3097 1268 2742 
Q 959 2388 959 1747 
Q 959 1106 1268 751 
Q 1578 397 2138 397 
Q 2388 397 2633 464 
Q 2878 531 3122 666 
L 3122 134 
Q 2881 22 2623 -34 
Q 2366 -91 2075 -91 
Q 1284 -91 818 406 
Q 353 903 353 1747 
Q 353 2603 823 3093 
Q 1294 3584 2113 3584 
Q 2378 3584 2631 3529 
Q 2884 3475 3122 3366 
z
" transform="scale(0.015625)"/>
       <path id="DejaVuSans-6f" d="M 1959 3097 
Q 1497 3097 1228 2736 
Q 959 2375 959 1747 
Q 959 1119 1226 758 
Q 1494 397 1959 397 
Q 2419 397 2687 759 
Q 2956 1122 2956 1747 
Q 2956 2369 2687 2733 
Q 2419 3097 1959 3097 
z
M 1959 3584 
Q 2709 3584 3137 3096 
Q 3566 2609 3566 1747 
Q 3566 888 3137 398 
Q 2709 -91 1959 -91 
Q 1206 -91 779 398 
Q 353 888 353 1747 
Q 353 2609 779 3096 
Q 1206 3584 1959 3584 
z
" transform="scale(0.015625)"/>
       <path id="DejaVuSans-6e" d="M 3513 2113 
L 3513 0 
L 2938 0 
L 2938 2094 
Q 2938 2591 2744 2837 
Q 2550 3084 2163 3084 
Q 1697 3084 1428 2787 
Q 1159 2491 1159 1978 
L 1159 0 
L 581 0 
L 581 3500 
L 1159 3500 
L 1159 2956 
Q 1366 3272 1645 3428 
Q 1925 3584 2291 3584 
Q 2894 3584 3203 3211 
Q 3513 2838 3513 2113 
z
" transform="scale(0.015625)"/>
      </defs>
      <use xlink:href="#DejaVuSans-66"/>
      <use xlink:href="#DejaVuSans-72" transform="translate(35.205078 0)"/>
      <use xlink:href="#DejaVuSans-61" transform="translate(76.318359 0)"/>
      <use xlink:href="#DejaVuSans-63" transform="translate(137.597656 0)"/>
      <use xlink:href="#DejaVuSans-74" transform="translate(192.578125 0)"/>
      <use xlink:href="#DejaVuSans-69" transform="translate(231.787109 0)"/>
      <use xlink:href="#DejaVuSans-6f" transform="translate(259.570312 0)"/>
      <use xlink:href="#DejaVuSans-6e" transform="translate(320.751953 0)"/>
     </g>
    </g>
   </g>
   <g id="line2d_17">
    <path d="M 66.376477 210.493204 
L 68.54808 215.465582 
L 70.719682 220.023168 
L 72.891284 224.188639 
L 75.062887 227.985459 
L 77.234489 231.437451 
L 79.406091 234.568416 
L 81.577693 237.401818 
L 83.749296 239.960523 
L 85.920898 242.266587 
L 88.0925 244.341104 
L 90.264103 246.204087 
L 93.521506 248.64286 
L 96.77891 250.706402 
L 100.036313 252.447167 
L 103.293717 253.911638 
L 106.55112 255.140635 
L 109.808523 256.169732 
L 114.151728 257.283489 
L 118.494933 258.157418 
L 123.923939 258.987396 
L 129.352944 259.595958 
L 135.867751 260.114056 
L 144.55416 260.559339 
L 155.412172 260.873917 
L 171.699189 261.088422 
L 199.930019 261.193295 
L 298.737925 261.215951 
L 391.031023 261.216 
L 391.031023 261.216 
" clip-path="url(#p9f7ba4a1e6)" style="fill: none; stroke: #0000ff; stroke-width: 1.5; stroke-linecap: square"/>
   </g>
   <g id="line2d_18">
    <path d="M 66.376477 210.507189 
L 68.54808 215.463055 
L 70.719682 220.01544 
L 72.891284 224.18151 
L 75.062887 227.98135 
L 77.234489 231.436839 
L 79.406091 234.570773 
L 81.577693 237.406196 
L 83.749296 239.965904 
L 85.920898 242.272074 
L 88.0925 244.346002 
L 90.264103 246.207925 
L 93.521506 248.644674 
L 96.77891 250.706156 
L 100.036313 252.445183 
L 103.293717 253.908419 
L 106.55112 255.136731 
L 109.808523 256.165651 
L 114.151728 257.279804 
L 118.494933 258.154614 
L 123.923939 258.986007 
L 129.352944 259.595998 
L 135.867751 260.115525 
L 144.55416 260.562004 
L 155.412172 260.877034 
L 170.613388 261.08234 
L 197.758417 261.191233 
L 287.879913 261.21592 
L 391.031023 261.216 
L 391.031023 261.216 
" clip-path="url(#p9f7ba4a1e6)" style="fill: none; stroke-dasharray: 5.55,2.4; stroke-dashoffset: 0; stroke: #0000ff; stroke-width: 1.5"/>
   </g>
   <g id="line2d_19">
    <path d="M 66.376477 193.585605 
L 70.719682 201.164426 
L 75.062887 208.249148 
L 78.32029 213.199038 
L 81.577693 217.820128 
L 84.835097 222.106623 
L 88.0925 226.059967 
L 91.349904 229.687375 
L 94.607307 233.000478 
L 97.864711 236.014126 
L 101.122114 238.745355 
L 104.379518 241.212528 
L 107.636921 243.434645 
L 110.894325 245.430789 
L 114.151728 247.219717 
L 118.494933 249.313808 
L 122.838137 251.112138 
L 127.181342 252.651992 
L 131.524547 253.967171 
L 136.953552 255.340991 
L 142.382558 256.462485 
L 147.811564 257.375614 
L 154.326371 258.248045 
L 161.926979 259.023258 
L 170.613388 259.668188 
L 180.385599 260.172632 
L 193.415212 260.60146 
L 209.70223 260.900347 
L 233.589855 261.098038 
L 277.021901 261.196603 
L 391.031023 261.21584 
L 391.031023 261.21584 
" clip-path="url(#p9f7ba4a1e6)" style="fill: none; stroke: #008000; stroke-width: 1.5; stroke-linecap: square"/>
   </g>
   <g id="line2d_20">
    <path d="M 66.376477 193.631235 
L 71.805483 202.963384 
L 76.148688 209.916628 
L 79.406091 214.769142 
L 82.663495 219.289658 
L 85.920898 223.472222 
L 89.178302 227.319718 
L 92.435705 230.841397 
L 95.693108 234.050946 
L 98.950512 236.964981 
L 102.207915 239.601895 
L 105.465319 241.980982 
L 108.722722 244.121776 
L 111.980126 246.043573 
L 115.237529 247.765078 
L 119.580734 249.779619 
L 123.923939 251.509383 
L 128.267143 252.990546 
L 132.610348 254.255733 
L 138.039354 255.577541 
L 143.468359 256.65674 
L 149.983166 257.690418 
L 156.497973 258.495492 
L 164.098581 259.210223 
L 172.78499 259.804033 
L 183.643002 260.308742 
L 196.672616 260.684692 
L 214.045434 260.957218 
L 241.190463 261.132755 
L 295.480521 261.20759 
L 391.031023 261.215857 
L 391.031023 261.215857 
" clip-path="url(#p9f7ba4a1e6)" style="fill: none; stroke-dasharray: 5.55,2.4; stroke-dashoffset: 0; stroke: #008000; stroke-width: 1.5"/>
   </g>
   <g id="line2d_21">
    <path d="M 66.376477 176.678007 
L 69.633881 179.486725 
L 73.977085 183.55086 
L 79.406091 188.969618 
L 97.864711 207.763446 
L 103.293717 212.894396 
L 108.722722 217.714451 
L 114.151728 222.193039 
L 118.494933 225.521037 
L 122.838137 228.621833 
L 127.181342 231.4992 
L 131.524547 234.159892 
L 136.953552 237.194693 
L 142.382558 239.92512 
L 147.811564 242.373254 
L 153.24057 244.561841 
L 158.669575 246.513462 
L 164.098581 248.249976 
L 170.613388 250.079003 
L 177.128195 251.661499 
L 183.643002 253.027891 
L 191.24361 254.385289 
L 198.844218 255.524237 
L 207.530627 256.601061 
L 217.302838 257.576128 
L 228.160849 258.424208 
L 240.104662 259.134155 
L 254.220077 259.74704 
L 271.592896 260.26197 
L 293.308919 260.661545 
L 321.539749 260.943368 
L 363.885994 261.122673 
L 391.031023 261.169226 
L 391.031023 261.169226 
" clip-path="url(#p9f7ba4a1e6)" style="fill: none; stroke: #ff0000; stroke-width: 1.5; stroke-linecap: square"/>
   </g>
   <g id="line2d_22">
    <path d="M 66.376477 176.798025 
L 69.633881 179.488505 
L 72.891284 182.459875 
L 77.234489 186.716539 
L 84.835097 194.555503 
L 94.607307 204.587043 
L 101.122114 210.910771 
L 106.55112 215.853549 
L 111.980126 220.460483 
L 117.409132 224.715681 
L 121.752336 227.864774 
L 126.095541 230.790657 
L 130.438745 233.499696 
L 135.867751 236.594045 
L 141.296757 239.382261 
L 146.725763 241.885686 
L 152.154769 244.126471 
L 157.583774 246.126767 
L 163.01278 247.908165 
L 169.527587 249.785891 
L 176.042394 251.411487 
L 182.557201 252.815601 
L 190.157809 254.210686 
L 197.758417 255.381175 
L 206.444826 256.487486 
L 216.217037 257.488697 
L 227.075048 258.358809 
L 239.018861 259.086458 
L 253.134276 259.713875 
L 269.421293 260.213603 
L 290.051515 260.616715 
L 317.196544 260.912199 
L 357.371187 261.105214 
L 391.031023 261.168506 
L 391.031023 261.168506 
" clip-path="url(#p9f7ba4a1e6)" style="fill: none; stroke-dasharray: 5.55,2.4; stroke-dashoffset: 0; stroke: #ff0000; stroke-width: 1.5"/>
   </g>
   <g id="line2d_23">
    <path d="M 66.376477 159.770408 
L 68.54808 158.879001 
L 70.719682 158.161522 
L 72.891284 157.612222 
L 75.062887 157.224498 
L 78.32029 156.929816 
L 81.577693 156.955711 
L 84.835097 157.274301 
L 88.0925 157.857264 
L 91.349904 158.676599 
L 94.607307 159.705202 
L 98.950512 161.357843 
L 103.293717 163.280155 
L 108.722722 165.984977 
L 114.151728 168.944551 
L 121.752336 173.377997 
L 132.610348 180.0168 
L 151.068967 191.328116 
L 160.841178 197.061327 
L 169.527587 201.925081 
L 178.213996 206.539428 
L 186.900406 210.888729 
L 195.586815 214.966867 
L 204.273224 218.774508 
L 212.959633 222.317085 
L 221.646042 225.603309 
L 230.332452 228.64407 
L 239.018861 231.451624 
L 247.70527 234.038997 
L 257.477481 236.703237 
L 267.249691 239.124713 
L 277.021901 241.322037 
L 287.879913 243.522405 
L 298.737925 245.491543 
L 310.681737 247.416619 
L 322.62555 249.115353 
L 335.655164 250.739311 
L 349.770579 252.261254 
L 364.971795 253.660761 
L 381.258812 254.924331 
L 391.031023 255.581022 
L 391.031023 255.581022 
" clip-path="url(#p9f7ba4a1e6)" style="fill: none; stroke: #00bfbf; stroke-width: 1.5; stroke-linecap: square"/>
   </g>
   <g id="line2d_24">
    <path d="M 66.376477 159.864587 
L 68.54808 158.880903 
L 70.719682 158.109254 
L 72.891284 157.534086 
L 75.062887 157.1408 
L 77.234489 156.9157 
L 80.491892 156.86551 
L 83.749296 157.124972 
L 87.006699 157.657745 
L 90.264103 158.430866 
L 93.521506 159.414462 
L 97.864711 161.006946 
L 102.207915 162.868702 
L 106.55112 164.949832 
L 111.980126 167.793996 
L 118.494933 171.468644 
L 127.181342 176.646523 
L 159.755377 196.356261 
L 169.527587 201.86325 
L 178.213996 206.50077 
L 186.900406 210.8754 
L 195.586815 214.978181 
L 204.273224 218.807735 
L 212.959633 222.368192 
L 221.646042 225.667579 
L 230.332452 228.716586 
L 239.018861 231.527627 
L 247.70527 234.114128 
L 257.477481 236.772862 
L 267.249691 239.184911 
L 277.021901 241.369808 
L 287.879913 243.553931 
L 298.737925 245.505317 
L 310.681737 247.410248 
L 322.62555 249.08917 
L 335.655164 250.692793 
L 349.770579 252.194988 
L 364.971795 253.576461 
L 381.258812 254.824735 
L 391.031023 255.474251 
L 391.031023 255.474251 
" clip-path="url(#p9f7ba4a1e6)" style="fill: none; stroke-dasharray: 5.55,2.4; stroke-dashoffset: 0; stroke: #00bfbf; stroke-width: 1.5"/>
   </g>
   <g id="line2d_25">
    <path d="M 66.376477 185.131806 
L 70.719682 181.34036 
L 75.062887 177.918579 
L 78.32029 175.596015 
L 81.577693 173.479166 
L 84.835097 171.562445 
L 89.178302 169.305119 
L 93.521506 167.369296 
L 97.864711 165.731746 
L 102.207915 164.368381 
L 106.55112 163.255288 
L 110.894325 162.369428 
L 115.237529 161.68907 
L 120.666535 161.097026 
L 126.095541 160.758891 
L 131.524547 160.642887 
L 138.039354 160.757724 
L 144.55416 161.110405 
L 152.154769 161.7752 
L 159.755377 162.667802 
L 168.441786 163.916511 
L 178.213996 165.555481 
L 189.072008 167.602718 
L 202.101622 170.292152 
L 218.388639 173.896484 
L 241.190463 179.192936 
L 301.995328 193.41572 
L 325.882953 198.719159 
L 347.598977 203.318638 
L 368.229198 207.471063 
L 388.85942 211.401549 
L 391.031023 211.802169 
L 391.031023 211.802169 
" clip-path="url(#p9f7ba4a1e6)" style="fill: none; stroke: #bf00bf; stroke-width: 1.5; stroke-linecap: square"/>
   </g>
   <g id="line2d_26">
    <path d="M 66.376477 184.84759 
L 69.633881 181.987915 
L 72.891284 179.371859 
L 76.148688 176.984781 
L 79.406091 174.812873 
L 83.749296 172.229305 
L 88.0925 169.976363 
L 92.435705 168.027382 
L 96.77891 166.35771 
L 101.122114 164.944555 
L 105.465319 163.766846 
L 109.808523 162.805106 
L 114.151728 162.041334 
L 119.580734 161.339788 
L 125.00974 160.891922 
L 130.438745 160.670796 
L 135.867751 160.652015 
L 142.382558 160.865621 
L 148.897365 161.304683 
L 156.497973 162.061576 
L 164.098581 163.041842 
L 172.78499 164.388747 
L 182.557201 166.137142 
L 193.415212 168.303748 
L 206.444826 171.129207 
L 223.817645 175.139509 
L 257.477481 183.206236 
L 286.794112 190.132505 
L 309.595936 195.291375 
L 330.226158 199.733338 
L 349.770579 203.724017 
L 369.315 207.495813 
L 388.85942 211.048454 
L 391.031023 211.429813 
L 391.031023 211.429813 
" clip-path="url(#p9f7ba4a1e6)" style="fill: none; stroke-dasharray: 5.55,2.4; stroke-dashoffset: 0; stroke: #bf00bf; stroke-width: 1.5"/>
   </g>
   <g id="line2d_27">
    <path d="M 66.376477 202.039405 
L 71.805483 197.576827 
L 76.148688 194.261903 
L 80.491892 191.182079 
L 84.835097 188.337275 
L 89.178302 185.721975 
L 93.521506 183.32683 
L 97.864711 181.140028 
L 103.293717 178.679361 
L 108.722722 176.496801 
L 114.151728 174.565912 
L 119.580734 172.861665 
L 125.00974 171.361005 
L 131.524547 169.799733 
L 138.039354 168.469844 
L 145.639962 167.174183 
L 153.24057 166.118834 
L 160.841178 165.272582 
L 169.527587 164.528056 
L 179.299797 163.935795 
L 189.072008 163.566861 
L 199.930019 163.381192 
L 211.873832 163.40961 
L 224.903446 163.675794 
L 239.018861 164.196523 
L 254.220077 164.982108 
L 271.592896 166.114037 
L 291.137316 167.627316 
L 312.85334 169.54131 
L 337.826766 171.969479 
L 368.229198 175.155239 
L 391.031023 177.654493 
L 391.031023 177.654493 
" clip-path="url(#p9f7ba4a1e6)" style="fill: none; stroke: #bfbf00; stroke-width: 1.5; stroke-linecap: square"/>
   </g>
   <g id="line2d_28">
    <path d="M 66.376477 201.626658 
L 70.719682 198.114238 
L 75.062887 194.860641 
L 79.406091 191.849461 
L 83.749296 189.065321 
L 89.178302 185.882546 
L 94.607307 183.005879 
L 100.036313 180.411168 
L 105.465319 178.076139 
L 110.894325 175.980251 
L 116.32333 174.104556 
L 121.752336 172.43158 
L 128.267143 170.669 
L 134.78195 169.149712 
L 141.296757 167.850595 
L 148.897365 166.585343 
L 156.497973 165.561283 
L 164.098581 164.751629 
L 172.78499 164.058294 
L 181.4714 163.582231 
L 191.24361 163.271923 
L 202.101622 163.166777 
L 214.045434 163.296023 
L 227.075048 163.678133 
L 241.190463 164.321104 
L 257.477481 165.294847 
L 275.9361 166.624596 
L 298.737925 168.500991 
L 328.054556 171.151939 
L 374.744005 175.629843 
L 391.031023 177.214357 
L 391.031023 177.214357 
" clip-path="url(#p9f7ba4a1e6)" style="fill: none; stroke-dasharray: 5.55,2.4; stroke-dashoffset: 0; stroke: #bfbf00; stroke-width: 1.5"/>
   </g>
   <g id="line2d_29">
    <path d="M 66.376477 168.224207 
L 71.805483 160.191106 
L 77.234489 152.573925 
L 82.663495 145.407595 
L 87.006699 140.005905 
L 91.349904 134.894644 
L 95.693108 130.064116 
L 101.122114 124.400267 
L 106.55112 119.123823 
L 111.980126 114.202517 
L 117.409132 109.604322 
L 122.838137 105.298799 
L 128.267143 101.257817 
L 133.696149 97.455859 
L 140.210956 93.177022 
L 146.725763 89.174911 
L 153.24057 85.419616 
L 160.841178 81.316284 
L 168.441786 77.479345 
L 176.042394 73.879652 
L 184.728803 70.024855 
L 193.415212 66.417118 
L 203.187423 62.621847 
L 212.959633 59.076216 
L 222.731844 55.754737 
L 233.589855 52.301103 
L 244.447867 49.072911 
L 256.391679 45.757296 
L 268.335492 42.665352 
L 281.365106 39.523744 
L 294.39472 36.601879 
L 308.510135 33.662229 
L 323.711351 30.735503 
L 338.912567 28.034618 
L 355.199585 25.369254 
L 372.572403 22.763814 
L 389.945222 20.382288 
L 391.031023 20.240431 
L 391.031023 20.240431 
" clip-path="url(#p9f7ba4a1e6)" style="fill: none; stroke: #000000; stroke-width: 1.5; stroke-linecap: square"/>
   </g>
   <g id="line2d_30">
    <path d="M 66.376477 167.252432 
L 71.805483 159.502682 
L 77.234489 152.221321 
L 82.663495 145.377188 
L 88.0925 138.941188 
L 93.521506 132.886149 
L 98.950512 127.186701 
L 104.379518 121.819151 
L 109.808523 116.761376 
L 115.237529 111.992717 
L 120.666535 107.493883 
L 126.095541 103.246858 
L 132.610348 98.45921 
L 139.125155 93.983037 
L 145.639962 89.7935 
L 152.154769 85.867719 
L 158.669575 82.18462 
L 166.270184 78.168582 
L 173.870792 74.428291 
L 181.4714 70.938116 
L 189.072008 67.674769 
L 197.758417 64.195921 
L 206.444826 60.957249 
L 216.217037 57.569111 
L 225.989247 54.420265 
L 236.847259 51.167467 
L 247.70527 48.140272 
L 259.649083 45.035104 
L 272.678697 41.876827 
L 286.794112 38.682006 
L 303.081129 35.236391 
L 320.453948 31.789301 
L 341.08417 27.932902 
L 364.971795 23.705466 
L 391.031023 19.296 
L 391.031023 19.296 
" clip-path="url(#p9f7ba4a1e6)" style="fill: none; stroke-dasharray: 5.55,2.4; stroke-dashoffset: 0; stroke: #000000; stroke-width: 1.5"/>
   </g>
   <g id="line2d_31">
    <path d="M 66.376477 185.131806 
L 72.891284 177.031522 
L 78.32029 170.626225 
L 83.749296 164.564164 
L 89.178302 158.851974 
L 94.607307 153.482054 
L 100.036313 148.437573 
L 105.465319 143.696447 
L 110.894325 139.234258 
L 116.32333 135.026228 
L 122.838137 130.278564 
L 129.352944 125.824432 
L 135.867751 121.629752 
L 143.468359 117.024245 
L 151.068967 112.690733 
L 158.669575 108.595076 
L 167.355985 104.169107 
L 176.042394 99.981209 
L 185.814604 95.518404 
L 196.672616 90.829176 
L 207.530627 86.387557 
L 219.47444 81.751851 
L 231.418253 77.346674 
L 244.447867 72.772922 
L 258.563282 68.059562 
L 273.764498 63.232067 
L 288.965714 58.633109 
L 305.252731 53.931318 
L 322.62555 49.145725 
L 341.08417 44.29296 
L 360.62859 39.387482 
L 381.258812 34.441823 
L 391.031023 32.175267 
L 391.031023 32.175267 
" clip-path="url(#p9f7ba4a1e6)" style="fill: none; stroke: #ffa500; stroke-width: 1.5; stroke-linecap: square"/>
   </g>
   <g id="line2d_32">
    <path d="M 66.376477 184.259857 
L 71.805483 177.734702 
L 77.234489 171.558368 
L 82.663495 165.708379 
L 88.0925 160.163686 
L 93.521506 154.904569 
L 98.950512 149.912555 
L 105.465319 144.250431 
L 111.980126 138.920245 
L 118.494933 133.896263 
L 125.00974 129.15469 
L 131.524547 124.673526 
L 138.039354 120.432428 
L 145.639962 115.76288 
L 153.24057 111.367095 
L 160.841178 107.220019 
L 169.527587 102.755805 
L 178.213996 98.555668 
L 186.900406 94.59171 
L 196.672616 90.38336 
L 206.444826 86.410115 
L 217.302838 82.236561 
L 229.246651 77.899154 
L 242.276264 73.424773 
L 256.391679 68.830105 
L 271.592896 64.12166 
L 288.965714 58.98141 
L 308.510135 53.431302 
L 332.39776 46.882429 
L 364.971795 38.198669 
L 391.031023 31.342379 
L 391.031023 31.342379 
" clip-path="url(#p9f7ba4a1e6)" style="fill: none; stroke-dasharray: 5.55,2.4; stroke-dashoffset: 0; stroke: #ffa500; stroke-width: 1.5"/>
   </g>
   <g id="patch_3">
    <path d="M 50.14375 273.312 
L 50.14375 7.2 
" style="fill: none; stroke: #000000; stroke-width: 0.8; stroke-linejoin: miter; stroke-linecap: square"/>
   </g>
   <g id="patch_4">
    <path d="M 407.26375 273.312 
L 407.26375 7.2 
" style="fill: none; stroke: #000000; stroke-width: 0.8; stroke-linejoin: miter; stroke-linecap: square"/>
   </g>
   <g id="patch_5">
    <path d="M 50.14375 273.312 
L 407.26375 273.312 
" style="fill: none; stroke: #000000; stroke-width: 0.8; stroke-linejoin: miter; stroke-linecap: square"/>
   </g>
   <g id="patch_6">
    <path d="M 50.14375 7.2 
L 407.26375 7.2 
" style="fill: none; stroke: #000000; stroke-width: 0.8; stroke-linejoin: miter; stroke-linecap: square"/>
   </g>
   <g id="legend_1">
    <g id="patch_7">
     <path d="M 57.14375 147.303125 
L 141.453125 147.303125 
Q 143.453125 147.303125 143.453125 145.303125 
L 143.453125 14.2 
Q 143.453125 12.2 141.453125 12.2 
L 57.14375 12.2 
Q 55.14375 12.2 55.14375 14.2 
L 55.14375 145.303125 
Q 55.14375 147.303125 57.14375 147.303125 
z
" style="fill: #ffffff; opacity: 0.8; stroke: #cccccc; stroke-linejoin: miter"/>
    </g>
    <g id="text_19">
     <!-- variants -->
     <g transform="translate(79.032813 23.798437) scale(0.1 -0.1)">
      <defs>
       <path id="DejaVuSans-76" d="M 191 3500 
L 800 3500 
L 1894 563 
L 2988 3500 
L 3597 3500 
L 2284 0 
L 1503 0 
L 191 3500 
z
" transform="scale(0.015625)"/>
       <path id="DejaVuSans-73" d="M 2834 3397 
L 2834 2853 
Q 2591 2978 2328 3040 
Q 2066 3103 1784 3103 
Q 1356 3103 1142 2972 
Q 928 2841 928 2578 
Q 928 2378 1081 2264 
Q 1234 2150 1697 2047 
L 1894 2003 
Q 2506 1872 2764 1633 
Q 3022 1394 3022 966 
Q 3022 478 2636 193 
Q 2250 -91 1575 -91 
Q 1294 -91 989 -36 
Q 684 19 347 128 
L 347 722 
Q 666 556 975 473 
Q 1284 391 1588 391 
Q 1994 391 2212 530 
Q 2431 669 2431 922 
Q 2431 1156 2273 1281 
Q 2116 1406 1581 1522 
L 1381 1569 
Q 847 1681 609 1914 
Q 372 2147 372 2553 
Q 372 3047 722 3315 
Q 1072 3584 1716 3584 
Q 2034 3584 2315 3537 
Q 2597 3491 2834 3397 
z
" transform="scale(0.015625)"/>
      </defs>
      <use xlink:href="#DejaVuSans-76"/>
      <use xlink:href="#DejaVuSans-61" transform="translate(59.179688 0)"/>
      <use xlink:href="#DejaVuSans-72" transform="translate(120.458984 0)"/>
      <use xlink:href="#DejaVuSans-69" transform="translate(161.572266 0)"/>
      <use xlink:href="#DejaVuSans-61" transform="translate(189.355469 0)"/>
      <use xlink:href="#DejaVuSans-6e" transform="translate(250.634766 0)"/>
      <use xlink:href="#DejaVuSans-74" transform="translate(314.013672 0)"/>
      <use xlink:href="#DejaVuSans-73" transform="translate(353.222656 0)"/>
     </g>
    </g>
    <g id="line2d_33">
     <path d="M 59.14375 34.976562 
L 69.14375 34.976562 
L 79.14375 34.976562 
" style="fill: none; stroke: #ffa500; stroke-width: 1.5; stroke-linecap: square"/>
    </g>
    <g id="text_20">
     <!-- score 1.00 -->
     <g transform="translate(87.14375 38.476562) scale(0.1 -0.1)">
      <defs>
       <path id="DejaVuSans-20" transform="scale(0.015625)"/>
      </defs>
      <use xlink:href="#DejaVuSans-73"/>
      <use xlink:href="#DejaVuSans-63" transform="translate(52.099609 0)"/>
      <use xlink:href="#DejaVuSans-6f" transform="translate(107.080078 0)"/>
      <use xlink:href="#DejaVuSans-72" transform="translate(168.261719 0)"/>
      <use xlink:href="#DejaVuSans-65" transform="translate(207.125 0)"/>
      <use xlink:href="#DejaVuSans-20" transform="translate(268.648438 0)"/>
      <use xlink:href="#DejaVuSans-31" transform="translate(300.435547 0)"/>
      <use xlink:href="#DejaVuSans-2e" transform="translate(364.058594 0)"/>
      <use xlink:href="#DejaVuSans-30" transform="translate(395.845703 0)"/>
      <use xlink:href="#DejaVuSans-30" transform="translate(459.46875 0)"/>
     </g>
    </g>
    <g id="line2d_34">
     <path d="M 59.14375 49.654688 
L 69.14375 49.654688 
L 79.14375 49.654688 
" style="fill: none; stroke: #000000; stroke-width: 1.5; stroke-linecap: square"/>
    </g>
    <g id="text_21">
     <!-- score 0.99 -->
     <g transform="translate(87.14375 53.154688) scale(0.1 -0.1)">
      <defs>
       <path id="DejaVuSans-39" d="M 703 97 
L 703 672 
Q 941 559 1184 500 
Q 1428 441 1663 441 
Q 2288 441 2617 861 
Q 2947 1281 2994 2138 
Q 2813 1869 2534 1725 
Q 2256 1581 1919 1581 
Q 1219 1581 811 2004 
Q 403 2428 403 3163 
Q 403 3881 828 4315 
Q 1253 4750 1959 4750 
Q 2769 4750 3195 4129 
Q 3622 3509 3622 2328 
Q 3622 1225 3098 567 
Q 2575 -91 1691 -91 
Q 1453 -91 1209 -44 
Q 966 3 703 97 
z
M 1959 2075 
Q 2384 2075 2632 2365 
Q 2881 2656 2881 3163 
Q 2881 3666 2632 3958 
Q 2384 4250 1959 4250 
Q 1534 4250 1286 3958 
Q 1038 3666 1038 3163 
Q 1038 2656 1286 2365 
Q 1534 2075 1959 2075 
z
" transform="scale(0.015625)"/>
      </defs>
      <use xlink:href="#DejaVuSans-73"/>
      <use xlink:href="#DejaVuSans-63" transform="translate(52.099609 0)"/>
      <use xlink:href="#DejaVuSans-6f" transform="translate(107.080078 0)"/>
      <use xlink:href="#DejaVuSans-72" transform="translate(168.261719 0)"/>
      <use xlink:href="#DejaVuSans-65" transform="translate(207.125 0)"/>
      <use xlink:href="#DejaVuSans-20" transform="translate(268.648438 0)"/>
      <use xlink:href="#DejaVuSans-30" transform="translate(300.435547 0)"/>
      <use xlink:href="#DejaVuSans-2e" transform="translate(364.058594 0)"/>
      <use xlink:href="#DejaVuSans-39" transform="translate(395.845703 0)"/>
      <use xlink:href="#DejaVuSans-39" transform="translate(459.46875 0)"/>
     </g>
    </g>
    <g id="line2d_35">
     <path d="M 59.14375 64.332812 
L 69.14375 64.332812 
L 79.14375 64.332812 
" style="fill: none; stroke: #bfbf00; stroke-width: 1.5; stroke-linecap: square"/>
    </g>
    <g id="text_22">
     <!-- score 0.95 -->
     <g transform="translate(87.14375 67.832812) scale(0.1 -0.1)">
      <use xlink:href="#DejaVuSans-73"/>
      <use xlink:href="#DejaVuSans-63" transform="translate(52.099609 0)"/>
      <use xlink:href="#DejaVuSans-6f" transform="translate(107.080078 0)"/>
      <use xlink:href="#DejaVuSans-72" transform="translate(168.261719 0)"/>
      <use xlink:href="#DejaVuSans-65" transform="translate(207.125 0)"/>
      <use xlink:href="#DejaVuSans-20" transform="translate(268.648438 0)"/>
      <use xlink:href="#DejaVuSans-30" transform="translate(300.435547 0)"/>
      <use xlink:href="#DejaVuSans-2e" transform="translate(364.058594 0)"/>
      <use xlink:href="#DejaVuSans-39" transform="translate(395.845703 0)"/>
      <use xlink:href="#DejaVuSans-35" transform="translate(459.46875 0)"/>
     </g>
    </g>
    <g id="line2d_36">
     <path d="M 59.14375 79.010938 
L 69.14375 79.010938 
L 79.14375 79.010938 
" style="fill: none; stroke: #bf00bf; stroke-width: 1.5; stroke-linecap: square"/>
    </g>
    <g id="text_23">
     <!-- score 0.90 -->
     <g transform="translate(87.14375 82.510938) scale(0.1 -0.1)">
      <use xlink:href="#DejaVuSans-73"/>
      <use xlink:href="#DejaVuSans-63" transform="translate(52.099609 0)"/>
      <use xlink:href="#DejaVuSans-6f" transform="translate(107.080078 0)"/>
      <use xlink:href="#DejaVuSans-72" transform="translate(168.261719 0)"/>
      <use xlink:href="#DejaVuSans-65" transform="translate(207.125 0)"/>
      <use xlink:href="#DejaVuSans-20" transform="translate(268.648438 0)"/>
      <use xlink:href="#DejaVuSans-30" transform="translate(300.435547 0)"/>
      <use xlink:href="#DejaVuSans-2e" transform="translate(364.058594 0)"/>
      <use xlink:href="#DejaVuSans-39" transform="translate(395.845703 0)"/>
      <use xlink:href="#DejaVuSans-30" transform="translate(459.46875 0)"/>
     </g>
    </g>
    <g id="line2d_37">
     <path d="M 59.14375 93.689063 
L 69.14375 93.689063 
L 79.14375 93.689063 
" style="fill: none; stroke: #00bfbf; stroke-width: 1.5; stroke-linecap: square"/>
    </g>
    <g id="text_24">
     <!-- score 0.75 -->
     <g transform="translate(87.14375 97.189063) scale(0.1 -0.1)">
      <defs>
       <path id="DejaVuSans-37" d="M 525 4666 
L 3525 4666 
L 3525 4397 
L 1831 0 
L 1172 0 
L 2766 4134 
L 525 4134 
L 525 4666 
z
" transform="scale(0.015625)"/>
      </defs>
      <use xlink:href="#DejaVuSans-73"/>
      <use xlink:href="#DejaVuSans-63" transform="translate(52.099609 0)"/>
      <use xlink:href="#DejaVuSans-6f" transform="translate(107.080078 0)"/>
      <use xlink:href="#DejaVuSans-72" transform="translate(168.261719 0)"/>
      <use xlink:href="#DejaVuSans-65" transform="translate(207.125 0)"/>
      <use xlink:href="#DejaVuSans-20" transform="translate(268.648438 0)"/>
      <use xlink:href="#DejaVuSans-30" transform="translate(300.435547 0)"/>
      <use xlink:href="#DejaVuSans-2e" transform="translate(364.058594 0)"/>
      <use xlink:href="#DejaVuSans-37" transform="translate(395.845703 0)"/>
      <use xlink:href="#DejaVuSans-35" transform="translate(459.46875 0)"/>
     </g>
    </g>
    <g id="line2d_38">
     <path d="M 59.14375 108.367188 
L 69.14375 108.367188 
L 79.14375 108.367188 
" style="fill: none; stroke: #ff0000; stroke-width: 1.5; stroke-linecap: square"/>
    </g>
    <g id="text_25">
     <!-- score 0.50 -->
     <g transform="translate(87.14375 111.867188) scale(0.1 -0.1)">
      <use xlink:href="#DejaVuSans-73"/>
      <use xlink:href="#DejaVuSans-63" transform="translate(52.099609 0)"/>
      <use xlink:href="#DejaVuSans-6f" transform="translate(107.080078 0)"/>
      <use xlink:href="#DejaVuSans-72" transform="translate(168.261719 0)"/>
      <use xlink:href="#DejaVuSans-65" transform="translate(207.125 0)"/>
      <use xlink:href="#DejaVuSans-20" transform="translate(268.648438 0)"/>
      <use xlink:href="#DejaVuSans-30" transform="translate(300.435547 0)"/>
      <use xlink:href="#DejaVuSans-2e" transform="translate(364.058594 0)"/>
      <use xlink:href="#DejaVuSans-35" transform="translate(395.845703 0)"/>
      <use xlink:href="#DejaVuSans-30" transform="translate(459.46875 0)"/>
     </g>
    </g>
    <g id="line2d_39">
     <path d="M 59.14375 123.045312 
L 69.14375 123.045312 
L 79.14375 123.045312 
" style="fill: none; stroke: #008000; stroke-width: 1.5; stroke-linecap: square"/>
    </g>
    <g id="text_26">
     <!-- score 0.25 -->
     <g transform="translate(87.14375 126.545312) scale(0.1 -0.1)">
      <use xlink:href="#DejaVuSans-73"/>
      <use xlink:href="#DejaVuSans-63" transform="translate(52.099609 0)"/>
      <use xlink:href="#DejaVuSans-6f" transform="translate(107.080078 0)"/>
      <use xlink:href="#DejaVuSans-72" transform="translate(168.261719 0)"/>
      <use xlink:href="#DejaVuSans-65" transform="translate(207.125 0)"/>
      <use xlink:href="#DejaVuSans-20" transform="translate(268.648438 0)"/>
      <use xlink:href="#DejaVuSans-30" transform="translate(300.435547 0)"/>
      <use xlink:href="#DejaVuSans-2e" transform="translate(364.058594 0)"/>
      <use xlink:href="#DejaVuSans-32" transform="translate(395.845703 0)"/>
      <use xlink:href="#DejaVuSans-35" transform="translate(459.46875 0)"/>
     </g>
    </g>
    <g id="line2d_40">
     <path d="M 59.14375 137.723437 
L 69.14375 137.723437 
L 79.14375 137.723437 
" style="fill: none; stroke: #0000ff; stroke-width: 1.5; stroke-linecap: square"/>
    </g>
    <g id="text_27">
     <!-- score 0.00 -->
     <g transform="translate(87.14375 141.223437) scale(0.1 -0.1)">
      <use xlink:href="#DejaVuSans-73"/>
      <use xlink:href="#DejaVuSans-63" transform="translate(52.099609 0)"/>
      <use xlink:href="#DejaVuSans-6f" transform="translate(107.080078 0)"/>
      <use xlink:href="#DejaVuSans-72" transform="translate(168.261719 0)"/>
      <use xlink:href="#DejaVuSans-65" transform="translate(207.125 0)"/>
      <use xlink:href="#DejaVuSans-20" transform="translate(268.648438 0)"/>
      <use xlink:href="#DejaVuSans-30" transform="translate(300.435547 0)"/>
      <use xlink:href="#DejaVuSans-2e" transform="translate(364.058594 0)"/>
      <use xlink:href="#DejaVuSans-30" transform="translate(395.845703 0)"/>
      <use xlink:href="#DejaVuSans-30" transform="translate(459.46875 0)"/>
     </g>
    </g>
   </g>
  </g>
 </g>
 <defs>
  <clipPath id="p9f7ba4a1e6">
   <rect x="50.14375" y="7.2" width="357.12" height="266.112"/>
  </clipPath>
 </defs>
</svg>
