<?xml version="1.0" encoding="utf-8" standalone="no"?>
<!DOCTYPE svg PUBLIC "-//W3C//DTD SVG 1.1//EN"
  "http://www.w3.org/Graphics/SVG/1.1/DTD/svg11.dtd">
<svg xmlns:xlink="http://www.w3.org/1999/xlink" width="414.46375pt" height="310.86825pt" viewBox="0 0 414.46375 310.86825" xmlns="http://www.w3.org/2000/svg" version="1.1">
 <metadata>
  <rdf:RDF xmlns:dc="http://purl.org/dc/elements/1.1/" xmlns:cc="http://creativecommons.org/ns#" xmlns:rdf="http://www.w3.org/1999/02/22-rdf-syntax-ns#">
   <cc:Work>
    <dc:type rdf:resource="http://purl.org/dc/dcmitype/StillImage"/>
    <dc:date>2025-09-29T23:52:16.104777</dc:date>
    <dc:format>image/svg+xml</dc:format>
    <dc:creator>
     <cc:Agent>
      <dc:title>Matplotlib v3.10.6, https://matplotlib.org/</dc:title>
     </cc:Agent>
    </dc:creator>
   </cc:Work>
  </rdf:RDF>
 </metadata>
 <defs>
  <style type="text/css">*{stroke-linejoin: round; stroke-linecap: butt}</style>
 </defs>
 <g id="figure_1">
  <g id="patch_1">
   <path d="M 0 310.86825 
L 414.46375 310.86825 
L 414.46375 0 
L 0 0 
z
" style="fill: #ffffff"/>
  </g>
  <g id="axes_1">
   <g id="patch_2">
    <path d="M 50.14375 273.312 
L 407.26375 273.312 
L 407.26375 7.2 
L 50.14375 7.2 
z
" style="fill: #ffffff"/>
   </g>
   <g id="matplotlib.axis_1">
    <g id="xtick_1">
     <g id="line2d_1">
      <defs>
       <path id="mc03913d904" d="M 0 0 
L 0 3.5 
" style="stroke: #000000; stroke-width: 0.8"/>
      </defs>
      <g>
       <use xlink:href="#mc03913d904" x="66.376477" y="273.312" style="stroke: #000000; stroke-width: 0.8"/>
      </g>
     </g>
     <g id="text_1">
      <!-- 0 -->
      <g transform="translate(63.195227 287.910437) scale(0.1 -0.1)">
       <defs>
        <path id="DejaVuSans-30" d="M 2034 4250 
Q 1547 4250 1301 3770 
Q 1056 3291 1056 2328 
Q 1056 1369 1301 889 
Q 1547 409 2034 409 
Q 2525 409 2770 889 
Q 3016 1369 3016 2328 
Q 3016 3291 2770 3770 
Q 2525 4250 2034 4250 
z
M 2034 4750 
Q 2819 4750 3233 4129 
Q 3647 3509 3647 2328 
Q 3647 1150 3233 529 
Q 2819 -91 2034 -91 
Q 1250 -91 836 529 
Q 422 1150 422 2328 
Q 422 3509 836 4129 
Q 1250 4750 2034 4750 
z
" transform="scale(0.015625)"/>
       </defs>
       <use xlink:href="#DejaVuSans-30"/>
      </g>
     </g>
    </g>
    <g id="xtick_2">
     <g id="line2d_2">
      <g>
       <use xlink:href="#mc03913d904" x="120.666535" y="273.312" style="stroke: #000000; stroke-width: 0.8"/>
      </g>
     </g>
     <g id="text_2">
      <!-- 5 -->
      <g transform="translate(117.485285 287.910437) scale(0.1 -0.1)">
       <defs>
        <path id="DejaVuSans-35" d="M 691 4666 
L 3169 4666 
L 3169 4134 
L 1269 4134 
L 1269 2991 
Q 1406 3038 1543 3061 
Q 1681 3084 1819 3084 
Q 2600 3084 3056 2656 
Q 3513 2228 3513 1497 
Q 3513 744 3044 326 
Q 2575 -91 1722 -91 
Q 1428 -91 1123 -41 
Q 819 9 494 109 
L 494 744 
Q 775 591 1075 516 
Q 1375 441 1709 441 
Q 2250 441 2565 725 
Q 2881 1009 2881 1497 
Q 2881 1984 2565 2268 
Q 2250 2553 1709 2553 
Q 1456 2553 1204 2497 
Q 953 2441 691 2322 
L 691 4666 
z
" transform="scale(0.015625)"/>
       </defs>
       <use xlink:href="#DejaVuSans-35"/>
      </g>
     </g>
    </g>
    <g id="xtick_3">
     <g id="line2d_3">
      <g>
       <use xlink:href="#mc03913d904" x="174.956593" y="273.312" style="stroke: #000000; stroke-width: 0.8"/>
      </g>
     </g>
     <g id="text_3">
      <!-- 10 -->
      <g transform="translate(168.594093 287.910437) scale(0.1 -0.1)">
       <defs>
        <path id="DejaVuSans-31" d="M 794 531 
L 1825 531 
L 1825 4091 
L 703 3866 
L 703 4441 
L 1819 4666 
L 2450 4666 
L 2450 531 
L 3481 531 
L 3481 0 
L 794 0 
L 794 531 
z
" transform="scale(0.015625)"/>
       </defs>
       <use xlink:href="#DejaVuSans-31"/>
       <use xlink:href="#DejaVuSans-30" transform="translate(63.623047 0)"/>
      </g>
     </g>
    </g>
    <g id="xtick_4">
     <g id="line2d_4">
      <g>
       <use xlink:href="#mc03913d904" x="229.246651" y="273.312" style="stroke: #000000; stroke-width: 0.8"/>
      </g>
     </g>
     <g id="text_4">
      <!-- 15 -->
      <g transform="translate(222.884151 287.910437) scale(0.1 -0.1)">
       <use xlink:href="#DejaVuSans-31"/>
       <use xlink:href="#DejaVuSans-35" transform="translate(63.623047 0)"/>
      </g>
     </g>
    </g>
    <g id="xtick_5">
     <g id="line2d_5">
      <g>
       <use xlink:href="#mc03913d904" x="283.536708" y="273.312" style="stroke: #000000; stroke-width: 0.8"/>
      </g>
     </g>
     <g id="text_5">
      <!-- 20 -->
      <g transform="translate(277.174208 287.910437) scale(0.1 -0.1)">
       <defs>
        <path id="DejaVuSans-32" d="M 1228 531 
L 3431 531 
L 3431 0 
L 469 0 
L 469 531 
Q 828 903 1448 1529 
Q 2069 2156 2228 2338 
Q 2531 2678 2651 2914 
Q 2772 3150 2772 3378 
Q 2772 3750 2511 3984 
Q 2250 4219 1831 4219 
Q 1534 4219 1204 4116 
Q 875 4013 500 3803 
L 500 4441 
Q 881 4594 1212 4672 
Q 1544 4750 1819 4750 
Q 2544 4750 2975 4387 
Q 3406 4025 3406 3419 
Q 3406 3131 3298 2873 
Q 3191 2616 2906 2266 
Q 2828 2175 2409 1742 
Q 1991 1309 1228 531 
z
" transform="scale(0.015625)"/>
       </defs>
       <use xlink:href="#DejaVuSans-32"/>
       <use xlink:href="#DejaVuSans-30" transform="translate(63.623047 0)"/>
      </g>
     </g>
    </g>
    <g id="xtick_6">
     <g id="line2d_6">
      <g>
       <use xlink:href="#mc03913d904" x="337.826766" y="273.312" style="stroke: #000000; stroke-width: 0.8"/>
      </g>
     </g>
     <g id="text_6">
      <!-- 25 -->
      <g transform="translate(331.464266 287.910437) scale(0.1 -0.1)">
       <use xlink:href="#DejaVuSans-32"/>
       <use xlink:href="#DejaVuSans-35" transform="translate(63.623047 0)"/>
      </g>
     </g>
    </g>
    <g id="xtick_7">
     <g id="line2d_7">
      <g>
       <use xlink:href="#mc03913d904" x="392.116824" y="273.312" style="stroke: #000000; stroke-width: 0.8"/>
      </g>
     </g>
     <g id="text_7">
      <!-- 30 -->
      <g transform="translate(385.754324 287.910437) scale(0.1 -0.1)">
       <defs>
        <path id="DejaVuSans-33" d="M 2597 2516 
Q 3050 2419 3304 2112 
Q 3559 1806 3559 1356 
Q 3559 666 3084 287 
Q 2609 -91 1734 -91 
Q 1441 -91 1130 -33 
Q 819 25 488 141 
L 488 750 
Q 750 597 1062 519 
Q 1375 441 1716 441 
Q 2309 441 2620 675 
Q 2931 909 2931 1356 
Q 2931 1769 2642 2001 
Q 2353 2234 1838 2234 
L 1294 2234 
L 1294 2753 
L 1863 2753 
Q 2328 2753 2575 2939 
Q 2822 3125 2822 3475 
Q 2822 3834 2567 4026 
Q 2313 4219 1838 4219 
Q 1578 4219 1281 4162 
Q 984 4106 628 3988 
L 628 4550 
Q 988 4650 1302 4700 
Q 1616 4750 1894 4750 
Q 2613 4750 3031 4423 
Q 3450 4097 3450 3541 
Q 3450 3153 3228 2886 
Q 3006 2619 2597 2516 
z
" transform="scale(0.015625)"/>
       </defs>
       <use xlink:href="#DejaVuSans-33"/>
       <use xlink:href="#DejaVuSans-30" transform="translate(63.623047 0)"/>
      </g>
     </g>
    </g>
    <g id="text_8">
     <!-- time -->
     <g transform="translate(217.407656 301.588562) scale(0.1 -0.1)">
      <defs>
       <path id="DejaVuSans-74" d="M 1172 4494 
L 1172 3500 
L 2356 3500 
L 2356 3053 
L 1172 3053 
L 1172 1153 
Q 1172 725 1289 603 
Q 1406 481 1766 481 
L 2356 481 
L 2356 0 
L 1766 0 
Q 1100 0 847 248 
Q 594 497 594 1153 
L 594 3053 
L 172 3053 
L 172 3500 
L 594 3500 
L 594 4494 
L 1172 4494 
z
" transform="scale(0.015625)"/>
       <path id="DejaVuSans-69" d="M 603 3500 
L 1178 3500 
L 1178 0 
L 603 0 
L 603 3500 
z
M 603 4863 
L 1178 4863 
L 1178 4134 
L 603 4134 
L 603 4863 
z
" transform="scale(0.015625)"/>
       <path id="DejaVuSans-6d" d="M 3328 2828 
Q 3544 3216 3844 3400 
Q 4144 3584 4550 3584 
Q 5097 3584 5394 3201 
Q 5691 2819 5691 2113 
L 5691 0 
L 5113 0 
L 5113 2094 
Q 5113 2597 4934 2840 
Q 4756 3084 4391 3084 
Q 3944 3084 3684 2787 
Q 3425 2491 3425 1978 
L 3425 0 
L 2847 0 
L 2847 2094 
Q 2847 2600 2669 2842 
Q 2491 3084 2119 3084 
Q 1678 3084 1418 2786 
Q 1159 2488 1159 1978 
L 1159 0 
L 581 0 
L 581 3500 
L 1159 3500 
L 1159 2956 
Q 1356 3278 1631 3431 
Q 1906 3584 2284 3584 
Q 2666 3584 2933 3390 
Q 3200 3197 3328 2828 
z
" transform="scale(0.015625)"/>
       <path id="DejaVuSans-65" d="M 3597 1894 
L 3597 1613 
L 953 1613 
Q 991 1019 1311 708 
Q 1631 397 2203 397 
Q 2534 397 2845 478 
Q 3156 559 3463 722 
L 3463 178 
Q 3153 47 2828 -22 
Q 2503 -91 2169 -91 
Q 1331 -91 842 396 
Q 353 884 353 1716 
Q 353 2575 817 3079 
Q 1281 3584 2069 3584 
Q 2775 3584 3186 3129 
Q 3597 2675 3597 1894 
z
M 3022 2063 
Q 3016 2534 2758 2815 
Q 2500 3097 2075 3097 
Q 1594 3097 1305 2825 
Q 1016 2553 972 2059 
L 3022 2063 
z
" transform="scale(0.015625)"/>
      </defs>
      <use xlink:href="#DejaVuSans-74"/>
      <use xlink:href="#DejaVuSans-69" transform="translate(39.208984 0)"/>
      <use xlink:href="#DejaVuSans-6d" transform="translate(66.992188 0)"/>
      <use xlink:href="#DejaVuSans-65" transform="translate(164.404297 0)"/>
     </g>
    </g>
   </g>
   <g id="matplotlib.axis_2">
    <g id="ytick_1">
     <g id="line2d_8">
      <defs>
       <path id="m4c64b75ae2" d="M 0 0 
L -3.5 0 
" style="stroke: #000000; stroke-width: 0.8"/>
      </defs>
      <g>
       <use xlink:href="#m4c64b75ae2" x="50.14375" y="261.216" style="stroke: #000000; stroke-width: 0.8"/>
      </g>
     </g>
     <g id="text_9">
      <!-- 0.00 -->
      <g transform="translate(20.878125 265.015219) scale(0.1 -0.1)">
       <defs>
        <path id="DejaVuSans-2e" d="M 684 794 
L 1344 794 
L 1344 0 
L 684 0 
L 684 794 
z
" transform="scale(0.015625)"/>
       </defs>
       <use xlink:href="#DejaVuSans-30"/>
       <use xlink:href="#DejaVuSans-2e" transform="translate(63.623047 0)"/>
       <use xlink:href="#DejaVuSans-30" transform="translate(95.410156 0)"/>
       <use xlink:href="#DejaVuSans-30" transform="translate(159.033203 0)"/>
      </g>
     </g>
    </g>
    <g id="ytick_2">
     <g id="line2d_9">
      <g>
       <use xlink:href="#m4c64b75ae2" x="50.14375" y="230.663047" style="stroke: #000000; stroke-width: 0.8"/>
      </g>
     </g>
     <g id="text_10">
      <!-- 0.05 -->
      <g transform="translate(20.878125 234.462266) scale(0.1 -0.1)">
       <use xlink:href="#DejaVuSans-30"/>
       <use xlink:href="#DejaVuSans-2e" transform="translate(63.623047 0)"/>
       <use xlink:href="#DejaVuSans-30" transform="translate(95.410156 0)"/>
       <use xlink:href="#DejaVuSans-35" transform="translate(159.033203 0)"/>
      </g>
     </g>
    </g>
    <g id="ytick_3">
     <g id="line2d_10">
      <g>
       <use xlink:href="#m4c64b75ae2" x="50.14375" y="200.110094" style="stroke: #000000; stroke-width: 0.8"/>
      </g>
     </g>
     <g id="text_11">
      <!-- 0.10 -->
      <g transform="translate(20.878125 203.909312) scale(0.1 -0.1)">
       <use xlink:href="#DejaVuSans-30"/>
       <use xlink:href="#DejaVuSans-2e" transform="translate(63.623047 0)"/>
       <use xlink:href="#DejaVuSans-31" transform="translate(95.410156 0)"/>
       <use xlink:href="#DejaVuSans-30" transform="translate(159.033203 0)"/>
      </g>
     </g>
    </g>
    <g id="ytick_4">
     <g id="line2d_11">
      <g>
       <use xlink:href="#m4c64b75ae2" x="50.14375" y="169.55714" style="stroke: #000000; stroke-width: 0.8"/>
      </g>
     </g>
     <g id="text_12">
      <!-- 0.15 -->
      <g transform="translate(20.878125 173.356359) scale(0.1 -0.1)">
       <use xlink:href="#DejaVuSans-30"/>
       <use xlink:href="#DejaVuSans-2e" transform="translate(63.623047 0)"/>
       <use xlink:href="#DejaVuSans-31" transform="translate(95.410156 0)"/>
       <use xlink:href="#DejaVuSans-35" transform="translate(159.033203 0)"/>
      </g>
     </g>
    </g>
    <g id="ytick_5">
     <g id="line2d_12">
      <g>
       <use xlink:href="#m4c64b75ae2" x="50.14375" y="139.004187" style="stroke: #000000; stroke-width: 0.8"/>
      </g>
     </g>
     <g id="text_13">
      <!-- 0.20 -->
      <g transform="translate(20.878125 142.803406) scale(0.1 -0.1)">
       <use xlink:href="#DejaVuSans-30"/>
       <use xlink:href="#DejaVuSans-2e" transform="translate(63.623047 0)"/>
       <use xlink:href="#DejaVuSans-32" transform="translate(95.410156 0)"/>
       <use xlink:href="#DejaVuSans-30" transform="translate(159.033203 0)"/>
      </g>
     </g>
    </g>
    <g id="ytick_6">
     <g id="line2d_13">
      <g>
       <use xlink:href="#m4c64b75ae2" x="50.14375" y="108.451234" style="stroke: #000000; stroke-width: 0.8"/>
      </g>
     </g>
     <g id="text_14">
      <!-- 0.25 -->
      <g transform="translate(20.878125 112.250453) scale(0.1 -0.1)">
       <use xlink:href="#DejaVuSans-30"/>
       <use xlink:href="#DejaVuSans-2e" transform="translate(63.623047 0)"/>
       <use xlink:href="#DejaVuSans-32" transform="translate(95.410156 0)"/>
       <use xlink:href="#DejaVuSans-35" transform="translate(159.033203 0)"/>
      </g>
     </g>
    </g>
    <g id="ytick_7">
     <g id="line2d_14">
      <g>
       <use xlink:href="#m4c64b75ae2" x="50.14375" y="77.898281" style="stroke: #000000; stroke-width: 0.8"/>
      </g>
     </g>
     <g id="text_15">
      <!-- 0.30 -->
      <g transform="translate(20.878125 81.697499) scale(0.1 -0.1)">
       <use xlink:href="#DejaVuSans-30"/>
       <use xlink:href="#DejaVuSans-2e" transform="translate(63.623047 0)"/>
       <use xlink:href="#DejaVuSans-33" transform="translate(95.410156 0)"/>
       <use xlink:href="#DejaVuSans-30" transform="translate(159.033203 0)"/>
      </g>
     </g>
    </g>
    <g id="ytick_8">
     <g id="line2d_15">
      <g>
       <use xlink:href="#m4c64b75ae2" x="50.14375" y="47.345327" style="stroke: #000000; stroke-width: 0.8"/>
      </g>
     </g>
     <g id="text_16">
      <!-- 0.35 -->
      <g transform="translate(20.878125 51.144546) scale(0.1 -0.1)">
       <use xlink:href="#DejaVuSans-30"/>
       <use xlink:href="#DejaVuSans-2e" transform="translate(63.623047 0)"/>
       <use xlink:href="#DejaVuSans-33" transform="translate(95.410156 0)"/>
       <use xlink:href="#DejaVuSans-35" transform="translate(159.033203 0)"/>
      </g>
     </g>
    </g>
    <g id="ytick_9">
     <g id="line2d_16">
      <g>
       <use xlink:href="#m4c64b75ae2" x="50.14375" y="16.792374" style="stroke: #000000; stroke-width: 0.8"/>
      </g>
     </g>
     <g id="text_17">
      <!-- 0.40 -->
      <g transform="translate(20.878125 20.591593) scale(0.1 -0.1)">
       <defs>
        <path id="DejaVuSans-34" d="M 2419 4116 
L 825 1625 
L 2419 1625 
L 2419 4116 
z
M 2253 4666 
L 3047 4666 
L 3047 1625 
L 3713 1625 
L 3713 1100 
L 3047 1100 
L 3047 0 
L 2419 0 
L 2419 1100 
L 313 1100 
L 313 1709 
L 2253 4666 
z
" transform="scale(0.015625)"/>
       </defs>
       <use xlink:href="#DejaVuSans-30"/>
       <use xlink:href="#DejaVuSans-2e" transform="translate(63.623047 0)"/>
       <use xlink:href="#DejaVuSans-34" transform="translate(95.410156 0)"/>
       <use xlink:href="#DejaVuSans-30" transform="translate(159.033203 0)"/>
      </g>
     </g>
    </g>
    <g id="text_18">
     <!-- fraction -->
     <g transform="translate(14.798438 159.46225) rotate(-90) scale(0.1 -0.1)">
      <defs>
       <path id="DejaVuSans-66" d="M 2375 4863 
L 2375 4384 
L 1825 4384 
Q 1516 4384 1395 4259 
Q 1275 4134 1275 3809 
L 1275 3500 
L 2222 3500 
L 2222 3053 
L 1275 3053 
L 1275 0 
L 697 0 
L 697 3053 
L 147 3053 
L 147 3500 
L 697 3500 
L 697 3744 
Q 697 4328 969 4595 
Q 1241 4863 1831 4863 
L 2375 4863 
z
" transform="scale(0.015625)"/>
       <path id="DejaVuSans-72" d="M 2631 2963 
Q 2534 3019 2420 3045 
Q 2306 3072 2169 3072 
Q 1681 3072 1420 2755 
Q 1159 2438 1159 1844 
L 1159 0 
L 581 0 
L 581 3500 
L 1159 3500 
L 1159 2956 
Q 1341 3275 1631 3429 
Q 1922 3584 2338 3584 
Q 2397 3584 2469 3576 
Q 2541 3569 2628 3553 
L 2631 2963 
z
" transform="scale(0.015625)"/>
       <path id="DejaVuSans-61" d="M 2194 1759 
Q 1497 1759 1228 1600 
Q 959 1441 959 1056 
Q 959 750 1161 570 
Q 1363 391 1709 391 
Q 2188 391 2477 730 
Q 2766 1069 2766 1631 
L 2766 1759 
L 2194 1759 
z
M 3341 1997 
L 3341 0 
L 2766 0 
L 2766 531 
Q 2569 213 2275 61 
Q 1981 -91 1556 -91 
Q 1019 -91 701 211 
Q 384 513 384 1019 
Q 384 1609 779 1909 
Q 1175 2209 1959 2209 
L 2766 2209 
L 2766 2266 
Q 2766 2663 2505 2880 
Q 2244 3097 1772 3097 
Q 1472 3097 1187 3025 
Q 903 2953 641 2809 
L 641 3341 
Q 956 3463 1253 3523 
Q 1550 3584 1831 3584 
Q 2591 3584 2966 3190 
Q 3341 2797 3341 1997 
z
" transform="scale(0.015625)"/>
       <path id="DejaVuSans-63" d="M 3122 3366 
L 3122 2828 
Q 2878 2963 2633 3030 
Q 2388 3097 2138 3097 
Q 1578 3097 1268 2742 
Q 959 2388 959 1747 
Q 959 1106 1268 751 
Q 1578 397 2138 397 
Q 2388 397 2633 464 
Q 2878 531 3122 666 
L 3122 134 
Q 2881 22 2623 -34 
Q 2366 -91 2075 -91 
Q 1284 -91 818 406 
Q 353 903 353 1747 
Q 353 2603 823 3093 
Q 1294 3584 2113 3584 
Q 2378 3584 2631 3529 
Q 2884 3475 3122 3366 
z
" transform="scale(0.015625)"/>
       <path id="DejaVuSans-6f" d="M 1959 3097 
Q 1497 3097 1228 2736 
Q 959 2375 959 1747 
Q 959 1119 1226 758 
Q 1494 397 1959 397 
Q 2419 397 2687 759 
Q 2956 1122 2956 1747 
Q 2956 2369 2687 2733 
Q 2419 3097 1959 3097 
z
M 1959 3584 
Q 2709 3584 3137 3096 
Q 3566 2609 3566 1747 
Q 3566 888 3137 398 
Q 2709 -91 1959 -91 
Q 1206 -91 779 398 
Q 353 888 353 1747 
Q 353 2609 779 3096 
Q 1206 3584 1959 3584 
z
" transform="scale(0.015625)"/>
       <path id="DejaVuSans-6e" d="M 3513 2113 
L 3513 0 
L 2938 0 
L 2938 2094 
Q 2938 2591 2744 2837 
Q 2550 3084 2163 3084 
Q 1697 3084 1428 2787 
Q 1159 2491 1159 1978 
L 1159 0 
L 581 0 
L 581 3500 
L 1159 3500 
L 1159 2956 
Q 1366 3272 1645 3428 
Q 1925 3584 2291 3584 
Q 2894 3584 3203 3211 
Q 3513 2838 3513 2113 
z
" transform="scale(0.015625)"/>
      </defs>
      <use xlink:href="#DejaVuSans-66"/>
      <use xlink:href="#DejaVuSans-72" transform="translate(35.205078 0)"/>
      <use xlink:href="#DejaVuSans-61" transform="translate(76.318359 0)"/>
      <use xlink:href="#DejaVuSans-63" transform="translate(137.597656 0)"/>
      <use xlink:href="#DejaVuSans-74" transform="translate(192.578125 0)"/>
      <use xlink:href="#DejaVuSans-69" transform="translate(231.787109 0)"/>
      <use xlink:href="#DejaVuSans-6f" transform="translate(259.570312 0)"/>
      <use xlink:href="#DejaVuSans-6e" transform="translate(320.751953 0)"/>
     </g>
    </g>
   </g>
   <g id="line2d_17">
    <path d="M 66.376477 210.294411 
L 68.54808 215.286277 
L 70.719682 219.861725 
L 72.891284 224.043521 
L 75.062887 227.855222 
L 77.234489 231.320743 
L 79.406091 234.463979 
L 81.577693 237.308486 
L 83.749296 239.877219 
L 85.920898 242.192321 
L 88.0925 244.274968 
L 90.264103 246.145253 
L 93.521506 248.593583 
L 96.77891 250.665213 
L 100.036313 252.412801 
L 103.293717 253.88301 
L 106.55112 255.116825 
L 109.808523 256.149955 
L 114.151728 257.268077 
L 118.494933 258.145431 
L 123.923939 258.978662 
L 129.352944 259.589608 
L 135.867751 260.109738 
L 144.55416 260.556766 
L 155.412172 260.872577 
L 170.613388 261.079183 
L 197.758417 261.189954 
L 285.708311 261.215888 
L 391.031023 261.216 
L 391.031023 261.216 
" clip-path="url(#pc03b86b27c)" style="fill: none; stroke: #0000ff; stroke-width: 1.5; stroke-linecap: square"/>
   </g>
   <g id="line2d_18">
    <path d="M 66.376477 210.317275 
L 68.54808 215.284561 
L 70.719682 219.850778 
L 72.891284 224.031745 
L 75.062887 227.846619 
L 77.234489 231.316659 
L 79.406091 234.464273 
L 81.577693 237.312282 
L 83.749296 239.883379 
L 85.920898 242.199719 
L 88.0925 244.28263 
L 90.264103 246.15242 
L 93.521506 248.599074 
L 96.77891 250.668489 
L 100.036313 252.413816 
L 103.293717 253.882032 
L 106.55112 255.114278 
L 109.808523 256.146317 
L 114.151728 257.263678 
L 118.494933 258.140916 
L 123.923939 258.974615 
L 129.352944 259.586387 
L 135.867751 260.107619 
L 144.55416 260.555911 
L 155.412172 260.872712 
L 170.613388 261.079793 
L 197.758417 261.190372 
L 285.708311 261.215896 
L 391.031023 261.216 
L 391.031023 261.216 
" clip-path="url(#pc03b86b27c)" style="fill: none; stroke-dasharray: 5.55,2.4; stroke-dashoffset: 0; stroke: #0000ff; stroke-width: 1.5"/>
   </g>
   <g id="line2d_19">
    <path d="M 66.376477 193.320548 
L 70.719682 200.929072 
L 75.062887 208.04156 
L 78.32029 213.01085 
L 81.577693 217.650051 
L 84.835097 221.953346 
L 88.0925 225.922184 
L 91.349904 229.563808 
L 94.607307 232.889896 
L 97.864711 235.915355 
L 101.122114 238.657288 
L 104.379518 241.134131 
L 107.636921 243.364956 
L 110.894325 245.368924 
L 114.151728 247.164863 
L 118.494933 249.267161 
L 122.838137 251.072539 
L 127.181342 252.618428 
L 131.524547 253.938762 
L 136.953552 255.317966 
L 142.382558 256.443855 
L 147.811564 257.360563 
L 154.326371 258.236413 
L 161.926979 259.014664 
L 170.613388 259.662122 
L 180.385599 260.168543 
L 193.415212 260.599052 
L 209.70223 260.89911 
L 233.589855 261.097575 
L 277.021901 261.196527 
L 391.031023 261.215839 
L 391.031023 261.215839 
" clip-path="url(#pc03b86b27c)" style="fill: none; stroke: #008000; stroke-width: 1.5; stroke-linecap: square"/>
   </g>
   <g id="line2d_20">
    <path d="M 66.376477 193.366364 
L 71.805483 202.735078 
L 76.148688 209.715572 
L 79.406091 214.587104 
L 82.663495 219.125338 
L 85.920898 223.324295 
L 89.178302 227.186871 
L 92.435705 230.722354 
L 95.693108 233.944483 
L 98.950512 236.869939 
L 102.207915 239.517188 
L 105.465319 241.905599 
L 108.722722 244.054784 
L 111.980126 245.984112 
L 115.237529 247.712364 
L 119.580734 249.7348 
L 123.923939 251.471342 
L 128.267143 252.958309 
L 132.610348 254.228454 
L 138.039354 255.555441 
L 143.468359 256.63887 
L 149.983166 257.676598 
L 156.497973 258.484827 
L 164.098581 259.202359 
L 172.78499 259.798497 
L 183.643002 260.305184 
L 196.672616 260.682607 
L 214.045434 260.956202 
L 241.190463 261.132428 
L 295.480521 261.207557 
L 391.031023 261.215856 
L 391.031023 261.215856 
" clip-path="url(#pc03b86b27c)" style="fill: none; stroke-dasharray: 5.55,2.4; stroke-dashoffset: 0; stroke: #008000; stroke-width: 1.5"/>
   </g>
   <g id="line2d_21">
    <path d="M 66.376477 176.346686 
L 69.633881 179.166412 
L 73.977085 183.246474 
L 79.406091 188.68647 
L 97.864711 207.553955 
L 103.293717 212.705014 
L 108.722722 217.543959 
L 114.151728 222.0401 
L 118.494933 225.381141 
L 122.838137 228.49409 
L 127.181342 231.382734 
L 131.524547 234.053853 
L 136.953552 237.100548 
L 142.382558 239.841677 
L 147.811564 242.299406 
L 153.24057 244.49657 
L 158.669575 246.45584 
L 164.098581 248.19916 
L 170.613388 250.035355 
L 177.128195 251.624053 
L 183.643002 252.9958 
L 191.24361 254.358518 
L 198.844218 255.50193 
L 207.530627 256.582974 
L 217.302838 257.561863 
L 228.160849 258.413266 
L 240.104662 259.125996 
L 254.220077 259.741283 
L 271.592896 260.258231 
L 293.308919 260.659372 
L 321.539749 260.942299 
L 363.885994 261.122307 
L 391.031023 261.169043 
L 391.031023 261.169043 
" clip-path="url(#pc03b86b27c)" style="fill: none; stroke: #ff0000; stroke-width: 1.5; stroke-linecap: square"/>
   </g>
   <g id="line2d_22">
    <path d="M 66.376477 176.467174 
L 69.633881 179.168199 
L 72.891284 182.151214 
L 77.234489 186.424561 
L 84.835097 194.294247 
L 94.607307 204.365103 
L 100.036313 209.683404 
L 105.465319 214.7095 
L 110.894325 219.403723 
L 116.32333 223.746771 
L 120.666535 226.964907 
L 125.00974 229.957776 
L 129.352944 232.731131 
L 134.78195 235.901498 
L 140.210956 238.760437 
L 145.639962 241.329089 
L 151.068967 243.629602 
L 156.497973 245.684265 
L 161.926979 247.514902 
L 168.441786 249.445363 
L 174.956593 251.117303 
L 181.4714 252.561965 
L 189.072008 253.997818 
L 196.672616 255.202892 
L 205.359025 256.342217 
L 215.131236 257.373591 
L 225.989247 258.270149 
L 237.93306 259.020089 
L 252.048475 259.666867 
L 268.335492 260.182118 
L 288.965714 260.597826 
L 316.110743 260.902593 
L 355.199585 261.098538 
L 391.031023 261.16832 
L 391.031023 261.16832 
" clip-path="url(#pc03b86b27c)" style="fill: none; stroke-dasharray: 5.55,2.4; stroke-dashoffset: 0; stroke: #ff0000; stroke-width: 1.5"/>
   </g>
   <g id="line2d_23">
    <path d="M 66.376477 159.372823 
L 68.54808 158.477922 
L 70.719682 157.757631 
L 72.891284 157.206179 
L 75.062887 156.816935 
L 77.234489 156.582599 
L 80.491892 156.50438 
L 83.749296 156.729426 
L 87.006699 157.229357 
L 90.264103 157.975881 
L 93.521506 158.941436 
L 96.77891 160.099649 
L 101.122114 161.900902 
L 105.465319 163.946515 
L 110.894325 166.773963 
L 117.409132 170.457075 
L 126.095541 175.673363 
L 158.669575 195.553105 
L 168.441786 201.0956 
L 177.128195 205.76042 
L 185.814604 210.160529 
L 194.501014 214.28876 
L 203.187423 218.145052 
L 211.873832 221.734354 
L 220.560241 225.065065 
L 229.246651 228.147894 
L 237.93306 230.995013 
L 246.619469 233.619427 
L 256.391679 236.322362 
L 266.16389 238.779475 
L 275.9361 241.00951 
L 286.794112 243.242984 
L 297.652123 245.242038 
L 309.595936 247.196624 
L 321.539749 248.921614 
L 334.569363 250.570864 
L 348.684778 252.116683 
L 363.885994 253.538297 
L 380.173011 254.821955 
L 391.031023 255.558937 
L 391.031023 255.558937 
" clip-path="url(#pc03b86b27c)" style="fill: none; stroke: #00bfbf; stroke-width: 1.5; stroke-linecap: square"/>
   </g>
   <g id="line2d_24">
    <path d="M 66.376477 159.46737 
L 68.54808 158.479831 
L 70.719682 157.705158 
L 72.891284 157.127736 
L 75.062887 156.732909 
L 77.234489 156.506926 
L 80.491892 156.45654 
L 83.749296 156.717019 
L 87.006699 157.251879 
L 90.264103 158.02803 
L 93.521506 159.015482 
L 97.864711 160.614207 
L 102.207915 162.48326 
L 106.55112 164.572546 
L 111.980126 167.427857 
L 118.494933 171.116906 
L 127.181342 176.315078 
L 159.755377 196.102063 
L 169.527587 201.630634 
L 178.213996 206.28633 
L 186.900406 210.678106 
L 195.586815 214.796965 
L 204.273224 218.641528 
L 212.959633 222.21594 
L 221.646042 225.528258 
L 230.332452 228.589215 
L 239.018861 231.411273 
L 247.70527 234.00791 
L 256.391679 236.393086 
L 266.16389 238.841126 
L 275.9361 241.058975 
L 286.794112 243.276349 
L 297.652123 245.257687 
L 309.595936 247.192066 
L 321.539749 248.897101 
L 334.569363 250.525796 
L 348.684778 252.051584 
L 363.885994 253.45484 
L 380.173011 254.722862 
L 391.031023 255.451748 
L 391.031023 255.451748 
" clip-path="url(#pc03b86b27c)" style="fill: none; stroke-dasharray: 5.55,2.4; stroke-dashoffset: 0; stroke: #00bfbf; stroke-width: 1.5"/>
   </g>
   <g id="line2d_25">
    <path d="M 66.376477 184.833617 
L 70.719682 181.027312 
L 75.062887 177.59212 
L 78.32029 175.260453 
L 81.577693 173.135308 
L 84.835097 171.211075 
L 89.178302 168.944902 
L 93.521506 167.001493 
L 97.864711 165.357524 
L 102.207915 163.988816 
L 106.55112 162.871361 
L 110.894325 161.982029 
L 115.237529 161.299004 
L 120.666535 160.70464 
L 126.095541 160.365179 
L 131.524547 160.248721 
L 138.039354 160.364008 
L 144.55416 160.718072 
L 152.154769 161.385472 
L 159.755377 162.281572 
L 168.441786 163.535175 
L 178.213996 165.180568 
L 189.072008 167.235829 
L 202.101622 169.935803 
L 218.388639 173.554262 
L 241.190463 178.871471 
L 300.909527 192.902585 
L 324.797152 198.237509 
L 346.513175 202.866309 
L 367.143397 207.046516 
L 387.773619 211.004277 
L 391.031023 211.608507 
L 391.031023 211.608507 
" clip-path="url(#pc03b86b27c)" style="fill: none; stroke: #bf00bf; stroke-width: 1.5; stroke-linecap: square"/>
   </g>
   <g id="line2d_26">
    <path d="M 66.376477 184.548288 
L 69.633881 181.677405 
L 72.891284 179.051096 
L 76.148688 176.654663 
L 79.406091 174.474242 
L 83.749296 171.880549 
L 88.0925 169.618776 
L 92.435705 167.662157 
L 96.77891 165.985942 
L 101.122114 164.567248 
L 105.465319 163.384924 
L 109.808523 162.419414 
L 114.151728 161.652649 
L 119.580734 160.948353 
L 125.00974 160.498732 
L 130.438745 160.27674 
L 135.867751 160.257885 
L 142.382558 160.472328 
L 148.897365 160.913111 
L 156.497973 161.67297 
L 164.098581 162.657078 
L 172.78499 164.009262 
L 182.557201 165.764509 
L 193.415212 167.939606 
L 206.444826 170.776139 
L 223.817645 174.802158 
L 257.477481 182.900501 
L 286.794112 189.853915 
L 309.595936 195.033003 
L 330.226158 199.492375 
L 349.770579 203.498694 
L 369.315 207.285273 
L 388.85942 210.851837 
L 391.031023 211.234691 
L 391.031023 211.234691 
" clip-path="url(#pc03b86b27c)" style="fill: none; stroke-dasharray: 5.55,2.4; stroke-dashoffset: 0; stroke: #bf00bf; stroke-width: 1.5"/>
   </g>
   <g id="line2d_27">
    <path d="M 66.376477 201.80748 
L 71.805483 197.327413 
L 76.148688 193.999496 
L 80.491892 190.907602 
L 84.835097 188.051649 
L 89.178302 185.426099 
L 93.521506 183.021566 
L 97.864711 180.826194 
L 103.293717 178.355883 
L 108.722722 176.16477 
L 114.151728 174.226313 
L 119.580734 172.515387 
L 125.00974 171.008845 
L 131.524547 169.441454 
L 138.039354 168.106353 
L 145.639962 166.805614 
L 153.24057 165.74613 
L 160.841178 164.896561 
L 169.527587 164.149117 
L 179.299797 163.554534 
L 189.072008 163.184154 
L 199.930019 162.997758 
L 211.873832 163.026288 
L 224.903446 163.293514 
L 239.018861 163.816285 
L 254.220077 164.604948 
L 271.592896 165.741314 
L 291.137316 167.260523 
L 312.85334 169.182019 
L 337.826766 171.619704 
L 368.229198 174.81795 
L 391.031023 177.326999 
L 391.031023 177.326999 
" clip-path="url(#pc03b86b27c)" style="fill: none; stroke: #bfbf00; stroke-width: 1.5; stroke-linecap: square"/>
   </g>
   <g id="line2d_28">
    <path d="M 66.376477 201.393116 
L 70.719682 197.86693 
L 75.062887 194.600581 
L 79.406091 191.5776 
L 83.749296 188.782548 
L 89.178302 185.587299 
L 94.607307 182.699358 
L 100.036313 180.094478 
L 105.465319 177.750298 
L 110.894325 175.646195 
L 116.32333 173.763148 
L 121.752336 172.083616 
L 128.267143 170.314128 
L 134.78195 168.788886 
L 141.296757 167.484677 
L 148.897365 166.214466 
L 156.497973 165.186393 
L 164.098581 164.373566 
L 172.78499 163.677513 
L 181.4714 163.199585 
L 191.24361 162.88806 
L 202.101622 162.782503 
L 214.045434 162.912255 
L 227.075048 163.295863 
L 241.190463 163.941354 
L 257.477481 164.918913 
L 275.9361 166.253874 
L 298.737925 168.137623 
L 328.054556 170.79896 
L 374.744005 175.294414 
L 391.031023 176.885138 
L 391.031023 176.885138 
" clip-path="url(#pc03b86b27c)" style="fill: none; stroke-dasharray: 5.55,2.4; stroke-dashoffset: 0; stroke: #bfbf00; stroke-width: 1.5"/>
   </g>
   <g id="line2d_29">
    <path d="M 66.376477 167.859754 
L 71.805483 159.795169 
L 77.234489 152.148135 
L 82.663495 144.953719 
L 87.006699 139.530859 
L 91.349904 134.399565 
L 95.693108 129.550106 
L 101.122114 123.864059 
L 106.55112 118.566936 
L 111.980126 113.626342 
L 117.409132 109.010126 
L 122.838137 104.687729 
L 128.267143 100.630909 
L 133.696149 96.814051 
L 140.210956 92.518444 
L 146.725763 88.500648 
L 153.24057 84.730635 
L 160.841178 80.611221 
L 168.441786 76.759245 
L 176.042394 73.145444 
L 184.728803 69.275539 
L 193.415212 65.653663 
L 203.187423 61.843517 
L 212.959633 58.28399 
L 222.731844 54.949494 
L 233.589855 51.482324 
L 244.447867 48.24148 
L 256.391679 44.91287 
L 268.335492 41.808808 
L 281.365106 38.654889 
L 294.39472 35.721572 
L 308.510135 32.770401 
L 323.711351 29.832205 
L 338.912567 27.120734 
L 355.199585 24.444924 
L 372.572403 21.829273 
L 389.945222 19.438413 
L 391.031023 19.296 
L 391.031023 19.296 
" clip-path="url(#pc03b86b27c)" style="fill: none; stroke: #000000; stroke-width: 1.5; stroke-linecap: square"/>
   </g>
   <g id="line2d_30">
    <path d="M 66.376477 162.816082 
L 72.891284 154.985627 
L 79.406091 147.558905 
L 85.920898 140.515101 
L 92.435705 133.834472 
L 98.950512 127.498292 
L 105.465319 121.488802 
L 111.980126 115.789158 
L 118.494933 110.383384 
L 125.00974 105.256329 
L 131.524547 100.393622 
L 138.039354 95.781634 
L 144.55416 91.407437 
L 152.154769 86.588428 
L 159.755377 82.058031 
L 167.355985 77.798962 
L 174.956593 73.79497 
L 182.557201 70.03078 
L 190.157809 66.492028 
L 198.844218 62.706505 
L 207.530627 59.17896 
L 216.217037 55.89181 
L 224.903446 52.828674 
L 234.675656 49.631444 
L 244.447867 46.678271 
L 254.220077 43.950524 
L 265.078089 41.163198 
L 275.9361 38.611253 
L 286.794112 36.274812 
L 298.737925 33.93196 
L 310.681737 31.805797 
L 323.711351 29.709978 
L 337.826766 27.676425 
L 351.942181 25.863232 
L 367.143397 24.12967 
L 383.430415 22.495171 
L 391.031023 21.803347 
L 391.031023 21.803347 
" clip-path="url(#pc03b86b27c)" style="fill: none; stroke-dasharray: 5.55,2.4; stroke-dashoffset: 0; stroke: #000000; stroke-width: 1.5"/>
   </g>
   <g id="line2d_31">
    <path d="M 66.376477 184.833617 
L 72.891284 176.701586 
L 78.32029 170.271186 
L 83.749296 164.185366 
L 89.178302 158.450789 
L 94.607307 153.059824 
L 100.036313 147.995572 
L 105.465319 143.235865 
L 110.894325 138.756187 
L 116.32333 134.531665 
L 122.838137 129.765394 
L 129.352944 125.293806 
L 135.867751 121.082686 
L 143.468359 116.459129 
L 151.068967 112.108633 
L 158.669575 107.996925 
L 167.355985 103.553609 
L 176.042394 99.349298 
L 185.814604 94.869003 
L 195.586815 90.620414 
L 206.444826 86.138 
L 218.388639 81.461569 
L 230.332452 77.019267 
L 243.362066 72.40843 
L 257.477481 67.658251 
L 272.678697 62.79437 
L 287.879913 58.161876 
L 304.16693 53.426831 
L 321.539749 48.608369 
L 339.998368 43.723196 
L 359.542789 38.785821 
L 380.173011 33.808807 
L 391.031023 31.277611 
L 391.031023 31.277611 
" clip-path="url(#pc03b86b27c)" style="fill: none; stroke: #ffa500; stroke-width: 1.5; stroke-linecap: square"/>
   </g>
   <g id="line2d_32">
    <path d="M 66.376477 178.773461 
L 73.977085 171.63958 
L 81.577693 164.800338 
L 89.178302 158.243564 
L 96.77891 151.957593 
L 104.379518 145.931241 
L 113.065927 139.348146 
L 121.752336 133.074854 
L 130.438745 127.096787 
L 139.125155 121.40005 
L 147.811564 115.971404 
L 156.497973 110.798233 
L 165.184382 105.868514 
L 173.870792 101.170789 
L 183.643002 96.149581 
L 193.415212 91.393419 
L 203.187423 86.888311 
L 212.959633 82.621005 
L 222.731844 78.57895 
L 233.589855 74.33752 
L 244.447867 70.344109 
L 255.305878 66.584214 
L 266.16389 63.044181 
L 278.107703 59.388762 
L 290.051515 55.96777 
L 301.995328 52.766172 
L 315.024942 49.507228 
L 328.054556 46.475606 
L 342.169971 43.429514 
L 356.285386 40.612919 
L 371.486602 37.816518 
L 386.687818 35.246336 
L 391.031023 34.55095 
L 391.031023 34.55095 
" clip-path="url(#pc03b86b27c)" style="fill: none; stroke-dasharray: 5.55,2.4; stroke-dashoffset: 0; stroke: #ffa500; stroke-width: 1.5"/>
   </g>
   <g id="patch_3">
    <path d="M 50.14375 273.312 
L 50.14375 7.2 
" style="fill: none; stroke: #000000; stroke-width: 0.8; stroke-linejoin: miter; stroke-linecap: square"/>
   </g>
   <g id="patch_4">
    <path d="M 407.26375 273.312 
L 407.26375 7.2 
" style="fill: none; stroke: #000000; stroke-width: 0.8; stroke-linejoin: miter; stroke-linecap: square"/>
   </g>
   <g id="patch_5">
    <path d="M 50.14375 273.312 
L 407.26375 273.312 
" style="fill: none; stroke: #000000; stroke-width: 0.8; stroke-linejoin: miter; stroke-linecap: square"/>
   </g>
   <g id="patch_6">
    <path d="M 50.14375 7.2 
L 407.26375 7.2 
" style="fill: none; stroke: #000000; stroke-width: 0.8; stroke-linejoin: miter; stroke-linecap: square"/>
   </g>
   <g id="legend_1">
    <g id="patch_7">
     <path d="M 57.14375 147.303125 
L 141.453125 147.303125 
Q 143.453125 147.303125 143.453125 145.303125 
L 143.453125 14.2 
Q 143.453125 12.2 141.453125 12.2 
L 57.14375 12.2 
Q 55.14375 12.2 55.14375 14.2 
L 55.14375 145.303125 
Q 55.14375 147.303125 57.14375 147.303125 
z
" style="fill: #ffffff; opacity: 0.8; stroke: #cccccc; stroke-linejoin: miter"/>
    </g>
    <g id="text_19">
     <!-- variants -->
     <g transform="translate(79.032813 23.798437) scale(0.1 -0.1)">
      <defs>
       <path id="DejaVuSans-76" d="M 191 3500 
L 800 3500 
L 1894 563 
L 2988 3500 
L 3597 3500 
L 2284 0 
L 1503 0 
L 191 3500 
z
" transform="scale(0.015625)"/>
       <path id="DejaVuSans-73" d="M 2834 3397 
L 2834 2853 
Q 2591 2978 2328 3040 
Q 2066 3103 1784 3103 
Q 1356 3103 1142 2972 
Q 928 2841 928 2578 
Q 928 2378 1081 2264 
Q 1234 2150 1697 2047 
L 1894 2003 
Q 2506 1872 2764 1633 
Q 3022 1394 3022 966 
Q 3022 478 2636 193 
Q 2250 -91 1575 -91 
Q 1294 -91 989 -36 
Q 684 19 347 128 
L 347 722 
Q 666 556 975 473 
Q 1284 391 1588 391 
Q 1994 391 2212 530 
Q 2431 669 2431 922 
Q 2431 1156 2273 1281 
Q 2116 1406 1581 1522 
L 1381 1569 
Q 847 1681 609 1914 
Q 372 2147 372 2553 
Q 372 3047 722 3315 
Q 1072 3584 1716 3584 
Q 2034 3584 2315 3537 
Q 2597 3491 2834 3397 
z
" transform="scale(0.015625)"/>
      </defs>
      <use xlink:href="#DejaVuSans-76"/>
      <use xlink:href="#DejaVuSans-61" transform="translate(59.179688 0)"/>
      <use xlink:href="#DejaVuSans-72" transform="translate(120.458984 0)"/>
      <use xlink:href="#DejaVuSans-69" transform="translate(161.572266 0)"/>
      <use xlink:href="#DejaVuSans-61" transform="translate(189.355469 0)"/>
      <use xlink:href="#DejaVuSans-6e" transform="translate(250.634766 0)"/>
      <use xlink:href="#DejaVuSans-74" transform="translate(314.013672 0)"/>
      <use xlink:href="#DejaVuSans-73" transform="translate(353.222656 0)"/>
     </g>
    </g>
    <g id="line2d_33">
     <path d="M 59.14375 34.976562 
L 69.14375 34.976562 
L 79.14375 34.976562 
" style="fill: none; stroke: #ffa500; stroke-width: 1.5; stroke-linecap: square"/>
    </g>
    <g id="text_20">
     <!-- score 1.00 -->
     <g transform="translate(87.14375 38.476562) scale(0.1 -0.1)">
      <defs>
       <path id="DejaVuSans-20" transform="scale(0.015625)"/>
      </defs>
      <use xlink:href="#DejaVuSans-73"/>
      <use xlink:href="#DejaVuSans-63" transform="translate(52.099609 0)"/>
      <use xlink:href="#DejaVuSans-6f" transform="translate(107.080078 0)"/>
      <use xlink:href="#DejaVuSans-72" transform="translate(168.261719 0)"/>
      <use xlink:href="#DejaVuSans-65" transform="translate(207.125 0)"/>
      <use xlink:href="#DejaVuSans-20" transform="translate(268.648438 0)"/>
      <use xlink:href="#DejaVuSans-31" transform="translate(300.435547 0)"/>
      <use xlink:href="#DejaVuSans-2e" transform="translate(364.058594 0)"/>
      <use xlink:href="#DejaVuSans-30" transform="translate(395.845703 0)"/>
      <use xlink:href="#DejaVuSans-30" transform="translate(459.46875 0)"/>
     </g>
    </g>
    <g id="line2d_34">
     <path d="M 59.14375 49.654688 
L 69.14375 49.654688 
L 79.14375 49.654688 
" style="fill: none; stroke: #000000; stroke-width: 1.5; stroke-linecap: square"/>
    </g>
    <g id="text_21">
     <!-- score 0.99 -->
     <g transform="translate(87.14375 53.154688) scale(0.1 -0.1)">
      <defs>
       <path id="DejaVuSans-39" d="M 703 97 
L 703 672 
Q 941 559 1184 500 
Q 1428 441 1663 441 
Q 2288 441 2617 861 
Q 2947 1281 2994 2138 
Q 2813 1869 2534 1725 
Q 2256 1581 1919 1581 
Q 1219 1581 811 2004 
Q 403 2428 403 3163 
Q 403 3881 828 4315 
Q 1253 4750 1959 4750 
Q 2769 4750 3195 4129 
Q 3622 3509 3622 2328 
Q 3622 1225 3098 567 
Q 2575 -91 1691 -91 
Q 1453 -91 1209 -44 
Q 966 3 703 97 
z
M 1959 2075 
Q 2384 2075 2632 2365 
Q 2881 2656 2881 3163 
Q 2881 3666 2632 3958 
Q 2384 4250 1959 4250 
Q 1534 4250 1286 3958 
Q 1038 3666 1038 3163 
Q 1038 2656 1286 2365 
Q 1534 2075 1959 2075 
z
" transform="scale(0.015625)"/>
      </defs>
      <use xlink:href="#DejaVuSans-73"/>
      <use xlink:href="#DejaVuSans-63" transform="translate(52.099609 0)"/>
      <use xlink:href="#DejaVuSans-6f" transform="translate(107.080078 0)"/>
      <use xlink:href="#DejaVuSans-72" transform="translate(168.261719 0)"/>
      <use xlink:href="#DejaVuSans-65" transform="translate(207.125 0)"/>
      <use xlink:href="#DejaVuSans-20" transform="translate(268.648438 0)"/>
      <use xlink:href="#DejaVuSans-30" transform="translate(300.435547 0)"/>
      <use xlink:href="#DejaVuSans-2e" transform="translate(364.058594 0)"/>
      <use xlink:href="#DejaVuSans-39" transform="translate(395.845703 0)"/>
      <use xlink:href="#DejaVuSans-39" transform="translate(459.46875 0)"/>
     </g>
    </g>
    <g id="line2d_35">
     <path d="M 59.14375 64.332812 
L 69.14375 64.332812 
L 79.14375 64.332812 
" style="fill: none; stroke: #bfbf00; stroke-width: 1.5; stroke-linecap: square"/>
    </g>
    <g id="text_22">
     <!-- score 0.95 -->
     <g transform="translate(87.14375 67.832812) scale(0.1 -0.1)">
      <use xlink:href="#DejaVuSans-73"/>
      <use xlink:href="#DejaVuSans-63" transform="translate(52.099609 0)"/>
      <use xlink:href="#DejaVuSans-6f" transform="translate(107.080078 0)"/>
      <use xlink:href="#DejaVuSans-72" transform="translate(168.261719 0)"/>
      <use xlink:href="#DejaVuSans-65" transform="translate(207.125 0)"/>
      <use xlink:href="#DejaVuSans-20" transform="translate(268.648438 0)"/>
      <use xlink:href="#DejaVuSans-30" transform="translate(300.435547 0)"/>
      <use xlink:href="#DejaVuSans-2e" transform="translate(364.058594 0)"/>
      <use xlink:href="#DejaVuSans-39" transform="translate(395.845703 0)"/>
      <use xlink:href="#DejaVuSans-35" transform="translate(459.46875 0)"/>
     </g>
    </g>
    <g id="line2d_36">
     <path d="M 59.14375 79.010938 
L 69.14375 79.010938 
L 79.14375 79.010938 
" style="fill: none; stroke: #bf00bf; stroke-width: 1.5; stroke-linecap: square"/>
    </g>
    <g id="text_23">
     <!-- score 0.90 -->
     <g transform="translate(87.14375 82.510938) scale(0.1 -0.1)">
      <use xlink:href="#DejaVuSans-73"/>
      <use xlink:href="#DejaVuSans-63" transform="translate(52.099609 0)"/>
      <use xlink:href="#DejaVuSans-6f" transform="translate(107.080078 0)"/>
      <use xlink:href="#DejaVuSans-72" transform="translate(168.261719 0)"/>
      <use xlink:href="#DejaVuSans-65" transform="translate(207.125 0)"/>
      <use xlink:href="#DejaVuSans-20" transform="translate(268.648438 0)"/>
      <use xlink:href="#DejaVuSans-30" transform="translate(300.435547 0)"/>
      <use xlink:href="#DejaVuSans-2e" transform="translate(364.058594 0)"/>
      <use xlink:href="#DejaVuSans-39" transform="translate(395.845703 0)"/>
      <use xlink:href="#DejaVuSans-30" transform="translate(459.46875 0)"/>
     </g>
    </g>
    <g id="line2d_37">
     <path d="M 59.14375 93.689063 
L 69.14375 93.689063 
L 79.14375 93.689063 
" style="fill: none; stroke: #00bfbf; stroke-width: 1.5; stroke-linecap: square"/>
    </g>
    <g id="text_24">
     <!-- score 0.75 -->
     <g transform="translate(87.14375 97.189063) scale(0.1 -0.1)">
      <defs>
       <path id="DejaVuSans-37" d="M 525 4666 
L 3525 4666 
L 3525 4397 
L 1831 0 
L 1172 0 
L 2766 4134 
L 525 4134 
L 525 4666 
z
" transform="scale(0.015625)"/>
      </defs>
      <use xlink:href="#DejaVuSans-73"/>
      <use xlink:href="#DejaVuSans-63" transform="translate(52.099609 0)"/>
      <use xlink:href="#DejaVuSans-6f" transform="translate(107.080078 0)"/>
      <use xlink:href="#DejaVuSans-72" transform="translate(168.261719 0)"/>
      <use xlink:href="#DejaVuSans-65" transform="translate(207.125 0)"/>
      <use xlink:href="#DejaVuSans-20" transform="translate(268.648438 0)"/>
      <use xlink:href="#DejaVuSans-30" transform="translate(300.435547 0)"/>
      <use xlink:href="#DejaVuSans-2e" transform="translate(364.058594 0)"/>
      <use xlink:href="#DejaVuSans-37" transform="translate(395.845703 0)"/>
      <use xlink:href="#DejaVuSans-35" transform="translate(459.46875 0)"/>
     </g>
    </g>
    <g id="line2d_38">
     <path d="M 59.14375 108.367188 
L 69.14375 108.367188 
L 79.14375 108.367188 
" style="fill: none; stroke: #ff0000; stroke-width: 1.5; stroke-linecap: square"/>
    </g>
    <g id="text_25">
     <!-- score 0.50 -->
     <g transform="translate(87.14375 111.867188) scale(0.1 -0.1)">
      <use xlink:href="#DejaVuSans-73"/>
      <use xlink:href="#DejaVuSans-63" transform="translate(52.099609 0)"/>
      <use xlink:href="#DejaVuSans-6f" transform="translate(107.080078 0)"/>
      <use xlink:href="#DejaVuSans-72" transform="translate(168.261719 0)"/>
      <use xlink:href="#DejaVuSans-65" transform="translate(207.125 0)"/>
      <use xlink:href="#DejaVuSans-20" transform="translate(268.648438 0)"/>
      <use xlink:href="#DejaVuSans-30" transform="translate(300.435547 0)"/>
      <use xlink:href="#DejaVuSans-2e" transform="translate(364.058594 0)"/>
      <use xlink:href="#DejaVuSans-35" transform="translate(395.845703 0)"/>
      <use xlink:href="#DejaVuSans-30" transform="translate(459.46875 0)"/>
     </g>
    </g>
    <g id="line2d_39">
     <path d="M 59.14375 123.045312 
L 69.14375 123.045312 
L 79.14375 123.045312 
" style="fill: none; stroke: #008000; stroke-width: 1.5; stroke-linecap: square"/>
    </g>
    <g id="text_26">
     <!-- score 0.25 -->
     <g transform="translate(87.14375 126.545312) scale(0.1 -0.1)">
      <use xlink:href="#DejaVuSans-73"/>
      <use xlink:href="#DejaVuSans-63" transform="translate(52.099609 0)"/>
      <use xlink:href="#DejaVuSans-6f" transform="translate(107.080078 0)"/>
      <use xlink:href="#DejaVuSans-72" transform="translate(168.261719 0)"/>
      <use xlink:href="#DejaVuSans-65" transform="translate(207.125 0)"/>
      <use xlink:href="#DejaVuSans-20" transform="translate(268.648438 0)"/>
      <use xlink:href="#DejaVuSans-30" transform="translate(300.435547 0)"/>
      <use xlink:href="#DejaVuSans-2e" transform="translate(364.058594 0)"/>
      <use xlink:href="#DejaVuSans-32" transform="translate(395.845703 0)"/>
      <use xlink:href="#DejaVuSans-35" transform="translate(459.46875 0)"/>
     </g>
    </g>
    <g id="line2d_40">
     <path d="M 59.14375 137.723437 
L 69.14375 137.723437 
L 79.14375 137.723437 
" style="fill: none; stroke: #0000ff; stroke-width: 1.5; stroke-linecap: square"/>
    </g>
    <g id="text_27">
     <!-- score 0.00 -->
     <g transform="translate(87.14375 141.223437) scale(0.1 -0.1)">
      <use xlink:href="#DejaVuSans-73"/>
      <use xlink:href="#DejaVuSans-63" transform="translate(52.099609 0)"/>
      <use xlink:href="#DejaVuSans-6f" transform="translate(107.080078 0)"/>
      <use xlink:href="#DejaVuSans-72" transform="translate(168.261719 0)"/>
      <use xlink:href="#DejaVuSans-65" transform="translate(207.125 0)"/>
      <use xlink:href="#DejaVuSans-20" transform="translate(268.648438 0)"/>
      <use xlink:href="#DejaVuSans-30" transform="translate(300.435547 0)"/>
      <use xlink:href="#DejaVuSans-2e" transform="translate(364.058594 0)"/>
      <use xlink:href="#DejaVuSans-30" transform="translate(395.845703 0)"/>
      <use xlink:href="#DejaVuSans-30" transform="translate(459.46875 0)"/>
     </g>
    </g>
   </g>
  </g>
 </g>
 <defs>
  <clipPath id="pc03b86b27c">
   <rect x="50.14375" y="7.2" width="357.12" height="266.112"/>
  </clipPath>
 </defs>
</svg>
