<?xml version="1.0" encoding="utf-8" standalone="no"?>
<!DOCTYPE svg PUBLIC "-//W3C//DTD SVG 1.1//EN"
  "http://www.w3.org/Graphics/SVG/1.1/DTD/svg11.dtd">
<svg xmlns:xlink="http://www.w3.org/1999/xlink" width="408.10125pt" height="310.86825pt" viewBox="0 0 408.10125 310.86825" xmlns="http://www.w3.org/2000/svg" version="1.1">
 <metadata>
  <rdf:RDF xmlns:dc="http://purl.org/dc/elements/1.1/" xmlns:cc="http://creativecommons.org/ns#" xmlns:rdf="http://www.w3.org/1999/02/22-rdf-syntax-ns#">
   <cc:Work>
    <dc:type rdf:resource="http://purl.org/dc/dcmitype/StillImage"/>
    <dc:date>2025-09-24T11:44:39.506574</dc:date>
    <dc:format>image/svg+xml</dc:format>
    <dc:creator>
     <cc:Agent>
      <dc:title>Matplotlib v3.10.6, https://matplotlib.org/</dc:title>
     </cc:Agent>
    </dc:creator>
   </cc:Work>
  </rdf:RDF>
 </metadata>
 <defs>
  <style type="text/css">*{stroke-linejoin: round; stroke-linecap: butt}</style>
 </defs>
 <g id="figure_1">
  <g id="patch_1">
   <path d="M 0 310.86825 
L 408.10125 310.86825 
L 408.10125 0 
L 0 0 
z
" style="fill: #ffffff"/>
  </g>
  <g id="axes_1">
   <g id="patch_2">
    <path d="M 43.78125 273.312 
L 400.90125 273.312 
L 400.90125 7.2 
L 43.78125 7.2 
z
" style="fill: #ffffff"/>
   </g>
   <g id="FillBetweenPolyCollection_1">
    <path d="M 60.013977 222.624 
L 60.013977 273.312 
L 61.099778 273.312 
L 62.18558 273.312 
L 63.271381 273.312 
L 64.357182 273.312 
L 65.442983 273.312 
L 66.528784 273.312 
L 67.614585 273.312 
L 68.700387 273.312 
L 69.786188 273.312 
L 70.871989 273.312 
L 71.95779 273.312 
L 73.043591 273.312 
L 74.129392 273.312 
L 75.215193 273.312 
L 76.300995 273.312 
L 77.386796 273.312 
L 78.472597 273.312 
L 79.558398 273.312 
L 80.644199 273.312 
L 81.73 273.312 
L 82.815802 273.312 
L 83.901603 273.312 
L 84.987404 273.312 
L 86.073205 273.312 
L 87.159006 273.312 
L 88.244807 273.312 
L 89.330608 273.312 
L 90.41641 273.312 
L 91.502211 273.312 
L 92.588012 273.312 
L 93.673813 273.312 
L 94.759614 273.312 
L 95.845415 273.312 
L 96.931217 273.312 
L 98.017018 273.312 
L 99.102819 273.312 
L 100.18862 273.312 
L 101.274421 273.312 
L 102.360222 273.312 
L 103.446023 273.312 
L 104.531825 273.312 
L 105.617626 273.312 
L 106.703427 273.312 
L 107.789228 273.312 
L 108.875029 273.312 
L 109.96083 273.312 
L 111.046632 273.312 
L 112.132433 273.312 
L 113.218234 273.312 
L 114.304035 273.312 
L 115.389836 273.312 
L 116.475637 273.312 
L 117.561439 273.312 
L 118.64724 273.312 
L 119.733041 273.312 
L 120.818842 273.312 
L 121.904643 273.312 
L 122.990444 273.312 
L 124.076245 273.312 
L 125.162047 273.312 
L 126.247848 273.312 
L 127.333649 273.312 
L 128.41945 273.312 
L 129.505251 273.312 
L 130.591052 273.312 
L 131.676854 273.312 
L 132.762655 273.312 
L 133.848456 273.312 
L 134.934257 273.312 
L 136.020058 273.312 
L 137.105859 273.312 
L 138.19166 273.312 
L 139.277462 273.312 
L 140.363263 273.312 
L 141.449064 273.312 
L 142.534865 273.312 
L 143.620666 273.312 
L 144.706467 273.312 
L 145.792269 273.312 
L 146.87807 273.312 
L 147.963871 273.312 
L 149.049672 273.312 
L 150.135473 273.312 
L 151.221274 273.312 
L 152.307075 273.312 
L 153.392877 273.312 
L 154.478678 273.312 
L 155.564479 273.312 
L 156.65028 273.312 
L 157.736081 273.312 
L 158.821882 273.312 
L 159.907684 273.312 
L 160.993485 273.312 
L 162.079286 273.312 
L 163.165087 273.312 
L 164.250888 273.312 
L 165.336689 273.312 
L 166.42249 273.312 
L 167.508292 273.312 
L 168.594093 273.312 
L 169.679894 273.312 
L 170.765695 273.312 
L 171.851496 273.312 
L 172.937297 273.312 
L 174.023099 273.312 
L 175.1089 273.312 
L 176.194701 273.312 
L 177.280502 273.312 
L 178.366303 273.312 
L 179.452104 273.312 
L 180.537906 273.312 
L 181.623707 273.312 
L 182.709508 273.312 
L 183.795309 273.312 
L 184.88111 273.312 
L 185.966911 273.312 
L 187.052712 273.312 
L 188.138514 273.312 
L 189.224315 273.312 
L 190.310116 273.312 
L 191.395917 273.312 
L 192.481718 273.312 
L 193.567519 273.312 
L 194.653321 273.312 
L 195.739122 273.312 
L 196.824923 273.312 
L 197.910724 273.312 
L 198.996525 273.312 
L 200.082326 273.312 
L 201.168127 273.312 
L 202.253929 273.312 
L 203.33973 273.312 
L 204.425531 273.312 
L 205.511332 273.312 
L 206.597133 273.312 
L 207.682934 273.312 
L 208.768736 273.312 
L 209.854537 273.312 
L 210.940338 273.312 
L 212.026139 273.312 
L 213.11194 273.312 
L 214.197741 273.312 
L 215.283542 273.312 
L 216.369344 273.312 
L 217.455145 273.312 
L 218.540946 273.312 
L 219.626747 273.312 
L 220.712548 273.312 
L 221.798349 273.312 
L 222.884151 273.312 
L 223.969952 273.312 
L 225.055753 273.312 
L 226.141554 273.312 
L 227.227355 273.312 
L 228.313156 273.312 
L 229.398958 273.312 
L 230.484759 273.312 
L 231.57056 273.312 
L 232.656361 273.312 
L 233.742162 273.312 
L 234.827963 273.312 
L 235.913764 273.312 
L 236.999566 273.312 
L 238.085367 273.312 
L 239.171168 273.312 
L 240.256969 273.312 
L 241.34277 273.312 
L 242.428571 273.312 
L 243.514373 273.312 
L 244.600174 273.312 
L 245.685975 273.312 
L 246.771776 273.312 
L 247.857577 273.312 
L 248.943378 273.312 
L 250.029179 273.312 
L 251.114981 273.312 
L 252.200782 273.312 
L 253.286583 273.312 
L 254.372384 273.312 
L 255.458185 273.312 
L 256.543986 273.312 
L 257.629788 273.312 
L 258.715589 273.312 
L 259.80139 273.312 
L 260.887191 273.312 
L 261.972992 273.312 
L 263.058793 273.312 
L 264.144594 273.312 
L 265.230396 273.312 
L 266.316197 273.312 
L 267.401998 273.312 
L 268.487799 273.312 
L 269.5736 273.312 
L 270.659401 273.312 
L 271.745203 273.312 
L 272.831004 273.312 
L 273.916805 273.312 
L 275.002606 273.312 
L 276.088407 273.312 
L 277.174208 273.312 
L 278.26001 273.312 
L 279.345811 273.312 
L 280.431612 273.312 
L 281.517413 273.312 
L 282.603214 273.312 
L 283.689015 273.312 
L 284.774816 273.312 
L 285.860618 273.312 
L 286.946419 273.312 
L 288.03222 273.312 
L 289.118021 273.312 
L 290.203822 273.312 
L 291.289623 273.312 
L 292.375425 273.312 
L 293.461226 273.312 
L 294.547027 273.312 
L 295.632828 273.312 
L 296.718629 273.312 
L 297.80443 273.312 
L 298.890231 273.312 
L 299.976033 273.312 
L 301.061834 273.312 
L 302.147635 273.312 
L 303.233436 273.312 
L 304.319237 273.312 
L 305.405038 273.312 
L 306.49084 273.312 
L 307.576641 273.312 
L 308.662442 273.312 
L 309.748243 273.312 
L 310.834044 273.312 
L 311.919845 273.312 
L 313.005646 273.312 
L 314.091448 273.312 
L 315.177249 273.312 
L 316.26305 273.312 
L 317.348851 273.312 
L 318.434652 273.312 
L 319.520453 273.312 
L 320.606255 273.312 
L 321.692056 273.312 
L 322.777857 273.312 
L 323.863658 273.312 
L 324.949459 273.312 
L 326.03526 273.312 
L 327.121061 273.312 
L 328.206863 273.312 
L 329.292664 273.312 
L 330.378465 273.312 
L 331.464266 273.312 
L 332.550067 273.312 
L 333.635868 273.312 
L 334.72167 273.312 
L 335.807471 273.312 
L 336.893272 273.312 
L 337.979073 273.312 
L 339.064874 273.312 
L 340.150675 273.312 
L 341.236477 273.312 
L 342.322278 273.312 
L 343.408079 273.312 
L 344.49388 273.312 
L 345.579681 273.312 
L 346.665482 273.312 
L 347.751283 273.312 
L 348.837085 273.312 
L 349.922886 273.312 
L 351.008687 273.312 
L 352.094488 273.312 
L 353.180289 273.312 
L 354.26609 273.312 
L 355.351892 273.312 
L 356.437693 273.312 
L 357.523494 273.312 
L 358.609295 273.312 
L 359.695096 273.312 
L 360.780897 273.312 
L 361.866698 273.312 
L 362.9525 273.312 
L 364.038301 273.312 
L 365.124102 273.312 
L 366.209903 273.312 
L 367.295704 273.312 
L 368.381505 273.312 
L 369.467307 273.312 
L 370.553108 273.312 
L 371.638909 273.312 
L 372.72471 273.312 
L 373.810511 273.312 
L 374.896312 273.312 
L 375.982113 273.312 
L 377.067915 273.312 
L 378.153716 273.312 
L 379.239517 273.312 
L 380.325318 273.312 
L 381.411119 273.312 
L 382.49692 273.312 
L 383.582722 273.312 
L 384.668523 273.312 
L 384.668523 273.312 
L 384.668523 273.312 
L 383.582722 273.312 
L 382.49692 273.312 
L 381.411119 273.312 
L 380.325318 273.312 
L 379.239517 273.312 
L 378.153716 273.312 
L 377.067915 273.312 
L 375.982113 273.312 
L 374.896312 273.312 
L 373.810511 273.312 
L 372.72471 273.312 
L 371.638909 273.312 
L 370.553108 273.312 
L 369.467307 273.311999 
L 368.381505 273.311999 
L 367.295704 273.311999 
L 366.209903 273.311999 
L 365.124102 273.311999 
L 364.038301 273.311999 
L 362.9525 273.311999 
L 361.866698 273.311999 
L 360.780897 273.311999 
L 359.695096 273.311999 
L 358.609295 273.311999 
L 357.523494 273.311999 
L 356.437693 273.311999 
L 355.351892 273.311999 
L 354.26609 273.311999 
L 353.180289 273.311999 
L 352.094488 273.311998 
L 351.008687 273.311998 
L 349.922886 273.311998 
L 348.837085 273.311998 
L 347.751283 273.311998 
L 346.665482 273.311998 
L 345.579681 273.311998 
L 344.49388 273.311997 
L 343.408079 273.311997 
L 342.322278 273.311997 
L 341.236477 273.311997 
L 340.150675 273.311997 
L 339.064874 273.311996 
L 337.979073 273.311996 
L 336.893272 273.311996 
L 335.807471 273.311996 
L 334.72167 273.311995 
L 333.635868 273.311995 
L 332.550067 273.311995 
L 331.464266 273.311994 
L 330.378465 273.311994 
L 329.292664 273.311993 
L 328.206863 273.311993 
L 327.121061 273.311992 
L 326.03526 273.311992 
L 324.949459 273.311991 
L 323.863658 273.311991 
L 322.777857 273.31199 
L 321.692056 273.311989 
L 320.606255 273.311989 
L 319.520453 273.311988 
L 318.434652 273.311987 
L 317.348851 273.311986 
L 316.26305 273.311985 
L 315.177249 273.311984 
L 314.091448 273.311983 
L 313.005646 273.311982 
L 311.919845 273.311981 
L 310.834044 273.311979 
L 309.748243 273.311978 
L 308.662442 273.311976 
L 307.576641 273.311974 
L 306.49084 273.311973 
L 305.405038 273.311971 
L 304.319237 273.311969 
L 303.233436 273.311967 
L 302.147635 273.311964 
L 301.061834 273.311962 
L 299.976033 273.311959 
L 298.890231 273.311956 
L 297.80443 273.311953 
L 296.718629 273.31195 
L 295.632828 273.311946 
L 294.547027 273.311943 
L 293.461226 273.311939 
L 292.375425 273.311934 
L 291.289623 273.31193 
L 290.203822 273.311925 
L 289.118021 273.31192 
L 288.03222 273.311914 
L 286.946419 273.311908 
L 285.860618 273.311901 
L 284.774816 273.311895 
L 283.689015 273.311887 
L 282.603214 273.311879 
L 281.517413 273.311871 
L 280.431612 273.311862 
L 279.345811 273.311852 
L 278.26001 273.311842 
L 277.174208 273.311831 
L 276.088407 273.311819 
L 275.002606 273.311807 
L 273.916805 273.311793 
L 272.831004 273.311779 
L 271.745203 273.311764 
L 270.659401 273.311747 
L 269.5736 273.311729 
L 268.487799 273.311711 
L 267.401998 273.311691 
L 266.316197 273.311669 
L 265.230396 273.311646 
L 264.144594 273.311621 
L 263.058793 273.311595 
L 261.972992 273.311567 
L 260.887191 273.311537 
L 259.80139 273.311505 
L 258.715589 273.311471 
L 257.629788 273.311434 
L 256.543986 273.311395 
L 255.458185 273.311353 
L 254.372384 273.311308 
L 253.286583 273.31126 
L 252.200782 273.311208 
L 251.114981 273.311154 
L 250.029179 273.311095 
L 248.943378 273.311032 
L 247.857577 273.310965 
L 246.771776 273.310894 
L 245.685975 273.310817 
L 244.600174 273.310735 
L 243.514373 273.310648 
L 242.428571 273.310554 
L 241.34277 273.310455 
L 240.256969 273.310348 
L 239.171168 273.310234 
L 238.085367 273.310112 
L 236.999566 273.309981 
L 235.913764 273.309842 
L 234.827963 273.309693 
L 233.742162 273.309534 
L 232.656361 273.309364 
L 231.57056 273.309182 
L 230.484759 273.308988 
L 229.398958 273.308781 
L 228.313156 273.308559 
L 227.227355 273.308322 
L 226.141554 273.308069 
L 225.055753 273.307799 
L 223.969952 273.30751 
L 222.884151 273.307201 
L 221.798349 273.306871 
L 220.712548 273.306519 
L 219.626747 273.306142 
L 218.540946 273.30574 
L 217.455145 273.30531 
L 216.369344 273.304851 
L 215.283542 273.304361 
L 214.197741 273.303837 
L 213.11194 273.303278 
L 212.026139 273.30268 
L 210.940338 273.302042 
L 209.854537 273.30136 
L 208.768736 273.300632 
L 207.682934 273.299854 
L 206.597133 273.299024 
L 205.511332 273.298137 
L 204.425531 273.29719 
L 203.33973 273.296178 
L 202.253929 273.295098 
L 201.168127 273.293944 
L 200.082326 273.292713 
L 198.996525 273.291398 
L 197.910724 273.289994 
L 196.824923 273.288494 
L 195.739122 273.286894 
L 194.653321 273.285185 
L 193.567519 273.283361 
L 192.481718 273.281413 
L 191.395917 273.279334 
L 190.310116 273.277115 
L 189.224315 273.274746 
L 188.138514 273.272218 
L 187.052712 273.269519 
L 185.966911 273.266639 
L 184.88111 273.263565 
L 183.795309 273.260285 
L 182.709508 273.256784 
L 181.623707 273.253048 
L 180.537906 273.249061 
L 179.452104 273.244807 
L 178.366303 273.240268 
L 177.280502 273.235426 
L 176.194701 273.230259 
L 175.1089 273.224747 
L 174.023099 273.218867 
L 172.937297 273.212594 
L 171.851496 273.205902 
L 170.765695 273.198765 
L 169.679894 273.191153 
L 168.594093 273.183033 
L 167.508292 273.174374 
L 166.42249 273.16514 
L 165.336689 273.155293 
L 164.250888 273.144792 
L 163.165087 273.133596 
L 162.079286 273.121658 
L 160.993485 273.108931 
L 159.907684 273.095362 
L 158.821882 273.080898 
L 157.736081 273.065479 
L 156.65028 273.049045 
L 155.564479 273.031528 
L 154.478678 273.01286 
L 153.392877 272.992965 
L 152.307075 272.971764 
L 151.221274 272.949174 
L 150.135473 272.925104 
L 149.049672 272.89946 
L 147.963871 272.872141 
L 146.87807 272.843039 
L 145.792269 272.81204 
L 144.706467 272.779024 
L 143.620666 272.743861 
L 142.534865 272.706415 
L 141.449064 272.666542 
L 140.363263 272.624087 
L 139.277462 272.578887 
L 138.19166 272.53077 
L 137.105859 272.47955 
L 136.020058 272.425034 
L 134.934257 272.367015 
L 133.848456 272.305274 
L 132.762655 272.239578 
L 131.676854 272.169682 
L 130.591052 272.095325 
L 129.505251 272.016231 
L 128.41945 271.932108 
L 127.333649 271.842646 
L 126.247848 271.747518 
L 125.162047 271.646378 
L 124.076245 271.53886 
L 122.990444 271.424576 
L 121.904643 271.303118 
L 120.818842 271.174052 
L 119.733041 271.036922 
L 118.64724 270.891247 
L 117.561439 270.736517 
L 116.475637 270.572197 
L 115.389836 270.397721 
L 114.304035 270.212492 
L 113.218234 270.015884 
L 112.132433 269.807236 
L 111.046632 269.585851 
L 109.96083 269.351001 
L 108.875029 269.101916 
L 107.789228 268.83779 
L 106.703427 268.557777 
L 105.617626 268.26099 
L 104.531825 267.946497 
L 103.446023 267.613326 
L 102.360222 267.260459 
L 101.274421 266.88683 
L 100.18862 266.491328 
L 99.102819 266.072793 
L 98.017018 265.630019 
L 96.931217 265.161746 
L 95.845415 264.666668 
L 94.759614 264.143429 
L 93.673813 263.59062 
L 92.588012 263.006786 
L 91.502211 262.39042 
L 90.41641 261.739969 
L 89.330608 261.053833 
L 88.244807 260.330364 
L 87.159006 259.567875 
L 86.073205 258.764635 
L 84.987404 257.91888 
L 83.901603 257.028807 
L 82.815802 256.092589 
L 81.73 255.108373 
L 80.644199 254.074286 
L 79.558398 252.988445 
L 78.472597 251.848962 
L 77.386796 250.653952 
L 76.300995 249.401542 
L 75.215193 248.089881 
L 74.129392 246.71715 
L 73.043591 245.281572 
L 71.95779 243.781429 
L 70.871989 242.215067 
L 69.786188 240.580919 
L 68.700387 238.877509 
L 67.614585 237.103477 
L 66.528784 235.257586 
L 65.442983 233.338743 
L 64.357182 231.346015 
L 63.271381 229.27864 
L 62.18558 227.136051 
L 61.099778 224.917884 
L 60.013977 222.624 
z
" clip-path="url(#p2bed10682b)" style="fill: #1f77b4"/>
   </g>
   <g id="FillBetweenPolyCollection_2">
    <path d="M 60.013977 171.936 
L 60.013977 222.624 
L 61.099778 224.917884 
L 62.18558 227.136051 
L 63.271381 229.27864 
L 64.357182 231.346015 
L 65.442983 233.338743 
L 66.528784 235.257586 
L 67.614585 237.103477 
L 68.700387 238.877509 
L 69.786188 240.580919 
L 70.871989 242.215067 
L 71.95779 243.781429 
L 73.043591 245.281572 
L 74.129392 246.71715 
L 75.215193 248.089881 
L 76.300995 249.401542 
L 77.386796 250.653952 
L 78.472597 251.848962 
L 79.558398 252.988445 
L 80.644199 254.074286 
L 81.73 255.108373 
L 82.815802 256.092589 
L 83.901603 257.028807 
L 84.987404 257.91888 
L 86.073205 258.764635 
L 87.159006 259.567875 
L 88.244807 260.330364 
L 89.330608 261.053833 
L 90.41641 261.739969 
L 91.502211 262.39042 
L 92.588012 263.006786 
L 93.673813 263.59062 
L 94.759614 264.143429 
L 95.845415 264.666668 
L 96.931217 265.161746 
L 98.017018 265.630019 
L 99.102819 266.072793 
L 100.18862 266.491328 
L 101.274421 266.88683 
L 102.360222 267.260459 
L 103.446023 267.613326 
L 104.531825 267.946497 
L 105.617626 268.26099 
L 106.703427 268.557777 
L 107.789228 268.83779 
L 108.875029 269.101916 
L 109.96083 269.351001 
L 111.046632 269.585851 
L 112.132433 269.807236 
L 113.218234 270.015884 
L 114.304035 270.212492 
L 115.389836 270.397721 
L 116.475637 270.572197 
L 117.561439 270.736517 
L 118.64724 270.891247 
L 119.733041 271.036922 
L 120.818842 271.174052 
L 121.904643 271.303118 
L 122.990444 271.424576 
L 124.076245 271.53886 
L 125.162047 271.646378 
L 126.247848 271.747518 
L 127.333649 271.842646 
L 128.41945 271.932108 
L 129.505251 272.016231 
L 130.591052 272.095325 
L 131.676854 272.169682 
L 132.762655 272.239578 
L 133.848456 272.305274 
L 134.934257 272.367015 
L 136.020058 272.425034 
L 137.105859 272.47955 
L 138.19166 272.53077 
L 139.277462 272.578887 
L 140.363263 272.624087 
L 141.449064 272.666542 
L 142.534865 272.706415 
L 143.620666 272.743861 
L 144.706467 272.779024 
L 145.792269 272.81204 
L 146.87807 272.843039 
L 147.963871 272.872141 
L 149.049672 272.89946 
L 150.135473 272.925104 
L 151.221274 272.949174 
L 152.307075 272.971764 
L 153.392877 272.992965 
L 154.478678 273.01286 
L 155.564479 273.031528 
L 156.65028 273.049045 
L 157.736081 273.065479 
L 158.821882 273.080898 
L 159.907684 273.095362 
L 160.993485 273.108931 
L 162.079286 273.121658 
L 163.165087 273.133596 
L 164.250888 273.144792 
L 165.336689 273.155293 
L 166.42249 273.16514 
L 167.508292 273.174374 
L 168.594093 273.183033 
L 169.679894 273.191153 
L 170.765695 273.198765 
L 171.851496 273.205902 
L 172.937297 273.212594 
L 174.023099 273.218867 
L 175.1089 273.224747 
L 176.194701 273.230259 
L 177.280502 273.235426 
L 178.366303 273.240268 
L 179.452104 273.244807 
L 180.537906 273.249061 
L 181.623707 273.253048 
L 182.709508 273.256784 
L 183.795309 273.260285 
L 184.88111 273.263565 
L 185.966911 273.266639 
L 187.052712 273.269519 
L 188.138514 273.272218 
L 189.224315 273.274746 
L 190.310116 273.277115 
L 191.395917 273.279334 
L 192.481718 273.281413 
L 193.567519 273.283361 
L 194.653321 273.285185 
L 195.739122 273.286894 
L 196.824923 273.288494 
L 197.910724 273.289994 
L 198.996525 273.291398 
L 200.082326 273.292713 
L 201.168127 273.293944 
L 202.253929 273.295098 
L 203.33973 273.296178 
L 204.425531 273.29719 
L 205.511332 273.298137 
L 206.597133 273.299024 
L 207.682934 273.299854 
L 208.768736 273.300632 
L 209.854537 273.30136 
L 210.940338 273.302042 
L 212.026139 273.30268 
L 213.11194 273.303278 
L 214.197741 273.303837 
L 215.283542 273.304361 
L 216.369344 273.304851 
L 217.455145 273.30531 
L 218.540946 273.30574 
L 219.626747 273.306142 
L 220.712548 273.306519 
L 221.798349 273.306871 
L 222.884151 273.307201 
L 223.969952 273.30751 
L 225.055753 273.307799 
L 226.141554 273.308069 
L 227.227355 273.308322 
L 228.313156 273.308559 
L 229.398958 273.308781 
L 230.484759 273.308988 
L 231.57056 273.309182 
L 232.656361 273.309364 
L 233.742162 273.309534 
L 234.827963 273.309693 
L 235.913764 273.309842 
L 236.999566 273.309981 
L 238.085367 273.310112 
L 239.171168 273.310234 
L 240.256969 273.310348 
L 241.34277 273.310455 
L 242.428571 273.310554 
L 243.514373 273.310648 
L 244.600174 273.310735 
L 245.685975 273.310817 
L 246.771776 273.310894 
L 247.857577 273.310965 
L 248.943378 273.311032 
L 250.029179 273.311095 
L 251.114981 273.311154 
L 252.200782 273.311208 
L 253.286583 273.31126 
L 254.372384 273.311308 
L 255.458185 273.311353 
L 256.543986 273.311395 
L 257.629788 273.311434 
L 258.715589 273.311471 
L 259.80139 273.311505 
L 260.887191 273.311537 
L 261.972992 273.311567 
L 263.058793 273.311595 
L 264.144594 273.311621 
L 265.230396 273.311646 
L 266.316197 273.311669 
L 267.401998 273.311691 
L 268.487799 273.311711 
L 269.5736 273.311729 
L 270.659401 273.311747 
L 271.745203 273.311764 
L 272.831004 273.311779 
L 273.916805 273.311793 
L 275.002606 273.311807 
L 276.088407 273.311819 
L 277.174208 273.311831 
L 278.26001 273.311842 
L 279.345811 273.311852 
L 280.431612 273.311862 
L 281.517413 273.311871 
L 282.603214 273.311879 
L 283.689015 273.311887 
L 284.774816 273.311895 
L 285.860618 273.311901 
L 286.946419 273.311908 
L 288.03222 273.311914 
L 289.118021 273.31192 
L 290.203822 273.311925 
L 291.289623 273.31193 
L 292.375425 273.311934 
L 293.461226 273.311939 
L 294.547027 273.311943 
L 295.632828 273.311946 
L 296.718629 273.31195 
L 297.80443 273.311953 
L 298.890231 273.311956 
L 299.976033 273.311959 
L 301.061834 273.311962 
L 302.147635 273.311964 
L 303.233436 273.311967 
L 304.319237 273.311969 
L 305.405038 273.311971 
L 306.49084 273.311973 
L 307.576641 273.311974 
L 308.662442 273.311976 
L 309.748243 273.311978 
L 310.834044 273.311979 
L 311.919845 273.311981 
L 313.005646 273.311982 
L 314.091448 273.311983 
L 315.177249 273.311984 
L 316.26305 273.311985 
L 317.348851 273.311986 
L 318.434652 273.311987 
L 319.520453 273.311988 
L 320.606255 273.311989 
L 321.692056 273.311989 
L 322.777857 273.31199 
L 323.863658 273.311991 
L 324.949459 273.311991 
L 326.03526 273.311992 
L 327.121061 273.311992 
L 328.206863 273.311993 
L 329.292664 273.311993 
L 330.378465 273.311994 
L 331.464266 273.311994 
L 332.550067 273.311995 
L 333.635868 273.311995 
L 334.72167 273.311995 
L 335.807471 273.311996 
L 336.893272 273.311996 
L 337.979073 273.311996 
L 339.064874 273.311996 
L 340.150675 273.311997 
L 341.236477 273.311997 
L 342.322278 273.311997 
L 343.408079 273.311997 
L 344.49388 273.311997 
L 345.579681 273.311998 
L 346.665482 273.311998 
L 347.751283 273.311998 
L 348.837085 273.311998 
L 349.922886 273.311998 
L 351.008687 273.311998 
L 352.094488 273.311998 
L 353.180289 273.311999 
L 354.26609 273.311999 
L 355.351892 273.311999 
L 356.437693 273.311999 
L 357.523494 273.311999 
L 358.609295 273.311999 
L 359.695096 273.311999 
L 360.780897 273.311999 
L 361.866698 273.311999 
L 362.9525 273.311999 
L 364.038301 273.311999 
L 365.124102 273.311999 
L 366.209903 273.311999 
L 367.295704 273.311999 
L 368.381505 273.311999 
L 369.467307 273.311999 
L 370.553108 273.312 
L 371.638909 273.312 
L 372.72471 273.312 
L 373.810511 273.312 
L 374.896312 273.312 
L 375.982113 273.312 
L 377.067915 273.312 
L 378.153716 273.312 
L 379.239517 273.312 
L 380.325318 273.312 
L 381.411119 273.312 
L 382.49692 273.312 
L 383.582722 273.312 
L 384.668523 273.312 
L 384.668523 273.274264 
L 384.668523 273.274264 
L 383.582722 273.273205 
L 382.49692 273.272117 
L 381.411119 273.270999 
L 380.325318 273.269849 
L 379.239517 273.268668 
L 378.153716 273.267454 
L 377.067915 273.266206 
L 375.982113 273.264924 
L 374.896312 273.263606 
L 373.810511 273.262251 
L 372.72471 273.260859 
L 371.638909 273.259428 
L 370.553108 273.257957 
L 369.467307 273.256446 
L 368.381505 273.254893 
L 367.295704 273.253297 
L 366.209903 273.251656 
L 365.124102 273.24997 
L 364.038301 273.248238 
L 362.9525 273.246458 
L 361.866698 273.244628 
L 360.780897 273.242748 
L 359.695096 273.240816 
L 358.609295 273.23883 
L 357.523494 273.23679 
L 356.437693 273.234693 
L 355.351892 273.232538 
L 354.26609 273.230324 
L 353.180289 273.228049 
L 352.094488 273.225711 
L 351.008687 273.223309 
L 349.922886 273.220841 
L 348.837085 273.218304 
L 347.751283 273.215698 
L 346.665482 273.21302 
L 345.579681 273.210268 
L 344.49388 273.207441 
L 343.408079 273.204536 
L 342.322278 273.201551 
L 341.236477 273.198484 
L 340.150675 273.195333 
L 339.064874 273.192096 
L 337.979073 273.188769 
L 336.893272 273.185352 
L 335.807471 273.18184 
L 334.72167 273.178233 
L 333.635868 273.174526 
L 332.550067 273.170718 
L 331.464266 273.166806 
L 330.378465 273.162787 
L 329.292664 273.158658 
L 328.206863 273.154416 
L 327.121061 273.150058 
L 326.03526 273.145581 
L 324.949459 273.140982 
L 323.863658 273.136258 
L 322.777857 273.131404 
L 321.692056 273.126418 
L 320.606255 273.121297 
L 319.520453 273.116035 
L 318.434652 273.110631 
L 317.348851 273.105079 
L 316.26305 273.099377 
L 315.177249 273.093519 
L 314.091448 273.087502 
L 313.005646 273.081322 
L 311.919845 273.074973 
L 310.834044 273.068453 
L 309.748243 273.061755 
L 308.662442 273.054876 
L 307.576641 273.047811 
L 306.49084 273.040554 
L 305.405038 273.033101 
L 304.319237 273.025446 
L 303.233436 273.017584 
L 302.147635 273.009509 
L 301.061834 273.001217 
L 299.976033 272.9927 
L 298.890231 272.983953 
L 297.80443 272.974971 
L 296.718629 272.965746 
L 295.632828 272.956273 
L 294.547027 272.946545 
L 293.461226 272.936554 
L 292.375425 272.926295 
L 291.289623 272.91576 
L 290.203822 272.904942 
L 289.118021 272.893834 
L 288.03222 272.882427 
L 286.946419 272.870714 
L 285.860618 272.858688 
L 284.774816 272.846339 
L 283.689015 272.833659 
L 282.603214 272.82064 
L 281.517413 272.807272 
L 280.431612 272.793548 
L 279.345811 272.779456 
L 278.26001 272.764989 
L 277.174208 272.750135 
L 276.088407 272.734886 
L 275.002606 272.71923 
L 273.916805 272.703157 
L 272.831004 272.686656 
L 271.745203 272.669716 
L 270.659401 272.652326 
L 269.5736 272.634475 
L 268.487799 272.616149 
L 267.401998 272.597337 
L 266.316197 272.578027 
L 265.230396 272.558205 
L 264.144594 272.537858 
L 263.058793 272.516973 
L 261.972992 272.495536 
L 260.887191 272.473533 
L 259.80139 272.450949 
L 258.715589 272.427769 
L 257.629788 272.403978 
L 256.543986 272.37956 
L 255.458185 272.3545 
L 254.372384 272.32878 
L 253.286583 272.302385 
L 252.200782 272.275296 
L 251.114981 272.247496 
L 250.029179 272.218967 
L 248.943378 272.189691 
L 247.857577 272.159648 
L 246.771776 272.128819 
L 245.685975 272.097184 
L 244.600174 272.064723 
L 243.514373 272.031414 
L 242.428571 271.997237 
L 241.34277 271.962169 
L 240.256969 271.926188 
L 239.171168 271.88927 
L 238.085367 271.851393 
L 236.999566 271.812532 
L 235.913764 271.772662 
L 234.827963 271.731758 
L 233.742162 271.689795 
L 232.656361 271.646744 
L 231.57056 271.60258 
L 230.484759 271.557275 
L 229.398958 271.510799 
L 228.313156 271.463125 
L 227.227355 271.414221 
L 226.141554 271.364057 
L 225.055753 271.312602 
L 223.969952 271.259824 
L 222.884151 271.20569 
L 221.798349 271.150166 
L 220.712548 271.093217 
L 219.626747 271.034809 
L 218.540946 270.974906 
L 217.455145 270.91347 
L 216.369344 270.850464 
L 215.283542 270.785848 
L 214.197741 270.719583 
L 213.11194 270.651629 
L 212.026139 270.581944 
L 210.940338 270.510484 
L 209.854537 270.437208 
L 208.768736 270.362069 
L 207.682934 270.285023 
L 206.597133 270.206022 
L 205.511332 270.125019 
L 204.425531 270.041964 
L 203.33973 269.956807 
L 202.253929 269.869497 
L 201.168127 269.779981 
L 200.082326 269.688205 
L 198.996525 269.594114 
L 197.910724 269.497651 
L 196.824923 269.398758 
L 195.739122 269.297376 
L 194.653321 269.193444 
L 193.567519 269.0869 
L 192.481718 268.977679 
L 191.395917 268.865717 
L 190.310116 268.750947 
L 189.224315 268.6333 
L 188.138514 268.512704 
L 187.052712 268.38909 
L 185.966911 268.262382 
L 184.88111 268.132504 
L 183.795309 267.99938 
L 182.709508 267.86293 
L 181.623707 267.723071 
L 180.537906 267.57972 
L 179.452104 267.432792 
L 178.366303 267.282198 
L 177.280502 267.127848 
L 176.194701 266.96965 
L 175.1089 266.807507 
L 174.023099 266.641323 
L 172.937297 266.470997 
L 171.851496 266.296426 
L 170.765695 266.117505 
L 169.679894 265.934124 
L 168.594093 265.746174 
L 167.508292 265.553537 
L 166.42249 265.356098 
L 165.336689 265.153735 
L 164.250888 264.946323 
L 163.165087 264.733735 
L 162.079286 264.515838 
L 160.993485 264.292497 
L 159.907684 264.063573 
L 158.821882 263.828922 
L 157.736081 263.588396 
L 156.65028 263.341842 
L 155.564479 263.089105 
L 154.478678 262.830021 
L 153.392877 262.564426 
L 152.307075 262.292145 
L 151.221274 262.013003 
L 150.135473 261.726817 
L 149.049672 261.433398 
L 147.963871 261.13255 
L 146.87807 260.824074 
L 145.792269 260.507761 
L 144.706467 260.183397 
L 143.620666 259.85076 
L 142.534865 259.509621 
L 141.449064 259.159743 
L 140.363263 258.800881 
L 139.277462 258.432782 
L 138.19166 258.055183 
L 137.105859 257.667813 
L 136.020058 257.270392 
L 134.934257 256.862628 
L 133.848456 256.444221 
L 132.762655 256.014858 
L 131.676854 255.574217 
L 130.591052 255.121963 
L 129.505251 254.657749 
L 128.41945 254.181216 
L 127.333649 253.691991 
L 126.247848 253.189688 
L 125.162047 252.673907 
L 124.076245 252.144233 
L 122.990444 251.600237 
L 121.904643 251.041472 
L 120.818842 250.467477 
L 119.733041 249.877773 
L 118.64724 249.271863 
L 117.561439 248.649234 
L 116.475637 248.009352 
L 115.389836 247.351667 
L 114.304035 246.675606 
L 113.218234 245.98058 
L 112.132433 245.265975 
L 111.046632 244.531159 
L 109.96083 243.775478 
L 108.875029 242.998255 
L 107.789228 242.198793 
L 106.703427 241.37637 
L 105.617626 240.530243 
L 104.531825 239.659646 
L 103.446023 238.763791 
L 102.360222 237.841865 
L 101.274421 236.893034 
L 100.18862 235.916442 
L 99.102819 234.911211 
L 98.017018 233.876441 
L 96.931217 232.811214 
L 95.845415 231.71459 
L 94.759614 230.585612 
L 93.673813 229.423307 
L 92.588012 228.226687 
L 91.502211 226.994751 
L 90.41641 225.726488 
L 89.330608 224.420878 
L 88.244807 223.076897 
L 87.159006 221.693519 
L 86.073205 220.269722 
L 84.987404 218.80449 
L 83.901603 217.296816 
L 82.815802 215.745712 
L 81.73 214.150212 
L 80.644199 212.509374 
L 79.558398 210.822295 
L 78.472597 209.088112 
L 77.386796 207.306008 
L 76.300995 205.475226 
L 75.215193 203.595073 
L 74.129392 201.66493 
L 73.043591 199.684261 
L 71.95779 197.652621 
L 70.871989 195.569669 
L 69.786188 193.435176 
L 68.700387 191.249035 
L 67.614585 189.011271 
L 66.528784 186.722053 
L 65.442983 184.381702 
L 64.357182 181.9907 
L 63.271381 179.5497 
L 62.18558 177.059537 
L 61.099778 174.521232 
L 60.013977 171.936 
z
" clip-path="url(#p2bed10682b)" style="fill: #ff7f0e"/>
   </g>
   <g id="FillBetweenPolyCollection_3">
    <path d="M 60.013977 121.248 
L 60.013977 171.936 
L 61.099778 174.521232 
L 62.18558 177.059537 
L 63.271381 179.5497 
L 64.357182 181.9907 
L 65.442983 184.381702 
L 66.528784 186.722053 
L 67.614585 189.011271 
L 68.700387 191.249035 
L 69.786188 193.435176 
L 70.871989 195.569669 
L 71.95779 197.652621 
L 73.043591 199.684261 
L 74.129392 201.66493 
L 75.215193 203.595073 
L 76.300995 205.475226 
L 77.386796 207.306008 
L 78.472597 209.088112 
L 79.558398 210.822295 
L 80.644199 212.509374 
L 81.73 214.150212 
L 82.815802 215.745712 
L 83.901603 217.296816 
L 84.987404 218.80449 
L 86.073205 220.269722 
L 87.159006 221.693519 
L 88.244807 223.076897 
L 89.330608 224.420878 
L 90.41641 225.726488 
L 91.502211 226.994751 
L 92.588012 228.226687 
L 93.673813 229.423307 
L 94.759614 230.585612 
L 95.845415 231.71459 
L 96.931217 232.811214 
L 98.017018 233.876441 
L 99.102819 234.911211 
L 100.18862 235.916442 
L 101.274421 236.893034 
L 102.360222 237.841865 
L 103.446023 238.763791 
L 104.531825 239.659646 
L 105.617626 240.530243 
L 106.703427 241.37637 
L 107.789228 242.198793 
L 108.875029 242.998255 
L 109.96083 243.775478 
L 111.046632 244.531159 
L 112.132433 245.265975 
L 113.218234 245.98058 
L 114.304035 246.675606 
L 115.389836 247.351667 
L 116.475637 248.009352 
L 117.561439 248.649234 
L 118.64724 249.271863 
L 119.733041 249.877773 
L 120.818842 250.467477 
L 121.904643 251.041472 
L 122.990444 251.600237 
L 124.076245 252.144233 
L 125.162047 252.673907 
L 126.247848 253.189688 
L 127.333649 253.691991 
L 128.41945 254.181216 
L 129.505251 254.657749 
L 130.591052 255.121963 
L 131.676854 255.574217 
L 132.762655 256.014858 
L 133.848456 256.444221 
L 134.934257 256.862628 
L 136.020058 257.270392 
L 137.105859 257.667813 
L 138.19166 258.055183 
L 139.277462 258.432782 
L 140.363263 258.800881 
L 141.449064 259.159743 
L 142.534865 259.509621 
L 143.620666 259.85076 
L 144.706467 260.183397 
L 145.792269 260.507761 
L 146.87807 260.824074 
L 147.963871 261.13255 
L 149.049672 261.433398 
L 150.135473 261.726817 
L 151.221274 262.013003 
L 152.307075 262.292145 
L 153.392877 262.564426 
L 154.478678 262.830021 
L 155.564479 263.089105 
L 156.65028 263.341842 
L 157.736081 263.588396 
L 158.821882 263.828922 
L 159.907684 264.063573 
L 160.993485 264.292497 
L 162.079286 264.515838 
L 163.165087 264.733735 
L 164.250888 264.946323 
L 165.336689 265.153735 
L 166.42249 265.356098 
L 167.508292 265.553537 
L 168.594093 265.746174 
L 169.679894 265.934124 
L 170.765695 266.117505 
L 171.851496 266.296426 
L 172.937297 266.470997 
L 174.023099 266.641323 
L 175.1089 266.807507 
L 176.194701 266.96965 
L 177.280502 267.127848 
L 178.366303 267.282198 
L 179.452104 267.432792 
L 180.537906 267.57972 
L 181.623707 267.723071 
L 182.709508 267.86293 
L 183.795309 267.99938 
L 184.88111 268.132504 
L 185.966911 268.262382 
L 187.052712 268.38909 
L 188.138514 268.512704 
L 189.224315 268.6333 
L 190.310116 268.750947 
L 191.395917 268.865717 
L 192.481718 268.977679 
L 193.567519 269.0869 
L 194.653321 269.193444 
L 195.739122 269.297376 
L 196.824923 269.398758 
L 197.910724 269.497651 
L 198.996525 269.594114 
L 200.082326 269.688205 
L 201.168127 269.779981 
L 202.253929 269.869497 
L 203.33973 269.956807 
L 204.425531 270.041964 
L 205.511332 270.125019 
L 206.597133 270.206022 
L 207.682934 270.285023 
L 208.768736 270.362069 
L 209.854537 270.437208 
L 210.940338 270.510484 
L 212.026139 270.581944 
L 213.11194 270.651629 
L 214.197741 270.719583 
L 215.283542 270.785848 
L 216.369344 270.850464 
L 217.455145 270.91347 
L 218.540946 270.974906 
L 219.626747 271.034809 
L 220.712548 271.093217 
L 221.798349 271.150166 
L 222.884151 271.20569 
L 223.969952 271.259824 
L 225.055753 271.312602 
L 226.141554 271.364057 
L 227.227355 271.414221 
L 228.313156 271.463125 
L 229.398958 271.510799 
L 230.484759 271.557275 
L 231.57056 271.60258 
L 232.656361 271.646744 
L 233.742162 271.689795 
L 234.827963 271.731758 
L 235.913764 271.772662 
L 236.999566 271.812532 
L 238.085367 271.851393 
L 239.171168 271.88927 
L 240.256969 271.926188 
L 241.34277 271.962169 
L 242.428571 271.997237 
L 243.514373 272.031414 
L 244.600174 272.064723 
L 245.685975 272.097184 
L 246.771776 272.128819 
L 247.857577 272.159648 
L 248.943378 272.189691 
L 250.029179 272.218967 
L 251.114981 272.247496 
L 252.200782 272.275296 
L 253.286583 272.302385 
L 254.372384 272.32878 
L 255.458185 272.3545 
L 256.543986 272.37956 
L 257.629788 272.403978 
L 258.715589 272.427769 
L 259.80139 272.450949 
L 260.887191 272.473533 
L 261.972992 272.495536 
L 263.058793 272.516973 
L 264.144594 272.537858 
L 265.230396 272.558205 
L 266.316197 272.578027 
L 267.401998 272.597337 
L 268.487799 272.616149 
L 269.5736 272.634475 
L 270.659401 272.652326 
L 271.745203 272.669716 
L 272.831004 272.686656 
L 273.916805 272.703157 
L 275.002606 272.71923 
L 276.088407 272.734886 
L 277.174208 272.750135 
L 278.26001 272.764989 
L 279.345811 272.779456 
L 280.431612 272.793548 
L 281.517413 272.807272 
L 282.603214 272.82064 
L 283.689015 272.833659 
L 284.774816 272.846339 
L 285.860618 272.858688 
L 286.946419 272.870714 
L 288.03222 272.882427 
L 289.118021 272.893834 
L 290.203822 272.904942 
L 291.289623 272.91576 
L 292.375425 272.926295 
L 293.461226 272.936554 
L 294.547027 272.946545 
L 295.632828 272.956273 
L 296.718629 272.965746 
L 297.80443 272.974971 
L 298.890231 272.983953 
L 299.976033 272.9927 
L 301.061834 273.001217 
L 302.147635 273.009509 
L 303.233436 273.017584 
L 304.319237 273.025446 
L 305.405038 273.033101 
L 306.49084 273.040554 
L 307.576641 273.047811 
L 308.662442 273.054876 
L 309.748243 273.061755 
L 310.834044 273.068453 
L 311.919845 273.074973 
L 313.005646 273.081322 
L 314.091448 273.087502 
L 315.177249 273.093519 
L 316.26305 273.099377 
L 317.348851 273.105079 
L 318.434652 273.110631 
L 319.520453 273.116035 
L 320.606255 273.121297 
L 321.692056 273.126418 
L 322.777857 273.131404 
L 323.863658 273.136258 
L 324.949459 273.140982 
L 326.03526 273.145581 
L 327.121061 273.150058 
L 328.206863 273.154416 
L 329.292664 273.158658 
L 330.378465 273.162787 
L 331.464266 273.166806 
L 332.550067 273.170718 
L 333.635868 273.174526 
L 334.72167 273.178233 
L 335.807471 273.18184 
L 336.893272 273.185352 
L 337.979073 273.188769 
L 339.064874 273.192096 
L 340.150675 273.195333 
L 341.236477 273.198484 
L 342.322278 273.201551 
L 343.408079 273.204536 
L 344.49388 273.207441 
L 345.579681 273.210268 
L 346.665482 273.21302 
L 347.751283 273.215698 
L 348.837085 273.218304 
L 349.922886 273.220841 
L 351.008687 273.223309 
L 352.094488 273.225711 
L 353.180289 273.228049 
L 354.26609 273.230324 
L 355.351892 273.232538 
L 356.437693 273.234693 
L 357.523494 273.23679 
L 358.609295 273.23883 
L 359.695096 273.240816 
L 360.780897 273.242748 
L 361.866698 273.244628 
L 362.9525 273.246458 
L 364.038301 273.248238 
L 365.124102 273.24997 
L 366.209903 273.251656 
L 367.295704 273.253297 
L 368.381505 273.254893 
L 369.467307 273.256446 
L 370.553108 273.257957 
L 371.638909 273.259428 
L 372.72471 273.260859 
L 373.810511 273.262251 
L 374.896312 273.263606 
L 375.982113 273.264924 
L 377.067915 273.266206 
L 378.153716 273.267454 
L 379.239517 273.268668 
L 380.325318 273.269849 
L 381.411119 273.270999 
L 382.49692 273.272117 
L 383.582722 273.273205 
L 384.668523 273.274264 
L 384.668523 269.48576 
L 384.668523 269.48576 
L 383.582722 269.438008 
L 382.49692 269.389676 
L 381.411119 269.340755 
L 380.325318 269.29124 
L 379.239517 269.241124 
L 378.153716 269.190399 
L 377.067915 269.139058 
L 375.982113 269.087094 
L 374.896312 269.0345 
L 373.810511 268.981267 
L 372.72471 268.92739 
L 371.638909 268.872859 
L 370.553108 268.817668 
L 369.467307 268.761808 
L 368.381505 268.705273 
L 367.295704 268.648053 
L 366.209903 268.590141 
L 365.124102 268.531529 
L 364.038301 268.472208 
L 362.9525 268.41217 
L 361.866698 268.351407 
L 360.780897 268.289911 
L 359.695096 268.227672 
L 358.609295 268.164682 
L 357.523494 268.100932 
L 356.437693 268.036413 
L 355.351892 267.971117 
L 354.26609 267.905034 
L 353.180289 267.838154 
L 352.094488 267.77047 
L 351.008687 267.70197 
L 349.922886 267.632647 
L 348.837085 267.562489 
L 347.751283 267.491488 
L 346.665482 267.419633 
L 345.579681 267.346914 
L 344.49388 267.273322 
L 343.408079 267.198846 
L 342.322278 267.123475 
L 341.236477 267.0472 
L 340.150675 266.97001 
L 339.064874 266.891894 
L 337.979073 266.812841 
L 336.893272 266.732841 
L 335.807471 266.651882 
L 334.72167 266.569953 
L 333.635868 266.487043 
L 332.550067 266.40314 
L 331.464266 266.318233 
L 330.378465 266.232309 
L 329.292664 266.145358 
L 328.206863 266.057367 
L 327.121061 265.968325 
L 326.03526 265.878217 
L 324.949459 265.787034 
L 323.863658 265.694761 
L 322.777857 265.601386 
L 321.692056 265.506896 
L 320.606255 265.411278 
L 319.520453 265.31452 
L 318.434652 265.216607 
L 317.348851 265.117526 
L 316.26305 265.017264 
L 315.177249 264.915807 
L 314.091448 264.81314 
L 313.005646 264.709251 
L 311.919845 264.604124 
L 310.834044 264.497744 
L 309.748243 264.390099 
L 308.662442 264.281172 
L 307.576641 264.170948 
L 306.49084 264.059413 
L 305.405038 263.946551 
L 304.319237 263.832347 
L 303.233436 263.716785 
L 302.147635 263.599849 
L 301.061834 263.481523 
L 299.976033 263.361791 
L 298.890231 263.240637 
L 297.80443 263.118043 
L 296.718629 262.993993 
L 295.632828 262.868469 
L 294.547027 262.741456 
L 293.461226 262.612934 
L 292.375425 262.482887 
L 291.289623 262.351297 
L 290.203822 262.218145 
L 289.118021 262.083414 
L 288.03222 261.947084 
L 286.946419 261.809137 
L 285.860618 261.669554 
L 284.774816 261.528316 
L 283.689015 261.385404 
L 282.603214 261.240797 
L 281.517413 261.094476 
L 280.431612 260.946421 
L 279.345811 260.796611 
L 278.26001 260.645026 
L 277.174208 260.491645 
L 276.088407 260.336446 
L 275.002606 260.179409 
L 273.916805 260.020511 
L 272.831004 259.859731 
L 271.745203 259.697047 
L 270.659401 259.532436 
L 269.5736 259.365875 
L 268.487799 259.197341 
L 267.401998 259.026812 
L 266.316197 258.854263 
L 265.230396 258.679671 
L 264.144594 258.503012 
L 263.058793 258.324261 
L 261.972992 258.143393 
L 260.887191 257.960383 
L 259.80139 257.775206 
L 258.715589 257.587837 
L 257.629788 257.398249 
L 256.543986 257.206416 
L 255.458185 257.012311 
L 254.372384 256.815908 
L 253.286583 256.617179 
L 252.200782 256.416097 
L 251.114981 256.212633 
L 250.029179 256.006759 
L 248.943378 255.798447 
L 247.857577 255.587668 
L 246.771776 255.374391 
L 245.685975 255.158588 
L 244.600174 254.940229 
L 243.514373 254.719282 
L 242.428571 254.495717 
L 241.34277 254.269503 
L 240.256969 254.040608 
L 239.171168 253.809 
L 238.085367 253.574647 
L 236.999566 253.337515 
L 235.913764 253.097572 
L 234.827963 252.854784 
L 233.742162 252.609116 
L 232.656361 252.360535 
L 231.57056 252.109005 
L 230.484759 251.854491 
L 229.398958 251.596956 
L 228.313156 251.336366 
L 227.227355 251.072682 
L 226.141554 250.805869 
L 225.055753 250.535887 
L 223.969952 250.262699 
L 222.884151 249.986267 
L 221.798349 249.70655 
L 220.712548 249.42351 
L 219.626747 249.137107 
L 218.540946 248.847299 
L 217.455145 248.554046 
L 216.369344 248.257306 
L 215.283542 247.957036 
L 214.197741 247.653194 
L 213.11194 247.345737 
L 212.026139 247.03462 
L 210.940338 246.719799 
L 209.854537 246.40123 
L 208.768736 246.078866 
L 207.682934 245.752662 
L 206.597133 245.42257 
L 205.511332 245.088543 
L 204.425531 244.750533 
L 203.33973 244.408491 
L 202.253929 244.062368 
L 201.168127 243.712114 
L 200.082326 243.357678 
L 198.996525 242.999009 
L 197.910724 242.636055 
L 196.824923 242.268762 
L 195.739122 241.897078 
L 194.653321 241.520948 
L 193.567519 241.140317 
L 192.481718 240.755129 
L 191.395917 240.365328 
L 190.310116 239.970856 
L 189.224315 239.571655 
L 188.138514 239.167666 
L 187.052712 238.758828 
L 185.966911 238.345082 
L 184.88111 237.926364 
L 183.795309 237.502613 
L 182.709508 237.073765 
L 181.623707 236.639755 
L 180.537906 236.200517 
L 179.452104 235.755985 
L 178.366303 235.30609 
L 177.280502 234.850765 
L 176.194701 234.389937 
L 175.1089 233.923537 
L 174.023099 233.451492 
L 172.937297 232.973728 
L 171.851496 232.49017 
L 170.765695 232.000741 
L 169.679894 231.505364 
L 168.594093 231.003959 
L 167.508292 230.496446 
L 166.42249 229.982741 
L 165.336689 229.462762 
L 164.250888 228.936423 
L 163.165087 228.403635 
L 162.079286 227.864311 
L 160.993485 227.318358 
L 159.907684 226.765684 
L 158.821882 226.206194 
L 157.736081 225.63979 
L 156.65028 225.066374 
L 155.564479 224.485843 
L 154.478678 223.898093 
L 153.392877 223.303017 
L 152.307075 222.700508 
L 151.221274 222.090451 
L 150.135473 221.472734 
L 149.049672 220.847237 
L 147.963871 220.21384 
L 146.87807 219.57242 
L 145.792269 218.922848 
L 144.706467 218.264993 
L 143.620666 217.598722 
L 142.534865 216.923895 
L 141.449064 216.240371 
L 140.363263 215.548001 
L 139.277462 214.846636 
L 138.19166 214.13612 
L 137.105859 213.416293 
L 136.020058 212.686989 
L 134.934257 211.948038 
L 133.848456 211.199264 
L 132.762655 210.440486 
L 131.676854 209.671518 
L 130.591052 208.892165 
L 129.505251 208.102228 
L 128.41945 207.301501 
L 127.333649 206.489773 
L 126.247848 205.666822 
L 125.162047 204.832422 
L 124.076245 203.986339 
L 122.990444 203.128331 
L 121.904643 202.258146 
L 120.818842 201.375527 
L 119.733041 200.480207 
L 118.64724 199.57191 
L 117.561439 198.650351 
L 116.475637 197.715237 
L 115.389836 196.766265 
L 114.304035 195.803121 
L 113.218234 194.825484 
L 112.132433 193.833022 
L 111.046632 192.825392 
L 109.96083 191.802242 
L 108.875029 190.76321 
L 107.789228 189.707925 
L 106.703427 188.636004 
L 105.617626 187.547056 
L 104.531825 186.44068 
L 103.446023 185.316464 
L 102.360222 184.17399 
L 101.274421 183.01283 
L 100.18862 181.832546 
L 99.102819 180.632697 
L 98.017018 179.412831 
L 96.931217 178.172494 
L 95.845415 176.911225 
L 94.759614 175.62856 
L 93.673813 174.324034 
L 92.588012 172.997179 
L 91.502211 171.647532 
L 90.41641 170.274628 
L 89.330608 168.878012 
L 88.244807 167.457233 
L 87.159006 166.011852 
L 86.073205 164.541442 
L 84.987404 163.045592 
L 83.901603 161.523911 
L 82.815802 159.976029 
L 81.73 158.401603 
L 80.644199 156.800323 
L 79.558398 155.171911 
L 78.472597 153.516131 
L 77.386796 151.832789 
L 76.300995 150.121742 
L 75.215193 148.382901 
L 74.129392 146.616237 
L 73.043591 144.821787 
L 71.95779 142.999659 
L 70.871989 141.150037 
L 69.786188 139.273188 
L 68.700387 137.369467 
L 67.614585 135.439322 
L 66.528784 133.483301 
L 65.442983 131.502054 
L 64.357182 129.49634 
L 63.271381 127.467031 
L 62.18558 125.415113 
L 61.099778 123.341694 
L 60.013977 121.248 
z
" clip-path="url(#p2bed10682b)" style="fill: #2ca02c"/>
   </g>
   <g id="FillBetweenPolyCollection_4">
    <path d="M 60.013977 70.56 
L 60.013977 121.248 
L 61.099778 123.341694 
L 62.18558 125.415113 
L 63.271381 127.467031 
L 64.357182 129.49634 
L 65.442983 131.502054 
L 66.528784 133.483301 
L 67.614585 135.439322 
L 68.700387 137.369467 
L 69.786188 139.273188 
L 70.871989 141.150037 
L 71.95779 142.999659 
L 73.043591 144.821787 
L 74.129392 146.616237 
L 75.215193 148.382901 
L 76.300995 150.121742 
L 77.386796 151.832789 
L 78.472597 153.516131 
L 79.558398 155.171911 
L 80.644199 156.800323 
L 81.73 158.401603 
L 82.815802 159.976029 
L 83.901603 161.523911 
L 84.987404 163.045592 
L 86.073205 164.541442 
L 87.159006 166.011852 
L 88.244807 167.457233 
L 89.330608 168.878012 
L 90.41641 170.274628 
L 91.502211 171.647532 
L 92.588012 172.997179 
L 93.673813 174.324034 
L 94.759614 175.62856 
L 95.845415 176.911225 
L 96.931217 178.172494 
L 98.017018 179.412831 
L 99.102819 180.632697 
L 100.18862 181.832546 
L 101.274421 183.01283 
L 102.360222 184.17399 
L 103.446023 185.316464 
L 104.531825 186.44068 
L 105.617626 187.547056 
L 106.703427 188.636004 
L 107.789228 189.707925 
L 108.875029 190.76321 
L 109.96083 191.802242 
L 111.046632 192.825392 
L 112.132433 193.833022 
L 113.218234 194.825484 
L 114.304035 195.803121 
L 115.389836 196.766265 
L 116.475637 197.715237 
L 117.561439 198.650351 
L 118.64724 199.57191 
L 119.733041 200.480207 
L 120.818842 201.375527 
L 121.904643 202.258146 
L 122.990444 203.128331 
L 124.076245 203.986339 
L 125.162047 204.832422 
L 126.247848 205.666822 
L 127.333649 206.489773 
L 128.41945 207.301501 
L 129.505251 208.102228 
L 130.591052 208.892165 
L 131.676854 209.671518 
L 132.762655 210.440486 
L 133.848456 211.199264 
L 134.934257 211.948038 
L 136.020058 212.686989 
L 137.105859 213.416293 
L 138.19166 214.13612 
L 139.277462 214.846636 
L 140.363263 215.548001 
L 141.449064 216.240371 
L 142.534865 216.923895 
L 143.620666 217.598722 
L 144.706467 218.264993 
L 145.792269 218.922848 
L 146.87807 219.57242 
L 147.963871 220.21384 
L 149.049672 220.847237 
L 150.135473 221.472734 
L 151.221274 222.090451 
L 152.307075 222.700508 
L 153.392877 223.303017 
L 154.478678 223.898093 
L 155.564479 224.485843 
L 156.65028 225.066374 
L 157.736081 225.63979 
L 158.821882 226.206194 
L 159.907684 226.765684 
L 160.993485 227.318358 
L 162.079286 227.864311 
L 163.165087 228.403635 
L 164.250888 228.936423 
L 165.336689 229.462762 
L 166.42249 229.982741 
L 167.508292 230.496446 
L 168.594093 231.003959 
L 169.679894 231.505364 
L 170.765695 232.000741 
L 171.851496 232.49017 
L 172.937297 232.973728 
L 174.023099 233.451492 
L 175.1089 233.923537 
L 176.194701 234.389937 
L 177.280502 234.850765 
L 178.366303 235.30609 
L 179.452104 235.755985 
L 180.537906 236.200517 
L 181.623707 236.639755 
L 182.709508 237.073765 
L 183.795309 237.502613 
L 184.88111 237.926364 
L 185.966911 238.345082 
L 187.052712 238.758828 
L 188.138514 239.167666 
L 189.224315 239.571655 
L 190.310116 239.970856 
L 191.395917 240.365328 
L 192.481718 240.755129 
L 193.567519 241.140317 
L 194.653321 241.520948 
L 195.739122 241.897078 
L 196.824923 242.268762 
L 197.910724 242.636055 
L 198.996525 242.999009 
L 200.082326 243.357678 
L 201.168127 243.712114 
L 202.253929 244.062368 
L 203.33973 244.408491 
L 204.425531 244.750533 
L 205.511332 245.088543 
L 206.597133 245.42257 
L 207.682934 245.752662 
L 208.768736 246.078866 
L 209.854537 246.40123 
L 210.940338 246.719799 
L 212.026139 247.03462 
L 213.11194 247.345737 
L 214.197741 247.653194 
L 215.283542 247.957036 
L 216.369344 248.257306 
L 217.455145 248.554046 
L 218.540946 248.847299 
L 219.626747 249.137107 
L 220.712548 249.42351 
L 221.798349 249.70655 
L 222.884151 249.986267 
L 223.969952 250.262699 
L 225.055753 250.535887 
L 226.141554 250.805869 
L 227.227355 251.072682 
L 228.313156 251.336366 
L 229.398958 251.596956 
L 230.484759 251.854491 
L 231.57056 252.109005 
L 232.656361 252.360535 
L 233.742162 252.609116 
L 234.827963 252.854784 
L 235.913764 253.097572 
L 236.999566 253.337515 
L 238.085367 253.574647 
L 239.171168 253.809 
L 240.256969 254.040608 
L 241.34277 254.269503 
L 242.428571 254.495717 
L 243.514373 254.719282 
L 244.600174 254.940229 
L 245.685975 255.158588 
L 246.771776 255.374391 
L 247.857577 255.587668 
L 248.943378 255.798447 
L 250.029179 256.006759 
L 251.114981 256.212633 
L 252.200782 256.416097 
L 253.286583 256.617179 
L 254.372384 256.815908 
L 255.458185 257.012311 
L 256.543986 257.206416 
L 257.629788 257.398249 
L 258.715589 257.587837 
L 259.80139 257.775206 
L 260.887191 257.960383 
L 261.972992 258.143393 
L 263.058793 258.324261 
L 264.144594 258.503012 
L 265.230396 258.679671 
L 266.316197 258.854263 
L 267.401998 259.026812 
L 268.487799 259.197341 
L 269.5736 259.365875 
L 270.659401 259.532436 
L 271.745203 259.697047 
L 272.831004 259.859731 
L 273.916805 260.020511 
L 275.002606 260.179409 
L 276.088407 260.336446 
L 277.174208 260.491645 
L 278.26001 260.645026 
L 279.345811 260.796611 
L 280.431612 260.946421 
L 281.517413 261.094476 
L 282.603214 261.240797 
L 283.689015 261.385404 
L 284.774816 261.528316 
L 285.860618 261.669554 
L 286.946419 261.809137 
L 288.03222 261.947084 
L 289.118021 262.083414 
L 290.203822 262.218145 
L 291.289623 262.351297 
L 292.375425 262.482887 
L 293.461226 262.612934 
L 294.547027 262.741456 
L 295.632828 262.868469 
L 296.718629 262.993993 
L 297.80443 263.118043 
L 298.890231 263.240637 
L 299.976033 263.361791 
L 301.061834 263.481523 
L 302.147635 263.599849 
L 303.233436 263.716785 
L 304.319237 263.832347 
L 305.405038 263.946551 
L 306.49084 264.059413 
L 307.576641 264.170948 
L 308.662442 264.281172 
L 309.748243 264.390099 
L 310.834044 264.497744 
L 311.919845 264.604124 
L 313.005646 264.709251 
L 314.091448 264.81314 
L 315.177249 264.915807 
L 316.26305 265.017264 
L 317.348851 265.117526 
L 318.434652 265.216607 
L 319.520453 265.31452 
L 320.606255 265.411278 
L 321.692056 265.506896 
L 322.777857 265.601386 
L 323.863658 265.694761 
L 324.949459 265.787034 
L 326.03526 265.878217 
L 327.121061 265.968325 
L 328.206863 266.057367 
L 329.292664 266.145358 
L 330.378465 266.232309 
L 331.464266 266.318233 
L 332.550067 266.40314 
L 333.635868 266.487043 
L 334.72167 266.569953 
L 335.807471 266.651882 
L 336.893272 266.732841 
L 337.979073 266.812841 
L 339.064874 266.891894 
L 340.150675 266.97001 
L 341.236477 267.0472 
L 342.322278 267.123475 
L 343.408079 267.198846 
L 344.49388 267.273322 
L 345.579681 267.346914 
L 346.665482 267.419633 
L 347.751283 267.491488 
L 348.837085 267.562489 
L 349.922886 267.632647 
L 351.008687 267.70197 
L 352.094488 267.77047 
L 353.180289 267.838154 
L 354.26609 267.905034 
L 355.351892 267.971117 
L 356.437693 268.036413 
L 357.523494 268.100932 
L 358.609295 268.164682 
L 359.695096 268.227672 
L 360.780897 268.289911 
L 361.866698 268.351407 
L 362.9525 268.41217 
L 364.038301 268.472208 
L 365.124102 268.531529 
L 366.209903 268.590141 
L 367.295704 268.648053 
L 368.381505 268.705273 
L 369.467307 268.761808 
L 370.553108 268.817668 
L 371.638909 268.872859 
L 372.72471 268.92739 
L 373.810511 268.981267 
L 374.896312 269.0345 
L 375.982113 269.087094 
L 377.067915 269.139058 
L 378.153716 269.190399 
L 379.239517 269.241124 
L 380.325318 269.29124 
L 381.411119 269.340755 
L 382.49692 269.389676 
L 383.582722 269.438008 
L 384.668523 269.48576 
L 384.668523 225.189944 
L 384.668523 225.189944 
L 383.582722 224.963505 
L 382.49692 224.736041 
L 381.411119 224.507549 
L 380.325318 224.278024 
L 379.239517 224.047461 
L 378.153716 223.815856 
L 377.067915 223.583204 
L 375.982113 223.349501 
L 374.896312 223.114741 
L 373.810511 222.87892 
L 372.72471 222.642034 
L 371.638909 222.404077 
L 370.553108 222.165045 
L 369.467307 221.924933 
L 368.381505 221.683737 
L 367.295704 221.441451 
L 366.209903 221.19807 
L 365.124102 220.95359 
L 364.038301 220.708006 
L 362.9525 220.461313 
L 361.866698 220.213505 
L 360.780897 219.964579 
L 359.695096 219.714528 
L 358.609295 219.463348 
L 357.523494 219.211034 
L 356.437693 218.95758 
L 355.351892 218.702982 
L 354.26609 218.447234 
L 353.180289 218.190332 
L 352.094488 217.93227 
L 351.008687 217.673042 
L 349.922886 217.412644 
L 348.837085 217.151071 
L 347.751283 216.888316 
L 346.665482 216.624375 
L 345.579681 216.359243 
L 344.49388 216.092913 
L 343.408079 215.825381 
L 342.322278 215.55664 
L 341.236477 215.286687 
L 340.150675 215.015514 
L 339.064874 214.743117 
L 337.979073 214.46949 
L 336.893272 214.194627 
L 335.807471 213.918523 
L 334.72167 213.641171 
L 333.635868 213.362568 
L 332.550067 213.082705 
L 331.464266 212.801579 
L 330.378465 212.519183 
L 329.292664 212.235511 
L 328.206863 211.950557 
L 327.121061 211.664316 
L 326.03526 211.376781 
L 324.949459 211.087947 
L 323.863658 210.797807 
L 322.777857 210.506356 
L 321.692056 210.213588 
L 320.606255 209.919495 
L 319.520453 209.624073 
L 318.434652 209.327316 
L 317.348851 209.029216 
L 316.26305 208.729767 
L 315.177249 208.428964 
L 314.091448 208.1268 
L 313.005646 207.823268 
L 311.919845 207.518363 
L 310.834044 207.212077 
L 309.748243 206.904405 
L 308.662442 206.595339 
L 307.576641 206.284873 
L 306.49084 205.973001 
L 305.405038 205.659716 
L 304.319237 205.345011 
L 303.233436 205.02888 
L 302.147635 204.711315 
L 301.061834 204.39231 
L 299.976033 204.071857 
L 298.890231 203.749951 
L 297.80443 203.426584 
L 296.718629 203.101749 
L 295.632828 202.775439 
L 294.547027 202.447647 
L 293.461226 202.118365 
L 292.375425 201.787587 
L 291.289623 201.455305 
L 290.203822 201.121512 
L 289.118021 200.786201 
L 288.03222 200.449363 
L 286.946419 200.110993 
L 285.860618 199.771081 
L 284.774816 199.429621 
L 283.689015 199.086606 
L 282.603214 198.742026 
L 281.517413 198.395875 
L 280.431612 198.048145 
L 279.345811 197.698827 
L 278.26001 197.347915 
L 277.174208 196.995399 
L 276.088407 196.641273 
L 275.002606 196.285528 
L 273.916805 195.928155 
L 272.831004 195.569147 
L 271.745203 195.208495 
L 270.659401 194.846191 
L 269.5736 194.482227 
L 268.487799 194.116594 
L 267.401998 193.749283 
L 266.316197 193.380286 
L 265.230396 193.009595 
L 264.144594 192.6372 
L 263.058793 192.263093 
L 261.972992 191.887265 
L 260.887191 191.509707 
L 259.80139 191.13041 
L 258.715589 190.749365 
L 257.629788 190.366562 
L 256.543986 189.981993 
L 255.458185 189.595648 
L 254.372384 189.207518 
L 253.286583 188.817593 
L 252.200782 188.425864 
L 251.114981 188.032321 
L 250.029179 187.636955 
L 248.943378 187.239755 
L 247.857577 186.840712 
L 246.771776 186.439816 
L 245.685975 186.037057 
L 244.600174 185.632425 
L 243.514373 185.225909 
L 242.428571 184.817499 
L 241.34277 184.407185 
L 240.256969 183.994957 
L 239.171168 183.580803 
L 238.085367 183.164714 
L 236.999566 182.746678 
L 235.913764 182.326684 
L 234.827963 181.904723 
L 233.742162 181.480782 
L 232.656361 181.05485 
L 231.57056 180.626917 
L 230.484759 180.196971 
L 229.398958 179.765 
L 228.313156 179.330994 
L 227.227355 178.894939 
L 226.141554 178.456826 
L 225.055753 178.016641 
L 223.969952 177.574373 
L 222.884151 177.13001 
L 221.798349 176.683539 
L 220.712548 176.234949 
L 219.626747 175.784227 
L 218.540946 175.33136 
L 217.455145 174.876335 
L 216.369344 174.419141 
L 215.283542 173.959764 
L 214.197741 173.498191 
L 213.11194 173.034409 
L 212.026139 172.568404 
L 210.940338 172.100164 
L 209.854537 171.629675 
L 208.768736 171.156922 
L 207.682934 170.681893 
L 206.597133 170.204573 
L 205.511332 169.724948 
L 204.425531 169.243005 
L 203.33973 168.758727 
L 202.253929 168.272102 
L 201.168127 167.783114 
L 200.082326 167.291749 
L 198.996525 166.797991 
L 197.910724 166.301825 
L 196.824923 165.803235 
L 195.739122 165.302207 
L 194.653321 164.798724 
L 193.567519 164.292771 
L 192.481718 163.784331 
L 191.395917 163.273387 
L 190.310116 162.759925 
L 189.224315 162.243925 
L 188.138514 161.725372 
L 187.052712 161.204248 
L 185.966911 160.680536 
L 184.88111 160.154218 
L 183.795309 159.625276 
L 182.709508 159.093691 
L 181.623707 158.559445 
L 180.537906 158.02252 
L 179.452104 157.482895 
L 178.366303 156.940552 
L 177.280502 156.39547 
L 176.194701 155.84763 
L 175.1089 155.29701 
L 174.023099 154.743591 
L 172.937297 154.187349 
L 171.851496 153.628264 
L 170.765695 153.066314 
L 169.679894 152.501476 
L 168.594093 151.933726 
L 167.508292 151.36304 
L 166.42249 150.789396 
L 165.336689 150.212767 
L 164.250888 149.633129 
L 163.165087 149.050455 
L 162.079286 148.464719 
L 160.993485 147.875894 
L 159.907684 147.28395 
L 158.821882 146.688861 
L 157.736081 146.090595 
L 156.65028 145.489123 
L 155.564479 144.884413 
L 154.478678 144.276433 
L 153.392877 143.66515 
L 152.307075 143.05053 
L 151.221274 142.432536 
L 150.135473 141.811133 
L 149.049672 141.186283 
L 147.963871 140.557948 
L 146.87807 139.926086 
L 145.792269 139.290657 
L 144.706467 138.651617 
L 143.620666 138.008922 
L 142.534865 137.362526 
L 141.449064 136.712381 
L 140.363263 136.058437 
L 139.277462 135.400644 
L 138.19166 134.738947 
L 137.105859 134.073293 
L 136.020058 133.403623 
L 134.934257 132.729877 
L 133.848456 132.051995 
L 132.762655 131.369912 
L 131.676854 130.683562 
L 130.591052 129.992875 
L 129.505251 129.297781 
L 128.41945 128.598203 
L 127.333649 127.894065 
L 126.247848 127.185287 
L 125.162047 126.471785 
L 124.076245 125.753473 
L 122.990444 125.03026 
L 121.904643 124.302055 
L 120.818842 123.568759 
L 119.733041 122.830274 
L 118.64724 122.086496 
L 117.561439 121.337316 
L 116.475637 120.582625 
L 115.389836 119.822307 
L 114.304035 119.056244 
L 113.218234 118.284313 
L 112.132433 117.506388 
L 111.046632 116.722338 
L 109.96083 115.932029 
L 108.875029 115.135325 
L 107.789228 114.332082 
L 106.703427 113.522156 
L 105.617626 112.705399 
L 104.531825 111.881658 
L 103.446023 111.050779 
L 102.360222 110.212603 
L 101.274421 109.366971 
L 100.18862 108.513719 
L 99.102819 107.652684 
L 98.017018 106.783699 
L 96.931217 105.906598 
L 95.845415 105.021215 
L 94.759614 104.127383 
L 93.673813 103.224937 
L 92.588012 102.313714 
L 91.502211 101.393555 
L 90.41641 100.464303 
L 89.330608 99.525807 
L 88.244807 98.577923 
L 87.159006 97.620513 
L 86.073205 96.65345 
L 84.987404 95.676616 
L 83.901603 94.689906 
L 82.815802 93.693229 
L 81.73 92.686509 
L 80.644199 91.669688 
L 79.558398 90.642729 
L 78.472597 89.605616 
L 77.386796 88.558357 
L 76.300995 87.500988 
L 75.215193 86.433571 
L 74.129392 85.356203 
L 73.043591 84.269013 
L 71.95779 83.172165 
L 70.871989 82.065865 
L 69.786188 80.950357 
L 68.700387 79.825931 
L 67.614585 78.69292 
L 66.528784 77.551706 
L 65.442983 76.402722 
L 64.357182 75.24645 
L 63.271381 74.083425 
L 62.18558 72.914237 
L 61.099778 71.739529 
L 60.013977 70.56 
z
" clip-path="url(#p2bed10682b)" style="fill: #d62728"/>
   </g>
   <g id="FillBetweenPolyCollection_5">
    <path d="M 60.013977 19.872 
L 60.013977 70.56 
L 61.099778 71.739529 
L 62.18558 72.914237 
L 63.271381 74.083425 
L 64.357182 75.24645 
L 65.442983 76.402722 
L 66.528784 77.551706 
L 67.614585 78.69292 
L 68.700387 79.825931 
L 69.786188 80.950357 
L 70.871989 82.065865 
L 71.95779 83.172165 
L 73.043591 84.269013 
L 74.129392 85.356203 
L 75.215193 86.433571 
L 76.300995 87.500988 
L 77.386796 88.558357 
L 78.472597 89.605616 
L 79.558398 90.642729 
L 80.644199 91.669688 
L 81.73 92.686509 
L 82.815802 93.693229 
L 83.901603 94.689906 
L 84.987404 95.676616 
L 86.073205 96.65345 
L 87.159006 97.620513 
L 88.244807 98.577923 
L 89.330608 99.525807 
L 90.41641 100.464303 
L 91.502211 101.393555 
L 92.588012 102.313714 
L 93.673813 103.224937 
L 94.759614 104.127383 
L 95.845415 105.021215 
L 96.931217 105.906598 
L 98.017018 106.783699 
L 99.102819 107.652684 
L 100.18862 108.513719 
L 101.274421 109.366971 
L 102.360222 110.212603 
L 103.446023 111.050779 
L 104.531825 111.881658 
L 105.617626 112.705399 
L 106.703427 113.522156 
L 107.789228 114.332082 
L 108.875029 115.135325 
L 109.96083 115.932029 
L 111.046632 116.722338 
L 112.132433 117.506388 
L 113.218234 118.284313 
L 114.304035 119.056244 
L 115.389836 119.822307 
L 116.475637 120.582625 
L 117.561439 121.337316 
L 118.64724 122.086496 
L 119.733041 122.830274 
L 120.818842 123.568759 
L 121.904643 124.302055 
L 122.990444 125.03026 
L 124.076245 125.753473 
L 125.162047 126.471785 
L 126.247848 127.185287 
L 127.333649 127.894065 
L 128.41945 128.598203 
L 129.505251 129.297781 
L 130.591052 129.992875 
L 131.676854 130.683562 
L 132.762655 131.369912 
L 133.848456 132.051995 
L 134.934257 132.729877 
L 136.020058 133.403623 
L 137.105859 134.073293 
L 138.19166 134.738947 
L 139.277462 135.400644 
L 140.363263 136.058437 
L 141.449064 136.712381 
L 142.534865 137.362526 
L 143.620666 138.008922 
L 144.706467 138.651617 
L 145.792269 139.290657 
L 146.87807 139.926086 
L 147.963871 140.557948 
L 149.049672 141.186283 
L 150.135473 141.811133 
L 151.221274 142.432536 
L 152.307075 143.05053 
L 153.392877 143.66515 
L 154.478678 144.276433 
L 155.564479 144.884413 
L 156.65028 145.489123 
L 157.736081 146.090595 
L 158.821882 146.688861 
L 159.907684 147.28395 
L 160.993485 147.875894 
L 162.079286 148.464719 
L 163.165087 149.050455 
L 164.250888 149.633129 
L 165.336689 150.212767 
L 166.42249 150.789396 
L 167.508292 151.36304 
L 168.594093 151.933726 
L 169.679894 152.501476 
L 170.765695 153.066314 
L 171.851496 153.628264 
L 172.937297 154.187349 
L 174.023099 154.743591 
L 175.1089 155.29701 
L 176.194701 155.84763 
L 177.280502 156.39547 
L 178.366303 156.940552 
L 179.452104 157.482895 
L 180.537906 158.02252 
L 181.623707 158.559445 
L 182.709508 159.093691 
L 183.795309 159.625276 
L 184.88111 160.154218 
L 185.966911 160.680536 
L 187.052712 161.204248 
L 188.138514 161.725372 
L 189.224315 162.243925 
L 190.310116 162.759925 
L 191.395917 163.273387 
L 192.481718 163.784331 
L 193.567519 164.292771 
L 194.653321 164.798724 
L 195.739122 165.302207 
L 196.824923 165.803235 
L 197.910724 166.301825 
L 198.996525 166.797991 
L 200.082326 167.291749 
L 201.168127 167.783114 
L 202.253929 168.272102 
L 203.33973 168.758727 
L 204.425531 169.243005 
L 205.511332 169.724948 
L 206.597133 170.204573 
L 207.682934 170.681893 
L 208.768736 171.156922 
L 209.854537 171.629675 
L 210.940338 172.100164 
L 212.026139 172.568404 
L 213.11194 173.034409 
L 214.197741 173.498191 
L 215.283542 173.959764 
L 216.369344 174.419141 
L 217.455145 174.876335 
L 218.540946 175.33136 
L 219.626747 175.784227 
L 220.712548 176.234949 
L 221.798349 176.683539 
L 222.884151 177.13001 
L 223.969952 177.574373 
L 225.055753 178.016641 
L 226.141554 178.456826 
L 227.227355 178.894939 
L 228.313156 179.330994 
L 229.398958 179.765 
L 230.484759 180.196971 
L 231.57056 180.626917 
L 232.656361 181.05485 
L 233.742162 181.480782 
L 234.827963 181.904723 
L 235.913764 182.326684 
L 236.999566 182.746678 
L 238.085367 183.164714 
L 239.171168 183.580803 
L 240.256969 183.994957 
L 241.34277 184.407185 
L 242.428571 184.817499 
L 243.514373 185.225909 
L 244.600174 185.632425 
L 245.685975 186.037057 
L 246.771776 186.439816 
L 247.857577 186.840712 
L 248.943378 187.239755 
L 250.029179 187.636955 
L 251.114981 188.032321 
L 252.200782 188.425864 
L 253.286583 188.817593 
L 254.372384 189.207518 
L 255.458185 189.595648 
L 256.543986 189.981993 
L 257.629788 190.366562 
L 258.715589 190.749365 
L 259.80139 191.13041 
L 260.887191 191.509707 
L 261.972992 191.887265 
L 263.058793 192.263093 
L 264.144594 192.6372 
L 265.230396 193.009595 
L 266.316197 193.380286 
L 267.401998 193.749283 
L 268.487799 194.116594 
L 269.5736 194.482227 
L 270.659401 194.846191 
L 271.745203 195.208495 
L 272.831004 195.569147 
L 273.916805 195.928155 
L 275.002606 196.285528 
L 276.088407 196.641273 
L 277.174208 196.995399 
L 278.26001 197.347915 
L 279.345811 197.698827 
L 280.431612 198.048145 
L 281.517413 198.395875 
L 282.603214 198.742026 
L 283.689015 199.086606 
L 284.774816 199.429621 
L 285.860618 199.771081 
L 286.946419 200.110993 
L 288.03222 200.449363 
L 289.118021 200.786201 
L 290.203822 201.121512 
L 291.289623 201.455305 
L 292.375425 201.787587 
L 293.461226 202.118365 
L 294.547027 202.447647 
L 295.632828 202.775439 
L 296.718629 203.101749 
L 297.80443 203.426584 
L 298.890231 203.749951 
L 299.976033 204.071857 
L 301.061834 204.39231 
L 302.147635 204.711315 
L 303.233436 205.02888 
L 304.319237 205.345011 
L 305.405038 205.659716 
L 306.49084 205.973001 
L 307.576641 206.284873 
L 308.662442 206.595339 
L 309.748243 206.904405 
L 310.834044 207.212077 
L 311.919845 207.518363 
L 313.005646 207.823268 
L 314.091448 208.1268 
L 315.177249 208.428964 
L 316.26305 208.729767 
L 317.348851 209.029216 
L 318.434652 209.327316 
L 319.520453 209.624073 
L 320.606255 209.919495 
L 321.692056 210.213588 
L 322.777857 210.506356 
L 323.863658 210.797807 
L 324.949459 211.087947 
L 326.03526 211.376781 
L 327.121061 211.664316 
L 328.206863 211.950557 
L 329.292664 212.235511 
L 330.378465 212.519183 
L 331.464266 212.801579 
L 332.550067 213.082705 
L 333.635868 213.362568 
L 334.72167 213.641171 
L 335.807471 213.918523 
L 336.893272 214.194627 
L 337.979073 214.46949 
L 339.064874 214.743117 
L 340.150675 215.015514 
L 341.236477 215.286687 
L 342.322278 215.55664 
L 343.408079 215.825381 
L 344.49388 216.092913 
L 345.579681 216.359243 
L 346.665482 216.624375 
L 347.751283 216.888316 
L 348.837085 217.151071 
L 349.922886 217.412644 
L 351.008687 217.673042 
L 352.094488 217.93227 
L 353.180289 218.190332 
L 354.26609 218.447234 
L 355.351892 218.702982 
L 356.437693 218.95758 
L 357.523494 219.211034 
L 358.609295 219.463348 
L 359.695096 219.714528 
L 360.780897 219.964579 
L 361.866698 220.213505 
L 362.9525 220.461313 
L 364.038301 220.708006 
L 365.124102 220.95359 
L 366.209903 221.19807 
L 367.295704 221.441451 
L 368.381505 221.683737 
L 369.467307 221.924933 
L 370.553108 222.165045 
L 371.638909 222.404077 
L 372.72471 222.642034 
L 373.810511 222.87892 
L 374.896312 223.114741 
L 375.982113 223.349501 
L 377.067915 223.583204 
L 378.153716 223.815856 
L 379.239517 224.047461 
L 380.325318 224.278024 
L 381.411119 224.507549 
L 382.49692 224.736041 
L 383.582722 224.963505 
L 384.668523 225.189944 
L 384.668523 19.872 
L 384.668523 19.872 
L 383.582722 19.872 
L 382.49692 19.872 
L 381.411119 19.872 
L 380.325318 19.872 
L 379.239517 19.872 
L 378.153716 19.872 
L 377.067915 19.872 
L 375.982113 19.872 
L 374.896312 19.872 
L 373.810511 19.872 
L 372.72471 19.872 
L 371.638909 19.872 
L 370.553108 19.872 
L 369.467307 19.872 
L 368.381505 19.872 
L 367.295704 19.872 
L 366.209903 19.872 
L 365.124102 19.872 
L 364.038301 19.872 
L 362.9525 19.872 
L 361.866698 19.872 
L 360.780897 19.872 
L 359.695096 19.872 
L 358.609295 19.872 
L 357.523494 19.872 
L 356.437693 19.872 
L 355.351892 19.872 
L 354.26609 19.872 
L 353.180289 19.872 
L 352.094488 19.872 
L 351.008687 19.872 
L 349.922886 19.872 
L 348.837085 19.872 
L 347.751283 19.872 
L 346.665482 19.872 
L 345.579681 19.872 
L 344.49388 19.872 
L 343.408079 19.872 
L 342.322278 19.872 
L 341.236477 19.872 
L 340.150675 19.872 
L 339.064874 19.872 
L 337.979073 19.872 
L 336.893272 19.872 
L 335.807471 19.872 
L 334.72167 19.872 
L 333.635868 19.872 
L 332.550067 19.872 
L 331.464266 19.872 
L 330.378465 19.872 
L 329.292664 19.872 
L 328.206863 19.872 
L 327.121061 19.872 
L 326.03526 19.872 
L 324.949459 19.872 
L 323.863658 19.872 
L 322.777857 19.872 
L 321.692056 19.872 
L 320.606255 19.872 
L 319.520453 19.872 
L 318.434652 19.872 
L 317.348851 19.872 
L 316.26305 19.872 
L 315.177249 19.872 
L 314.091448 19.872 
L 313.005646 19.872 
L 311.919845 19.872 
L 310.834044 19.872 
L 309.748243 19.872 
L 308.662442 19.872 
L 307.576641 19.872 
L 306.49084 19.872 
L 305.405038 19.872 
L 304.319237 19.872 
L 303.233436 19.872 
L 302.147635 19.872 
L 301.061834 19.872 
L 299.976033 19.872 
L 298.890231 19.872 
L 297.80443 19.872 
L 296.718629 19.872 
L 295.632828 19.872 
L 294.547027 19.872 
L 293.461226 19.872 
L 292.375425 19.872 
L 291.289623 19.872 
L 290.203822 19.872 
L 289.118021 19.872 
L 288.03222 19.872 
L 286.946419 19.872 
L 285.860618 19.872 
L 284.774816 19.872 
L 283.689015 19.872 
L 282.603214 19.872 
L 281.517413 19.872 
L 280.431612 19.872 
L 279.345811 19.872 
L 278.26001 19.872 
L 277.174208 19.872 
L 276.088407 19.872 
L 275.002606 19.872 
L 273.916805 19.872 
L 272.831004 19.872 
L 271.745203 19.872 
L 270.659401 19.872 
L 269.5736 19.872 
L 268.487799 19.872 
L 267.401998 19.872 
L 266.316197 19.872 
L 265.230396 19.872 
L 264.144594 19.872 
L 263.058793 19.872 
L 261.972992 19.872 
L 260.887191 19.872 
L 259.80139 19.872 
L 258.715589 19.872 
L 257.629788 19.872 
L 256.543986 19.872 
L 255.458185 19.872 
L 254.372384 19.872 
L 253.286583 19.872 
L 252.200782 19.872 
L 251.114981 19.872 
L 250.029179 19.872 
L 248.943378 19.872 
L 247.857577 19.872 
L 246.771776 19.872 
L 245.685975 19.872 
L 244.600174 19.872 
L 243.514373 19.872 
L 242.428571 19.872 
L 241.34277 19.872 
L 240.256969 19.872 
L 239.171168 19.872 
L 238.085367 19.872 
L 236.999566 19.872 
L 235.913764 19.872 
L 234.827963 19.872 
L 233.742162 19.872 
L 232.656361 19.872 
L 231.57056 19.872 
L 230.484759 19.872 
L 229.398958 19.872 
L 228.313156 19.872 
L 227.227355 19.872 
L 226.141554 19.872 
L 225.055753 19.872 
L 223.969952 19.872 
L 222.884151 19.872 
L 221.798349 19.872 
L 220.712548 19.872 
L 219.626747 19.872 
L 218.540946 19.872 
L 217.455145 19.872 
L 216.369344 19.872 
L 215.283542 19.872 
L 214.197741 19.872 
L 213.11194 19.872 
L 212.026139 19.872 
L 210.940338 19.872 
L 209.854537 19.872 
L 208.768736 19.872 
L 207.682934 19.872 
L 206.597133 19.872 
L 205.511332 19.872 
L 204.425531 19.872 
L 203.33973 19.872 
L 202.253929 19.872 
L 201.168127 19.872 
L 200.082326 19.872 
L 198.996525 19.872 
L 197.910724 19.872 
L 196.824923 19.872 
L 195.739122 19.872 
L 194.653321 19.872 
L 193.567519 19.872 
L 192.481718 19.872 
L 191.395917 19.872 
L 190.310116 19.872 
L 189.224315 19.872 
L 188.138514 19.872 
L 187.052712 19.872 
L 185.966911 19.872 
L 184.88111 19.872 
L 183.795309 19.872 
L 182.709508 19.872 
L 181.623707 19.872 
L 180.537906 19.872 
L 179.452104 19.872 
L 178.366303 19.872 
L 177.280502 19.872 
L 176.194701 19.872 
L 175.1089 19.872 
L 174.023099 19.872 
L 172.937297 19.872 
L 171.851496 19.872 
L 170.765695 19.872 
L 169.679894 19.872 
L 168.594093 19.872 
L 167.508292 19.872 
L 166.42249 19.872 
L 165.336689 19.872 
L 164.250888 19.872 
L 163.165087 19.872 
L 162.079286 19.872 
L 160.993485 19.872 
L 159.907684 19.872 
L 158.821882 19.872 
L 157.736081 19.872 
L 156.65028 19.872 
L 155.564479 19.872 
L 154.478678 19.872 
L 153.392877 19.872 
L 152.307075 19.872 
L 151.221274 19.872 
L 150.135473 19.872 
L 149.049672 19.872 
L 147.963871 19.872 
L 146.87807 19.872 
L 145.792269 19.872 
L 144.706467 19.872 
L 143.620666 19.872 
L 142.534865 19.872 
L 141.449064 19.872 
L 140.363263 19.872 
L 139.277462 19.872 
L 138.19166 19.872 
L 137.105859 19.872 
L 136.020058 19.872 
L 134.934257 19.872 
L 133.848456 19.872 
L 132.762655 19.872 
L 131.676854 19.872 
L 130.591052 19.872 
L 129.505251 19.872 
L 128.41945 19.872 
L 127.333649 19.872 
L 126.247848 19.872 
L 125.162047 19.872 
L 124.076245 19.872 
L 122.990444 19.872 
L 121.904643 19.872 
L 120.818842 19.872 
L 119.733041 19.872 
L 118.64724 19.872 
L 117.561439 19.872 
L 116.475637 19.872 
L 115.389836 19.872 
L 114.304035 19.872 
L 113.218234 19.872 
L 112.132433 19.872 
L 111.046632 19.872 
L 109.96083 19.872 
L 108.875029 19.872 
L 107.789228 19.872 
L 106.703427 19.872 
L 105.617626 19.872 
L 104.531825 19.872 
L 103.446023 19.872 
L 102.360222 19.872 
L 101.274421 19.872 
L 100.18862 19.872 
L 99.102819 19.872 
L 98.017018 19.872 
L 96.931217 19.872 
L 95.845415 19.872 
L 94.759614 19.872 
L 93.673813 19.872 
L 92.588012 19.872 
L 91.502211 19.872 
L 90.41641 19.872 
L 89.330608 19.872 
L 88.244807 19.872 
L 87.159006 19.872 
L 86.073205 19.872 
L 84.987404 19.872 
L 83.901603 19.872 
L 82.815802 19.872 
L 81.73 19.872 
L 80.644199 19.872 
L 79.558398 19.872 
L 78.472597 19.872 
L 77.386796 19.872 
L 76.300995 19.872 
L 75.215193 19.872 
L 74.129392 19.872 
L 73.043591 19.872 
L 71.95779 19.872 
L 70.871989 19.872 
L 69.786188 19.872 
L 68.700387 19.872 
L 67.614585 19.872 
L 66.528784 19.872 
L 65.442983 19.872 
L 64.357182 19.872 
L 63.271381 19.872 
L 62.18558 19.872 
L 61.099778 19.872 
L 60.013977 19.872 
z
" clip-path="url(#p2bed10682b)" style="fill: #9467bd"/>
   </g>
   <g id="matplotlib.axis_1">
    <g id="xtick_1">
     <g id="line2d_1">
      <defs>
       <path id="m549109e5fc" d="M 0 0 
L 0 3.5 
" style="stroke: #000000; stroke-width: 0.8"/>
      </defs>
      <g>
       <use xlink:href="#m549109e5fc" x="60.013977" y="273.312" style="stroke: #000000; stroke-width: 0.8"/>
      </g>
     </g>
     <g id="text_1">
      <!-- 0 -->
      <g transform="translate(56.832727 287.910437) scale(0.1 -0.1)">
       <defs>
        <path id="DejaVuSans-30" d="M 2034 4250 
Q 1547 4250 1301 3770 
Q 1056 3291 1056 2328 
Q 1056 1369 1301 889 
Q 1547 409 2034 409 
Q 2525 409 2770 889 
Q 3016 1369 3016 2328 
Q 3016 3291 2770 3770 
Q 2525 4250 2034 4250 
z
M 2034 4750 
Q 2819 4750 3233 4129 
Q 3647 3509 3647 2328 
Q 3647 1150 3233 529 
Q 2819 -91 2034 -91 
Q 1250 -91 836 529 
Q 422 1150 422 2328 
Q 422 3509 836 4129 
Q 1250 4750 2034 4750 
z
" transform="scale(0.015625)"/>
       </defs>
       <use xlink:href="#DejaVuSans-30"/>
      </g>
     </g>
    </g>
    <g id="xtick_2">
     <g id="line2d_2">
      <g>
       <use xlink:href="#m549109e5fc" x="114.304035" y="273.312" style="stroke: #000000; stroke-width: 0.8"/>
      </g>
     </g>
     <g id="text_2">
      <!-- 5 -->
      <g transform="translate(111.122785 287.910437) scale(0.1 -0.1)">
       <defs>
        <path id="DejaVuSans-35" d="M 691 4666 
L 3169 4666 
L 3169 4134 
L 1269 4134 
L 1269 2991 
Q 1406 3038 1543 3061 
Q 1681 3084 1819 3084 
Q 2600 3084 3056 2656 
Q 3513 2228 3513 1497 
Q 3513 744 3044 326 
Q 2575 -91 1722 -91 
Q 1428 -91 1123 -41 
Q 819 9 494 109 
L 494 744 
Q 775 591 1075 516 
Q 1375 441 1709 441 
Q 2250 441 2565 725 
Q 2881 1009 2881 1497 
Q 2881 1984 2565 2268 
Q 2250 2553 1709 2553 
Q 1456 2553 1204 2497 
Q 953 2441 691 2322 
L 691 4666 
z
" transform="scale(0.015625)"/>
       </defs>
       <use xlink:href="#DejaVuSans-35"/>
      </g>
     </g>
    </g>
    <g id="xtick_3">
     <g id="line2d_3">
      <g>
       <use xlink:href="#m549109e5fc" x="168.594093" y="273.312" style="stroke: #000000; stroke-width: 0.8"/>
      </g>
     </g>
     <g id="text_3">
      <!-- 10 -->
      <g transform="translate(162.231593 287.910437) scale(0.1 -0.1)">
       <defs>
        <path id="DejaVuSans-31" d="M 794 531 
L 1825 531 
L 1825 4091 
L 703 3866 
L 703 4441 
L 1819 4666 
L 2450 4666 
L 2450 531 
L 3481 531 
L 3481 0 
L 794 0 
L 794 531 
z
" transform="scale(0.015625)"/>
       </defs>
       <use xlink:href="#DejaVuSans-31"/>
       <use xlink:href="#DejaVuSans-30" transform="translate(63.623047 0)"/>
      </g>
     </g>
    </g>
    <g id="xtick_4">
     <g id="line2d_4">
      <g>
       <use xlink:href="#m549109e5fc" x="222.884151" y="273.312" style="stroke: #000000; stroke-width: 0.8"/>
      </g>
     </g>
     <g id="text_4">
      <!-- 15 -->
      <g transform="translate(216.521651 287.910437) scale(0.1 -0.1)">
       <use xlink:href="#DejaVuSans-31"/>
       <use xlink:href="#DejaVuSans-35" transform="translate(63.623047 0)"/>
      </g>
     </g>
    </g>
    <g id="xtick_5">
     <g id="line2d_5">
      <g>
       <use xlink:href="#m549109e5fc" x="277.174208" y="273.312" style="stroke: #000000; stroke-width: 0.8"/>
      </g>
     </g>
     <g id="text_5">
      <!-- 20 -->
      <g transform="translate(270.811708 287.910437) scale(0.1 -0.1)">
       <defs>
        <path id="DejaVuSans-32" d="M 1228 531 
L 3431 531 
L 3431 0 
L 469 0 
L 469 531 
Q 828 903 1448 1529 
Q 2069 2156 2228 2338 
Q 2531 2678 2651 2914 
Q 2772 3150 2772 3378 
Q 2772 3750 2511 3984 
Q 2250 4219 1831 4219 
Q 1534 4219 1204 4116 
Q 875 4013 500 3803 
L 500 4441 
Q 881 4594 1212 4672 
Q 1544 4750 1819 4750 
Q 2544 4750 2975 4387 
Q 3406 4025 3406 3419 
Q 3406 3131 3298 2873 
Q 3191 2616 2906 2266 
Q 2828 2175 2409 1742 
Q 1991 1309 1228 531 
z
" transform="scale(0.015625)"/>
       </defs>
       <use xlink:href="#DejaVuSans-32"/>
       <use xlink:href="#DejaVuSans-30" transform="translate(63.623047 0)"/>
      </g>
     </g>
    </g>
    <g id="xtick_6">
     <g id="line2d_6">
      <g>
       <use xlink:href="#m549109e5fc" x="331.464266" y="273.312" style="stroke: #000000; stroke-width: 0.8"/>
      </g>
     </g>
     <g id="text_6">
      <!-- 25 -->
      <g transform="translate(325.101766 287.910437) scale(0.1 -0.1)">
       <use xlink:href="#DejaVuSans-32"/>
       <use xlink:href="#DejaVuSans-35" transform="translate(63.623047 0)"/>
      </g>
     </g>
    </g>
    <g id="xtick_7">
     <g id="line2d_7">
      <g>
       <use xlink:href="#m549109e5fc" x="385.754324" y="273.312" style="stroke: #000000; stroke-width: 0.8"/>
      </g>
     </g>
     <g id="text_7">
      <!-- 30 -->
      <g transform="translate(379.391824 287.910437) scale(0.1 -0.1)">
       <defs>
        <path id="DejaVuSans-33" d="M 2597 2516 
Q 3050 2419 3304 2112 
Q 3559 1806 3559 1356 
Q 3559 666 3084 287 
Q 2609 -91 1734 -91 
Q 1441 -91 1130 -33 
Q 819 25 488 141 
L 488 750 
Q 750 597 1062 519 
Q 1375 441 1716 441 
Q 2309 441 2620 675 
Q 2931 909 2931 1356 
Q 2931 1769 2642 2001 
Q 2353 2234 1838 2234 
L 1294 2234 
L 1294 2753 
L 1863 2753 
Q 2328 2753 2575 2939 
Q 2822 3125 2822 3475 
Q 2822 3834 2567 4026 
Q 2313 4219 1838 4219 
Q 1578 4219 1281 4162 
Q 984 4106 628 3988 
L 628 4550 
Q 988 4650 1302 4700 
Q 1616 4750 1894 4750 
Q 2613 4750 3031 4423 
Q 3450 4097 3450 3541 
Q 3450 3153 3228 2886 
Q 3006 2619 2597 2516 
z
" transform="scale(0.015625)"/>
       </defs>
       <use xlink:href="#DejaVuSans-33"/>
       <use xlink:href="#DejaVuSans-30" transform="translate(63.623047 0)"/>
      </g>
     </g>
    </g>
    <g id="text_8">
     <!-- time -->
     <g transform="translate(211.045156 301.588562) scale(0.1 -0.1)">
      <defs>
       <path id="DejaVuSans-74" d="M 1172 4494 
L 1172 3500 
L 2356 3500 
L 2356 3053 
L 1172 3053 
L 1172 1153 
Q 1172 725 1289 603 
Q 1406 481 1766 481 
L 2356 481 
L 2356 0 
L 1766 0 
Q 1100 0 847 248 
Q 594 497 594 1153 
L 594 3053 
L 172 3053 
L 172 3500 
L 594 3500 
L 594 4494 
L 1172 4494 
z
" transform="scale(0.015625)"/>
       <path id="DejaVuSans-69" d="M 603 3500 
L 1178 3500 
L 1178 0 
L 603 0 
L 603 3500 
z
M 603 4863 
L 1178 4863 
L 1178 4134 
L 603 4134 
L 603 4863 
z
" transform="scale(0.015625)"/>
       <path id="DejaVuSans-6d" d="M 3328 2828 
Q 3544 3216 3844 3400 
Q 4144 3584 4550 3584 
Q 5097 3584 5394 3201 
Q 5691 2819 5691 2113 
L 5691 0 
L 5113 0 
L 5113 2094 
Q 5113 2597 4934 2840 
Q 4756 3084 4391 3084 
Q 3944 3084 3684 2787 
Q 3425 2491 3425 1978 
L 3425 0 
L 2847 0 
L 2847 2094 
Q 2847 2600 2669 2842 
Q 2491 3084 2119 3084 
Q 1678 3084 1418 2786 
Q 1159 2488 1159 1978 
L 1159 0 
L 581 0 
L 581 3500 
L 1159 3500 
L 1159 2956 
Q 1356 3278 1631 3431 
Q 1906 3584 2284 3584 
Q 2666 3584 2933 3390 
Q 3200 3197 3328 2828 
z
" transform="scale(0.015625)"/>
       <path id="DejaVuSans-65" d="M 3597 1894 
L 3597 1613 
L 953 1613 
Q 991 1019 1311 708 
Q 1631 397 2203 397 
Q 2534 397 2845 478 
Q 3156 559 3463 722 
L 3463 178 
Q 3153 47 2828 -22 
Q 2503 -91 2169 -91 
Q 1331 -91 842 396 
Q 353 884 353 1716 
Q 353 2575 817 3079 
Q 1281 3584 2069 3584 
Q 2775 3584 3186 3129 
Q 3597 2675 3597 1894 
z
M 3022 2063 
Q 3016 2534 2758 2815 
Q 2500 3097 2075 3097 
Q 1594 3097 1305 2825 
Q 1016 2553 972 2059 
L 3022 2063 
z
" transform="scale(0.015625)"/>
      </defs>
      <use xlink:href="#DejaVuSans-74"/>
      <use xlink:href="#DejaVuSans-69" transform="translate(39.208984 0)"/>
      <use xlink:href="#DejaVuSans-6d" transform="translate(66.992188 0)"/>
      <use xlink:href="#DejaVuSans-65" transform="translate(164.404297 0)"/>
     </g>
    </g>
   </g>
   <g id="matplotlib.axis_2">
    <g id="ytick_1">
     <g id="line2d_8">
      <defs>
       <path id="mfd71974e57" d="M 0 0 
L -3.5 0 
" style="stroke: #000000; stroke-width: 0.8"/>
      </defs>
      <g>
       <use xlink:href="#mfd71974e57" x="43.78125" y="273.312" style="stroke: #000000; stroke-width: 0.8"/>
      </g>
     </g>
     <g id="text_9">
      <!-- 0.0 -->
      <g transform="translate(20.878125 277.111219) scale(0.1 -0.1)">
       <defs>
        <path id="DejaVuSans-2e" d="M 684 794 
L 1344 794 
L 1344 0 
L 684 0 
L 684 794 
z
" transform="scale(0.015625)"/>
       </defs>
       <use xlink:href="#DejaVuSans-30"/>
       <use xlink:href="#DejaVuSans-2e" transform="translate(63.623047 0)"/>
       <use xlink:href="#DejaVuSans-30" transform="translate(95.410156 0)"/>
      </g>
     </g>
    </g>
    <g id="ytick_2">
     <g id="line2d_9">
      <g>
       <use xlink:href="#mfd71974e57" x="43.78125" y="222.624" style="stroke: #000000; stroke-width: 0.8"/>
      </g>
     </g>
     <g id="text_10">
      <!-- 0.2 -->
      <g transform="translate(20.878125 226.423219) scale(0.1 -0.1)">
       <use xlink:href="#DejaVuSans-30"/>
       <use xlink:href="#DejaVuSans-2e" transform="translate(63.623047 0)"/>
       <use xlink:href="#DejaVuSans-32" transform="translate(95.410156 0)"/>
      </g>
     </g>
    </g>
    <g id="ytick_3">
     <g id="line2d_10">
      <g>
       <use xlink:href="#mfd71974e57" x="43.78125" y="171.936" style="stroke: #000000; stroke-width: 0.8"/>
      </g>
     </g>
     <g id="text_11">
      <!-- 0.4 -->
      <g transform="translate(20.878125 175.735219) scale(0.1 -0.1)">
       <defs>
        <path id="DejaVuSans-34" d="M 2419 4116 
L 825 1625 
L 2419 1625 
L 2419 4116 
z
M 2253 4666 
L 3047 4666 
L 3047 1625 
L 3713 1625 
L 3713 1100 
L 3047 1100 
L 3047 0 
L 2419 0 
L 2419 1100 
L 313 1100 
L 313 1709 
L 2253 4666 
z
" transform="scale(0.015625)"/>
       </defs>
       <use xlink:href="#DejaVuSans-30"/>
       <use xlink:href="#DejaVuSans-2e" transform="translate(63.623047 0)"/>
       <use xlink:href="#DejaVuSans-34" transform="translate(95.410156 0)"/>
      </g>
     </g>
    </g>
    <g id="ytick_4">
     <g id="line2d_11">
      <g>
       <use xlink:href="#mfd71974e57" x="43.78125" y="121.248" style="stroke: #000000; stroke-width: 0.8"/>
      </g>
     </g>
     <g id="text_12">
      <!-- 0.6 -->
      <g transform="translate(20.878125 125.047219) scale(0.1 -0.1)">
       <defs>
        <path id="DejaVuSans-36" d="M 2113 2584 
Q 1688 2584 1439 2293 
Q 1191 2003 1191 1497 
Q 1191 994 1439 701 
Q 1688 409 2113 409 
Q 2538 409 2786 701 
Q 3034 994 3034 1497 
Q 3034 2003 2786 2293 
Q 2538 2584 2113 2584 
z
M 3366 4563 
L 3366 3988 
Q 3128 4100 2886 4159 
Q 2644 4219 2406 4219 
Q 1781 4219 1451 3797 
Q 1122 3375 1075 2522 
Q 1259 2794 1537 2939 
Q 1816 3084 2150 3084 
Q 2853 3084 3261 2657 
Q 3669 2231 3669 1497 
Q 3669 778 3244 343 
Q 2819 -91 2113 -91 
Q 1303 -91 875 529 
Q 447 1150 447 2328 
Q 447 3434 972 4092 
Q 1497 4750 2381 4750 
Q 2619 4750 2861 4703 
Q 3103 4656 3366 4563 
z
" transform="scale(0.015625)"/>
       </defs>
       <use xlink:href="#DejaVuSans-30"/>
       <use xlink:href="#DejaVuSans-2e" transform="translate(63.623047 0)"/>
       <use xlink:href="#DejaVuSans-36" transform="translate(95.410156 0)"/>
      </g>
     </g>
    </g>
    <g id="ytick_5">
     <g id="line2d_12">
      <g>
       <use xlink:href="#mfd71974e57" x="43.78125" y="70.56" style="stroke: #000000; stroke-width: 0.8"/>
      </g>
     </g>
     <g id="text_13">
      <!-- 0.8 -->
      <g transform="translate(20.878125 74.359219) scale(0.1 -0.1)">
       <defs>
        <path id="DejaVuSans-38" d="M 2034 2216 
Q 1584 2216 1326 1975 
Q 1069 1734 1069 1313 
Q 1069 891 1326 650 
Q 1584 409 2034 409 
Q 2484 409 2743 651 
Q 3003 894 3003 1313 
Q 3003 1734 2745 1975 
Q 2488 2216 2034 2216 
z
M 1403 2484 
Q 997 2584 770 2862 
Q 544 3141 544 3541 
Q 544 4100 942 4425 
Q 1341 4750 2034 4750 
Q 2731 4750 3128 4425 
Q 3525 4100 3525 3541 
Q 3525 3141 3298 2862 
Q 3072 2584 2669 2484 
Q 3125 2378 3379 2068 
Q 3634 1759 3634 1313 
Q 3634 634 3220 271 
Q 2806 -91 2034 -91 
Q 1263 -91 848 271 
Q 434 634 434 1313 
Q 434 1759 690 2068 
Q 947 2378 1403 2484 
z
M 1172 3481 
Q 1172 3119 1398 2916 
Q 1625 2713 2034 2713 
Q 2441 2713 2670 2916 
Q 2900 3119 2900 3481 
Q 2900 3844 2670 4047 
Q 2441 4250 2034 4250 
Q 1625 4250 1398 4047 
Q 1172 3844 1172 3481 
z
" transform="scale(0.015625)"/>
       </defs>
       <use xlink:href="#DejaVuSans-30"/>
       <use xlink:href="#DejaVuSans-2e" transform="translate(63.623047 0)"/>
       <use xlink:href="#DejaVuSans-38" transform="translate(95.410156 0)"/>
      </g>
     </g>
    </g>
    <g id="ytick_6">
     <g id="line2d_13">
      <g>
       <use xlink:href="#mfd71974e57" x="43.78125" y="19.872" style="stroke: #000000; stroke-width: 0.8"/>
      </g>
     </g>
     <g id="text_14">
      <!-- 1.0 -->
      <g transform="translate(20.878125 23.671219) scale(0.1 -0.1)">
       <use xlink:href="#DejaVuSans-31"/>
       <use xlink:href="#DejaVuSans-2e" transform="translate(63.623047 0)"/>
       <use xlink:href="#DejaVuSans-30" transform="translate(95.410156 0)"/>
      </g>
     </g>
    </g>
    <g id="text_15">
     <!-- fraction -->
     <g transform="translate(14.798438 159.46225) rotate(-90) scale(0.1 -0.1)">
      <defs>
       <path id="DejaVuSans-66" d="M 2375 4863 
L 2375 4384 
L 1825 4384 
Q 1516 4384 1395 4259 
Q 1275 4134 1275 3809 
L 1275 3500 
L 2222 3500 
L 2222 3053 
L 1275 3053 
L 1275 0 
L 697 0 
L 697 3053 
L 147 3053 
L 147 3500 
L 697 3500 
L 697 3744 
Q 697 4328 969 4595 
Q 1241 4863 1831 4863 
L 2375 4863 
z
" transform="scale(0.015625)"/>
       <path id="DejaVuSans-72" d="M 2631 2963 
Q 2534 3019 2420 3045 
Q 2306 3072 2169 3072 
Q 1681 3072 1420 2755 
Q 1159 2438 1159 1844 
L 1159 0 
L 581 0 
L 581 3500 
L 1159 3500 
L 1159 2956 
Q 1341 3275 1631 3429 
Q 1922 3584 2338 3584 
Q 2397 3584 2469 3576 
Q 2541 3569 2628 3553 
L 2631 2963 
z
" transform="scale(0.015625)"/>
       <path id="DejaVuSans-61" d="M 2194 1759 
Q 1497 1759 1228 1600 
Q 959 1441 959 1056 
Q 959 750 1161 570 
Q 1363 391 1709 391 
Q 2188 391 2477 730 
Q 2766 1069 2766 1631 
L 2766 1759 
L 2194 1759 
z
M 3341 1997 
L 3341 0 
L 2766 0 
L 2766 531 
Q 2569 213 2275 61 
Q 1981 -91 1556 -91 
Q 1019 -91 701 211 
Q 384 513 384 1019 
Q 384 1609 779 1909 
Q 1175 2209 1959 2209 
L 2766 2209 
L 2766 2266 
Q 2766 2663 2505 2880 
Q 2244 3097 1772 3097 
Q 1472 3097 1187 3025 
Q 903 2953 641 2809 
L 641 3341 
Q 956 3463 1253 3523 
Q 1550 3584 1831 3584 
Q 2591 3584 2966 3190 
Q 3341 2797 3341 1997 
z
" transform="scale(0.015625)"/>
       <path id="DejaVuSans-63" d="M 3122 3366 
L 3122 2828 
Q 2878 2963 2633 3030 
Q 2388 3097 2138 3097 
Q 1578 3097 1268 2742 
Q 959 2388 959 1747 
Q 959 1106 1268 751 
Q 1578 397 2138 397 
Q 2388 397 2633 464 
Q 2878 531 3122 666 
L 3122 134 
Q 2881 22 2623 -34 
Q 2366 -91 2075 -91 
Q 1284 -91 818 406 
Q 353 903 353 1747 
Q 353 2603 823 3093 
Q 1294 3584 2113 3584 
Q 2378 3584 2631 3529 
Q 2884 3475 3122 3366 
z
" transform="scale(0.015625)"/>
       <path id="DejaVuSans-6f" d="M 1959 3097 
Q 1497 3097 1228 2736 
Q 959 2375 959 1747 
Q 959 1119 1226 758 
Q 1494 397 1959 397 
Q 2419 397 2687 759 
Q 2956 1122 2956 1747 
Q 2956 2369 2687 2733 
Q 2419 3097 1959 3097 
z
M 1959 3584 
Q 2709 3584 3137 3096 
Q 3566 2609 3566 1747 
Q 3566 888 3137 398 
Q 2709 -91 1959 -91 
Q 1206 -91 779 398 
Q 353 888 353 1747 
Q 353 2609 779 3096 
Q 1206 3584 1959 3584 
z
" transform="scale(0.015625)"/>
       <path id="DejaVuSans-6e" d="M 3513 2113 
L 3513 0 
L 2938 0 
L 2938 2094 
Q 2938 2591 2744 2837 
Q 2550 3084 2163 3084 
Q 1697 3084 1428 2787 
Q 1159 2491 1159 1978 
L 1159 0 
L 581 0 
L 581 3500 
L 1159 3500 
L 1159 2956 
Q 1366 3272 1645 3428 
Q 1925 3584 2291 3584 
Q 2894 3584 3203 3211 
Q 3513 2838 3513 2113 
z
" transform="scale(0.015625)"/>
      </defs>
      <use xlink:href="#DejaVuSans-66"/>
      <use xlink:href="#DejaVuSans-72" transform="translate(35.205078 0)"/>
      <use xlink:href="#DejaVuSans-61" transform="translate(76.318359 0)"/>
      <use xlink:href="#DejaVuSans-63" transform="translate(137.597656 0)"/>
      <use xlink:href="#DejaVuSans-74" transform="translate(192.578125 0)"/>
      <use xlink:href="#DejaVuSans-69" transform="translate(231.787109 0)"/>
      <use xlink:href="#DejaVuSans-6f" transform="translate(259.570312 0)"/>
      <use xlink:href="#DejaVuSans-6e" transform="translate(320.751953 0)"/>
     </g>
    </g>
   </g>
   <g id="patch_3">
    <path d="M 43.78125 273.312 
L 43.78125 7.2 
" style="fill: none; stroke: #000000; stroke-width: 0.8; stroke-linejoin: miter; stroke-linecap: square"/>
   </g>
   <g id="patch_4">
    <path d="M 400.90125 273.312 
L 400.90125 7.2 
" style="fill: none; stroke: #000000; stroke-width: 0.8; stroke-linejoin: miter; stroke-linecap: square"/>
   </g>
   <g id="patch_5">
    <path d="M 43.78125 273.312 
L 400.90125 273.312 
" style="fill: none; stroke: #000000; stroke-width: 0.8; stroke-linejoin: miter; stroke-linecap: square"/>
   </g>
   <g id="patch_6">
    <path d="M 43.78125 7.2 
L 400.90125 7.2 
" style="fill: none; stroke: #000000; stroke-width: 0.8; stroke-linejoin: miter; stroke-linecap: square"/>
   </g>
   <g id="legend_1">
    <g id="patch_7">
     <path d="M 309.591875 103.26875 
L 393.90125 103.26875 
Q 395.90125 103.26875 395.90125 101.26875 
L 395.90125 14.2 
Q 395.90125 12.2 393.90125 12.2 
L 309.591875 12.2 
Q 307.591875 12.2 307.591875 14.2 
L 307.591875 101.26875 
Q 307.591875 103.26875 309.591875 103.26875 
z
" style="fill: #ffffff; opacity: 0.8; stroke: #cccccc; stroke-linejoin: miter"/>
    </g>
    <g id="text_16">
     <!-- variants -->
     <g transform="translate(331.480938 23.798437) scale(0.1 -0.1)">
      <defs>
       <path id="DejaVuSans-76" d="M 191 3500 
L 800 3500 
L 1894 563 
L 2988 3500 
L 3597 3500 
L 2284 0 
L 1503 0 
L 191 3500 
z
" transform="scale(0.015625)"/>
       <path id="DejaVuSans-73" d="M 2834 3397 
L 2834 2853 
Q 2591 2978 2328 3040 
Q 2066 3103 1784 3103 
Q 1356 3103 1142 2972 
Q 928 2841 928 2578 
Q 928 2378 1081 2264 
Q 1234 2150 1697 2047 
L 1894 2003 
Q 2506 1872 2764 1633 
Q 3022 1394 3022 966 
Q 3022 478 2636 193 
Q 2250 -91 1575 -91 
Q 1294 -91 989 -36 
Q 684 19 347 128 
L 347 722 
Q 666 556 975 473 
Q 1284 391 1588 391 
Q 1994 391 2212 530 
Q 2431 669 2431 922 
Q 2431 1156 2273 1281 
Q 2116 1406 1581 1522 
L 1381 1569 
Q 847 1681 609 1914 
Q 372 2147 372 2553 
Q 372 3047 722 3315 
Q 1072 3584 1716 3584 
Q 2034 3584 2315 3537 
Q 2597 3491 2834 3397 
z
" transform="scale(0.015625)"/>
      </defs>
      <use xlink:href="#DejaVuSans-76"/>
      <use xlink:href="#DejaVuSans-61" transform="translate(59.179688 0)"/>
      <use xlink:href="#DejaVuSans-72" transform="translate(120.458984 0)"/>
      <use xlink:href="#DejaVuSans-69" transform="translate(161.572266 0)"/>
      <use xlink:href="#DejaVuSans-61" transform="translate(189.355469 0)"/>
      <use xlink:href="#DejaVuSans-6e" transform="translate(250.634766 0)"/>
      <use xlink:href="#DejaVuSans-74" transform="translate(314.013672 0)"/>
      <use xlink:href="#DejaVuSans-73" transform="translate(353.222656 0)"/>
     </g>
    </g>
    <g id="patch_8">
     <path d="M 311.591875 38.476562 
L 331.591875 38.476562 
L 331.591875 31.476562 
L 311.591875 31.476562 
z
" style="fill: #9467bd"/>
    </g>
    <g id="text_17">
     <!-- score 1.00 -->
     <g transform="translate(339.591875 38.476562) scale(0.1 -0.1)">
      <defs>
       <path id="DejaVuSans-20" transform="scale(0.015625)"/>
      </defs>
      <use xlink:href="#DejaVuSans-73"/>
      <use xlink:href="#DejaVuSans-63" transform="translate(52.099609 0)"/>
      <use xlink:href="#DejaVuSans-6f" transform="translate(107.080078 0)"/>
      <use xlink:href="#DejaVuSans-72" transform="translate(168.261719 0)"/>
      <use xlink:href="#DejaVuSans-65" transform="translate(207.125 0)"/>
      <use xlink:href="#DejaVuSans-20" transform="translate(268.648438 0)"/>
      <use xlink:href="#DejaVuSans-31" transform="translate(300.435547 0)"/>
      <use xlink:href="#DejaVuSans-2e" transform="translate(364.058594 0)"/>
      <use xlink:href="#DejaVuSans-30" transform="translate(395.845703 0)"/>
      <use xlink:href="#DejaVuSans-30" transform="translate(459.46875 0)"/>
     </g>
    </g>
    <g id="patch_9">
     <path d="M 311.591875 53.154688 
L 331.591875 53.154688 
L 331.591875 46.154688 
L 311.591875 46.154688 
z
" style="fill: #d62728"/>
    </g>
    <g id="text_18">
     <!-- score 0.90 -->
     <g transform="translate(339.591875 53.154688) scale(0.1 -0.1)">
      <defs>
       <path id="DejaVuSans-39" d="M 703 97 
L 703 672 
Q 941 559 1184 500 
Q 1428 441 1663 441 
Q 2288 441 2617 861 
Q 2947 1281 2994 2138 
Q 2813 1869 2534 1725 
Q 2256 1581 1919 1581 
Q 1219 1581 811 2004 
Q 403 2428 403 3163 
Q 403 3881 828 4315 
Q 1253 4750 1959 4750 
Q 2769 4750 3195 4129 
Q 3622 3509 3622 2328 
Q 3622 1225 3098 567 
Q 2575 -91 1691 -91 
Q 1453 -91 1209 -44 
Q 966 3 703 97 
z
M 1959 2075 
Q 2384 2075 2632 2365 
Q 2881 2656 2881 3163 
Q 2881 3666 2632 3958 
Q 2384 4250 1959 4250 
Q 1534 4250 1286 3958 
Q 1038 3666 1038 3163 
Q 1038 2656 1286 2365 
Q 1534 2075 1959 2075 
z
" transform="scale(0.015625)"/>
      </defs>
      <use xlink:href="#DejaVuSans-73"/>
      <use xlink:href="#DejaVuSans-63" transform="translate(52.099609 0)"/>
      <use xlink:href="#DejaVuSans-6f" transform="translate(107.080078 0)"/>
      <use xlink:href="#DejaVuSans-72" transform="translate(168.261719 0)"/>
      <use xlink:href="#DejaVuSans-65" transform="translate(207.125 0)"/>
      <use xlink:href="#DejaVuSans-20" transform="translate(268.648438 0)"/>
      <use xlink:href="#DejaVuSans-30" transform="translate(300.435547 0)"/>
      <use xlink:href="#DejaVuSans-2e" transform="translate(364.058594 0)"/>
      <use xlink:href="#DejaVuSans-39" transform="translate(395.845703 0)"/>
      <use xlink:href="#DejaVuSans-30" transform="translate(459.46875 0)"/>
     </g>
    </g>
    <g id="patch_10">
     <path d="M 311.591875 67.832812 
L 331.591875 67.832812 
L 331.591875 60.832812 
L 311.591875 60.832812 
z
" style="fill: #2ca02c"/>
    </g>
    <g id="text_19">
     <!-- score 0.75 -->
     <g transform="translate(339.591875 67.832812) scale(0.1 -0.1)">
      <defs>
       <path id="DejaVuSans-37" d="M 525 4666 
L 3525 4666 
L 3525 4397 
L 1831 0 
L 1172 0 
L 2766 4134 
L 525 4134 
L 525 4666 
z
" transform="scale(0.015625)"/>
      </defs>
      <use xlink:href="#DejaVuSans-73"/>
      <use xlink:href="#DejaVuSans-63" transform="translate(52.099609 0)"/>
      <use xlink:href="#DejaVuSans-6f" transform="translate(107.080078 0)"/>
      <use xlink:href="#DejaVuSans-72" transform="translate(168.261719 0)"/>
      <use xlink:href="#DejaVuSans-65" transform="translate(207.125 0)"/>
      <use xlink:href="#DejaVuSans-20" transform="translate(268.648438 0)"/>
      <use xlink:href="#DejaVuSans-30" transform="translate(300.435547 0)"/>
      <use xlink:href="#DejaVuSans-2e" transform="translate(364.058594 0)"/>
      <use xlink:href="#DejaVuSans-37" transform="translate(395.845703 0)"/>
      <use xlink:href="#DejaVuSans-35" transform="translate(459.46875 0)"/>
     </g>
    </g>
    <g id="patch_11">
     <path d="M 311.591875 82.510938 
L 331.591875 82.510938 
L 331.591875 75.510938 
L 311.591875 75.510938 
z
" style="fill: #ff7f0e"/>
    </g>
    <g id="text_20">
     <!-- score 0.50 -->
     <g transform="translate(339.591875 82.510938) scale(0.1 -0.1)">
      <use xlink:href="#DejaVuSans-73"/>
      <use xlink:href="#DejaVuSans-63" transform="translate(52.099609 0)"/>
      <use xlink:href="#DejaVuSans-6f" transform="translate(107.080078 0)"/>
      <use xlink:href="#DejaVuSans-72" transform="translate(168.261719 0)"/>
      <use xlink:href="#DejaVuSans-65" transform="translate(207.125 0)"/>
      <use xlink:href="#DejaVuSans-20" transform="translate(268.648438 0)"/>
      <use xlink:href="#DejaVuSans-30" transform="translate(300.435547 0)"/>
      <use xlink:href="#DejaVuSans-2e" transform="translate(364.058594 0)"/>
      <use xlink:href="#DejaVuSans-35" transform="translate(395.845703 0)"/>
      <use xlink:href="#DejaVuSans-30" transform="translate(459.46875 0)"/>
     </g>
    </g>
    <g id="patch_12">
     <path d="M 311.591875 97.189063 
L 331.591875 97.189063 
L 331.591875 90.189063 
L 311.591875 90.189063 
z
" style="fill: #1f77b4"/>
    </g>
    <g id="text_21">
     <!-- score 0.00 -->
     <g transform="translate(339.591875 97.189063) scale(0.1 -0.1)">
      <use xlink:href="#DejaVuSans-73"/>
      <use xlink:href="#DejaVuSans-63" transform="translate(52.099609 0)"/>
      <use xlink:href="#DejaVuSans-6f" transform="translate(107.080078 0)"/>
      <use xlink:href="#DejaVuSans-72" transform="translate(168.261719 0)"/>
      <use xlink:href="#DejaVuSans-65" transform="translate(207.125 0)"/>
      <use xlink:href="#DejaVuSans-20" transform="translate(268.648438 0)"/>
      <use xlink:href="#DejaVuSans-30" transform="translate(300.435547 0)"/>
      <use xlink:href="#DejaVuSans-2e" transform="translate(364.058594 0)"/>
      <use xlink:href="#DejaVuSans-30" transform="translate(395.845703 0)"/>
      <use xlink:href="#DejaVuSans-30" transform="translate(459.46875 0)"/>
     </g>
    </g>
   </g>
  </g>
 </g>
 <defs>
  <clipPath id="p2bed10682b">
   <rect x="43.78125" y="7.2" width="357.12" height="266.112"/>
  </clipPath>
 </defs>
</svg>
