<?xml version="1.0" encoding="utf-8" standalone="no"?>
<!DOCTYPE svg PUBLIC "-//W3C//DTD SVG 1.1//EN"
  "http://www.w3.org/Graphics/SVG/1.1/DTD/svg11.dtd">
<svg xmlns:xlink="http://www.w3.org/1999/xlink" width="408.10125pt" height="310.86825pt" viewBox="0 0 408.10125 310.86825" xmlns="http://www.w3.org/2000/svg" version="1.1">
 <metadata>
  <rdf:RDF xmlns:dc="http://purl.org/dc/elements/1.1/" xmlns:cc="http://creativecommons.org/ns#" xmlns:rdf="http://www.w3.org/1999/02/22-rdf-syntax-ns#">
   <cc:Work>
    <dc:type rdf:resource="http://purl.org/dc/dcmitype/StillImage"/>
    <dc:date>2025-09-24T16:39:37.905936</dc:date>
    <dc:format>image/svg+xml</dc:format>
    <dc:creator>
     <cc:Agent>
      <dc:title>Matplotlib v3.10.6, https://matplotlib.org/</dc:title>
     </cc:Agent>
    </dc:creator>
   </cc:Work>
  </rdf:RDF>
 </metadata>
 <defs>
  <style type="text/css">*{stroke-linejoin: round; stroke-linecap: butt}</style>
 </defs>
 <g id="figure_1">
  <g id="patch_1">
   <path d="M 0 310.86825 
L 408.10125 310.86825 
L 408.10125 0 
L 0 0 
z
" style="fill: #ffffff"/>
  </g>
  <g id="axes_1">
   <g id="patch_2">
    <path d="M 43.78125 273.312 
L 400.90125 273.312 
L 400.90125 7.2 
L 43.78125 7.2 
z
" style="fill: #ffffff"/>
   </g>
   <g id="matplotlib.axis_1">
    <g id="xtick_1">
     <g id="line2d_1">
      <defs>
       <path id="m0775cb04be" d="M 0 0 
L 0 3.5 
" style="stroke: #000000; stroke-width: 0.8"/>
      </defs>
      <g>
       <use xlink:href="#m0775cb04be" x="60.013977" y="273.312" style="stroke: #000000; stroke-width: 0.8"/>
      </g>
     </g>
     <g id="text_1">
      <!-- 0 -->
      <g transform="translate(56.832727 287.910437) scale(0.1 -0.1)">
       <defs>
        <path id="DejaVuSans-30" d="M 2034 4250 
Q 1547 4250 1301 3770 
Q 1056 3291 1056 2328 
Q 1056 1369 1301 889 
Q 1547 409 2034 409 
Q 2525 409 2770 889 
Q 3016 1369 3016 2328 
Q 3016 3291 2770 3770 
Q 2525 4250 2034 4250 
z
M 2034 4750 
Q 2819 4750 3233 4129 
Q 3647 3509 3647 2328 
Q 3647 1150 3233 529 
Q 2819 -91 2034 -91 
Q 1250 -91 836 529 
Q 422 1150 422 2328 
Q 422 3509 836 4129 
Q 1250 4750 2034 4750 
z
" transform="scale(0.015625)"/>
       </defs>
       <use xlink:href="#DejaVuSans-30"/>
      </g>
     </g>
    </g>
    <g id="xtick_2">
     <g id="line2d_2">
      <g>
       <use xlink:href="#m0775cb04be" x="114.304035" y="273.312" style="stroke: #000000; stroke-width: 0.8"/>
      </g>
     </g>
     <g id="text_2">
      <!-- 5 -->
      <g transform="translate(111.122785 287.910437) scale(0.1 -0.1)">
       <defs>
        <path id="DejaVuSans-35" d="M 691 4666 
L 3169 4666 
L 3169 4134 
L 1269 4134 
L 1269 2991 
Q 1406 3038 1543 3061 
Q 1681 3084 1819 3084 
Q 2600 3084 3056 2656 
Q 3513 2228 3513 1497 
Q 3513 744 3044 326 
Q 2575 -91 1722 -91 
Q 1428 -91 1123 -41 
Q 819 9 494 109 
L 494 744 
Q 775 591 1075 516 
Q 1375 441 1709 441 
Q 2250 441 2565 725 
Q 2881 1009 2881 1497 
Q 2881 1984 2565 2268 
Q 2250 2553 1709 2553 
Q 1456 2553 1204 2497 
Q 953 2441 691 2322 
L 691 4666 
z
" transform="scale(0.015625)"/>
       </defs>
       <use xlink:href="#DejaVuSans-35"/>
      </g>
     </g>
    </g>
    <g id="xtick_3">
     <g id="line2d_3">
      <g>
       <use xlink:href="#m0775cb04be" x="168.594093" y="273.312" style="stroke: #000000; stroke-width: 0.8"/>
      </g>
     </g>
     <g id="text_3">
      <!-- 10 -->
      <g transform="translate(162.231593 287.910437) scale(0.1 -0.1)">
       <defs>
        <path id="DejaVuSans-31" d="M 794 531 
L 1825 531 
L 1825 4091 
L 703 3866 
L 703 4441 
L 1819 4666 
L 2450 4666 
L 2450 531 
L 3481 531 
L 3481 0 
L 794 0 
L 794 531 
z
" transform="scale(0.015625)"/>
       </defs>
       <use xlink:href="#DejaVuSans-31"/>
       <use xlink:href="#DejaVuSans-30" transform="translate(63.623047 0)"/>
      </g>
     </g>
    </g>
    <g id="xtick_4">
     <g id="line2d_4">
      <g>
       <use xlink:href="#m0775cb04be" x="222.884151" y="273.312" style="stroke: #000000; stroke-width: 0.8"/>
      </g>
     </g>
     <g id="text_4">
      <!-- 15 -->
      <g transform="translate(216.521651 287.910437) scale(0.1 -0.1)">
       <use xlink:href="#DejaVuSans-31"/>
       <use xlink:href="#DejaVuSans-35" transform="translate(63.623047 0)"/>
      </g>
     </g>
    </g>
    <g id="xtick_5">
     <g id="line2d_5">
      <g>
       <use xlink:href="#m0775cb04be" x="277.174208" y="273.312" style="stroke: #000000; stroke-width: 0.8"/>
      </g>
     </g>
     <g id="text_5">
      <!-- 20 -->
      <g transform="translate(270.811708 287.910437) scale(0.1 -0.1)">
       <defs>
        <path id="DejaVuSans-32" d="M 1228 531 
L 3431 531 
L 3431 0 
L 469 0 
L 469 531 
Q 828 903 1448 1529 
Q 2069 2156 2228 2338 
Q 2531 2678 2651 2914 
Q 2772 3150 2772 3378 
Q 2772 3750 2511 3984 
Q 2250 4219 1831 4219 
Q 1534 4219 1204 4116 
Q 875 4013 500 3803 
L 500 4441 
Q 881 4594 1212 4672 
Q 1544 4750 1819 4750 
Q 2544 4750 2975 4387 
Q 3406 4025 3406 3419 
Q 3406 3131 3298 2873 
Q 3191 2616 2906 2266 
Q 2828 2175 2409 1742 
Q 1991 1309 1228 531 
z
" transform="scale(0.015625)"/>
       </defs>
       <use xlink:href="#DejaVuSans-32"/>
       <use xlink:href="#DejaVuSans-30" transform="translate(63.623047 0)"/>
      </g>
     </g>
    </g>
    <g id="xtick_6">
     <g id="line2d_6">
      <g>
       <use xlink:href="#m0775cb04be" x="331.464266" y="273.312" style="stroke: #000000; stroke-width: 0.8"/>
      </g>
     </g>
     <g id="text_6">
      <!-- 25 -->
      <g transform="translate(325.101766 287.910437) scale(0.1 -0.1)">
       <use xlink:href="#DejaVuSans-32"/>
       <use xlink:href="#DejaVuSans-35" transform="translate(63.623047 0)"/>
      </g>
     </g>
    </g>
    <g id="xtick_7">
     <g id="line2d_7">
      <g>
       <use xlink:href="#m0775cb04be" x="385.754324" y="273.312" style="stroke: #000000; stroke-width: 0.8"/>
      </g>
     </g>
     <g id="text_7">
      <!-- 30 -->
      <g transform="translate(379.391824 287.910437) scale(0.1 -0.1)">
       <defs>
        <path id="DejaVuSans-33" d="M 2597 2516 
Q 3050 2419 3304 2112 
Q 3559 1806 3559 1356 
Q 3559 666 3084 287 
Q 2609 -91 1734 -91 
Q 1441 -91 1130 -33 
Q 819 25 488 141 
L 488 750 
Q 750 597 1062 519 
Q 1375 441 1716 441 
Q 2309 441 2620 675 
Q 2931 909 2931 1356 
Q 2931 1769 2642 2001 
Q 2353 2234 1838 2234 
L 1294 2234 
L 1294 2753 
L 1863 2753 
Q 2328 2753 2575 2939 
Q 2822 3125 2822 3475 
Q 2822 3834 2567 4026 
Q 2313 4219 1838 4219 
Q 1578 4219 1281 4162 
Q 984 4106 628 3988 
L 628 4550 
Q 988 4650 1302 4700 
Q 1616 4750 1894 4750 
Q 2613 4750 3031 4423 
Q 3450 4097 3450 3541 
Q 3450 3153 3228 2886 
Q 3006 2619 2597 2516 
z
" transform="scale(0.015625)"/>
       </defs>
       <use xlink:href="#DejaVuSans-33"/>
       <use xlink:href="#DejaVuSans-30" transform="translate(63.623047 0)"/>
      </g>
     </g>
    </g>
    <g id="text_8">
     <!-- time -->
     <g transform="translate(211.045156 301.588562) scale(0.1 -0.1)">
      <defs>
       <path id="DejaVuSans-74" d="M 1172 4494 
L 1172 3500 
L 2356 3500 
L 2356 3053 
L 1172 3053 
L 1172 1153 
Q 1172 725 1289 603 
Q 1406 481 1766 481 
L 2356 481 
L 2356 0 
L 1766 0 
Q 1100 0 847 248 
Q 594 497 594 1153 
L 594 3053 
L 172 3053 
L 172 3500 
L 594 3500 
L 594 4494 
L 1172 4494 
z
" transform="scale(0.015625)"/>
       <path id="DejaVuSans-69" d="M 603 3500 
L 1178 3500 
L 1178 0 
L 603 0 
L 603 3500 
z
M 603 4863 
L 1178 4863 
L 1178 4134 
L 603 4134 
L 603 4863 
z
" transform="scale(0.015625)"/>
       <path id="DejaVuSans-6d" d="M 3328 2828 
Q 3544 3216 3844 3400 
Q 4144 3584 4550 3584 
Q 5097 3584 5394 3201 
Q 5691 2819 5691 2113 
L 5691 0 
L 5113 0 
L 5113 2094 
Q 5113 2597 4934 2840 
Q 4756 3084 4391 3084 
Q 3944 3084 3684 2787 
Q 3425 2491 3425 1978 
L 3425 0 
L 2847 0 
L 2847 2094 
Q 2847 2600 2669 2842 
Q 2491 3084 2119 3084 
Q 1678 3084 1418 2786 
Q 1159 2488 1159 1978 
L 1159 0 
L 581 0 
L 581 3500 
L 1159 3500 
L 1159 2956 
Q 1356 3278 1631 3431 
Q 1906 3584 2284 3584 
Q 2666 3584 2933 3390 
Q 3200 3197 3328 2828 
z
" transform="scale(0.015625)"/>
       <path id="DejaVuSans-65" d="M 3597 1894 
L 3597 1613 
L 953 1613 
Q 991 1019 1311 708 
Q 1631 397 2203 397 
Q 2534 397 2845 478 
Q 3156 559 3463 722 
L 3463 178 
Q 3153 47 2828 -22 
Q 2503 -91 2169 -91 
Q 1331 -91 842 396 
Q 353 884 353 1716 
Q 353 2575 817 3079 
Q 1281 3584 2069 3584 
Q 2775 3584 3186 3129 
Q 3597 2675 3597 1894 
z
M 3022 2063 
Q 3016 2534 2758 2815 
Q 2500 3097 2075 3097 
Q 1594 3097 1305 2825 
Q 1016 2553 972 2059 
L 3022 2063 
z
" transform="scale(0.015625)"/>
      </defs>
      <use xlink:href="#DejaVuSans-74"/>
      <use xlink:href="#DejaVuSans-69" transform="translate(39.208984 0)"/>
      <use xlink:href="#DejaVuSans-6d" transform="translate(66.992188 0)"/>
      <use xlink:href="#DejaVuSans-65" transform="translate(164.404297 0)"/>
     </g>
    </g>
   </g>
   <g id="matplotlib.axis_2">
    <g id="ytick_1">
     <g id="line2d_8">
      <defs>
       <path id="m6d9f3340d8" d="M 0 0 
L -3.5 0 
" style="stroke: #000000; stroke-width: 0.8"/>
      </defs>
      <g>
       <use xlink:href="#m6d9f3340d8" x="43.78125" y="261.216" style="stroke: #000000; stroke-width: 0.8"/>
      </g>
     </g>
     <g id="text_9">
      <!-- 0.0 -->
      <g transform="translate(20.878125 265.015219) scale(0.1 -0.1)">
       <defs>
        <path id="DejaVuSans-2e" d="M 684 794 
L 1344 794 
L 1344 0 
L 684 0 
L 684 794 
z
" transform="scale(0.015625)"/>
       </defs>
       <use xlink:href="#DejaVuSans-30"/>
       <use xlink:href="#DejaVuSans-2e" transform="translate(63.623047 0)"/>
       <use xlink:href="#DejaVuSans-30" transform="translate(95.410156 0)"/>
      </g>
     </g>
    </g>
    <g id="ytick_2">
     <g id="line2d_9">
      <g>
       <use xlink:href="#m6d9f3340d8" x="43.78125" y="231.444569" style="stroke: #000000; stroke-width: 0.8"/>
      </g>
     </g>
     <g id="text_10">
      <!-- 0.1 -->
      <g transform="translate(20.878125 235.243788) scale(0.1 -0.1)">
       <use xlink:href="#DejaVuSans-30"/>
       <use xlink:href="#DejaVuSans-2e" transform="translate(63.623047 0)"/>
       <use xlink:href="#DejaVuSans-31" transform="translate(95.410156 0)"/>
      </g>
     </g>
    </g>
    <g id="ytick_3">
     <g id="line2d_10">
      <g>
       <use xlink:href="#m6d9f3340d8" x="43.78125" y="201.673138" style="stroke: #000000; stroke-width: 0.8"/>
      </g>
     </g>
     <g id="text_11">
      <!-- 0.2 -->
      <g transform="translate(20.878125 205.472357) scale(0.1 -0.1)">
       <use xlink:href="#DejaVuSans-30"/>
       <use xlink:href="#DejaVuSans-2e" transform="translate(63.623047 0)"/>
       <use xlink:href="#DejaVuSans-32" transform="translate(95.410156 0)"/>
      </g>
     </g>
    </g>
    <g id="ytick_4">
     <g id="line2d_11">
      <g>
       <use xlink:href="#m6d9f3340d8" x="43.78125" y="171.901707" style="stroke: #000000; stroke-width: 0.8"/>
      </g>
     </g>
     <g id="text_12">
      <!-- 0.3 -->
      <g transform="translate(20.878125 175.700926) scale(0.1 -0.1)">
       <use xlink:href="#DejaVuSans-30"/>
       <use xlink:href="#DejaVuSans-2e" transform="translate(63.623047 0)"/>
       <use xlink:href="#DejaVuSans-33" transform="translate(95.410156 0)"/>
      </g>
     </g>
    </g>
    <g id="ytick_5">
     <g id="line2d_12">
      <g>
       <use xlink:href="#m6d9f3340d8" x="43.78125" y="142.130276" style="stroke: #000000; stroke-width: 0.8"/>
      </g>
     </g>
     <g id="text_13">
      <!-- 0.4 -->
      <g transform="translate(20.878125 145.929495) scale(0.1 -0.1)">
       <defs>
        <path id="DejaVuSans-34" d="M 2419 4116 
L 825 1625 
L 2419 1625 
L 2419 4116 
z
M 2253 4666 
L 3047 4666 
L 3047 1625 
L 3713 1625 
L 3713 1100 
L 3047 1100 
L 3047 0 
L 2419 0 
L 2419 1100 
L 313 1100 
L 313 1709 
L 2253 4666 
z
" transform="scale(0.015625)"/>
       </defs>
       <use xlink:href="#DejaVuSans-30"/>
       <use xlink:href="#DejaVuSans-2e" transform="translate(63.623047 0)"/>
       <use xlink:href="#DejaVuSans-34" transform="translate(95.410156 0)"/>
      </g>
     </g>
    </g>
    <g id="ytick_6">
     <g id="line2d_13">
      <g>
       <use xlink:href="#m6d9f3340d8" x="43.78125" y="112.358845" style="stroke: #000000; stroke-width: 0.8"/>
      </g>
     </g>
     <g id="text_14">
      <!-- 0.5 -->
      <g transform="translate(20.878125 116.158063) scale(0.1 -0.1)">
       <use xlink:href="#DejaVuSans-30"/>
       <use xlink:href="#DejaVuSans-2e" transform="translate(63.623047 0)"/>
       <use xlink:href="#DejaVuSans-35" transform="translate(95.410156 0)"/>
      </g>
     </g>
    </g>
    <g id="ytick_7">
     <g id="line2d_14">
      <g>
       <use xlink:href="#m6d9f3340d8" x="43.78125" y="82.587414" style="stroke: #000000; stroke-width: 0.8"/>
      </g>
     </g>
     <g id="text_15">
      <!-- 0.6 -->
      <g transform="translate(20.878125 86.386632) scale(0.1 -0.1)">
       <defs>
        <path id="DejaVuSans-36" d="M 2113 2584 
Q 1688 2584 1439 2293 
Q 1191 2003 1191 1497 
Q 1191 994 1439 701 
Q 1688 409 2113 409 
Q 2538 409 2786 701 
Q 3034 994 3034 1497 
Q 3034 2003 2786 2293 
Q 2538 2584 2113 2584 
z
M 3366 4563 
L 3366 3988 
Q 3128 4100 2886 4159 
Q 2644 4219 2406 4219 
Q 1781 4219 1451 3797 
Q 1122 3375 1075 2522 
Q 1259 2794 1537 2939 
Q 1816 3084 2150 3084 
Q 2853 3084 3261 2657 
Q 3669 2231 3669 1497 
Q 3669 778 3244 343 
Q 2819 -91 2113 -91 
Q 1303 -91 875 529 
Q 447 1150 447 2328 
Q 447 3434 972 4092 
Q 1497 4750 2381 4750 
Q 2619 4750 2861 4703 
Q 3103 4656 3366 4563 
z
" transform="scale(0.015625)"/>
       </defs>
       <use xlink:href="#DejaVuSans-30"/>
       <use xlink:href="#DejaVuSans-2e" transform="translate(63.623047 0)"/>
       <use xlink:href="#DejaVuSans-36" transform="translate(95.410156 0)"/>
      </g>
     </g>
    </g>
    <g id="ytick_8">
     <g id="line2d_15">
      <g>
       <use xlink:href="#m6d9f3340d8" x="43.78125" y="52.815982" style="stroke: #000000; stroke-width: 0.8"/>
      </g>
     </g>
     <g id="text_16">
      <!-- 0.7 -->
      <g transform="translate(20.878125 56.615201) scale(0.1 -0.1)">
       <defs>
        <path id="DejaVuSans-37" d="M 525 4666 
L 3525 4666 
L 3525 4397 
L 1831 0 
L 1172 0 
L 2766 4134 
L 525 4134 
L 525 4666 
z
" transform="scale(0.015625)"/>
       </defs>
       <use xlink:href="#DejaVuSans-30"/>
       <use xlink:href="#DejaVuSans-2e" transform="translate(63.623047 0)"/>
       <use xlink:href="#DejaVuSans-37" transform="translate(95.410156 0)"/>
      </g>
     </g>
    </g>
    <g id="ytick_9">
     <g id="line2d_16">
      <g>
       <use xlink:href="#m6d9f3340d8" x="43.78125" y="23.044551" style="stroke: #000000; stroke-width: 0.8"/>
      </g>
     </g>
     <g id="text_17">
      <!-- 0.8 -->
      <g transform="translate(20.878125 26.84377) scale(0.1 -0.1)">
       <defs>
        <path id="DejaVuSans-38" d="M 2034 2216 
Q 1584 2216 1326 1975 
Q 1069 1734 1069 1313 
Q 1069 891 1326 650 
Q 1584 409 2034 409 
Q 2484 409 2743 651 
Q 3003 894 3003 1313 
Q 3003 1734 2745 1975 
Q 2488 2216 2034 2216 
z
M 1403 2484 
Q 997 2584 770 2862 
Q 544 3141 544 3541 
Q 544 4100 942 4425 
Q 1341 4750 2034 4750 
Q 2731 4750 3128 4425 
Q 3525 4100 3525 3541 
Q 3525 3141 3298 2862 
Q 3072 2584 2669 2484 
Q 3125 2378 3379 2068 
Q 3634 1759 3634 1313 
Q 3634 634 3220 271 
Q 2806 -91 2034 -91 
Q 1263 -91 848 271 
Q 434 634 434 1313 
Q 434 1759 690 2068 
Q 947 2378 1403 2484 
z
M 1172 3481 
Q 1172 3119 1398 2916 
Q 1625 2713 2034 2713 
Q 2441 2713 2670 2916 
Q 2900 3119 2900 3481 
Q 2900 3844 2670 4047 
Q 2441 4250 2034 4250 
Q 1625 4250 1398 4047 
Q 1172 3844 1172 3481 
z
" transform="scale(0.015625)"/>
       </defs>
       <use xlink:href="#DejaVuSans-30"/>
       <use xlink:href="#DejaVuSans-2e" transform="translate(63.623047 0)"/>
       <use xlink:href="#DejaVuSans-38" transform="translate(95.410156 0)"/>
      </g>
     </g>
    </g>
    <g id="text_18">
     <!-- fraction -->
     <g transform="translate(14.798438 159.46225) rotate(-90) scale(0.1 -0.1)">
      <defs>
       <path id="DejaVuSans-66" d="M 2375 4863 
L 2375 4384 
L 1825 4384 
Q 1516 4384 1395 4259 
Q 1275 4134 1275 3809 
L 1275 3500 
L 2222 3500 
L 2222 3053 
L 1275 3053 
L 1275 0 
L 697 0 
L 697 3053 
L 147 3053 
L 147 3500 
L 697 3500 
L 697 3744 
Q 697 4328 969 4595 
Q 1241 4863 1831 4863 
L 2375 4863 
z
" transform="scale(0.015625)"/>
       <path id="DejaVuSans-72" d="M 2631 2963 
Q 2534 3019 2420 3045 
Q 2306 3072 2169 3072 
Q 1681 3072 1420 2755 
Q 1159 2438 1159 1844 
L 1159 0 
L 581 0 
L 581 3500 
L 1159 3500 
L 1159 2956 
Q 1341 3275 1631 3429 
Q 1922 3584 2338 3584 
Q 2397 3584 2469 3576 
Q 2541 3569 2628 3553 
L 2631 2963 
z
" transform="scale(0.015625)"/>
       <path id="DejaVuSans-61" d="M 2194 1759 
Q 1497 1759 1228 1600 
Q 959 1441 959 1056 
Q 959 750 1161 570 
Q 1363 391 1709 391 
Q 2188 391 2477 730 
Q 2766 1069 2766 1631 
L 2766 1759 
L 2194 1759 
z
M 3341 1997 
L 3341 0 
L 2766 0 
L 2766 531 
Q 2569 213 2275 61 
Q 1981 -91 1556 -91 
Q 1019 -91 701 211 
Q 384 513 384 1019 
Q 384 1609 779 1909 
Q 1175 2209 1959 2209 
L 2766 2209 
L 2766 2266 
Q 2766 2663 2505 2880 
Q 2244 3097 1772 3097 
Q 1472 3097 1187 3025 
Q 903 2953 641 2809 
L 641 3341 
Q 956 3463 1253 3523 
Q 1550 3584 1831 3584 
Q 2591 3584 2966 3190 
Q 3341 2797 3341 1997 
z
" transform="scale(0.015625)"/>
       <path id="DejaVuSans-63" d="M 3122 3366 
L 3122 2828 
Q 2878 2963 2633 3030 
Q 2388 3097 2138 3097 
Q 1578 3097 1268 2742 
Q 959 2388 959 1747 
Q 959 1106 1268 751 
Q 1578 397 2138 397 
Q 2388 397 2633 464 
Q 2878 531 3122 666 
L 3122 134 
Q 2881 22 2623 -34 
Q 2366 -91 2075 -91 
Q 1284 -91 818 406 
Q 353 903 353 1747 
Q 353 2603 823 3093 
Q 1294 3584 2113 3584 
Q 2378 3584 2631 3529 
Q 2884 3475 3122 3366 
z
" transform="scale(0.015625)"/>
       <path id="DejaVuSans-6f" d="M 1959 3097 
Q 1497 3097 1228 2736 
Q 959 2375 959 1747 
Q 959 1119 1226 758 
Q 1494 397 1959 397 
Q 2419 397 2687 759 
Q 2956 1122 2956 1747 
Q 2956 2369 2687 2733 
Q 2419 3097 1959 3097 
z
M 1959 3584 
Q 2709 3584 3137 3096 
Q 3566 2609 3566 1747 
Q 3566 888 3137 398 
Q 2709 -91 1959 -91 
Q 1206 -91 779 398 
Q 353 888 353 1747 
Q 353 2609 779 3096 
Q 1206 3584 1959 3584 
z
" transform="scale(0.015625)"/>
       <path id="DejaVuSans-6e" d="M 3513 2113 
L 3513 0 
L 2938 0 
L 2938 2094 
Q 2938 2591 2744 2837 
Q 2550 3084 2163 3084 
Q 1697 3084 1428 2787 
Q 1159 2491 1159 1978 
L 1159 0 
L 581 0 
L 581 3500 
L 1159 3500 
L 1159 2956 
Q 1366 3272 1645 3428 
Q 1925 3584 2291 3584 
Q 2894 3584 3203 3211 
Q 3513 2838 3513 2113 
z
" transform="scale(0.015625)"/>
      </defs>
      <use xlink:href="#DejaVuSans-66"/>
      <use xlink:href="#DejaVuSans-72" transform="translate(35.205078 0)"/>
      <use xlink:href="#DejaVuSans-61" transform="translate(76.318359 0)"/>
      <use xlink:href="#DejaVuSans-63" transform="translate(137.597656 0)"/>
      <use xlink:href="#DejaVuSans-74" transform="translate(192.578125 0)"/>
      <use xlink:href="#DejaVuSans-69" transform="translate(231.787109 0)"/>
      <use xlink:href="#DejaVuSans-6f" transform="translate(259.570312 0)"/>
      <use xlink:href="#DejaVuSans-6e" transform="translate(320.751953 0)"/>
     </g>
    </g>
   </g>
   <g id="line2d_17">
    <path d="M 60.013977 201.673138 
L 63.271381 209.4903 
L 66.528784 216.513729 
L 68.700387 220.766029 
L 70.871989 224.686637 
L 73.043591 228.28884 
L 75.215193 231.587742 
L 77.386796 234.599739 
L 79.558398 237.342053 
L 81.73 239.832318 
L 83.901603 242.08824 
L 87.159006 245.070866 
L 90.41641 247.622411 
L 93.673813 249.796359 
L 96.931217 251.64195 
L 100.18862 253.203801 
L 103.446023 254.521806 
L 106.703427 255.631246 
L 111.046632 256.838918 
L 115.389836 257.792616 
L 120.818842 258.704566 
L 126.247848 259.378214 
L 132.762655 259.956233 
L 140.363263 260.407913 
L 150.135473 260.761516 
L 164.250888 261.019582 
L 185.966911 261.162715 
L 236.999566 261.213629 
L 384.668523 261.216 
L 384.668523 261.216 
" clip-path="url(#pb05ce2387b)" style="fill: none; stroke: #0000ff; stroke-width: 1.5; stroke-linecap: square"/>
   </g>
   <g id="line2d_18">
    <path d="M 60.013977 199.942281 
L 62.18558 206.189843 
L 64.357182 211.800394 
L 66.528784 216.838885 
L 68.700387 221.363644 
L 70.871989 225.427051 
L 73.043591 229.076147 
L 75.215193 232.353176 
L 77.386796 235.296074 
L 79.558398 237.938909 
L 81.73 240.312277 
L 83.901603 242.443653 
L 86.073205 244.35771 
L 89.330608 246.869171 
L 92.588012 249.006487 
L 95.845415 250.825397 
L 99.102819 252.373335 
L 102.360222 253.69067 
L 105.617626 254.811754 
L 109.96083 256.051148 
L 114.304035 257.050686 
L 119.733041 258.032645 
L 125.162047 258.78311 
L 131.676854 259.453995 
L 139.277462 260.006685 
L 149.049672 260.470639 
L 160.993485 260.803438 
L 178.366303 261.041479 
L 206.597133 261.17288 
L 279.345811 261.214825 
L 384.668523 261.215994 
L 384.668523 261.215994 
" clip-path="url(#pb05ce2387b)" style="fill: none; stroke-dasharray: 5.55,2.4; stroke-dashoffset: 0; stroke: #0000ff; stroke-width: 1.5"/>
   </g>
   <g id="line2d_19">
    <path d="M 60.013977 201.673138 
L 63.271381 202.79974 
L 66.528784 204.201628 
L 69.786188 205.834204 
L 74.129392 208.293453 
L 79.558398 211.6837 
L 88.244807 217.454596 
L 99.102819 224.610693 
L 105.617626 228.640874 
L 112.132433 232.387542 
L 117.561439 235.270212 
L 122.990444 237.928479 
L 128.41945 240.364144 
L 133.848456 242.584125 
L 139.277462 244.598662 
L 145.792269 246.762244 
L 152.307075 248.670722 
L 158.821882 250.347765 
L 165.336689 251.816623 
L 172.937297 253.29669 
L 180.537906 254.556263 
L 189.224315 255.763723 
L 198.996525 256.872825 
L 209.854537 257.851499 
L 221.798349 258.682532 
L 234.827963 259.36241 
L 250.029179 259.933085 
L 268.487799 260.398929 
L 292.375425 260.762993 
L 324.949459 261.015117 
L 375.982113 261.1607 
L 384.668523 261.171672 
L 384.668523 261.171672 
" clip-path="url(#pb05ce2387b)" style="fill: none; stroke: #008000; stroke-width: 1.5; stroke-linecap: square"/>
   </g>
   <g id="line2d_20">
    <path d="M 60.013977 201.768485 
L 62.18558 202.407876 
L 65.442983 203.668694 
L 68.700387 205.22068 
L 71.95779 206.99534 
L 76.300995 209.609464 
L 82.815802 213.844315 
L 99.102819 224.625039 
L 105.617626 228.639977 
L 112.132433 232.374881 
L 117.561439 235.251907 
L 122.990444 237.908267 
L 128.41945 240.345091 
L 133.848456 242.568395 
L 139.277462 244.587516 
L 145.792269 246.757183 
L 152.307075 248.671451 
L 158.821882 250.353362 
L 165.336689 251.82585 
L 172.937297 253.308491 
L 180.537906 254.568991 
L 189.224315 255.775873 
L 198.996525 256.882862 
L 209.854537 257.858193 
L 221.798349 258.685217 
L 234.827963 259.361086 
L 250.029179 259.928137 
L 268.487799 260.391331 
L 292.375425 260.754358 
L 324.949459 261.00761 
L 375.982113 261.156415 
L 384.668523 261.167873 
L 384.668523 261.167873 
" clip-path="url(#pb05ce2387b)" style="fill: none; stroke-dasharray: 5.55,2.4; stroke-dashoffset: 0; stroke: #008000; stroke-width: 1.5"/>
   </g>
   <g id="line2d_21">
    <path d="M 60.013977 201.673138 
L 63.271381 200.034829 
L 66.528784 198.676786 
L 69.786188 197.592267 
L 73.043591 196.769411 
L 76.300995 196.192624 
L 79.558398 195.843858 
L 82.815802 195.703717 
L 86.073205 195.752354 
L 90.41641 196.077063 
L 94.759614 196.658311 
L 99.102819 197.455385 
L 104.531825 198.700028 
L 109.96083 200.16338 
L 116.475637 202.135833 
L 125.162047 205.016921 
L 138.19166 209.624565 
L 165.336689 219.290048 
L 178.366303 223.653875 
L 190.310116 227.408215 
L 201.168127 230.594247 
L 212.026139 233.555113 
L 222.884151 236.289683 
L 233.742162 238.802052 
L 244.600174 241.099969 
L 256.543986 243.392207 
L 268.487799 245.453015 
L 280.431612 247.299258 
L 293.461226 249.088911 
L 307.576641 250.788407 
L 321.692056 252.265397 
L 336.893272 253.636278 
L 353.180289 254.884526 
L 370.553108 256.000021 
L 384.668523 256.76567 
L 384.668523 256.76567 
" clip-path="url(#pb05ce2387b)" style="fill: none; stroke: #ff0000; stroke-width: 1.5; stroke-linecap: square"/>
   </g>
   <g id="line2d_22">
    <path d="M 60.013977 201.536071 
L 63.271381 199.895078 
L 66.528784 198.576343 
L 69.786188 197.549824 
L 73.043591 196.787855 
L 76.300995 196.264973 
L 79.558398 195.957755 
L 82.815802 195.844663 
L 87.159006 195.961871 
L 91.502211 196.346676 
L 95.845415 196.961158 
L 101.274421 198.001147 
L 106.703427 199.289606 
L 113.218234 201.093948 
L 120.818842 203.463933 
L 130.591052 206.787014 
L 145.792269 212.244 
L 166.42249 219.609621 
L 179.452104 224.00455 
L 190.310116 227.445703 
L 201.168127 230.661456 
L 212.026139 233.642075 
L 222.884151 236.386534 
L 233.742162 238.899884 
L 244.600174 241.191275 
L 256.543986 243.469548 
L 268.487799 245.511299 
L 280.431612 247.335298 
L 293.461226 249.098963 
L 307.576641 250.770201 
L 321.692056 252.220408 
L 336.893272 253.565376 
L 353.180289 254.790141 
L 371.638909 255.948011 
L 384.668523 256.639686 
L 384.668523 256.639686 
" clip-path="url(#pb05ce2387b)" style="fill: none; stroke-dasharray: 5.55,2.4; stroke-dashoffset: 0; stroke: #ff0000; stroke-width: 1.5"/>
   </g>
   <g id="line2d_23">
    <path d="M 60.013977 201.673138 
L 64.357182 197.489009 
L 68.700387 193.619985 
L 73.043591 190.085052 
L 77.386796 186.887939 
L 81.73 184.020909 
L 86.073205 181.46842 
L 90.41641 179.210268 
L 94.759614 177.224035 
L 99.102819 175.486856 
L 103.446023 173.976585 
L 107.789228 172.67249 
L 113.218234 171.303587 
L 118.64724 170.194391 
L 124.076245 169.316363 
L 129.505251 168.644931 
L 136.020058 168.082348 
L 142.534865 167.75578 
L 149.049672 167.638799 
L 156.65028 167.737124 
L 164.250888 168.058939 
L 172.937297 168.666156 
L 181.623707 169.495571 
L 191.395917 170.656602 
L 202.253929 172.185671 
L 214.197741 174.106603 
L 227.227355 176.429277 
L 242.428571 179.365453 
L 261.972992 183.385361 
L 291.289623 189.681877 
L 341.236477 200.413263 
L 367.295704 205.762713 
L 384.668523 209.181995 
L 384.668523 209.181995 
" clip-path="url(#pb05ce2387b)" style="fill: none; stroke: #00bfbf; stroke-width: 1.5; stroke-linecap: square"/>
   </g>
   <g id="line2d_24">
    <path d="M 60.013977 200.961643 
L 64.357182 196.989769 
L 68.700387 193.359666 
L 73.043591 190.050291 
L 77.386796 187.041807 
L 81.73 184.315515 
L 86.073205 181.853793 
L 90.41641 179.640033 
L 94.759614 177.658582 
L 99.102819 175.894695 
L 103.446023 174.334473 
L 108.875029 172.650733 
L 114.304035 171.24091 
L 119.733041 170.082814 
L 125.162047 169.155862 
L 130.591052 168.440955 
L 136.020058 167.920386 
L 142.534865 167.529192 
L 149.049672 167.368146 
L 155.564479 167.413411 
L 163.165087 167.698064 
L 170.765695 168.202727 
L 179.452104 169.013 
L 188.138514 170.036725 
L 197.910724 171.402686 
L 208.768736 173.138722 
L 221.798349 175.459945 
L 236.999566 178.408758 
L 256.543986 182.445176 
L 292.375425 190.133808 
L 327.121061 197.500657 
L 352.094488 202.56721 
L 374.896312 206.965727 
L 384.668523 208.777307 
L 384.668523 208.777307 
" clip-path="url(#pb05ce2387b)" style="fill: none; stroke-dasharray: 5.55,2.4; stroke-dashoffset: 0; stroke: #00bfbf; stroke-width: 1.5"/>
   </g>
   <g id="line2d_25">
    <path d="M 60.013977 201.673138 
L 67.614585 192.11945 
L 74.129392 184.292135 
L 79.558398 178.082087 
L 84.987404 172.168813 
L 90.41641 166.544749 
L 96.931217 160.15172 
L 103.446023 154.108885 
L 109.96083 148.374912 
L 116.475637 142.911887 
L 124.076245 136.837726 
L 131.676854 131.046383 
L 140.363263 124.732552 
L 149.049672 118.708905 
L 157.736081 112.947842 
L 167.508292 106.754335 
L 177.280502 100.842772 
L 187.052712 95.193932 
L 196.824923 89.791532 
L 207.682934 84.060605 
L 218.540946 78.598907 
L 229.398958 73.390738 
L 240.256969 68.421836 
L 251.114981 63.67917 
L 263.058793 58.70931 
L 275.002606 53.984183 
L 286.946419 49.490434 
L 299.976033 44.837632 
L 313.005646 40.430874 
L 326.03526 36.256586 
L 339.064874 32.302173 
L 353.180289 28.252752 
L 367.295704 24.433684 
L 382.49692 20.56355 
L 384.668523 20.030353 
L 384.668523 20.030353 
" clip-path="url(#pb05ce2387b)" style="fill: none; stroke: #bf00bf; stroke-width: 1.5; stroke-linecap: square"/>
   </g>
   <g id="line2d_26">
    <path d="M 60.013977 200.283675 
L 66.528784 192.633498 
L 73.043591 185.299527 
L 79.558398 178.2664 
L 86.073205 171.519492 
L 93.673813 163.991304 
L 101.274421 156.812783 
L 108.875029 149.964116 
L 116.475637 143.42659 
L 124.076245 137.182527 
L 131.676854 131.215233 
L 139.277462 125.508937 
L 147.963871 119.287977 
L 156.65028 113.367565 
L 165.336689 107.728104 
L 174.023099 102.351229 
L 182.709508 97.219737 
L 192.481718 91.720084 
L 202.253929 86.489198 
L 212.026139 81.507171 
L 222.884151 76.240995 
L 233.742162 71.235739 
L 244.600174 66.46974 
L 256.543986 61.479688 
L 268.487799 56.730581 
L 281.517413 51.798342 
L 294.547027 47.099884 
L 308.662442 42.245956 
L 323.863658 37.262526 
L 340.150675 32.169679 
L 357.523494 26.981348 
L 375.982113 21.705274 
L 384.668523 19.296 
L 384.668523 19.296 
" clip-path="url(#pb05ce2387b)" style="fill: none; stroke-dasharray: 5.55,2.4; stroke-dashoffset: 0; stroke: #bf00bf; stroke-width: 1.5"/>
   </g>
   <g id="patch_3">
    <path d="M 43.78125 273.312 
L 43.78125 7.2 
" style="fill: none; stroke: #000000; stroke-width: 0.8; stroke-linejoin: miter; stroke-linecap: square"/>
   </g>
   <g id="patch_4">
    <path d="M 400.90125 273.312 
L 400.90125 7.2 
" style="fill: none; stroke: #000000; stroke-width: 0.8; stroke-linejoin: miter; stroke-linecap: square"/>
   </g>
   <g id="patch_5">
    <path d="M 43.78125 273.312 
L 400.90125 273.312 
" style="fill: none; stroke: #000000; stroke-width: 0.8; stroke-linejoin: miter; stroke-linecap: square"/>
   </g>
   <g id="patch_6">
    <path d="M 43.78125 7.2 
L 400.90125 7.2 
" style="fill: none; stroke: #000000; stroke-width: 0.8; stroke-linejoin: miter; stroke-linecap: square"/>
   </g>
   <g id="legend_1">
    <g id="patch_7">
     <path d="M 50.78125 103.26875 
L 135.090625 103.26875 
Q 137.090625 103.26875 137.090625 101.26875 
L 137.090625 14.2 
Q 137.090625 12.2 135.090625 12.2 
L 50.78125 12.2 
Q 48.78125 12.2 48.78125 14.2 
L 48.78125 101.26875 
Q 48.78125 103.26875 50.78125 103.26875 
z
" style="fill: #ffffff; opacity: 0.8; stroke: #cccccc; stroke-linejoin: miter"/>
    </g>
    <g id="text_19">
     <!-- variants -->
     <g transform="translate(72.670313 23.798437) scale(0.1 -0.1)">
      <defs>
       <path id="DejaVuSans-76" d="M 191 3500 
L 800 3500 
L 1894 563 
L 2988 3500 
L 3597 3500 
L 2284 0 
L 1503 0 
L 191 3500 
z
" transform="scale(0.015625)"/>
       <path id="DejaVuSans-73" d="M 2834 3397 
L 2834 2853 
Q 2591 2978 2328 3040 
Q 2066 3103 1784 3103 
Q 1356 3103 1142 2972 
Q 928 2841 928 2578 
Q 928 2378 1081 2264 
Q 1234 2150 1697 2047 
L 1894 2003 
Q 2506 1872 2764 1633 
Q 3022 1394 3022 966 
Q 3022 478 2636 193 
Q 2250 -91 1575 -91 
Q 1294 -91 989 -36 
Q 684 19 347 128 
L 347 722 
Q 666 556 975 473 
Q 1284 391 1588 391 
Q 1994 391 2212 530 
Q 2431 669 2431 922 
Q 2431 1156 2273 1281 
Q 2116 1406 1581 1522 
L 1381 1569 
Q 847 1681 609 1914 
Q 372 2147 372 2553 
Q 372 3047 722 3315 
Q 1072 3584 1716 3584 
Q 2034 3584 2315 3537 
Q 2597 3491 2834 3397 
z
" transform="scale(0.015625)"/>
      </defs>
      <use xlink:href="#DejaVuSans-76"/>
      <use xlink:href="#DejaVuSans-61" transform="translate(59.179688 0)"/>
      <use xlink:href="#DejaVuSans-72" transform="translate(120.458984 0)"/>
      <use xlink:href="#DejaVuSans-69" transform="translate(161.572266 0)"/>
      <use xlink:href="#DejaVuSans-61" transform="translate(189.355469 0)"/>
      <use xlink:href="#DejaVuSans-6e" transform="translate(250.634766 0)"/>
      <use xlink:href="#DejaVuSans-74" transform="translate(314.013672 0)"/>
      <use xlink:href="#DejaVuSans-73" transform="translate(353.222656 0)"/>
     </g>
    </g>
    <g id="line2d_27">
     <path d="M 52.78125 34.976562 
L 62.78125 34.976562 
L 72.78125 34.976562 
" style="fill: none; stroke: #bf00bf; stroke-width: 1.5; stroke-linecap: square"/>
    </g>
    <g id="text_20">
     <!-- score 1.00 -->
     <g transform="translate(80.78125 38.476562) scale(0.1 -0.1)">
      <defs>
       <path id="DejaVuSans-20" transform="scale(0.015625)"/>
      </defs>
      <use xlink:href="#DejaVuSans-73"/>
      <use xlink:href="#DejaVuSans-63" transform="translate(52.099609 0)"/>
      <use xlink:href="#DejaVuSans-6f" transform="translate(107.080078 0)"/>
      <use xlink:href="#DejaVuSans-72" transform="translate(168.261719 0)"/>
      <use xlink:href="#DejaVuSans-65" transform="translate(207.125 0)"/>
      <use xlink:href="#DejaVuSans-20" transform="translate(268.648438 0)"/>
      <use xlink:href="#DejaVuSans-31" transform="translate(300.435547 0)"/>
      <use xlink:href="#DejaVuSans-2e" transform="translate(364.058594 0)"/>
      <use xlink:href="#DejaVuSans-30" transform="translate(395.845703 0)"/>
      <use xlink:href="#DejaVuSans-30" transform="translate(459.46875 0)"/>
     </g>
    </g>
    <g id="line2d_28">
     <path d="M 52.78125 49.654688 
L 62.78125 49.654688 
L 72.78125 49.654688 
" style="fill: none; stroke: #00bfbf; stroke-width: 1.5; stroke-linecap: square"/>
    </g>
    <g id="text_21">
     <!-- score 0.90 -->
     <g transform="translate(80.78125 53.154688) scale(0.1 -0.1)">
      <defs>
       <path id="DejaVuSans-39" d="M 703 97 
L 703 672 
Q 941 559 1184 500 
Q 1428 441 1663 441 
Q 2288 441 2617 861 
Q 2947 1281 2994 2138 
Q 2813 1869 2534 1725 
Q 2256 1581 1919 1581 
Q 1219 1581 811 2004 
Q 403 2428 403 3163 
Q 403 3881 828 4315 
Q 1253 4750 1959 4750 
Q 2769 4750 3195 4129 
Q 3622 3509 3622 2328 
Q 3622 1225 3098 567 
Q 2575 -91 1691 -91 
Q 1453 -91 1209 -44 
Q 966 3 703 97 
z
M 1959 2075 
Q 2384 2075 2632 2365 
Q 2881 2656 2881 3163 
Q 2881 3666 2632 3958 
Q 2384 4250 1959 4250 
Q 1534 4250 1286 3958 
Q 1038 3666 1038 3163 
Q 1038 2656 1286 2365 
Q 1534 2075 1959 2075 
z
" transform="scale(0.015625)"/>
      </defs>
      <use xlink:href="#DejaVuSans-73"/>
      <use xlink:href="#DejaVuSans-63" transform="translate(52.099609 0)"/>
      <use xlink:href="#DejaVuSans-6f" transform="translate(107.080078 0)"/>
      <use xlink:href="#DejaVuSans-72" transform="translate(168.261719 0)"/>
      <use xlink:href="#DejaVuSans-65" transform="translate(207.125 0)"/>
      <use xlink:href="#DejaVuSans-20" transform="translate(268.648438 0)"/>
      <use xlink:href="#DejaVuSans-30" transform="translate(300.435547 0)"/>
      <use xlink:href="#DejaVuSans-2e" transform="translate(364.058594 0)"/>
      <use xlink:href="#DejaVuSans-39" transform="translate(395.845703 0)"/>
      <use xlink:href="#DejaVuSans-30" transform="translate(459.46875 0)"/>
     </g>
    </g>
    <g id="line2d_29">
     <path d="M 52.78125 64.332812 
L 62.78125 64.332812 
L 72.78125 64.332812 
" style="fill: none; stroke: #ff0000; stroke-width: 1.5; stroke-linecap: square"/>
    </g>
    <g id="text_22">
     <!-- score 0.75 -->
     <g transform="translate(80.78125 67.832812) scale(0.1 -0.1)">
      <use xlink:href="#DejaVuSans-73"/>
      <use xlink:href="#DejaVuSans-63" transform="translate(52.099609 0)"/>
      <use xlink:href="#DejaVuSans-6f" transform="translate(107.080078 0)"/>
      <use xlink:href="#DejaVuSans-72" transform="translate(168.261719 0)"/>
      <use xlink:href="#DejaVuSans-65" transform="translate(207.125 0)"/>
      <use xlink:href="#DejaVuSans-20" transform="translate(268.648438 0)"/>
      <use xlink:href="#DejaVuSans-30" transform="translate(300.435547 0)"/>
      <use xlink:href="#DejaVuSans-2e" transform="translate(364.058594 0)"/>
      <use xlink:href="#DejaVuSans-37" transform="translate(395.845703 0)"/>
      <use xlink:href="#DejaVuSans-35" transform="translate(459.46875 0)"/>
     </g>
    </g>
    <g id="line2d_30">
     <path d="M 52.78125 79.010938 
L 62.78125 79.010938 
L 72.78125 79.010938 
" style="fill: none; stroke: #008000; stroke-width: 1.5; stroke-linecap: square"/>
    </g>
    <g id="text_23">
     <!-- score 0.50 -->
     <g transform="translate(80.78125 82.510938) scale(0.1 -0.1)">
      <use xlink:href="#DejaVuSans-73"/>
      <use xlink:href="#DejaVuSans-63" transform="translate(52.099609 0)"/>
      <use xlink:href="#DejaVuSans-6f" transform="translate(107.080078 0)"/>
      <use xlink:href="#DejaVuSans-72" transform="translate(168.261719 0)"/>
      <use xlink:href="#DejaVuSans-65" transform="translate(207.125 0)"/>
      <use xlink:href="#DejaVuSans-20" transform="translate(268.648438 0)"/>
      <use xlink:href="#DejaVuSans-30" transform="translate(300.435547 0)"/>
      <use xlink:href="#DejaVuSans-2e" transform="translate(364.058594 0)"/>
      <use xlink:href="#DejaVuSans-35" transform="translate(395.845703 0)"/>
      <use xlink:href="#DejaVuSans-30" transform="translate(459.46875 0)"/>
     </g>
    </g>
    <g id="line2d_31">
     <path d="M 52.78125 93.689063 
L 62.78125 93.689063 
L 72.78125 93.689063 
" style="fill: none; stroke: #0000ff; stroke-width: 1.5; stroke-linecap: square"/>
    </g>
    <g id="text_24">
     <!-- score 0.00 -->
     <g transform="translate(80.78125 97.189063) scale(0.1 -0.1)">
      <use xlink:href="#DejaVuSans-73"/>
      <use xlink:href="#DejaVuSans-63" transform="translate(52.099609 0)"/>
      <use xlink:href="#DejaVuSans-6f" transform="translate(107.080078 0)"/>
      <use xlink:href="#DejaVuSans-72" transform="translate(168.261719 0)"/>
      <use xlink:href="#DejaVuSans-65" transform="translate(207.125 0)"/>
      <use xlink:href="#DejaVuSans-20" transform="translate(268.648438 0)"/>
      <use xlink:href="#DejaVuSans-30" transform="translate(300.435547 0)"/>
      <use xlink:href="#DejaVuSans-2e" transform="translate(364.058594 0)"/>
      <use xlink:href="#DejaVuSans-30" transform="translate(395.845703 0)"/>
      <use xlink:href="#DejaVuSans-30" transform="translate(459.46875 0)"/>
     </g>
    </g>
   </g>
  </g>
 </g>
 <defs>
  <clipPath id="pb05ce2387b">
   <rect x="43.78125" y="7.2" width="357.12" height="266.112"/>
  </clipPath>
 </defs>
</svg>
