<?xml version="1.0" encoding="utf-8" standalone="no"?>
<!DOCTYPE svg PUBLIC "-//W3C//DTD SVG 1.1//EN"
  "http://www.w3.org/Graphics/SVG/1.1/DTD/svg11.dtd">
<svg xmlns:xlink="http://www.w3.org/1999/xlink" width="440.39952pt" height="728.39952pt" viewBox="0 0 440.39952 728.39952" xmlns="http://www.w3.org/2000/svg" version="1.1">
 <metadata>
  <rdf:RDF xmlns:dc="http://purl.org/dc/elements/1.1/" xmlns:cc="http://creativecommons.org/ns#" xmlns:rdf="http://www.w3.org/1999/02/22-rdf-syntax-ns#">
   <cc:Work>
    <dc:type rdf:resource="http://purl.org/dc/dcmitype/StillImage"/>
    <dc:date>2025-10-01T12:15:02.189509</dc:date>
    <dc:format>image/svg+xml</dc:format>
    <dc:creator>
     <cc:Agent>
      <dc:title>Matplotlib v3.10.6, https://matplotlib.org/</dc:title>
     </cc:Agent>
    </dc:creator>
   </cc:Work>
  </rdf:RDF>
 </metadata>
 <defs>
  <style type="text/css">*{stroke-linejoin: round; stroke-linecap: butt}</style>
 </defs>
 <g id="figure_1">
  <g id="patch_1">
   <path d="M 0 728.39952 
L 440.39952 728.39952 
L 440.39952 0 
L 0 0 
z
" style="fill: #ffffff"/>
  </g>
  <g id="axes_1">
   <g id="patch_2">
    <path d="M 44.210938 330.24351 
L 433.19952 330.24351 
L 433.19952 22.318125 
L 44.210938 22.318125 
z
" style="fill: #ffffff"/>
   </g>
   <g id="matplotlib.axis_1">
    <g id="xtick_1">
     <g id="line2d_1">
      <defs>
       <path id="m60fdb2a284" d="M 0 0 
L 0 3.5 
" style="stroke: #000000; stroke-width: 0.8"/>
      </defs>
      <g>
       <use xlink:href="#m60fdb2a284" x="61.892237" y="330.24351" style="stroke: #000000; stroke-width: 0.8"/>
      </g>
     </g>
     <g id="text_1">
      <!-- 4 -->
      <g transform="translate(58.710987 344.841947) scale(0.1 -0.1)">
       <defs>
        <path id="DejaVuSans-34" d="M 2419 4116 
L 825 1625 
L 2419 1625 
L 2419 4116 
z
M 2253 4666 
L 3047 4666 
L 3047 1625 
L 3713 1625 
L 3713 1100 
L 3047 1100 
L 3047 0 
L 2419 0 
L 2419 1100 
L 313 1100 
L 313 1709 
L 2253 4666 
z
" transform="scale(0.015625)"/>
       </defs>
       <use xlink:href="#DejaVuSans-34"/>
      </g>
     </g>
    </g>
    <g id="xtick_2">
     <g id="line2d_2">
      <g>
       <use xlink:href="#m60fdb2a284" x="82.693765" y="330.24351" style="stroke: #000000; stroke-width: 0.8"/>
      </g>
     </g>
     <g id="text_2">
      <!-- 8 -->
      <g transform="translate(79.512515 344.841947) scale(0.1 -0.1)">
       <defs>
        <path id="DejaVuSans-38" d="M 2034 2216 
Q 1584 2216 1326 1975 
Q 1069 1734 1069 1313 
Q 1069 891 1326 650 
Q 1584 409 2034 409 
Q 2484 409 2743 651 
Q 3003 894 3003 1313 
Q 3003 1734 2745 1975 
Q 2488 2216 2034 2216 
z
M 1403 2484 
Q 997 2584 770 2862 
Q 544 3141 544 3541 
Q 544 4100 942 4425 
Q 1341 4750 2034 4750 
Q 2731 4750 3128 4425 
Q 3525 4100 3525 3541 
Q 3525 3141 3298 2862 
Q 3072 2584 2669 2484 
Q 3125 2378 3379 2068 
Q 3634 1759 3634 1313 
Q 3634 634 3220 271 
Q 2806 -91 2034 -91 
Q 1263 -91 848 271 
Q 434 634 434 1313 
Q 434 1759 690 2068 
Q 947 2378 1403 2484 
z
M 1172 3481 
Q 1172 3119 1398 2916 
Q 1625 2713 2034 2713 
Q 2441 2713 2670 2916 
Q 2900 3119 2900 3481 
Q 2900 3844 2670 4047 
Q 2441 4250 2034 4250 
Q 1625 4250 1398 4047 
Q 1172 3844 1172 3481 
z
" transform="scale(0.015625)"/>
       </defs>
       <use xlink:href="#DejaVuSans-38"/>
      </g>
     </g>
    </g>
    <g id="xtick_3">
     <g id="line2d_3">
      <g>
       <use xlink:href="#m60fdb2a284" x="103.495294" y="330.24351" style="stroke: #000000; stroke-width: 0.8"/>
      </g>
     </g>
     <g id="text_3">
      <!-- 12 -->
      <g transform="translate(97.132794 344.841947) scale(0.1 -0.1)">
       <defs>
        <path id="DejaVuSans-31" d="M 794 531 
L 1825 531 
L 1825 4091 
L 703 3866 
L 703 4441 
L 1819 4666 
L 2450 4666 
L 2450 531 
L 3481 531 
L 3481 0 
L 794 0 
L 794 531 
z
" transform="scale(0.015625)"/>
        <path id="DejaVuSans-32" d="M 1228 531 
L 3431 531 
L 3431 0 
L 469 0 
L 469 531 
Q 828 903 1448 1529 
Q 2069 2156 2228 2338 
Q 2531 2678 2651 2914 
Q 2772 3150 2772 3378 
Q 2772 3750 2511 3984 
Q 2250 4219 1831 4219 
Q 1534 4219 1204 4116 
Q 875 4013 500 3803 
L 500 4441 
Q 881 4594 1212 4672 
Q 1544 4750 1819 4750 
Q 2544 4750 2975 4387 
Q 3406 4025 3406 3419 
Q 3406 3131 3298 2873 
Q 3191 2616 2906 2266 
Q 2828 2175 2409 1742 
Q 1991 1309 1228 531 
z
" transform="scale(0.015625)"/>
       </defs>
       <use xlink:href="#DejaVuSans-31"/>
       <use xlink:href="#DejaVuSans-32" transform="translate(63.623047 0)"/>
      </g>
     </g>
    </g>
    <g id="xtick_4">
     <g id="line2d_4">
      <g>
       <use xlink:href="#m60fdb2a284" x="124.296822" y="330.24351" style="stroke: #000000; stroke-width: 0.8"/>
      </g>
     </g>
     <g id="text_4">
      <!-- 16 -->
      <g transform="translate(117.934322 344.841947) scale(0.1 -0.1)">
       <defs>
        <path id="DejaVuSans-36" d="M 2113 2584 
Q 1688 2584 1439 2293 
Q 1191 2003 1191 1497 
Q 1191 994 1439 701 
Q 1688 409 2113 409 
Q 2538 409 2786 701 
Q 3034 994 3034 1497 
Q 3034 2003 2786 2293 
Q 2538 2584 2113 2584 
z
M 3366 4563 
L 3366 3988 
Q 3128 4100 2886 4159 
Q 2644 4219 2406 4219 
Q 1781 4219 1451 3797 
Q 1122 3375 1075 2522 
Q 1259 2794 1537 2939 
Q 1816 3084 2150 3084 
Q 2853 3084 3261 2657 
Q 3669 2231 3669 1497 
Q 3669 778 3244 343 
Q 2819 -91 2113 -91 
Q 1303 -91 875 529 
Q 447 1150 447 2328 
Q 447 3434 972 4092 
Q 1497 4750 2381 4750 
Q 2619 4750 2861 4703 
Q 3103 4656 3366 4563 
z
" transform="scale(0.015625)"/>
       </defs>
       <use xlink:href="#DejaVuSans-31"/>
       <use xlink:href="#DejaVuSans-36" transform="translate(63.623047 0)"/>
      </g>
     </g>
    </g>
    <g id="xtick_5">
     <g id="line2d_5">
      <g>
       <use xlink:href="#m60fdb2a284" x="165.899879" y="330.24351" style="stroke: #000000; stroke-width: 0.8"/>
      </g>
     </g>
     <g id="text_5">
      <!-- 24 -->
      <g transform="translate(159.537379 344.841947) scale(0.1 -0.1)">
       <use xlink:href="#DejaVuSans-32"/>
       <use xlink:href="#DejaVuSans-34" transform="translate(63.623047 0)"/>
      </g>
     </g>
    </g>
    <g id="xtick_6">
     <g id="line2d_6">
      <g>
       <use xlink:href="#m60fdb2a284" x="228.304465" y="330.24351" style="stroke: #000000; stroke-width: 0.8"/>
      </g>
     </g>
     <g id="text_6">
      <!-- 36 -->
      <g transform="translate(221.941965 344.841947) scale(0.1 -0.1)">
       <defs>
        <path id="DejaVuSans-33" d="M 2597 2516 
Q 3050 2419 3304 2112 
Q 3559 1806 3559 1356 
Q 3559 666 3084 287 
Q 2609 -91 1734 -91 
Q 1441 -91 1130 -33 
Q 819 25 488 141 
L 488 750 
Q 750 597 1062 519 
Q 1375 441 1716 441 
Q 2309 441 2620 675 
Q 2931 909 2931 1356 
Q 2931 1769 2642 2001 
Q 2353 2234 1838 2234 
L 1294 2234 
L 1294 2753 
L 1863 2753 
Q 2328 2753 2575 2939 
Q 2822 3125 2822 3475 
Q 2822 3834 2567 4026 
Q 2313 4219 1838 4219 
Q 1578 4219 1281 4162 
Q 984 4106 628 3988 
L 628 4550 
Q 988 4650 1302 4700 
Q 1616 4750 1894 4750 
Q 2613 4750 3031 4423 
Q 3450 4097 3450 3541 
Q 3450 3153 3228 2886 
Q 3006 2619 2597 2516 
z
" transform="scale(0.015625)"/>
       </defs>
       <use xlink:href="#DejaVuSans-33"/>
       <use xlink:href="#DejaVuSans-36" transform="translate(63.623047 0)"/>
      </g>
     </g>
    </g>
    <g id="xtick_7">
     <g id="line2d_7">
      <g>
       <use xlink:href="#m60fdb2a284" x="290.70905" y="330.24351" style="stroke: #000000; stroke-width: 0.8"/>
      </g>
     </g>
     <g id="text_7">
      <!-- 48 -->
      <g transform="translate(284.34655 344.841947) scale(0.1 -0.1)">
       <use xlink:href="#DejaVuSans-34"/>
       <use xlink:href="#DejaVuSans-38" transform="translate(63.623047 0)"/>
      </g>
     </g>
    </g>
    <g id="xtick_8">
     <g id="line2d_8">
      <g>
       <use xlink:href="#m60fdb2a284" x="353.113635" y="330.24351" style="stroke: #000000; stroke-width: 0.8"/>
      </g>
     </g>
     <g id="text_8">
      <!-- 60 -->
      <g transform="translate(346.751135 344.841947) scale(0.1 -0.1)">
       <defs>
        <path id="DejaVuSans-30" d="M 2034 4250 
Q 1547 4250 1301 3770 
Q 1056 3291 1056 2328 
Q 1056 1369 1301 889 
Q 1547 409 2034 409 
Q 2525 409 2770 889 
Q 3016 1369 3016 2328 
Q 3016 3291 2770 3770 
Q 2525 4250 2034 4250 
z
M 2034 4750 
Q 2819 4750 3233 4129 
Q 3647 3509 3647 2328 
Q 3647 1150 3233 529 
Q 2819 -91 2034 -91 
Q 1250 -91 836 529 
Q 422 1150 422 2328 
Q 422 3509 836 4129 
Q 1250 4750 2034 4750 
z
" transform="scale(0.015625)"/>
       </defs>
       <use xlink:href="#DejaVuSans-36"/>
       <use xlink:href="#DejaVuSans-30" transform="translate(63.623047 0)"/>
      </g>
     </g>
    </g>
    <g id="xtick_9">
     <g id="line2d_9">
      <g>
       <use xlink:href="#m60fdb2a284" x="415.518221" y="330.24351" style="stroke: #000000; stroke-width: 0.8"/>
      </g>
     </g>
     <g id="text_9">
      <!-- 72 -->
      <g transform="translate(409.155721 344.841947) scale(0.1 -0.1)">
       <defs>
        <path id="DejaVuSans-37" d="M 525 4666 
L 3525 4666 
L 3525 4397 
L 1831 0 
L 1172 0 
L 2766 4134 
L 525 4134 
L 525 4666 
z
" transform="scale(0.015625)"/>
       </defs>
       <use xlink:href="#DejaVuSans-37"/>
       <use xlink:href="#DejaVuSans-32" transform="translate(63.623047 0)"/>
      </g>
     </g>
    </g>
    <g id="text_10">
     <!-- time (h) -->
     <g transform="translate(218.74976 358.520072) scale(0.1 -0.1)">
      <defs>
       <path id="DejaVuSans-74" d="M 1172 4494 
L 1172 3500 
L 2356 3500 
L 2356 3053 
L 1172 3053 
L 1172 1153 
Q 1172 725 1289 603 
Q 1406 481 1766 481 
L 2356 481 
L 2356 0 
L 1766 0 
Q 1100 0 847 248 
Q 594 497 594 1153 
L 594 3053 
L 172 3053 
L 172 3500 
L 594 3500 
L 594 4494 
L 1172 4494 
z
" transform="scale(0.015625)"/>
       <path id="DejaVuSans-69" d="M 603 3500 
L 1178 3500 
L 1178 0 
L 603 0 
L 603 3500 
z
M 603 4863 
L 1178 4863 
L 1178 4134 
L 603 4134 
L 603 4863 
z
" transform="scale(0.015625)"/>
       <path id="DejaVuSans-6d" d="M 3328 2828 
Q 3544 3216 3844 3400 
Q 4144 3584 4550 3584 
Q 5097 3584 5394 3201 
Q 5691 2819 5691 2113 
L 5691 0 
L 5113 0 
L 5113 2094 
Q 5113 2597 4934 2840 
Q 4756 3084 4391 3084 
Q 3944 3084 3684 2787 
Q 3425 2491 3425 1978 
L 3425 0 
L 2847 0 
L 2847 2094 
Q 2847 2600 2669 2842 
Q 2491 3084 2119 3084 
Q 1678 3084 1418 2786 
Q 1159 2488 1159 1978 
L 1159 0 
L 581 0 
L 581 3500 
L 1159 3500 
L 1159 2956 
Q 1356 3278 1631 3431 
Q 1906 3584 2284 3584 
Q 2666 3584 2933 3390 
Q 3200 3197 3328 2828 
z
" transform="scale(0.015625)"/>
       <path id="DejaVuSans-65" d="M 3597 1894 
L 3597 1613 
L 953 1613 
Q 991 1019 1311 708 
Q 1631 397 2203 397 
Q 2534 397 2845 478 
Q 3156 559 3463 722 
L 3463 178 
Q 3153 47 2828 -22 
Q 2503 -91 2169 -91 
Q 1331 -91 842 396 
Q 353 884 353 1716 
Q 353 2575 817 3079 
Q 1281 3584 2069 3584 
Q 2775 3584 3186 3129 
Q 3597 2675 3597 1894 
z
M 3022 2063 
Q 3016 2534 2758 2815 
Q 2500 3097 2075 3097 
Q 1594 3097 1305 2825 
Q 1016 2553 972 2059 
L 3022 2063 
z
" transform="scale(0.015625)"/>
       <path id="DejaVuSans-20" transform="scale(0.015625)"/>
       <path id="DejaVuSans-28" d="M 1984 4856 
Q 1566 4138 1362 3434 
Q 1159 2731 1159 2009 
Q 1159 1288 1364 580 
Q 1569 -128 1984 -844 
L 1484 -844 
Q 1016 -109 783 600 
Q 550 1309 550 2009 
Q 550 2706 781 3412 
Q 1013 4119 1484 4856 
L 1984 4856 
z
" transform="scale(0.015625)"/>
       <path id="DejaVuSans-68" d="M 3513 2113 
L 3513 0 
L 2938 0 
L 2938 2094 
Q 2938 2591 2744 2837 
Q 2550 3084 2163 3084 
Q 1697 3084 1428 2787 
Q 1159 2491 1159 1978 
L 1159 0 
L 581 0 
L 581 4863 
L 1159 4863 
L 1159 2956 
Q 1366 3272 1645 3428 
Q 1925 3584 2291 3584 
Q 2894 3584 3203 3211 
Q 3513 2838 3513 2113 
z
" transform="scale(0.015625)"/>
       <path id="DejaVuSans-29" d="M 513 4856 
L 1013 4856 
Q 1481 4119 1714 3412 
Q 1947 2706 1947 2009 
Q 1947 1309 1714 600 
Q 1481 -109 1013 -844 
L 513 -844 
Q 928 -128 1133 580 
Q 1338 1288 1338 2009 
Q 1338 2731 1133 3434 
Q 928 4138 513 4856 
z
" transform="scale(0.015625)"/>
      </defs>
      <use xlink:href="#DejaVuSans-74"/>
      <use xlink:href="#DejaVuSans-69" transform="translate(39.208984 0)"/>
      <use xlink:href="#DejaVuSans-6d" transform="translate(66.992188 0)"/>
      <use xlink:href="#DejaVuSans-65" transform="translate(164.404297 0)"/>
      <use xlink:href="#DejaVuSans-20" transform="translate(225.927734 0)"/>
      <use xlink:href="#DejaVuSans-28" transform="translate(257.714844 0)"/>
      <use xlink:href="#DejaVuSans-68" transform="translate(296.728516 0)"/>
      <use xlink:href="#DejaVuSans-29" transform="translate(360.107422 0)"/>
     </g>
    </g>
   </g>
   <g id="matplotlib.axis_2">
    <g id="ytick_1">
     <g id="line2d_10">
      <defs>
       <path id="m8f326834ee" d="M 0 0 
L -3.5 0 
" style="stroke: #000000; stroke-width: 0.8"/>
      </defs>
      <g>
       <use xlink:href="#m8f326834ee" x="44.210938" y="288.341525" style="stroke: #000000; stroke-width: 0.8"/>
      </g>
     </g>
     <g id="text_11">
      <!-- 0 -->
      <g transform="translate(30.848437 292.140744) scale(0.1 -0.1)">
       <use xlink:href="#DejaVuSans-30"/>
      </g>
     </g>
    </g>
    <g id="ytick_2">
     <g id="line2d_11">
      <g>
       <use xlink:href="#m8f326834ee" x="44.210938" y="246.435526" style="stroke: #000000; stroke-width: 0.8"/>
      </g>
     </g>
     <g id="text_12">
      <!-- 10 -->
      <g transform="translate(24.485937 250.234745) scale(0.1 -0.1)">
       <use xlink:href="#DejaVuSans-31"/>
       <use xlink:href="#DejaVuSans-30" transform="translate(63.623047 0)"/>
      </g>
     </g>
    </g>
    <g id="ytick_3">
     <g id="line2d_12">
      <g>
       <use xlink:href="#m8f326834ee" x="44.210938" y="204.529527" style="stroke: #000000; stroke-width: 0.8"/>
      </g>
     </g>
     <g id="text_13">
      <!-- 20 -->
      <g transform="translate(24.485937 208.328745) scale(0.1 -0.1)">
       <use xlink:href="#DejaVuSans-32"/>
       <use xlink:href="#DejaVuSans-30" transform="translate(63.623047 0)"/>
      </g>
     </g>
    </g>
    <g id="ytick_4">
     <g id="line2d_13">
      <g>
       <use xlink:href="#m8f326834ee" x="44.210938" y="162.623527" style="stroke: #000000; stroke-width: 0.8"/>
      </g>
     </g>
     <g id="text_14">
      <!-- 30 -->
      <g transform="translate(24.485937 166.422746) scale(0.1 -0.1)">
       <use xlink:href="#DejaVuSans-33"/>
       <use xlink:href="#DejaVuSans-30" transform="translate(63.623047 0)"/>
      </g>
     </g>
    </g>
    <g id="ytick_5">
     <g id="line2d_14">
      <g>
       <use xlink:href="#m8f326834ee" x="44.210938" y="120.717528" style="stroke: #000000; stroke-width: 0.8"/>
      </g>
     </g>
     <g id="text_15">
      <!-- 40 -->
      <g transform="translate(24.485937 124.516747) scale(0.1 -0.1)">
       <use xlink:href="#DejaVuSans-34"/>
       <use xlink:href="#DejaVuSans-30" transform="translate(63.623047 0)"/>
      </g>
     </g>
    </g>
    <g id="ytick_6">
     <g id="line2d_15">
      <g>
       <use xlink:href="#m8f326834ee" x="44.210938" y="78.811529" style="stroke: #000000; stroke-width: 0.8"/>
      </g>
     </g>
     <g id="text_16">
      <!-- 50 -->
      <g transform="translate(24.485937 82.610747) scale(0.1 -0.1)">
       <defs>
        <path id="DejaVuSans-35" d="M 691 4666 
L 3169 4666 
L 3169 4134 
L 1269 4134 
L 1269 2991 
Q 1406 3038 1543 3061 
Q 1681 3084 1819 3084 
Q 2600 3084 3056 2656 
Q 3513 2228 3513 1497 
Q 3513 744 3044 326 
Q 2575 -91 1722 -91 
Q 1428 -91 1123 -41 
Q 819 9 494 109 
L 494 744 
Q 775 591 1075 516 
Q 1375 441 1709 441 
Q 2250 441 2565 725 
Q 2881 1009 2881 1497 
Q 2881 1984 2565 2268 
Q 2250 2553 1709 2553 
Q 1456 2553 1204 2497 
Q 953 2441 691 2322 
L 691 4666 
z
" transform="scale(0.015625)"/>
       </defs>
       <use xlink:href="#DejaVuSans-35"/>
       <use xlink:href="#DejaVuSans-30" transform="translate(63.623047 0)"/>
      </g>
     </g>
    </g>
    <g id="ytick_7">
     <g id="line2d_16">
      <g>
       <use xlink:href="#m8f326834ee" x="44.210938" y="36.905529" style="stroke: #000000; stroke-width: 0.8"/>
      </g>
     </g>
     <g id="text_17">
      <!-- 60 -->
      <g transform="translate(24.485937 40.704748) scale(0.1 -0.1)">
       <use xlink:href="#DejaVuSans-36"/>
       <use xlink:href="#DejaVuSans-30" transform="translate(63.623047 0)"/>
      </g>
     </g>
    </g>
    <g id="text_18">
     <!-- fraction (ppm) -->
     <g transform="translate(18.40625 212.196442) rotate(-90) scale(0.1 -0.1)">
      <defs>
       <path id="DejaVuSans-66" d="M 2375 4863 
L 2375 4384 
L 1825 4384 
Q 1516 4384 1395 4259 
Q 1275 4134 1275 3809 
L 1275 3500 
L 2222 3500 
L 2222 3053 
L 1275 3053 
L 1275 0 
L 697 0 
L 697 3053 
L 147 3053 
L 147 3500 
L 697 3500 
L 697 3744 
Q 697 4328 969 4595 
Q 1241 4863 1831 4863 
L 2375 4863 
z
" transform="scale(0.015625)"/>
       <path id="DejaVuSans-72" d="M 2631 2963 
Q 2534 3019 2420 3045 
Q 2306 3072 2169 3072 
Q 1681 3072 1420 2755 
Q 1159 2438 1159 1844 
L 1159 0 
L 581 0 
L 581 3500 
L 1159 3500 
L 1159 2956 
Q 1341 3275 1631 3429 
Q 1922 3584 2338 3584 
Q 2397 3584 2469 3576 
Q 2541 3569 2628 3553 
L 2631 2963 
z
" transform="scale(0.015625)"/>
       <path id="DejaVuSans-61" d="M 2194 1759 
Q 1497 1759 1228 1600 
Q 959 1441 959 1056 
Q 959 750 1161 570 
Q 1363 391 1709 391 
Q 2188 391 2477 730 
Q 2766 1069 2766 1631 
L 2766 1759 
L 2194 1759 
z
M 3341 1997 
L 3341 0 
L 2766 0 
L 2766 531 
Q 2569 213 2275 61 
Q 1981 -91 1556 -91 
Q 1019 -91 701 211 
Q 384 513 384 1019 
Q 384 1609 779 1909 
Q 1175 2209 1959 2209 
L 2766 2209 
L 2766 2266 
Q 2766 2663 2505 2880 
Q 2244 3097 1772 3097 
Q 1472 3097 1187 3025 
Q 903 2953 641 2809 
L 641 3341 
Q 956 3463 1253 3523 
Q 1550 3584 1831 3584 
Q 2591 3584 2966 3190 
Q 3341 2797 3341 1997 
z
" transform="scale(0.015625)"/>
       <path id="DejaVuSans-63" d="M 3122 3366 
L 3122 2828 
Q 2878 2963 2633 3030 
Q 2388 3097 2138 3097 
Q 1578 3097 1268 2742 
Q 959 2388 959 1747 
Q 959 1106 1268 751 
Q 1578 397 2138 397 
Q 2388 397 2633 464 
Q 2878 531 3122 666 
L 3122 134 
Q 2881 22 2623 -34 
Q 2366 -91 2075 -91 
Q 1284 -91 818 406 
Q 353 903 353 1747 
Q 353 2603 823 3093 
Q 1294 3584 2113 3584 
Q 2378 3584 2631 3529 
Q 2884 3475 3122 3366 
z
" transform="scale(0.015625)"/>
       <path id="DejaVuSans-6f" d="M 1959 3097 
Q 1497 3097 1228 2736 
Q 959 2375 959 1747 
Q 959 1119 1226 758 
Q 1494 397 1959 397 
Q 2419 397 2687 759 
Q 2956 1122 2956 1747 
Q 2956 2369 2687 2733 
Q 2419 3097 1959 3097 
z
M 1959 3584 
Q 2709 3584 3137 3096 
Q 3566 2609 3566 1747 
Q 3566 888 3137 398 
Q 2709 -91 1959 -91 
Q 1206 -91 779 398 
Q 353 888 353 1747 
Q 353 2609 779 3096 
Q 1206 3584 1959 3584 
z
" transform="scale(0.015625)"/>
       <path id="DejaVuSans-6e" d="M 3513 2113 
L 3513 0 
L 2938 0 
L 2938 2094 
Q 2938 2591 2744 2837 
Q 2550 3084 2163 3084 
Q 1697 3084 1428 2787 
Q 1159 2491 1159 1978 
L 1159 0 
L 581 0 
L 581 3500 
L 1159 3500 
L 1159 2956 
Q 1366 3272 1645 3428 
Q 1925 3584 2291 3584 
Q 2894 3584 3203 3211 
Q 3513 2838 3513 2113 
z
" transform="scale(0.015625)"/>
       <path id="DejaVuSans-70" d="M 1159 525 
L 1159 -1331 
L 581 -1331 
L 581 3500 
L 1159 3500 
L 1159 2969 
Q 1341 3281 1617 3432 
Q 1894 3584 2278 3584 
Q 2916 3584 3314 3078 
Q 3713 2572 3713 1747 
Q 3713 922 3314 415 
Q 2916 -91 2278 -91 
Q 1894 -91 1617 61 
Q 1341 213 1159 525 
z
M 3116 1747 
Q 3116 2381 2855 2742 
Q 2594 3103 2138 3103 
Q 1681 3103 1420 2742 
Q 1159 2381 1159 1747 
Q 1159 1113 1420 752 
Q 1681 391 2138 391 
Q 2594 391 2855 752 
Q 3116 1113 3116 1747 
z
" transform="scale(0.015625)"/>
      </defs>
      <use xlink:href="#DejaVuSans-66"/>
      <use xlink:href="#DejaVuSans-72" transform="translate(35.205078 0)"/>
      <use xlink:href="#DejaVuSans-61" transform="translate(76.318359 0)"/>
      <use xlink:href="#DejaVuSans-63" transform="translate(137.597656 0)"/>
      <use xlink:href="#DejaVuSans-74" transform="translate(192.578125 0)"/>
      <use xlink:href="#DejaVuSans-69" transform="translate(231.787109 0)"/>
      <use xlink:href="#DejaVuSans-6f" transform="translate(259.570312 0)"/>
      <use xlink:href="#DejaVuSans-6e" transform="translate(320.751953 0)"/>
      <use xlink:href="#DejaVuSans-20" transform="translate(384.130859 0)"/>
      <use xlink:href="#DejaVuSans-28" transform="translate(415.917969 0)"/>
      <use xlink:href="#DejaVuSans-70" transform="translate(454.931641 0)"/>
      <use xlink:href="#DejaVuSans-70" transform="translate(518.408203 0)"/>
      <use xlink:href="#DejaVuSans-6d" transform="translate(581.884766 0)"/>
      <use xlink:href="#DejaVuSans-29" transform="translate(679.296875 0)"/>
     </g>
    </g>
   </g>
   <g id="line2d_17">
    <path d="M 61.892237 152.492593 
L 82.693765 193.858841 
L 103.495294 185.967623 
L 124.296822 222.513632 
L 165.899879 266.228455 
L 228.304465 272.192653 
L 290.70905 288.341525 
L 353.113635 288.341525 
L 415.518221 287.303416 
" clip-path="url(#p3bb9b86c58)" style="fill: none; stroke-dasharray: 1.5,2.475; stroke-dashoffset: 0; stroke: #0000ff; stroke-width: 1.5"/>
    <defs>
     <path id="m0063efe7aa" d="M 0 3 
C 0.795609 3 1.55874 2.683901 2.12132 2.12132 
C 2.683901 1.55874 3 0.795609 3 0 
C 3 -0.795609 2.683901 -1.55874 2.12132 -2.12132 
C 1.55874 -2.683901 0.795609 -3 0 -3 
C -0.795609 -3 -1.55874 -2.683901 -2.12132 -2.12132 
C -2.683901 -1.55874 -3 -0.795609 -3 0 
C -3 0.795609 -2.683901 1.55874 -2.12132 2.12132 
C -1.55874 2.683901 -0.795609 3 0 3 
z
" style="stroke: #0000ff"/>
    </defs>
    <g clip-path="url(#p3bb9b86c58)">
     <use xlink:href="#m0063efe7aa" x="61.892237" y="152.492593" style="fill: #0000ff; stroke: #0000ff"/>
     <use xlink:href="#m0063efe7aa" x="82.693765" y="193.858841" style="fill: #0000ff; stroke: #0000ff"/>
     <use xlink:href="#m0063efe7aa" x="103.495294" y="185.967623" style="fill: #0000ff; stroke: #0000ff"/>
     <use xlink:href="#m0063efe7aa" x="124.296822" y="222.513632" style="fill: #0000ff; stroke: #0000ff"/>
     <use xlink:href="#m0063efe7aa" x="165.899879" y="266.228455" style="fill: #0000ff; stroke: #0000ff"/>
     <use xlink:href="#m0063efe7aa" x="228.304465" y="272.192653" style="fill: #0000ff; stroke: #0000ff"/>
     <use xlink:href="#m0063efe7aa" x="290.70905" y="288.341525" style="fill: #0000ff; stroke: #0000ff"/>
     <use xlink:href="#m0063efe7aa" x="353.113635" y="288.341525" style="fill: #0000ff; stroke: #0000ff"/>
     <use xlink:href="#m0063efe7aa" x="415.518221" y="287.303416" style="fill: #0000ff; stroke: #0000ff"/>
    </g>
   </g>
   <g id="line2d_18">
    <path d="M 61.892237 188.936105 
L 82.693765 196.424976 
L 103.495294 203.913846 
L 124.296822 211.402716 
L 165.899879 226.380457 
L 228.304465 248.847068 
L 290.70905 271.313679 
L 353.113635 293.78029 
L 415.518221 316.246902 
" clip-path="url(#p3bb9b86c58)" style="fill: none; stroke: #0000ff; stroke-width: 1.5; stroke-linecap: square"/>
   </g>
   <g id="line2d_19">
    <path d="M 61.892237 118.53036 
L 82.693765 80.47962 
L 103.495294 106.115979 
L 124.296822 88.977048 
L 165.899879 181.461688 
L 228.304465 136.54213 
L 290.70905 100.147531 
L 353.113635 172.702387 
L 415.518221 205.292827 
" clip-path="url(#p3bb9b86c58)" style="fill: none; stroke-dasharray: 1.5,2.475; stroke-dashoffset: 0; stroke: #008000; stroke-width: 1.5"/>
    <defs>
     <path id="m81bd30e609" d="M 0 3 
C 0.795609 3 1.55874 2.683901 2.12132 2.12132 
C 2.683901 1.55874 3 0.795609 3 0 
C 3 -0.795609 2.683901 -1.55874 2.12132 -2.12132 
C 1.55874 -2.683901 0.795609 -3 0 -3 
C -0.795609 -3 -1.55874 -2.683901 -2.12132 -2.12132 
C -2.683901 -1.55874 -3 -0.795609 -3 0 
C -3 0.795609 -2.683901 1.55874 -2.12132 2.12132 
C -1.55874 2.683901 -0.795609 3 0 3 
z
" style="stroke: #008000"/>
    </defs>
    <g clip-path="url(#p3bb9b86c58)">
     <use xlink:href="#m81bd30e609" x="61.892237" y="118.53036" style="fill: #008000; stroke: #008000"/>
     <use xlink:href="#m81bd30e609" x="82.693765" y="80.47962" style="fill: #008000; stroke: #008000"/>
     <use xlink:href="#m81bd30e609" x="103.495294" y="106.115979" style="fill: #008000; stroke: #008000"/>
     <use xlink:href="#m81bd30e609" x="124.296822" y="88.977048" style="fill: #008000; stroke: #008000"/>
     <use xlink:href="#m81bd30e609" x="165.899879" y="181.461688" style="fill: #008000; stroke: #008000"/>
     <use xlink:href="#m81bd30e609" x="228.304465" y="136.54213" style="fill: #008000; stroke: #008000"/>
     <use xlink:href="#m81bd30e609" x="290.70905" y="100.147531" style="fill: #008000; stroke: #008000"/>
     <use xlink:href="#m81bd30e609" x="353.113635" y="172.702387" style="fill: #008000; stroke: #008000"/>
     <use xlink:href="#m81bd30e609" x="415.518221" y="205.292827" style="fill: #008000; stroke: #008000"/>
    </g>
   </g>
   <g id="line2d_20">
    <path d="M 61.892237 97.82714 
L 82.693765 102.906455 
L 103.495294 107.985771 
L 124.296822 113.065086 
L 165.899879 123.223716 
L 228.304465 138.461661 
L 290.70905 153.699607 
L 353.113635 168.937552 
L 415.518221 184.175497 
" clip-path="url(#p3bb9b86c58)" style="fill: none; stroke: #008000; stroke-width: 1.5; stroke-linecap: square"/>
   </g>
   <g id="line2d_21">
    <path d="M 61.892237 281.063904 
L 82.693765 247.399029 
L 103.495294 261.724311 
L 124.296822 263.891165 
L 165.899879 251.486409 
L 228.304465 259.273556 
L 290.70905 268.679466 
L 353.113635 279.163816 
L 415.518221 282.112873 
" clip-path="url(#p3bb9b86c58)" style="fill: none; stroke-dasharray: 1.5,2.475; stroke-dashoffset: 0; stroke: #ff0000; stroke-width: 1.5"/>
    <defs>
     <path id="m3de5af59c8" d="M 0 3 
C 0.795609 3 1.55874 2.683901 2.12132 2.12132 
C 2.683901 1.55874 3 0.795609 3 0 
C 3 -0.795609 2.683901 -1.55874 2.12132 -2.12132 
C 1.55874 -2.683901 0.795609 -3 0 -3 
C -0.795609 -3 -1.55874 -2.683901 -2.12132 -2.12132 
C -2.683901 -1.55874 -3 -0.795609 -3 0 
C -3 0.795609 -2.683901 1.55874 -2.12132 2.12132 
C -1.55874 2.683901 -0.795609 3 0 3 
z
" style="stroke: #ff0000"/>
    </defs>
    <g clip-path="url(#p3bb9b86c58)">
     <use xlink:href="#m3de5af59c8" x="61.892237" y="281.063904" style="fill: #ff0000; stroke: #ff0000"/>
     <use xlink:href="#m3de5af59c8" x="82.693765" y="247.399029" style="fill: #ff0000; stroke: #ff0000"/>
     <use xlink:href="#m3de5af59c8" x="103.495294" y="261.724311" style="fill: #ff0000; stroke: #ff0000"/>
     <use xlink:href="#m3de5af59c8" x="124.296822" y="263.891165" style="fill: #ff0000; stroke: #ff0000"/>
     <use xlink:href="#m3de5af59c8" x="165.899879" y="251.486409" style="fill: #ff0000; stroke: #ff0000"/>
     <use xlink:href="#m3de5af59c8" x="228.304465" y="259.273556" style="fill: #ff0000; stroke: #ff0000"/>
     <use xlink:href="#m3de5af59c8" x="290.70905" y="268.679466" style="fill: #ff0000; stroke: #ff0000"/>
     <use xlink:href="#m3de5af59c8" x="353.113635" y="279.163816" style="fill: #ff0000; stroke: #ff0000"/>
     <use xlink:href="#m3de5af59c8" x="415.518221" y="282.112873" style="fill: #ff0000; stroke: #ff0000"/>
    </g>
   </g>
   <g id="line2d_22">
    <path d="M 61.892237 258.694127 
L 82.693765 259.78508 
L 103.495294 260.876034 
L 124.296822 261.966987 
L 165.899879 264.148893 
L 228.304465 267.421753 
L 290.70905 270.694612 
L 353.113635 273.967472 
L 415.518221 277.240331 
" clip-path="url(#p3bb9b86c58)" style="fill: none; stroke: #ff0000; stroke-width: 1.5; stroke-linecap: square"/>
   </g>
   <g id="line2d_23">
    <path d="M 61.892237 256.805166 
L 82.693765 237.95076 
L 103.495294 196.205013 
L 124.296822 207.467256 
L 165.899879 207.260269 
L 228.304465 165.6101 
L 290.70905 117.000725 
L 353.113635 86.431918 
L 415.518221 129.51089 
" clip-path="url(#p3bb9b86c58)" style="fill: none; stroke-dasharray: 1.5,2.475; stroke-dashoffset: 0; stroke: #00bfbf; stroke-width: 1.5"/>
    <defs>
     <path id="m7c7c2cecb6" d="M 0 3 
C 0.795609 3 1.55874 2.683901 2.12132 2.12132 
C 2.683901 1.55874 3 0.795609 3 0 
C 3 -0.795609 2.683901 -1.55874 2.12132 -2.12132 
C 1.55874 -2.683901 0.795609 -3 0 -3 
C -0.795609 -3 -1.55874 -2.683901 -2.12132 -2.12132 
C -2.683901 -1.55874 -3 -0.795609 -3 0 
C -3 0.795609 -2.683901 1.55874 -2.12132 2.12132 
C -1.55874 2.683901 -0.795609 3 0 3 
z
" style="stroke: #00bfbf"/>
    </defs>
    <g clip-path="url(#p3bb9b86c58)">
     <use xlink:href="#m7c7c2cecb6" x="61.892237" y="256.805166" style="fill: #00bfbf; stroke: #00bfbf"/>
     <use xlink:href="#m7c7c2cecb6" x="82.693765" y="237.95076" style="fill: #00bfbf; stroke: #00bfbf"/>
     <use xlink:href="#m7c7c2cecb6" x="103.495294" y="196.205013" style="fill: #00bfbf; stroke: #00bfbf"/>
     <use xlink:href="#m7c7c2cecb6" x="124.296822" y="207.467256" style="fill: #00bfbf; stroke: #00bfbf"/>
     <use xlink:href="#m7c7c2cecb6" x="165.899879" y="207.260269" style="fill: #00bfbf; stroke: #00bfbf"/>
     <use xlink:href="#m7c7c2cecb6" x="228.304465" y="165.6101" style="fill: #00bfbf; stroke: #00bfbf"/>
     <use xlink:href="#m7c7c2cecb6" x="290.70905" y="117.000725" style="fill: #00bfbf; stroke: #00bfbf"/>
     <use xlink:href="#m7c7c2cecb6" x="353.113635" y="86.431918" style="fill: #00bfbf; stroke: #00bfbf"/>
     <use xlink:href="#m7c7c2cecb6" x="415.518221" y="129.51089" style="fill: #00bfbf; stroke: #00bfbf"/>
    </g>
   </g>
   <g id="line2d_24">
    <path d="M 61.892237 236.969036 
L 82.693765 228.305521 
L 103.495294 219.642007 
L 124.296822 210.978492 
L 165.899879 193.651462 
L 228.304465 167.660918 
L 290.70905 141.670374 
L 353.113635 115.67983 
L 415.518221 89.689286 
" clip-path="url(#p3bb9b86c58)" style="fill: none; stroke: #00bfbf; stroke-width: 1.5; stroke-linecap: square"/>
   </g>
   <g id="line2d_25">
    <path d="M 61.892237 62.735263 
L 82.693765 118.272694 
L 103.495294 161.397886 
L 124.296822 214.990444 
L 165.899879 251.486409 
L 228.304465 275.422428 
L 290.70905 288.341525 
L 353.113635 285.588212 
L 415.518221 288.341525 
" clip-path="url(#p3bb9b86c58)" style="fill: none; stroke-dasharray: 1.5,2.475; stroke-dashoffset: 0; stroke: #bf00bf; stroke-width: 1.5"/>
    <defs>
     <path id="m84eba807e6" d="M 0 3 
C 0.795609 3 1.55874 2.683901 2.12132 2.12132 
C 2.683901 1.55874 3 0.795609 3 0 
C 3 -0.795609 2.683901 -1.55874 2.12132 -2.12132 
C 1.55874 -2.683901 0.795609 -3 0 -3 
C -0.795609 -3 -1.55874 -2.683901 -2.12132 -2.12132 
C -2.683901 -1.55874 -3 -0.795609 -3 0 
C -3 0.795609 -2.683901 1.55874 -2.12132 2.12132 
C -1.55874 2.683901 -0.795609 3 0 3 
z
" style="stroke: #bf00bf"/>
    </defs>
    <g clip-path="url(#p3bb9b86c58)">
     <use xlink:href="#m84eba807e6" x="61.892237" y="62.735263" style="fill: #bf00bf; stroke: #bf00bf"/>
     <use xlink:href="#m84eba807e6" x="82.693765" y="118.272694" style="fill: #bf00bf; stroke: #bf00bf"/>
     <use xlink:href="#m84eba807e6" x="103.495294" y="161.397886" style="fill: #bf00bf; stroke: #bf00bf"/>
     <use xlink:href="#m84eba807e6" x="124.296822" y="214.990444" style="fill: #bf00bf; stroke: #bf00bf"/>
     <use xlink:href="#m84eba807e6" x="165.899879" y="251.486409" style="fill: #bf00bf; stroke: #bf00bf"/>
     <use xlink:href="#m84eba807e6" x="228.304465" y="275.422428" style="fill: #bf00bf; stroke: #bf00bf"/>
     <use xlink:href="#m84eba807e6" x="290.70905" y="288.341525" style="fill: #bf00bf; stroke: #bf00bf"/>
     <use xlink:href="#m84eba807e6" x="353.113635" y="285.588212" style="fill: #bf00bf; stroke: #bf00bf"/>
     <use xlink:href="#m84eba807e6" x="415.518221" y="288.341525" style="fill: #bf00bf; stroke: #bf00bf"/>
    </g>
   </g>
   <g id="line2d_26">
    <path d="M 61.892237 59.105884 
L 82.693765 122.941818 
L 103.495294 170.089574 
L 124.296822 204.740169 
L 165.899879 248.440541 
L 228.304465 277.771509 
L 290.70905 287.632871 
L 353.113635 290.21948 
L 415.518221 290.36921 
" clip-path="url(#p3bb9b86c58)" style="fill: none; stroke: #bf00bf; stroke-width: 1.5; stroke-linecap: square"/>
   </g>
   <g id="line2d_27">
    <path d="M 61.892237 169.47371 
L 82.693765 127.720962 
L 103.495294 173.682755 
L 124.296822 36.314733 
L 165.899879 137.235549 
L 228.304465 94.555064 
L 290.70905 69.25001 
L 353.113635 88.26746 
L 415.518221 46.462192 
" clip-path="url(#p3bb9b86c58)" style="fill: none; stroke-dasharray: 1.5,2.475; stroke-dashoffset: 0; stroke: #bfbf00; stroke-width: 1.5"/>
    <defs>
     <path id="m1179f33631" d="M 0 3 
C 0.795609 3 1.55874 2.683901 2.12132 2.12132 
C 2.683901 1.55874 3 0.795609 3 0 
C 3 -0.795609 2.683901 -1.55874 2.12132 -2.12132 
C 1.55874 -2.683901 0.795609 -3 0 -3 
C -0.795609 -3 -1.55874 -2.683901 -2.12132 -2.12132 
C -2.683901 -1.55874 -3 -0.795609 -3 0 
C -3 0.795609 -2.683901 1.55874 -2.12132 2.12132 
C -1.55874 2.683901 -0.795609 3 0 3 
z
" style="stroke: #bfbf00"/>
    </defs>
    <g clip-path="url(#p3bb9b86c58)">
     <use xlink:href="#m1179f33631" x="61.892237" y="169.47371" style="fill: #bfbf00; stroke: #bfbf00"/>
     <use xlink:href="#m1179f33631" x="82.693765" y="127.720962" style="fill: #bfbf00; stroke: #bfbf00"/>
     <use xlink:href="#m1179f33631" x="103.495294" y="173.682755" style="fill: #bfbf00; stroke: #bfbf00"/>
     <use xlink:href="#m1179f33631" x="124.296822" y="36.314733" style="fill: #bfbf00; stroke: #bfbf00"/>
     <use xlink:href="#m1179f33631" x="165.899879" y="137.235549" style="fill: #bfbf00; stroke: #bfbf00"/>
     <use xlink:href="#m1179f33631" x="228.304465" y="94.555064" style="fill: #bfbf00; stroke: #bfbf00"/>
     <use xlink:href="#m1179f33631" x="290.70905" y="69.25001" style="fill: #bfbf00; stroke: #bfbf00"/>
     <use xlink:href="#m1179f33631" x="353.113635" y="88.26746" style="fill: #bfbf00; stroke: #bfbf00"/>
     <use xlink:href="#m1179f33631" x="415.518221" y="46.462192" style="fill: #bfbf00; stroke: #bfbf00"/>
    </g>
   </g>
   <g id="line2d_28">
    <path d="M 61.892237 140.950285 
L 82.693765 135.613199 
L 103.495294 130.276112 
L 124.296822 124.939026 
L 165.899879 114.264853 
L 228.304465 98.253595 
L 290.70905 82.242336 
L 353.113635 66.231077 
L 415.518221 50.219818 
" clip-path="url(#p3bb9b86c58)" style="fill: none; stroke: #bfbf00; stroke-width: 1.5; stroke-linecap: square"/>
   </g>
   <g id="line2d_29">
    <path d="M 61.892237 281.063904 
L 82.693765 285.192102 
L 103.495294 284.246569 
L 124.296822 282.699134 
L 165.899879 288.341525 
L 228.304465 283.496864 
L 290.70905 288.341525 
L 353.113635 288.341525 
L 415.518221 287.303416 
" clip-path="url(#p3bb9b86c58)" style="fill: none; stroke-dasharray: 1.5,2.475; stroke-dashoffset: 0; stroke: #000000; stroke-width: 1.5"/>
    <defs>
     <path id="m283f914a58" d="M 0 3 
C 0.795609 3 1.55874 2.683901 2.12132 2.12132 
C 2.683901 1.55874 3 0.795609 3 0 
C 3 -0.795609 2.683901 -1.55874 2.12132 -2.12132 
C 1.55874 -2.683901 0.795609 -3 0 -3 
C -0.795609 -3 -1.55874 -2.683901 -2.12132 -2.12132 
C -2.683901 -1.55874 -3 -0.795609 -3 0 
C -3 0.795609 -2.683901 1.55874 -2.12132 2.12132 
C -1.55874 2.683901 -0.795609 3 0 3 
z
" style="stroke: #000000"/>
    </defs>
    <g clip-path="url(#p3bb9b86c58)">
     <use xlink:href="#m283f914a58" x="61.892237" y="281.063904" style="stroke: #000000"/>
     <use xlink:href="#m283f914a58" x="82.693765" y="285.192102" style="stroke: #000000"/>
     <use xlink:href="#m283f914a58" x="103.495294" y="284.246569" style="stroke: #000000"/>
     <use xlink:href="#m283f914a58" x="124.296822" y="282.699134" style="stroke: #000000"/>
     <use xlink:href="#m283f914a58" x="165.899879" y="288.341525" style="stroke: #000000"/>
     <use xlink:href="#m283f914a58" x="228.304465" y="283.496864" style="stroke: #000000"/>
     <use xlink:href="#m283f914a58" x="290.70905" y="288.341525" style="stroke: #000000"/>
     <use xlink:href="#m283f914a58" x="353.113635" y="288.341525" style="stroke: #000000"/>
     <use xlink:href="#m283f914a58" x="415.518221" y="287.303416" style="stroke: #000000"/>
    </g>
   </g>
   <g id="line2d_30">
    <path d="M 61.892237 283.340602 
L 82.693765 283.651441 
L 103.495294 283.96228 
L 124.296822 284.273119 
L 165.899879 284.894796 
L 228.304465 285.827313 
L 290.70905 286.759829 
L 353.113635 287.692346 
L 415.518221 288.624863 
" clip-path="url(#p3bb9b86c58)" style="fill: none; stroke: #000000; stroke-width: 1.5; stroke-linecap: square"/>
   </g>
   <g id="patch_3">
    <path d="M 44.210938 330.24351 
L 44.210938 22.318125 
" style="fill: none; stroke: #000000; stroke-width: 0.8; stroke-linejoin: miter; stroke-linecap: square"/>
   </g>
   <g id="patch_4">
    <path d="M 433.19952 330.24351 
L 433.19952 22.318125 
" style="fill: none; stroke: #000000; stroke-width: 0.8; stroke-linejoin: miter; stroke-linecap: square"/>
   </g>
   <g id="patch_5">
    <path d="M 44.210938 330.24351 
L 433.19952 330.24351 
" style="fill: none; stroke: #000000; stroke-width: 0.8; stroke-linejoin: miter; stroke-linecap: square"/>
   </g>
   <g id="patch_6">
    <path d="M 44.210938 22.318125 
L 433.19952 22.318125 
" style="fill: none; stroke: #000000; stroke-width: 0.8; stroke-linejoin: miter; stroke-linecap: square"/>
   </g>
   <g id="text_19">
    <!-- Replicate 3 -->
    <g transform="translate(205.227104 16.318125) scale(0.12 -0.12)">
     <defs>
      <path id="DejaVuSans-52" d="M 2841 2188 
Q 3044 2119 3236 1894 
Q 3428 1669 3622 1275 
L 4263 0 
L 3584 0 
L 2988 1197 
Q 2756 1666 2539 1819 
Q 2322 1972 1947 1972 
L 1259 1972 
L 1259 0 
L 628 0 
L 628 4666 
L 2053 4666 
Q 2853 4666 3247 4331 
Q 3641 3997 3641 3322 
Q 3641 2881 3436 2590 
Q 3231 2300 2841 2188 
z
M 1259 4147 
L 1259 2491 
L 2053 2491 
Q 2509 2491 2742 2702 
Q 2975 2913 2975 3322 
Q 2975 3731 2742 3939 
Q 2509 4147 2053 4147 
L 1259 4147 
z
" transform="scale(0.015625)"/>
      <path id="DejaVuSans-6c" d="M 603 4863 
L 1178 4863 
L 1178 0 
L 603 0 
L 603 4863 
z
" transform="scale(0.015625)"/>
     </defs>
     <use xlink:href="#DejaVuSans-52"/>
     <use xlink:href="#DejaVuSans-65" transform="translate(64.982422 0)"/>
     <use xlink:href="#DejaVuSans-70" transform="translate(126.505859 0)"/>
     <use xlink:href="#DejaVuSans-6c" transform="translate(189.982422 0)"/>
     <use xlink:href="#DejaVuSans-69" transform="translate(217.765625 0)"/>
     <use xlink:href="#DejaVuSans-63" transform="translate(245.548828 0)"/>
     <use xlink:href="#DejaVuSans-61" transform="translate(300.529297 0)"/>
     <use xlink:href="#DejaVuSans-74" transform="translate(361.808594 0)"/>
     <use xlink:href="#DejaVuSans-65" transform="translate(401.017578 0)"/>
     <use xlink:href="#DejaVuSans-20" transform="translate(462.541016 0)"/>
     <use xlink:href="#DejaVuSans-33" transform="translate(494.328125 0)"/>
    </g>
   </g>
   <g id="legend_1">
    <g id="patch_7">
     <path d="M 190.766948 133.065 
L 286.64351 133.065 
Q 288.64351 133.065 288.64351 131.065 
L 288.64351 29.318125 
Q 288.64351 27.318125 286.64351 27.318125 
L 190.766948 27.318125 
Q 188.766948 27.318125 188.766948 29.318125 
L 188.766948 131.065 
Q 188.766948 133.065 190.766948 133.065 
z
" style="fill: #ffffff; opacity: 0.8; stroke: #cccccc; stroke-linejoin: miter"/>
    </g>
    <g id="line2d_31">
     <path d="M 192.766948 35.416562 
L 202.766948 35.416562 
L 212.766948 35.416562 
" style="fill: none; stroke: #0000ff; stroke-width: 1.5; stroke-linecap: square"/>
    </g>
    <g id="text_20">
     <!-- p.Met267Ter -->
     <g transform="translate(220.766948 38.916562) scale(0.1 -0.1)">
      <defs>
       <path id="DejaVuSans-2e" d="M 684 794 
L 1344 794 
L 1344 0 
L 684 0 
L 684 794 
z
" transform="scale(0.015625)"/>
       <path id="DejaVuSans-4d" d="M 628 4666 
L 1569 4666 
L 2759 1491 
L 3956 4666 
L 4897 4666 
L 4897 0 
L 4281 0 
L 4281 4097 
L 3078 897 
L 2444 897 
L 1241 4097 
L 1241 0 
L 628 0 
L 628 4666 
z
" transform="scale(0.015625)"/>
       <path id="DejaVuSans-54" d="M -19 4666 
L 3928 4666 
L 3928 4134 
L 2272 4134 
L 2272 0 
L 1638 0 
L 1638 4134 
L -19 4134 
L -19 4666 
z
" transform="scale(0.015625)"/>
      </defs>
      <use xlink:href="#DejaVuSans-70"/>
      <use xlink:href="#DejaVuSans-2e" transform="translate(63.476562 0)"/>
      <use xlink:href="#DejaVuSans-4d" transform="translate(95.263672 0)"/>
      <use xlink:href="#DejaVuSans-65" transform="translate(181.542969 0)"/>
      <use xlink:href="#DejaVuSans-74" transform="translate(243.066406 0)"/>
      <use xlink:href="#DejaVuSans-32" transform="translate(282.275391 0)"/>
      <use xlink:href="#DejaVuSans-36" transform="translate(345.898438 0)"/>
      <use xlink:href="#DejaVuSans-37" transform="translate(409.521484 0)"/>
      <use xlink:href="#DejaVuSans-54" transform="translate(473.144531 0)"/>
      <use xlink:href="#DejaVuSans-65" transform="translate(517.228516 0)"/>
      <use xlink:href="#DejaVuSans-72" transform="translate(578.751953 0)"/>
     </g>
    </g>
    <g id="line2d_32">
     <path d="M 192.766948 50.094687 
L 202.766948 50.094687 
L 212.766948 50.094687 
" style="fill: none; stroke: #008000; stroke-width: 1.5; stroke-linecap: square"/>
    </g>
    <g id="text_21">
     <!-- p.Phe237Ser -->
     <g transform="translate(220.766948 53.594687) scale(0.1 -0.1)">
      <defs>
       <path id="DejaVuSans-50" d="M 1259 4147 
L 1259 2394 
L 2053 2394 
Q 2494 2394 2734 2622 
Q 2975 2850 2975 3272 
Q 2975 3691 2734 3919 
Q 2494 4147 2053 4147 
L 1259 4147 
z
M 628 4666 
L 2053 4666 
Q 2838 4666 3239 4311 
Q 3641 3956 3641 3272 
Q 3641 2581 3239 2228 
Q 2838 1875 2053 1875 
L 1259 1875 
L 1259 0 
L 628 0 
L 628 4666 
z
" transform="scale(0.015625)"/>
       <path id="DejaVuSans-53" d="M 3425 4513 
L 3425 3897 
Q 3066 4069 2747 4153 
Q 2428 4238 2131 4238 
Q 1616 4238 1336 4038 
Q 1056 3838 1056 3469 
Q 1056 3159 1242 3001 
Q 1428 2844 1947 2747 
L 2328 2669 
Q 3034 2534 3370 2195 
Q 3706 1856 3706 1288 
Q 3706 609 3251 259 
Q 2797 -91 1919 -91 
Q 1588 -91 1214 -16 
Q 841 59 441 206 
L 441 856 
Q 825 641 1194 531 
Q 1563 422 1919 422 
Q 2459 422 2753 634 
Q 3047 847 3047 1241 
Q 3047 1584 2836 1778 
Q 2625 1972 2144 2069 
L 1759 2144 
Q 1053 2284 737 2584 
Q 422 2884 422 3419 
Q 422 4038 858 4394 
Q 1294 4750 2059 4750 
Q 2388 4750 2728 4690 
Q 3069 4631 3425 4513 
z
" transform="scale(0.015625)"/>
      </defs>
      <use xlink:href="#DejaVuSans-70"/>
      <use xlink:href="#DejaVuSans-2e" transform="translate(63.476562 0)"/>
      <use xlink:href="#DejaVuSans-50" transform="translate(95.263672 0)"/>
      <use xlink:href="#DejaVuSans-68" transform="translate(155.566406 0)"/>
      <use xlink:href="#DejaVuSans-65" transform="translate(218.945312 0)"/>
      <use xlink:href="#DejaVuSans-32" transform="translate(280.46875 0)"/>
      <use xlink:href="#DejaVuSans-33" transform="translate(344.091797 0)"/>
      <use xlink:href="#DejaVuSans-37" transform="translate(407.714844 0)"/>
      <use xlink:href="#DejaVuSans-53" transform="translate(471.337891 0)"/>
      <use xlink:href="#DejaVuSans-65" transform="translate(534.814453 0)"/>
      <use xlink:href="#DejaVuSans-72" transform="translate(596.337891 0)"/>
     </g>
    </g>
    <g id="line2d_33">
     <path d="M 192.766948 64.772812 
L 202.766948 64.772812 
L 212.766948 64.772812 
" style="fill: none; stroke: #ff0000; stroke-width: 1.5; stroke-linecap: square"/>
    </g>
    <g id="text_22">
     <!-- p.Gln195Leu -->
     <g transform="translate(220.766948 68.272812) scale(0.1 -0.1)">
      <defs>
       <path id="DejaVuSans-47" d="M 3809 666 
L 3809 1919 
L 2778 1919 
L 2778 2438 
L 4434 2438 
L 4434 434 
Q 4069 175 3628 42 
Q 3188 -91 2688 -91 
Q 1594 -91 976 548 
Q 359 1188 359 2328 
Q 359 3472 976 4111 
Q 1594 4750 2688 4750 
Q 3144 4750 3555 4637 
Q 3966 4525 4313 4306 
L 4313 3634 
Q 3963 3931 3569 4081 
Q 3175 4231 2741 4231 
Q 1884 4231 1454 3753 
Q 1025 3275 1025 2328 
Q 1025 1384 1454 906 
Q 1884 428 2741 428 
Q 3075 428 3337 486 
Q 3600 544 3809 666 
z
" transform="scale(0.015625)"/>
       <path id="DejaVuSans-39" d="M 703 97 
L 703 672 
Q 941 559 1184 500 
Q 1428 441 1663 441 
Q 2288 441 2617 861 
Q 2947 1281 2994 2138 
Q 2813 1869 2534 1725 
Q 2256 1581 1919 1581 
Q 1219 1581 811 2004 
Q 403 2428 403 3163 
Q 403 3881 828 4315 
Q 1253 4750 1959 4750 
Q 2769 4750 3195 4129 
Q 3622 3509 3622 2328 
Q 3622 1225 3098 567 
Q 2575 -91 1691 -91 
Q 1453 -91 1209 -44 
Q 966 3 703 97 
z
M 1959 2075 
Q 2384 2075 2632 2365 
Q 2881 2656 2881 3163 
Q 2881 3666 2632 3958 
Q 2384 4250 1959 4250 
Q 1534 4250 1286 3958 
Q 1038 3666 1038 3163 
Q 1038 2656 1286 2365 
Q 1534 2075 1959 2075 
z
" transform="scale(0.015625)"/>
       <path id="DejaVuSans-4c" d="M 628 4666 
L 1259 4666 
L 1259 531 
L 3531 531 
L 3531 0 
L 628 0 
L 628 4666 
z
" transform="scale(0.015625)"/>
       <path id="DejaVuSans-75" d="M 544 1381 
L 544 3500 
L 1119 3500 
L 1119 1403 
Q 1119 906 1312 657 
Q 1506 409 1894 409 
Q 2359 409 2629 706 
Q 2900 1003 2900 1516 
L 2900 3500 
L 3475 3500 
L 3475 0 
L 2900 0 
L 2900 538 
Q 2691 219 2414 64 
Q 2138 -91 1772 -91 
Q 1169 -91 856 284 
Q 544 659 544 1381 
z
M 1991 3584 
L 1991 3584 
z
" transform="scale(0.015625)"/>
      </defs>
      <use xlink:href="#DejaVuSans-70"/>
      <use xlink:href="#DejaVuSans-2e" transform="translate(63.476562 0)"/>
      <use xlink:href="#DejaVuSans-47" transform="translate(95.263672 0)"/>
      <use xlink:href="#DejaVuSans-6c" transform="translate(172.753906 0)"/>
      <use xlink:href="#DejaVuSans-6e" transform="translate(200.537109 0)"/>
      <use xlink:href="#DejaVuSans-31" transform="translate(263.916016 0)"/>
      <use xlink:href="#DejaVuSans-39" transform="translate(327.539062 0)"/>
      <use xlink:href="#DejaVuSans-35" transform="translate(391.162109 0)"/>
      <use xlink:href="#DejaVuSans-4c" transform="translate(454.785156 0)"/>
      <use xlink:href="#DejaVuSans-65" transform="translate(508.748047 0)"/>
      <use xlink:href="#DejaVuSans-75" transform="translate(570.271484 0)"/>
     </g>
    </g>
    <g id="line2d_34">
     <path d="M 192.766948 79.450937 
L 202.766948 79.450937 
L 212.766948 79.450937 
" style="fill: none; stroke: #00bfbf; stroke-width: 1.5; stroke-linecap: square"/>
    </g>
    <g id="text_23">
     <!-- p.Asp282Gln -->
     <g transform="translate(220.766948 82.950937) scale(0.1 -0.1)">
      <defs>
       <path id="DejaVuSans-41" d="M 2188 4044 
L 1331 1722 
L 3047 1722 
L 2188 4044 
z
M 1831 4666 
L 2547 4666 
L 4325 0 
L 3669 0 
L 3244 1197 
L 1141 1197 
L 716 0 
L 50 0 
L 1831 4666 
z
" transform="scale(0.015625)"/>
       <path id="DejaVuSans-73" d="M 2834 3397 
L 2834 2853 
Q 2591 2978 2328 3040 
Q 2066 3103 1784 3103 
Q 1356 3103 1142 2972 
Q 928 2841 928 2578 
Q 928 2378 1081 2264 
Q 1234 2150 1697 2047 
L 1894 2003 
Q 2506 1872 2764 1633 
Q 3022 1394 3022 966 
Q 3022 478 2636 193 
Q 2250 -91 1575 -91 
Q 1294 -91 989 -36 
Q 684 19 347 128 
L 347 722 
Q 666 556 975 473 
Q 1284 391 1588 391 
Q 1994 391 2212 530 
Q 2431 669 2431 922 
Q 2431 1156 2273 1281 
Q 2116 1406 1581 1522 
L 1381 1569 
Q 847 1681 609 1914 
Q 372 2147 372 2553 
Q 372 3047 722 3315 
Q 1072 3584 1716 3584 
Q 2034 3584 2315 3537 
Q 2597 3491 2834 3397 
z
" transform="scale(0.015625)"/>
      </defs>
      <use xlink:href="#DejaVuSans-70"/>
      <use xlink:href="#DejaVuSans-2e" transform="translate(63.476562 0)"/>
      <use xlink:href="#DejaVuSans-41" transform="translate(95.263672 0)"/>
      <use xlink:href="#DejaVuSans-73" transform="translate(163.671875 0)"/>
      <use xlink:href="#DejaVuSans-70" transform="translate(215.771484 0)"/>
      <use xlink:href="#DejaVuSans-32" transform="translate(279.248047 0)"/>
      <use xlink:href="#DejaVuSans-38" transform="translate(342.871094 0)"/>
      <use xlink:href="#DejaVuSans-32" transform="translate(406.494141 0)"/>
      <use xlink:href="#DejaVuSans-47" transform="translate(470.117188 0)"/>
      <use xlink:href="#DejaVuSans-6c" transform="translate(547.607422 0)"/>
      <use xlink:href="#DejaVuSans-6e" transform="translate(575.390625 0)"/>
     </g>
    </g>
    <g id="line2d_35">
     <path d="M 192.766948 94.129062 
L 202.766948 94.129062 
L 212.766948 94.129062 
" style="fill: none; stroke: #bf00bf; stroke-width: 1.5; stroke-linecap: square"/>
    </g>
    <g id="text_24">
     <!-- p.Ala109Ter -->
     <g transform="translate(220.766948 97.629062) scale(0.1 -0.1)">
      <use xlink:href="#DejaVuSans-70"/>
      <use xlink:href="#DejaVuSans-2e" transform="translate(63.476562 0)"/>
      <use xlink:href="#DejaVuSans-41" transform="translate(95.263672 0)"/>
      <use xlink:href="#DejaVuSans-6c" transform="translate(163.671875 0)"/>
      <use xlink:href="#DejaVuSans-61" transform="translate(191.455078 0)"/>
      <use xlink:href="#DejaVuSans-31" transform="translate(252.734375 0)"/>
      <use xlink:href="#DejaVuSans-30" transform="translate(316.357422 0)"/>
      <use xlink:href="#DejaVuSans-39" transform="translate(379.980469 0)"/>
      <use xlink:href="#DejaVuSans-54" transform="translate(443.603516 0)"/>
      <use xlink:href="#DejaVuSans-65" transform="translate(487.6875 0)"/>
      <use xlink:href="#DejaVuSans-72" transform="translate(549.210938 0)"/>
     </g>
    </g>
    <g id="line2d_36">
     <path d="M 192.766948 108.807187 
L 202.766948 108.807187 
L 212.766948 108.807187 
" style="fill: none; stroke: #bfbf00; stroke-width: 1.5; stroke-linecap: square"/>
    </g>
    <g id="text_25">
     <!-- p.Ala300Met -->
     <g transform="translate(220.766948 112.307187) scale(0.1 -0.1)">
      <use xlink:href="#DejaVuSans-70"/>
      <use xlink:href="#DejaVuSans-2e" transform="translate(63.476562 0)"/>
      <use xlink:href="#DejaVuSans-41" transform="translate(95.263672 0)"/>
      <use xlink:href="#DejaVuSans-6c" transform="translate(163.671875 0)"/>
      <use xlink:href="#DejaVuSans-61" transform="translate(191.455078 0)"/>
      <use xlink:href="#DejaVuSans-33" transform="translate(252.734375 0)"/>
      <use xlink:href="#DejaVuSans-30" transform="translate(316.357422 0)"/>
      <use xlink:href="#DejaVuSans-30" transform="translate(379.980469 0)"/>
      <use xlink:href="#DejaVuSans-4d" transform="translate(443.603516 0)"/>
      <use xlink:href="#DejaVuSans-65" transform="translate(529.882812 0)"/>
      <use xlink:href="#DejaVuSans-74" transform="translate(591.40625 0)"/>
     </g>
    </g>
    <g id="line2d_37">
     <path d="M 192.766948 123.485312 
L 202.766948 123.485312 
L 212.766948 123.485312 
" style="fill: none; stroke: #000000; stroke-width: 1.5; stroke-linecap: square"/>
    </g>
    <g id="text_26">
     <!-- p.Phe241Pro -->
     <g transform="translate(220.766948 126.985312) scale(0.1 -0.1)">
      <use xlink:href="#DejaVuSans-70"/>
      <use xlink:href="#DejaVuSans-2e" transform="translate(63.476562 0)"/>
      <use xlink:href="#DejaVuSans-50" transform="translate(95.263672 0)"/>
      <use xlink:href="#DejaVuSans-68" transform="translate(155.566406 0)"/>
      <use xlink:href="#DejaVuSans-65" transform="translate(218.945312 0)"/>
      <use xlink:href="#DejaVuSans-32" transform="translate(280.46875 0)"/>
      <use xlink:href="#DejaVuSans-34" transform="translate(344.091797 0)"/>
      <use xlink:href="#DejaVuSans-31" transform="translate(407.714844 0)"/>
      <use xlink:href="#DejaVuSans-50" transform="translate(471.337891 0)"/>
      <use xlink:href="#DejaVuSans-72" transform="translate(529.890625 0)"/>
      <use xlink:href="#DejaVuSans-6f" transform="translate(568.753906 0)"/>
     </g>
    </g>
   </g>
  </g>
  <g id="axes_2">
   <g id="patch_8">
    <path d="M 44.210938 690.84327 
L 433.19952 690.84327 
L 433.19952 382.917885 
L 44.210938 382.917885 
z
" style="fill: #ffffff"/>
   </g>
   <g id="matplotlib.axis_3">
    <g id="xtick_10">
     <g id="line2d_38">
      <g>
       <use xlink:href="#m60fdb2a284" x="61.892237" y="690.84327" style="stroke: #000000; stroke-width: 0.8"/>
      </g>
     </g>
     <g id="text_27">
      <!-- 4 -->
      <g transform="translate(58.710987 705.441707) scale(0.1 -0.1)">
       <use xlink:href="#DejaVuSans-34"/>
      </g>
     </g>
    </g>
    <g id="xtick_11">
     <g id="line2d_39">
      <g>
       <use xlink:href="#m60fdb2a284" x="82.693765" y="690.84327" style="stroke: #000000; stroke-width: 0.8"/>
      </g>
     </g>
     <g id="text_28">
      <!-- 8 -->
      <g transform="translate(79.512515 705.441707) scale(0.1 -0.1)">
       <use xlink:href="#DejaVuSans-38"/>
      </g>
     </g>
    </g>
    <g id="xtick_12">
     <g id="line2d_40">
      <g>
       <use xlink:href="#m60fdb2a284" x="103.495294" y="690.84327" style="stroke: #000000; stroke-width: 0.8"/>
      </g>
     </g>
     <g id="text_29">
      <!-- 12 -->
      <g transform="translate(97.132794 705.441707) scale(0.1 -0.1)">
       <use xlink:href="#DejaVuSans-31"/>
       <use xlink:href="#DejaVuSans-32" transform="translate(63.623047 0)"/>
      </g>
     </g>
    </g>
    <g id="xtick_13">
     <g id="line2d_41">
      <g>
       <use xlink:href="#m60fdb2a284" x="124.296822" y="690.84327" style="stroke: #000000; stroke-width: 0.8"/>
      </g>
     </g>
     <g id="text_30">
      <!-- 16 -->
      <g transform="translate(117.934322 705.441707) scale(0.1 -0.1)">
       <use xlink:href="#DejaVuSans-31"/>
       <use xlink:href="#DejaVuSans-36" transform="translate(63.623047 0)"/>
      </g>
     </g>
    </g>
    <g id="xtick_14">
     <g id="line2d_42">
      <g>
       <use xlink:href="#m60fdb2a284" x="165.899879" y="690.84327" style="stroke: #000000; stroke-width: 0.8"/>
      </g>
     </g>
     <g id="text_31">
      <!-- 24 -->
      <g transform="translate(159.537379 705.441707) scale(0.1 -0.1)">
       <use xlink:href="#DejaVuSans-32"/>
       <use xlink:href="#DejaVuSans-34" transform="translate(63.623047 0)"/>
      </g>
     </g>
    </g>
    <g id="xtick_15">
     <g id="line2d_43">
      <g>
       <use xlink:href="#m60fdb2a284" x="228.304465" y="690.84327" style="stroke: #000000; stroke-width: 0.8"/>
      </g>
     </g>
     <g id="text_32">
      <!-- 36 -->
      <g transform="translate(221.941965 705.441707) scale(0.1 -0.1)">
       <use xlink:href="#DejaVuSans-33"/>
       <use xlink:href="#DejaVuSans-36" transform="translate(63.623047 0)"/>
      </g>
     </g>
    </g>
    <g id="xtick_16">
     <g id="line2d_44">
      <g>
       <use xlink:href="#m60fdb2a284" x="290.70905" y="690.84327" style="stroke: #000000; stroke-width: 0.8"/>
      </g>
     </g>
     <g id="text_33">
      <!-- 48 -->
      <g transform="translate(284.34655 705.441707) scale(0.1 -0.1)">
       <use xlink:href="#DejaVuSans-34"/>
       <use xlink:href="#DejaVuSans-38" transform="translate(63.623047 0)"/>
      </g>
     </g>
    </g>
    <g id="xtick_17">
     <g id="line2d_45">
      <g>
       <use xlink:href="#m60fdb2a284" x="353.113635" y="690.84327" style="stroke: #000000; stroke-width: 0.8"/>
      </g>
     </g>
     <g id="text_34">
      <!-- 60 -->
      <g transform="translate(346.751135 705.441707) scale(0.1 -0.1)">
       <use xlink:href="#DejaVuSans-36"/>
       <use xlink:href="#DejaVuSans-30" transform="translate(63.623047 0)"/>
      </g>
     </g>
    </g>
    <g id="xtick_18">
     <g id="line2d_46">
      <g>
       <use xlink:href="#m60fdb2a284" x="415.518221" y="690.84327" style="stroke: #000000; stroke-width: 0.8"/>
      </g>
     </g>
     <g id="text_35">
      <!-- 72 -->
      <g transform="translate(409.155721 705.441707) scale(0.1 -0.1)">
       <use xlink:href="#DejaVuSans-37"/>
       <use xlink:href="#DejaVuSans-32" transform="translate(63.623047 0)"/>
      </g>
     </g>
    </g>
    <g id="text_36">
     <!-- time -->
     <g transform="translate(227.409135 719.119832) scale(0.1 -0.1)">
      <use xlink:href="#DejaVuSans-74"/>
      <use xlink:href="#DejaVuSans-69" transform="translate(39.208984 0)"/>
      <use xlink:href="#DejaVuSans-6d" transform="translate(66.992188 0)"/>
      <use xlink:href="#DejaVuSans-65" transform="translate(164.404297 0)"/>
     </g>
    </g>
   </g>
   <g id="matplotlib.axis_4">
    <g id="ytick_8">
     <g id="line2d_47">
      <g>
       <use xlink:href="#m8f326834ee" x="44.210938" y="688.087205" style="stroke: #000000; stroke-width: 0.8"/>
      </g>
     </g>
     <g id="text_37">
      <!-- -10 -->
      <g transform="translate(20.878125 691.886423) scale(0.1 -0.1)">
       <defs>
        <path id="DejaVuSans-2d" d="M 313 2009 
L 1997 2009 
L 1997 1497 
L 313 1497 
L 313 2009 
z
" transform="scale(0.015625)"/>
       </defs>
       <use xlink:href="#DejaVuSans-2d"/>
       <use xlink:href="#DejaVuSans-31" transform="translate(36.083984 0)"/>
       <use xlink:href="#DejaVuSans-30" transform="translate(99.707031 0)"/>
      </g>
     </g>
    </g>
    <g id="ytick_9">
     <g id="line2d_48">
      <g>
       <use xlink:href="#m8f326834ee" x="44.210938" y="647.419875" style="stroke: #000000; stroke-width: 0.8"/>
      </g>
     </g>
     <g id="text_38">
      <!-- 0 -->
      <g transform="translate(30.848437 651.219093) scale(0.1 -0.1)">
       <use xlink:href="#DejaVuSans-30"/>
      </g>
     </g>
    </g>
    <g id="ytick_10">
     <g id="line2d_49">
      <g>
       <use xlink:href="#m8f326834ee" x="44.210938" y="606.752545" style="stroke: #000000; stroke-width: 0.8"/>
      </g>
     </g>
     <g id="text_39">
      <!-- 10 -->
      <g transform="translate(24.485937 610.551764) scale(0.1 -0.1)">
       <use xlink:href="#DejaVuSans-31"/>
       <use xlink:href="#DejaVuSans-30" transform="translate(63.623047 0)"/>
      </g>
     </g>
    </g>
    <g id="ytick_11">
     <g id="line2d_50">
      <g>
       <use xlink:href="#m8f326834ee" x="44.210938" y="566.085215" style="stroke: #000000; stroke-width: 0.8"/>
      </g>
     </g>
     <g id="text_40">
      <!-- 20 -->
      <g transform="translate(24.485937 569.884434) scale(0.1 -0.1)">
       <use xlink:href="#DejaVuSans-32"/>
       <use xlink:href="#DejaVuSans-30" transform="translate(63.623047 0)"/>
      </g>
     </g>
    </g>
    <g id="ytick_12">
     <g id="line2d_51">
      <g>
       <use xlink:href="#m8f326834ee" x="44.210938" y="525.417885" style="stroke: #000000; stroke-width: 0.8"/>
      </g>
     </g>
     <g id="text_41">
      <!-- 30 -->
      <g transform="translate(24.485937 529.217104) scale(0.1 -0.1)">
       <use xlink:href="#DejaVuSans-33"/>
       <use xlink:href="#DejaVuSans-30" transform="translate(63.623047 0)"/>
      </g>
     </g>
    </g>
    <g id="ytick_13">
     <g id="line2d_52">
      <g>
       <use xlink:href="#m8f326834ee" x="44.210938" y="484.750555" style="stroke: #000000; stroke-width: 0.8"/>
      </g>
     </g>
     <g id="text_42">
      <!-- 40 -->
      <g transform="translate(24.485937 488.549774) scale(0.1 -0.1)">
       <use xlink:href="#DejaVuSans-34"/>
       <use xlink:href="#DejaVuSans-30" transform="translate(63.623047 0)"/>
      </g>
     </g>
    </g>
    <g id="ytick_14">
     <g id="line2d_53">
      <g>
       <use xlink:href="#m8f326834ee" x="44.210938" y="444.083225" style="stroke: #000000; stroke-width: 0.8"/>
      </g>
     </g>
     <g id="text_43">
      <!-- 50 -->
      <g transform="translate(24.485937 447.882444) scale(0.1 -0.1)">
       <use xlink:href="#DejaVuSans-35"/>
       <use xlink:href="#DejaVuSans-30" transform="translate(63.623047 0)"/>
      </g>
     </g>
    </g>
    <g id="ytick_15">
     <g id="line2d_54">
      <g>
       <use xlink:href="#m8f326834ee" x="44.210938" y="403.415895" style="stroke: #000000; stroke-width: 0.8"/>
      </g>
     </g>
     <g id="text_44">
      <!-- 60 -->
      <g transform="translate(24.485937 407.215114) scale(0.1 -0.1)">
       <use xlink:href="#DejaVuSans-36"/>
       <use xlink:href="#DejaVuSans-30" transform="translate(63.623047 0)"/>
      </g>
     </g>
    </g>
    <g id="text_45">
     <!-- fraction -->
     <g transform="translate(14.798437 556.086827) rotate(-90) scale(0.1 -0.1)">
      <use xlink:href="#DejaVuSans-66"/>
      <use xlink:href="#DejaVuSans-72" transform="translate(35.205078 0)"/>
      <use xlink:href="#DejaVuSans-61" transform="translate(76.318359 0)"/>
      <use xlink:href="#DejaVuSans-63" transform="translate(137.597656 0)"/>
      <use xlink:href="#DejaVuSans-74" transform="translate(192.578125 0)"/>
      <use xlink:href="#DejaVuSans-69" transform="translate(231.787109 0)"/>
      <use xlink:href="#DejaVuSans-6f" transform="translate(259.570312 0)"/>
      <use xlink:href="#DejaVuSans-6e" transform="translate(320.751953 0)"/>
     </g>
    </g>
   </g>
   <g id="line2d_55">
    <path d="M 61.892237 470.764847 
L 82.693765 572.075588 
L 103.495294 585.98011 
L 124.296822 589.931782 
L 165.899879 613.06777 
L 228.304465 643.510395 
L 290.70905 645.63055 
L 353.113635 645.409383 
L 415.518221 647.419875 
" clip-path="url(#p99d500df5d)" style="fill: none; stroke-dasharray: 1.5,2.475; stroke-dashoffset: 0; stroke: #0000ff; stroke-width: 1.5"/>
    <g clip-path="url(#p99d500df5d)">
     <use xlink:href="#m0063efe7aa" x="61.892237" y="470.764847" style="fill: #0000ff; stroke: #0000ff"/>
     <use xlink:href="#m0063efe7aa" x="82.693765" y="572.075588" style="fill: #0000ff; stroke: #0000ff"/>
     <use xlink:href="#m0063efe7aa" x="103.495294" y="585.98011" style="fill: #0000ff; stroke: #0000ff"/>
     <use xlink:href="#m0063efe7aa" x="124.296822" y="589.931782" style="fill: #0000ff; stroke: #0000ff"/>
     <use xlink:href="#m0063efe7aa" x="165.899879" y="613.06777" style="fill: #0000ff; stroke: #0000ff"/>
     <use xlink:href="#m0063efe7aa" x="228.304465" y="643.510395" style="fill: #0000ff; stroke: #0000ff"/>
     <use xlink:href="#m0063efe7aa" x="290.70905" y="645.63055" style="fill: #0000ff; stroke: #0000ff"/>
     <use xlink:href="#m0063efe7aa" x="353.113635" y="645.409383" style="fill: #0000ff; stroke: #0000ff"/>
     <use xlink:href="#m0063efe7aa" x="415.518221" y="647.419875" style="fill: #0000ff; stroke: #0000ff"/>
    </g>
   </g>
   <g id="line2d_56">
    <path d="M 61.892237 551.596533 
L 82.693765 558.964187 
L 103.495294 566.331842 
L 124.296822 573.699497 
L 165.899879 588.434806 
L 228.304465 610.53777 
L 290.70905 632.640734 
L 353.113635 654.743698 
L 415.518221 676.846662 
" clip-path="url(#p99d500df5d)" style="fill: none; stroke: #0000ff; stroke-width: 1.5; stroke-linecap: square"/>
   </g>
   <g id="line2d_57">
    <path d="M 61.892237 456.632445 
L 82.693765 456.547682 
L 103.495294 454.66767 
L 124.296822 447.673113 
L 165.899879 475.659352 
L 228.304465 506.678594 
L 290.70905 566.900288 
L 353.113635 520.758913 
L 415.518221 533.333674 
" clip-path="url(#p99d500df5d)" style="fill: none; stroke-dasharray: 1.5,2.475; stroke-dashoffset: 0; stroke: #008000; stroke-width: 1.5"/>
    <g clip-path="url(#p99d500df5d)">
     <use xlink:href="#m81bd30e609" x="61.892237" y="456.632445" style="fill: #008000; stroke: #008000"/>
     <use xlink:href="#m81bd30e609" x="82.693765" y="456.547682" style="fill: #008000; stroke: #008000"/>
     <use xlink:href="#m81bd30e609" x="103.495294" y="454.66767" style="fill: #008000; stroke: #008000"/>
     <use xlink:href="#m81bd30e609" x="124.296822" y="447.673113" style="fill: #008000; stroke: #008000"/>
     <use xlink:href="#m81bd30e609" x="165.899879" y="475.659352" style="fill: #008000; stroke: #008000"/>
     <use xlink:href="#m81bd30e609" x="228.304465" y="506.678594" style="fill: #008000; stroke: #008000"/>
     <use xlink:href="#m81bd30e609" x="290.70905" y="566.900288" style="fill: #008000; stroke: #008000"/>
     <use xlink:href="#m81bd30e609" x="353.113635" y="520.758913" style="fill: #008000; stroke: #008000"/>
     <use xlink:href="#m81bd30e609" x="415.518221" y="533.333674" style="fill: #008000; stroke: #008000"/>
    </g>
   </g>
   <g id="line2d_58">
    <path d="M 61.892237 450.086295 
L 82.693765 456.120892 
L 103.495294 462.155489 
L 124.296822 468.190087 
L 165.899879 480.259281 
L 228.304465 498.363073 
L 290.70905 516.466865 
L 353.113635 534.570657 
L 415.518221 552.674449 
" clip-path="url(#p99d500df5d)" style="fill: none; stroke: #008000; stroke-width: 1.5; stroke-linecap: square"/>
   </g>
   <g id="line2d_59">
    <path d="M 61.892237 601.489568 
L 82.693765 612.259208 
L 103.495294 610.074135 
L 124.296822 606.496148 
L 165.899879 603.252883 
L 228.304465 618.098774 
L 290.70905 617.001364 
L 353.113635 638.037581 
L 415.518221 639.27086 
" clip-path="url(#p99d500df5d)" style="fill: none; stroke-dasharray: 1.5,2.475; stroke-dashoffset: 0; stroke: #ff0000; stroke-width: 1.5"/>
    <g clip-path="url(#p99d500df5d)">
     <use xlink:href="#m3de5af59c8" x="61.892237" y="601.489568" style="fill: #ff0000; stroke: #ff0000"/>
     <use xlink:href="#m3de5af59c8" x="82.693765" y="612.259208" style="fill: #ff0000; stroke: #ff0000"/>
     <use xlink:href="#m3de5af59c8" x="103.495294" y="610.074135" style="fill: #ff0000; stroke: #ff0000"/>
     <use xlink:href="#m3de5af59c8" x="124.296822" y="606.496148" style="fill: #ff0000; stroke: #ff0000"/>
     <use xlink:href="#m3de5af59c8" x="165.899879" y="603.252883" style="fill: #ff0000; stroke: #ff0000"/>
     <use xlink:href="#m3de5af59c8" x="228.304465" y="618.098774" style="fill: #ff0000; stroke: #ff0000"/>
     <use xlink:href="#m3de5af59c8" x="290.70905" y="617.001364" style="fill: #ff0000; stroke: #ff0000"/>
     <use xlink:href="#m3de5af59c8" x="353.113635" y="638.037581" style="fill: #ff0000; stroke: #ff0000"/>
     <use xlink:href="#m3de5af59c8" x="415.518221" y="639.27086" style="fill: #ff0000; stroke: #ff0000"/>
    </g>
   </g>
   <g id="line2d_60">
    <path d="M 61.892237 602.216381 
L 82.693765 604.282525 
L 103.495294 606.348669 
L 124.296822 608.414813 
L 165.899879 612.5471 
L 228.304465 618.745532 
L 290.70905 624.943964 
L 353.113635 631.142395 
L 415.518221 637.340827 
" clip-path="url(#p99d500df5d)" style="fill: none; stroke: #ff0000; stroke-width: 1.5; stroke-linecap: square"/>
   </g>
   <g id="line2d_61">
    <path d="M 61.892237 583.824065 
L 82.693765 583.79581 
L 103.495294 578.751902 
L 124.296822 554.854302 
L 165.899879 550.906819 
L 228.304465 522.316514 
L 290.70905 454.172866 
L 353.113635 476.528101 
L 415.518221 416.531136 
" clip-path="url(#p99d500df5d)" style="fill: none; stroke-dasharray: 1.5,2.475; stroke-dashoffset: 0; stroke: #00bfbf; stroke-width: 1.5"/>
    <g clip-path="url(#p99d500df5d)">
     <use xlink:href="#m7c7c2cecb6" x="61.892237" y="583.824065" style="fill: #00bfbf; stroke: #00bfbf"/>
     <use xlink:href="#m7c7c2cecb6" x="82.693765" y="583.79581" style="fill: #00bfbf; stroke: #00bfbf"/>
     <use xlink:href="#m7c7c2cecb6" x="103.495294" y="578.751902" style="fill: #00bfbf; stroke: #00bfbf"/>
     <use xlink:href="#m7c7c2cecb6" x="124.296822" y="554.854302" style="fill: #00bfbf; stroke: #00bfbf"/>
     <use xlink:href="#m7c7c2cecb6" x="165.899879" y="550.906819" style="fill: #00bfbf; stroke: #00bfbf"/>
     <use xlink:href="#m7c7c2cecb6" x="228.304465" y="522.316514" style="fill: #00bfbf; stroke: #00bfbf"/>
     <use xlink:href="#m7c7c2cecb6" x="290.70905" y="454.172866" style="fill: #00bfbf; stroke: #00bfbf"/>
     <use xlink:href="#m7c7c2cecb6" x="353.113635" y="476.528101" style="fill: #00bfbf; stroke: #00bfbf"/>
     <use xlink:href="#m7c7c2cecb6" x="415.518221" y="416.531136" style="fill: #00bfbf; stroke: #00bfbf"/>
    </g>
   </g>
   <g id="line2d_62">
    <path d="M 61.892237 591.486614 
L 82.693765 581.622811 
L 103.495294 571.759007 
L 124.296822 561.895204 
L 165.899879 542.167597 
L 228.304465 512.576187 
L 290.70905 482.984777 
L 353.113635 453.393367 
L 415.518221 423.801957 
" clip-path="url(#p99d500df5d)" style="fill: none; stroke: #00bfbf; stroke-width: 1.5; stroke-linecap: square"/>
   </g>
   <g id="line2d_63">
    <path d="M 61.892237 435.433842 
L 82.693765 498.405619 
L 103.495294 557.067279 
L 124.296822 582.136787 
L 165.899879 621.246843 
L 228.304465 639.600915 
L 290.70905 645.63055 
L 353.113635 646.749711 
L 415.518221 647.419875 
" clip-path="url(#p99d500df5d)" style="fill: none; stroke-dasharray: 1.5,2.475; stroke-dashoffset: 0; stroke: #bf00bf; stroke-width: 1.5"/>
    <g clip-path="url(#p99d500df5d)">
     <use xlink:href="#m84eba807e6" x="61.892237" y="435.433842" style="fill: #bf00bf; stroke: #bf00bf"/>
     <use xlink:href="#m84eba807e6" x="82.693765" y="498.405619" style="fill: #bf00bf; stroke: #bf00bf"/>
     <use xlink:href="#m84eba807e6" x="103.495294" y="557.067279" style="fill: #bf00bf; stroke: #bf00bf"/>
     <use xlink:href="#m84eba807e6" x="124.296822" y="582.136787" style="fill: #bf00bf; stroke: #bf00bf"/>
     <use xlink:href="#m84eba807e6" x="165.899879" y="621.246843" style="fill: #bf00bf; stroke: #bf00bf"/>
     <use xlink:href="#m84eba807e6" x="228.304465" y="639.600915" style="fill: #bf00bf; stroke: #bf00bf"/>
     <use xlink:href="#m84eba807e6" x="290.70905" y="645.63055" style="fill: #bf00bf; stroke: #bf00bf"/>
     <use xlink:href="#m84eba807e6" x="353.113635" y="646.749711" style="fill: #bf00bf; stroke: #bf00bf"/>
     <use xlink:href="#m84eba807e6" x="415.518221" y="647.419875" style="fill: #bf00bf; stroke: #bf00bf"/>
    </g>
   </g>
   <g id="line2d_64">
    <path d="M 61.892237 434.577571 
L 82.693765 503.366933 
L 103.495294 550.822697 
L 124.296822 583.375635 
L 165.899879 620.554733 
L 228.304465 641.582029 
L 290.70905 647.129969 
L 353.113635 648.155795 
L 415.518221 648.068928 
" clip-path="url(#p99d500df5d)" style="fill: none; stroke: #bf00bf; stroke-width: 1.5; stroke-linecap: square"/>
   </g>
   <g id="line2d_65">
    <path d="M 61.892237 559.092361 
L 82.693765 531.891968 
L 103.495294 507.674527 
L 124.296822 497.36621 
L 165.899879 418.405845 
L 228.304465 451.945874 
L 290.70905 396.914493 
L 353.113635 413.532702 
L 415.518221 462.708884 
" clip-path="url(#p99d500df5d)" style="fill: none; stroke-dasharray: 1.5,2.475; stroke-dashoffset: 0; stroke: #bfbf00; stroke-width: 1.5"/>
    <g clip-path="url(#p99d500df5d)">
     <use xlink:href="#m1179f33631" x="61.892237" y="559.092361" style="fill: #bfbf00; stroke: #bfbf00"/>
     <use xlink:href="#m1179f33631" x="82.693765" y="531.891968" style="fill: #bfbf00; stroke: #bfbf00"/>
     <use xlink:href="#m1179f33631" x="103.495294" y="507.674527" style="fill: #bfbf00; stroke: #bfbf00"/>
     <use xlink:href="#m1179f33631" x="124.296822" y="497.36621" style="fill: #bfbf00; stroke: #bfbf00"/>
     <use xlink:href="#m1179f33631" x="165.899879" y="418.405845" style="fill: #bfbf00; stroke: #bfbf00"/>
     <use xlink:href="#m1179f33631" x="228.304465" y="451.945874" style="fill: #bfbf00; stroke: #bfbf00"/>
     <use xlink:href="#m1179f33631" x="290.70905" y="396.914493" style="fill: #bfbf00; stroke: #bfbf00"/>
     <use xlink:href="#m1179f33631" x="353.113635" y="413.532702" style="fill: #bfbf00; stroke: #bfbf00"/>
     <use xlink:href="#m1179f33631" x="415.518221" y="462.708884" style="fill: #bfbf00; stroke: #bfbf00"/>
    </g>
   </g>
   <g id="line2d_66">
    <path d="M 61.892237 516.153618 
L 82.693765 509.50074 
L 103.495294 502.847862 
L 124.296822 496.194984 
L 165.899879 482.889229 
L 228.304465 462.930595 
L 290.70905 442.971961 
L 353.113635 423.013328 
L 415.518221 403.054694 
" clip-path="url(#p99d500df5d)" style="fill: none; stroke: #bfbf00; stroke-width: 1.5; stroke-linecap: square"/>
   </g>
   <g id="line2d_67">
    <path d="M 61.892237 622.688171 
L 82.693765 639.048287 
L 103.495294 636.577563 
L 124.296822 635.727381 
L 165.899879 642.512431 
L 228.304465 647.419875 
L 290.70905 645.63055 
L 353.113635 646.079547 
L 415.518221 641.987198 
" clip-path="url(#p99d500df5d)" style="fill: none; stroke-dasharray: 1.5,2.475; stroke-dashoffset: 0; stroke: #000000; stroke-width: 1.5"/>
    <g clip-path="url(#p99d500df5d)">
     <use xlink:href="#m283f914a58" x="61.892237" y="622.688171" style="stroke: #000000"/>
     <use xlink:href="#m283f914a58" x="82.693765" y="639.048287" style="stroke: #000000"/>
     <use xlink:href="#m283f914a58" x="103.495294" y="636.577563" style="stroke: #000000"/>
     <use xlink:href="#m283f914a58" x="124.296822" y="635.727381" style="stroke: #000000"/>
     <use xlink:href="#m283f914a58" x="165.899879" y="642.512431" style="stroke: #000000"/>
     <use xlink:href="#m283f914a58" x="228.304465" y="647.419875" style="stroke: #000000"/>
     <use xlink:href="#m283f914a58" x="290.70905" y="645.63055" style="stroke: #000000"/>
     <use xlink:href="#m283f914a58" x="353.113635" y="646.079547" style="stroke: #000000"/>
     <use xlink:href="#m283f914a58" x="415.518221" y="641.987198" style="stroke: #000000"/>
    </g>
   </g>
   <g id="line2d_68">
    <path d="M 61.892237 634.055776 
L 82.693765 634.894615 
L 103.495294 635.733454 
L 124.296822 636.572292 
L 165.899879 638.24997 
L 228.304465 640.766486 
L 290.70905 643.283002 
L 353.113635 645.799518 
L 415.518221 648.316034 
" clip-path="url(#p99d500df5d)" style="fill: none; stroke: #000000; stroke-width: 1.5; stroke-linecap: square"/>
   </g>
   <g id="patch_9">
    <path d="M 44.210938 690.84327 
L 44.210938 382.917885 
" style="fill: none; stroke: #000000; stroke-width: 0.8; stroke-linejoin: miter; stroke-linecap: square"/>
   </g>
   <g id="patch_10">
    <path d="M 433.19952 690.84327 
L 433.19952 382.917885 
" style="fill: none; stroke: #000000; stroke-width: 0.8; stroke-linejoin: miter; stroke-linecap: square"/>
   </g>
   <g id="patch_11">
    <path d="M 44.210938 690.84327 
L 433.19952 690.84327 
" style="fill: none; stroke: #000000; stroke-width: 0.8; stroke-linejoin: miter; stroke-linecap: square"/>
   </g>
   <g id="patch_12">
    <path d="M 44.210938 382.917885 
L 433.19952 382.917885 
" style="fill: none; stroke: #000000; stroke-width: 0.8; stroke-linejoin: miter; stroke-linecap: square"/>
   </g>
   <g id="text_46">
    <!-- Replicate 4 -->
    <g transform="translate(205.227104 376.917885) scale(0.12 -0.12)">
     <use xlink:href="#DejaVuSans-52"/>
     <use xlink:href="#DejaVuSans-65" transform="translate(64.982422 0)"/>
     <use xlink:href="#DejaVuSans-70" transform="translate(126.505859 0)"/>
     <use xlink:href="#DejaVuSans-6c" transform="translate(189.982422 0)"/>
     <use xlink:href="#DejaVuSans-69" transform="translate(217.765625 0)"/>
     <use xlink:href="#DejaVuSans-63" transform="translate(245.548828 0)"/>
     <use xlink:href="#DejaVuSans-61" transform="translate(300.529297 0)"/>
     <use xlink:href="#DejaVuSans-74" transform="translate(361.808594 0)"/>
     <use xlink:href="#DejaVuSans-65" transform="translate(401.017578 0)"/>
     <use xlink:href="#DejaVuSans-20" transform="translate(462.541016 0)"/>
     <use xlink:href="#DejaVuSans-34" transform="translate(494.328125 0)"/>
    </g>
   </g>
   <g id="legend_2">
    <g id="patch_13">
     <path d="M 330.322958 589.754015 
L 426.19952 589.754015 
Q 428.19952 589.754015 428.19952 587.754015 
L 428.19952 486.00714 
Q 428.19952 484.00714 426.19952 484.00714 
L 330.322958 484.00714 
Q 328.322958 484.00714 328.322958 486.00714 
L 328.322958 587.754015 
Q 328.322958 589.754015 330.322958 589.754015 
z
" style="fill: #ffffff; opacity: 0.8; stroke: #cccccc; stroke-linejoin: miter"/>
    </g>
    <g id="line2d_69">
     <path d="M 332.322958 492.105577 
L 342.322958 492.105577 
L 352.322958 492.105577 
" style="fill: none; stroke: #0000ff; stroke-width: 1.5; stroke-linecap: square"/>
    </g>
    <g id="text_47">
     <!-- p.Met267Ter -->
     <g transform="translate(360.322958 495.605577) scale(0.1 -0.1)">
      <use xlink:href="#DejaVuSans-70"/>
      <use xlink:href="#DejaVuSans-2e" transform="translate(63.476562 0)"/>
      <use xlink:href="#DejaVuSans-4d" transform="translate(95.263672 0)"/>
      <use xlink:href="#DejaVuSans-65" transform="translate(181.542969 0)"/>
      <use xlink:href="#DejaVuSans-74" transform="translate(243.066406 0)"/>
      <use xlink:href="#DejaVuSans-32" transform="translate(282.275391 0)"/>
      <use xlink:href="#DejaVuSans-36" transform="translate(345.898438 0)"/>
      <use xlink:href="#DejaVuSans-37" transform="translate(409.521484 0)"/>
      <use xlink:href="#DejaVuSans-54" transform="translate(473.144531 0)"/>
      <use xlink:href="#DejaVuSans-65" transform="translate(517.228516 0)"/>
      <use xlink:href="#DejaVuSans-72" transform="translate(578.751953 0)"/>
     </g>
    </g>
    <g id="line2d_70">
     <path d="M 332.322958 506.783702 
L 342.322958 506.783702 
L 352.322958 506.783702 
" style="fill: none; stroke: #008000; stroke-width: 1.5; stroke-linecap: square"/>
    </g>
    <g id="text_48">
     <!-- p.Phe237Ser -->
     <g transform="translate(360.322958 510.283702) scale(0.1 -0.1)">
      <use xlink:href="#DejaVuSans-70"/>
      <use xlink:href="#DejaVuSans-2e" transform="translate(63.476562 0)"/>
      <use xlink:href="#DejaVuSans-50" transform="translate(95.263672 0)"/>
      <use xlink:href="#DejaVuSans-68" transform="translate(155.566406 0)"/>
      <use xlink:href="#DejaVuSans-65" transform="translate(218.945312 0)"/>
      <use xlink:href="#DejaVuSans-32" transform="translate(280.46875 0)"/>
      <use xlink:href="#DejaVuSans-33" transform="translate(344.091797 0)"/>
      <use xlink:href="#DejaVuSans-37" transform="translate(407.714844 0)"/>
      <use xlink:href="#DejaVuSans-53" transform="translate(471.337891 0)"/>
      <use xlink:href="#DejaVuSans-65" transform="translate(534.814453 0)"/>
      <use xlink:href="#DejaVuSans-72" transform="translate(596.337891 0)"/>
     </g>
    </g>
    <g id="line2d_71">
     <path d="M 332.322958 521.461827 
L 342.322958 521.461827 
L 352.322958 521.461827 
" style="fill: none; stroke: #ff0000; stroke-width: 1.5; stroke-linecap: square"/>
    </g>
    <g id="text_49">
     <!-- p.Gln195Leu -->
     <g transform="translate(360.322958 524.961827) scale(0.1 -0.1)">
      <use xlink:href="#DejaVuSans-70"/>
      <use xlink:href="#DejaVuSans-2e" transform="translate(63.476562 0)"/>
      <use xlink:href="#DejaVuSans-47" transform="translate(95.263672 0)"/>
      <use xlink:href="#DejaVuSans-6c" transform="translate(172.753906 0)"/>
      <use xlink:href="#DejaVuSans-6e" transform="translate(200.537109 0)"/>
      <use xlink:href="#DejaVuSans-31" transform="translate(263.916016 0)"/>
      <use xlink:href="#DejaVuSans-39" transform="translate(327.539062 0)"/>
      <use xlink:href="#DejaVuSans-35" transform="translate(391.162109 0)"/>
      <use xlink:href="#DejaVuSans-4c" transform="translate(454.785156 0)"/>
      <use xlink:href="#DejaVuSans-65" transform="translate(508.748047 0)"/>
      <use xlink:href="#DejaVuSans-75" transform="translate(570.271484 0)"/>
     </g>
    </g>
    <g id="line2d_72">
     <path d="M 332.322958 536.139952 
L 342.322958 536.139952 
L 352.322958 536.139952 
" style="fill: none; stroke: #00bfbf; stroke-width: 1.5; stroke-linecap: square"/>
    </g>
    <g id="text_50">
     <!-- p.Asp282Gln -->
     <g transform="translate(360.322958 539.639952) scale(0.1 -0.1)">
      <use xlink:href="#DejaVuSans-70"/>
      <use xlink:href="#DejaVuSans-2e" transform="translate(63.476562 0)"/>
      <use xlink:href="#DejaVuSans-41" transform="translate(95.263672 0)"/>
      <use xlink:href="#DejaVuSans-73" transform="translate(163.671875 0)"/>
      <use xlink:href="#DejaVuSans-70" transform="translate(215.771484 0)"/>
      <use xlink:href="#DejaVuSans-32" transform="translate(279.248047 0)"/>
      <use xlink:href="#DejaVuSans-38" transform="translate(342.871094 0)"/>
      <use xlink:href="#DejaVuSans-32" transform="translate(406.494141 0)"/>
      <use xlink:href="#DejaVuSans-47" transform="translate(470.117188 0)"/>
      <use xlink:href="#DejaVuSans-6c" transform="translate(547.607422 0)"/>
      <use xlink:href="#DejaVuSans-6e" transform="translate(575.390625 0)"/>
     </g>
    </g>
    <g id="line2d_73">
     <path d="M 332.322958 550.818077 
L 342.322958 550.818077 
L 352.322958 550.818077 
" style="fill: none; stroke: #bf00bf; stroke-width: 1.5; stroke-linecap: square"/>
    </g>
    <g id="text_51">
     <!-- p.Ala109Ter -->
     <g transform="translate(360.322958 554.318077) scale(0.1 -0.1)">
      <use xlink:href="#DejaVuSans-70"/>
      <use xlink:href="#DejaVuSans-2e" transform="translate(63.476562 0)"/>
      <use xlink:href="#DejaVuSans-41" transform="translate(95.263672 0)"/>
      <use xlink:href="#DejaVuSans-6c" transform="translate(163.671875 0)"/>
      <use xlink:href="#DejaVuSans-61" transform="translate(191.455078 0)"/>
      <use xlink:href="#DejaVuSans-31" transform="translate(252.734375 0)"/>
      <use xlink:href="#DejaVuSans-30" transform="translate(316.357422 0)"/>
      <use xlink:href="#DejaVuSans-39" transform="translate(379.980469 0)"/>
      <use xlink:href="#DejaVuSans-54" transform="translate(443.603516 0)"/>
      <use xlink:href="#DejaVuSans-65" transform="translate(487.6875 0)"/>
      <use xlink:href="#DejaVuSans-72" transform="translate(549.210938 0)"/>
     </g>
    </g>
    <g id="line2d_74">
     <path d="M 332.322958 565.496202 
L 342.322958 565.496202 
L 352.322958 565.496202 
" style="fill: none; stroke: #bfbf00; stroke-width: 1.5; stroke-linecap: square"/>
    </g>
    <g id="text_52">
     <!-- p.Ala300Met -->
     <g transform="translate(360.322958 568.996202) scale(0.1 -0.1)">
      <use xlink:href="#DejaVuSans-70"/>
      <use xlink:href="#DejaVuSans-2e" transform="translate(63.476562 0)"/>
      <use xlink:href="#DejaVuSans-41" transform="translate(95.263672 0)"/>
      <use xlink:href="#DejaVuSans-6c" transform="translate(163.671875 0)"/>
      <use xlink:href="#DejaVuSans-61" transform="translate(191.455078 0)"/>
      <use xlink:href="#DejaVuSans-33" transform="translate(252.734375 0)"/>
      <use xlink:href="#DejaVuSans-30" transform="translate(316.357422 0)"/>
      <use xlink:href="#DejaVuSans-30" transform="translate(379.980469 0)"/>
      <use xlink:href="#DejaVuSans-4d" transform="translate(443.603516 0)"/>
      <use xlink:href="#DejaVuSans-65" transform="translate(529.882812 0)"/>
      <use xlink:href="#DejaVuSans-74" transform="translate(591.40625 0)"/>
     </g>
    </g>
    <g id="line2d_75">
     <path d="M 332.322958 580.174327 
L 342.322958 580.174327 
L 352.322958 580.174327 
" style="fill: none; stroke: #000000; stroke-width: 1.5; stroke-linecap: square"/>
    </g>
    <g id="text_53">
     <!-- p.Phe241Pro -->
     <g transform="translate(360.322958 583.674327) scale(0.1 -0.1)">
      <use xlink:href="#DejaVuSans-70"/>
      <use xlink:href="#DejaVuSans-2e" transform="translate(63.476562 0)"/>
      <use xlink:href="#DejaVuSans-50" transform="translate(95.263672 0)"/>
      <use xlink:href="#DejaVuSans-68" transform="translate(155.566406 0)"/>
      <use xlink:href="#DejaVuSans-65" transform="translate(218.945312 0)"/>
      <use xlink:href="#DejaVuSans-32" transform="translate(280.46875 0)"/>
      <use xlink:href="#DejaVuSans-34" transform="translate(344.091797 0)"/>
      <use xlink:href="#DejaVuSans-31" transform="translate(407.714844 0)"/>
      <use xlink:href="#DejaVuSans-50" transform="translate(471.337891 0)"/>
      <use xlink:href="#DejaVuSans-72" transform="translate(529.890625 0)"/>
      <use xlink:href="#DejaVuSans-6f" transform="translate(568.753906 0)"/>
     </g>
    </g>
   </g>
  </g>
 </g>
 <defs>
  <clipPath id="p3bb9b86c58">
   <rect x="44.210938" y="22.318125" width="388.988583" height="307.925385"/>
  </clipPath>
  <clipPath id="p99d500df5d">
   <rect x="44.210938" y="382.917885" width="388.988583" height="307.925385"/>
  </clipPath>
 </defs>
</svg>
