<?xml version="1.0" encoding="utf-8" standalone="no"?>
<!DOCTYPE svg PUBLIC "-//W3C//DTD SVG 1.1//EN"
  "http://www.w3.org/Graphics/SVG/1.1/DTD/svg11.dtd">
<svg xmlns:xlink="http://www.w3.org/1999/xlink" width="440.39952pt" height="728.39952pt" viewBox="0 0 440.39952 728.39952" xmlns="http://www.w3.org/2000/svg" version="1.1">
 <metadata>
  <rdf:RDF xmlns:dc="http://purl.org/dc/elements/1.1/" xmlns:cc="http://creativecommons.org/ns#" xmlns:rdf="http://www.w3.org/1999/02/22-rdf-syntax-ns#">
   <cc:Work>
    <dc:type rdf:resource="http://purl.org/dc/dcmitype/StillImage"/>
    <dc:date>2025-10-01T15:42:50.700405</dc:date>
    <dc:format>image/svg+xml</dc:format>
    <dc:creator>
     <cc:Agent>
      <dc:title>Matplotlib v3.10.6, https://matplotlib.org/</dc:title>
     </cc:Agent>
    </dc:creator>
   </cc:Work>
  </rdf:RDF>
 </metadata>
 <defs>
  <style type="text/css">*{stroke-linejoin: round; stroke-linecap: butt}</style>
 </defs>
 <g id="figure_1">
  <g id="patch_1">
   <path d="M 0 728.39952 
L 440.39952 728.39952 
L 440.39952 0 
L 0 0 
z
" style="fill: #ffffff"/>
  </g>
  <g id="axes_1">
   <g id="patch_2">
    <path d="M 40.603125 330.24351 
L 433.19952 330.24351 
L 433.19952 22.318125 
L 40.603125 22.318125 
z
" style="fill: #ffffff"/>
   </g>
   <g id="matplotlib.axis_1">
    <g id="xtick_1">
     <g id="line2d_1">
      <defs>
       <path id="md7f5fc8528" d="M 0 0 
L 0 3.5 
" style="stroke: #000000; stroke-width: 0.8"/>
      </defs>
      <g>
       <use xlink:href="#md7f5fc8528" x="58.448416" y="330.24351" style="stroke: #000000; stroke-width: 0.8"/>
      </g>
     </g>
     <g id="text_1">
      <!-- 0 -->
      <g transform="translate(55.267166 344.841947) scale(0.1 -0.1)">
       <defs>
        <path id="DejaVuSans-30" d="M 2034 4250 
Q 1547 4250 1301 3770 
Q 1056 3291 1056 2328 
Q 1056 1369 1301 889 
Q 1547 409 2034 409 
Q 2525 409 2770 889 
Q 3016 1369 3016 2328 
Q 3016 3291 2770 3770 
Q 2525 4250 2034 4250 
z
M 2034 4750 
Q 2819 4750 3233 4129 
Q 3647 3509 3647 2328 
Q 3647 1150 3233 529 
Q 2819 -91 2034 -91 
Q 1250 -91 836 529 
Q 422 1150 422 2328 
Q 422 3509 836 4129 
Q 1250 4750 2034 4750 
z
" transform="scale(0.015625)"/>
       </defs>
       <use xlink:href="#DejaVuSans-30"/>
      </g>
     </g>
    </g>
    <g id="xtick_2">
     <g id="line2d_2">
      <g>
       <use xlink:href="#md7f5fc8528" x="78.276516" y="330.24351" style="stroke: #000000; stroke-width: 0.8"/>
      </g>
     </g>
     <g id="text_2">
      <!-- 4 -->
      <g transform="translate(75.095266 344.841947) scale(0.1 -0.1)">
       <defs>
        <path id="DejaVuSans-34" d="M 2419 4116 
L 825 1625 
L 2419 1625 
L 2419 4116 
z
M 2253 4666 
L 3047 4666 
L 3047 1625 
L 3713 1625 
L 3713 1100 
L 3047 1100 
L 3047 0 
L 2419 0 
L 2419 1100 
L 313 1100 
L 313 1709 
L 2253 4666 
z
" transform="scale(0.015625)"/>
       </defs>
       <use xlink:href="#DejaVuSans-34"/>
      </g>
     </g>
    </g>
    <g id="xtick_3">
     <g id="line2d_3">
      <g>
       <use xlink:href="#md7f5fc8528" x="98.104617" y="330.24351" style="stroke: #000000; stroke-width: 0.8"/>
      </g>
     </g>
     <g id="text_3">
      <!-- 8 -->
      <g transform="translate(94.923367 344.841947) scale(0.1 -0.1)">
       <defs>
        <path id="DejaVuSans-38" d="M 2034 2216 
Q 1584 2216 1326 1975 
Q 1069 1734 1069 1313 
Q 1069 891 1326 650 
Q 1584 409 2034 409 
Q 2484 409 2743 651 
Q 3003 894 3003 1313 
Q 3003 1734 2745 1975 
Q 2488 2216 2034 2216 
z
M 1403 2484 
Q 997 2584 770 2862 
Q 544 3141 544 3541 
Q 544 4100 942 4425 
Q 1341 4750 2034 4750 
Q 2731 4750 3128 4425 
Q 3525 4100 3525 3541 
Q 3525 3141 3298 2862 
Q 3072 2584 2669 2484 
Q 3125 2378 3379 2068 
Q 3634 1759 3634 1313 
Q 3634 634 3220 271 
Q 2806 -91 2034 -91 
Q 1263 -91 848 271 
Q 434 634 434 1313 
Q 434 1759 690 2068 
Q 947 2378 1403 2484 
z
M 1172 3481 
Q 1172 3119 1398 2916 
Q 1625 2713 2034 2713 
Q 2441 2713 2670 2916 
Q 2900 3119 2900 3481 
Q 2900 3844 2670 4047 
Q 2441 4250 2034 4250 
Q 1625 4250 1398 4047 
Q 1172 3844 1172 3481 
z
" transform="scale(0.015625)"/>
       </defs>
       <use xlink:href="#DejaVuSans-38"/>
      </g>
     </g>
    </g>
    <g id="xtick_4">
     <g id="line2d_4">
      <g>
       <use xlink:href="#md7f5fc8528" x="117.932718" y="330.24351" style="stroke: #000000; stroke-width: 0.8"/>
      </g>
     </g>
     <g id="text_4">
      <!-- 12 -->
      <g transform="translate(111.570218 344.841947) scale(0.1 -0.1)">
       <defs>
        <path id="DejaVuSans-31" d="M 794 531 
L 1825 531 
L 1825 4091 
L 703 3866 
L 703 4441 
L 1819 4666 
L 2450 4666 
L 2450 531 
L 3481 531 
L 3481 0 
L 794 0 
L 794 531 
z
" transform="scale(0.015625)"/>
        <path id="DejaVuSans-32" d="M 1228 531 
L 3431 531 
L 3431 0 
L 469 0 
L 469 531 
Q 828 903 1448 1529 
Q 2069 2156 2228 2338 
Q 2531 2678 2651 2914 
Q 2772 3150 2772 3378 
Q 2772 3750 2511 3984 
Q 2250 4219 1831 4219 
Q 1534 4219 1204 4116 
Q 875 4013 500 3803 
L 500 4441 
Q 881 4594 1212 4672 
Q 1544 4750 1819 4750 
Q 2544 4750 2975 4387 
Q 3406 4025 3406 3419 
Q 3406 3131 3298 2873 
Q 3191 2616 2906 2266 
Q 2828 2175 2409 1742 
Q 1991 1309 1228 531 
z
" transform="scale(0.015625)"/>
       </defs>
       <use xlink:href="#DejaVuSans-31"/>
       <use xlink:href="#DejaVuSans-32" transform="translate(63.623047 0)"/>
      </g>
     </g>
    </g>
    <g id="xtick_5">
     <g id="line2d_5">
      <g>
       <use xlink:href="#md7f5fc8528" x="137.760819" y="330.24351" style="stroke: #000000; stroke-width: 0.8"/>
      </g>
     </g>
     <g id="text_5">
      <!-- 16 -->
      <g transform="translate(131.398319 344.841947) scale(0.1 -0.1)">
       <defs>
        <path id="DejaVuSans-36" d="M 2113 2584 
Q 1688 2584 1439 2293 
Q 1191 2003 1191 1497 
Q 1191 994 1439 701 
Q 1688 409 2113 409 
Q 2538 409 2786 701 
Q 3034 994 3034 1497 
Q 3034 2003 2786 2293 
Q 2538 2584 2113 2584 
z
M 3366 4563 
L 3366 3988 
Q 3128 4100 2886 4159 
Q 2644 4219 2406 4219 
Q 1781 4219 1451 3797 
Q 1122 3375 1075 2522 
Q 1259 2794 1537 2939 
Q 1816 3084 2150 3084 
Q 2853 3084 3261 2657 
Q 3669 2231 3669 1497 
Q 3669 778 3244 343 
Q 2819 -91 2113 -91 
Q 1303 -91 875 529 
Q 447 1150 447 2328 
Q 447 3434 972 4092 
Q 1497 4750 2381 4750 
Q 2619 4750 2861 4703 
Q 3103 4656 3366 4563 
z
" transform="scale(0.015625)"/>
       </defs>
       <use xlink:href="#DejaVuSans-31"/>
       <use xlink:href="#DejaVuSans-36" transform="translate(63.623047 0)"/>
      </g>
     </g>
    </g>
    <g id="xtick_6">
     <g id="line2d_6">
      <g>
       <use xlink:href="#md7f5fc8528" x="177.41702" y="330.24351" style="stroke: #000000; stroke-width: 0.8"/>
      </g>
     </g>
     <g id="text_6">
      <!-- 24 -->
      <g transform="translate(171.05452 344.841947) scale(0.1 -0.1)">
       <use xlink:href="#DejaVuSans-32"/>
       <use xlink:href="#DejaVuSans-34" transform="translate(63.623047 0)"/>
      </g>
     </g>
    </g>
    <g id="xtick_7">
     <g id="line2d_7">
      <g>
       <use xlink:href="#md7f5fc8528" x="236.901323" y="330.24351" style="stroke: #000000; stroke-width: 0.8"/>
      </g>
     </g>
     <g id="text_7">
      <!-- 36 -->
      <g transform="translate(230.538823 344.841947) scale(0.1 -0.1)">
       <defs>
        <path id="DejaVuSans-33" d="M 2597 2516 
Q 3050 2419 3304 2112 
Q 3559 1806 3559 1356 
Q 3559 666 3084 287 
Q 2609 -91 1734 -91 
Q 1441 -91 1130 -33 
Q 819 25 488 141 
L 488 750 
Q 750 597 1062 519 
Q 1375 441 1716 441 
Q 2309 441 2620 675 
Q 2931 909 2931 1356 
Q 2931 1769 2642 2001 
Q 2353 2234 1838 2234 
L 1294 2234 
L 1294 2753 
L 1863 2753 
Q 2328 2753 2575 2939 
Q 2822 3125 2822 3475 
Q 2822 3834 2567 4026 
Q 2313 4219 1838 4219 
Q 1578 4219 1281 4162 
Q 984 4106 628 3988 
L 628 4550 
Q 988 4650 1302 4700 
Q 1616 4750 1894 4750 
Q 2613 4750 3031 4423 
Q 3450 4097 3450 3541 
Q 3450 3153 3228 2886 
Q 3006 2619 2597 2516 
z
" transform="scale(0.015625)"/>
       </defs>
       <use xlink:href="#DejaVuSans-33"/>
       <use xlink:href="#DejaVuSans-36" transform="translate(63.623047 0)"/>
      </g>
     </g>
    </g>
    <g id="xtick_8">
     <g id="line2d_8">
      <g>
       <use xlink:href="#md7f5fc8528" x="296.385625" y="330.24351" style="stroke: #000000; stroke-width: 0.8"/>
      </g>
     </g>
     <g id="text_8">
      <!-- 48 -->
      <g transform="translate(290.023125 344.841947) scale(0.1 -0.1)">
       <use xlink:href="#DejaVuSans-34"/>
       <use xlink:href="#DejaVuSans-38" transform="translate(63.623047 0)"/>
      </g>
     </g>
    </g>
    <g id="xtick_9">
     <g id="line2d_9">
      <g>
       <use xlink:href="#md7f5fc8528" x="355.869927" y="330.24351" style="stroke: #000000; stroke-width: 0.8"/>
      </g>
     </g>
     <g id="text_9">
      <!-- 60 -->
      <g transform="translate(349.507427 344.841947) scale(0.1 -0.1)">
       <use xlink:href="#DejaVuSans-36"/>
       <use xlink:href="#DejaVuSans-30" transform="translate(63.623047 0)"/>
      </g>
     </g>
    </g>
    <g id="xtick_10">
     <g id="line2d_10">
      <g>
       <use xlink:href="#md7f5fc8528" x="415.354229" y="330.24351" style="stroke: #000000; stroke-width: 0.8"/>
      </g>
     </g>
     <g id="text_10">
      <!-- 72 -->
      <g transform="translate(408.991729 344.841947) scale(0.1 -0.1)">
       <defs>
        <path id="DejaVuSans-37" d="M 525 4666 
L 3525 4666 
L 3525 4397 
L 1831 0 
L 1172 0 
L 2766 4134 
L 525 4134 
L 525 4666 
z
" transform="scale(0.015625)"/>
       </defs>
       <use xlink:href="#DejaVuSans-37"/>
       <use xlink:href="#DejaVuSans-32" transform="translate(63.623047 0)"/>
      </g>
     </g>
    </g>
    <g id="text_11">
     <!-- time (h) -->
     <g transform="translate(216.945854 358.520072) scale(0.1 -0.1)">
      <defs>
       <path id="DejaVuSans-74" d="M 1172 4494 
L 1172 3500 
L 2356 3500 
L 2356 3053 
L 1172 3053 
L 1172 1153 
Q 1172 725 1289 603 
Q 1406 481 1766 481 
L 2356 481 
L 2356 0 
L 1766 0 
Q 1100 0 847 248 
Q 594 497 594 1153 
L 594 3053 
L 172 3053 
L 172 3500 
L 594 3500 
L 594 4494 
L 1172 4494 
z
" transform="scale(0.015625)"/>
       <path id="DejaVuSans-69" d="M 603 3500 
L 1178 3500 
L 1178 0 
L 603 0 
L 603 3500 
z
M 603 4863 
L 1178 4863 
L 1178 4134 
L 603 4134 
L 603 4863 
z
" transform="scale(0.015625)"/>
       <path id="DejaVuSans-6d" d="M 3328 2828 
Q 3544 3216 3844 3400 
Q 4144 3584 4550 3584 
Q 5097 3584 5394 3201 
Q 5691 2819 5691 2113 
L 5691 0 
L 5113 0 
L 5113 2094 
Q 5113 2597 4934 2840 
Q 4756 3084 4391 3084 
Q 3944 3084 3684 2787 
Q 3425 2491 3425 1978 
L 3425 0 
L 2847 0 
L 2847 2094 
Q 2847 2600 2669 2842 
Q 2491 3084 2119 3084 
Q 1678 3084 1418 2786 
Q 1159 2488 1159 1978 
L 1159 0 
L 581 0 
L 581 3500 
L 1159 3500 
L 1159 2956 
Q 1356 3278 1631 3431 
Q 1906 3584 2284 3584 
Q 2666 3584 2933 3390 
Q 3200 3197 3328 2828 
z
" transform="scale(0.015625)"/>
       <path id="DejaVuSans-65" d="M 3597 1894 
L 3597 1613 
L 953 1613 
Q 991 1019 1311 708 
Q 1631 397 2203 397 
Q 2534 397 2845 478 
Q 3156 559 3463 722 
L 3463 178 
Q 3153 47 2828 -22 
Q 2503 -91 2169 -91 
Q 1331 -91 842 396 
Q 353 884 353 1716 
Q 353 2575 817 3079 
Q 1281 3584 2069 3584 
Q 2775 3584 3186 3129 
Q 3597 2675 3597 1894 
z
M 3022 2063 
Q 3016 2534 2758 2815 
Q 2500 3097 2075 3097 
Q 1594 3097 1305 2825 
Q 1016 2553 972 2059 
L 3022 2063 
z
" transform="scale(0.015625)"/>
       <path id="DejaVuSans-20" transform="scale(0.015625)"/>
       <path id="DejaVuSans-28" d="M 1984 4856 
Q 1566 4138 1362 3434 
Q 1159 2731 1159 2009 
Q 1159 1288 1364 580 
Q 1569 -128 1984 -844 
L 1484 -844 
Q 1016 -109 783 600 
Q 550 1309 550 2009 
Q 550 2706 781 3412 
Q 1013 4119 1484 4856 
L 1984 4856 
z
" transform="scale(0.015625)"/>
       <path id="DejaVuSans-68" d="M 3513 2113 
L 3513 0 
L 2938 0 
L 2938 2094 
Q 2938 2591 2744 2837 
Q 2550 3084 2163 3084 
Q 1697 3084 1428 2787 
Q 1159 2491 1159 1978 
L 1159 0 
L 581 0 
L 581 4863 
L 1159 4863 
L 1159 2956 
Q 1366 3272 1645 3428 
Q 1925 3584 2291 3584 
Q 2894 3584 3203 3211 
Q 3513 2838 3513 2113 
z
" transform="scale(0.015625)"/>
       <path id="DejaVuSans-29" d="M 513 4856 
L 1013 4856 
Q 1481 4119 1714 3412 
Q 1947 2706 1947 2009 
Q 1947 1309 1714 600 
Q 1481 -109 1013 -844 
L 513 -844 
Q 928 -128 1133 580 
Q 1338 1288 1338 2009 
Q 1338 2731 1133 3434 
Q 928 4138 513 4856 
z
" transform="scale(0.015625)"/>
      </defs>
      <use xlink:href="#DejaVuSans-74"/>
      <use xlink:href="#DejaVuSans-69" transform="translate(39.208984 0)"/>
      <use xlink:href="#DejaVuSans-6d" transform="translate(66.992188 0)"/>
      <use xlink:href="#DejaVuSans-65" transform="translate(164.404297 0)"/>
      <use xlink:href="#DejaVuSans-20" transform="translate(225.927734 0)"/>
      <use xlink:href="#DejaVuSans-28" transform="translate(257.714844 0)"/>
      <use xlink:href="#DejaVuSans-68" transform="translate(296.728516 0)"/>
      <use xlink:href="#DejaVuSans-29" transform="translate(360.107422 0)"/>
     </g>
    </g>
   </g>
   <g id="matplotlib.axis_2">
    <g id="ytick_1">
     <g id="line2d_11">
      <defs>
       <path id="m72d0d0a849" d="M 0 0 
L -3.5 0 
" style="stroke: #000000; stroke-width: 0.8"/>
      </defs>
      <g>
       <use xlink:href="#m72d0d0a849" x="40.603125" y="313.543387" style="stroke: #000000; stroke-width: 0.8"/>
      </g>
     </g>
     <g id="text_12">
      <!-- 0 -->
      <g transform="translate(27.240625 317.342606) scale(0.1 -0.1)">
       <use xlink:href="#DejaVuSans-30"/>
      </g>
     </g>
    </g>
    <g id="ytick_2">
     <g id="line2d_12">
      <g>
       <use xlink:href="#m72d0d0a849" x="40.603125" y="273.209145" style="stroke: #000000; stroke-width: 0.8"/>
      </g>
     </g>
     <g id="text_13">
      <!-- 10 -->
      <g transform="translate(20.878125 277.008364) scale(0.1 -0.1)">
       <use xlink:href="#DejaVuSans-31"/>
       <use xlink:href="#DejaVuSans-30" transform="translate(63.623047 0)"/>
      </g>
     </g>
    </g>
    <g id="ytick_3">
     <g id="line2d_13">
      <g>
       <use xlink:href="#m72d0d0a849" x="40.603125" y="232.874903" style="stroke: #000000; stroke-width: 0.8"/>
      </g>
     </g>
     <g id="text_14">
      <!-- 20 -->
      <g transform="translate(20.878125 236.674122) scale(0.1 -0.1)">
       <use xlink:href="#DejaVuSans-32"/>
       <use xlink:href="#DejaVuSans-30" transform="translate(63.623047 0)"/>
      </g>
     </g>
    </g>
    <g id="ytick_4">
     <g id="line2d_14">
      <g>
       <use xlink:href="#m72d0d0a849" x="40.603125" y="192.540661" style="stroke: #000000; stroke-width: 0.8"/>
      </g>
     </g>
     <g id="text_15">
      <!-- 30 -->
      <g transform="translate(20.878125 196.33988) scale(0.1 -0.1)">
       <use xlink:href="#DejaVuSans-33"/>
       <use xlink:href="#DejaVuSans-30" transform="translate(63.623047 0)"/>
      </g>
     </g>
    </g>
    <g id="ytick_5">
     <g id="line2d_15">
      <g>
       <use xlink:href="#m72d0d0a849" x="40.603125" y="152.206419" style="stroke: #000000; stroke-width: 0.8"/>
      </g>
     </g>
     <g id="text_16">
      <!-- 40 -->
      <g transform="translate(20.878125 156.005638) scale(0.1 -0.1)">
       <use xlink:href="#DejaVuSans-34"/>
       <use xlink:href="#DejaVuSans-30" transform="translate(63.623047 0)"/>
      </g>
     </g>
    </g>
    <g id="ytick_6">
     <g id="line2d_16">
      <g>
       <use xlink:href="#m72d0d0a849" x="40.603125" y="111.872177" style="stroke: #000000; stroke-width: 0.8"/>
      </g>
     </g>
     <g id="text_17">
      <!-- 50 -->
      <g transform="translate(20.878125 115.671396) scale(0.1 -0.1)">
       <defs>
        <path id="DejaVuSans-35" d="M 691 4666 
L 3169 4666 
L 3169 4134 
L 1269 4134 
L 1269 2991 
Q 1406 3038 1543 3061 
Q 1681 3084 1819 3084 
Q 2600 3084 3056 2656 
Q 3513 2228 3513 1497 
Q 3513 744 3044 326 
Q 2575 -91 1722 -91 
Q 1428 -91 1123 -41 
Q 819 9 494 109 
L 494 744 
Q 775 591 1075 516 
Q 1375 441 1709 441 
Q 2250 441 2565 725 
Q 2881 1009 2881 1497 
Q 2881 1984 2565 2268 
Q 2250 2553 1709 2553 
Q 1456 2553 1204 2497 
Q 953 2441 691 2322 
L 691 4666 
z
" transform="scale(0.015625)"/>
       </defs>
       <use xlink:href="#DejaVuSans-35"/>
       <use xlink:href="#DejaVuSans-30" transform="translate(63.623047 0)"/>
      </g>
     </g>
    </g>
    <g id="ytick_7">
     <g id="line2d_17">
      <g>
       <use xlink:href="#m72d0d0a849" x="40.603125" y="71.537935" style="stroke: #000000; stroke-width: 0.8"/>
      </g>
     </g>
     <g id="text_18">
      <!-- 60 -->
      <g transform="translate(20.878125 75.337154) scale(0.1 -0.1)">
       <use xlink:href="#DejaVuSans-36"/>
       <use xlink:href="#DejaVuSans-30" transform="translate(63.623047 0)"/>
      </g>
     </g>
    </g>
    <g id="ytick_8">
     <g id="line2d_18">
      <g>
       <use xlink:href="#m72d0d0a849" x="40.603125" y="31.203693" style="stroke: #000000; stroke-width: 0.8"/>
      </g>
     </g>
     <g id="text_19">
      <!-- 70 -->
      <g transform="translate(20.878125 35.002912) scale(0.1 -0.1)">
       <use xlink:href="#DejaVuSans-37"/>
       <use xlink:href="#DejaVuSans-30" transform="translate(63.623047 0)"/>
      </g>
     </g>
    </g>
    <g id="text_20">
     <!-- fraction (ppm) -->
     <g transform="translate(14.798438 212.196442) rotate(-90) scale(0.1 -0.1)">
      <defs>
       <path id="DejaVuSans-66" d="M 2375 4863 
L 2375 4384 
L 1825 4384 
Q 1516 4384 1395 4259 
Q 1275 4134 1275 3809 
L 1275 3500 
L 2222 3500 
L 2222 3053 
L 1275 3053 
L 1275 0 
L 697 0 
L 697 3053 
L 147 3053 
L 147 3500 
L 697 3500 
L 697 3744 
Q 697 4328 969 4595 
Q 1241 4863 1831 4863 
L 2375 4863 
z
" transform="scale(0.015625)"/>
       <path id="DejaVuSans-72" d="M 2631 2963 
Q 2534 3019 2420 3045 
Q 2306 3072 2169 3072 
Q 1681 3072 1420 2755 
Q 1159 2438 1159 1844 
L 1159 0 
L 581 0 
L 581 3500 
L 1159 3500 
L 1159 2956 
Q 1341 3275 1631 3429 
Q 1922 3584 2338 3584 
Q 2397 3584 2469 3576 
Q 2541 3569 2628 3553 
L 2631 2963 
z
" transform="scale(0.015625)"/>
       <path id="DejaVuSans-61" d="M 2194 1759 
Q 1497 1759 1228 1600 
Q 959 1441 959 1056 
Q 959 750 1161 570 
Q 1363 391 1709 391 
Q 2188 391 2477 730 
Q 2766 1069 2766 1631 
L 2766 1759 
L 2194 1759 
z
M 3341 1997 
L 3341 0 
L 2766 0 
L 2766 531 
Q 2569 213 2275 61 
Q 1981 -91 1556 -91 
Q 1019 -91 701 211 
Q 384 513 384 1019 
Q 384 1609 779 1909 
Q 1175 2209 1959 2209 
L 2766 2209 
L 2766 2266 
Q 2766 2663 2505 2880 
Q 2244 3097 1772 3097 
Q 1472 3097 1187 3025 
Q 903 2953 641 2809 
L 641 3341 
Q 956 3463 1253 3523 
Q 1550 3584 1831 3584 
Q 2591 3584 2966 3190 
Q 3341 2797 3341 1997 
z
" transform="scale(0.015625)"/>
       <path id="DejaVuSans-63" d="M 3122 3366 
L 3122 2828 
Q 2878 2963 2633 3030 
Q 2388 3097 2138 3097 
Q 1578 3097 1268 2742 
Q 959 2388 959 1747 
Q 959 1106 1268 751 
Q 1578 397 2138 397 
Q 2388 397 2633 464 
Q 2878 531 3122 666 
L 3122 134 
Q 2881 22 2623 -34 
Q 2366 -91 2075 -91 
Q 1284 -91 818 406 
Q 353 903 353 1747 
Q 353 2603 823 3093 
Q 1294 3584 2113 3584 
Q 2378 3584 2631 3529 
Q 2884 3475 3122 3366 
z
" transform="scale(0.015625)"/>
       <path id="DejaVuSans-6f" d="M 1959 3097 
Q 1497 3097 1228 2736 
Q 959 2375 959 1747 
Q 959 1119 1226 758 
Q 1494 397 1959 397 
Q 2419 397 2687 759 
Q 2956 1122 2956 1747 
Q 2956 2369 2687 2733 
Q 2419 3097 1959 3097 
z
M 1959 3584 
Q 2709 3584 3137 3096 
Q 3566 2609 3566 1747 
Q 3566 888 3137 398 
Q 2709 -91 1959 -91 
Q 1206 -91 779 398 
Q 353 888 353 1747 
Q 353 2609 779 3096 
Q 1206 3584 1959 3584 
z
" transform="scale(0.015625)"/>
       <path id="DejaVuSans-6e" d="M 3513 2113 
L 3513 0 
L 2938 0 
L 2938 2094 
Q 2938 2591 2744 2837 
Q 2550 3084 2163 3084 
Q 1697 3084 1428 2787 
Q 1159 2491 1159 1978 
L 1159 0 
L 581 0 
L 581 3500 
L 1159 3500 
L 1159 2956 
Q 1366 3272 1645 3428 
Q 1925 3584 2291 3584 
Q 2894 3584 3203 3211 
Q 3513 2838 3513 2113 
z
" transform="scale(0.015625)"/>
       <path id="DejaVuSans-70" d="M 1159 525 
L 1159 -1331 
L 581 -1331 
L 581 3500 
L 1159 3500 
L 1159 2969 
Q 1341 3281 1617 3432 
Q 1894 3584 2278 3584 
Q 2916 3584 3314 3078 
Q 3713 2572 3713 1747 
Q 3713 922 3314 415 
Q 2916 -91 2278 -91 
Q 1894 -91 1617 61 
Q 1341 213 1159 525 
z
M 3116 1747 
Q 3116 2381 2855 2742 
Q 2594 3103 2138 3103 
Q 1681 3103 1420 2742 
Q 1159 2381 1159 1747 
Q 1159 1113 1420 752 
Q 1681 391 2138 391 
Q 2594 391 2855 752 
Q 3116 1113 3116 1747 
z
" transform="scale(0.015625)"/>
      </defs>
      <use xlink:href="#DejaVuSans-66"/>
      <use xlink:href="#DejaVuSans-72" transform="translate(35.205078 0)"/>
      <use xlink:href="#DejaVuSans-61" transform="translate(76.318359 0)"/>
      <use xlink:href="#DejaVuSans-63" transform="translate(137.597656 0)"/>
      <use xlink:href="#DejaVuSans-74" transform="translate(192.578125 0)"/>
      <use xlink:href="#DejaVuSans-69" transform="translate(231.787109 0)"/>
      <use xlink:href="#DejaVuSans-6f" transform="translate(259.570312 0)"/>
      <use xlink:href="#DejaVuSans-6e" transform="translate(320.751953 0)"/>
      <use xlink:href="#DejaVuSans-20" transform="translate(384.130859 0)"/>
      <use xlink:href="#DejaVuSans-28" transform="translate(415.917969 0)"/>
      <use xlink:href="#DejaVuSans-70" transform="translate(454.931641 0)"/>
      <use xlink:href="#DejaVuSans-70" transform="translate(518.408203 0)"/>
      <use xlink:href="#DejaVuSans-6d" transform="translate(581.884766 0)"/>
      <use xlink:href="#DejaVuSans-29" transform="translate(679.296875 0)"/>
     </g>
    </g>
   </g>
   <g id="LineCollection_1">
    <path d="M 58.448416 155.259954 
L 58.448416 135.998902 
" clip-path="url(#pc3f68b3008)" style="fill: none; stroke: #0000ff; stroke-width: 1.5"/>
    <path d="M 78.276516 169.636353 
L 78.276516 130.566217 
" clip-path="url(#pc3f68b3008)" style="fill: none; stroke: #0000ff; stroke-width: 1.5"/>
    <path d="M 98.104617 138.104088 
L 98.104617 88.851321 
" clip-path="url(#pc3f68b3008)" style="fill: none; stroke: #0000ff; stroke-width: 1.5"/>
    <path d="M 117.932718 156.743921 
L 117.932718 119.561133 
" clip-path="url(#pc3f68b3008)" style="fill: none; stroke: #0000ff; stroke-width: 1.5"/>
    <path d="M 137.760819 140.294131 
L 137.760819 103.018712 
" clip-path="url(#pc3f68b3008)" style="fill: none; stroke: #0000ff; stroke-width: 1.5"/>
    <path d="M 177.41702 229.774952 
L 177.41702 191.569576 
" clip-path="url(#pc3f68b3008)" style="fill: none; stroke: #0000ff; stroke-width: 1.5"/>
    <path d="M 236.901323 182.507165 
L 236.901323 152.36782 
" clip-path="url(#pc3f68b3008)" style="fill: none; stroke: #0000ff; stroke-width: 1.5"/>
    <path d="M 296.385625 154.537154 
L 296.385625 110.278719 
" clip-path="url(#pc3f68b3008)" style="fill: none; stroke: #0000ff; stroke-width: 1.5"/>
    <path d="M 355.869927 212.157056 
L 355.869927 192.325935 
" clip-path="url(#pc3f68b3008)" style="fill: none; stroke: #0000ff; stroke-width: 1.5"/>
    <path d="M 415.354229 242.546447 
L 415.354229 224.672703 
" clip-path="url(#pc3f68b3008)" style="fill: none; stroke: #0000ff; stroke-width: 1.5"/>
   </g>
   <g id="line2d_19">
    <defs>
     <path id="m8c12b62bc8" d="M 3 0 
L -3 -0 
" style="stroke: #0000ff"/>
    </defs>
    <g clip-path="url(#pc3f68b3008)">
     <use xlink:href="#m8c12b62bc8" x="58.448416" y="155.259954" style="fill: #0000ff; stroke: #0000ff"/>
     <use xlink:href="#m8c12b62bc8" x="78.276516" y="169.636353" style="fill: #0000ff; stroke: #0000ff"/>
     <use xlink:href="#m8c12b62bc8" x="98.104617" y="138.104088" style="fill: #0000ff; stroke: #0000ff"/>
     <use xlink:href="#m8c12b62bc8" x="117.932718" y="156.743921" style="fill: #0000ff; stroke: #0000ff"/>
     <use xlink:href="#m8c12b62bc8" x="137.760819" y="140.294131" style="fill: #0000ff; stroke: #0000ff"/>
     <use xlink:href="#m8c12b62bc8" x="177.41702" y="229.774952" style="fill: #0000ff; stroke: #0000ff"/>
     <use xlink:href="#m8c12b62bc8" x="236.901323" y="182.507165" style="fill: #0000ff; stroke: #0000ff"/>
     <use xlink:href="#m8c12b62bc8" x="296.385625" y="154.537154" style="fill: #0000ff; stroke: #0000ff"/>
     <use xlink:href="#m8c12b62bc8" x="355.869927" y="212.157056" style="fill: #0000ff; stroke: #0000ff"/>
     <use xlink:href="#m8c12b62bc8" x="415.354229" y="242.546447" style="fill: #0000ff; stroke: #0000ff"/>
    </g>
   </g>
   <g id="line2d_20">
    <g clip-path="url(#pc3f68b3008)">
     <use xlink:href="#m8c12b62bc8" x="58.448416" y="135.998902" style="fill: #0000ff; stroke: #0000ff"/>
     <use xlink:href="#m8c12b62bc8" x="78.276516" y="130.566217" style="fill: #0000ff; stroke: #0000ff"/>
     <use xlink:href="#m8c12b62bc8" x="98.104617" y="88.851321" style="fill: #0000ff; stroke: #0000ff"/>
     <use xlink:href="#m8c12b62bc8" x="117.932718" y="119.561133" style="fill: #0000ff; stroke: #0000ff"/>
     <use xlink:href="#m8c12b62bc8" x="137.760819" y="103.018712" style="fill: #0000ff; stroke: #0000ff"/>
     <use xlink:href="#m8c12b62bc8" x="177.41702" y="191.569576" style="fill: #0000ff; stroke: #0000ff"/>
     <use xlink:href="#m8c12b62bc8" x="236.901323" y="152.36782" style="fill: #0000ff; stroke: #0000ff"/>
     <use xlink:href="#m8c12b62bc8" x="296.385625" y="110.278719" style="fill: #0000ff; stroke: #0000ff"/>
     <use xlink:href="#m8c12b62bc8" x="355.869927" y="192.325935" style="fill: #0000ff; stroke: #0000ff"/>
     <use xlink:href="#m8c12b62bc8" x="415.354229" y="224.672703" style="fill: #0000ff; stroke: #0000ff"/>
    </g>
   </g>
   <g id="line2d_21">
    <path d="M 58.448416 145.220275 
L 63.405441 144.053107 
L 68.362466 143.057515 
L 73.319491 142.225441 
L 78.276516 141.549126 
L 83.233542 141.021105 
L 88.190567 140.634192 
L 93.147592 140.381473 
L 98.104617 140.256297 
L 103.061642 140.252267 
L 108.018668 140.363229 
L 112.975693 140.583267 
L 117.932718 140.906693 
L 122.889743 141.328039 
L 127.846768 141.842051 
L 132.803794 142.44368 
L 137.760819 143.128074 
L 142.717844 143.890577 
L 147.674869 144.726712 
L 152.631894 145.632186 
L 157.588919 146.602876 
L 162.545945 147.634824 
L 167.50297 148.724234 
L 172.459995 149.867465 
L 177.41702 151.061025 
L 182.374045 152.301566 
L 187.331071 153.585879 
L 192.288096 154.91089 
L 197.245121 156.273652 
L 202.202146 157.671345 
L 207.159171 159.101268 
L 212.116197 160.560836 
L 217.073222 162.047576 
L 222.030247 163.559122 
L 226.987272 165.093214 
L 231.944297 166.647688 
L 236.901323 168.220481 
L 241.858348 169.809618 
L 246.815373 171.413218 
L 251.772398 173.029483 
L 256.729423 174.656698 
L 261.686448 176.29323 
L 266.643474 177.937521 
L 271.600499 179.588087 
L 276.557524 181.243517 
L 281.514549 182.902467 
L 286.471574 184.563659 
L 291.4286 186.225879 
L 296.385625 187.887973 
L 301.34265 189.548847 
L 306.299675 191.207463 
L 311.2567 192.862836 
L 316.213726 194.514036 
L 321.170751 196.16018 
L 326.127776 197.800435 
L 331.084801 199.434013 
L 336.041826 201.060172 
L 340.998851 202.678212 
L 345.955877 204.287473 
L 350.912902 205.887336 
L 355.869927 207.477218 
L 360.826952 209.056573 
L 365.783977 210.62489 
L 370.741003 212.181691 
L 375.698028 213.72653 
L 380.655053 215.258992 
L 385.612078 216.778689 
L 390.569103 218.285265 
L 395.526129 219.778388 
L 400.483154 221.257752 
L 405.440179 222.723077 
L 410.397204 224.174106 
L 415.354229 225.610603 
" clip-path="url(#pc3f68b3008)" style="fill: none; stroke-dasharray: 5.55,2.4; stroke-dashoffset: 0; stroke: #0000ff; stroke-width: 1.5"/>
   </g>
   <g id="LineCollection_2">
    <path d="M 58.448416 60.517434 
L 58.448416 36.314733 
" clip-path="url(#pc3f68b3008)" style="fill: none; stroke: #008000; stroke-width: 1.5"/>
    <path d="M 78.276516 118.915717 
L 78.276516 73.882044 
" clip-path="url(#pc3f68b3008)" style="fill: none; stroke: #008000; stroke-width: 1.5"/>
    <path d="M 98.104617 172.128685 
L 98.104617 127.577881 
" clip-path="url(#pc3f68b3008)" style="fill: none; stroke: #008000; stroke-width: 1.5"/>
    <path d="M 117.932718 206.87817 
L 117.932718 175.84381 
" clip-path="url(#pc3f68b3008)" style="fill: none; stroke: #008000; stroke-width: 1.5"/>
    <path d="M 137.760819 254.248501 
L 137.760819 231.638431 
" clip-path="url(#pc3f68b3008)" style="fill: none; stroke: #008000; stroke-width: 1.5"/>
    <path d="M 177.41702 289.288071 
L 177.41702 266.853102 
" clip-path="url(#pc3f68b3008)" style="fill: none; stroke: #008000; stroke-width: 1.5"/>
    <path d="M 236.901323 305.505118 
L 236.901323 296.712568 
" clip-path="url(#pc3f68b3008)" style="fill: none; stroke: #008000; stroke-width: 1.5"/>
    <path d="M 296.385625 316.246902 
L 296.385625 310.839873 
" clip-path="url(#pc3f68b3008)" style="fill: none; stroke: #008000; stroke-width: 1.5"/>
    <path d="M 355.869927 312.423347 
L 355.869927 309.363338 
" clip-path="url(#pc3f68b3008)" style="fill: none; stroke: #008000; stroke-width: 1.5"/>
    <path d="M 415.354229 314.54256 
L 415.354229 312.544215 
" clip-path="url(#pc3f68b3008)" style="fill: none; stroke: #008000; stroke-width: 1.5"/>
   </g>
   <g id="line2d_22">
    <defs>
     <path id="m0b335820f3" d="M 3 0 
L -3 -0 
" style="stroke: #008000"/>
    </defs>
    <g clip-path="url(#pc3f68b3008)">
     <use xlink:href="#m0b335820f3" x="58.448416" y="60.517434" style="fill: #008000; stroke: #008000"/>
     <use xlink:href="#m0b335820f3" x="78.276516" y="118.915717" style="fill: #008000; stroke: #008000"/>
     <use xlink:href="#m0b335820f3" x="98.104617" y="172.128685" style="fill: #008000; stroke: #008000"/>
     <use xlink:href="#m0b335820f3" x="117.932718" y="206.87817" style="fill: #008000; stroke: #008000"/>
     <use xlink:href="#m0b335820f3" x="137.760819" y="254.248501" style="fill: #008000; stroke: #008000"/>
     <use xlink:href="#m0b335820f3" x="177.41702" y="289.288071" style="fill: #008000; stroke: #008000"/>
     <use xlink:href="#m0b335820f3" x="236.901323" y="305.505118" style="fill: #008000; stroke: #008000"/>
     <use xlink:href="#m0b335820f3" x="296.385625" y="316.246902" style="fill: #008000; stroke: #008000"/>
     <use xlink:href="#m0b335820f3" x="355.869927" y="312.423347" style="fill: #008000; stroke: #008000"/>
     <use xlink:href="#m0b335820f3" x="415.354229" y="314.54256" style="fill: #008000; stroke: #008000"/>
    </g>
   </g>
   <g id="line2d_23">
    <g clip-path="url(#pc3f68b3008)">
     <use xlink:href="#m0b335820f3" x="58.448416" y="36.314733" style="fill: #008000; stroke: #008000"/>
     <use xlink:href="#m0b335820f3" x="78.276516" y="73.882044" style="fill: #008000; stroke: #008000"/>
     <use xlink:href="#m0b335820f3" x="98.104617" y="127.577881" style="fill: #008000; stroke: #008000"/>
     <use xlink:href="#m0b335820f3" x="117.932718" y="175.84381" style="fill: #008000; stroke: #008000"/>
     <use xlink:href="#m0b335820f3" x="137.760819" y="231.638431" style="fill: #008000; stroke: #008000"/>
     <use xlink:href="#m0b335820f3" x="177.41702" y="266.853102" style="fill: #008000; stroke: #008000"/>
     <use xlink:href="#m0b335820f3" x="236.901323" y="296.712568" style="fill: #008000; stroke: #008000"/>
     <use xlink:href="#m0b335820f3" x="296.385625" y="310.839873" style="fill: #008000; stroke: #008000"/>
     <use xlink:href="#m0b335820f3" x="355.869927" y="309.363338" style="fill: #008000; stroke: #008000"/>
     <use xlink:href="#m0b335820f3" x="415.354229" y="312.544215" style="fill: #008000; stroke: #008000"/>
    </g>
   </g>
   <g id="line2d_24">
    <path d="M 58.448416 47.781227 
L 63.405441 59.275072 
L 68.362466 71.984916 
L 73.319491 85.434914 
L 78.276516 99.24823 
L 83.233542 113.12984 
L 88.190567 126.852064 
L 93.147592 140.242437 
L 98.104617 153.173533 
L 103.061642 165.554477 
L 108.018668 177.323853 
L 112.975693 188.443818 
L 117.932718 198.895208 
L 122.889743 208.673509 
L 127.846768 217.785521 
L 132.803794 226.24664 
L 137.760819 234.078623 
L 142.717844 241.307786 
L 147.674869 247.963546 
L 152.631894 254.077248 
L 157.588919 259.681246 
L 162.545945 264.808173 
L 167.50297 269.490375 
L 172.459995 273.759489 
L 177.41702 277.646122 
L 182.374045 281.179624 
L 187.331071 284.387928 
L 192.288096 287.297457 
L 197.245121 289.933068 
L 202.202146 292.318035 
L 207.159171 294.474063 
L 212.116197 296.42132 
L 217.073222 298.178483 
L 222.030247 299.762802 
L 226.987272 301.190166 
L 231.944297 302.475175 
L 236.901323 303.631219 
L 241.858348 304.67055 
L 246.815373 305.604362 
L 251.772398 306.442864 
L 256.729423 307.195355 
L 261.686448 307.870288 
L 266.643474 308.475342 
L 271.600499 309.017482 
L 276.557524 309.503019 
L 281.514549 309.937663 
L 286.471574 310.326579 
L 291.4286 310.674433 
L 296.385625 310.985434 
L 301.34265 311.263378 
L 306.299675 311.511688 
L 311.2567 311.733443 
L 316.213726 311.931414 
L 321.170751 312.108094 
L 326.127776 312.265722 
L 331.084801 312.406308 
L 336.041826 312.531659 
L 340.998851 312.643391 
L 345.955877 312.742958 
L 350.912902 312.83166 
L 355.869927 312.910661 
L 360.826952 312.981005 
L 365.783977 313.043625 
L 370.741003 313.099357 
L 375.698028 313.148945 
L 380.655053 313.193058 
L 385.612078 313.232291 
L 390.569103 313.267178 
L 395.526129 313.298192 
L 400.483154 313.325759 
L 405.440179 313.350257 
L 410.397204 313.372024 
L 415.354229 313.39136 
" clip-path="url(#pc3f68b3008)" style="fill: none; stroke-dasharray: 5.55,2.4; stroke-dashoffset: 0; stroke: #008000; stroke-width: 1.5"/>
   </g>
   <g id="LineCollection_3">
    <path d="M 58.448416 184.724512 
L 58.448416 167.292686 
" clip-path="url(#pc3f68b3008)" style="fill: none; stroke: #ff0000; stroke-width: 1.5"/>
    <path d="M 78.276516 215.478126 
L 78.276516 182.789706 
" clip-path="url(#pc3f68b3008)" style="fill: none; stroke: #ff0000; stroke-width: 1.5"/>
    <path d="M 98.104617 180.594977 
L 98.104617 137.299379 
" clip-path="url(#pc3f68b3008)" style="fill: none; stroke: #ff0000; stroke-width: 1.5"/>
    <path d="M 117.932718 217.932341 
L 117.932718 188.437846 
" clip-path="url(#pc3f68b3008)" style="fill: none; stroke: #ff0000; stroke-width: 1.5"/>
    <path d="M 137.760819 91.924508 
L 137.760819 50.014089 
" clip-path="url(#pc3f68b3008)" style="fill: none; stroke: #ff0000; stroke-width: 1.5"/>
    <path d="M 177.41702 190.818578 
L 177.41702 145.391228 
" clip-path="url(#pc3f68b3008)" style="fill: none; stroke: #ff0000; stroke-width: 1.5"/>
    <path d="M 236.901323 144.051925 
L 236.901323 109.998523 
" clip-path="url(#pc3f68b3008)" style="fill: none; stroke: #ff0000; stroke-width: 1.5"/>
    <path d="M 296.385625 126.546071 
L 296.385625 78.792489 
" clip-path="url(#pc3f68b3008)" style="fill: none; stroke: #ff0000; stroke-width: 1.5"/>
    <path d="M 355.869927 134.01593 
L 355.869927 107.930966 
" clip-path="url(#pc3f68b3008)" style="fill: none; stroke: #ff0000; stroke-width: 1.5"/>
    <path d="M 415.354229 95.987868 
L 415.354229 65.48445 
" clip-path="url(#pc3f68b3008)" style="fill: none; stroke: #ff0000; stroke-width: 1.5"/>
   </g>
   <g id="line2d_25">
    <defs>
     <path id="me2496b1356" d="M 3 0 
L -3 -0 
" style="stroke: #ff0000"/>
    </defs>
    <g clip-path="url(#pc3f68b3008)">
     <use xlink:href="#me2496b1356" x="58.448416" y="184.724512" style="fill: #ff0000; stroke: #ff0000"/>
     <use xlink:href="#me2496b1356" x="78.276516" y="215.478126" style="fill: #ff0000; stroke: #ff0000"/>
     <use xlink:href="#me2496b1356" x="98.104617" y="180.594977" style="fill: #ff0000; stroke: #ff0000"/>
     <use xlink:href="#me2496b1356" x="117.932718" y="217.932341" style="fill: #ff0000; stroke: #ff0000"/>
     <use xlink:href="#me2496b1356" x="137.760819" y="91.924508" style="fill: #ff0000; stroke: #ff0000"/>
     <use xlink:href="#me2496b1356" x="177.41702" y="190.818578" style="fill: #ff0000; stroke: #ff0000"/>
     <use xlink:href="#me2496b1356" x="236.901323" y="144.051925" style="fill: #ff0000; stroke: #ff0000"/>
     <use xlink:href="#me2496b1356" x="296.385625" y="126.546071" style="fill: #ff0000; stroke: #ff0000"/>
     <use xlink:href="#me2496b1356" x="355.869927" y="134.01593" style="fill: #ff0000; stroke: #ff0000"/>
     <use xlink:href="#me2496b1356" x="415.354229" y="95.987868" style="fill: #ff0000; stroke: #ff0000"/>
    </g>
   </g>
   <g id="line2d_26">
    <g clip-path="url(#pc3f68b3008)">
     <use xlink:href="#me2496b1356" x="58.448416" y="167.292686" style="fill: #ff0000; stroke: #ff0000"/>
     <use xlink:href="#me2496b1356" x="78.276516" y="182.789706" style="fill: #ff0000; stroke: #ff0000"/>
     <use xlink:href="#me2496b1356" x="98.104617" y="137.299379" style="fill: #ff0000; stroke: #ff0000"/>
     <use xlink:href="#me2496b1356" x="117.932718" y="188.437846" style="fill: #ff0000; stroke: #ff0000"/>
     <use xlink:href="#me2496b1356" x="137.760819" y="50.014089" style="fill: #ff0000; stroke: #ff0000"/>
     <use xlink:href="#me2496b1356" x="177.41702" y="145.391228" style="fill: #ff0000; stroke: #ff0000"/>
     <use xlink:href="#me2496b1356" x="236.901323" y="109.998523" style="fill: #ff0000; stroke: #ff0000"/>
     <use xlink:href="#me2496b1356" x="296.385625" y="78.792489" style="fill: #ff0000; stroke: #ff0000"/>
     <use xlink:href="#me2496b1356" x="355.869927" y="107.930966" style="fill: #ff0000; stroke: #ff0000"/>
     <use xlink:href="#me2496b1356" x="415.354229" y="65.48445" style="fill: #ff0000; stroke: #ff0000"/>
    </g>
   </g>
   <g id="line2d_27">
    <path d="M 58.448416 181.196909 
L 63.405441 179.827366 
L 68.362466 178.461349 
L 73.319491 177.098852 
L 78.276516 175.739869 
L 83.233542 174.384393 
L 88.190567 173.032418 
L 93.147592 171.683936 
L 98.104617 170.338943 
L 103.061642 168.99743 
L 108.018668 167.659392 
L 112.975693 166.324822 
L 117.932718 164.993713 
L 122.889743 163.66606 
L 127.846768 162.341856 
L 132.803794 161.021094 
L 137.760819 159.703768 
L 142.717844 158.389872 
L 147.674869 157.079398 
L 152.631894 155.772342 
L 157.588919 154.468696 
L 162.545945 153.168454 
L 167.50297 151.871609 
L 172.459995 150.578156 
L 177.41702 149.288088 
L 182.374045 148.001399 
L 187.331071 146.718082 
L 192.288096 145.438131 
L 197.245121 144.16154 
L 202.202146 142.888302 
L 207.159171 141.618412 
L 212.116197 140.351862 
L 217.073222 139.088648 
L 222.030247 137.828762 
L 226.987272 136.572198 
L 231.944297 135.31895 
L 236.901323 134.069012 
L 241.858348 132.822378 
L 246.815373 131.579041 
L 251.772398 130.338996 
L 256.729423 129.102235 
L 261.686448 127.868754 
L 266.643474 126.638545 
L 271.600499 125.411603 
L 276.557524 124.187922 
L 281.514549 122.967495 
L 286.471574 121.750317 
L 291.4286 120.53638 
L 296.385625 119.32568 
L 301.34265 118.11821 
L 306.299675 116.913964 
L 311.2567 115.712936 
L 316.213726 114.51512 
L 321.170751 113.32051 
L 326.127776 112.129099 
L 331.084801 110.940883 
L 336.041826 109.755854 
L 340.998851 108.574007 
L 345.955877 107.395336 
L 350.912902 106.219835 
L 355.869927 105.047497 
L 360.826952 103.878318 
L 365.783977 102.712291 
L 370.741003 101.54941 
L 375.698028 100.389668 
L 380.655053 99.233062 
L 385.612078 98.079583 
L 390.569103 96.929227 
L 395.526129 95.781987 
L 400.483154 94.637858 
L 405.440179 93.496834 
L 410.397204 92.358909 
L 415.354229 91.224076 
" clip-path="url(#pc3f68b3008)" style="fill: none; stroke-dasharray: 5.55,2.4; stroke-dashoffset: 0; stroke: #ff0000; stroke-width: 1.5"/>
   </g>
   <g id="line2d_28">
    <defs>
     <path id="mbaffa86034" d="M 0 3 
C 0.795609 3 1.55874 2.683901 2.12132 2.12132 
C 2.683901 1.55874 3 0.795609 3 0 
C 3 -0.795609 2.683901 -1.55874 2.12132 -2.12132 
C 1.55874 -2.683901 0.795609 -3 0 -3 
C -0.795609 -3 -1.55874 -2.683901 -2.12132 -2.12132 
C -2.683901 -1.55874 -3 -0.795609 -3 0 
C -3 0.795609 -2.683901 1.55874 -2.12132 2.12132 
C -1.55874 2.683901 -0.795609 3 0 3 
z
" style="stroke: #0000ff"/>
    </defs>
    <g clip-path="url(#pc3f68b3008)">
     <use xlink:href="#mbaffa86034" x="58.448416" y="145.629428" style="fill: #0000ff; stroke: #0000ff"/>
     <use xlink:href="#mbaffa86034" x="78.276516" y="150.101285" style="fill: #0000ff; stroke: #0000ff"/>
     <use xlink:href="#mbaffa86034" x="98.104617" y="113.477704" style="fill: #0000ff; stroke: #0000ff"/>
     <use xlink:href="#mbaffa86034" x="117.932718" y="138.152527" style="fill: #0000ff; stroke: #0000ff"/>
     <use xlink:href="#mbaffa86034" x="137.760819" y="121.656421" style="fill: #0000ff; stroke: #0000ff"/>
     <use xlink:href="#mbaffa86034" x="177.41702" y="210.672264" style="fill: #0000ff; stroke: #0000ff"/>
     <use xlink:href="#mbaffa86034" x="236.901323" y="167.437493" style="fill: #0000ff; stroke: #0000ff"/>
     <use xlink:href="#mbaffa86034" x="296.385625" y="132.407936" style="fill: #0000ff; stroke: #0000ff"/>
     <use xlink:href="#mbaffa86034" x="355.869927" y="202.241496" style="fill: #0000ff; stroke: #0000ff"/>
     <use xlink:href="#mbaffa86034" x="415.354229" y="233.609575" style="fill: #0000ff; stroke: #0000ff"/>
    </g>
   </g>
   <g id="line2d_29">
    <defs>
     <path id="m3413a5828b" d="M 0 3 
C 0.795609 3 1.55874 2.683901 2.12132 2.12132 
C 2.683901 1.55874 3 0.795609 3 0 
C 3 -0.795609 2.683901 -1.55874 2.12132 -2.12132 
C 1.55874 -2.683901 0.795609 -3 0 -3 
C -0.795609 -3 -1.55874 -2.683901 -2.12132 -2.12132 
C -2.683901 -1.55874 -3 -0.795609 -3 0 
C -3 0.795609 -2.683901 1.55874 -2.12132 2.12132 
C -1.55874 2.683901 -0.795609 3 0 3 
z
" style="stroke: #008000"/>
    </defs>
    <g clip-path="url(#pc3f68b3008)">
     <use xlink:href="#m3413a5828b" x="58.448416" y="48.416084" style="fill: #008000; stroke: #008000"/>
     <use xlink:href="#m3413a5828b" x="78.276516" y="96.39888" style="fill: #008000; stroke: #008000"/>
     <use xlink:href="#m3413a5828b" x="98.104617" y="149.853283" style="fill: #008000; stroke: #008000"/>
     <use xlink:href="#m3413a5828b" x="117.932718" y="191.36099" style="fill: #008000; stroke: #008000"/>
     <use xlink:href="#m3413a5828b" x="137.760819" y="242.943466" style="fill: #008000; stroke: #008000"/>
     <use xlink:href="#m3413a5828b" x="177.41702" y="278.070586" style="fill: #008000; stroke: #008000"/>
     <use xlink:href="#m3413a5828b" x="236.901323" y="301.108843" style="fill: #008000; stroke: #008000"/>
     <use xlink:href="#m3413a5828b" x="296.385625" y="313.543387" style="fill: #008000; stroke: #008000"/>
     <use xlink:href="#m3413a5828b" x="355.869927" y="310.893342" style="fill: #008000; stroke: #008000"/>
     <use xlink:href="#m3413a5828b" x="415.354229" y="313.543387" style="fill: #008000; stroke: #008000"/>
    </g>
   </g>
   <g id="line2d_30">
    <defs>
     <path id="m46a72cd12d" d="M 0 3 
C 0.795609 3 1.55874 2.683901 2.12132 2.12132 
C 2.683901 1.55874 3 0.795609 3 0 
C 3 -0.795609 2.683901 -1.55874 2.12132 -2.12132 
C 1.55874 -2.683901 0.795609 -3 0 -3 
C -0.795609 -3 -1.55874 -2.683901 -2.12132 -2.12132 
C -2.683901 -1.55874 -3 -0.795609 -3 0 
C -3 0.795609 -2.683901 1.55874 -2.12132 2.12132 
C -1.55874 2.683901 -0.795609 3 0 3 
z
" style="stroke: #ff0000"/>
    </defs>
    <g clip-path="url(#pc3f68b3008)">
     <use xlink:href="#m46a72cd12d" x="58.448416" y="176.008599" style="fill: #ff0000; stroke: #ff0000"/>
     <use xlink:href="#m46a72cd12d" x="78.276516" y="199.133916" style="fill: #ff0000; stroke: #ff0000"/>
     <use xlink:href="#m46a72cd12d" x="98.104617" y="158.947178" style="fill: #ff0000; stroke: #ff0000"/>
     <use xlink:href="#m46a72cd12d" x="117.932718" y="203.185093" style="fill: #ff0000; stroke: #ff0000"/>
     <use xlink:href="#m46a72cd12d" x="137.760819" y="70.969298" style="fill: #ff0000; stroke: #ff0000"/>
     <use xlink:href="#m46a72cd12d" x="177.41702" y="168.104903" style="fill: #ff0000; stroke: #ff0000"/>
     <use xlink:href="#m46a72cd12d" x="236.901323" y="127.025224" style="fill: #ff0000; stroke: #ff0000"/>
     <use xlink:href="#m46a72cd12d" x="296.385625" y="102.66928" style="fill: #ff0000; stroke: #ff0000"/>
     <use xlink:href="#m46a72cd12d" x="355.869927" y="120.973448" style="fill: #ff0000; stroke: #ff0000"/>
     <use xlink:href="#m46a72cd12d" x="415.354229" y="80.736159" style="fill: #ff0000; stroke: #ff0000"/>
    </g>
   </g>
   <g id="patch_3">
    <path d="M 40.603125 330.24351 
L 40.603125 22.318125 
" style="fill: none; stroke: #000000; stroke-width: 0.8; stroke-linejoin: miter; stroke-linecap: square"/>
   </g>
   <g id="patch_4">
    <path d="M 433.19952 330.24351 
L 433.19952 22.318125 
" style="fill: none; stroke: #000000; stroke-width: 0.8; stroke-linejoin: miter; stroke-linecap: square"/>
   </g>
   <g id="patch_5">
    <path d="M 40.603125 330.24351 
L 433.19952 330.24351 
" style="fill: none; stroke: #000000; stroke-width: 0.8; stroke-linejoin: miter; stroke-linecap: square"/>
   </g>
   <g id="patch_6">
    <path d="M 40.603125 22.318125 
L 433.19952 22.318125 
" style="fill: none; stroke: #000000; stroke-width: 0.8; stroke-linejoin: miter; stroke-linecap: square"/>
   </g>
   <g id="text_21">
    <!-- Replicate 3 -->
    <g transform="translate(203.423198 16.318125) scale(0.12 -0.12)">
     <defs>
      <path id="DejaVuSans-52" d="M 2841 2188 
Q 3044 2119 3236 1894 
Q 3428 1669 3622 1275 
L 4263 0 
L 3584 0 
L 2988 1197 
Q 2756 1666 2539 1819 
Q 2322 1972 1947 1972 
L 1259 1972 
L 1259 0 
L 628 0 
L 628 4666 
L 2053 4666 
Q 2853 4666 3247 4331 
Q 3641 3997 3641 3322 
Q 3641 2881 3436 2590 
Q 3231 2300 2841 2188 
z
M 1259 4147 
L 1259 2491 
L 2053 2491 
Q 2509 2491 2742 2702 
Q 2975 2913 2975 3322 
Q 2975 3731 2742 3939 
Q 2509 4147 2053 4147 
L 1259 4147 
z
" transform="scale(0.015625)"/>
      <path id="DejaVuSans-6c" d="M 603 4863 
L 1178 4863 
L 1178 0 
L 603 0 
L 603 4863 
z
" transform="scale(0.015625)"/>
     </defs>
     <use xlink:href="#DejaVuSans-52"/>
     <use xlink:href="#DejaVuSans-65" transform="translate(64.982422 0)"/>
     <use xlink:href="#DejaVuSans-70" transform="translate(126.505859 0)"/>
     <use xlink:href="#DejaVuSans-6c" transform="translate(189.982422 0)"/>
     <use xlink:href="#DejaVuSans-69" transform="translate(217.765625 0)"/>
     <use xlink:href="#DejaVuSans-63" transform="translate(245.548828 0)"/>
     <use xlink:href="#DejaVuSans-61" transform="translate(300.529297 0)"/>
     <use xlink:href="#DejaVuSans-74" transform="translate(361.808594 0)"/>
     <use xlink:href="#DejaVuSans-65" transform="translate(401.017578 0)"/>
     <use xlink:href="#DejaVuSans-20" transform="translate(462.541016 0)"/>
     <use xlink:href="#DejaVuSans-33" transform="translate(494.328125 0)"/>
    </g>
   </g>
   <g id="legend_1">
    <g id="patch_7">
     <path d="M 47.603125 325.24351 
L 143.35 325.24351 
Q 145.35 325.24351 145.35 323.24351 
L 145.35 280.209135 
Q 145.35 278.209135 143.35 278.209135 
L 47.603125 278.209135 
Q 45.603125 278.209135 45.603125 280.209135 
L 45.603125 323.24351 
Q 45.603125 325.24351 47.603125 325.24351 
z
" style="fill: #ffffff; opacity: 0.8; stroke: #cccccc; stroke-linejoin: miter"/>
    </g>
    <g id="line2d_31">
     <path d="M 49.603125 286.307572 
L 59.603125 286.307572 
L 69.603125 286.307572 
" style="fill: none; stroke-dasharray: 5.55,2.4; stroke-dashoffset: 0; stroke: #0000ff; stroke-width: 1.5"/>
    </g>
    <g id="text_22">
     <!-- p.Phe237Ser -->
     <g transform="translate(77.603125 289.807572) scale(0.1 -0.1)">
      <defs>
       <path id="DejaVuSans-2e" d="M 684 794 
L 1344 794 
L 1344 0 
L 684 0 
L 684 794 
z
" transform="scale(0.015625)"/>
       <path id="DejaVuSans-50" d="M 1259 4147 
L 1259 2394 
L 2053 2394 
Q 2494 2394 2734 2622 
Q 2975 2850 2975 3272 
Q 2975 3691 2734 3919 
Q 2494 4147 2053 4147 
L 1259 4147 
z
M 628 4666 
L 2053 4666 
Q 2838 4666 3239 4311 
Q 3641 3956 3641 3272 
Q 3641 2581 3239 2228 
Q 2838 1875 2053 1875 
L 1259 1875 
L 1259 0 
L 628 0 
L 628 4666 
z
" transform="scale(0.015625)"/>
       <path id="DejaVuSans-53" d="M 3425 4513 
L 3425 3897 
Q 3066 4069 2747 4153 
Q 2428 4238 2131 4238 
Q 1616 4238 1336 4038 
Q 1056 3838 1056 3469 
Q 1056 3159 1242 3001 
Q 1428 2844 1947 2747 
L 2328 2669 
Q 3034 2534 3370 2195 
Q 3706 1856 3706 1288 
Q 3706 609 3251 259 
Q 2797 -91 1919 -91 
Q 1588 -91 1214 -16 
Q 841 59 441 206 
L 441 856 
Q 825 641 1194 531 
Q 1563 422 1919 422 
Q 2459 422 2753 634 
Q 3047 847 3047 1241 
Q 3047 1584 2836 1778 
Q 2625 1972 2144 2069 
L 1759 2144 
Q 1053 2284 737 2584 
Q 422 2884 422 3419 
Q 422 4038 858 4394 
Q 1294 4750 2059 4750 
Q 2388 4750 2728 4690 
Q 3069 4631 3425 4513 
z
" transform="scale(0.015625)"/>
      </defs>
      <use xlink:href="#DejaVuSans-70"/>
      <use xlink:href="#DejaVuSans-2e" transform="translate(63.476562 0)"/>
      <use xlink:href="#DejaVuSans-50" transform="translate(95.263672 0)"/>
      <use xlink:href="#DejaVuSans-68" transform="translate(155.566406 0)"/>
      <use xlink:href="#DejaVuSans-65" transform="translate(218.945312 0)"/>
      <use xlink:href="#DejaVuSans-32" transform="translate(280.46875 0)"/>
      <use xlink:href="#DejaVuSans-33" transform="translate(344.091797 0)"/>
      <use xlink:href="#DejaVuSans-37" transform="translate(407.714844 0)"/>
      <use xlink:href="#DejaVuSans-53" transform="translate(471.337891 0)"/>
      <use xlink:href="#DejaVuSans-65" transform="translate(534.814453 0)"/>
      <use xlink:href="#DejaVuSans-72" transform="translate(596.337891 0)"/>
     </g>
    </g>
    <g id="line2d_32">
     <path d="M 49.603125 300.985697 
L 59.603125 300.985697 
L 69.603125 300.985697 
" style="fill: none; stroke-dasharray: 5.55,2.4; stroke-dashoffset: 0; stroke: #008000; stroke-width: 1.5"/>
    </g>
    <g id="text_23">
     <!-- p.Ala109Ter -->
     <g transform="translate(77.603125 304.485697) scale(0.1 -0.1)">
      <defs>
       <path id="DejaVuSans-41" d="M 2188 4044 
L 1331 1722 
L 3047 1722 
L 2188 4044 
z
M 1831 4666 
L 2547 4666 
L 4325 0 
L 3669 0 
L 3244 1197 
L 1141 1197 
L 716 0 
L 50 0 
L 1831 4666 
z
" transform="scale(0.015625)"/>
       <path id="DejaVuSans-39" d="M 703 97 
L 703 672 
Q 941 559 1184 500 
Q 1428 441 1663 441 
Q 2288 441 2617 861 
Q 2947 1281 2994 2138 
Q 2813 1869 2534 1725 
Q 2256 1581 1919 1581 
Q 1219 1581 811 2004 
Q 403 2428 403 3163 
Q 403 3881 828 4315 
Q 1253 4750 1959 4750 
Q 2769 4750 3195 4129 
Q 3622 3509 3622 2328 
Q 3622 1225 3098 567 
Q 2575 -91 1691 -91 
Q 1453 -91 1209 -44 
Q 966 3 703 97 
z
M 1959 2075 
Q 2384 2075 2632 2365 
Q 2881 2656 2881 3163 
Q 2881 3666 2632 3958 
Q 2384 4250 1959 4250 
Q 1534 4250 1286 3958 
Q 1038 3666 1038 3163 
Q 1038 2656 1286 2365 
Q 1534 2075 1959 2075 
z
" transform="scale(0.015625)"/>
       <path id="DejaVuSans-54" d="M -19 4666 
L 3928 4666 
L 3928 4134 
L 2272 4134 
L 2272 0 
L 1638 0 
L 1638 4134 
L -19 4134 
L -19 4666 
z
" transform="scale(0.015625)"/>
      </defs>
      <use xlink:href="#DejaVuSans-70"/>
      <use xlink:href="#DejaVuSans-2e" transform="translate(63.476562 0)"/>
      <use xlink:href="#DejaVuSans-41" transform="translate(95.263672 0)"/>
      <use xlink:href="#DejaVuSans-6c" transform="translate(163.671875 0)"/>
      <use xlink:href="#DejaVuSans-61" transform="translate(191.455078 0)"/>
      <use xlink:href="#DejaVuSans-31" transform="translate(252.734375 0)"/>
      <use xlink:href="#DejaVuSans-30" transform="translate(316.357422 0)"/>
      <use xlink:href="#DejaVuSans-39" transform="translate(379.980469 0)"/>
      <use xlink:href="#DejaVuSans-54" transform="translate(443.603516 0)"/>
      <use xlink:href="#DejaVuSans-65" transform="translate(487.6875 0)"/>
      <use xlink:href="#DejaVuSans-72" transform="translate(549.210938 0)"/>
     </g>
    </g>
    <g id="line2d_33">
     <path d="M 49.603125 315.663822 
L 59.603125 315.663822 
L 69.603125 315.663822 
" style="fill: none; stroke-dasharray: 5.55,2.4; stroke-dashoffset: 0; stroke: #ff0000; stroke-width: 1.5"/>
    </g>
    <g id="text_24">
     <!-- p.Ala300Met -->
     <g transform="translate(77.603125 319.163822) scale(0.1 -0.1)">
      <defs>
       <path id="DejaVuSans-4d" d="M 628 4666 
L 1569 4666 
L 2759 1491 
L 3956 4666 
L 4897 4666 
L 4897 0 
L 4281 0 
L 4281 4097 
L 3078 897 
L 2444 897 
L 1241 4097 
L 1241 0 
L 628 0 
L 628 4666 
z
" transform="scale(0.015625)"/>
      </defs>
      <use xlink:href="#DejaVuSans-70"/>
      <use xlink:href="#DejaVuSans-2e" transform="translate(63.476562 0)"/>
      <use xlink:href="#DejaVuSans-41" transform="translate(95.263672 0)"/>
      <use xlink:href="#DejaVuSans-6c" transform="translate(163.671875 0)"/>
      <use xlink:href="#DejaVuSans-61" transform="translate(191.455078 0)"/>
      <use xlink:href="#DejaVuSans-33" transform="translate(252.734375 0)"/>
      <use xlink:href="#DejaVuSans-30" transform="translate(316.357422 0)"/>
      <use xlink:href="#DejaVuSans-30" transform="translate(379.980469 0)"/>
      <use xlink:href="#DejaVuSans-4d" transform="translate(443.603516 0)"/>
      <use xlink:href="#DejaVuSans-65" transform="translate(529.882812 0)"/>
      <use xlink:href="#DejaVuSans-74" transform="translate(591.40625 0)"/>
     </g>
    </g>
   </g>
  </g>
  <g id="axes_2">
   <g id="patch_8">
    <path d="M 40.603125 690.84327 
L 433.19952 690.84327 
L 433.19952 382.917885 
L 40.603125 382.917885 
z
" style="fill: #ffffff"/>
   </g>
   <g id="matplotlib.axis_3">
    <g id="xtick_11">
     <g id="line2d_34">
      <g>
       <use xlink:href="#md7f5fc8528" x="58.448416" y="690.84327" style="stroke: #000000; stroke-width: 0.8"/>
      </g>
     </g>
     <g id="text_25">
      <!-- 0 -->
      <g transform="translate(55.267166 705.441707) scale(0.1 -0.1)">
       <use xlink:href="#DejaVuSans-30"/>
      </g>
     </g>
    </g>
    <g id="xtick_12">
     <g id="line2d_35">
      <g>
       <use xlink:href="#md7f5fc8528" x="78.276516" y="690.84327" style="stroke: #000000; stroke-width: 0.8"/>
      </g>
     </g>
     <g id="text_26">
      <!-- 4 -->
      <g transform="translate(75.095266 705.441707) scale(0.1 -0.1)">
       <use xlink:href="#DejaVuSans-34"/>
      </g>
     </g>
    </g>
    <g id="xtick_13">
     <g id="line2d_36">
      <g>
       <use xlink:href="#md7f5fc8528" x="98.104617" y="690.84327" style="stroke: #000000; stroke-width: 0.8"/>
      </g>
     </g>
     <g id="text_27">
      <!-- 8 -->
      <g transform="translate(94.923367 705.441707) scale(0.1 -0.1)">
       <use xlink:href="#DejaVuSans-38"/>
      </g>
     </g>
    </g>
    <g id="xtick_14">
     <g id="line2d_37">
      <g>
       <use xlink:href="#md7f5fc8528" x="117.932718" y="690.84327" style="stroke: #000000; stroke-width: 0.8"/>
      </g>
     </g>
     <g id="text_28">
      <!-- 12 -->
      <g transform="translate(111.570218 705.441707) scale(0.1 -0.1)">
       <use xlink:href="#DejaVuSans-31"/>
       <use xlink:href="#DejaVuSans-32" transform="translate(63.623047 0)"/>
      </g>
     </g>
    </g>
    <g id="xtick_15">
     <g id="line2d_38">
      <g>
       <use xlink:href="#md7f5fc8528" x="137.760819" y="690.84327" style="stroke: #000000; stroke-width: 0.8"/>
      </g>
     </g>
     <g id="text_29">
      <!-- 16 -->
      <g transform="translate(131.398319 705.441707) scale(0.1 -0.1)">
       <use xlink:href="#DejaVuSans-31"/>
       <use xlink:href="#DejaVuSans-36" transform="translate(63.623047 0)"/>
      </g>
     </g>
    </g>
    <g id="xtick_16">
     <g id="line2d_39">
      <g>
       <use xlink:href="#md7f5fc8528" x="177.41702" y="690.84327" style="stroke: #000000; stroke-width: 0.8"/>
      </g>
     </g>
     <g id="text_30">
      <!-- 24 -->
      <g transform="translate(171.05452 705.441707) scale(0.1 -0.1)">
       <use xlink:href="#DejaVuSans-32"/>
       <use xlink:href="#DejaVuSans-34" transform="translate(63.623047 0)"/>
      </g>
     </g>
    </g>
    <g id="xtick_17">
     <g id="line2d_40">
      <g>
       <use xlink:href="#md7f5fc8528" x="236.901323" y="690.84327" style="stroke: #000000; stroke-width: 0.8"/>
      </g>
     </g>
     <g id="text_31">
      <!-- 36 -->
      <g transform="translate(230.538823 705.441707) scale(0.1 -0.1)">
       <use xlink:href="#DejaVuSans-33"/>
       <use xlink:href="#DejaVuSans-36" transform="translate(63.623047 0)"/>
      </g>
     </g>
    </g>
    <g id="xtick_18">
     <g id="line2d_41">
      <g>
       <use xlink:href="#md7f5fc8528" x="296.385625" y="690.84327" style="stroke: #000000; stroke-width: 0.8"/>
      </g>
     </g>
     <g id="text_32">
      <!-- 48 -->
      <g transform="translate(290.023125 705.441707) scale(0.1 -0.1)">
       <use xlink:href="#DejaVuSans-34"/>
       <use xlink:href="#DejaVuSans-38" transform="translate(63.623047 0)"/>
      </g>
     </g>
    </g>
    <g id="xtick_19">
     <g id="line2d_42">
      <g>
       <use xlink:href="#md7f5fc8528" x="355.869927" y="690.84327" style="stroke: #000000; stroke-width: 0.8"/>
      </g>
     </g>
     <g id="text_33">
      <!-- 60 -->
      <g transform="translate(349.507427 705.441707) scale(0.1 -0.1)">
       <use xlink:href="#DejaVuSans-36"/>
       <use xlink:href="#DejaVuSans-30" transform="translate(63.623047 0)"/>
      </g>
     </g>
    </g>
    <g id="xtick_20">
     <g id="line2d_43">
      <g>
       <use xlink:href="#md7f5fc8528" x="415.354229" y="690.84327" style="stroke: #000000; stroke-width: 0.8"/>
      </g>
     </g>
     <g id="text_34">
      <!-- 72 -->
      <g transform="translate(408.991729 705.441707) scale(0.1 -0.1)">
       <use xlink:href="#DejaVuSans-37"/>
       <use xlink:href="#DejaVuSans-32" transform="translate(63.623047 0)"/>
      </g>
     </g>
    </g>
    <g id="text_35">
     <!-- time -->
     <g transform="translate(225.605229 719.119832) scale(0.1 -0.1)">
      <use xlink:href="#DejaVuSans-74"/>
      <use xlink:href="#DejaVuSans-69" transform="translate(39.208984 0)"/>
      <use xlink:href="#DejaVuSans-6d" transform="translate(66.992188 0)"/>
      <use xlink:href="#DejaVuSans-65" transform="translate(164.404297 0)"/>
     </g>
    </g>
   </g>
   <g id="matplotlib.axis_4">
    <g id="ytick_9">
     <g id="line2d_44">
      <g>
       <use xlink:href="#m72d0d0a849" x="40.603125" y="674.152481" style="stroke: #000000; stroke-width: 0.8"/>
      </g>
     </g>
     <g id="text_36">
      <!-- 0 -->
      <g transform="translate(27.240625 677.9517) scale(0.1 -0.1)">
       <use xlink:href="#DejaVuSans-30"/>
      </g>
     </g>
    </g>
    <g id="ytick_10">
     <g id="line2d_45">
      <g>
       <use xlink:href="#m72d0d0a849" x="40.603125" y="633.816881" style="stroke: #000000; stroke-width: 0.8"/>
      </g>
     </g>
     <g id="text_37">
      <!-- 10 -->
      <g transform="translate(20.878125 637.6161) scale(0.1 -0.1)">
       <use xlink:href="#DejaVuSans-31"/>
       <use xlink:href="#DejaVuSans-30" transform="translate(63.623047 0)"/>
      </g>
     </g>
    </g>
    <g id="ytick_11">
     <g id="line2d_46">
      <g>
       <use xlink:href="#m72d0d0a849" x="40.603125" y="593.481281" style="stroke: #000000; stroke-width: 0.8"/>
      </g>
     </g>
     <g id="text_38">
      <!-- 20 -->
      <g transform="translate(20.878125 597.2805) scale(0.1 -0.1)">
       <use xlink:href="#DejaVuSans-32"/>
       <use xlink:href="#DejaVuSans-30" transform="translate(63.623047 0)"/>
      </g>
     </g>
    </g>
    <g id="ytick_12">
     <g id="line2d_47">
      <g>
       <use xlink:href="#m72d0d0a849" x="40.603125" y="553.145681" style="stroke: #000000; stroke-width: 0.8"/>
      </g>
     </g>
     <g id="text_39">
      <!-- 30 -->
      <g transform="translate(20.878125 556.9449) scale(0.1 -0.1)">
       <use xlink:href="#DejaVuSans-33"/>
       <use xlink:href="#DejaVuSans-30" transform="translate(63.623047 0)"/>
      </g>
     </g>
    </g>
    <g id="ytick_13">
     <g id="line2d_48">
      <g>
       <use xlink:href="#m72d0d0a849" x="40.603125" y="512.810081" style="stroke: #000000; stroke-width: 0.8"/>
      </g>
     </g>
     <g id="text_40">
      <!-- 40 -->
      <g transform="translate(20.878125 516.6093) scale(0.1 -0.1)">
       <use xlink:href="#DejaVuSans-34"/>
       <use xlink:href="#DejaVuSans-30" transform="translate(63.623047 0)"/>
      </g>
     </g>
    </g>
    <g id="ytick_14">
     <g id="line2d_49">
      <g>
       <use xlink:href="#m72d0d0a849" x="40.603125" y="472.474481" style="stroke: #000000; stroke-width: 0.8"/>
      </g>
     </g>
     <g id="text_41">
      <!-- 50 -->
      <g transform="translate(20.878125 476.2737) scale(0.1 -0.1)">
       <use xlink:href="#DejaVuSans-35"/>
       <use xlink:href="#DejaVuSans-30" transform="translate(63.623047 0)"/>
      </g>
     </g>
    </g>
    <g id="ytick_15">
     <g id="line2d_50">
      <g>
       <use xlink:href="#m72d0d0a849" x="40.603125" y="432.138881" style="stroke: #000000; stroke-width: 0.8"/>
      </g>
     </g>
     <g id="text_42">
      <!-- 60 -->
      <g transform="translate(20.878125 435.9381) scale(0.1 -0.1)">
       <use xlink:href="#DejaVuSans-36"/>
       <use xlink:href="#DejaVuSans-30" transform="translate(63.623047 0)"/>
      </g>
     </g>
    </g>
    <g id="ytick_16">
     <g id="line2d_51">
      <g>
       <use xlink:href="#m72d0d0a849" x="40.603125" y="391.803281" style="stroke: #000000; stroke-width: 0.8"/>
      </g>
     </g>
     <g id="text_43">
      <!-- 70 -->
      <g transform="translate(20.878125 395.6025) scale(0.1 -0.1)">
       <use xlink:href="#DejaVuSans-37"/>
       <use xlink:href="#DejaVuSans-30" transform="translate(63.623047 0)"/>
      </g>
     </g>
    </g>
    <g id="text_44">
     <!-- fraction -->
     <g transform="translate(14.798438 556.086827) rotate(-90) scale(0.1 -0.1)">
      <use xlink:href="#DejaVuSans-66"/>
      <use xlink:href="#DejaVuSans-72" transform="translate(35.205078 0)"/>
      <use xlink:href="#DejaVuSans-61" transform="translate(76.318359 0)"/>
      <use xlink:href="#DejaVuSans-63" transform="translate(137.597656 0)"/>
      <use xlink:href="#DejaVuSans-74" transform="translate(192.578125 0)"/>
      <use xlink:href="#DejaVuSans-69" transform="translate(231.787109 0)"/>
      <use xlink:href="#DejaVuSans-6f" transform="translate(259.570312 0)"/>
      <use xlink:href="#DejaVuSans-6e" transform="translate(320.751953 0)"/>
     </g>
    </g>
   </g>
   <g id="LineCollection_4">
    <path d="M 58.448416 515.863719 
L 58.448416 496.602019 
" clip-path="url(#p549e1321e5)" style="fill: none; stroke: #0000ff; stroke-width: 1.5"/>
    <path d="M 78.276516 510.672432 
L 78.276516 459.170238 
" clip-path="url(#p549e1321e5)" style="fill: none; stroke: #0000ff; stroke-width: 1.5"/>
    <path d="M 98.104617 502.568258 
L 98.104617 467.106268 
" clip-path="url(#p549e1321e5)" style="fill: none; stroke: #0000ff; stroke-width: 1.5"/>
    <path d="M 117.932718 498.086685 
L 117.932718 467.85849 
" clip-path="url(#p549e1321e5)" style="fill: none; stroke: #0000ff; stroke-width: 1.5"/>
    <path d="M 137.760819 489.872205 
L 137.760819 462.197967 
" clip-path="url(#p549e1321e5)" style="fill: none; stroke: #0000ff; stroke-width: 1.5"/>
    <path d="M 177.41702 520.418416 
L 177.41702 487.167658 
" clip-path="url(#p549e1321e5)" style="fill: none; stroke: #0000ff; stroke-width: 1.5"/>
    <path d="M 236.901323 551.01047 
L 236.901323 518.108029 
" clip-path="url(#p549e1321e5)" style="fill: none; stroke: #0000ff; stroke-width: 1.5"/>
    <path d="M 296.385625 606.194945 
L 296.385625 582.384466 
" clip-path="url(#p549e1321e5)" style="fill: none; stroke: #0000ff; stroke-width: 1.5"/>
    <path d="M 355.869927 557.662788 
L 355.869927 539.386637 
" clip-path="url(#p549e1321e5)" style="fill: none; stroke: #0000ff; stroke-width: 1.5"/>
    <path d="M 415.354229 578.457186 
L 415.354229 543.536615 
" clip-path="url(#p549e1321e5)" style="fill: none; stroke: #0000ff; stroke-width: 1.5"/>
   </g>
   <g id="line2d_52">
    <g clip-path="url(#p549e1321e5)">
     <use xlink:href="#m8c12b62bc8" x="58.448416" y="515.863719" style="fill: #0000ff; stroke: #0000ff"/>
     <use xlink:href="#m8c12b62bc8" x="78.276516" y="510.672432" style="fill: #0000ff; stroke: #0000ff"/>
     <use xlink:href="#m8c12b62bc8" x="98.104617" y="502.568258" style="fill: #0000ff; stroke: #0000ff"/>
     <use xlink:href="#m8c12b62bc8" x="117.932718" y="498.086685" style="fill: #0000ff; stroke: #0000ff"/>
     <use xlink:href="#m8c12b62bc8" x="137.760819" y="489.872205" style="fill: #0000ff; stroke: #0000ff"/>
     <use xlink:href="#m8c12b62bc8" x="177.41702" y="520.418416" style="fill: #0000ff; stroke: #0000ff"/>
     <use xlink:href="#m8c12b62bc8" x="236.901323" y="551.01047" style="fill: #0000ff; stroke: #0000ff"/>
     <use xlink:href="#m8c12b62bc8" x="296.385625" y="606.194945" style="fill: #0000ff; stroke: #0000ff"/>
     <use xlink:href="#m8c12b62bc8" x="355.869927" y="557.662788" style="fill: #0000ff; stroke: #0000ff"/>
     <use xlink:href="#m8c12b62bc8" x="415.354229" y="578.457186" style="fill: #0000ff; stroke: #0000ff"/>
    </g>
   </g>
   <g id="line2d_53">
    <g clip-path="url(#p549e1321e5)">
     <use xlink:href="#m8c12b62bc8" x="58.448416" y="496.602019" style="fill: #0000ff; stroke: #0000ff"/>
     <use xlink:href="#m8c12b62bc8" x="78.276516" y="459.170238" style="fill: #0000ff; stroke: #0000ff"/>
     <use xlink:href="#m8c12b62bc8" x="98.104617" y="467.106268" style="fill: #0000ff; stroke: #0000ff"/>
     <use xlink:href="#m8c12b62bc8" x="117.932718" y="467.85849" style="fill: #0000ff; stroke: #0000ff"/>
     <use xlink:href="#m8c12b62bc8" x="137.760819" y="462.197967" style="fill: #0000ff; stroke: #0000ff"/>
     <use xlink:href="#m8c12b62bc8" x="177.41702" y="487.167658" style="fill: #0000ff; stroke: #0000ff"/>
     <use xlink:href="#m8c12b62bc8" x="236.901323" y="518.108029" style="fill: #0000ff; stroke: #0000ff"/>
     <use xlink:href="#m8c12b62bc8" x="296.385625" y="582.384466" style="fill: #0000ff; stroke: #0000ff"/>
     <use xlink:href="#m8c12b62bc8" x="355.869927" y="539.386637" style="fill: #0000ff; stroke: #0000ff"/>
     <use xlink:href="#m8c12b62bc8" x="415.354229" y="543.536615" style="fill: #0000ff; stroke: #0000ff"/>
    </g>
   </g>
   <g id="line2d_54">
    <path d="M 58.448416 499.13978 
L 63.405441 497.6647 
L 68.362466 496.397909 
L 73.319491 495.329204 
L 78.276516 494.448786 
L 83.233542 493.747239 
L 88.190567 493.215519 
L 93.147592 492.844943 
L 98.104617 492.62717 
L 103.061642 492.554196 
L 108.018668 492.618336 
L 112.975693 492.812217 
L 117.932718 493.128764 
L 122.889743 493.56119 
L 127.846768 494.102986 
L 132.803794 494.74791 
L 137.760819 495.489978 
L 142.717844 496.323455 
L 147.674869 497.242844 
L 152.631894 498.242882 
L 157.588919 499.318524 
L 162.545945 500.464942 
L 167.50297 501.677513 
L 172.459995 502.951812 
L 177.41702 504.283607 
L 182.374045 505.668847 
L 187.331071 507.103661 
L 192.288096 508.584347 
L 197.245121 510.107368 
L 202.202146 511.669344 
L 207.159171 513.267049 
L 212.116197 514.8974 
L 217.073222 516.557457 
L 222.030247 518.244416 
L 226.987272 519.955601 
L 231.944297 521.688463 
L 236.901323 523.440571 
L 241.858348 525.209613 
L 246.815373 526.993385 
L 251.772398 528.789792 
L 256.729423 530.596841 
L 261.686448 532.412638 
L 266.643474 534.235383 
L 271.600499 536.063368 
L 276.557524 537.894972 
L 281.514549 539.728658 
L 286.471574 541.56297 
L 291.4286 543.396528 
L 296.385625 545.228028 
L 301.34265 547.056236 
L 306.299675 548.879987 
L 311.2567 550.698181 
L 316.213726 552.509782 
L 321.170751 554.313813 
L 326.127776 556.109354 
L 331.084801 557.895543 
L 336.041826 559.671569 
L 340.998851 561.436672 
L 345.955877 563.190141 
L 350.912902 564.931312 
L 355.869927 566.659563 
L 360.826952 568.374319 
L 365.783977 570.075041 
L 370.741003 571.761233 
L 375.698028 573.432433 
L 380.655053 575.088218 
L 385.612078 576.728195 
L 390.569103 578.352007 
L 395.526129 579.959327 
L 400.483154 581.549856 
L 405.440179 583.123325 
L 410.397204 584.679491 
L 415.354229 586.218138 
" clip-path="url(#p549e1321e5)" style="fill: none; stroke-dasharray: 5.55,2.4; stroke-dashoffset: 0; stroke: #0000ff; stroke-width: 1.5"/>
   </g>
   <g id="LineCollection_5">
    <path d="M 58.448416 421.118009 
L 58.448416 396.914493 
" clip-path="url(#p549e1321e5)" style="fill: none; stroke: #008000; stroke-width: 1.5"/>
    <path d="M 78.276516 491.039692 
L 78.276516 436.751612 
" clip-path="url(#p549e1321e5)" style="fill: none; stroke: #008000; stroke-width: 1.5"/>
    <path d="M 98.104617 542.020392 
L 98.104617 510.687125 
" clip-path="url(#p549e1321e5)" style="fill: none; stroke: #008000; stroke-width: 1.5"/>
    <path d="M 117.932718 594.884821 
L 117.932718 574.188991 
" clip-path="url(#p549e1321e5)" style="fill: none; stroke: #008000; stroke-width: 1.5"/>
    <path d="M 137.760819 617.312458 
L 137.760819 601.491377 
" clip-path="url(#p549e1321e5)" style="fill: none; stroke: #008000; stroke-width: 1.5"/>
    <path d="M 177.41702 654.68283 
L 177.41702 641.703063 
" clip-path="url(#p549e1321e5)" style="fill: none; stroke: #008000; stroke-width: 1.5"/>
    <path d="M 236.901323 670.274891 
L 236.901323 662.519712 
" clip-path="url(#p549e1321e5)" style="fill: none; stroke: #008000; stroke-width: 1.5"/>
    <path d="M 296.385625 674.152481 
L 296.385625 670.603024 
" clip-path="url(#p549e1321e5)" style="fill: none; stroke: #008000; stroke-width: 1.5"/>
    <path d="M 355.869927 674.152481 
L 355.869927 672.823087 
" clip-path="url(#p549e1321e5)" style="fill: none; stroke: #008000; stroke-width: 1.5"/>
    <path d="M 415.354229 676.846662 
L 415.354229 671.458301 
" clip-path="url(#p549e1321e5)" style="fill: none; stroke: #008000; stroke-width: 1.5"/>
   </g>
   <g id="line2d_55">
    <g clip-path="url(#p549e1321e5)">
     <use xlink:href="#m0b335820f3" x="58.448416" y="421.118009" style="fill: #008000; stroke: #008000"/>
     <use xlink:href="#m0b335820f3" x="78.276516" y="491.039692" style="fill: #008000; stroke: #008000"/>
     <use xlink:href="#m0b335820f3" x="98.104617" y="542.020392" style="fill: #008000; stroke: #008000"/>
     <use xlink:href="#m0b335820f3" x="117.932718" y="594.884821" style="fill: #008000; stroke: #008000"/>
     <use xlink:href="#m0b335820f3" x="137.760819" y="617.312458" style="fill: #008000; stroke: #008000"/>
     <use xlink:href="#m0b335820f3" x="177.41702" y="654.68283" style="fill: #008000; stroke: #008000"/>
     <use xlink:href="#m0b335820f3" x="236.901323" y="670.274891" style="fill: #008000; stroke: #008000"/>
     <use xlink:href="#m0b335820f3" x="296.385625" y="674.152481" style="fill: #008000; stroke: #008000"/>
     <use xlink:href="#m0b335820f3" x="355.869927" y="674.152481" style="fill: #008000; stroke: #008000"/>
     <use xlink:href="#m0b335820f3" x="415.354229" y="676.846662" style="fill: #008000; stroke: #008000"/>
    </g>
   </g>
   <g id="line2d_56">
    <g clip-path="url(#p549e1321e5)">
     <use xlink:href="#m0b335820f3" x="58.448416" y="396.914493" style="fill: #008000; stroke: #008000"/>
     <use xlink:href="#m0b335820f3" x="78.276516" y="436.751612" style="fill: #008000; stroke: #008000"/>
     <use xlink:href="#m0b335820f3" x="98.104617" y="510.687125" style="fill: #008000; stroke: #008000"/>
     <use xlink:href="#m0b335820f3" x="117.932718" y="574.188991" style="fill: #008000; stroke: #008000"/>
     <use xlink:href="#m0b335820f3" x="137.760819" y="601.491377" style="fill: #008000; stroke: #008000"/>
     <use xlink:href="#m0b335820f3" x="177.41702" y="641.703063" style="fill: #008000; stroke: #008000"/>
     <use xlink:href="#m0b335820f3" x="236.901323" y="662.519712" style="fill: #008000; stroke: #008000"/>
     <use xlink:href="#m0b335820f3" x="296.385625" y="670.603024" style="fill: #008000; stroke: #008000"/>
     <use xlink:href="#m0b335820f3" x="355.869927" y="672.823087" style="fill: #008000; stroke: #008000"/>
     <use xlink:href="#m0b335820f3" x="415.354229" y="671.458301" style="fill: #008000; stroke: #008000"/>
    </g>
   </g>
   <g id="line2d_57">
    <path d="M 58.448416 407.696341 
L 63.405441 425.204016 
L 68.362466 442.578399 
L 73.319491 459.568923 
L 78.276516 475.991075 
L 83.233542 491.713628 
L 88.190567 506.648052 
L 93.147592 520.73976 
L 98.104617 533.960895 
L 103.061642 546.304397 
L 108.018668 557.779157 
L 112.975693 568.406062 
L 117.932718 578.214795 
L 122.889743 587.241249 
L 127.846768 595.525464 
L 132.803794 603.109984 
L 137.760819 610.038571 
L 142.717844 616.3552 
L 147.674869 622.103294 
L 152.631894 627.32515 
L 157.588919 632.061521 
L 162.545945 636.351324 
L 167.50297 640.231442 
L 172.459995 643.736611 
L 177.41702 646.89937 
L 182.374045 649.750055 
L 187.331071 652.316834 
L 192.288096 654.625762 
L 197.245121 656.700868 
L 202.202146 658.564242 
L 207.159171 660.236145 
L 212.116197 661.73511 
L 217.073222 663.07806 
L 222.030247 664.280412 
L 226.987272 665.356187 
L 231.944297 666.318118 
L 236.901323 667.177747 
L 241.858348 667.945525 
L 246.815373 668.630899 
L 251.772398 669.242402 
L 256.729423 669.78773 
L 261.686448 670.273817 
L 266.643474 670.706904 
L 271.600499 671.092605 
L 276.557524 671.435963 
L 281.514549 671.741505 
L 286.471574 672.013294 
L 291.4286 672.254969 
L 296.385625 672.469792 
L 301.34265 672.66068 
L 306.299675 672.830245 
L 311.2567 672.980822 
L 316.213726 673.114496 
L 321.170751 673.23313 
L 326.127776 673.338385 
L 331.084801 673.431745 
L 336.041826 673.514532 
L 340.998851 673.587925 
L 345.955877 673.652973 
L 350.912902 673.710611 
L 355.869927 673.761671 
L 360.826952 673.806894 
L 365.783977 673.846939 
L 370.741003 673.882389 
L 375.698028 673.913767 
L 380.655053 673.941534 
L 385.612078 673.966101 
L 390.569103 673.987832 
L 395.526129 674.007052 
L 400.483154 674.024047 
L 405.440179 674.039073 
L 410.397204 674.052355 
L 415.354229 674.064093 
" clip-path="url(#p549e1321e5)" style="fill: none; stroke-dasharray: 5.55,2.4; stroke-dashoffset: 0; stroke: #008000; stroke-width: 1.5"/>
   </g>
   <g id="LineCollection_6">
    <path d="M 58.448416 545.329268 
L 58.448416 527.896855 
" clip-path="url(#p549e1321e5)" style="fill: none; stroke: #ff0000; stroke-width: 1.5"/>
    <path d="M 78.276516 604.066871 
L 78.276516 569.024067 
" clip-path="url(#p549e1321e5)" style="fill: none; stroke: #ff0000; stroke-width: 1.5"/>
    <path d="M 98.104617 573.361431 
L 98.104617 545.772478 
" clip-path="url(#p549e1321e5)" style="fill: none; stroke: #ff0000; stroke-width: 1.5"/>
    <path d="M 117.932718 548.416249 
L 117.932718 522.677868 
" clip-path="url(#p549e1321e5)" style="fill: none; stroke: #ff0000; stroke-width: 1.5"/>
    <path d="M 137.760819 537.315863 
L 137.760819 513.329793 
" clip-path="url(#p549e1321e5)" style="fill: none; stroke: #ff0000; stroke-width: 1.5"/>
    <path d="M 177.41702 466.20389 
L 177.41702 427.809221 
" clip-path="url(#p549e1321e5)" style="fill: none; stroke: #ff0000; stroke-width: 1.5"/>
    <path d="M 236.901323 499.660942 
L 236.901323 460.885044 
" clip-path="url(#p549e1321e5)" style="fill: none; stroke: #ff0000; stroke-width: 1.5"/>
    <path d="M 296.385625 446.689381 
L 296.385625 404.691643 
" clip-path="url(#p549e1321e5)" style="fill: none; stroke: #ff0000; stroke-width: 1.5"/>
    <path d="M 355.869927 454.590731 
L 355.869927 429.755595 
" clip-path="url(#p549e1321e5)" style="fill: none; stroke: #ff0000; stroke-width: 1.5"/>
    <path d="M 415.354229 513.164989 
L 415.354229 468.731426 
" clip-path="url(#p549e1321e5)" style="fill: none; stroke: #ff0000; stroke-width: 1.5"/>
   </g>
   <g id="line2d_58">
    <g clip-path="url(#p549e1321e5)">
     <use xlink:href="#me2496b1356" x="58.448416" y="545.329268" style="fill: #ff0000; stroke: #ff0000"/>
     <use xlink:href="#me2496b1356" x="78.276516" y="604.066871" style="fill: #ff0000; stroke: #ff0000"/>
     <use xlink:href="#me2496b1356" x="98.104617" y="573.361431" style="fill: #ff0000; stroke: #ff0000"/>
     <use xlink:href="#me2496b1356" x="117.932718" y="548.416249" style="fill: #ff0000; stroke: #ff0000"/>
     <use xlink:href="#me2496b1356" x="137.760819" y="537.315863" style="fill: #ff0000; stroke: #ff0000"/>
     <use xlink:href="#me2496b1356" x="177.41702" y="466.20389" style="fill: #ff0000; stroke: #ff0000"/>
     <use xlink:href="#me2496b1356" x="236.901323" y="499.660942" style="fill: #ff0000; stroke: #ff0000"/>
     <use xlink:href="#me2496b1356" x="296.385625" y="446.689381" style="fill: #ff0000; stroke: #ff0000"/>
     <use xlink:href="#me2496b1356" x="355.869927" y="454.590731" style="fill: #ff0000; stroke: #ff0000"/>
     <use xlink:href="#me2496b1356" x="415.354229" y="513.164989" style="fill: #ff0000; stroke: #ff0000"/>
    </g>
   </g>
   <g id="line2d_59">
    <g clip-path="url(#p549e1321e5)">
     <use xlink:href="#me2496b1356" x="58.448416" y="527.896855" style="fill: #ff0000; stroke: #ff0000"/>
     <use xlink:href="#me2496b1356" x="78.276516" y="569.024067" style="fill: #ff0000; stroke: #ff0000"/>
     <use xlink:href="#me2496b1356" x="98.104617" y="545.772478" style="fill: #ff0000; stroke: #ff0000"/>
     <use xlink:href="#me2496b1356" x="117.932718" y="522.677868" style="fill: #ff0000; stroke: #ff0000"/>
     <use xlink:href="#me2496b1356" x="137.760819" y="513.329793" style="fill: #ff0000; stroke: #ff0000"/>
     <use xlink:href="#me2496b1356" x="177.41702" y="427.809221" style="fill: #ff0000; stroke: #ff0000"/>
     <use xlink:href="#me2496b1356" x="236.901323" y="460.885044" style="fill: #ff0000; stroke: #ff0000"/>
     <use xlink:href="#me2496b1356" x="296.385625" y="404.691643" style="fill: #ff0000; stroke: #ff0000"/>
     <use xlink:href="#me2496b1356" x="355.869927" y="429.755595" style="fill: #ff0000; stroke: #ff0000"/>
     <use xlink:href="#me2496b1356" x="415.354229" y="468.731426" style="fill: #ff0000; stroke: #ff0000"/>
    </g>
   </g>
   <g id="line2d_60">
    <path d="M 58.448416 555.966329 
L 63.405441 552.955655 
L 68.362466 549.998759 
L 73.319491 547.094988 
L 78.276516 544.243696 
L 83.233542 541.444244 
L 88.190567 538.695999 
L 93.147592 535.998336 
L 98.104617 533.350636 
L 103.061642 530.752286 
L 108.018668 528.20268 
L 112.975693 525.70122 
L 117.932718 523.24731 
L 122.889743 520.840365 
L 127.846768 518.479805 
L 132.803794 516.165053 
L 137.760819 513.895543 
L 142.717844 511.670712 
L 147.674869 509.490003 
L 152.631894 507.352866 
L 157.588919 505.258757 
L 162.545945 503.207136 
L 167.50297 501.197472 
L 172.459995 499.229237 
L 177.41702 497.301909 
L 182.374045 495.414973 
L 187.331071 493.567917 
L 192.288096 491.760238 
L 197.245121 489.991435 
L 202.202146 488.261015 
L 207.159171 486.568489 
L 212.116197 484.913373 
L 217.073222 483.295189 
L 222.030247 481.713464 
L 226.987272 480.167729 
L 231.944297 478.657523 
L 236.901323 477.182386 
L 241.858348 475.741867 
L 246.815373 474.335516 
L 251.772398 472.962892 
L 256.729423 471.623555 
L 261.686448 470.317071 
L 266.643474 469.043013 
L 271.600499 467.800955 
L 276.557524 466.590479 
L 281.514549 465.411169 
L 286.471574 464.262614 
L 291.4286 463.14441 
L 296.385625 462.056153 
L 301.34265 460.997448 
L 306.299675 459.967902 
L 311.2567 458.967125 
L 316.213726 457.994734 
L 321.170751 457.050349 
L 326.127776 456.133595 
L 331.084801 455.244099 
L 336.041826 454.381493 
L 340.998851 453.545416 
L 345.955877 452.735506 
L 350.912902 451.951409 
L 355.869927 451.192773 
L 360.826952 450.459251 
L 365.783977 449.750499 
L 370.741003 449.066176 
L 375.698028 448.405947 
L 380.655053 447.769479 
L 385.612078 447.156444 
L 390.569103 446.566516 
L 395.526129 445.999374 
L 400.483154 445.454701 
L 405.440179 444.932181 
L 410.397204 444.431505 
L 415.354229 443.952365 
" clip-path="url(#p549e1321e5)" style="fill: none; stroke-dasharray: 5.55,2.4; stroke-dashoffset: 0; stroke: #ff0000; stroke-width: 1.5"/>
   </g>
   <g id="line2d_61">
    <g clip-path="url(#p549e1321e5)">
     <use xlink:href="#mbaffa86034" x="58.448416" y="506.232869" style="fill: #0000ff; stroke: #0000ff"/>
     <use xlink:href="#mbaffa86034" x="78.276516" y="484.921335" style="fill: #0000ff; stroke: #0000ff"/>
     <use xlink:href="#mbaffa86034" x="98.104617" y="484.837263" style="fill: #0000ff; stroke: #0000ff"/>
     <use xlink:href="#mbaffa86034" x="117.932718" y="482.972587" style="fill: #0000ff; stroke: #0000ff"/>
     <use xlink:href="#mbaffa86034" x="137.760819" y="476.035086" style="fill: #0000ff; stroke: #0000ff"/>
     <use xlink:href="#mbaffa86034" x="177.41702" y="503.793037" style="fill: #0000ff; stroke: #0000ff"/>
     <use xlink:href="#mbaffa86034" x="236.901323" y="534.55925" style="fill: #0000ff; stroke: #0000ff"/>
     <use xlink:href="#mbaffa86034" x="296.385625" y="594.289705" style="fill: #0000ff; stroke: #0000ff"/>
     <use xlink:href="#mbaffa86034" x="355.869927" y="548.524713" style="fill: #0000ff; stroke: #0000ff"/>
     <use xlink:href="#mbaffa86034" x="415.354229" y="560.9969" style="fill: #0000ff; stroke: #0000ff"/>
    </g>
   </g>
   <g id="line2d_62">
    <g clip-path="url(#p549e1321e5)">
     <use xlink:href="#m3413a5828b" x="58.448416" y="409.016251" style="fill: #008000; stroke: #008000"/>
     <use xlink:href="#m3413a5828b" x="78.276516" y="463.895652" style="fill: #008000; stroke: #008000"/>
     <use xlink:href="#m3413a5828b" x="98.104617" y="526.353758" style="fill: #008000; stroke: #008000"/>
     <use xlink:href="#m3413a5828b" x="117.932718" y="584.536906" style="fill: #008000; stroke: #008000"/>
     <use xlink:href="#m3413a5828b" x="137.760819" y="609.401918" style="fill: #008000; stroke: #008000"/>
     <use xlink:href="#m3413a5828b" x="177.41702" y="648.192947" style="fill: #008000; stroke: #008000"/>
     <use xlink:href="#m3413a5828b" x="236.901323" y="666.397302" style="fill: #008000; stroke: #008000"/>
     <use xlink:href="#m3413a5828b" x="296.385625" y="672.377753" style="fill: #008000; stroke: #008000"/>
     <use xlink:href="#m3413a5828b" x="355.869927" y="673.487784" style="fill: #008000; stroke: #008000"/>
     <use xlink:href="#m3413a5828b" x="415.354229" y="674.152481" style="fill: #008000; stroke: #008000"/>
    </g>
   </g>
   <g id="line2d_63">
    <g clip-path="url(#p549e1321e5)">
     <use xlink:href="#m46a72cd12d" x="58.448416" y="536.613062" style="fill: #ff0000; stroke: #ff0000"/>
     <use xlink:href="#m46a72cd12d" x="78.276516" y="586.545469" style="fill: #ff0000; stroke: #ff0000"/>
     <use xlink:href="#m46a72cd12d" x="98.104617" y="559.566954" style="fill: #ff0000; stroke: #ff0000"/>
     <use xlink:href="#m46a72cd12d" x="117.932718" y="535.547058" style="fill: #ff0000; stroke: #ff0000"/>
     <use xlink:href="#m46a72cd12d" x="137.760819" y="525.322828" style="fill: #ff0000; stroke: #ff0000"/>
     <use xlink:href="#m46a72cd12d" x="177.41702" y="447.006556" style="fill: #ff0000; stroke: #ff0000"/>
     <use xlink:href="#m46a72cd12d" x="236.901323" y="480.272993" style="fill: #ff0000; stroke: #ff0000"/>
     <use xlink:href="#m46a72cd12d" x="296.385625" y="425.690512" style="fill: #ff0000; stroke: #ff0000"/>
     <use xlink:href="#m46a72cd12d" x="355.869927" y="442.173163" style="fill: #ff0000; stroke: #ff0000"/>
     <use xlink:href="#m46a72cd12d" x="415.354229" y="490.948207" style="fill: #ff0000; stroke: #ff0000"/>
    </g>
   </g>
   <g id="patch_9">
    <path d="M 40.603125 690.84327 
L 40.603125 382.917885 
" style="fill: none; stroke: #000000; stroke-width: 0.8; stroke-linejoin: miter; stroke-linecap: square"/>
   </g>
   <g id="patch_10">
    <path d="M 433.19952 690.84327 
L 433.19952 382.917885 
" style="fill: none; stroke: #000000; stroke-width: 0.8; stroke-linejoin: miter; stroke-linecap: square"/>
   </g>
   <g id="patch_11">
    <path d="M 40.603125 690.84327 
L 433.19952 690.84327 
" style="fill: none; stroke: #000000; stroke-width: 0.8; stroke-linejoin: miter; stroke-linecap: square"/>
   </g>
   <g id="patch_12">
    <path d="M 40.603125 382.917885 
L 433.19952 382.917885 
" style="fill: none; stroke: #000000; stroke-width: 0.8; stroke-linejoin: miter; stroke-linecap: square"/>
   </g>
   <g id="text_45">
    <!-- Replicate 4 -->
    <g transform="translate(203.423198 376.917885) scale(0.12 -0.12)">
     <use xlink:href="#DejaVuSans-52"/>
     <use xlink:href="#DejaVuSans-65" transform="translate(64.982422 0)"/>
     <use xlink:href="#DejaVuSans-70" transform="translate(126.505859 0)"/>
     <use xlink:href="#DejaVuSans-6c" transform="translate(189.982422 0)"/>
     <use xlink:href="#DejaVuSans-69" transform="translate(217.765625 0)"/>
     <use xlink:href="#DejaVuSans-63" transform="translate(245.548828 0)"/>
     <use xlink:href="#DejaVuSans-61" transform="translate(300.529297 0)"/>
     <use xlink:href="#DejaVuSans-74" transform="translate(361.808594 0)"/>
     <use xlink:href="#DejaVuSans-65" transform="translate(401.017578 0)"/>
     <use xlink:href="#DejaVuSans-20" transform="translate(462.541016 0)"/>
     <use xlink:href="#DejaVuSans-34" transform="translate(494.328125 0)"/>
    </g>
   </g>
   <g id="legend_2">
    <g id="patch_13">
     <path d="M 47.603125 685.84327 
L 143.35 685.84327 
Q 145.35 685.84327 145.35 683.84327 
L 145.35 640.808895 
Q 145.35 638.808895 143.35 638.808895 
L 47.603125 638.808895 
Q 45.603125 638.808895 45.603125 640.808895 
L 45.603125 683.84327 
Q 45.603125 685.84327 47.603125 685.84327 
z
" style="fill: #ffffff; opacity: 0.8; stroke: #cccccc; stroke-linejoin: miter"/>
    </g>
    <g id="line2d_64">
     <path d="M 49.603125 646.907332 
L 59.603125 646.907332 
L 69.603125 646.907332 
" style="fill: none; stroke-dasharray: 5.55,2.4; stroke-dashoffset: 0; stroke: #0000ff; stroke-width: 1.5"/>
    </g>
    <g id="text_46">
     <!-- p.Phe237Ser -->
     <g transform="translate(77.603125 650.407332) scale(0.1 -0.1)">
      <use xlink:href="#DejaVuSans-70"/>
      <use xlink:href="#DejaVuSans-2e" transform="translate(63.476562 0)"/>
      <use xlink:href="#DejaVuSans-50" transform="translate(95.263672 0)"/>
      <use xlink:href="#DejaVuSans-68" transform="translate(155.566406 0)"/>
      <use xlink:href="#DejaVuSans-65" transform="translate(218.945312 0)"/>
      <use xlink:href="#DejaVuSans-32" transform="translate(280.46875 0)"/>
      <use xlink:href="#DejaVuSans-33" transform="translate(344.091797 0)"/>
      <use xlink:href="#DejaVuSans-37" transform="translate(407.714844 0)"/>
      <use xlink:href="#DejaVuSans-53" transform="translate(471.337891 0)"/>
      <use xlink:href="#DejaVuSans-65" transform="translate(534.814453 0)"/>
      <use xlink:href="#DejaVuSans-72" transform="translate(596.337891 0)"/>
     </g>
    </g>
    <g id="line2d_65">
     <path d="M 49.603125 661.585457 
L 59.603125 661.585457 
L 69.603125 661.585457 
" style="fill: none; stroke-dasharray: 5.55,2.4; stroke-dashoffset: 0; stroke: #008000; stroke-width: 1.5"/>
    </g>
    <g id="text_47">
     <!-- p.Ala109Ter -->
     <g transform="translate(77.603125 665.085457) scale(0.1 -0.1)">
      <use xlink:href="#DejaVuSans-70"/>
      <use xlink:href="#DejaVuSans-2e" transform="translate(63.476562 0)"/>
      <use xlink:href="#DejaVuSans-41" transform="translate(95.263672 0)"/>
      <use xlink:href="#DejaVuSans-6c" transform="translate(163.671875 0)"/>
      <use xlink:href="#DejaVuSans-61" transform="translate(191.455078 0)"/>
      <use xlink:href="#DejaVuSans-31" transform="translate(252.734375 0)"/>
      <use xlink:href="#DejaVuSans-30" transform="translate(316.357422 0)"/>
      <use xlink:href="#DejaVuSans-39" transform="translate(379.980469 0)"/>
      <use xlink:href="#DejaVuSans-54" transform="translate(443.603516 0)"/>
      <use xlink:href="#DejaVuSans-65" transform="translate(487.6875 0)"/>
      <use xlink:href="#DejaVuSans-72" transform="translate(549.210938 0)"/>
     </g>
    </g>
    <g id="line2d_66">
     <path d="M 49.603125 676.263582 
L 59.603125 676.263582 
L 69.603125 676.263582 
" style="fill: none; stroke-dasharray: 5.55,2.4; stroke-dashoffset: 0; stroke: #ff0000; stroke-width: 1.5"/>
    </g>
    <g id="text_48">
     <!-- p.Ala300Met -->
     <g transform="translate(77.603125 679.763582) scale(0.1 -0.1)">
      <use xlink:href="#DejaVuSans-70"/>
      <use xlink:href="#DejaVuSans-2e" transform="translate(63.476562 0)"/>
      <use xlink:href="#DejaVuSans-41" transform="translate(95.263672 0)"/>
      <use xlink:href="#DejaVuSans-6c" transform="translate(163.671875 0)"/>
      <use xlink:href="#DejaVuSans-61" transform="translate(191.455078 0)"/>
      <use xlink:href="#DejaVuSans-33" transform="translate(252.734375 0)"/>
      <use xlink:href="#DejaVuSans-30" transform="translate(316.357422 0)"/>
      <use xlink:href="#DejaVuSans-30" transform="translate(379.980469 0)"/>
      <use xlink:href="#DejaVuSans-4d" transform="translate(443.603516 0)"/>
      <use xlink:href="#DejaVuSans-65" transform="translate(529.882812 0)"/>
      <use xlink:href="#DejaVuSans-74" transform="translate(591.40625 0)"/>
     </g>
    </g>
   </g>
  </g>
 </g>
 <defs>
  <clipPath id="pc3f68b3008">
   <rect x="40.603125" y="22.318125" width="392.596395" height="307.925385"/>
  </clipPath>
  <clipPath id="p549e1321e5">
   <rect x="40.603125" y="382.917885" width="392.596395" height="307.925385"/>
  </clipPath>
 </defs>
</svg>
