<?xml version="1.0" encoding="UTF-8" standalone="no"?>
<svg width="775px" height="582px" viewBox="0 0 775 582"
 xmlns="http://www.w3.org/2000/svg" xmlns:xlink="http://www.w3.org/1999/xlink" version="1.2" baseProfile="tiny">
<title>uke_tuning</title>
<desc>Generated by MuseScore 3.2.3</desc>
<polyline class="" fill="none" stroke="#000000" stroke-width="4.00" stroke-linejoin="bevel" points="34.8653,307.703 34.8653,422.203"/>
<polyline class="" fill="none" stroke="#000000" stroke-width="4.00" stroke-linejoin="bevel" points="34.8653,45.2026 34.8653,308.703"/>
<polyline class="" fill="none" stroke="#000000" stroke-width="2.00" stroke-linejoin="bevel" points="32.8653,308.703 880.979,308.703"/>
<polyline class="" fill="none" stroke="#000000" stroke-width="2.00" stroke-linejoin="bevel" points="32.8653,346.203 880.979,346.203"/>
<polyline class="" fill="none" stroke="#000000" stroke-width="2.00" stroke-linejoin="bevel" points="32.8653,383.703 880.979,383.703"/>
<polyline class="" fill="none" stroke="#000000" stroke-width="2.00" stroke-linejoin="bevel" points="32.8653,421.203 880.979,421.203"/>
<polyline class="" fill="none" stroke="#000000" stroke-width="2.00" stroke-linejoin="bevel" points="32.8653,46.2026 880.979,46.2026"/>
<polyline class="" fill="none" stroke="#000000" stroke-width="2.00" stroke-linejoin="bevel" points="32.8653,71.2026 880.979,71.2026"/>
<polyline class="" fill="none" stroke="#000000" stroke-width="2.00" stroke-linejoin="bevel" points="32.8653,96.2026 880.979,96.2026"/>
<polyline class="" fill="none" stroke="#000000" stroke-width="2.00" stroke-linejoin="bevel" points="32.8653,121.203 880.979,121.203"/>
<polyline class="" fill="none" stroke="#000000" stroke-width="2.00" stroke-linejoin="bevel" points="32.8653,146.203 880.979,146.203"/>
<polyline class="" fill="none" stroke="#000000" stroke-width="4.00" stroke-linecap="square" stroke-linejoin="bevel" points="640.712,171.203 691.806,171.203"/>
<polyline class="" fill="none" stroke="#000000" stroke-width="4.00" stroke-linecap="square" stroke-linejoin="bevel" points="331.073,171.203 381.87,171.203"/>
<polyline class="" fill="none" stroke="#000000" stroke-width="3.25" stroke-linecap="round" stroke-linejoin="bevel" points="668.552,483.703 668.552,521.203"/>
<polyline class="" fill="none" stroke="#000000" stroke-width="3.25" stroke-linecap="round" stroke-linejoin="bevel" points="462.027,446.203 462.027,521.203"/>
<polyline class="" fill="none" stroke="#000000" stroke-width="3.25" stroke-linecap="round" stroke-linejoin="bevel" points="565.29,446.203 565.29,521.203"/>
<polyline class="" fill="none" stroke="#000000" stroke-width="3.25" stroke-linecap="round" stroke-linejoin="bevel" points="358.765,446.203 358.765,521.203"/>
<polyline class="" fill="none" stroke="#000000" stroke-width="3.25" stroke-linecap="round" stroke-linejoin="bevel" points="255.502,446.203 255.502,521.203"/>
<polyline class="" fill="none" stroke="#000000" stroke-width="3.25" stroke-linecap="round" stroke-linejoin="bevel" points="682.681,167.283 682.681,27.4526"/>
<polyline class="" fill="none" stroke="#000000" stroke-width="3.25" stroke-linecap="round" stroke-linejoin="bevel" points="476.008,142.443 476.008,42.0359"/>
<polyline class="" fill="none" stroke="#000000" stroke-width="3.25" stroke-linecap="round" stroke-linejoin="bevel" points="579.27,104.943 579.27,39.9526"/>
<polyline class="" fill="none" stroke="#000000" stroke-width="3.25" stroke-linecap="round" stroke-linejoin="bevel" points="269.483,117.363 269.483,46.2026"/>
<polyline class="" fill="none" stroke="#000000" stroke-width="3.25" stroke-linecap="round" stroke-linejoin="bevel" points="372.745,167.363 372.745,44.1193"/>
<path class="" fill="#f9f9f9" fill-rule="evenodd" d="M654.802,402.453 L682.302,402.453 L682.302,439.953 L654.802,439.953 L654.802,402.453 "/>
<path class="" d="M675.935,432.508 C674.075,435.388 671.615,436.828 668.552,436.828 C665.49,436.828 663.029,435.359 661.169,432.422 C659.31,429.484 658.38,425.703 658.38,421.078 C658.38,416.734 659.31,413.099 661.169,410.172 C663.029,407.244 665.547,405.781 668.724,405.781 C671.672,405.781 674.075,407.221 675.935,410.101 C677.794,412.981 678.724,416.734 678.724,421.359 C678.724,425.911 677.794,429.627 675.935,432.508 M668.599,406.953 C664.672,406.953 662.708,411.797 662.708,421.484 C662.708,430.932 664.656,435.656 668.552,435.656 C672.448,435.656 674.396,430.916 674.396,421.437 C674.396,416.729 673.901,413.138 672.911,410.664 C671.922,408.19 670.484,406.953 668.599,406.953"/>
<path class="" fill="#f9f9f9" fill-rule="evenodd" d="M654.802,364.953 L682.302,364.953 L682.302,402.453 L654.802,402.453 L654.802,364.953 "/>
<path class="" d="M675.935,395.007 C674.075,397.888 671.615,399.328 668.552,399.328 C665.49,399.328 663.029,397.859 661.169,394.922 C659.31,391.984 658.38,388.203 658.38,383.578 C658.38,379.234 659.31,375.599 661.169,372.672 C663.029,369.744 665.547,368.281 668.724,368.281 C671.672,368.281 674.075,369.721 675.935,372.601 C677.794,375.481 678.724,379.234 678.724,383.859 C678.724,388.411 677.794,392.127 675.935,395.007 M668.599,369.453 C664.672,369.453 662.708,374.297 662.708,383.984 C662.708,393.432 664.656,398.156 668.552,398.156 C672.448,398.156 674.396,393.416 674.396,383.937 C674.396,379.229 673.901,375.638 672.911,373.164 C671.922,370.69 670.484,369.453 668.599,369.453"/>
<path class="" fill="#f9f9f9" fill-rule="evenodd" d="M654.802,327.453 L682.302,327.453 L682.302,364.953 L654.802,364.953 L654.802,327.453 "/>
<path class="" d="M675.935,357.507 C674.075,360.388 671.615,361.828 668.552,361.828 C665.49,361.828 663.029,360.359 661.169,357.422 C659.31,354.484 658.38,350.703 658.38,346.078 C658.38,341.734 659.31,338.099 661.169,335.172 C663.029,332.244 665.547,330.781 668.724,330.781 C671.672,330.781 674.075,332.221 675.935,335.101 C677.794,337.981 678.724,341.734 678.724,346.359 C678.724,350.911 677.794,354.627 675.935,357.507 M668.599,331.953 C664.672,331.953 662.708,336.797 662.708,346.484 C662.708,355.932 664.656,360.656 668.552,360.656 C672.448,360.656 674.396,355.916 674.396,346.437 C674.396,341.729 673.901,338.138 672.911,335.664 C671.922,333.19 670.484,331.953 668.599,331.953"/>
<path class="" fill="#f9f9f9" fill-rule="evenodd" d="M654.802,289.953 L682.302,289.953 L682.302,327.453 L654.802,327.453 L654.802,289.953 "/>
<path class="" d="M675.935,320.007 C674.075,322.888 671.615,324.328 668.552,324.328 C665.49,324.328 663.029,322.859 661.169,319.922 C659.31,316.984 658.38,313.203 658.38,308.578 C658.38,304.234 659.31,300.599 661.169,297.672 C663.029,294.744 665.547,293.281 668.724,293.281 C671.672,293.281 674.075,294.721 675.935,297.601 C677.794,300.481 678.724,304.234 678.724,308.859 C678.724,313.411 677.794,317.127 675.935,320.007 M668.599,294.453 C664.672,294.453 662.708,299.297 662.708,308.984 C662.708,318.432 664.656,323.156 668.552,323.156 C672.448,323.156 674.396,318.416 674.396,308.937 C674.396,304.229 673.901,300.638 672.911,298.164 C671.922,295.69 670.484,294.453 668.599,294.453"/>
<path class="" fill="#f9f9f9" fill-rule="evenodd" d="M448.277,327.453 L475.777,327.453 L475.777,364.953 L448.277,364.953 L448.277,327.453 "/>
<path class="" d="M469.41,357.507 C467.551,360.388 465.09,361.828 462.027,361.828 C458.965,361.828 456.504,360.359 454.644,357.422 C452.785,354.484 451.855,350.703 451.855,346.078 C451.855,341.734 452.785,338.099 454.644,335.172 C456.504,332.244 459.022,330.781 462.199,330.781 C465.147,330.781 467.551,332.221 469.41,335.101 C471.269,337.981 472.199,341.734 472.199,346.359 C472.199,350.911 471.269,354.627 469.41,357.507 M462.074,331.953 C458.147,331.953 456.183,336.797 456.183,346.484 C456.183,355.932 458.131,360.656 462.027,360.656 C465.923,360.656 467.871,355.916 467.871,346.437 C467.871,341.729 467.376,338.138 466.386,335.664 C465.397,333.19 463.959,331.953 462.074,331.953"/>
<path class="" fill="#f9f9f9" fill-rule="evenodd" d="M551.54,289.953 L579.04,289.953 L579.04,327.453 L551.54,327.453 L551.54,289.953 "/>
<path class="" d="M572.672,320.007 C570.813,322.888 568.352,324.328 565.29,324.328 C562.227,324.328 559.766,322.859 557.907,319.922 C556.047,316.984 555.118,313.203 555.118,308.578 C555.118,304.234 556.047,300.599 557.907,297.672 C559.766,294.744 562.284,293.281 565.461,293.281 C568.409,293.281 570.813,294.721 572.672,297.601 C574.532,300.481 575.461,304.234 575.461,308.859 C575.461,313.411 574.532,317.127 572.672,320.007 M565.336,294.453 C561.409,294.453 559.446,299.297 559.446,308.984 C559.446,318.432 561.394,323.156 565.29,323.156 C569.185,323.156 571.133,318.416 571.133,308.937 C571.133,304.229 570.639,300.638 569.649,298.164 C568.659,295.69 567.222,294.453 565.336,294.453"/>
<path class="" fill="#f9f9f9" fill-rule="evenodd" d="M345.015,364.953 L372.515,364.953 L372.515,402.453 L345.015,402.453 L345.015,364.953 "/>
<path class="" d="M366.147,395.007 C364.288,397.888 361.827,399.328 358.765,399.328 C355.702,399.328 353.241,397.859 351.382,394.922 C349.522,391.984 348.593,388.203 348.593,383.578 C348.593,379.234 349.522,375.599 351.382,372.672 C353.241,369.744 355.759,368.281 358.936,368.281 C361.884,368.281 364.288,369.721 366.147,372.601 C368.007,375.481 368.936,379.234 368.936,383.859 C368.936,388.411 368.007,392.127 366.147,395.007 M358.811,369.453 C354.884,369.453 352.921,374.297 352.921,383.984 C352.921,393.432 354.869,398.156 358.765,398.156 C362.66,398.156 364.608,393.416 364.608,383.937 C364.608,379.229 364.114,375.638 363.124,373.164 C362.134,370.69 360.697,369.453 358.811,369.453"/>
<path class="" fill="#f9f9f9" fill-rule="evenodd" d="M241.752,402.453 L269.252,402.453 L269.252,439.953 L241.752,439.953 L241.752,402.453 "/>
<path class="" d="M262.885,432.508 C261.026,435.388 258.565,436.828 255.502,436.828 C252.44,436.828 249.979,435.359 248.119,432.422 C246.26,429.484 245.33,425.703 245.33,421.078 C245.33,416.734 246.26,413.099 248.119,410.172 C249.979,407.244 252.497,405.781 255.674,405.781 C258.622,405.781 261.026,407.221 262.885,410.101 C264.744,412.981 265.674,416.734 265.674,421.359 C265.674,425.911 264.744,429.627 262.885,432.508 M255.549,406.953 C251.622,406.953 249.658,411.797 249.658,421.484 C249.658,430.932 251.606,435.656 255.502,435.656 C259.398,435.656 261.346,430.916 261.346,421.437 C261.346,416.729 260.851,413.138 259.862,410.664 C258.872,408.19 257.434,406.953 255.549,406.953"/>
<path class="" fill="#ffffff" d="M660.118,185.609 C680.322,185.609 684.322,170 684.322,166.296 C684.322,160.406 679.322,156.609 672.306,156.609 C653.915,156.609 648.212,170 648.212,175.906 C648.212,182.109 653.415,185.609 660.118,185.609"/>
<path class="" d="M660.118,185.609 C680.322,185.609 684.322,170 684.322,166.296 C684.322,160.406 679.322,156.609 672.306,156.609 C653.915,156.609 648.212,170 648.212,175.906 C648.212,182.109 653.415,185.609 660.118,185.609 M671.306,179 C666.806,181.796 663.212,182.906 660.415,182.906 C656.415,182.906 654.009,180.796 652.415,178.203 C651.618,177 651.212,175.703 651.212,174.296 C651.212,171 653.915,167.296 661.618,163.203 C666.618,160.5 670.212,159.406 673.009,159.406 C676.415,159.406 678.415,161 679.915,163.406 C680.712,164.796 681.322,166.203 681.322,167.609 C681.322,170.796 678.712,174.296 671.306,179 M666.806,178.296 C670.415,178.296 672.915,176.406 673.009,173.109 L670.118,173.109 C669.915,175 668.806,175.796 666.915,175.796 C664.618,175.796 663.212,174 663.212,170.796 C663.212,167.609 664.618,165.796 667.009,165.796 C668.618,165.796 669.712,166.609 670.118,168.406 L673.009,168.406 C672.712,165.109 670.212,163.296 666.915,163.296 C662.806,163.296 660.212,166.109 660.212,170.796 C660.212,175.5 662.806,178.296 666.806,178.296"/>
<path class="" fill="#ffffff" d="M660.118,160.609 C680.322,160.609 684.322,145 684.322,141.296 C684.322,135.406 679.322,131.609 672.306,131.609 C653.915,131.609 648.212,145 648.212,150.906 C648.212,157.109 653.415,160.609 660.118,160.609"/>
<path class="" d="M660.118,160.609 C680.322,160.609 684.322,145 684.322,141.296 C684.322,135.406 679.322,131.609 672.306,131.609 C653.915,131.609 648.212,145 648.212,150.906 C648.212,157.109 653.415,160.609 660.118,160.609 M671.306,154 C666.806,156.796 663.212,157.906 660.415,157.906 C656.415,157.906 654.009,155.796 652.415,153.203 C651.618,152 651.212,150.703 651.212,149.296 C651.212,146 653.915,142.296 661.618,138.203 C666.618,135.5 670.212,134.406 673.009,134.406 C676.415,134.406 678.415,136 679.915,138.406 C680.712,139.796 681.322,141.203 681.322,142.609 C681.322,145.796 678.712,149.296 671.306,154 M669.618,153.5 L672.618,151 L664.509,151 L664.509,147.296 L671.509,147.296 L671.509,144.796 L664.509,144.796 L664.509,141.5 L672.118,141.5 L672.118,139 L664.009,139 L661.509,140.5 L661.509,153.5 L669.618,153.5 "/>
<path class="" fill="#ffffff" d="M660.322,135.609 C680.525,135.609 684.525,120 684.525,116.296 C684.525,110.406 679.525,106.609 672.509,106.609 C654.118,106.609 648.415,120 648.415,125.906 C648.415,132.109 653.618,135.609 660.322,135.609"/>
<path class="" d="M660.212,135.609 C680.415,135.609 684.415,120 684.415,116.296 C684.415,110.406 679.415,106.609 672.415,106.609 C654.009,106.609 648.322,120 648.322,125.906 C648.322,132.109 653.509,135.609 660.212,135.609 M671.415,129 C666.915,131.796 663.322,132.906 660.509,132.906 C656.509,132.906 654.118,130.796 652.509,128.203 C651.712,127 651.322,125.703 651.322,124.296 C651.322,121 654.009,117.296 661.712,113.203 C666.712,110.5 670.322,109.406 673.118,109.406 C676.525,109.406 678.525,111 680.025,113.406 C680.822,114.796 681.415,116.203 681.415,117.609 C681.415,120.796 678.822,124.296 671.415,129 M672.915,126.609 L672.915,120.109 L667.118,120.109 L667.118,122.609 L670.415,122.609 C670.212,124.406 668.509,125.609 666.712,125.609 C664.322,125.609 662.618,123.609 662.618,120.609 C662.618,117.406 664.118,115.703 666.618,115.703 C668.322,115.703 669.509,116.296 670.118,118 L672.915,118 C672.618,115 670.118,113.109 666.618,113.109 C662.415,113.109 659.618,116.109 659.618,120.609 C659.618,125 662.415,128.203 666.415,128.203 C668.322,128.203 669.712,127.5 670.822,125.906 L671.118,127.906 L672.915,126.609 "/>
<path class="" fill="#ffffff" d="M692.962,123.109 C713.165,123.109 717.165,107.5 717.165,103.796 C717.165,97.9058 712.165,94.1089 705.15,94.1089 C686.759,94.1089 681.056,107.5 681.056,113.406 C681.056,119.609 686.259,123.109 692.962,123.109"/>
<path class="" d="M692.962,123.109 C713.165,123.109 717.165,107.5 717.165,103.796 C717.165,97.9058 712.165,94.1089 705.15,94.1089 C686.759,94.1089 681.056,107.5 681.056,113.406 C681.056,119.609 686.259,123.109 692.962,123.109 M704.15,116.5 C699.65,119.296 696.056,120.406 693.259,120.406 C689.259,120.406 686.853,118.296 685.259,115.703 C684.462,114.5 684.056,113.203 684.056,111.796 C684.056,108.5 686.759,104.796 694.462,100.703 C699.462,97.9995 703.056,96.9058 705.853,96.9058 C709.259,96.9058 711.259,98.4995 712.759,100.906 C713.556,102.296 714.165,103.703 714.165,105.109 C714.165,108.296 711.556,111.796 704.15,116.5 M697.65,101 L692.462,115.609 L695.556,115.609 L696.556,112.609 L701.962,112.609 L702.962,115.609 L705.759,113.796 L700.962,101 L697.65,101 M697.353,110.109 L699.259,104.406 L701.15,110.109 L697.353,110.109 "/>
<path class="" fill="#ffffff" d="M556.801,122.796 C567.598,122.796 580.895,113.5 580.895,104 C580.895,98.2964 576.004,94.6089 568.895,94.6089 C555.692,94.6089 545.098,103.703 545.098,113.406 C545.098,119.296 550.192,122.796 556.801,122.796"/>
<path class="" d="M560.692,109.906 L565.504,109.906 L563.098,102.796 L560.692,109.906 M569.004,94.6089 C555.801,94.6089 545.098,103.703 545.098,113.406 C545.098,119.296 550.192,122.796 556.801,122.796 C567.598,122.796 580.895,113.5 580.895,104 C580.895,98.2964 576.004,94.6089 569.004,94.6089 M567.692,116.703 L566.504,113 L559.692,113 L558.395,116.703 L554.598,116.703 L561.098,98.4995 L565.192,98.4995 L570.895,114.703 L567.692,116.703 "/>
<path class="" fill="#ffffff" d="M350.276,185.296 C361.073,185.296 374.37,176 374.37,166.5 C374.37,160.796 369.479,157.109 362.37,157.109 C349.167,157.109 338.573,166.203 338.573,175.906 C338.573,181.796 343.667,185.296 350.276,185.296"/>
<path class="" d="M362.479,157 C349.276,157 338.573,166.109 338.573,175.796 C338.573,181.796 343.667,185.203 350.276,185.203 C361.073,185.203 374.37,176 374.37,166.406 C374.37,160.703 369.479,157 362.479,157 M356.276,181.109 C351.167,181.109 347.87,177.5 347.87,171.5 C347.87,165.5 351.167,161.906 356.479,161.906 C360.573,161.906 363.87,164.203 364.183,168.5 L360.573,168.5 C359.979,166.109 358.667,165.109 356.573,165.109 C353.573,165.109 351.667,167.406 351.667,171.609 C351.667,175.609 353.479,177.906 356.479,177.906 C358.776,177.906 360.276,176.796 360.573,174.5 L364.276,174.5 C364.073,178.703 360.979,181.109 356.276,181.109"/>
<path class="" fill="#ffffff" d="M453.539,160.296 C464.336,160.296 477.633,151 477.633,141.5 C477.633,135.796 472.742,132.109 465.633,132.109 C452.429,132.109 441.836,141.203 441.836,150.906 C441.836,156.796 446.929,160.296 453.539,160.296"/>
<path class="" d="M465.742,132.109 C452.539,132.109 441.836,141.203 441.836,150.906 C441.836,156.796 447.039,160.296 453.539,160.296 C464.336,160.296 477.633,151 477.633,141.5 C477.633,135.796 472.742,132.109 465.742,132.109 M465.742,155.203 L452.539,155.203 L452.539,137.5 L465.336,137.5 L465.336,140.5 L456.242,140.5 L456.242,144.609 L464.633,144.609 L464.633,147.609 L456.242,147.609 L456.242,152.203 L465.742,152.203 L465.742,155.203 "/>
<path class="" fill="#ffffff" d="M247.014,135.296 C257.811,135.296 271.108,126 271.108,116.5 C271.108,110.796 266.217,107.109 259.108,107.109 C245.904,107.109 235.311,116.203 235.311,125.906 C235.311,131.796 240.404,135.296 247.014,135.296"/>
<path class="" d="M259.217,107 C246.014,107 235.311,116.109 235.311,125.796 C235.311,131.703 240.514,135.203 247.108,135.203 C257.811,135.203 271.108,125.906 271.108,116.406 C271.108,110.703 266.217,107 259.217,107 M252.217,127 C254.404,127 256.608,125.5 256.811,123.203 L252.717,123.203 L252.717,120.109 L260.014,120.109 L260.014,128.5 L257.717,129.906 L257.311,127.406 C255.904,129.296 254.217,130.203 251.811,130.203 C246.904,130.203 243.311,126.296 243.311,120.796 C243.311,115.109 246.811,111.406 252.108,111.406 C256.514,111.406 259.514,113.796 260.014,117.5 L256.514,117.5 C255.717,115.406 254.217,114.609 252.108,114.609 C248.904,114.609 247.014,116.796 247.014,120.703 C247.014,124.5 249.217,127 252.217,127"/>
<path class="" d="M82.9669,318.047 L82.9669,314.547 L58.2637,314.547 L58.2637,318.047 L68.67,318.047 L68.67,346.047 L72.67,346.047 L72.67,318.047 L82.9669,318.047 M84.3731,380.953 L73.3731,349.453 L68.17,349.453 L56.8731,380.953 L61.17,380.953 L64.4669,371.453 L76.67,371.453 L79.8731,380.953 L84.3731,380.953 M75.5762,368.156 L65.4669,368.156 L70.67,353.75 L75.5762,368.156 M82.3731,406.75 C82.3731,402.953 80.67,400.656 76.67,399.156 C79.4669,397.75 80.9669,395.453 80.9669,392.25 C80.9669,387.656 77.67,384.25 71.67,384.25 L58.8731,384.25 L58.8731,415.75 L73.0762,415.75 C78.7637,415.75 82.3731,411.953 82.3731,406.75 M76.9669,392.859 C76.9669,396.062 75.17,397.859 70.67,397.859 L62.8731,397.859 L62.8731,387.75 L70.67,387.75 C75.17,387.75 76.9669,389.656 76.9669,392.859 M78.3731,406.75 C78.3731,409.859 76.5762,412.156 72.7637,412.156 L62.8731,412.156 L62.8731,401.359 L72.7637,401.359 C76.5762,401.359 78.3731,403.75 78.3731,406.75"/>
<path class="" d="M99.0606,153.328 L99.0606,151.187 C98.9981,150.083 98.8367,148.359 98.5762,146.015 C95.3262,146.536 92.4304,146.796 89.8887,146.796 C80.7742,146.796 73.0424,143.197 66.6934,136 C60.3445,128.802 57.17,120.223 57.17,110.265 C57.17,107.598 57.6908,104.393 58.7325,100.648 C59.7742,96.9032 60.7351,94.3953 61.6153,93.1245 C62.4955,91.8537 63.8158,89.6245 65.5762,86.437 C66.0971,85.4578 67.7898,83.3068 70.6544,79.9839 C71.1752,79.2756 71.6309,78.6922 72.0216,78.2339 C72.4122,77.7756 73.045,76.9605 73.92,75.7886 C74.795,74.6167 75.7377,73.5256 76.7481,72.5151 C77.7585,71.5047 78.6544,70.5282 79.4356,69.5855 C80.2169,68.6427 80.9356,67.8485 81.5919,67.2026 C79.2481,59.4526 77.8158,53.4943 77.295,49.3276 C76.7742,45.161 76.5137,40.049 76.5137,33.9917 C76.5137,27.9344 77.8158,22.4318 80.42,17.4839 C82.9512,12.3485 86.4981,8.15056 91.0606,4.89014 C91.321,4.69222 91.6622,4.59327 92.0841,4.59327 C92.5059,4.59327 92.8158,4.69222 93.0137,4.89014 C96.5242,9.11931 99.5658,14.6193 102.139,21.3901 C104.712,28.161 105.998,34.4943 105.998,40.3901 C105.998,46.286 104.503,51.9683 101.514,57.437 C98.1283,63.2287 93.7637,69.2183 88.42,75.4058 C89.7846,79.6974 91.6075,86.4318 93.8887,95.6089 L94.4825,95.6089 C94.7429,95.5464 94.9669,95.5151 95.1544,95.5151 C102.519,95.5151 108.527,98.1037 113.178,103.281 C117.829,108.458 120.154,114.432 120.154,121.203 C120.154,129.598 116.675,136.369 109.717,141.515 C107.696,143.015 105.316,144.187 102.576,145.031 C102.91,149.26 103.076,152.075 103.076,153.476 C103.076,154.877 103.009,157.369 102.873,160.953 C102.811,167.067 100.727,172.307 96.6231,176.671 C92.519,181.036 87.8315,183.218 82.5606,183.218 C77.2898,183.218 72.7976,181.346 69.0841,177.601 C65.3705,173.856 63.5137,169.317 63.5137,163.984 C63.5137,161.182 64.5919,158.802 66.7481,156.843 C68.9565,154.895 71.4434,153.921 74.2091,153.921 C76.9747,153.921 79.2377,154.932 80.9981,156.953 C82.821,158.838 83.7325,161.114 83.7325,163.781 C83.7325,166.447 82.821,168.692 80.9981,170.515 C79.1752,172.338 76.9929,173.25 74.4512,173.25 C73.4096,173.25 72.4044,173.057 71.4356,172.671 C74.3002,176.901 77.9773,179.015 82.4669,179.015 C86.9565,179.015 90.7976,177.161 93.9903,173.453 C97.183,169.744 98.7794,165.38 98.7794,160.359 L99.0606,153.328 M102.186,141.031 C105.571,139.791 108.259,137.593 110.248,134.437 C112.238,131.281 113.232,128.14 113.232,125.015 C113.232,120.39 111.636,116.255 108.443,112.609 C105.251,108.963 101.212,106.911 96.3262,106.453 C99.1283,120.192 101.081,131.718 102.186,141.031 M64.4044,118.468 C64.4044,124.916 66.9747,130.549 72.1153,135.367 C77.2559,140.184 83.2794,142.593 90.1856,142.593 C92.9148,142.593 95.5815,142.395 98.1856,142 C97.144,132.104 95.0919,120.255 92.0294,106.453 C88.196,106.848 85.2195,108.169 83.0997,110.414 C80.9799,112.658 79.92,115.213 79.92,118.078 C79.92,123.026 82.5606,127.031 87.8419,130.093 C88.2898,130.354 88.5137,130.794 88.5137,131.414 C88.5137,132.033 88.3028,132.57 87.8809,133.023 C87.4591,133.476 87.0867,133.703 86.7637,133.703 C86.4408,133.703 86.019,133.64 85.4981,133.515 C77.8731,129.348 74.0606,123.062 74.0606,114.656 C74.0606,110.687 75.4617,106.88 78.2637,103.234 C81.1908,99.5881 84.9981,97.2443 89.6856,96.2026 C87.8627,88.911 86.3679,83.2131 85.2012,79.1089 C76.2846,89.1401 70.7481,96.562 68.5919,101.375 C65.8002,107.625 64.4044,113.322 64.4044,118.468 M97.0137,19.1558 C92.1283,21.562 88.2716,25.0438 85.4434,29.6011 C82.6153,34.1584 81.2012,38.9422 81.2012,43.9526 C81.2012,48.9631 82.3731,55.4422 84.7169,63.3901 C89.4044,57.7235 92.9512,52.4162 95.3575,47.4683 C97.7637,42.5203 98.9669,37.6219 98.9669,32.773 C98.9669,27.924 98.3158,23.3849 97.0137,19.1558"/>
<path class="" d="M168.459,47.3823 C169.954,47.3823 171.386,47.1557 172.756,46.7026 C174.126,46.2495 175.102,46.0229 175.686,46.0229 C176.269,46.0229 176.66,46.3771 176.858,47.0854 C176.858,47.1583 176.79,47.3563 176.654,47.6792 L148.248,80.6948 L164.936,80.6948 L164.936,67.601 C164.936,65.976 165.884,64.8042 167.779,64.0854 C169.727,63.3667 171.941,60.4708 174.42,55.3979 C174.608,55.0021 174.899,54.8042 175.295,54.8042 C176.076,54.8042 176.529,55.2625 176.654,56.1792 L176.654,80.6948 L183.795,80.6948 C184.701,80.6948 185.188,81.1818 185.256,82.1557 C185.324,83.1297 184.837,83.6167 183.795,83.6167 L176.654,83.6167 L176.654,84.3979 C176.654,87.0021 177.305,89.2156 178.608,91.0385 C180.108,92.8615 181.868,93.7729 183.889,93.7729 C184.67,93.7729 185.061,94.1635 185.061,94.9448 C185.061,95.726 184.524,96.1167 183.451,96.1167 C182.378,96.1167 180.376,95.9057 177.443,95.4839 C174.511,95.062 172.248,94.851 170.654,94.851 C169.061,94.851 166.847,95.062 164.014,95.4839 C161.18,95.9057 159.05,96.1167 157.623,96.1167 C156.842,96.1167 156.451,95.726 156.451,94.9448 C156.451,94.1635 156.842,93.7729 157.623,93.7729 C159.634,93.7729 161.389,92.8615 162.889,91.0385 C164.253,89.1531 164.936,86.9396 164.936,84.3979 L164.936,83.6167 L148.248,83.6167 C147.394,83.6167 146.657,83.3901 146.037,82.937 C145.417,82.4839 145.108,82.062 145.108,81.6714 C145.108,81.2807 145.923,80.1089 147.553,78.1557 C149.183,76.2026 151.511,72.4422 154.537,66.8745 C157.563,61.3068 159.076,54.9083 159.076,47.6792 C159.076,46.6375 159.535,46.1167 160.451,46.1167 C160.649,46.1167 160.959,46.1818 161.381,46.312 C161.803,46.4422 162.714,46.6531 164.115,46.9448 C165.516,47.2365 166.964,47.3823 168.459,47.3823"/>
<path class="" d="M168.459,97.5542 C169.954,97.5542 171.386,97.3276 172.756,96.8745 C174.126,96.4214 175.102,96.1948 175.686,96.1948 C176.269,96.1948 176.66,96.549 176.858,97.2573 C176.858,97.3302 176.79,97.5282 176.654,97.8511 L148.248,130.867 L164.936,130.867 L164.936,117.773 C164.936,116.148 165.884,114.976 167.779,114.257 C169.727,113.539 171.941,110.643 174.42,105.57 C174.608,105.174 174.899,104.976 175.295,104.976 C176.076,104.976 176.529,105.434 176.654,106.351 L176.654,130.867 L183.795,130.867 C184.701,130.867 185.188,131.354 185.256,132.328 C185.324,133.302 184.837,133.789 183.795,133.789 L176.654,133.789 L176.654,134.57 C176.654,137.174 177.305,139.388 178.608,141.21 C180.108,143.033 181.868,143.945 183.889,143.945 C184.67,143.945 185.061,144.335 185.061,145.117 C185.061,145.898 184.524,146.289 183.451,146.289 C182.378,146.289 180.376,146.078 177.443,145.656 C174.511,145.234 172.248,145.023 170.654,145.023 C169.061,145.023 166.847,145.234 164.014,145.656 C161.18,146.078 159.05,146.289 157.623,146.289 C156.842,146.289 156.451,145.898 156.451,145.117 C156.451,144.335 156.842,143.945 157.623,143.945 C159.634,143.945 161.389,143.033 162.889,141.21 C164.253,139.325 164.936,137.111 164.936,134.57 L164.936,133.789 L148.248,133.789 C147.394,133.789 146.657,133.562 146.037,133.109 C145.417,132.656 145.108,132.234 145.108,131.843 C145.108,131.453 145.923,130.281 147.553,128.328 C149.183,126.375 151.511,122.614 154.537,117.046 C157.563,111.479 159.076,105.08 159.076,97.8511 C159.076,96.8094 159.535,96.2886 160.451,96.2886 C160.649,96.2886 160.959,96.3537 161.381,96.4839 C161.803,96.6141 162.714,96.825 164.115,97.1167 C165.516,97.4084 166.964,97.5542 168.459,97.5542"/>
<path class="" fill-rule="evenodd" d="M253.877,514.953 L566.915,514.953 L566.915,527.453 L253.877,527.453 L253.877,514.953 "/>
<path class="" fill-rule="evenodd" d="M267.858,40.0169 L580.895,33.7013 L580.895,46.2039 L267.858,52.5194 L267.858,40.0169 "/>
<path class="" d="M1336.62,3448.55 C1335.88,3448.64 1335.33,3448.72 1334.97,3448.82 C1334.61,3448.91 1334.23,3449.12 1333.84,3449.44 C1333.45,3449.75 1333.19,3450.25 1333.04,3450.94 C1332.89,3451.62 1332.82,3452.53 1332.82,3453.68 L1332.82,3474.71 L1332.15,3474.71 L1314.46,3452.71 L1314.46,3468.4 C1314.46,3470.42 1314.7,3471.76 1315.18,3472.41 C1315.66,3473.07 1316.67,3473.43 1318.23,3473.51 L1318.23,3474.27 L1308.82,3474.27 L1308.82,3473.51 C1310.48,3473.4 1311.54,3473.04 1312.01,3472.41 C1312.48,3471.79 1312.71,3470.45 1312.71,3468.4 L1312.71,3450.76 C1311.91,3449.82 1311.27,3449.22 1310.8,3448.95 C1310.34,3448.69 1309.67,3448.55 1308.82,3448.55 L1308.82,3447.8 L1315.66,3447.8 L1331.07,3467.15 L1331.07,3453.68 C1331.07,3451.65 1330.82,3450.32 1330.33,3449.69 C1329.83,3449.07 1328.8,3448.69 1327.23,3448.55 L1327.23,3447.8 L1336.62,3447.8 L1336.62,3448.55 M1364.29,3451.35 L1354.05,3474.27 L1353.49,3474.27 L1343.45,3452.27 L1343.45,3468.4 C1343.45,3470.42 1343.69,3471.76 1344.16,3472.41 C1344.64,3473.07 1345.66,3473.43 1347.21,3473.51 L1347.21,3474.27 L1337.8,3474.27 L1337.8,3473.51 C1339.46,3473.4 1340.52,3473.04 1340.99,3472.41 C1341.46,3471.79 1341.7,3470.45 1341.7,3468.4 L1341.7,3452.16 C1341.7,3450.69 1341.47,3449.75 1341.03,3449.33 C1340.59,3448.92 1339.54,3448.66 1337.9,3448.55 L1337.9,3447.8 L1345.8,3447.8 L1355.05,3467.99 L1363.88,3447.8 L1371.85,3447.8 L1371.85,3448.55 C1370.35,3448.69 1369.4,3448.97 1368.98,3449.4 C1368.57,3449.82 1368.37,3450.75 1368.37,3452.16 L1368.37,3469.91 C1368.37,3471.33 1368.58,3472.26 1369.01,3472.69 C1369.44,3473.13 1370.38,3473.4 1371.85,3473.51 L1371.85,3474.27 L1360.65,3474.27 L1360.65,3473.51 C1362.22,3473.4 1363.22,3473.12 1363.65,3472.65 C1364.08,3472.19 1364.29,3471.13 1364.29,3469.47 L1364.29,3451.35 M1373.68,3455.19 C1373.82,3454.58 1373.95,3454.05 1374.09,3453.59 C1374.22,3453.14 1374.51,3452.48 1374.95,3451.62 C1375.38,3450.75 1375.88,3450.03 1376.42,3449.46 C1376.97,3448.89 1377.73,3448.37 1378.7,3447.92 C1379.68,3447.47 1380.78,3447.24 1382.01,3447.24 C1384.08,3447.24 1385.83,3447.92 1387.26,3449.28 C1388.69,3450.64 1389.4,3452.32 1389.4,3454.32 C1389.4,3457.33 1387.7,3460.62 1384.29,3464.19 L1377.57,3471.22 L1387.12,3471.22 C1388.02,3471.22 1388.7,3471.07 1389.14,3470.77 C1389.58,3470.47 1390.18,3469.75 1390.93,3468.6 L1391.45,3468.79 L1389.24,3474.27 L1373.65,3474.27 L1373.65,3473.79 L1380.76,3466.24 C1384.23,3462.55 1385.96,3459.08 1385.96,3455.83 C1385.96,3454.16 1385.44,3452.8 1384.4,3451.76 C1383.36,3450.71 1382,3450.19 1380.32,3450.19 C1378.94,3450.19 1377.82,3450.57 1376.98,3451.33 C1376.15,3452.09 1375.33,3453.45 1374.52,3455.4 L1373.68,3455.19 M1408.98,3470.99 C1407.33,3473.55 1405.15,3474.83 1402.43,3474.83 C1399.71,3474.83 1397.52,3473.53 1395.87,3470.91 C1394.21,3468.3 1393.38,3464.94 1393.38,3460.83 C1393.38,3456.97 1394.21,3453.74 1395.87,3451.14 C1397.52,3448.54 1399.76,3447.24 1402.59,3447.24 C1405.2,3447.24 1407.33,3448.52 1408.98,3451.08 C1410.64,3453.63 1411.46,3456.96 1411.46,3461.07 C1411.46,3465.12 1410.64,3468.43 1408.98,3470.99 M1402.46,3448.27 C1398.97,3448.27 1397.23,3452.58 1397.23,3461.19 C1397.23,3469.59 1398.96,3473.79 1402.43,3473.79 C1405.9,3473.79 1407.63,3469.57 1407.63,3461.15 C1407.63,3456.97 1407.19,3453.78 1406.31,3451.58 C1405.43,3449.37 1404.15,3448.27 1402.46,3448.27 M1413.65,3455.19 C1413.78,3454.58 1413.92,3454.05 1414.05,3453.59 C1414.19,3453.14 1414.48,3452.48 1414.91,3451.62 C1415.35,3450.75 1415.84,3450.03 1416.39,3449.46 C1416.94,3448.89 1417.7,3448.37 1418.67,3447.92 C1419.65,3447.47 1420.75,3447.24 1421.98,3447.24 C1424.05,3447.24 1425.8,3447.92 1427.23,3449.28 C1428.65,3450.64 1429.37,3452.32 1429.37,3454.32 C1429.37,3457.33 1427.66,3460.62 1424.26,3464.19 L1417.54,3471.22 L1427.09,3471.22 C1427.99,3471.22 1428.67,3471.07 1429.11,3470.77 C1429.55,3470.47 1430.15,3469.75 1430.9,3468.6 L1431.41,3468.79 L1429.21,3474.27 L1413.62,3474.27 L1413.62,3473.79 L1420.73,3466.24 C1424.2,3462.55 1425.93,3459.08 1425.93,3455.83 C1425.93,3454.16 1425.41,3452.8 1424.37,3451.76 C1423.33,3450.71 1421.97,3450.19 1420.29,3450.19 C1418.9,3450.19 1417.79,3450.57 1416.95,3451.33 C1416.11,3452.09 1415.29,3453.45 1414.49,3455.4 L1413.65,3455.19 M1433.63,3455.19 C1433.77,3454.58 1433.9,3454.05 1434.04,3453.59 C1434.17,3453.14 1434.46,3452.48 1434.9,3451.62 C1435.34,3450.75 1435.83,3450.03 1436.38,3449.46 C1436.92,3448.89 1437.68,3448.37 1438.66,3447.92 C1439.63,3447.47 1440.73,3447.24 1441.96,3447.24 C1444.03,3447.24 1445.78,3447.92 1447.21,3449.28 C1448.64,3450.64 1449.35,3452.32 1449.35,3454.32 C1449.35,3457.33 1447.65,3460.62 1444.24,3464.19 L1437.52,3471.22 L1447.07,3471.22 C1447.98,3471.22 1448.65,3471.07 1449.09,3470.77 C1449.54,3470.47 1450.13,3469.75 1450.88,3468.6 L1451.4,3468.79 L1449.2,3474.27 L1433.6,3474.27 L1433.6,3473.79 L1440.71,3466.24 C1444.18,3462.55 1445.91,3459.08 1445.91,3455.83 C1445.91,3454.16 1445.39,3452.8 1444.35,3451.76 C1443.31,3450.71 1441.95,3450.19 1440.27,3450.19 C1438.89,3450.19 1437.78,3450.57 1436.94,3451.33 C1436.1,3452.09 1435.28,3453.45 1434.48,3455.4 L1433.63,3455.19 "/>
</svg>
