<?xml version="1.0" encoding="utf-8" standalone="no"?>
<!DOCTYPE svg PUBLIC "-//W3C//DTD SVG 1.1//EN"
  "http://www.w3.org/Graphics/SVG/1.1/DTD/svg11.dtd">
<svg xmlns:xlink="http://www.w3.org/1999/xlink" width="848.16pt" height="623.52pt" viewBox="0 0 848.16 623.52" xmlns="http://www.w3.org/2000/svg" version="1.1">
 <metadata>
  <rdf:RDF xmlns:dc="http://purl.org/dc/elements/1.1/" xmlns:cc="http://creativecommons.org/ns#" xmlns:rdf="http://www.w3.org/1999/02/22-rdf-syntax-ns#">
   <cc:Work>
    <dc:type rdf:resource="http://purl.org/dc/dcmitype/StillImage"/>
    <dc:date>2026-07-24T10:25:04.576029</dc:date>
    <dc:format>image/svg+xml</dc:format>
    <dc:creator>
     <cc:Agent>
      <dc:title>Matplotlib v3.6.3, https://matplotlib.org/</dc:title>
     </cc:Agent>
    </dc:creator>
   </cc:Work>
  </rdf:RDF>
 </metadata>
 <defs>
  <style type="text/css">*{stroke-linejoin: round; stroke-linecap: butt}</style>
 </defs>
 <g id="figure_1">
  <g id="patch_1">
   <path d="M 0 623.52 
L 848.16 623.52 
L 848.16 0 
L 0 0 
z
" style="fill: #ffffff"/>
  </g>
  <g id="axes_1">
   <g id="patch_2">
    <path d="M 106.02 554.9328 
L 763.344 554.9328 
L 763.344 74.8224 
L 106.02 74.8224 
z
" style="fill: #ffffff"/>
   </g>
   <g id="matplotlib.axis_1">
    <g id="xtick_1">
     <g id="line2d_1">
      <defs>
       <path id="m94a4d9f9ca" d="M 0 0 
L 0 3.5 
" style="stroke: #000000; stroke-width: 0.8"/>
      </defs>
      <g>
       <use xlink:href="#m94a4d9f9ca" x="176.852179" y="554.9328" style="stroke: #000000; stroke-width: 0.8"/>
      </g>
     </g>
     <g id="text_1">
      <!-- −6 -->
      <g transform="translate(169.481085 569.531237) scale(0.1 -0.1)">
       <defs>
        <path id="DejaVuSans-2212" d="M 678 2272 
L 4684 2272 
L 4684 1741 
L 678 1741 
L 678 2272 
z
" transform="scale(0.015625)"/>
        <path id="DejaVuSans-36" d="M 2113 2584 
Q 1688 2584 1439 2293 
Q 1191 2003 1191 1497 
Q 1191 994 1439 701 
Q 1688 409 2113 409 
Q 2538 409 2786 701 
Q 3034 994 3034 1497 
Q 3034 2003 2786 2293 
Q 2538 2584 2113 2584 
z
M 3366 4563 
L 3366 3988 
Q 3128 4100 2886 4159 
Q 2644 4219 2406 4219 
Q 1781 4219 1451 3797 
Q 1122 3375 1075 2522 
Q 1259 2794 1537 2939 
Q 1816 3084 2150 3084 
Q 2853 3084 3261 2657 
Q 3669 2231 3669 1497 
Q 3669 778 3244 343 
Q 2819 -91 2113 -91 
Q 1303 -91 875 529 
Q 447 1150 447 2328 
Q 447 3434 972 4092 
Q 1497 4750 2381 4750 
Q 2619 4750 2861 4703 
Q 3103 4656 3366 4563 
z
" transform="scale(0.015625)"/>
       </defs>
       <use xlink:href="#DejaVuSans-2212"/>
       <use xlink:href="#DejaVuSans-36" x="83.789062"/>
      </g>
     </g>
    </g>
    <g id="xtick_2">
     <g id="line2d_2">
      <g>
       <use xlink:href="#m94a4d9f9ca" x="268.674369" y="554.9328" style="stroke: #000000; stroke-width: 0.8"/>
      </g>
     </g>
     <g id="text_2">
      <!-- −4 -->
      <g transform="translate(261.303275 569.531237) scale(0.1 -0.1)">
       <defs>
        <path id="DejaVuSans-34" d="M 2419 4116 
L 825 1625 
L 2419 1625 
L 2419 4116 
z
M 2253 4666 
L 3047 4666 
L 3047 1625 
L 3713 1625 
L 3713 1100 
L 3047 1100 
L 3047 0 
L 2419 0 
L 2419 1100 
L 313 1100 
L 313 1709 
L 2253 4666 
z
" transform="scale(0.015625)"/>
       </defs>
       <use xlink:href="#DejaVuSans-2212"/>
       <use xlink:href="#DejaVuSans-34" x="83.789062"/>
      </g>
     </g>
    </g>
    <g id="xtick_3">
     <g id="line2d_3">
      <g>
       <use xlink:href="#m94a4d9f9ca" x="360.496558" y="554.9328" style="stroke: #000000; stroke-width: 0.8"/>
      </g>
     </g>
     <g id="text_3">
      <!-- −2 -->
      <g transform="translate(353.125464 569.531237) scale(0.1 -0.1)">
       <defs>
        <path id="DejaVuSans-32" d="M 1228 531 
L 3431 531 
L 3431 0 
L 469 0 
L 469 531 
Q 828 903 1448 1529 
Q 2069 2156 2228 2338 
Q 2531 2678 2651 2914 
Q 2772 3150 2772 3378 
Q 2772 3750 2511 3984 
Q 2250 4219 1831 4219 
Q 1534 4219 1204 4116 
Q 875 4013 500 3803 
L 500 4441 
Q 881 4594 1212 4672 
Q 1544 4750 1819 4750 
Q 2544 4750 2975 4387 
Q 3406 4025 3406 3419 
Q 3406 3131 3298 2873 
Q 3191 2616 2906 2266 
Q 2828 2175 2409 1742 
Q 1991 1309 1228 531 
z
" transform="scale(0.015625)"/>
       </defs>
       <use xlink:href="#DejaVuSans-2212"/>
       <use xlink:href="#DejaVuSans-32" x="83.789062"/>
      </g>
     </g>
    </g>
    <g id="xtick_4">
     <g id="line2d_4">
      <g>
       <use xlink:href="#m94a4d9f9ca" x="452.318747" y="554.9328" style="stroke: #000000; stroke-width: 0.8"/>
      </g>
     </g>
     <g id="text_4">
      <!-- 0 -->
      <g transform="translate(449.137497 569.531237) scale(0.1 -0.1)">
       <defs>
        <path id="DejaVuSans-30" d="M 2034 4250 
Q 1547 4250 1301 3770 
Q 1056 3291 1056 2328 
Q 1056 1369 1301 889 
Q 1547 409 2034 409 
Q 2525 409 2770 889 
Q 3016 1369 3016 2328 
Q 3016 3291 2770 3770 
Q 2525 4250 2034 4250 
z
M 2034 4750 
Q 2819 4750 3233 4129 
Q 3647 3509 3647 2328 
Q 3647 1150 3233 529 
Q 2819 -91 2034 -91 
Q 1250 -91 836 529 
Q 422 1150 422 2328 
Q 422 3509 836 4129 
Q 1250 4750 2034 4750 
z
" transform="scale(0.015625)"/>
       </defs>
       <use xlink:href="#DejaVuSans-30"/>
      </g>
     </g>
    </g>
    <g id="xtick_5">
     <g id="line2d_5">
      <g>
       <use xlink:href="#m94a4d9f9ca" x="544.140937" y="554.9328" style="stroke: #000000; stroke-width: 0.8"/>
      </g>
     </g>
     <g id="text_5">
      <!-- 2 -->
      <g transform="translate(540.959687 569.531237) scale(0.1 -0.1)">
       <use xlink:href="#DejaVuSans-32"/>
      </g>
     </g>
    </g>
    <g id="xtick_6">
     <g id="line2d_6">
      <g>
       <use xlink:href="#m94a4d9f9ca" x="635.963126" y="554.9328" style="stroke: #000000; stroke-width: 0.8"/>
      </g>
     </g>
     <g id="text_6">
      <!-- 4 -->
      <g transform="translate(632.781876 569.531237) scale(0.1 -0.1)">
       <use xlink:href="#DejaVuSans-34"/>
      </g>
     </g>
    </g>
    <g id="xtick_7">
     <g id="line2d_7">
      <g>
       <use xlink:href="#m94a4d9f9ca" x="727.785316" y="554.9328" style="stroke: #000000; stroke-width: 0.8"/>
      </g>
     </g>
     <g id="text_7">
      <!-- 6 -->
      <g transform="translate(724.604066 569.531237) scale(0.1 -0.1)">
       <use xlink:href="#DejaVuSans-36"/>
      </g>
     </g>
    </g>
   </g>
   <g id="matplotlib.axis_2">
    <g id="ytick_1">
     <g id="line2d_8">
      <defs>
       <path id="m660b4bc4ba" d="M 0 0 
L -3.5 0 
" style="stroke: #000000; stroke-width: 0.8"/>
      </defs>
      <g>
       <use xlink:href="#m660b4bc4ba" x="106.02" y="533.1096" style="stroke: #000000; stroke-width: 0.8"/>
      </g>
     </g>
     <g id="text_8">
      <!-- 0 -->
      <g transform="translate(92.6575 536.908819) scale(0.1 -0.1)">
       <use xlink:href="#DejaVuSans-30"/>
      </g>
     </g>
    </g>
    <g id="ytick_2">
     <g id="line2d_9">
      <g>
       <use xlink:href="#m660b4bc4ba" x="106.02" y="436.1176" style="stroke: #000000; stroke-width: 0.8"/>
      </g>
     </g>
     <g id="text_9">
      <!-- 20 -->
      <g transform="translate(86.295 439.916819) scale(0.1 -0.1)">
       <use xlink:href="#DejaVuSans-32"/>
       <use xlink:href="#DejaVuSans-30" x="63.623047"/>
      </g>
     </g>
    </g>
    <g id="ytick_3">
     <g id="line2d_10">
      <g>
       <use xlink:href="#m660b4bc4ba" x="106.02" y="339.1256" style="stroke: #000000; stroke-width: 0.8"/>
      </g>
     </g>
     <g id="text_10">
      <!-- 40 -->
      <g transform="translate(86.295 342.924819) scale(0.1 -0.1)">
       <use xlink:href="#DejaVuSans-34"/>
       <use xlink:href="#DejaVuSans-30" x="63.623047"/>
      </g>
     </g>
    </g>
    <g id="ytick_4">
     <g id="line2d_11">
      <g>
       <use xlink:href="#m660b4bc4ba" x="106.02" y="242.1336" style="stroke: #000000; stroke-width: 0.8"/>
      </g>
     </g>
     <g id="text_11">
      <!-- 60 -->
      <g transform="translate(86.295 245.932819) scale(0.1 -0.1)">
       <use xlink:href="#DejaVuSans-36"/>
       <use xlink:href="#DejaVuSans-30" x="63.623047"/>
      </g>
     </g>
    </g>
    <g id="ytick_5">
     <g id="line2d_12">
      <g>
       <use xlink:href="#m660b4bc4ba" x="106.02" y="145.1416" style="stroke: #000000; stroke-width: 0.8"/>
      </g>
     </g>
     <g id="text_12">
      <!-- 80 -->
      <g transform="translate(86.295 148.940819) scale(0.1 -0.1)">
       <defs>
        <path id="DejaVuSans-38" d="M 2034 2216 
Q 1584 2216 1326 1975 
Q 1069 1734 1069 1313 
Q 1069 891 1326 650 
Q 1584 409 2034 409 
Q 2484 409 2743 651 
Q 3003 894 3003 1313 
Q 3003 1734 2745 1975 
Q 2488 2216 2034 2216 
z
M 1403 2484 
Q 997 2584 770 2862 
Q 544 3141 544 3541 
Q 544 4100 942 4425 
Q 1341 4750 2034 4750 
Q 2731 4750 3128 4425 
Q 3525 4100 3525 3541 
Q 3525 3141 3298 2862 
Q 3072 2584 2669 2484 
Q 3125 2378 3379 2068 
Q 3634 1759 3634 1313 
Q 3634 634 3220 271 
Q 2806 -91 2034 -91 
Q 1263 -91 848 271 
Q 434 634 434 1313 
Q 434 1759 690 2068 
Q 947 2378 1403 2484 
z
M 1172 3481 
Q 1172 3119 1398 2916 
Q 1625 2713 2034 2713 
Q 2441 2713 2670 2916 
Q 2900 3119 2900 3481 
Q 2900 3844 2670 4047 
Q 2441 4250 2034 4250 
Q 1625 4250 1398 4047 
Q 1172 3844 1172 3481 
z
" transform="scale(0.015625)"/>
       </defs>
       <use xlink:href="#DejaVuSans-38"/>
       <use xlink:href="#DejaVuSans-30" x="63.623047"/>
      </g>
     </g>
    </g>
   </g>
   <g id="line2d_13">
    <path d="M 135.898364 533.1096 
L 148.6454 508.8616 
L 161.951489 484.6136 
L 175.897353 460.3656 
L 190.585238 436.1176 
L 206.147927 411.8696 
L 222.763274 387.6216 
L 240.679058 363.3736 
L 253.517876 339.1256 
L 282.075852 314.8776 
L 298.328254 290.6296 
L 349.658419 266.3816 
L 363.412295 242.1336 
L 400.988583 217.8856 
L 452.318747 181.5136 
L 503.648912 169.3896 
L 541.2252 157.2656 
L 578.051459 145.1416 
L 606.30924 139.0796 
L 651.119619 120.8936 
L 693.078559 108.7696 
L 733.465636 96.6456 
" clip-path="url(#p4992df66f5)" style="fill: none; stroke-dasharray: 1.5,2.475; stroke-dashoffset: 0; stroke: #1f77b4; stroke-width: 1.5"/>
    <defs>
     <path id="m9100724b03" d="M 0 3 
C 0.795609 3 1.55874 2.683901 2.12132 2.12132 
C 2.683901 1.55874 3 0.795609 3 0 
C 3 -0.795609 2.683901 -1.55874 2.12132 -2.12132 
C 1.55874 -2.683901 0.795609 -3 0 -3 
C -0.795609 -3 -1.55874 -2.683901 -2.12132 -2.12132 
C -2.683901 -1.55874 -3 -0.795609 -3 0 
C -3 0.795609 -2.683901 1.55874 -2.12132 2.12132 
C -1.55874 2.683901 -0.795609 3 0 3 
z
" style="stroke: #1f77b4"/>
    </defs>
    <g clip-path="url(#p4992df66f5)">
     <use xlink:href="#m9100724b03" x="135.898364" y="533.1096" style="fill: #1f77b4; stroke: #1f77b4"/>
     <use xlink:href="#m9100724b03" x="148.6454" y="508.8616" style="fill: #1f77b4; stroke: #1f77b4"/>
     <use xlink:href="#m9100724b03" x="161.951489" y="484.6136" style="fill: #1f77b4; stroke: #1f77b4"/>
     <use xlink:href="#m9100724b03" x="175.897353" y="460.3656" style="fill: #1f77b4; stroke: #1f77b4"/>
     <use xlink:href="#m9100724b03" x="190.585238" y="436.1176" style="fill: #1f77b4; stroke: #1f77b4"/>
     <use xlink:href="#m9100724b03" x="206.147927" y="411.8696" style="fill: #1f77b4; stroke: #1f77b4"/>
     <use xlink:href="#m9100724b03" x="222.763274" y="387.6216" style="fill: #1f77b4; stroke: #1f77b4"/>
     <use xlink:href="#m9100724b03" x="240.679058" y="363.3736" style="fill: #1f77b4; stroke: #1f77b4"/>
     <use xlink:href="#m9100724b03" x="253.517876" y="339.1256" style="fill: #1f77b4; stroke: #1f77b4"/>
     <use xlink:href="#m9100724b03" x="282.075852" y="314.8776" style="fill: #1f77b4; stroke: #1f77b4"/>
     <use xlink:href="#m9100724b03" x="298.328254" y="290.6296" style="fill: #1f77b4; stroke: #1f77b4"/>
     <use xlink:href="#m9100724b03" x="349.658419" y="266.3816" style="fill: #1f77b4; stroke: #1f77b4"/>
     <use xlink:href="#m9100724b03" x="363.412295" y="242.1336" style="fill: #1f77b4; stroke: #1f77b4"/>
     <use xlink:href="#m9100724b03" x="400.988583" y="217.8856" style="fill: #1f77b4; stroke: #1f77b4"/>
     <use xlink:href="#m9100724b03" x="452.318747" y="181.5136" style="fill: #1f77b4; stroke: #1f77b4"/>
     <use xlink:href="#m9100724b03" x="503.648912" y="169.3896" style="fill: #1f77b4; stroke: #1f77b4"/>
     <use xlink:href="#m9100724b03" x="541.2252" y="157.2656" style="fill: #1f77b4; stroke: #1f77b4"/>
     <use xlink:href="#m9100724b03" x="578.051459" y="145.1416" style="fill: #1f77b4; stroke: #1f77b4"/>
     <use xlink:href="#m9100724b03" x="606.30924" y="139.0796" style="fill: #1f77b4; stroke: #1f77b4"/>
     <use xlink:href="#m9100724b03" x="651.119619" y="120.8936" style="fill: #1f77b4; stroke: #1f77b4"/>
     <use xlink:href="#m9100724b03" x="693.078559" y="108.7696" style="fill: #1f77b4; stroke: #1f77b4"/>
     <use xlink:href="#m9100724b03" x="733.465636" y="96.6456" style="fill: #1f77b4; stroke: #1f77b4"/>
    </g>
   </g>
   <g id="line2d_14">
    <path d="M 176.852179 337.9132 
L 185.575287 327.031183 
L 194.298395 316.499306 
L 203.021503 306.317571 
L 211.744611 296.485977 
L 220.008608 287.494819 
L 228.272605 278.817914 
L 236.536602 270.455264 
L 244.800599 262.406868 
L 253.064596 254.672726 
L 261.328593 247.252838 
L 269.13348 240.533717 
L 276.938366 234.094903 
L 284.743252 227.936396 
L 292.548138 222.058196 
L 300.353024 216.460303 
L 308.15791 211.142716 
L 315.962796 206.105437 
L 323.308571 201.620527 
L 330.654347 197.383916 
L 338.000122 193.395605 
L 345.345897 189.655593 
L 352.691672 186.163881 
L 360.037447 182.920469 
L 367.383222 179.925356 
L 374.728997 177.178543 
L 382.074773 174.680029 
L 389.420548 172.429814 
L 396.307212 170.545745 
L 403.193876 168.879907 
L 410.08054 167.432301 
L 416.967205 166.202928 
L 423.853869 165.191786 
L 430.740533 164.398877 
L 437.627197 163.824199 
L 444.513861 163.467753 
L 451.400526 163.32954 
L 458.28719 163.409558 
L 465.173854 163.707809 
L 472.060518 164.224291 
L 478.947182 164.959005 
L 485.833847 165.911952 
L 492.720511 167.08313 
L 499.607175 168.472541 
L 506.493839 170.080183 
L 513.380503 171.906057 
L 520.267168 173.950164 
L 527.612943 176.371084 
L 534.958718 179.040304 
L 542.304493 181.957823 
L 549.650268 185.123642 
L 556.996043 188.537761 
L 564.341819 192.200179 
L 571.687594 196.110896 
L 579.033369 200.269913 
L 586.379144 204.677229 
L 593.724919 209.332845 
L 601.529805 214.5515 
L 609.334691 220.050461 
L 617.139577 225.82973 
L 624.944464 231.889305 
L 632.74935 238.229187 
L 640.554236 244.849376 
L 648.359122 251.749872 
L 656.623119 259.361804 
L 664.887116 267.28799 
L 673.151113 275.528431 
L 681.41511 284.083125 
L 689.679107 292.952073 
L 697.943104 302.135276 
L 706.666212 312.169583 
L 715.38932 322.554032 
L 724.112428 333.288621 
L 727.326205 337.331733 
L 727.326205 337.331733 
" clip-path="url(#p4992df66f5)" style="fill: none; stroke: #ff7f0e; stroke-width: 1.5; stroke-linecap: square"/>
   </g>
   <g id="line2d_15">
    <path d="M 176.852179 458.090086 
L 185.116176 444.385163 
L 193.380173 431.120849 
L 201.64417 418.288417 
L 209.908167 405.87914 
L 218.172164 393.88429 
L 226.436162 382.295141 
L 234.700159 371.102964 
L 242.964156 360.299034 
L 251.228153 349.874622 
L 259.49215 339.821002 
L 267.756147 330.129447 
L 276.020144 320.791228 
L 284.284141 311.79762 
L 292.548138 303.139895 
L 300.812135 294.809325 
L 309.076132 286.797184 
L 317.340129 279.094744 
L 325.604126 271.693279 
L 333.868123 264.58406 
L 342.13212 257.758361 
L 350.396117 251.207455 
L 359.119225 244.581083 
L 367.842333 238.240896 
L 376.565441 232.176631 
L 385.288549 226.378024 
L 394.470768 220.549941 
L 403.652987 214.992872 
L 412.835206 209.694845 
L 422.476536 204.39761 
L 432.117866 199.358912 
L 441.759196 194.564892 
L 451.859637 189.789918 
L 462.419188 185.051465 
L 472.97874 180.554268 
L 483.997403 176.099066 
L 495.475176 171.694184 
L 507.871172 167.18073 
L 520.726279 162.736822 
L 534.958718 158.058683 
L 550.56849 153.168853 
L 568.932928 147.661428 
L 593.265808 140.616466 
L 640.095125 127.098849 
L 658.459563 121.536171 
L 674.069335 116.581554 
L 688.301774 111.830071 
L 701.156881 107.308215 
L 713.552876 102.709077 
L 725.03065 98.21565 
L 727.326205 97.287721 
L 727.326205 97.287721 
" clip-path="url(#p4992df66f5)" style="fill: none; stroke: #2ca02c; stroke-width: 1.5; stroke-linecap: square"/>
   </g>
   <g id="patch_3">
    <path d="M 106.02 554.9328 
L 106.02 74.8224 
" style="fill: none; stroke: #000000; stroke-width: 0.8; stroke-linejoin: miter; stroke-linecap: square"/>
   </g>
   <g id="patch_4">
    <path d="M 763.344 554.9328 
L 763.344 74.8224 
" style="fill: none; stroke: #000000; stroke-width: 0.8; stroke-linejoin: miter; stroke-linecap: square"/>
   </g>
   <g id="patch_5">
    <path d="M 106.02 554.9328 
L 763.344 554.9328 
" style="fill: none; stroke: #000000; stroke-width: 0.8; stroke-linejoin: miter; stroke-linecap: square"/>
   </g>
   <g id="patch_6">
    <path d="M 106.02 74.8224 
L 763.344 74.8224 
" style="fill: none; stroke: #000000; stroke-width: 0.8; stroke-linejoin: miter; stroke-linecap: square"/>
   </g>
   <g id="legend_1">
    <g id="patch_7">
     <path d="M 113.02 126.856775 
L 314.421562 126.856775 
Q 316.421562 126.856775 316.421562 124.856775 
L 316.421562 81.8224 
Q 316.421562 79.8224 314.421562 79.8224 
L 113.02 79.8224 
Q 111.02 79.8224 111.02 81.8224 
L 111.02 124.856775 
Q 111.02 126.856775 113.02 126.856775 
z
" style="fill: #ffffff; opacity: 0.8; stroke: #cccccc; stroke-linejoin: miter"/>
    </g>
    <g id="line2d_16">
     <path d="M 115.02 87.920838 
L 125.02 87.920838 
L 135.02 87.920838 
" style="fill: none; stroke-dasharray: 1.5,2.475; stroke-dashoffset: 0; stroke: #1f77b4; stroke-width: 1.5"/>
     <g>
      <use xlink:href="#m9100724b03" x="125.02" y="87.920838" style="fill: #1f77b4; stroke: #1f77b4"/>
     </g>
    </g>
    <g id="text_13">
     <!-- measured -->
     <g transform="translate(143.02 91.420838) scale(0.1 -0.1)">
      <defs>
       <path id="DejaVuSans-6d" d="M 3328 2828 
Q 3544 3216 3844 3400 
Q 4144 3584 4550 3584 
Q 5097 3584 5394 3201 
Q 5691 2819 5691 2113 
L 5691 0 
L 5113 0 
L 5113 2094 
Q 5113 2597 4934 2840 
Q 4756 3084 4391 3084 
Q 3944 3084 3684 2787 
Q 3425 2491 3425 1978 
L 3425 0 
L 2847 0 
L 2847 2094 
Q 2847 2600 2669 2842 
Q 2491 3084 2119 3084 
Q 1678 3084 1418 2786 
Q 1159 2488 1159 1978 
L 1159 0 
L 581 0 
L 581 3500 
L 1159 3500 
L 1159 2956 
Q 1356 3278 1631 3431 
Q 1906 3584 2284 3584 
Q 2666 3584 2933 3390 
Q 3200 3197 3328 2828 
z
" transform="scale(0.015625)"/>
       <path id="DejaVuSans-65" d="M 3597 1894 
L 3597 1613 
L 953 1613 
Q 991 1019 1311 708 
Q 1631 397 2203 397 
Q 2534 397 2845 478 
Q 3156 559 3463 722 
L 3463 178 
Q 3153 47 2828 -22 
Q 2503 -91 2169 -91 
Q 1331 -91 842 396 
Q 353 884 353 1716 
Q 353 2575 817 3079 
Q 1281 3584 2069 3584 
Q 2775 3584 3186 3129 
Q 3597 2675 3597 1894 
z
M 3022 2063 
Q 3016 2534 2758 2815 
Q 2500 3097 2075 3097 
Q 1594 3097 1305 2825 
Q 1016 2553 972 2059 
L 3022 2063 
z
" transform="scale(0.015625)"/>
       <path id="DejaVuSans-61" d="M 2194 1759 
Q 1497 1759 1228 1600 
Q 959 1441 959 1056 
Q 959 750 1161 570 
Q 1363 391 1709 391 
Q 2188 391 2477 730 
Q 2766 1069 2766 1631 
L 2766 1759 
L 2194 1759 
z
M 3341 1997 
L 3341 0 
L 2766 0 
L 2766 531 
Q 2569 213 2275 61 
Q 1981 -91 1556 -91 
Q 1019 -91 701 211 
Q 384 513 384 1019 
Q 384 1609 779 1909 
Q 1175 2209 1959 2209 
L 2766 2209 
L 2766 2266 
Q 2766 2663 2505 2880 
Q 2244 3097 1772 3097 
Q 1472 3097 1187 3025 
Q 903 2953 641 2809 
L 641 3341 
Q 956 3463 1253 3523 
Q 1550 3584 1831 3584 
Q 2591 3584 2966 3190 
Q 3341 2797 3341 1997 
z
" transform="scale(0.015625)"/>
       <path id="DejaVuSans-73" d="M 2834 3397 
L 2834 2853 
Q 2591 2978 2328 3040 
Q 2066 3103 1784 3103 
Q 1356 3103 1142 2972 
Q 928 2841 928 2578 
Q 928 2378 1081 2264 
Q 1234 2150 1697 2047 
L 1894 2003 
Q 2506 1872 2764 1633 
Q 3022 1394 3022 966 
Q 3022 478 2636 193 
Q 2250 -91 1575 -91 
Q 1294 -91 989 -36 
Q 684 19 347 128 
L 347 722 
Q 666 556 975 473 
Q 1284 391 1588 391 
Q 1994 391 2212 530 
Q 2431 669 2431 922 
Q 2431 1156 2273 1281 
Q 2116 1406 1581 1522 
L 1381 1569 
Q 847 1681 609 1914 
Q 372 2147 372 2553 
Q 372 3047 722 3315 
Q 1072 3584 1716 3584 
Q 2034 3584 2315 3537 
Q 2597 3491 2834 3397 
z
" transform="scale(0.015625)"/>
       <path id="DejaVuSans-75" d="M 544 1381 
L 544 3500 
L 1119 3500 
L 1119 1403 
Q 1119 906 1312 657 
Q 1506 409 1894 409 
Q 2359 409 2629 706 
Q 2900 1003 2900 1516 
L 2900 3500 
L 3475 3500 
L 3475 0 
L 2900 0 
L 2900 538 
Q 2691 219 2414 64 
Q 2138 -91 1772 -91 
Q 1169 -91 856 284 
Q 544 659 544 1381 
z
M 1991 3584 
L 1991 3584 
z
" transform="scale(0.015625)"/>
       <path id="DejaVuSans-72" d="M 2631 2963 
Q 2534 3019 2420 3045 
Q 2306 3072 2169 3072 
Q 1681 3072 1420 2755 
Q 1159 2438 1159 1844 
L 1159 0 
L 581 0 
L 581 3500 
L 1159 3500 
L 1159 2956 
Q 1341 3275 1631 3429 
Q 1922 3584 2338 3584 
Q 2397 3584 2469 3576 
Q 2541 3569 2628 3553 
L 2631 2963 
z
" transform="scale(0.015625)"/>
       <path id="DejaVuSans-64" d="M 2906 2969 
L 2906 4863 
L 3481 4863 
L 3481 0 
L 2906 0 
L 2906 525 
Q 2725 213 2448 61 
Q 2172 -91 1784 -91 
Q 1150 -91 751 415 
Q 353 922 353 1747 
Q 353 2572 751 3078 
Q 1150 3584 1784 3584 
Q 2172 3584 2448 3432 
Q 2725 3281 2906 2969 
z
M 947 1747 
Q 947 1113 1208 752 
Q 1469 391 1925 391 
Q 2381 391 2643 752 
Q 2906 1113 2906 1747 
Q 2906 2381 2643 2742 
Q 2381 3103 1925 3103 
Q 1469 3103 1208 2742 
Q 947 2381 947 1747 
z
" transform="scale(0.015625)"/>
      </defs>
      <use xlink:href="#DejaVuSans-6d"/>
      <use xlink:href="#DejaVuSans-65" x="97.412109"/>
      <use xlink:href="#DejaVuSans-61" x="158.935547"/>
      <use xlink:href="#DejaVuSans-73" x="220.214844"/>
      <use xlink:href="#DejaVuSans-75" x="272.314453"/>
      <use xlink:href="#DejaVuSans-72" x="335.693359"/>
      <use xlink:href="#DejaVuSans-65" x="374.556641"/>
      <use xlink:href="#DejaVuSans-64" x="436.080078"/>
     </g>
    </g>
    <g id="line2d_17">
     <path d="M 115.02 102.598963 
L 125.02 102.598963 
L 135.02 102.598963 
" style="fill: none; stroke: #ff7f0e; stroke-width: 1.5; stroke-linecap: square"/>
    </g>
    <g id="text_14">
     <!-- -t² + 76.25 -->
     <g transform="translate(143.02 106.098963) scale(0.1 -0.1)">
      <defs>
       <path id="DejaVuSans-2d" d="M 313 2009 
L 1997 2009 
L 1997 1497 
L 313 1497 
L 313 2009 
z
" transform="scale(0.015625)"/>
       <path id="DejaVuSans-74" d="M 1172 4494 
L 1172 3500 
L 2356 3500 
L 2356 3053 
L 1172 3053 
L 1172 1153 
Q 1172 725 1289 603 
Q 1406 481 1766 481 
L 2356 481 
L 2356 0 
L 1766 0 
Q 1100 0 847 248 
Q 594 497 594 1153 
L 594 3053 
L 172 3053 
L 172 3500 
L 594 3500 
L 594 4494 
L 1172 4494 
z
" transform="scale(0.015625)"/>
       <path id="DejaVuSans-b2" d="M 838 2444 
L 2163 2444 
L 2163 2088 
L 294 2088 
L 294 2431 
Q 400 2528 597 2703 
Q 1672 3656 1672 3950 
Q 1672 4156 1509 4282 
Q 1347 4409 1081 4409 
Q 919 4409 728 4354 
Q 538 4300 313 4191 
L 313 4575 
Q 553 4663 761 4706 
Q 969 4750 1147 4750 
Q 1600 4750 1872 4544 
Q 2144 4338 2144 4000 
Q 2144 3566 1109 2678 
Q 934 2528 838 2444 
z
" transform="scale(0.015625)"/>
       <path id="DejaVuSans-20" transform="scale(0.015625)"/>
       <path id="DejaVuSans-2b" d="M 2944 4013 
L 2944 2272 
L 4684 2272 
L 4684 1741 
L 2944 1741 
L 2944 0 
L 2419 0 
L 2419 1741 
L 678 1741 
L 678 2272 
L 2419 2272 
L 2419 4013 
L 2944 4013 
z
" transform="scale(0.015625)"/>
       <path id="DejaVuSans-37" d="M 525 4666 
L 3525 4666 
L 3525 4397 
L 1831 0 
L 1172 0 
L 2766 4134 
L 525 4134 
L 525 4666 
z
" transform="scale(0.015625)"/>
       <path id="DejaVuSans-2e" d="M 684 794 
L 1344 794 
L 1344 0 
L 684 0 
L 684 794 
z
" transform="scale(0.015625)"/>
       <path id="DejaVuSans-35" d="M 691 4666 
L 3169 4666 
L 3169 4134 
L 1269 4134 
L 1269 2991 
Q 1406 3038 1543 3061 
Q 1681 3084 1819 3084 
Q 2600 3084 3056 2656 
Q 3513 2228 3513 1497 
Q 3513 744 3044 326 
Q 2575 -91 1722 -91 
Q 1428 -91 1123 -41 
Q 819 9 494 109 
L 494 744 
Q 775 591 1075 516 
Q 1375 441 1709 441 
Q 2250 441 2565 725 
Q 2881 1009 2881 1497 
Q 2881 1984 2565 2268 
Q 2250 2553 1709 2553 
Q 1456 2553 1204 2497 
Q 953 2441 691 2322 
L 691 4666 
z
" transform="scale(0.015625)"/>
      </defs>
      <use xlink:href="#DejaVuSans-2d"/>
      <use xlink:href="#DejaVuSans-74" x="36.083984"/>
      <use xlink:href="#DejaVuSans-b2" x="75.292969"/>
      <use xlink:href="#DejaVuSans-20" x="115.380859"/>
      <use xlink:href="#DejaVuSans-2b" x="147.167969"/>
      <use xlink:href="#DejaVuSans-20" x="230.957031"/>
      <use xlink:href="#DejaVuSans-37" x="262.744141"/>
      <use xlink:href="#DejaVuSans-36" x="326.367188"/>
      <use xlink:href="#DejaVuSans-2e" x="389.990234"/>
      <use xlink:href="#DejaVuSans-32" x="421.777344"/>
      <use xlink:href="#DejaVuSans-35" x="485.400391"/>
     </g>
    </g>
    <g id="line2d_18">
     <path d="M 115.02 117.277088 
L 125.02 117.277088 
L 135.02 117.277088 
" style="fill: none; stroke: #2ca02c; stroke-width: 1.5; stroke-linecap: square"/>
    </g>
    <g id="text_15">
     <!-- 0.051t³+-0.504t²+4.352t+70.837 -->
     <g transform="translate(143.02 120.777088) scale(0.1 -0.1)">
      <defs>
       <path id="DejaVuSans-31" d="M 794 531 
L 1825 531 
L 1825 4091 
L 703 3866 
L 703 4441 
L 1819 4666 
L 2450 4666 
L 2450 531 
L 3481 531 
L 3481 0 
L 794 0 
L 794 531 
z
" transform="scale(0.015625)"/>
       <path id="DejaVuSans-b3" d="M 1638 3500 
Q 1925 3444 2083 3273 
Q 2241 3103 2241 2847 
Q 2241 2459 1944 2250 
Q 1647 2041 1094 2041 
Q 916 2041 720 2073 
Q 525 2106 306 2169 
L 306 2547 
Q 469 2463 655 2422 
Q 841 2381 1050 2381 
Q 1391 2381 1578 2504 
Q 1766 2628 1766 2847 
Q 1766 3078 1592 3197 
Q 1419 3316 1081 3316 
L 813 3316 
L 813 3653 
L 1106 3653 
Q 1400 3653 1551 3751 
Q 1703 3850 1703 4038 
Q 1703 4219 1547 4314 
Q 1391 4409 1094 4409 
Q 969 4409 809 4381 
Q 650 4353 397 4281 
L 397 4641 
Q 625 4694 825 4722 
Q 1025 4750 1197 4750 
Q 1647 4750 1911 4565 
Q 2175 4381 2175 4072 
Q 2175 3856 2034 3706 
Q 1894 3556 1638 3500 
z
" transform="scale(0.015625)"/>
       <path id="DejaVuSans-33" d="M 2597 2516 
Q 3050 2419 3304 2112 
Q 3559 1806 3559 1356 
Q 3559 666 3084 287 
Q 2609 -91 1734 -91 
Q 1441 -91 1130 -33 
Q 819 25 488 141 
L 488 750 
Q 750 597 1062 519 
Q 1375 441 1716 441 
Q 2309 441 2620 675 
Q 2931 909 2931 1356 
Q 2931 1769 2642 2001 
Q 2353 2234 1838 2234 
L 1294 2234 
L 1294 2753 
L 1863 2753 
Q 2328 2753 2575 2939 
Q 2822 3125 2822 3475 
Q 2822 3834 2567 4026 
Q 2313 4219 1838 4219 
Q 1578 4219 1281 4162 
Q 984 4106 628 3988 
L 628 4550 
Q 988 4650 1302 4700 
Q 1616 4750 1894 4750 
Q 2613 4750 3031 4423 
Q 3450 4097 3450 3541 
Q 3450 3153 3228 2886 
Q 3006 2619 2597 2516 
z
" transform="scale(0.015625)"/>
      </defs>
      <use xlink:href="#DejaVuSans-30"/>
      <use xlink:href="#DejaVuSans-2e" x="63.623047"/>
      <use xlink:href="#DejaVuSans-30" x="95.410156"/>
      <use xlink:href="#DejaVuSans-35" x="159.033203"/>
      <use xlink:href="#DejaVuSans-31" x="222.65625"/>
      <use xlink:href="#DejaVuSans-74" x="286.279297"/>
      <use xlink:href="#DejaVuSans-b3" x="325.488281"/>
      <use xlink:href="#DejaVuSans-2b" x="365.576172"/>
      <use xlink:href="#DejaVuSans-2d" x="449.365234"/>
      <use xlink:href="#DejaVuSans-30" x="485.449219"/>
      <use xlink:href="#DejaVuSans-2e" x="549.072266"/>
      <use xlink:href="#DejaVuSans-35" x="580.859375"/>
      <use xlink:href="#DejaVuSans-30" x="644.482422"/>
      <use xlink:href="#DejaVuSans-34" x="708.105469"/>
      <use xlink:href="#DejaVuSans-74" x="771.728516"/>
      <use xlink:href="#DejaVuSans-b2" x="810.9375"/>
      <use xlink:href="#DejaVuSans-2b" x="851.025391"/>
      <use xlink:href="#DejaVuSans-34" x="934.814453"/>
      <use xlink:href="#DejaVuSans-2e" x="998.4375"/>
      <use xlink:href="#DejaVuSans-33" x="1030.224609"/>
      <use xlink:href="#DejaVuSans-35" x="1093.847656"/>
      <use xlink:href="#DejaVuSans-32" x="1157.470703"/>
      <use xlink:href="#DejaVuSans-74" x="1221.09375"/>
      <use xlink:href="#DejaVuSans-2b" x="1260.302734"/>
      <use xlink:href="#DejaVuSans-37" x="1344.091797"/>
      <use xlink:href="#DejaVuSans-30" x="1407.714844"/>
      <use xlink:href="#DejaVuSans-2e" x="1471.337891"/>
      <use xlink:href="#DejaVuSans-38" x="1503.125"/>
      <use xlink:href="#DejaVuSans-33" x="1566.748047"/>
      <use xlink:href="#DejaVuSans-37" x="1630.371094"/>
     </g>
    </g>
   </g>
  </g>
 </g>
 <defs>
  <clipPath id="p4992df66f5">
   <rect x="106.02" y="74.8224" width="657.324" height="480.1104"/>
  </clipPath>
 </defs>
</svg>
