<?xml version="1.0" encoding="utf-8" standalone="no"?>
<!DOCTYPE svg PUBLIC "-//W3C//DTD SVG 1.1//EN"
  "http://www.w3.org/Graphics/SVG/1.1/DTD/svg11.dtd">
<svg xmlns:xlink="http://www.w3.org/1999/xlink" width="848.16pt" height="623.52pt" viewBox="0 0 848.16 623.52" xmlns="http://www.w3.org/2000/svg" version="1.1">
 <metadata>
  <rdf:RDF xmlns:dc="http://purl.org/dc/elements/1.1/" xmlns:cc="http://creativecommons.org/ns#" xmlns:rdf="http://www.w3.org/1999/02/22-rdf-syntax-ns#">
   <cc:Work>
    <dc:type rdf:resource="http://purl.org/dc/dcmitype/StillImage"/>
    <dc:date>2026-07-24T10:24:51.785037</dc:date>
    <dc:format>image/svg+xml</dc:format>
    <dc:creator>
     <cc:Agent>
      <dc:title>Matplotlib v3.6.3, https://matplotlib.org/</dc:title>
     </cc:Agent>
    </dc:creator>
   </cc:Work>
  </rdf:RDF>
 </metadata>
 <defs>
  <style type="text/css">*{stroke-linejoin: round; stroke-linecap: butt}</style>
 </defs>
 <g id="figure_1">
  <g id="patch_1">
   <path d="M 0 623.52 
L 848.16 623.52 
L 848.16 0 
L 0 0 
z
" style="fill: #ffffff"/>
  </g>
  <g id="axes_1">
   <g id="patch_2">
    <path d="M 106.02 554.9328 
L 763.344 554.9328 
L 763.344 74.8224 
L 106.02 74.8224 
z
" style="fill: #ffffff"/>
   </g>
   <g id="matplotlib.axis_1">
    <g id="xtick_1">
     <g id="line2d_1">
      <defs>
       <path id="ma9edbd8b2d" d="M 0 0 
L 0 3.5 
" style="stroke: #000000; stroke-width: 0.8"/>
      </defs>
      <g>
       <use xlink:href="#ma9edbd8b2d" x="135.898364" y="554.9328" style="stroke: #000000; stroke-width: 0.8"/>
      </g>
     </g>
     <g id="text_1">
      <!-- 0 -->
      <g transform="translate(132.717114 569.531237) scale(0.1 -0.1)">
       <defs>
        <path id="DejaVuSans-30" d="M 2034 4250 
Q 1547 4250 1301 3770 
Q 1056 3291 1056 2328 
Q 1056 1369 1301 889 
Q 1547 409 2034 409 
Q 2525 409 2770 889 
Q 3016 1369 3016 2328 
Q 3016 3291 2770 3770 
Q 2525 4250 2034 4250 
z
M 2034 4750 
Q 2819 4750 3233 4129 
Q 3647 3509 3647 2328 
Q 3647 1150 3233 529 
Q 2819 -91 2034 -91 
Q 1250 -91 836 529 
Q 422 1150 422 2328 
Q 422 3509 836 4129 
Q 1250 4750 2034 4750 
z
" transform="scale(0.015625)"/>
       </defs>
       <use xlink:href="#DejaVuSans-30"/>
      </g>
     </g>
    </g>
    <g id="xtick_2">
     <g id="line2d_2">
      <g>
       <use xlink:href="#ma9edbd8b2d" x="268.691091" y="554.9328" style="stroke: #000000; stroke-width: 0.8"/>
      </g>
     </g>
     <g id="text_2">
      <!-- 20 -->
      <g transform="translate(262.328591 569.531237) scale(0.1 -0.1)">
       <defs>
        <path id="DejaVuSans-32" d="M 1228 531 
L 3431 531 
L 3431 0 
L 469 0 
L 469 531 
Q 828 903 1448 1529 
Q 2069 2156 2228 2338 
Q 2531 2678 2651 2914 
Q 2772 3150 2772 3378 
Q 2772 3750 2511 3984 
Q 2250 4219 1831 4219 
Q 1534 4219 1204 4116 
Q 875 4013 500 3803 
L 500 4441 
Q 881 4594 1212 4672 
Q 1544 4750 1819 4750 
Q 2544 4750 2975 4387 
Q 3406 4025 3406 3419 
Q 3406 3131 3298 2873 
Q 3191 2616 2906 2266 
Q 2828 2175 2409 1742 
Q 1991 1309 1228 531 
z
" transform="scale(0.015625)"/>
       </defs>
       <use xlink:href="#DejaVuSans-32"/>
       <use xlink:href="#DejaVuSans-30" x="63.623047"/>
      </g>
     </g>
    </g>
    <g id="xtick_3">
     <g id="line2d_3">
      <g>
       <use xlink:href="#ma9edbd8b2d" x="401.483818" y="554.9328" style="stroke: #000000; stroke-width: 0.8"/>
      </g>
     </g>
     <g id="text_3">
      <!-- 40 -->
      <g transform="translate(395.121318 569.531237) scale(0.1 -0.1)">
       <defs>
        <path id="DejaVuSans-34" d="M 2419 4116 
L 825 1625 
L 2419 1625 
L 2419 4116 
z
M 2253 4666 
L 3047 4666 
L 3047 1625 
L 3713 1625 
L 3713 1100 
L 3047 1100 
L 3047 0 
L 2419 0 
L 2419 1100 
L 313 1100 
L 313 1709 
L 2253 4666 
z
" transform="scale(0.015625)"/>
       </defs>
       <use xlink:href="#DejaVuSans-34"/>
       <use xlink:href="#DejaVuSans-30" x="63.623047"/>
      </g>
     </g>
    </g>
    <g id="xtick_4">
     <g id="line2d_4">
      <g>
       <use xlink:href="#ma9edbd8b2d" x="534.276545" y="554.9328" style="stroke: #000000; stroke-width: 0.8"/>
      </g>
     </g>
     <g id="text_4">
      <!-- 60 -->
      <g transform="translate(527.914045 569.531237) scale(0.1 -0.1)">
       <defs>
        <path id="DejaVuSans-36" d="M 2113 2584 
Q 1688 2584 1439 2293 
Q 1191 2003 1191 1497 
Q 1191 994 1439 701 
Q 1688 409 2113 409 
Q 2538 409 2786 701 
Q 3034 994 3034 1497 
Q 3034 2003 2786 2293 
Q 2538 2584 2113 2584 
z
M 3366 4563 
L 3366 3988 
Q 3128 4100 2886 4159 
Q 2644 4219 2406 4219 
Q 1781 4219 1451 3797 
Q 1122 3375 1075 2522 
Q 1259 2794 1537 2939 
Q 1816 3084 2150 3084 
Q 2853 3084 3261 2657 
Q 3669 2231 3669 1497 
Q 3669 778 3244 343 
Q 2819 -91 2113 -91 
Q 1303 -91 875 529 
Q 447 1150 447 2328 
Q 447 3434 972 4092 
Q 1497 4750 2381 4750 
Q 2619 4750 2861 4703 
Q 3103 4656 3366 4563 
z
" transform="scale(0.015625)"/>
       </defs>
       <use xlink:href="#DejaVuSans-36"/>
       <use xlink:href="#DejaVuSans-30" x="63.623047"/>
      </g>
     </g>
    </g>
    <g id="xtick_5">
     <g id="line2d_5">
      <g>
       <use xlink:href="#ma9edbd8b2d" x="667.069273" y="554.9328" style="stroke: #000000; stroke-width: 0.8"/>
      </g>
     </g>
     <g id="text_5">
      <!-- 80 -->
      <g transform="translate(660.706773 569.531237) scale(0.1 -0.1)">
       <defs>
        <path id="DejaVuSans-38" d="M 2034 2216 
Q 1584 2216 1326 1975 
Q 1069 1734 1069 1313 
Q 1069 891 1326 650 
Q 1584 409 2034 409 
Q 2484 409 2743 651 
Q 3003 894 3003 1313 
Q 3003 1734 2745 1975 
Q 2488 2216 2034 2216 
z
M 1403 2484 
Q 997 2584 770 2862 
Q 544 3141 544 3541 
Q 544 4100 942 4425 
Q 1341 4750 2034 4750 
Q 2731 4750 3128 4425 
Q 3525 4100 3525 3541 
Q 3525 3141 3298 2862 
Q 3072 2584 2669 2484 
Q 3125 2378 3379 2068 
Q 3634 1759 3634 1313 
Q 3634 634 3220 271 
Q 2806 -91 2034 -91 
Q 1263 -91 848 271 
Q 434 634 434 1313 
Q 434 1759 690 2068 
Q 947 2378 1403 2484 
z
M 1172 3481 
Q 1172 3119 1398 2916 
Q 1625 2713 2034 2713 
Q 2441 2713 2670 2916 
Q 2900 3119 2900 3481 
Q 2900 3844 2670 4047 
Q 2441 4250 2034 4250 
Q 1625 4250 1398 4047 
Q 1172 3844 1172 3481 
z
" transform="scale(0.015625)"/>
       </defs>
       <use xlink:href="#DejaVuSans-38"/>
       <use xlink:href="#DejaVuSans-30" x="63.623047"/>
      </g>
     </g>
    </g>
   </g>
   <g id="matplotlib.axis_2">
    <g id="ytick_1">
     <g id="line2d_6">
      <defs>
       <path id="mcae9d8fb2e" d="M 0 0 
L -3.5 0 
" style="stroke: #000000; stroke-width: 0.8"/>
      </defs>
      <g>
       <use xlink:href="#mcae9d8fb2e" x="106.02" y="523.4104" style="stroke: #000000; stroke-width: 0.8"/>
      </g>
     </g>
     <g id="text_6">
      <!-- 30 -->
      <g transform="translate(86.295 527.209619) scale(0.1 -0.1)">
       <defs>
        <path id="DejaVuSans-33" d="M 2597 2516 
Q 3050 2419 3304 2112 
Q 3559 1806 3559 1356 
Q 3559 666 3084 287 
Q 2609 -91 1734 -91 
Q 1441 -91 1130 -33 
Q 819 25 488 141 
L 488 750 
Q 750 597 1062 519 
Q 1375 441 1716 441 
Q 2309 441 2620 675 
Q 2931 909 2931 1356 
Q 2931 1769 2642 2001 
Q 2353 2234 1838 2234 
L 1294 2234 
L 1294 2753 
L 1863 2753 
Q 2328 2753 2575 2939 
Q 2822 3125 2822 3475 
Q 2822 3834 2567 4026 
Q 2313 4219 1838 4219 
Q 1578 4219 1281 4162 
Q 984 4106 628 3988 
L 628 4550 
Q 988 4650 1302 4700 
Q 1616 4750 1894 4750 
Q 2613 4750 3031 4423 
Q 3450 4097 3450 3541 
Q 3450 3153 3228 2886 
Q 3006 2619 2597 2516 
z
" transform="scale(0.015625)"/>
       </defs>
       <use xlink:href="#DejaVuSans-33"/>
       <use xlink:href="#DejaVuSans-30" x="63.623047"/>
      </g>
     </g>
    </g>
    <g id="ytick_2">
     <g id="line2d_7">
      <g>
       <use xlink:href="#mcae9d8fb2e" x="106.02" y="445.8168" style="stroke: #000000; stroke-width: 0.8"/>
      </g>
     </g>
     <g id="text_7">
      <!-- 40 -->
      <g transform="translate(86.295 449.616019) scale(0.1 -0.1)">
       <use xlink:href="#DejaVuSans-34"/>
       <use xlink:href="#DejaVuSans-30" x="63.623047"/>
      </g>
     </g>
    </g>
    <g id="ytick_3">
     <g id="line2d_8">
      <g>
       <use xlink:href="#mcae9d8fb2e" x="106.02" y="368.2232" style="stroke: #000000; stroke-width: 0.8"/>
      </g>
     </g>
     <g id="text_8">
      <!-- 50 -->
      <g transform="translate(86.295 372.022419) scale(0.1 -0.1)">
       <defs>
        <path id="DejaVuSans-35" d="M 691 4666 
L 3169 4666 
L 3169 4134 
L 1269 4134 
L 1269 2991 
Q 1406 3038 1543 3061 
Q 1681 3084 1819 3084 
Q 2600 3084 3056 2656 
Q 3513 2228 3513 1497 
Q 3513 744 3044 326 
Q 2575 -91 1722 -91 
Q 1428 -91 1123 -41 
Q 819 9 494 109 
L 494 744 
Q 775 591 1075 516 
Q 1375 441 1709 441 
Q 2250 441 2565 725 
Q 2881 1009 2881 1497 
Q 2881 1984 2565 2268 
Q 2250 2553 1709 2553 
Q 1456 2553 1204 2497 
Q 953 2441 691 2322 
L 691 4666 
z
" transform="scale(0.015625)"/>
       </defs>
       <use xlink:href="#DejaVuSans-35"/>
       <use xlink:href="#DejaVuSans-30" x="63.623047"/>
      </g>
     </g>
    </g>
    <g id="ytick_4">
     <g id="line2d_9">
      <g>
       <use xlink:href="#mcae9d8fb2e" x="106.02" y="290.6296" style="stroke: #000000; stroke-width: 0.8"/>
      </g>
     </g>
     <g id="text_9">
      <!-- 60 -->
      <g transform="translate(86.295 294.428819) scale(0.1 -0.1)">
       <use xlink:href="#DejaVuSans-36"/>
       <use xlink:href="#DejaVuSans-30" x="63.623047"/>
      </g>
     </g>
    </g>
    <g id="ytick_5">
     <g id="line2d_10">
      <g>
       <use xlink:href="#mcae9d8fb2e" x="106.02" y="213.036" style="stroke: #000000; stroke-width: 0.8"/>
      </g>
     </g>
     <g id="text_10">
      <!-- 70 -->
      <g transform="translate(86.295 216.835219) scale(0.1 -0.1)">
       <defs>
        <path id="DejaVuSans-37" d="M 525 4666 
L 3525 4666 
L 3525 4397 
L 1831 0 
L 1172 0 
L 2766 4134 
L 525 4134 
L 525 4666 
z
" transform="scale(0.015625)"/>
       </defs>
       <use xlink:href="#DejaVuSans-37"/>
       <use xlink:href="#DejaVuSans-30" x="63.623047"/>
      </g>
     </g>
    </g>
    <g id="ytick_6">
     <g id="line2d_11">
      <g>
       <use xlink:href="#mcae9d8fb2e" x="106.02" y="135.4424" style="stroke: #000000; stroke-width: 0.8"/>
      </g>
     </g>
     <g id="text_11">
      <!-- 80 -->
      <g transform="translate(86.295 139.241619) scale(0.1 -0.1)">
       <use xlink:href="#DejaVuSans-38"/>
       <use xlink:href="#DejaVuSans-30" x="63.623047"/>
      </g>
     </g>
    </g>
   </g>
   <g id="line2d_12">
    <path d="M 135.898364 533.1096 
L 169.096545 504.012 
L 202.294727 474.9144 
L 235.492909 445.8168 
L 268.691091 416.7192 
L 301.889273 387.6216 
L 335.087455 358.524 
L 368.285636 329.4264 
L 401.483818 310.028 
L 434.682 271.2312 
L 467.880182 251.8328 
L 501.078364 203.3368 
L 534.276545 193.6376 
L 567.474727 174.2392 
L 617.272 164.54 
L 633.871091 174.2392 
L 650.470182 193.6376 
L 667.069273 222.7352 
L 675.368818 251.8328 
L 700.267455 310.028 
L 716.866545 377.9224 
L 733.465636 455.516 
" clip-path="url(#p88b8696987)" style="fill: none; stroke: #1f77b4; stroke-width: 1.5; stroke-linecap: square"/>
    <defs>
     <path id="m9b8c1eeea3" d="M 0 3 
C 0.795609 3 1.55874 2.683901 2.12132 2.12132 
C 2.683901 1.55874 3 0.795609 3 0 
C 3 -0.795609 2.683901 -1.55874 2.12132 -2.12132 
C 1.55874 -2.683901 0.795609 -3 0 -3 
C -0.795609 -3 -1.55874 -2.683901 -2.12132 -2.12132 
C -2.683901 -1.55874 -3 -0.795609 -3 0 
C -3 0.795609 -2.683901 1.55874 -2.12132 2.12132 
C -1.55874 2.683901 -0.795609 3 0 3 
z
" style="stroke: #1f77b4"/>
    </defs>
    <g clip-path="url(#p88b8696987)">
     <use xlink:href="#m9b8c1eeea3" x="135.898364" y="533.1096" style="fill: #1f77b4; stroke: #1f77b4"/>
     <use xlink:href="#m9b8c1eeea3" x="169.096545" y="504.012" style="fill: #1f77b4; stroke: #1f77b4"/>
     <use xlink:href="#m9b8c1eeea3" x="202.294727" y="474.9144" style="fill: #1f77b4; stroke: #1f77b4"/>
     <use xlink:href="#m9b8c1eeea3" x="235.492909" y="445.8168" style="fill: #1f77b4; stroke: #1f77b4"/>
     <use xlink:href="#m9b8c1eeea3" x="268.691091" y="416.7192" style="fill: #1f77b4; stroke: #1f77b4"/>
     <use xlink:href="#m9b8c1eeea3" x="301.889273" y="387.6216" style="fill: #1f77b4; stroke: #1f77b4"/>
     <use xlink:href="#m9b8c1eeea3" x="335.087455" y="358.524" style="fill: #1f77b4; stroke: #1f77b4"/>
     <use xlink:href="#m9b8c1eeea3" x="368.285636" y="329.4264" style="fill: #1f77b4; stroke: #1f77b4"/>
     <use xlink:href="#m9b8c1eeea3" x="401.483818" y="310.028" style="fill: #1f77b4; stroke: #1f77b4"/>
     <use xlink:href="#m9b8c1eeea3" x="434.682" y="271.2312" style="fill: #1f77b4; stroke: #1f77b4"/>
     <use xlink:href="#m9b8c1eeea3" x="467.880182" y="251.8328" style="fill: #1f77b4; stroke: #1f77b4"/>
     <use xlink:href="#m9b8c1eeea3" x="501.078364" y="203.3368" style="fill: #1f77b4; stroke: #1f77b4"/>
     <use xlink:href="#m9b8c1eeea3" x="534.276545" y="193.6376" style="fill: #1f77b4; stroke: #1f77b4"/>
     <use xlink:href="#m9b8c1eeea3" x="567.474727" y="174.2392" style="fill: #1f77b4; stroke: #1f77b4"/>
     <use xlink:href="#m9b8c1eeea3" x="617.272" y="164.54" style="fill: #1f77b4; stroke: #1f77b4"/>
     <use xlink:href="#m9b8c1eeea3" x="633.871091" y="174.2392" style="fill: #1f77b4; stroke: #1f77b4"/>
     <use xlink:href="#m9b8c1eeea3" x="650.470182" y="193.6376" style="fill: #1f77b4; stroke: #1f77b4"/>
     <use xlink:href="#m9b8c1eeea3" x="667.069273" y="222.7352" style="fill: #1f77b4; stroke: #1f77b4"/>
     <use xlink:href="#m9b8c1eeea3" x="675.368818" y="251.8328" style="fill: #1f77b4; stroke: #1f77b4"/>
     <use xlink:href="#m9b8c1eeea3" x="700.267455" y="310.028" style="fill: #1f77b4; stroke: #1f77b4"/>
     <use xlink:href="#m9b8c1eeea3" x="716.866545" y="377.9224" style="fill: #1f77b4; stroke: #1f77b4"/>
     <use xlink:href="#m9b8c1eeea3" x="733.465636" y="455.516" style="fill: #1f77b4; stroke: #1f77b4"/>
    </g>
   </g>
   <g id="line2d_13">
    <path d="M 135.898364 533.1096 
L 202.294727 465.2152 
L 268.691091 416.7192 
L 335.087455 348.8248 
L 401.483818 290.6296 
L 467.880182 232.4344 
L 534.276545 174.2392 
L 600.672909 135.4424 
L 667.069273 174.2392 
L 700.267455 251.8328 
L 733.465636 368.2232 
" clip-path="url(#p88b8696987)" style="fill: none; stroke: #ff7f0e; stroke-width: 1.5; stroke-linecap: square"/>
    <defs>
     <path id="m2e4081d384" d="M 0 3 
C 0.795609 3 1.55874 2.683901 2.12132 2.12132 
C 2.683901 1.55874 3 0.795609 3 0 
C 3 -0.795609 2.683901 -1.55874 2.12132 -2.12132 
C 1.55874 -2.683901 0.795609 -3 0 -3 
C -0.795609 -3 -1.55874 -2.683901 -2.12132 -2.12132 
C -2.683901 -1.55874 -3 -0.795609 -3 0 
C -3 0.795609 -2.683901 1.55874 -2.12132 2.12132 
C -1.55874 2.683901 -0.795609 3 0 3 
z
" style="stroke: #ff7f0e"/>
    </defs>
    <g clip-path="url(#p88b8696987)">
     <use xlink:href="#m2e4081d384" x="135.898364" y="533.1096" style="fill: #ff7f0e; stroke: #ff7f0e"/>
     <use xlink:href="#m2e4081d384" x="202.294727" y="465.2152" style="fill: #ff7f0e; stroke: #ff7f0e"/>
     <use xlink:href="#m2e4081d384" x="268.691091" y="416.7192" style="fill: #ff7f0e; stroke: #ff7f0e"/>
     <use xlink:href="#m2e4081d384" x="335.087455" y="348.8248" style="fill: #ff7f0e; stroke: #ff7f0e"/>
     <use xlink:href="#m2e4081d384" x="401.483818" y="290.6296" style="fill: #ff7f0e; stroke: #ff7f0e"/>
     <use xlink:href="#m2e4081d384" x="467.880182" y="232.4344" style="fill: #ff7f0e; stroke: #ff7f0e"/>
     <use xlink:href="#m2e4081d384" x="534.276545" y="174.2392" style="fill: #ff7f0e; stroke: #ff7f0e"/>
     <use xlink:href="#m2e4081d384" x="600.672909" y="135.4424" style="fill: #ff7f0e; stroke: #ff7f0e"/>
     <use xlink:href="#m2e4081d384" x="667.069273" y="174.2392" style="fill: #ff7f0e; stroke: #ff7f0e"/>
     <use xlink:href="#m2e4081d384" x="700.267455" y="251.8328" style="fill: #ff7f0e; stroke: #ff7f0e"/>
     <use xlink:href="#m2e4081d384" x="733.465636" y="368.2232" style="fill: #ff7f0e; stroke: #ff7f0e"/>
    </g>
   </g>
   <g id="line2d_14">
    <path d="M 135.898364 523.4104 
L 202.294727 465.2152 
L 268.691091 416.7192 
L 335.087455 348.8248 
L 401.483818 271.2312 
L 467.880182 213.036 
L 534.276545 135.4424 
L 600.672909 96.6456 
L 667.069273 96.6456 
L 733.465636 203.3368 
" clip-path="url(#p88b8696987)" style="fill: none; stroke: #2ca02c; stroke-width: 1.5; stroke-linecap: square"/>
    <defs>
     <path id="m9c69b56b78" d="M 0 3 
C 0.795609 3 1.55874 2.683901 2.12132 2.12132 
C 2.683901 1.55874 3 0.795609 3 0 
C 3 -0.795609 2.683901 -1.55874 2.12132 -2.12132 
C 1.55874 -2.683901 0.795609 -3 0 -3 
C -0.795609 -3 -1.55874 -2.683901 -2.12132 -2.12132 
C -2.683901 -1.55874 -3 -0.795609 -3 0 
C -3 0.795609 -2.683901 1.55874 -2.12132 2.12132 
C -1.55874 2.683901 -0.795609 3 0 3 
z
" style="stroke: #2ca02c"/>
    </defs>
    <g clip-path="url(#p88b8696987)">
     <use xlink:href="#m9c69b56b78" x="135.898364" y="523.4104" style="fill: #2ca02c; stroke: #2ca02c"/>
     <use xlink:href="#m9c69b56b78" x="202.294727" y="465.2152" style="fill: #2ca02c; stroke: #2ca02c"/>
     <use xlink:href="#m9c69b56b78" x="268.691091" y="416.7192" style="fill: #2ca02c; stroke: #2ca02c"/>
     <use xlink:href="#m9c69b56b78" x="335.087455" y="348.8248" style="fill: #2ca02c; stroke: #2ca02c"/>
     <use xlink:href="#m9c69b56b78" x="401.483818" y="271.2312" style="fill: #2ca02c; stroke: #2ca02c"/>
     <use xlink:href="#m9c69b56b78" x="467.880182" y="213.036" style="fill: #2ca02c; stroke: #2ca02c"/>
     <use xlink:href="#m9c69b56b78" x="534.276545" y="135.4424" style="fill: #2ca02c; stroke: #2ca02c"/>
     <use xlink:href="#m9c69b56b78" x="600.672909" y="96.6456" style="fill: #2ca02c; stroke: #2ca02c"/>
     <use xlink:href="#m9c69b56b78" x="667.069273" y="96.6456" style="fill: #2ca02c; stroke: #2ca02c"/>
     <use xlink:href="#m9c69b56b78" x="733.465636" y="203.3368" style="fill: #2ca02c; stroke: #2ca02c"/>
    </g>
   </g>
   <g id="patch_3">
    <path d="M 106.02 554.9328 
L 106.02 74.8224 
" style="fill: none; stroke: #000000; stroke-width: 0.8; stroke-linejoin: miter; stroke-linecap: square"/>
   </g>
   <g id="patch_4">
    <path d="M 763.344 554.9328 
L 763.344 74.8224 
" style="fill: none; stroke: #000000; stroke-width: 0.8; stroke-linejoin: miter; stroke-linecap: square"/>
   </g>
   <g id="patch_5">
    <path d="M 106.02 554.9328 
L 763.344 554.9328 
" style="fill: none; stroke: #000000; stroke-width: 0.8; stroke-linejoin: miter; stroke-linecap: square"/>
   </g>
   <g id="patch_6">
    <path d="M 106.02 74.8224 
L 763.344 74.8224 
" style="fill: none; stroke: #000000; stroke-width: 0.8; stroke-linejoin: miter; stroke-linecap: square"/>
   </g>
   <g id="legend_1">
    <g id="patch_7">
     <path d="M 690.017437 126.856775 
L 756.344 126.856775 
Q 758.344 126.856775 758.344 124.856775 
L 758.344 81.8224 
Q 758.344 79.8224 756.344 79.8224 
L 690.017437 79.8224 
Q 688.017437 79.8224 688.017437 81.8224 
L 688.017437 124.856775 
Q 688.017437 126.856775 690.017437 126.856775 
z
" style="fill: #ffffff; opacity: 0.8; stroke: #cccccc; stroke-linejoin: miter"/>
    </g>
    <g id="line2d_15">
     <path d="M 692.017437 87.920838 
L 702.017437 87.920838 
L 712.017437 87.920838 
" style="fill: none; stroke: #1f77b4; stroke-width: 1.5; stroke-linecap: square"/>
     <g>
      <use xlink:href="#m9b8c1eeea3" x="702.017437" y="87.920838" style="fill: #1f77b4; stroke: #1f77b4"/>
     </g>
    </g>
    <g id="text_12">
     <!-- 300cm -->
     <g transform="translate(720.017437 91.420838) scale(0.1 -0.1)">
      <defs>
       <path id="DejaVuSans-63" d="M 3122 3366 
L 3122 2828 
Q 2878 2963 2633 3030 
Q 2388 3097 2138 3097 
Q 1578 3097 1268 2742 
Q 959 2388 959 1747 
Q 959 1106 1268 751 
Q 1578 397 2138 397 
Q 2388 397 2633 464 
Q 2878 531 3122 666 
L 3122 134 
Q 2881 22 2623 -34 
Q 2366 -91 2075 -91 
Q 1284 -91 818 406 
Q 353 903 353 1747 
Q 353 2603 823 3093 
Q 1294 3584 2113 3584 
Q 2378 3584 2631 3529 
Q 2884 3475 3122 3366 
z
" transform="scale(0.015625)"/>
       <path id="DejaVuSans-6d" d="M 3328 2828 
Q 3544 3216 3844 3400 
Q 4144 3584 4550 3584 
Q 5097 3584 5394 3201 
Q 5691 2819 5691 2113 
L 5691 0 
L 5113 0 
L 5113 2094 
Q 5113 2597 4934 2840 
Q 4756 3084 4391 3084 
Q 3944 3084 3684 2787 
Q 3425 2491 3425 1978 
L 3425 0 
L 2847 0 
L 2847 2094 
Q 2847 2600 2669 2842 
Q 2491 3084 2119 3084 
Q 1678 3084 1418 2786 
Q 1159 2488 1159 1978 
L 1159 0 
L 581 0 
L 581 3500 
L 1159 3500 
L 1159 2956 
Q 1356 3278 1631 3431 
Q 1906 3584 2284 3584 
Q 2666 3584 2933 3390 
Q 3200 3197 3328 2828 
z
" transform="scale(0.015625)"/>
      </defs>
      <use xlink:href="#DejaVuSans-33"/>
      <use xlink:href="#DejaVuSans-30" x="63.623047"/>
      <use xlink:href="#DejaVuSans-30" x="127.246094"/>
      <use xlink:href="#DejaVuSans-63" x="190.869141"/>
      <use xlink:href="#DejaVuSans-6d" x="245.849609"/>
     </g>
    </g>
    <g id="line2d_16">
     <path d="M 692.017437 102.598963 
L 702.017437 102.598963 
L 712.017437 102.598963 
" style="fill: none; stroke: #ff7f0e; stroke-width: 1.5; stroke-linecap: square"/>
     <g>
      <use xlink:href="#m2e4081d384" x="702.017437" y="102.598963" style="fill: #ff7f0e; stroke: #ff7f0e"/>
     </g>
    </g>
    <g id="text_13">
     <!-- 150cm -->
     <g transform="translate(720.017437 106.098963) scale(0.1 -0.1)">
      <defs>
       <path id="DejaVuSans-31" d="M 794 531 
L 1825 531 
L 1825 4091 
L 703 3866 
L 703 4441 
L 1819 4666 
L 2450 4666 
L 2450 531 
L 3481 531 
L 3481 0 
L 794 0 
L 794 531 
z
" transform="scale(0.015625)"/>
      </defs>
      <use xlink:href="#DejaVuSans-31"/>
      <use xlink:href="#DejaVuSans-35" x="63.623047"/>
      <use xlink:href="#DejaVuSans-30" x="127.246094"/>
      <use xlink:href="#DejaVuSans-63" x="190.869141"/>
      <use xlink:href="#DejaVuSans-6d" x="245.849609"/>
     </g>
    </g>
    <g id="line2d_17">
     <path d="M 692.017437 117.277088 
L 702.017437 117.277088 
L 712.017437 117.277088 
" style="fill: none; stroke: #2ca02c; stroke-width: 1.5; stroke-linecap: square"/>
     <g>
      <use xlink:href="#m9c69b56b78" x="702.017437" y="117.277088" style="fill: #2ca02c; stroke: #2ca02c"/>
     </g>
    </g>
    <g id="text_14">
     <!-- 75cm -->
     <g transform="translate(720.017437 120.777088) scale(0.1 -0.1)">
      <use xlink:href="#DejaVuSans-37"/>
      <use xlink:href="#DejaVuSans-35" x="63.623047"/>
      <use xlink:href="#DejaVuSans-63" x="127.246094"/>
      <use xlink:href="#DejaVuSans-6d" x="182.226562"/>
     </g>
    </g>
   </g>
  </g>
 </g>
 <defs>
  <clipPath id="p88b8696987">
   <rect x="106.02" y="74.8224" width="657.324" height="480.1104"/>
  </clipPath>
 </defs>
</svg>
