<?xml version="1.0" encoding="utf-8" standalone="no"?>
<!DOCTYPE svg PUBLIC "-//W3C//DTD SVG 1.1//EN"
  "http://www.w3.org/Graphics/SVG/1.1/DTD/svg11.dtd">
<svg xmlns:xlink="http://www.w3.org/1999/xlink" width="440.39952pt" height="872.39952pt" viewBox="0 0 440.39952 872.39952" xmlns="http://www.w3.org/2000/svg" version="1.1">
 <metadata>
  <rdf:RDF xmlns:dc="http://purl.org/dc/elements/1.1/" xmlns:cc="http://creativecommons.org/ns#" xmlns:rdf="http://www.w3.org/1999/02/22-rdf-syntax-ns#">
   <cc:Work>
    <dc:type rdf:resource="http://purl.org/dc/dcmitype/StillImage"/>
    <dc:date>2025-09-27T21:54:38.324260</dc:date>
    <dc:format>image/svg+xml</dc:format>
    <dc:creator>
     <cc:Agent>
      <dc:title>Matplotlib v3.10.6, https://matplotlib.org/</dc:title>
     </cc:Agent>
    </dc:creator>
   </cc:Work>
  </rdf:RDF>
 </metadata>
 <defs>
  <style type="text/css">*{stroke-linejoin: round; stroke-linecap: butt}</style>
 </defs>
 <g id="figure_1">
  <g id="patch_1">
   <path d="M 0 872.39952 
L 440.39952 872.39952 
L 440.39952 0 
L 0 0 
z
" style="fill: #ffffff"/>
  </g>
  <g id="axes_1">
   <g id="patch_2">
    <path d="M 33.2875 200.521395 
L 433.19952 200.521395 
L 433.19952 22.318125 
L 33.2875 22.318125 
z
" style="fill: #ffffff"/>
   </g>
   <g id="patch_3">
    <path d="M 60.554229 200.521395 
L 133.265505 200.521395 
L 133.265505 132.634435 
L 60.554229 132.634435 
z
" clip-path="url(#p11571a93a2)" style="fill: #1f77b4"/>
   </g>
   <g id="patch_4">
    <path d="M 151.443324 200.521395 
L 224.1546 200.521395 
L 224.1546 30.803995 
L 151.443324 30.803995 
z
" clip-path="url(#p11571a93a2)" style="fill: #1f77b4"/>
   </g>
   <g id="patch_5">
    <path d="M 242.33242 200.521395 
L 315.043696 200.521395 
L 315.043696 98.690955 
L 242.33242 98.690955 
z
" clip-path="url(#p11571a93a2)" style="fill: #1f77b4"/>
   </g>
   <g id="patch_6">
    <path d="M 333.221515 200.521395 
L 405.932791 200.521395 
L 405.932791 200.521395 
L 333.221515 200.521395 
z
" clip-path="url(#p11571a93a2)" style="fill: #1f77b4"/>
   </g>
   <g id="matplotlib.axis_1">
    <g id="xtick_1">
     <g id="line2d_1">
      <defs>
       <path id="m437badacbf" d="M 0 0 
L 0 3.5 
" style="stroke: #000000; stroke-width: 0.8"/>
      </defs>
      <g>
       <use xlink:href="#m437badacbf" x="96.909867" y="200.521395" style="stroke: #000000; stroke-width: 0.8"/>
      </g>
     </g>
     <g id="text_1">
      <!-- 0.25 -->
      <g transform="translate(85.777054 215.119833) scale(0.1 -0.1)">
       <defs>
        <path id="DejaVuSans-30" d="M 2034 4250 
Q 1547 4250 1301 3770 
Q 1056 3291 1056 2328 
Q 1056 1369 1301 889 
Q 1547 409 2034 409 
Q 2525 409 2770 889 
Q 3016 1369 3016 2328 
Q 3016 3291 2770 3770 
Q 2525 4250 2034 4250 
z
M 2034 4750 
Q 2819 4750 3233 4129 
Q 3647 3509 3647 2328 
Q 3647 1150 3233 529 
Q 2819 -91 2034 -91 
Q 1250 -91 836 529 
Q 422 1150 422 2328 
Q 422 3509 836 4129 
Q 1250 4750 2034 4750 
z
" transform="scale(0.015625)"/>
        <path id="DejaVuSans-2e" d="M 684 794 
L 1344 794 
L 1344 0 
L 684 0 
L 684 794 
z
" transform="scale(0.015625)"/>
        <path id="DejaVuSans-32" d="M 1228 531 
L 3431 531 
L 3431 0 
L 469 0 
L 469 531 
Q 828 903 1448 1529 
Q 2069 2156 2228 2338 
Q 2531 2678 2651 2914 
Q 2772 3150 2772 3378 
Q 2772 3750 2511 3984 
Q 2250 4219 1831 4219 
Q 1534 4219 1204 4116 
Q 875 4013 500 3803 
L 500 4441 
Q 881 4594 1212 4672 
Q 1544 4750 1819 4750 
Q 2544 4750 2975 4387 
Q 3406 4025 3406 3419 
Q 3406 3131 3298 2873 
Q 3191 2616 2906 2266 
Q 2828 2175 2409 1742 
Q 1991 1309 1228 531 
z
" transform="scale(0.015625)"/>
        <path id="DejaVuSans-35" d="M 691 4666 
L 3169 4666 
L 3169 4134 
L 1269 4134 
L 1269 2991 
Q 1406 3038 1543 3061 
Q 1681 3084 1819 3084 
Q 2600 3084 3056 2656 
Q 3513 2228 3513 1497 
Q 3513 744 3044 326 
Q 2575 -91 1722 -91 
Q 1428 -91 1123 -41 
Q 819 9 494 109 
L 494 744 
Q 775 591 1075 516 
Q 1375 441 1709 441 
Q 2250 441 2565 725 
Q 2881 1009 2881 1497 
Q 2881 1984 2565 2268 
Q 2250 2553 1709 2553 
Q 1456 2553 1204 2497 
Q 953 2441 691 2322 
L 691 4666 
z
" transform="scale(0.015625)"/>
       </defs>
       <use xlink:href="#DejaVuSans-30"/>
       <use xlink:href="#DejaVuSans-2e" transform="translate(63.623047 0)"/>
       <use xlink:href="#DejaVuSans-32" transform="translate(95.410156 0)"/>
       <use xlink:href="#DejaVuSans-35" transform="translate(159.033203 0)"/>
      </g>
     </g>
    </g>
    <g id="xtick_2">
     <g id="line2d_2">
      <g>
       <use xlink:href="#m437badacbf" x="187.798962" y="200.521395" style="stroke: #000000; stroke-width: 0.8"/>
      </g>
     </g>
     <g id="text_2">
      <!-- 0.50 -->
      <g transform="translate(176.66615 215.119833) scale(0.1 -0.1)">
       <use xlink:href="#DejaVuSans-30"/>
       <use xlink:href="#DejaVuSans-2e" transform="translate(63.623047 0)"/>
       <use xlink:href="#DejaVuSans-35" transform="translate(95.410156 0)"/>
       <use xlink:href="#DejaVuSans-30" transform="translate(159.033203 0)"/>
      </g>
     </g>
    </g>
    <g id="xtick_3">
     <g id="line2d_3">
      <g>
       <use xlink:href="#m437badacbf" x="278.688058" y="200.521395" style="stroke: #000000; stroke-width: 0.8"/>
      </g>
     </g>
     <g id="text_3">
      <!-- 0.75 -->
      <g transform="translate(267.555245 215.119833) scale(0.1 -0.1)">
       <defs>
        <path id="DejaVuSans-37" d="M 525 4666 
L 3525 4666 
L 3525 4397 
L 1831 0 
L 1172 0 
L 2766 4134 
L 525 4134 
L 525 4666 
z
" transform="scale(0.015625)"/>
       </defs>
       <use xlink:href="#DejaVuSans-30"/>
       <use xlink:href="#DejaVuSans-2e" transform="translate(63.623047 0)"/>
       <use xlink:href="#DejaVuSans-37" transform="translate(95.410156 0)"/>
       <use xlink:href="#DejaVuSans-35" transform="translate(159.033203 0)"/>
      </g>
     </g>
    </g>
    <g id="xtick_4">
     <g id="line2d_4">
      <g>
       <use xlink:href="#m437badacbf" x="369.577153" y="200.521395" style="stroke: #000000; stroke-width: 0.8"/>
      </g>
     </g>
     <g id="text_4">
      <!-- 1.00 -->
      <g transform="translate(358.444341 215.119833) scale(0.1 -0.1)">
       <defs>
        <path id="DejaVuSans-31" d="M 794 531 
L 1825 531 
L 1825 4091 
L 703 3866 
L 703 4441 
L 1819 4666 
L 2450 4666 
L 2450 531 
L 3481 531 
L 3481 0 
L 794 0 
L 794 531 
z
" transform="scale(0.015625)"/>
       </defs>
       <use xlink:href="#DejaVuSans-31"/>
       <use xlink:href="#DejaVuSans-2e" transform="translate(63.623047 0)"/>
       <use xlink:href="#DejaVuSans-30" transform="translate(95.410156 0)"/>
       <use xlink:href="#DejaVuSans-30" transform="translate(159.033203 0)"/>
      </g>
     </g>
    </g>
   </g>
   <g id="matplotlib.axis_2">
    <g id="ytick_1">
     <g id="line2d_5">
      <defs>
       <path id="m0eb42901bd" d="M 0 0 
L -3.5 0 
" style="stroke: #000000; stroke-width: 0.8"/>
      </defs>
      <g>
       <use xlink:href="#m0eb42901bd" x="33.2875" y="200.521395" style="stroke: #000000; stroke-width: 0.8"/>
      </g>
     </g>
     <g id="text_5">
      <!-- 0 -->
      <g transform="translate(19.925 204.320614) scale(0.1 -0.1)">
       <use xlink:href="#DejaVuSans-30"/>
      </g>
     </g>
    </g>
    <g id="ytick_2">
     <g id="line2d_6">
      <g>
       <use xlink:href="#m0eb42901bd" x="33.2875" y="166.577915" style="stroke: #000000; stroke-width: 0.8"/>
      </g>
     </g>
     <g id="text_6">
      <!-- 50 -->
      <g transform="translate(13.5625 170.377134) scale(0.1 -0.1)">
       <use xlink:href="#DejaVuSans-35"/>
       <use xlink:href="#DejaVuSans-30" transform="translate(63.623047 0)"/>
      </g>
     </g>
    </g>
    <g id="ytick_3">
     <g id="line2d_7">
      <g>
       <use xlink:href="#m0eb42901bd" x="33.2875" y="132.634435" style="stroke: #000000; stroke-width: 0.8"/>
      </g>
     </g>
     <g id="text_7">
      <!-- 100 -->
      <g transform="translate(7.2 136.433654) scale(0.1 -0.1)">
       <use xlink:href="#DejaVuSans-31"/>
       <use xlink:href="#DejaVuSans-30" transform="translate(63.623047 0)"/>
       <use xlink:href="#DejaVuSans-30" transform="translate(127.246094 0)"/>
      </g>
     </g>
    </g>
    <g id="ytick_4">
     <g id="line2d_8">
      <g>
       <use xlink:href="#m0eb42901bd" x="33.2875" y="98.690955" style="stroke: #000000; stroke-width: 0.8"/>
      </g>
     </g>
     <g id="text_8">
      <!-- 150 -->
      <g transform="translate(7.2 102.490174) scale(0.1 -0.1)">
       <use xlink:href="#DejaVuSans-31"/>
       <use xlink:href="#DejaVuSans-35" transform="translate(63.623047 0)"/>
       <use xlink:href="#DejaVuSans-30" transform="translate(127.246094 0)"/>
      </g>
     </g>
    </g>
    <g id="ytick_5">
     <g id="line2d_9">
      <g>
       <use xlink:href="#m0eb42901bd" x="33.2875" y="64.747475" style="stroke: #000000; stroke-width: 0.8"/>
      </g>
     </g>
     <g id="text_9">
      <!-- 200 -->
      <g transform="translate(7.2 68.546694) scale(0.1 -0.1)">
       <use xlink:href="#DejaVuSans-32"/>
       <use xlink:href="#DejaVuSans-30" transform="translate(63.623047 0)"/>
       <use xlink:href="#DejaVuSans-30" transform="translate(127.246094 0)"/>
      </g>
     </g>
    </g>
    <g id="ytick_6">
     <g id="line2d_10">
      <g>
       <use xlink:href="#m0eb42901bd" x="33.2875" y="30.803995" style="stroke: #000000; stroke-width: 0.8"/>
      </g>
     </g>
     <g id="text_10">
      <!-- 250 -->
      <g transform="translate(7.2 34.603214) scale(0.1 -0.1)">
       <use xlink:href="#DejaVuSans-32"/>
       <use xlink:href="#DejaVuSans-35" transform="translate(63.623047 0)"/>
       <use xlink:href="#DejaVuSans-30" transform="translate(127.246094 0)"/>
      </g>
     </g>
    </g>
   </g>
   <g id="patch_7">
    <path d="M 33.2875 200.521395 
L 33.2875 22.318125 
" style="fill: none; stroke: #000000; stroke-width: 0.8; stroke-linejoin: miter; stroke-linecap: square"/>
   </g>
   <g id="patch_8">
    <path d="M 433.19952 200.521395 
L 433.19952 22.318125 
" style="fill: none; stroke: #000000; stroke-width: 0.8; stroke-linejoin: miter; stroke-linecap: square"/>
   </g>
   <g id="patch_9">
    <path d="M 33.2875 200.521395 
L 433.19952 200.521395 
" style="fill: none; stroke: #000000; stroke-width: 0.8; stroke-linejoin: miter; stroke-linecap: square"/>
   </g>
   <g id="patch_10">
    <path d="M 33.2875 22.318125 
L 433.19952 22.318125 
" style="fill: none; stroke: #000000; stroke-width: 0.8; stroke-linejoin: miter; stroke-linecap: square"/>
   </g>
   <g id="text_11">
    <!-- mean 0.525 stdev 0.175 -->
    <g transform="translate(159.62351 16.318125) scale(0.12 -0.12)">
     <defs>
      <path id="DejaVuSans-6d" d="M 3328 2828 
Q 3544 3216 3844 3400 
Q 4144 3584 4550 3584 
Q 5097 3584 5394 3201 
Q 5691 2819 5691 2113 
L 5691 0 
L 5113 0 
L 5113 2094 
Q 5113 2597 4934 2840 
Q 4756 3084 4391 3084 
Q 3944 3084 3684 2787 
Q 3425 2491 3425 1978 
L 3425 0 
L 2847 0 
L 2847 2094 
Q 2847 2600 2669 2842 
Q 2491 3084 2119 3084 
Q 1678 3084 1418 2786 
Q 1159 2488 1159 1978 
L 1159 0 
L 581 0 
L 581 3500 
L 1159 3500 
L 1159 2956 
Q 1356 3278 1631 3431 
Q 1906 3584 2284 3584 
Q 2666 3584 2933 3390 
Q 3200 3197 3328 2828 
z
" transform="scale(0.015625)"/>
      <path id="DejaVuSans-65" d="M 3597 1894 
L 3597 1613 
L 953 1613 
Q 991 1019 1311 708 
Q 1631 397 2203 397 
Q 2534 397 2845 478 
Q 3156 559 3463 722 
L 3463 178 
Q 3153 47 2828 -22 
Q 2503 -91 2169 -91 
Q 1331 -91 842 396 
Q 353 884 353 1716 
Q 353 2575 817 3079 
Q 1281 3584 2069 3584 
Q 2775 3584 3186 3129 
Q 3597 2675 3597 1894 
z
M 3022 2063 
Q 3016 2534 2758 2815 
Q 2500 3097 2075 3097 
Q 1594 3097 1305 2825 
Q 1016 2553 972 2059 
L 3022 2063 
z
" transform="scale(0.015625)"/>
      <path id="DejaVuSans-61" d="M 2194 1759 
Q 1497 1759 1228 1600 
Q 959 1441 959 1056 
Q 959 750 1161 570 
Q 1363 391 1709 391 
Q 2188 391 2477 730 
Q 2766 1069 2766 1631 
L 2766 1759 
L 2194 1759 
z
M 3341 1997 
L 3341 0 
L 2766 0 
L 2766 531 
Q 2569 213 2275 61 
Q 1981 -91 1556 -91 
Q 1019 -91 701 211 
Q 384 513 384 1019 
Q 384 1609 779 1909 
Q 1175 2209 1959 2209 
L 2766 2209 
L 2766 2266 
Q 2766 2663 2505 2880 
Q 2244 3097 1772 3097 
Q 1472 3097 1187 3025 
Q 903 2953 641 2809 
L 641 3341 
Q 956 3463 1253 3523 
Q 1550 3584 1831 3584 
Q 2591 3584 2966 3190 
Q 3341 2797 3341 1997 
z
" transform="scale(0.015625)"/>
      <path id="DejaVuSans-6e" d="M 3513 2113 
L 3513 0 
L 2938 0 
L 2938 2094 
Q 2938 2591 2744 2837 
Q 2550 3084 2163 3084 
Q 1697 3084 1428 2787 
Q 1159 2491 1159 1978 
L 1159 0 
L 581 0 
L 581 3500 
L 1159 3500 
L 1159 2956 
Q 1366 3272 1645 3428 
Q 1925 3584 2291 3584 
Q 2894 3584 3203 3211 
Q 3513 2838 3513 2113 
z
" transform="scale(0.015625)"/>
      <path id="DejaVuSans-20" transform="scale(0.015625)"/>
      <path id="DejaVuSans-73" d="M 2834 3397 
L 2834 2853 
Q 2591 2978 2328 3040 
Q 2066 3103 1784 3103 
Q 1356 3103 1142 2972 
Q 928 2841 928 2578 
Q 928 2378 1081 2264 
Q 1234 2150 1697 2047 
L 1894 2003 
Q 2506 1872 2764 1633 
Q 3022 1394 3022 966 
Q 3022 478 2636 193 
Q 2250 -91 1575 -91 
Q 1294 -91 989 -36 
Q 684 19 347 128 
L 347 722 
Q 666 556 975 473 
Q 1284 391 1588 391 
Q 1994 391 2212 530 
Q 2431 669 2431 922 
Q 2431 1156 2273 1281 
Q 2116 1406 1581 1522 
L 1381 1569 
Q 847 1681 609 1914 
Q 372 2147 372 2553 
Q 372 3047 722 3315 
Q 1072 3584 1716 3584 
Q 2034 3584 2315 3537 
Q 2597 3491 2834 3397 
z
" transform="scale(0.015625)"/>
      <path id="DejaVuSans-74" d="M 1172 4494 
L 1172 3500 
L 2356 3500 
L 2356 3053 
L 1172 3053 
L 1172 1153 
Q 1172 725 1289 603 
Q 1406 481 1766 481 
L 2356 481 
L 2356 0 
L 1766 0 
Q 1100 0 847 248 
Q 594 497 594 1153 
L 594 3053 
L 172 3053 
L 172 3500 
L 594 3500 
L 594 4494 
L 1172 4494 
z
" transform="scale(0.015625)"/>
      <path id="DejaVuSans-64" d="M 2906 2969 
L 2906 4863 
L 3481 4863 
L 3481 0 
L 2906 0 
L 2906 525 
Q 2725 213 2448 61 
Q 2172 -91 1784 -91 
Q 1150 -91 751 415 
Q 353 922 353 1747 
Q 353 2572 751 3078 
Q 1150 3584 1784 3584 
Q 2172 3584 2448 3432 
Q 2725 3281 2906 2969 
z
M 947 1747 
Q 947 1113 1208 752 
Q 1469 391 1925 391 
Q 2381 391 2643 752 
Q 2906 1113 2906 1747 
Q 2906 2381 2643 2742 
Q 2381 3103 1925 3103 
Q 1469 3103 1208 2742 
Q 947 2381 947 1747 
z
" transform="scale(0.015625)"/>
      <path id="DejaVuSans-76" d="M 191 3500 
L 800 3500 
L 1894 563 
L 2988 3500 
L 3597 3500 
L 2284 0 
L 1503 0 
L 191 3500 
z
" transform="scale(0.015625)"/>
     </defs>
     <use xlink:href="#DejaVuSans-6d"/>
     <use xlink:href="#DejaVuSans-65" transform="translate(97.412109 0)"/>
     <use xlink:href="#DejaVuSans-61" transform="translate(158.935547 0)"/>
     <use xlink:href="#DejaVuSans-6e" transform="translate(220.214844 0)"/>
     <use xlink:href="#DejaVuSans-20" transform="translate(283.59375 0)"/>
     <use xlink:href="#DejaVuSans-30" transform="translate(315.380859 0)"/>
     <use xlink:href="#DejaVuSans-2e" transform="translate(379.003906 0)"/>
     <use xlink:href="#DejaVuSans-35" transform="translate(410.791016 0)"/>
     <use xlink:href="#DejaVuSans-32" transform="translate(474.414062 0)"/>
     <use xlink:href="#DejaVuSans-35" transform="translate(538.037109 0)"/>
     <use xlink:href="#DejaVuSans-20" transform="translate(601.660156 0)"/>
     <use xlink:href="#DejaVuSans-73" transform="translate(633.447266 0)"/>
     <use xlink:href="#DejaVuSans-74" transform="translate(685.546875 0)"/>
     <use xlink:href="#DejaVuSans-64" transform="translate(724.755859 0)"/>
     <use xlink:href="#DejaVuSans-65" transform="translate(788.232422 0)"/>
     <use xlink:href="#DejaVuSans-76" transform="translate(849.755859 0)"/>
     <use xlink:href="#DejaVuSans-20" transform="translate(908.935547 0)"/>
     <use xlink:href="#DejaVuSans-30" transform="translate(940.722656 0)"/>
     <use xlink:href="#DejaVuSans-2e" transform="translate(1004.345703 0)"/>
     <use xlink:href="#DejaVuSans-31" transform="translate(1036.132812 0)"/>
     <use xlink:href="#DejaVuSans-37" transform="translate(1099.755859 0)"/>
     <use xlink:href="#DejaVuSans-35" transform="translate(1163.378906 0)"/>
    </g>
   </g>
  </g>
  <g id="axes_2">
   <g id="patch_11">
    <path d="M 33.2875 416.521395 
L 433.19952 416.521395 
L 433.19952 238.318125 
L 33.2875 238.318125 
z
" style="fill: #ffffff"/>
   </g>
   <g id="patch_12">
    <path d="M 60.554229 416.521395 
L 133.265505 416.521395 
L 133.265505 416.521395 
L 60.554229 416.521395 
z
" clip-path="url(#pb9e25ce7f7)" style="fill: #1f77b4"/>
   </g>
   <g id="patch_13">
    <path d="M 151.443324 416.521395 
L 224.1546 416.521395 
L 224.1546 246.803995 
L 151.443324 246.803995 
z
" clip-path="url(#pb9e25ce7f7)" style="fill: #1f77b4"/>
   </g>
   <g id="patch_14">
    <path d="M 242.33242 416.521395 
L 315.043696 416.521395 
L 315.043696 397.663906 
L 242.33242 397.663906 
z
" clip-path="url(#pb9e25ce7f7)" style="fill: #1f77b4"/>
   </g>
   <g id="patch_15">
    <path d="M 333.221515 416.521395 
L 405.932791 416.521395 
L 405.932791 416.521395 
L 333.221515 416.521395 
z
" clip-path="url(#pb9e25ce7f7)" style="fill: #1f77b4"/>
   </g>
   <g id="matplotlib.axis_3">
    <g id="xtick_5">
     <g id="line2d_11">
      <g>
       <use xlink:href="#m437badacbf" x="96.909867" y="416.521395" style="stroke: #000000; stroke-width: 0.8"/>
      </g>
     </g>
     <g id="text_12">
      <!-- 0.25 -->
      <g transform="translate(85.777054 431.119832) scale(0.1 -0.1)">
       <use xlink:href="#DejaVuSans-30"/>
       <use xlink:href="#DejaVuSans-2e" transform="translate(63.623047 0)"/>
       <use xlink:href="#DejaVuSans-32" transform="translate(95.410156 0)"/>
       <use xlink:href="#DejaVuSans-35" transform="translate(159.033203 0)"/>
      </g>
     </g>
    </g>
    <g id="xtick_6">
     <g id="line2d_12">
      <g>
       <use xlink:href="#m437badacbf" x="187.798962" y="416.521395" style="stroke: #000000; stroke-width: 0.8"/>
      </g>
     </g>
     <g id="text_13">
      <!-- 0.50 -->
      <g transform="translate(176.66615 431.119832) scale(0.1 -0.1)">
       <use xlink:href="#DejaVuSans-30"/>
       <use xlink:href="#DejaVuSans-2e" transform="translate(63.623047 0)"/>
       <use xlink:href="#DejaVuSans-35" transform="translate(95.410156 0)"/>
       <use xlink:href="#DejaVuSans-30" transform="translate(159.033203 0)"/>
      </g>
     </g>
    </g>
    <g id="xtick_7">
     <g id="line2d_13">
      <g>
       <use xlink:href="#m437badacbf" x="278.688058" y="416.521395" style="stroke: #000000; stroke-width: 0.8"/>
      </g>
     </g>
     <g id="text_14">
      <!-- 0.75 -->
      <g transform="translate(267.555245 431.119832) scale(0.1 -0.1)">
       <use xlink:href="#DejaVuSans-30"/>
       <use xlink:href="#DejaVuSans-2e" transform="translate(63.623047 0)"/>
       <use xlink:href="#DejaVuSans-37" transform="translate(95.410156 0)"/>
       <use xlink:href="#DejaVuSans-35" transform="translate(159.033203 0)"/>
      </g>
     </g>
    </g>
    <g id="xtick_8">
     <g id="line2d_14">
      <g>
       <use xlink:href="#m437badacbf" x="369.577153" y="416.521395" style="stroke: #000000; stroke-width: 0.8"/>
      </g>
     </g>
     <g id="text_15">
      <!-- 1.00 -->
      <g transform="translate(358.444341 431.119832) scale(0.1 -0.1)">
       <use xlink:href="#DejaVuSans-31"/>
       <use xlink:href="#DejaVuSans-2e" transform="translate(63.623047 0)"/>
       <use xlink:href="#DejaVuSans-30" transform="translate(95.410156 0)"/>
       <use xlink:href="#DejaVuSans-30" transform="translate(159.033203 0)"/>
      </g>
     </g>
    </g>
   </g>
   <g id="matplotlib.axis_4">
    <g id="ytick_7">
     <g id="line2d_15">
      <g>
       <use xlink:href="#m0eb42901bd" x="33.2875" y="416.521395" style="stroke: #000000; stroke-width: 0.8"/>
      </g>
     </g>
     <g id="text_16">
      <!-- 0 -->
      <g transform="translate(19.925 420.320614) scale(0.1 -0.1)">
       <use xlink:href="#DejaVuSans-30"/>
      </g>
     </g>
    </g>
    <g id="ytick_8">
     <g id="line2d_16">
      <g>
       <use xlink:href="#m0eb42901bd" x="33.2875" y="378.806417" style="stroke: #000000; stroke-width: 0.8"/>
      </g>
     </g>
     <g id="text_17">
      <!-- 100 -->
      <g transform="translate(7.2 382.605636) scale(0.1 -0.1)">
       <use xlink:href="#DejaVuSans-31"/>
       <use xlink:href="#DejaVuSans-30" transform="translate(63.623047 0)"/>
       <use xlink:href="#DejaVuSans-30" transform="translate(127.246094 0)"/>
      </g>
     </g>
    </g>
    <g id="ytick_9">
     <g id="line2d_17">
      <g>
       <use xlink:href="#m0eb42901bd" x="33.2875" y="341.091439" style="stroke: #000000; stroke-width: 0.8"/>
      </g>
     </g>
     <g id="text_18">
      <!-- 200 -->
      <g transform="translate(7.2 344.890658) scale(0.1 -0.1)">
       <use xlink:href="#DejaVuSans-32"/>
       <use xlink:href="#DejaVuSans-30" transform="translate(63.623047 0)"/>
       <use xlink:href="#DejaVuSans-30" transform="translate(127.246094 0)"/>
      </g>
     </g>
    </g>
    <g id="ytick_10">
     <g id="line2d_18">
      <g>
       <use xlink:href="#m0eb42901bd" x="33.2875" y="303.376462" style="stroke: #000000; stroke-width: 0.8"/>
      </g>
     </g>
     <g id="text_19">
      <!-- 300 -->
      <g transform="translate(7.2 307.17568) scale(0.1 -0.1)">
       <defs>
        <path id="DejaVuSans-33" d="M 2597 2516 
Q 3050 2419 3304 2112 
Q 3559 1806 3559 1356 
Q 3559 666 3084 287 
Q 2609 -91 1734 -91 
Q 1441 -91 1130 -33 
Q 819 25 488 141 
L 488 750 
Q 750 597 1062 519 
Q 1375 441 1716 441 
Q 2309 441 2620 675 
Q 2931 909 2931 1356 
Q 2931 1769 2642 2001 
Q 2353 2234 1838 2234 
L 1294 2234 
L 1294 2753 
L 1863 2753 
Q 2328 2753 2575 2939 
Q 2822 3125 2822 3475 
Q 2822 3834 2567 4026 
Q 2313 4219 1838 4219 
Q 1578 4219 1281 4162 
Q 984 4106 628 3988 
L 628 4550 
Q 988 4650 1302 4700 
Q 1616 4750 1894 4750 
Q 2613 4750 3031 4423 
Q 3450 4097 3450 3541 
Q 3450 3153 3228 2886 
Q 3006 2619 2597 2516 
z
" transform="scale(0.015625)"/>
       </defs>
       <use xlink:href="#DejaVuSans-33"/>
       <use xlink:href="#DejaVuSans-30" transform="translate(63.623047 0)"/>
       <use xlink:href="#DejaVuSans-30" transform="translate(127.246094 0)"/>
      </g>
     </g>
    </g>
    <g id="ytick_11">
     <g id="line2d_19">
      <g>
       <use xlink:href="#m0eb42901bd" x="33.2875" y="265.661484" style="stroke: #000000; stroke-width: 0.8"/>
      </g>
     </g>
     <g id="text_20">
      <!-- 400 -->
      <g transform="translate(7.2 269.460703) scale(0.1 -0.1)">
       <defs>
        <path id="DejaVuSans-34" d="M 2419 4116 
L 825 1625 
L 2419 1625 
L 2419 4116 
z
M 2253 4666 
L 3047 4666 
L 3047 1625 
L 3713 1625 
L 3713 1100 
L 3047 1100 
L 3047 0 
L 2419 0 
L 2419 1100 
L 313 1100 
L 313 1709 
L 2253 4666 
z
" transform="scale(0.015625)"/>
       </defs>
       <use xlink:href="#DejaVuSans-34"/>
       <use xlink:href="#DejaVuSans-30" transform="translate(63.623047 0)"/>
       <use xlink:href="#DejaVuSans-30" transform="translate(127.246094 0)"/>
      </g>
     </g>
    </g>
   </g>
   <g id="patch_16">
    <path d="M 33.2875 416.521395 
L 33.2875 238.318125 
" style="fill: none; stroke: #000000; stroke-width: 0.8; stroke-linejoin: miter; stroke-linecap: square"/>
   </g>
   <g id="patch_17">
    <path d="M 433.19952 416.521395 
L 433.19952 238.318125 
" style="fill: none; stroke: #000000; stroke-width: 0.8; stroke-linejoin: miter; stroke-linecap: square"/>
   </g>
   <g id="patch_18">
    <path d="M 33.2875 416.521395 
L 433.19952 416.521395 
" style="fill: none; stroke: #000000; stroke-width: 0.8; stroke-linejoin: miter; stroke-linecap: square"/>
   </g>
   <g id="patch_19">
    <path d="M 33.2875 238.318125 
L 433.19952 238.318125 
" style="fill: none; stroke: #000000; stroke-width: 0.8; stroke-linejoin: miter; stroke-linecap: square"/>
   </g>
   <g id="text_21">
    <!-- mean 0.525 stdev 0.075 -->
    <g transform="translate(159.62351 232.318125) scale(0.12 -0.12)">
     <use xlink:href="#DejaVuSans-6d"/>
     <use xlink:href="#DejaVuSans-65" transform="translate(97.412109 0)"/>
     <use xlink:href="#DejaVuSans-61" transform="translate(158.935547 0)"/>
     <use xlink:href="#DejaVuSans-6e" transform="translate(220.214844 0)"/>
     <use xlink:href="#DejaVuSans-20" transform="translate(283.59375 0)"/>
     <use xlink:href="#DejaVuSans-30" transform="translate(315.380859 0)"/>
     <use xlink:href="#DejaVuSans-2e" transform="translate(379.003906 0)"/>
     <use xlink:href="#DejaVuSans-35" transform="translate(410.791016 0)"/>
     <use xlink:href="#DejaVuSans-32" transform="translate(474.414062 0)"/>
     <use xlink:href="#DejaVuSans-35" transform="translate(538.037109 0)"/>
     <use xlink:href="#DejaVuSans-20" transform="translate(601.660156 0)"/>
     <use xlink:href="#DejaVuSans-73" transform="translate(633.447266 0)"/>
     <use xlink:href="#DejaVuSans-74" transform="translate(685.546875 0)"/>
     <use xlink:href="#DejaVuSans-64" transform="translate(724.755859 0)"/>
     <use xlink:href="#DejaVuSans-65" transform="translate(788.232422 0)"/>
     <use xlink:href="#DejaVuSans-76" transform="translate(849.755859 0)"/>
     <use xlink:href="#DejaVuSans-20" transform="translate(908.935547 0)"/>
     <use xlink:href="#DejaVuSans-30" transform="translate(940.722656 0)"/>
     <use xlink:href="#DejaVuSans-2e" transform="translate(1004.345703 0)"/>
     <use xlink:href="#DejaVuSans-30" transform="translate(1036.132812 0)"/>
     <use xlink:href="#DejaVuSans-37" transform="translate(1099.755859 0)"/>
     <use xlink:href="#DejaVuSans-35" transform="translate(1163.378906 0)"/>
    </g>
   </g>
  </g>
  <g id="axes_3">
   <g id="patch_20">
    <path d="M 33.2875 632.521395 
L 433.19952 632.521395 
L 433.19952 454.318125 
L 33.2875 454.318125 
z
" style="fill: #ffffff"/>
   </g>
   <g id="patch_21">
    <path d="M 60.554229 632.521395 
L 133.265505 632.521395 
L 133.265505 462.803995 
L 60.554229 462.803995 
z
" clip-path="url(#p238a447f64)" style="fill: #1f77b4"/>
   </g>
   <g id="patch_22">
    <path d="M 151.443324 632.521395 
L 224.1546 632.521395 
L 224.1546 526.44802 
L 151.443324 526.44802 
z
" clip-path="url(#p238a447f64)" style="fill: #1f77b4"/>
   </g>
   <g id="patch_23">
    <path d="M 242.33242 632.521395 
L 315.043696 632.521395 
L 315.043696 547.662695 
L 242.33242 547.662695 
z
" clip-path="url(#p238a447f64)" style="fill: #1f77b4"/>
   </g>
   <g id="patch_24">
    <path d="M 333.221515 632.521395 
L 405.932791 632.521395 
L 405.932791 568.87737 
L 333.221515 568.87737 
z
" clip-path="url(#p238a447f64)" style="fill: #1f77b4"/>
   </g>
   <g id="matplotlib.axis_5">
    <g id="xtick_9">
     <g id="line2d_20">
      <g>
       <use xlink:href="#m437badacbf" x="96.909867" y="632.521395" style="stroke: #000000; stroke-width: 0.8"/>
      </g>
     </g>
     <g id="text_22">
      <!-- 0.25 -->
      <g transform="translate(85.777054 647.119833) scale(0.1 -0.1)">
       <use xlink:href="#DejaVuSans-30"/>
       <use xlink:href="#DejaVuSans-2e" transform="translate(63.623047 0)"/>
       <use xlink:href="#DejaVuSans-32" transform="translate(95.410156 0)"/>
       <use xlink:href="#DejaVuSans-35" transform="translate(159.033203 0)"/>
      </g>
     </g>
    </g>
    <g id="xtick_10">
     <g id="line2d_21">
      <g>
       <use xlink:href="#m437badacbf" x="187.798962" y="632.521395" style="stroke: #000000; stroke-width: 0.8"/>
      </g>
     </g>
     <g id="text_23">
      <!-- 0.50 -->
      <g transform="translate(176.66615 647.119833) scale(0.1 -0.1)">
       <use xlink:href="#DejaVuSans-30"/>
       <use xlink:href="#DejaVuSans-2e" transform="translate(63.623047 0)"/>
       <use xlink:href="#DejaVuSans-35" transform="translate(95.410156 0)"/>
       <use xlink:href="#DejaVuSans-30" transform="translate(159.033203 0)"/>
      </g>
     </g>
    </g>
    <g id="xtick_11">
     <g id="line2d_22">
      <g>
       <use xlink:href="#m437badacbf" x="278.688058" y="632.521395" style="stroke: #000000; stroke-width: 0.8"/>
      </g>
     </g>
     <g id="text_24">
      <!-- 0.75 -->
      <g transform="translate(267.555245 647.119833) scale(0.1 -0.1)">
       <use xlink:href="#DejaVuSans-30"/>
       <use xlink:href="#DejaVuSans-2e" transform="translate(63.623047 0)"/>
       <use xlink:href="#DejaVuSans-37" transform="translate(95.410156 0)"/>
       <use xlink:href="#DejaVuSans-35" transform="translate(159.033203 0)"/>
      </g>
     </g>
    </g>
    <g id="xtick_12">
     <g id="line2d_23">
      <g>
       <use xlink:href="#m437badacbf" x="369.577153" y="632.521395" style="stroke: #000000; stroke-width: 0.8"/>
      </g>
     </g>
     <g id="text_25">
      <!-- 1.00 -->
      <g transform="translate(358.444341 647.119833) scale(0.1 -0.1)">
       <use xlink:href="#DejaVuSans-31"/>
       <use xlink:href="#DejaVuSans-2e" transform="translate(63.623047 0)"/>
       <use xlink:href="#DejaVuSans-30" transform="translate(95.410156 0)"/>
       <use xlink:href="#DejaVuSans-30" transform="translate(159.033203 0)"/>
      </g>
     </g>
    </g>
   </g>
   <g id="matplotlib.axis_6">
    <g id="ytick_12">
     <g id="line2d_24">
      <g>
       <use xlink:href="#m0eb42901bd" x="33.2875" y="632.521395" style="stroke: #000000; stroke-width: 0.8"/>
      </g>
     </g>
     <g id="text_26">
      <!-- 0 -->
      <g transform="translate(19.925 636.320614) scale(0.1 -0.1)">
       <use xlink:href="#DejaVuSans-30"/>
      </g>
     </g>
    </g>
    <g id="ytick_13">
     <g id="line2d_25">
      <g>
       <use xlink:href="#m0eb42901bd" x="33.2875" y="590.092045" style="stroke: #000000; stroke-width: 0.8"/>
      </g>
     </g>
     <g id="text_27">
      <!-- 50 -->
      <g transform="translate(13.5625 593.891264) scale(0.1 -0.1)">
       <use xlink:href="#DejaVuSans-35"/>
       <use xlink:href="#DejaVuSans-30" transform="translate(63.623047 0)"/>
      </g>
     </g>
    </g>
    <g id="ytick_14">
     <g id="line2d_26">
      <g>
       <use xlink:href="#m0eb42901bd" x="33.2875" y="547.662695" style="stroke: #000000; stroke-width: 0.8"/>
      </g>
     </g>
     <g id="text_28">
      <!-- 100 -->
      <g transform="translate(7.2 551.461914) scale(0.1 -0.1)">
       <use xlink:href="#DejaVuSans-31"/>
       <use xlink:href="#DejaVuSans-30" transform="translate(63.623047 0)"/>
       <use xlink:href="#DejaVuSans-30" transform="translate(127.246094 0)"/>
      </g>
     </g>
    </g>
    <g id="ytick_15">
     <g id="line2d_27">
      <g>
       <use xlink:href="#m0eb42901bd" x="33.2875" y="505.233345" style="stroke: #000000; stroke-width: 0.8"/>
      </g>
     </g>
     <g id="text_29">
      <!-- 150 -->
      <g transform="translate(7.2 509.032564) scale(0.1 -0.1)">
       <use xlink:href="#DejaVuSans-31"/>
       <use xlink:href="#DejaVuSans-35" transform="translate(63.623047 0)"/>
       <use xlink:href="#DejaVuSans-30" transform="translate(127.246094 0)"/>
      </g>
     </g>
    </g>
    <g id="ytick_16">
     <g id="line2d_28">
      <g>
       <use xlink:href="#m0eb42901bd" x="33.2875" y="462.803995" style="stroke: #000000; stroke-width: 0.8"/>
      </g>
     </g>
     <g id="text_30">
      <!-- 200 -->
      <g transform="translate(7.2 466.603214) scale(0.1 -0.1)">
       <use xlink:href="#DejaVuSans-32"/>
       <use xlink:href="#DejaVuSans-30" transform="translate(63.623047 0)"/>
       <use xlink:href="#DejaVuSans-30" transform="translate(127.246094 0)"/>
      </g>
     </g>
    </g>
   </g>
   <g id="patch_25">
    <path d="M 33.2875 632.521395 
L 33.2875 454.318125 
" style="fill: none; stroke: #000000; stroke-width: 0.8; stroke-linejoin: miter; stroke-linecap: square"/>
   </g>
   <g id="patch_26">
    <path d="M 433.19952 632.521395 
L 433.19952 454.318125 
" style="fill: none; stroke: #000000; stroke-width: 0.8; stroke-linejoin: miter; stroke-linecap: square"/>
   </g>
   <g id="patch_27">
    <path d="M 33.2875 632.521395 
L 433.19952 632.521395 
" style="fill: none; stroke: #000000; stroke-width: 0.8; stroke-linejoin: miter; stroke-linecap: square"/>
   </g>
   <g id="patch_28">
    <path d="M 33.2875 454.318125 
L 433.19952 454.318125 
" style="fill: none; stroke: #000000; stroke-width: 0.8; stroke-linejoin: miter; stroke-linecap: square"/>
   </g>
   <g id="text_31">
    <!-- mean 0.525 stdev 0.273 -->
    <g transform="translate(159.62351 448.318125) scale(0.12 -0.12)">
     <use xlink:href="#DejaVuSans-6d"/>
     <use xlink:href="#DejaVuSans-65" transform="translate(97.412109 0)"/>
     <use xlink:href="#DejaVuSans-61" transform="translate(158.935547 0)"/>
     <use xlink:href="#DejaVuSans-6e" transform="translate(220.214844 0)"/>
     <use xlink:href="#DejaVuSans-20" transform="translate(283.59375 0)"/>
     <use xlink:href="#DejaVuSans-30" transform="translate(315.380859 0)"/>
     <use xlink:href="#DejaVuSans-2e" transform="translate(379.003906 0)"/>
     <use xlink:href="#DejaVuSans-35" transform="translate(410.791016 0)"/>
     <use xlink:href="#DejaVuSans-32" transform="translate(474.414062 0)"/>
     <use xlink:href="#DejaVuSans-35" transform="translate(538.037109 0)"/>
     <use xlink:href="#DejaVuSans-20" transform="translate(601.660156 0)"/>
     <use xlink:href="#DejaVuSans-73" transform="translate(633.447266 0)"/>
     <use xlink:href="#DejaVuSans-74" transform="translate(685.546875 0)"/>
     <use xlink:href="#DejaVuSans-64" transform="translate(724.755859 0)"/>
     <use xlink:href="#DejaVuSans-65" transform="translate(788.232422 0)"/>
     <use xlink:href="#DejaVuSans-76" transform="translate(849.755859 0)"/>
     <use xlink:href="#DejaVuSans-20" transform="translate(908.935547 0)"/>
     <use xlink:href="#DejaVuSans-30" transform="translate(940.722656 0)"/>
     <use xlink:href="#DejaVuSans-2e" transform="translate(1004.345703 0)"/>
     <use xlink:href="#DejaVuSans-32" transform="translate(1036.132812 0)"/>
     <use xlink:href="#DejaVuSans-37" transform="translate(1099.755859 0)"/>
     <use xlink:href="#DejaVuSans-33" transform="translate(1163.378906 0)"/>
    </g>
   </g>
  </g>
  <g id="axes_4">
   <g id="patch_29">
    <path d="M 33.2875 848.521395 
L 433.19952 848.521395 
L 433.19952 670.318125 
L 33.2875 670.318125 
z
" style="fill: #ffffff"/>
   </g>
   <g id="patch_30">
    <path d="M 60.554229 848.521395 
L 133.265505 848.521395 
L 133.265505 678.803995 
L 60.554229 678.803995 
z
" clip-path="url(#p310e92b69d)" style="fill: #1f77b4"/>
   </g>
   <g id="patch_31">
    <path d="M 151.443324 848.521395 
L 224.1546 848.521395 
L 224.1546 848.521395 
L 151.443324 848.521395 
z
" clip-path="url(#p310e92b69d)" style="fill: #1f77b4"/>
   </g>
   <g id="patch_32">
    <path d="M 242.33242 848.521395 
L 315.043696 848.521395 
L 315.043696 845.827468 
L 242.33242 845.827468 
z
" clip-path="url(#p310e92b69d)" style="fill: #1f77b4"/>
   </g>
   <g id="patch_33">
    <path d="M 333.221515 848.521395 
L 405.932791 848.521395 
L 405.932791 751.540024 
L 333.221515 751.540024 
z
" clip-path="url(#p310e92b69d)" style="fill: #1f77b4"/>
   </g>
   <g id="matplotlib.axis_7">
    <g id="xtick_13">
     <g id="line2d_29">
      <g>
       <use xlink:href="#m437badacbf" x="96.909867" y="848.521395" style="stroke: #000000; stroke-width: 0.8"/>
      </g>
     </g>
     <g id="text_32">
      <!-- 0.25 -->
      <g transform="translate(85.777054 863.119832) scale(0.1 -0.1)">
       <use xlink:href="#DejaVuSans-30"/>
       <use xlink:href="#DejaVuSans-2e" transform="translate(63.623047 0)"/>
       <use xlink:href="#DejaVuSans-32" transform="translate(95.410156 0)"/>
       <use xlink:href="#DejaVuSans-35" transform="translate(159.033203 0)"/>
      </g>
     </g>
    </g>
    <g id="xtick_14">
     <g id="line2d_30">
      <g>
       <use xlink:href="#m437badacbf" x="187.798962" y="848.521395" style="stroke: #000000; stroke-width: 0.8"/>
      </g>
     </g>
     <g id="text_33">
      <!-- 0.50 -->
      <g transform="translate(176.66615 863.119832) scale(0.1 -0.1)">
       <use xlink:href="#DejaVuSans-30"/>
       <use xlink:href="#DejaVuSans-2e" transform="translate(63.623047 0)"/>
       <use xlink:href="#DejaVuSans-35" transform="translate(95.410156 0)"/>
       <use xlink:href="#DejaVuSans-30" transform="translate(159.033203 0)"/>
      </g>
     </g>
    </g>
    <g id="xtick_15">
     <g id="line2d_31">
      <g>
       <use xlink:href="#m437badacbf" x="278.688058" y="848.521395" style="stroke: #000000; stroke-width: 0.8"/>
      </g>
     </g>
     <g id="text_34">
      <!-- 0.75 -->
      <g transform="translate(267.555245 863.119832) scale(0.1 -0.1)">
       <use xlink:href="#DejaVuSans-30"/>
       <use xlink:href="#DejaVuSans-2e" transform="translate(63.623047 0)"/>
       <use xlink:href="#DejaVuSans-37" transform="translate(95.410156 0)"/>
       <use xlink:href="#DejaVuSans-35" transform="translate(159.033203 0)"/>
      </g>
     </g>
    </g>
    <g id="xtick_16">
     <g id="line2d_32">
      <g>
       <use xlink:href="#m437badacbf" x="369.577153" y="848.521395" style="stroke: #000000; stroke-width: 0.8"/>
      </g>
     </g>
     <g id="text_35">
      <!-- 1.00 -->
      <g transform="translate(358.444341 863.119832) scale(0.1 -0.1)">
       <use xlink:href="#DejaVuSans-31"/>
       <use xlink:href="#DejaVuSans-2e" transform="translate(63.623047 0)"/>
       <use xlink:href="#DejaVuSans-30" transform="translate(95.410156 0)"/>
       <use xlink:href="#DejaVuSans-30" transform="translate(159.033203 0)"/>
      </g>
     </g>
    </g>
   </g>
   <g id="matplotlib.axis_8">
    <g id="ytick_17">
     <g id="line2d_33">
      <g>
       <use xlink:href="#m0eb42901bd" x="33.2875" y="848.521395" style="stroke: #000000; stroke-width: 0.8"/>
      </g>
     </g>
     <g id="text_36">
      <!-- 0 -->
      <g transform="translate(19.925 852.320614) scale(0.1 -0.1)">
       <use xlink:href="#DejaVuSans-30"/>
      </g>
     </g>
    </g>
    <g id="ytick_18">
     <g id="line2d_34">
      <g>
       <use xlink:href="#m0eb42901bd" x="33.2875" y="821.582125" style="stroke: #000000; stroke-width: 0.8"/>
      </g>
     </g>
     <g id="text_37">
      <!-- 50 -->
      <g transform="translate(13.5625 825.381344) scale(0.1 -0.1)">
       <use xlink:href="#DejaVuSans-35"/>
       <use xlink:href="#DejaVuSans-30" transform="translate(63.623047 0)"/>
      </g>
     </g>
    </g>
    <g id="ytick_19">
     <g id="line2d_35">
      <g>
       <use xlink:href="#m0eb42901bd" x="33.2875" y="794.642855" style="stroke: #000000; stroke-width: 0.8"/>
      </g>
     </g>
     <g id="text_38">
      <!-- 100 -->
      <g transform="translate(7.2 798.442074) scale(0.1 -0.1)">
       <use xlink:href="#DejaVuSans-31"/>
       <use xlink:href="#DejaVuSans-30" transform="translate(63.623047 0)"/>
       <use xlink:href="#DejaVuSans-30" transform="translate(127.246094 0)"/>
      </g>
     </g>
    </g>
    <g id="ytick_20">
     <g id="line2d_36">
      <g>
       <use xlink:href="#m0eb42901bd" x="33.2875" y="767.703585" style="stroke: #000000; stroke-width: 0.8"/>
      </g>
     </g>
     <g id="text_39">
      <!-- 150 -->
      <g transform="translate(7.2 771.502804) scale(0.1 -0.1)">
       <use xlink:href="#DejaVuSans-31"/>
       <use xlink:href="#DejaVuSans-35" transform="translate(63.623047 0)"/>
       <use xlink:href="#DejaVuSans-30" transform="translate(127.246094 0)"/>
      </g>
     </g>
    </g>
    <g id="ytick_21">
     <g id="line2d_37">
      <g>
       <use xlink:href="#m0eb42901bd" x="33.2875" y="740.764316" style="stroke: #000000; stroke-width: 0.8"/>
      </g>
     </g>
     <g id="text_40">
      <!-- 200 -->
      <g transform="translate(7.2 744.563534) scale(0.1 -0.1)">
       <use xlink:href="#DejaVuSans-32"/>
       <use xlink:href="#DejaVuSans-30" transform="translate(63.623047 0)"/>
       <use xlink:href="#DejaVuSans-30" transform="translate(127.246094 0)"/>
      </g>
     </g>
    </g>
    <g id="ytick_22">
     <g id="line2d_38">
      <g>
       <use xlink:href="#m0eb42901bd" x="33.2875" y="713.825046" style="stroke: #000000; stroke-width: 0.8"/>
      </g>
     </g>
     <g id="text_41">
      <!-- 250 -->
      <g transform="translate(7.2 717.624265) scale(0.1 -0.1)">
       <use xlink:href="#DejaVuSans-32"/>
       <use xlink:href="#DejaVuSans-35" transform="translate(63.623047 0)"/>
       <use xlink:href="#DejaVuSans-30" transform="translate(127.246094 0)"/>
      </g>
     </g>
    </g>
    <g id="ytick_23">
     <g id="line2d_39">
      <g>
       <use xlink:href="#m0eb42901bd" x="33.2875" y="686.885776" style="stroke: #000000; stroke-width: 0.8"/>
      </g>
     </g>
     <g id="text_42">
      <!-- 300 -->
      <g transform="translate(7.2 690.684995) scale(0.1 -0.1)">
       <use xlink:href="#DejaVuSans-33"/>
       <use xlink:href="#DejaVuSans-30" transform="translate(63.623047 0)"/>
       <use xlink:href="#DejaVuSans-30" transform="translate(127.246094 0)"/>
      </g>
     </g>
    </g>
   </g>
   <g id="patch_34">
    <path d="M 33.2875 848.521395 
L 33.2875 670.318125 
" style="fill: none; stroke: #000000; stroke-width: 0.8; stroke-linejoin: miter; stroke-linecap: square"/>
   </g>
   <g id="patch_35">
    <path d="M 433.19952 848.521395 
L 433.19952 670.318125 
" style="fill: none; stroke: #000000; stroke-width: 0.8; stroke-linejoin: miter; stroke-linecap: square"/>
   </g>
   <g id="patch_36">
    <path d="M 33.2875 848.521395 
L 433.19952 848.521395 
" style="fill: none; stroke: #000000; stroke-width: 0.8; stroke-linejoin: miter; stroke-linecap: square"/>
   </g>
   <g id="patch_37">
    <path d="M 33.2875 670.318125 
L 433.19952 670.318125 
" style="fill: none; stroke: #000000; stroke-width: 0.8; stroke-linejoin: miter; stroke-linecap: square"/>
   </g>
   <g id="text_43">
    <!-- mean 0.525 stdev 0.360 -->
    <g transform="translate(159.62351 664.318125) scale(0.12 -0.12)">
     <defs>
      <path id="DejaVuSans-36" d="M 2113 2584 
Q 1688 2584 1439 2293 
Q 1191 2003 1191 1497 
Q 1191 994 1439 701 
Q 1688 409 2113 409 
Q 2538 409 2786 701 
Q 3034 994 3034 1497 
Q 3034 2003 2786 2293 
Q 2538 2584 2113 2584 
z
M 3366 4563 
L 3366 3988 
Q 3128 4100 2886 4159 
Q 2644 4219 2406 4219 
Q 1781 4219 1451 3797 
Q 1122 3375 1075 2522 
Q 1259 2794 1537 2939 
Q 1816 3084 2150 3084 
Q 2853 3084 3261 2657 
Q 3669 2231 3669 1497 
Q 3669 778 3244 343 
Q 2819 -91 2113 -91 
Q 1303 -91 875 529 
Q 447 1150 447 2328 
Q 447 3434 972 4092 
Q 1497 4750 2381 4750 
Q 2619 4750 2861 4703 
Q 3103 4656 3366 4563 
z
" transform="scale(0.015625)"/>
     </defs>
     <use xlink:href="#DejaVuSans-6d"/>
     <use xlink:href="#DejaVuSans-65" transform="translate(97.412109 0)"/>
     <use xlink:href="#DejaVuSans-61" transform="translate(158.935547 0)"/>
     <use xlink:href="#DejaVuSans-6e" transform="translate(220.214844 0)"/>
     <use xlink:href="#DejaVuSans-20" transform="translate(283.59375 0)"/>
     <use xlink:href="#DejaVuSans-30" transform="translate(315.380859 0)"/>
     <use xlink:href="#DejaVuSans-2e" transform="translate(379.003906 0)"/>
     <use xlink:href="#DejaVuSans-35" transform="translate(410.791016 0)"/>
     <use xlink:href="#DejaVuSans-32" transform="translate(474.414062 0)"/>
     <use xlink:href="#DejaVuSans-35" transform="translate(538.037109 0)"/>
     <use xlink:href="#DejaVuSans-20" transform="translate(601.660156 0)"/>
     <use xlink:href="#DejaVuSans-73" transform="translate(633.447266 0)"/>
     <use xlink:href="#DejaVuSans-74" transform="translate(685.546875 0)"/>
     <use xlink:href="#DejaVuSans-64" transform="translate(724.755859 0)"/>
     <use xlink:href="#DejaVuSans-65" transform="translate(788.232422 0)"/>
     <use xlink:href="#DejaVuSans-76" transform="translate(849.755859 0)"/>
     <use xlink:href="#DejaVuSans-20" transform="translate(908.935547 0)"/>
     <use xlink:href="#DejaVuSans-30" transform="translate(940.722656 0)"/>
     <use xlink:href="#DejaVuSans-2e" transform="translate(1004.345703 0)"/>
     <use xlink:href="#DejaVuSans-33" transform="translate(1036.132812 0)"/>
     <use xlink:href="#DejaVuSans-36" transform="translate(1099.755859 0)"/>
     <use xlink:href="#DejaVuSans-30" transform="translate(1163.378906 0)"/>
    </g>
   </g>
  </g>
  <g id="axes_5">
   <g id="matplotlib.axis_9"/>
   <g id="line2d_40">
    <path d="M 51.465319 180.896388 
L 55.137606 179.232386 
L 58.809892 177.388961 
L 62.482179 175.354948 
L 66.154466 173.119714 
L 69.826753 170.673383 
L 73.499039 168.00707 
L 77.171326 165.113128 
L 80.843613 161.985404 
L 84.515899 158.619501 
L 88.188186 155.013034 
L 91.860473 151.165884 
L 95.532759 147.080437 
L 99.205046 142.761807 
L 102.877333 138.218029 
L 106.549619 133.460225 
L 110.221906 128.502727 
L 113.894193 123.36316 
L 117.566479 118.062472 
L 121.238766 112.624909 
L 124.911053 107.077935 
L 128.583339 101.452086 
L 132.255626 95.780764 
L 135.927913 90.099967 
L 139.6002 84.447957 
L 143.272486 78.864874 
L 146.944773 73.392283 
L 150.61706 68.072694 
L 154.289346 62.949018 
L 157.961633 58.064013 
L 161.63392 53.459692 
L 165.306206 49.17673 
L 168.978493 45.253869 
L 172.65078 41.727339 
L 176.323066 38.630299 
L 179.995353 35.99232 
L 183.66764 33.838915 
L 187.339926 32.191131 
L 191.012213 31.065201 
L 194.6845 30.472283 
L 198.356786 30.418274 
L 202.029073 30.903711 
L 205.70136 31.923765 
L 209.373647 33.468318 
L 213.045933 35.522133 
L 216.71822 38.065101 
L 220.390507 41.072571 
L 224.062793 44.515748 
L 227.73508 48.36215 
L 231.407367 52.576119 
L 235.079653 57.119369 
L 238.75194 61.951565 
L 242.424227 67.030911 
L 246.096513 72.314754 
L 249.7688 77.760166 
L 253.441087 83.324514 
L 257.113373 88.966002 
L 260.78566 94.644168 
L 264.457947 100.320343 
L 268.130234 105.958046 
L 271.80252 111.523333 
L 275.474807 116.985076 
L 279.147094 122.315183 
L 282.81938 127.488756 
L 286.491667 132.484184 
L 290.163954 137.283178 
L 293.83624 141.870752 
L 297.508527 146.235151 
L 301.180814 150.367735 
L 304.8531 154.26282 
L 308.525387 157.917491 
L 312.197674 161.331385 
L 315.86996 164.506454 
L 319.542247 167.446712 
L 323.214534 170.157983 
L 326.88682 172.647636 
L 330.559107 174.924327 
L 334.231394 176.997755 
L 337.903681 178.878418 
L 341.575967 180.577393 
L 345.248254 182.106128 
L 348.920541 183.476256 
L 352.592827 184.699425 
L 356.265114 185.787155 
L 359.937401 186.750709 
L 363.609687 187.600988 
L 367.281974 188.348449 
L 370.954261 189.003033 
L 374.626547 189.574119 
L 378.298834 190.070487 
L 381.971121 190.500302 
L 385.643407 190.871103 
L 389.315694 191.189809 
L 392.987981 191.462728 
L 396.660267 191.695578 
L 400.332554 191.893516 
L 404.004841 192.061162 
L 407.677128 192.202636 
L 411.349414 192.321589 
L 415.021701 192.421246 
" clip-path="url(#p11571a93a2)" style="fill: none; stroke: #ffa500; stroke-width: 1.5; stroke-linecap: square"/>
   </g>
   <g id="patch_38">
    <path d="M 33.2875 200.521395 
L 33.2875 22.318125 
" style="fill: none; stroke: #000000; stroke-width: 0.8; stroke-linejoin: miter; stroke-linecap: square"/>
   </g>
   <g id="patch_39">
    <path d="M 433.19952 200.521395 
L 433.19952 22.318125 
" style="fill: none; stroke: #000000; stroke-width: 0.8; stroke-linejoin: miter; stroke-linecap: square"/>
   </g>
   <g id="patch_40">
    <path d="M 33.2875 200.521395 
L 433.19952 200.521395 
" style="fill: none; stroke: #000000; stroke-width: 0.8; stroke-linejoin: miter; stroke-linecap: square"/>
   </g>
   <g id="patch_41">
    <path d="M 33.2875 22.318125 
L 433.19952 22.318125 
" style="fill: none; stroke: #000000; stroke-width: 0.8; stroke-linejoin: miter; stroke-linecap: square"/>
   </g>
  </g>
  <g id="axes_6">
   <g id="matplotlib.axis_10"/>
   <g id="line2d_41">
    <path d="M 51.465319 408.421135 
L 55.137606 408.421021 
L 58.809892 408.420797 
L 62.482179 408.420366 
L 66.154466 408.419555 
L 69.826753 408.418053 
L 73.499039 408.415326 
L 77.171326 408.410468 
L 80.843613 408.401975 
L 84.515899 408.387408 
L 88.188186 408.362894 
L 91.860473 408.322429 
L 95.532759 408.256904 
L 99.205046 408.152833 
L 102.877333 407.990722 
L 106.549619 407.743092 
L 110.221906 407.372192 
L 113.894193 406.82755 
L 117.566479 406.043577 
L 121.238766 404.937589 
L 124.911053 403.40871 
L 128.583339 401.338235 
L 132.255626 398.592084 
L 135.927913 395.025921 
L 139.6002 390.493396 
L 143.272486 384.85766 
L 146.944773 378.005901 
L 150.61706 369.866103 
L 154.289346 360.424689 
L 157.961633 349.743144 
L 161.63392 337.971371 
L 165.306206 325.35538 
L 168.978493 312.237171 
L 172.65078 299.045269 
L 176.323066 286.275339 
L 179.995353 274.461569 
L 183.66764 264.140802 
L 187.339926 255.812633 
L 191.012213 249.899508 
L 194.6845 246.711274 
L 198.356786 246.418274 
L 202.029073 249.036276 
L 205.70136 254.425067 
L 209.373647 262.300888 
L 213.045933 272.261193 
L 216.71822 283.818706 
L 220.390507 296.440777 
L 224.062793 309.589636 
L 227.73508 322.759355 
L 231.407367 335.506118 
L 235.079653 347.469544 
L 238.75194 358.384135 
L 242.424227 368.08116 
L 246.096513 376.482372 
L 249.7688 383.587593 
L 253.441087 389.458563 
L 257.113373 394.201325 
L 260.78566 397.94917 
L 264.457947 400.847573 
L 268.130234 403.042035 
L 271.80252 404.669195 
L 275.474807 405.851104 
L 279.147094 406.692291 
L 282.81938 407.279029 
L 286.491667 407.680189 
L 290.163954 407.949082 
L 293.83624 408.125804 
L 297.508527 408.239699 
L 301.180814 408.311688 
L 304.8531 408.356317 
L 308.525387 408.383457 
L 312.197674 408.399647 
L 315.86996 408.409122 
L 319.542247 408.414563 
L 323.214534 408.417628 
L 326.88682 408.419323 
L 330.559107 408.420242 
L 334.231394 408.420731 
L 337.903681 408.420987 
L 341.575967 408.421118 
L 345.248254 408.421184 
L 348.920541 408.421217 
L 352.592827 408.421232 
L 356.265114 408.42124 
L 359.937401 408.421243 
L 363.609687 408.421245 
L 367.281974 408.421246 
L 370.954261 408.421246 
L 374.626547 408.421246 
L 378.298834 408.421246 
L 381.971121 408.421246 
L 385.643407 408.421246 
L 389.315694 408.421246 
L 392.987981 408.421246 
L 396.660267 408.421246 
L 400.332554 408.421246 
L 404.004841 408.421246 
L 407.677128 408.421246 
L 411.349414 408.421246 
L 415.021701 408.421246 
" clip-path="url(#pb9e25ce7f7)" style="fill: none; stroke: #ffa500; stroke-width: 1.5; stroke-linecap: square"/>
   </g>
   <g id="patch_42">
    <path d="M 33.2875 416.521395 
L 33.2875 238.318125 
" style="fill: none; stroke: #000000; stroke-width: 0.8; stroke-linejoin: miter; stroke-linecap: square"/>
   </g>
   <g id="patch_43">
    <path d="M 433.19952 416.521395 
L 433.19952 238.318125 
" style="fill: none; stroke: #000000; stroke-width: 0.8; stroke-linejoin: miter; stroke-linecap: square"/>
   </g>
   <g id="patch_44">
    <path d="M 33.2875 416.521395 
L 433.19952 416.521395 
" style="fill: none; stroke: #000000; stroke-width: 0.8; stroke-linejoin: miter; stroke-linecap: square"/>
   </g>
   <g id="patch_45">
    <path d="M 33.2875 238.318125 
L 433.19952 238.318125 
" style="fill: none; stroke: #000000; stroke-width: 0.8; stroke-linejoin: miter; stroke-linecap: square"/>
   </g>
  </g>
  <g id="axes_7">
   <g id="matplotlib.axis_11"/>
   <g id="line2d_42">
    <path d="M 51.465319 579.500842 
L 55.137606 576.156598 
L 58.809892 572.721059 
L 62.482179 569.198991 
L 66.154466 565.595773 
L 69.826753 561.917402 
L 73.499039 558.170493 
L 77.171326 554.362266 
L 80.843613 550.500543 
L 84.515899 546.593722 
L 88.188186 542.650766 
L 91.860473 538.68117 
L 95.532759 534.694935 
L 99.205046 530.702529 
L 102.877333 526.71485 
L 106.549619 522.743179 
L 110.221906 518.799135 
L 113.894193 514.894617 
L 117.566479 511.041751 
L 121.238766 507.252828 
L 124.911053 503.540242 
L 128.583339 499.916424 
L 132.255626 496.393772 
L 135.927913 492.984584 
L 139.6002 489.700988 
L 143.272486 486.554867 
L 146.944773 483.557793 
L 150.61706 480.72095 
L 154.289346 478.055073 
L 157.961633 475.57037 
L 161.63392 473.276469 
L 165.306206 471.182347 
L 168.978493 469.296273 
L 172.65078 467.625759 
L 176.323066 466.177502 
L 179.995353 464.957346 
L 183.66764 463.97024 
L 187.339926 463.220204 
L 191.012213 462.710304 
L 194.6845 462.442628 
L 198.356786 462.418274 
L 202.029073 462.637341 
L 205.70136 463.098933 
L 209.373647 463.801155 
L 213.045933 464.741139 
L 216.71822 465.915051 
L 220.390507 467.318127 
L 224.062793 468.9447 
L 227.73508 470.788237 
L 231.407367 472.841388 
L 235.079653 475.096029 
L 238.75194 477.543321 
L 242.424227 480.173763 
L 246.096513 482.977255 
L 249.7688 485.943165 
L 253.441087 489.06039 
L 257.113373 492.317433 
L 260.78566 495.702466 
L 264.457947 499.203405 
L 268.130234 502.80798 
L 271.80252 506.503807 
L 275.474807 510.278456 
L 279.147094 514.119521 
L 282.81938 518.014684 
L 286.491667 521.951783 
L 290.163954 525.918868 
L 293.83624 529.904259 
L 297.508527 533.896605 
L 301.180814 537.884926 
L 304.8531 541.858665 
L 308.525387 545.807725 
L 312.197674 549.722507 
L 315.86996 553.593941 
L 319.542247 557.413511 
L 323.214534 561.173281 
L 326.88682 564.865908 
L 330.559107 568.484656 
L 334.231394 572.023405 
L 337.903681 575.47665 
L 341.575967 578.839505 
L 345.248254 582.107695 
L 348.920541 585.277547 
L 352.592827 588.345979 
L 356.265114 591.310483 
L 359.937401 594.169107 
L 363.609687 596.920433 
L 367.281974 599.563554 
L 370.954261 602.09805 
L 374.626547 604.523954 
L 378.298834 606.841735 
L 381.971121 609.052255 
L 385.643407 611.15675 
L 389.315694 613.156792 
L 392.987981 615.054259 
L 396.660267 616.851309 
L 400.332554 618.550341 
L 404.004841 620.153972 
L 407.677128 621.665005 
L 411.349414 623.0864 
L 415.021701 624.421246 
" clip-path="url(#p238a447f64)" style="fill: none; stroke: #ffa500; stroke-width: 1.5; stroke-linecap: square"/>
   </g>
   <g id="patch_46">
    <path d="M 33.2875 632.521395 
L 33.2875 454.318125 
" style="fill: none; stroke: #000000; stroke-width: 0.8; stroke-linejoin: miter; stroke-linecap: square"/>
   </g>
   <g id="patch_47">
    <path d="M 433.19952 632.521395 
L 433.19952 454.318125 
" style="fill: none; stroke: #000000; stroke-width: 0.8; stroke-linejoin: miter; stroke-linecap: square"/>
   </g>
   <g id="patch_48">
    <path d="M 33.2875 632.521395 
L 433.19952 632.521395 
" style="fill: none; stroke: #000000; stroke-width: 0.8; stroke-linejoin: miter; stroke-linecap: square"/>
   </g>
   <g id="patch_49">
    <path d="M 33.2875 454.318125 
L 433.19952 454.318125 
" style="fill: none; stroke: #000000; stroke-width: 0.8; stroke-linejoin: miter; stroke-linecap: square"/>
   </g>
  </g>
  <g id="axes_8">
   <g id="matplotlib.axis_12"/>
   <g id="line2d_43">
    <path d="M 51.465319 777.810095 
L 55.137606 774.170524 
L 58.809892 770.514645 
L 62.482179 766.847803 
L 66.154466 763.175529 
L 69.826753 759.503526 
L 73.499039 755.837662 
L 77.171326 752.18395 
L 80.843613 748.548537 
L 84.515899 744.937683 
L 88.188186 741.35775 
L 91.860473 737.815179 
L 95.532759 734.316475 
L 99.205046 730.868185 
L 102.877333 727.476881 
L 106.549619 724.149138 
L 110.221906 720.891511 
L 113.894193 717.710518 
L 117.566479 714.612618 
L 121.238766 711.604184 
L 124.911053 708.691489 
L 128.583339 705.880679 
L 132.255626 703.177753 
L 135.927913 700.588543 
L 139.6002 698.118692 
L 143.272486 695.773633 
L 146.944773 693.558569 
L 150.61706 691.478456 
L 154.289346 689.537984 
L 157.961633 687.741555 
L 161.63392 686.093274 
L 165.306206 684.596926 
L 168.978493 683.255966 
L 172.65078 682.073505 
L 176.323066 681.052298 
L 179.995353 680.19473 
L 183.66764 679.502813 
L 187.339926 678.978171 
L 191.012213 678.622041 
L 194.6845 678.435262 
L 198.356786 678.418274 
L 202.029073 678.571117 
L 205.70136 678.893432 
L 209.373647 679.384457 
L 213.045933 680.043037 
L 216.71822 680.867623 
L 220.390507 681.856282 
L 224.062793 683.006701 
L 227.73508 684.316198 
L 231.407367 685.781734 
L 235.079653 687.399921 
L 238.75194 689.167039 
L 242.424227 691.079045 
L 246.096513 693.131596 
L 249.7688 695.320058 
L 253.441087 697.639527 
L 257.113373 700.084847 
L 260.78566 702.65063 
L 264.457947 705.331274 
L 268.130234 708.120982 
L 271.80252 711.013787 
L 275.474807 714.003571 
L 279.147094 717.084086 
L 282.81938 720.248974 
L 286.491667 723.491794 
L 290.163954 726.806037 
L 293.83624 730.185155 
L 297.508527 733.622573 
L 301.180814 737.11172 
L 304.8531 740.646039 
L 308.525387 744.219018 
L 312.197674 747.824199 
L 315.86996 751.455205 
L 319.542247 755.105753 
L 323.214534 758.769672 
L 326.88682 762.440921 
L 330.559107 766.113603 
L 334.231394 769.781979 
L 337.903681 773.440484 
L 341.575967 777.083735 
L 345.248254 780.706546 
L 348.920541 784.303937 
L 352.592827 787.871141 
L 356.265114 791.403616 
L 359.937401 794.89705 
L 363.609687 798.347363 
L 367.281974 801.75072 
L 370.954261 805.103525 
L 374.626547 808.402431 
L 378.298834 811.644337 
L 381.971121 814.82639 
L 385.643407 817.945984 
L 389.315694 821.000761 
L 392.987981 823.988604 
L 396.660267 826.907637 
L 400.332554 829.75622 
L 404.004841 832.532946 
L 407.677128 835.236631 
L 411.349414 837.866314 
L 415.021701 840.421246 
" clip-path="url(#p310e92b69d)" style="fill: none; stroke: #ffa500; stroke-width: 1.5; stroke-linecap: square"/>
   </g>
   <g id="patch_50">
    <path d="M 33.2875 848.521395 
L 33.2875 670.318125 
" style="fill: none; stroke: #000000; stroke-width: 0.8; stroke-linejoin: miter; stroke-linecap: square"/>
   </g>
   <g id="patch_51">
    <path d="M 433.19952 848.521395 
L 433.19952 670.318125 
" style="fill: none; stroke: #000000; stroke-width: 0.8; stroke-linejoin: miter; stroke-linecap: square"/>
   </g>
   <g id="patch_52">
    <path d="M 33.2875 848.521395 
L 433.19952 848.521395 
" style="fill: none; stroke: #000000; stroke-width: 0.8; stroke-linejoin: miter; stroke-linecap: square"/>
   </g>
   <g id="patch_53">
    <path d="M 33.2875 670.318125 
L 433.19952 670.318125 
" style="fill: none; stroke: #000000; stroke-width: 0.8; stroke-linejoin: miter; stroke-linecap: square"/>
   </g>
  </g>
 </g>
 <defs>
  <clipPath id="p11571a93a2">
   <rect x="33.2875" y="22.318125" width="399.91202" height="178.20327"/>
  </clipPath>
  <clipPath id="pb9e25ce7f7">
   <rect x="33.2875" y="238.318125" width="399.91202" height="178.20327"/>
  </clipPath>
  <clipPath id="p238a447f64">
   <rect x="33.2875" y="454.318125" width="399.91202" height="178.20327"/>
  </clipPath>
  <clipPath id="p310e92b69d">
   <rect x="33.2875" y="670.318125" width="399.91202" height="178.20327"/>
  </clipPath>
 </defs>
</svg>
