<?xml version="1.0" encoding="utf-8" standalone="no"?>
<!DOCTYPE svg PUBLIC "-//W3C//DTD SVG 1.1//EN"
  "http://www.w3.org/Graphics/SVG/1.1/DTD/svg11.dtd">
<svg xmlns:xlink="http://www.w3.org/1999/xlink" width="414.46375pt" height="314.667469pt" viewBox="0 0 414.46375 314.667469" xmlns="http://www.w3.org/2000/svg" version="1.1">
 <metadata>
  <rdf:RDF xmlns:dc="http://purl.org/dc/elements/1.1/" xmlns:cc="http://creativecommons.org/ns#" xmlns:rdf="http://www.w3.org/1999/02/22-rdf-syntax-ns#">
   <cc:Work>
    <dc:type rdf:resource="http://purl.org/dc/dcmitype/StillImage"/>
    <dc:date>2025-09-29T19:44:00.859758</dc:date>
    <dc:format>image/svg+xml</dc:format>
    <dc:creator>
     <cc:Agent>
      <dc:title>Matplotlib v3.10.6, https://matplotlib.org/</dc:title>
     </cc:Agent>
    </dc:creator>
   </cc:Work>
  </rdf:RDF>
 </metadata>
 <defs>
  <style type="text/css">*{stroke-linejoin: round; stroke-linecap: butt}</style>
 </defs>
 <g id="figure_1">
  <g id="patch_1">
   <path d="M 0 314.667469 
L 414.46375 314.667469 
L 414.46375 0 
L 0 0 
z
" style="fill: #ffffff"/>
  </g>
  <g id="axes_1">
   <g id="patch_2">
    <path d="M 43.78125 277.111219 
L 400.90125 277.111219 
L 400.90125 10.999219 
L 43.78125 10.999219 
z
" style="fill: #ffffff"/>
   </g>
   <g id="FillBetweenPolyCollection_1">
    <path d="M 43.78125 223.888819 
L 43.78125 277.111219 
L 44.97165 277.111219 
L 46.16205 277.111219 
L 47.35245 277.111219 
L 48.54285 277.111219 
L 49.73325 277.111219 
L 50.92365 277.111219 
L 52.11405 277.111219 
L 53.30445 277.111219 
L 54.49485 277.111219 
L 55.68525 277.111219 
L 56.87565 277.111219 
L 58.06605 277.111219 
L 59.25645 277.111219 
L 60.44685 277.111219 
L 61.63725 277.111219 
L 62.82765 277.111219 
L 64.01805 277.111219 
L 65.20845 277.111219 
L 66.39885 277.111219 
L 67.58925 277.111219 
L 68.77965 277.111219 
L 69.97005 277.111219 
L 71.16045 277.111219 
L 72.35085 277.111219 
L 73.54125 277.111219 
L 74.73165 277.111219 
L 75.92205 277.111219 
L 77.11245 277.111219 
L 78.30285 277.111219 
L 79.49325 277.111219 
L 80.68365 277.111219 
L 81.87405 277.111219 
L 83.06445 277.111219 
L 84.25485 277.111219 
L 85.44525 277.111219 
L 86.63565 277.111219 
L 87.82605 277.111219 
L 89.01645 277.111219 
L 90.20685 277.111219 
L 91.39725 277.111219 
L 92.58765 277.111219 
L 93.77805 277.111219 
L 94.96845 277.111219 
L 96.15885 277.111219 
L 97.34925 277.111219 
L 98.53965 277.111219 
L 99.73005 277.111219 
L 100.92045 277.111219 
L 102.11085 277.111219 
L 103.30125 277.111219 
L 104.49165 277.111219 
L 105.68205 277.111219 
L 106.87245 277.111219 
L 108.06285 277.111219 
L 109.25325 277.111219 
L 110.44365 277.111219 
L 111.63405 277.111219 
L 112.82445 277.111219 
L 114.01485 277.111219 
L 115.20525 277.111219 
L 116.39565 277.111219 
L 117.58605 277.111219 
L 118.77645 277.111219 
L 119.96685 277.111219 
L 121.15725 277.111219 
L 122.34765 277.111219 
L 123.53805 277.111219 
L 124.72845 277.111219 
L 125.91885 277.111219 
L 127.10925 277.111219 
L 128.29965 277.111219 
L 129.49005 277.111219 
L 130.68045 277.111219 
L 131.87085 277.111219 
L 133.06125 277.111219 
L 134.25165 277.111219 
L 135.44205 277.111219 
L 136.63245 277.111219 
L 137.82285 277.111219 
L 139.01325 277.111219 
L 140.20365 277.111219 
L 141.39405 277.111219 
L 142.58445 277.111219 
L 143.77485 277.111219 
L 144.96525 277.111219 
L 146.15565 277.111219 
L 147.34605 277.111219 
L 148.53645 277.111219 
L 149.72685 277.111219 
L 150.91725 277.111219 
L 152.10765 277.111219 
L 153.29805 277.111219 
L 154.48845 277.111219 
L 155.67885 277.111219 
L 156.86925 277.111219 
L 158.05965 277.111219 
L 159.25005 277.111219 
L 160.44045 277.111219 
L 161.63085 277.111219 
L 162.82125 277.111219 
L 164.01165 277.111219 
L 165.20205 277.111219 
L 166.39245 277.111219 
L 167.58285 277.111219 
L 168.77325 277.111219 
L 169.96365 277.111219 
L 171.15405 277.111219 
L 172.34445 277.111219 
L 173.53485 277.111219 
L 174.72525 277.111219 
L 175.91565 277.111219 
L 177.10605 277.111219 
L 178.29645 277.111219 
L 179.48685 277.111219 
L 180.67725 277.111219 
L 181.86765 277.111219 
L 183.05805 277.111219 
L 184.24845 277.111219 
L 185.43885 277.111219 
L 186.62925 277.111219 
L 187.81965 277.111219 
L 189.01005 277.111219 
L 190.20045 277.111219 
L 191.39085 277.111219 
L 192.58125 277.111219 
L 193.77165 277.111219 
L 194.96205 277.111219 
L 196.15245 277.111219 
L 197.34285 277.111219 
L 198.53325 277.111219 
L 199.72365 277.111219 
L 200.91405 277.111219 
L 202.10445 277.111219 
L 203.29485 277.111219 
L 204.48525 277.111219 
L 205.67565 277.111219 
L 206.86605 277.111219 
L 208.05645 277.111219 
L 209.24685 277.111219 
L 210.43725 277.111219 
L 211.62765 277.111219 
L 212.81805 277.111219 
L 214.00845 277.111219 
L 215.19885 277.111219 
L 216.38925 277.111219 
L 217.57965 277.111219 
L 218.77005 277.111219 
L 219.96045 277.111219 
L 221.15085 277.111219 
L 222.34125 277.111219 
L 223.53165 277.111219 
L 224.72205 277.111219 
L 225.91245 277.111219 
L 227.10285 277.111219 
L 228.29325 277.111219 
L 229.48365 277.111219 
L 230.67405 277.111219 
L 231.86445 277.111219 
L 233.05485 277.111219 
L 234.24525 277.111219 
L 235.43565 277.111219 
L 236.62605 277.111219 
L 237.81645 277.111219 
L 239.00685 277.111219 
L 240.19725 277.111219 
L 241.38765 277.111219 
L 242.57805 277.111219 
L 243.76845 277.111219 
L 244.95885 277.111219 
L 246.14925 277.111219 
L 247.33965 277.111219 
L 248.53005 277.111219 
L 249.72045 277.111219 
L 250.91085 277.111219 
L 252.10125 277.111219 
L 253.29165 277.111219 
L 254.48205 277.111219 
L 255.67245 277.111219 
L 256.86285 277.111219 
L 258.05325 277.111219 
L 259.24365 277.111219 
L 260.43405 277.111219 
L 261.62445 277.111219 
L 262.81485 277.111219 
L 264.00525 277.111219 
L 265.19565 277.111219 
L 266.38605 277.111219 
L 267.57645 277.111219 
L 268.76685 277.111219 
L 269.95725 277.111219 
L 271.14765 277.111219 
L 272.33805 277.111219 
L 273.52845 277.111219 
L 274.71885 277.111219 
L 275.90925 277.111219 
L 277.09965 277.111219 
L 278.29005 277.111219 
L 279.48045 277.111219 
L 280.67085 277.111219 
L 281.86125 277.111219 
L 283.05165 277.111219 
L 284.24205 277.111219 
L 285.43245 277.111219 
L 286.62285 277.111219 
L 287.81325 277.111219 
L 289.00365 277.111219 
L 290.19405 277.111219 
L 291.38445 277.111219 
L 292.57485 277.111219 
L 293.76525 277.111219 
L 294.95565 277.111219 
L 296.14605 277.111219 
L 297.33645 277.111219 
L 298.52685 277.111219 
L 299.71725 277.111219 
L 300.90765 277.111219 
L 302.09805 277.111219 
L 303.28845 277.111219 
L 304.47885 277.111219 
L 305.66925 277.111219 
L 306.85965 277.111219 
L 308.05005 277.111219 
L 309.24045 277.111219 
L 310.43085 277.111219 
L 311.62125 277.111219 
L 312.81165 277.111219 
L 314.00205 277.111219 
L 315.19245 277.111219 
L 316.38285 277.111219 
L 317.57325 277.111219 
L 318.76365 277.111219 
L 319.95405 277.111219 
L 321.14445 277.111219 
L 322.33485 277.111219 
L 323.52525 277.111219 
L 324.71565 277.111219 
L 325.90605 277.111219 
L 327.09645 277.111219 
L 328.28685 277.111219 
L 329.47725 277.111219 
L 330.66765 277.111219 
L 331.85805 277.111219 
L 333.04845 277.111219 
L 334.23885 277.111219 
L 335.42925 277.111219 
L 336.61965 277.111219 
L 337.81005 277.111219 
L 339.00045 277.111219 
L 340.19085 277.111219 
L 341.38125 277.111219 
L 342.57165 277.111219 
L 343.76205 277.111219 
L 344.95245 277.111219 
L 346.14285 277.111219 
L 347.33325 277.111219 
L 348.52365 277.111219 
L 349.71405 277.111219 
L 350.90445 277.111219 
L 352.09485 277.111219 
L 353.28525 277.111219 
L 354.47565 277.111219 
L 355.66605 277.111219 
L 356.85645 277.111219 
L 358.04685 277.111219 
L 359.23725 277.111219 
L 360.42765 277.111219 
L 361.61805 277.111219 
L 362.80845 277.111219 
L 363.99885 277.111219 
L 365.18925 277.111219 
L 366.37965 277.111219 
L 367.57005 277.111219 
L 368.76045 277.111219 
L 369.95085 277.111219 
L 371.14125 277.111219 
L 372.33165 277.111219 
L 373.52205 277.111219 
L 374.71245 277.111219 
L 375.90285 277.111219 
L 377.09325 277.111219 
L 378.28365 277.111219 
L 379.47405 277.111219 
L 380.66445 277.111219 
L 381.85485 277.111219 
L 383.04525 277.111219 
L 384.23565 277.111219 
L 385.42605 277.111219 
L 386.61645 277.111219 
L 387.80685 277.111219 
L 388.99725 277.111219 
L 390.18765 277.111219 
L 391.37805 277.111219 
L 392.56845 277.111219 
L 393.75885 277.111219 
L 394.94925 277.111219 
L 396.13965 277.111219 
L 397.33005 277.111219 
L 398.52045 277.111219 
L 399.71085 277.111219 
L 399.71085 277.111219 
L 399.71085 277.111219 
L 398.52045 277.111219 
L 397.33005 277.111219 
L 396.13965 277.111218 
L 394.94925 277.111218 
L 393.75885 277.111218 
L 392.56845 277.111218 
L 391.37805 277.111218 
L 390.18765 277.111218 
L 388.99725 277.111218 
L 387.80685 277.111218 
L 386.61645 277.111218 
L 385.42605 277.111218 
L 384.23565 277.111218 
L 383.04525 277.111218 
L 381.85485 277.111218 
L 380.66445 277.111218 
L 379.47405 277.111218 
L 378.28365 277.111218 
L 377.09325 277.111218 
L 375.90285 277.111218 
L 374.71245 277.111218 
L 373.52205 277.111218 
L 372.33165 277.111218 
L 371.14125 277.111218 
L 369.95085 277.111218 
L 368.76045 277.111217 
L 367.57005 277.111217 
L 366.37965 277.111217 
L 365.18925 277.111217 
L 363.99885 277.111217 
L 362.80845 277.111217 
L 361.61805 277.111217 
L 360.42765 277.111217 
L 359.23725 277.111217 
L 358.04685 277.111216 
L 356.85645 277.111216 
L 355.66605 277.111216 
L 354.47565 277.111216 
L 353.28525 277.111216 
L 352.09485 277.111215 
L 350.90445 277.111215 
L 349.71405 277.111215 
L 348.52365 277.111215 
L 347.33325 277.111214 
L 346.14285 277.111214 
L 344.95245 277.111214 
L 343.76205 277.111213 
L 342.57165 277.111213 
L 341.38125 277.111213 
L 340.19085 277.111212 
L 339.00045 277.111212 
L 337.81005 277.111211 
L 336.61965 277.111211 
L 335.42925 277.11121 
L 334.23885 277.11121 
L 333.04845 277.111209 
L 331.85805 277.111208 
L 330.66765 277.111208 
L 329.47725 277.111207 
L 328.28685 277.111206 
L 327.09645 277.111205 
L 325.90605 277.111204 
L 324.71565 277.111203 
L 323.52525 277.111202 
L 322.33485 277.111201 
L 321.14445 277.1112 
L 319.95405 277.111198 
L 318.76365 277.111197 
L 317.57325 277.111195 
L 316.38285 277.111194 
L 315.19245 277.111192 
L 314.00205 277.11119 
L 312.81165 277.111188 
L 311.62125 277.111186 
L 310.43085 277.111184 
L 309.24045 277.111181 
L 308.05005 277.111179 
L 306.85965 277.111176 
L 305.66925 277.111173 
L 304.47885 277.11117 
L 303.28845 277.111166 
L 302.09805 277.111162 
L 300.90765 277.111158 
L 299.71725 277.111154 
L 298.52685 277.11115 
L 297.33645 277.111145 
L 296.14605 277.11114 
L 294.95565 277.111134 
L 293.76525 277.111128 
L 292.57485 277.111122 
L 291.38445 277.111115 
L 290.19405 277.111108 
L 289.00365 277.1111 
L 287.81325 277.111092 
L 286.62285 277.111083 
L 285.43245 277.111074 
L 284.24205 277.111064 
L 283.05165 277.111053 
L 281.86125 277.111041 
L 280.67085 277.111029 
L 279.48045 277.111016 
L 278.29005 277.111002 
L 277.09965 277.110987 
L 275.90925 277.11097 
L 274.71885 277.110953 
L 273.52845 277.110935 
L 272.33805 277.110915 
L 271.14765 277.110894 
L 269.95725 277.110871 
L 268.76685 277.110847 
L 267.57645 277.110821 
L 266.38605 277.110794 
L 265.19565 277.110764 
L 264.00525 277.110733 
L 262.81485 277.110699 
L 261.62445 277.110663 
L 260.43405 277.110624 
L 259.24365 277.110583 
L 258.05325 277.110539 
L 256.86285 277.110492 
L 255.67245 277.110441 
L 254.48205 277.110388 
L 253.29165 277.11033 
L 252.10125 277.110268 
L 250.91085 277.110203 
L 249.72045 277.110132 
L 248.53005 277.110057 
L 247.33965 277.109977 
L 246.14925 277.109891 
L 244.95885 277.109799 
L 243.76845 277.109701 
L 242.57805 277.109596 
L 241.38765 277.109484 
L 240.19725 277.109364 
L 239.00685 277.109236 
L 237.81645 277.109099 
L 236.62605 277.108953 
L 235.43565 277.108797 
L 234.24525 277.108629 
L 233.05485 277.108451 
L 231.86445 277.10826 
L 230.67405 277.108056 
L 229.48365 277.107838 
L 228.29325 277.107606 
L 227.10285 277.107357 
L 225.91245 277.107091 
L 224.72205 277.106807 
L 223.53165 277.106504 
L 222.34125 277.10618 
L 221.15085 277.105833 
L 219.96045 277.105463 
L 218.77005 277.105068 
L 217.57965 277.104646 
L 216.38925 277.104195 
L 215.19885 277.103713 
L 214.00845 277.103198 
L 212.81805 277.102648 
L 211.62765 277.10206 
L 210.43725 277.101433 
L 209.24685 277.100763 
L 208.05645 277.100047 
L 206.86605 277.099282 
L 205.67565 277.098466 
L 204.48525 277.097594 
L 203.29485 277.096662 
L 202.10445 277.095668 
L 200.91405 277.094606 
L 199.72365 277.093472 
L 198.53325 277.09226 
L 197.34285 277.090967 
L 196.15245 277.089586 
L 194.96205 277.088112 
L 193.77165 277.086538 
L 192.58125 277.084857 
L 191.39085 277.083063 
L 190.20045 277.081148 
L 189.01005 277.079103 
L 187.81965 277.07692 
L 186.62925 277.07459 
L 185.43885 277.072103 
L 184.24845 277.069448 
L 183.05805 277.066614 
L 181.86765 277.06359 
L 180.67725 277.060362 
L 179.48685 277.056918 
L 178.29645 277.053242 
L 177.10605 277.049319 
L 175.91565 277.045133 
L 174.72525 277.040666 
L 173.53485 277.035901 
L 172.34445 277.030816 
L 171.15405 277.025391 
L 169.96365 277.019603 
L 168.77325 277.013429 
L 167.58285 277.006842 
L 166.39245 276.999816 
L 165.20205 276.992322 
L 164.01165 276.984329 
L 162.82125 276.975804 
L 161.63085 276.966712 
L 160.44045 276.957016 
L 159.25005 276.946676 
L 158.05965 276.935651 
L 156.86925 276.923894 
L 155.67885 276.91136 
L 154.48845 276.897996 
L 153.29805 276.883749 
L 152.10765 276.868561 
L 150.91725 276.852372 
L 149.72685 276.835116 
L 148.53645 276.816723 
L 147.34605 276.797121 
L 146.15565 276.776232 
L 144.96525 276.753971 
L 143.77485 276.730251 
L 142.58445 276.704978 
L 141.39405 276.678052 
L 140.20365 276.649367 
L 139.01325 276.618809 
L 137.82285 276.586261 
L 136.63245 276.551594 
L 135.44205 276.514673 
L 134.25165 276.475355 
L 133.06125 276.433488 
L 131.87085 276.38891 
L 130.68045 276.34145 
L 129.49005 276.290927 
L 128.29965 276.237146 
L 127.10925 276.179905 
L 125.91885 276.118985 
L 124.72845 276.054156 
L 123.53805 275.985176 
L 122.34765 275.911785 
L 121.15725 275.83371 
L 119.96685 275.750661 
L 118.77645 275.662332 
L 117.58605 275.568397 
L 116.39565 275.468513 
L 115.20525 275.362316 
L 114.01485 275.249422 
L 112.82445 275.129424 
L 111.63405 275.001892 
L 110.44365 274.866373 
L 109.25325 274.722387 
L 108.06285 274.569428 
L 106.87245 274.406962 
L 105.68205 274.234426 
L 104.49165 274.051226 
L 103.30125 273.856736 
L 102.11085 273.650297 
L 100.92045 273.431216 
L 99.73005 273.198763 
L 98.53965 272.95217 
L 97.34925 272.690631 
L 96.15885 272.413299 
L 94.96845 272.119285 
L 93.77805 271.807658 
L 92.58765 271.477441 
L 91.39725 271.127611 
L 90.20685 270.7571 
L 89.01645 270.36479 
L 87.82605 269.949513 
L 86.63565 269.510052 
L 85.44525 269.045138 
L 84.25485 268.553452 
L 83.06445 268.03362 
L 81.87405 267.484219 
L 80.68365 266.90377 
L 79.49325 266.290744 
L 78.30285 265.64356 
L 77.11245 264.960586 
L 75.92205 264.240143 
L 74.73165 263.480501 
L 73.54125 262.679887 
L 72.35085 261.836486 
L 71.16045 260.948442 
L 69.97005 260.013866 
L 68.77965 259.030838 
L 67.58925 257.99741 
L 66.39885 256.911619 
L 65.20845 255.771486 
L 64.01805 254.575029 
L 62.82765 253.320268 
L 61.63725 252.005238 
L 60.44685 250.627994 
L 59.25645 249.186626 
L 58.06605 247.67927 
L 56.87565 246.104119 
L 55.68525 244.45944 
L 54.49485 242.743583 
L 53.30445 240.955003 
L 52.11405 239.092269 
L 50.92365 237.154084 
L 49.73325 235.139299 
L 48.54285 233.046934 
L 47.35245 230.876191 
L 46.16205 228.626472 
L 44.97165 226.297397 
L 43.78125 223.888819 
z
" clip-path="url(#p199b8c2c3d)" style="fill: #1f77b4"/>
   </g>
   <g id="FillBetweenPolyCollection_2">
    <path d="M 43.78125 170.666419 
L 43.78125 223.888819 
L 44.97165 226.297397 
L 46.16205 228.626472 
L 47.35245 230.876191 
L 48.54285 233.046934 
L 49.73325 235.139299 
L 50.92365 237.154084 
L 52.11405 239.092269 
L 53.30445 240.955003 
L 54.49485 242.743583 
L 55.68525 244.45944 
L 56.87565 246.104119 
L 58.06605 247.67927 
L 59.25645 249.186626 
L 60.44685 250.627994 
L 61.63725 252.005238 
L 62.82765 253.320268 
L 64.01805 254.575029 
L 65.20845 255.771486 
L 66.39885 256.911619 
L 67.58925 257.99741 
L 68.77965 259.030838 
L 69.97005 260.013866 
L 71.16045 260.948442 
L 72.35085 261.836486 
L 73.54125 262.679887 
L 74.73165 263.480501 
L 75.92205 264.240143 
L 77.11245 264.960586 
L 78.30285 265.64356 
L 79.49325 266.290744 
L 80.68365 266.90377 
L 81.87405 267.484219 
L 83.06445 268.03362 
L 84.25485 268.553452 
L 85.44525 269.045138 
L 86.63565 269.510052 
L 87.82605 269.949513 
L 89.01645 270.36479 
L 90.20685 270.7571 
L 91.39725 271.127611 
L 92.58765 271.477441 
L 93.77805 271.807658 
L 94.96845 272.119285 
L 96.15885 272.413299 
L 97.34925 272.690631 
L 98.53965 272.95217 
L 99.73005 273.198763 
L 100.92045 273.431216 
L 102.11085 273.650297 
L 103.30125 273.856736 
L 104.49165 274.051226 
L 105.68205 274.234426 
L 106.87245 274.406962 
L 108.06285 274.569428 
L 109.25325 274.722387 
L 110.44365 274.866373 
L 111.63405 275.001892 
L 112.82445 275.129424 
L 114.01485 275.249422 
L 115.20525 275.362316 
L 116.39565 275.468513 
L 117.58605 275.568397 
L 118.77645 275.662332 
L 119.96685 275.750661 
L 121.15725 275.83371 
L 122.34765 275.911785 
L 123.53805 275.985176 
L 124.72845 276.054156 
L 125.91885 276.118985 
L 127.10925 276.179905 
L 128.29965 276.237146 
L 129.49005 276.290927 
L 130.68045 276.34145 
L 131.87085 276.38891 
L 133.06125 276.433488 
L 134.25165 276.475355 
L 135.44205 276.514673 
L 136.63245 276.551594 
L 137.82285 276.586261 
L 139.01325 276.618809 
L 140.20365 276.649367 
L 141.39405 276.678052 
L 142.58445 276.704978 
L 143.77485 276.730251 
L 144.96525 276.753971 
L 146.15565 276.776232 
L 147.34605 276.797121 
L 148.53645 276.816723 
L 149.72685 276.835116 
L 150.91725 276.852372 
L 152.10765 276.868561 
L 153.29805 276.883749 
L 154.48845 276.897996 
L 155.67885 276.91136 
L 156.86925 276.923894 
L 158.05965 276.935651 
L 159.25005 276.946676 
L 160.44045 276.957016 
L 161.63085 276.966712 
L 162.82125 276.975804 
L 164.01165 276.984329 
L 165.20205 276.992322 
L 166.39245 276.999816 
L 167.58285 277.006842 
L 168.77325 277.013429 
L 169.96365 277.019603 
L 171.15405 277.025391 
L 172.34445 277.030816 
L 173.53485 277.035901 
L 174.72525 277.040666 
L 175.91565 277.045133 
L 177.10605 277.049319 
L 178.29645 277.053242 
L 179.48685 277.056918 
L 180.67725 277.060362 
L 181.86765 277.06359 
L 183.05805 277.066614 
L 184.24845 277.069448 
L 185.43885 277.072103 
L 186.62925 277.07459 
L 187.81965 277.07692 
L 189.01005 277.079103 
L 190.20045 277.081148 
L 191.39085 277.083063 
L 192.58125 277.084857 
L 193.77165 277.086538 
L 194.96205 277.088112 
L 196.15245 277.089586 
L 197.34285 277.090967 
L 198.53325 277.09226 
L 199.72365 277.093472 
L 200.91405 277.094606 
L 202.10445 277.095668 
L 203.29485 277.096662 
L 204.48525 277.097594 
L 205.67565 277.098466 
L 206.86605 277.099282 
L 208.05645 277.100047 
L 209.24685 277.100763 
L 210.43725 277.101433 
L 211.62765 277.10206 
L 212.81805 277.102648 
L 214.00845 277.103198 
L 215.19885 277.103713 
L 216.38925 277.104195 
L 217.57965 277.104646 
L 218.77005 277.105068 
L 219.96045 277.105463 
L 221.15085 277.105833 
L 222.34125 277.10618 
L 223.53165 277.106504 
L 224.72205 277.106807 
L 225.91245 277.107091 
L 227.10285 277.107357 
L 228.29325 277.107606 
L 229.48365 277.107838 
L 230.67405 277.108056 
L 231.86445 277.10826 
L 233.05485 277.108451 
L 234.24525 277.108629 
L 235.43565 277.108797 
L 236.62605 277.108953 
L 237.81645 277.109099 
L 239.00685 277.109236 
L 240.19725 277.109364 
L 241.38765 277.109484 
L 242.57805 277.109596 
L 243.76845 277.109701 
L 244.95885 277.109799 
L 246.14925 277.109891 
L 247.33965 277.109977 
L 248.53005 277.110057 
L 249.72045 277.110132 
L 250.91085 277.110203 
L 252.10125 277.110268 
L 253.29165 277.11033 
L 254.48205 277.110388 
L 255.67245 277.110441 
L 256.86285 277.110492 
L 258.05325 277.110539 
L 259.24365 277.110583 
L 260.43405 277.110624 
L 261.62445 277.110663 
L 262.81485 277.110699 
L 264.00525 277.110733 
L 265.19565 277.110764 
L 266.38605 277.110794 
L 267.57645 277.110821 
L 268.76685 277.110847 
L 269.95725 277.110871 
L 271.14765 277.110894 
L 272.33805 277.110915 
L 273.52845 277.110935 
L 274.71885 277.110953 
L 275.90925 277.11097 
L 277.09965 277.110987 
L 278.29005 277.111002 
L 279.48045 277.111016 
L 280.67085 277.111029 
L 281.86125 277.111041 
L 283.05165 277.111053 
L 284.24205 277.111064 
L 285.43245 277.111074 
L 286.62285 277.111083 
L 287.81325 277.111092 
L 289.00365 277.1111 
L 290.19405 277.111108 
L 291.38445 277.111115 
L 292.57485 277.111122 
L 293.76525 277.111128 
L 294.95565 277.111134 
L 296.14605 277.11114 
L 297.33645 277.111145 
L 298.52685 277.11115 
L 299.71725 277.111154 
L 300.90765 277.111158 
L 302.09805 277.111162 
L 303.28845 277.111166 
L 304.47885 277.11117 
L 305.66925 277.111173 
L 306.85965 277.111176 
L 308.05005 277.111179 
L 309.24045 277.111181 
L 310.43085 277.111184 
L 311.62125 277.111186 
L 312.81165 277.111188 
L 314.00205 277.11119 
L 315.19245 277.111192 
L 316.38285 277.111194 
L 317.57325 277.111195 
L 318.76365 277.111197 
L 319.95405 277.111198 
L 321.14445 277.1112 
L 322.33485 277.111201 
L 323.52525 277.111202 
L 324.71565 277.111203 
L 325.90605 277.111204 
L 327.09645 277.111205 
L 328.28685 277.111206 
L 329.47725 277.111207 
L 330.66765 277.111208 
L 331.85805 277.111208 
L 333.04845 277.111209 
L 334.23885 277.11121 
L 335.42925 277.11121 
L 336.61965 277.111211 
L 337.81005 277.111211 
L 339.00045 277.111212 
L 340.19085 277.111212 
L 341.38125 277.111213 
L 342.57165 277.111213 
L 343.76205 277.111213 
L 344.95245 277.111214 
L 346.14285 277.111214 
L 347.33325 277.111214 
L 348.52365 277.111215 
L 349.71405 277.111215 
L 350.90445 277.111215 
L 352.09485 277.111215 
L 353.28525 277.111216 
L 354.47565 277.111216 
L 355.66605 277.111216 
L 356.85645 277.111216 
L 358.04685 277.111216 
L 359.23725 277.111217 
L 360.42765 277.111217 
L 361.61805 277.111217 
L 362.80845 277.111217 
L 363.99885 277.111217 
L 365.18925 277.111217 
L 366.37965 277.111217 
L 367.57005 277.111217 
L 368.76045 277.111217 
L 369.95085 277.111218 
L 371.14125 277.111218 
L 372.33165 277.111218 
L 373.52205 277.111218 
L 374.71245 277.111218 
L 375.90285 277.111218 
L 377.09325 277.111218 
L 378.28365 277.111218 
L 379.47405 277.111218 
L 380.66445 277.111218 
L 381.85485 277.111218 
L 383.04525 277.111218 
L 384.23565 277.111218 
L 385.42605 277.111218 
L 386.61645 277.111218 
L 387.80685 277.111218 
L 388.99725 277.111218 
L 390.18765 277.111218 
L 391.37805 277.111218 
L 392.56845 277.111218 
L 393.75885 277.111218 
L 394.94925 277.111218 
L 396.13965 277.111218 
L 397.33005 277.111219 
L 398.52045 277.111219 
L 399.71085 277.111219 
L 399.71085 277.071595 
L 399.71085 277.071595 
L 398.52045 277.070484 
L 397.33005 277.069342 
L 396.13965 277.068167 
L 394.94925 277.066961 
L 393.75885 277.06572 
L 392.56845 277.064445 
L 391.37805 277.063135 
L 390.18765 277.061789 
L 388.99725 277.060405 
L 387.80685 277.058982 
L 386.61645 277.05752 
L 385.42605 277.056018 
L 384.23565 277.054474 
L 383.04525 277.052887 
L 381.85485 277.051256 
L 380.66445 277.04958 
L 379.47405 277.047858 
L 378.28365 277.046088 
L 377.09325 277.044269 
L 375.90285 277.042399 
L 374.71245 277.040478 
L 373.52205 277.038504 
L 372.33165 277.036475 
L 371.14125 277.03439 
L 369.95085 277.032248 
L 368.76045 277.030046 
L 367.57005 277.027784 
L 366.37965 277.025459 
L 365.18925 277.02307 
L 363.99885 277.020616 
L 362.80845 277.018093 
L 361.61805 277.015502 
L 360.42765 277.012838 
L 359.23725 277.010102 
L 358.04685 277.00729 
L 356.85645 277.004401 
L 355.66605 277.001432 
L 354.47565 276.998382 
L 353.28525 276.995247 
L 352.09485 276.992027 
L 350.90445 276.988719 
L 349.71405 276.985319 
L 348.52365 276.981826 
L 347.33325 276.978238 
L 346.14285 276.974551 
L 344.95245 276.970763 
L 343.76205 276.966871 
L 342.57165 276.962873 
L 341.38125 276.958765 
L 340.19085 276.954545 
L 339.00045 276.95021 
L 337.81005 276.945756 
L 336.61965 276.94118 
L 335.42925 276.936479 
L 334.23885 276.93165 
L 333.04845 276.926689 
L 331.85805 276.921593 
L 330.66765 276.916358 
L 329.47725 276.91098 
L 328.28685 276.905456 
L 327.09645 276.899781 
L 325.90605 276.893952 
L 324.71565 276.887964 
L 323.52525 276.881814 
L 322.33485 276.875496 
L 321.14445 276.869006 
L 319.95405 276.862341 
L 318.76365 276.855494 
L 317.57325 276.848462 
L 316.38285 276.841239 
L 315.19245 276.83382 
L 314.00205 276.826201 
L 312.81165 276.818375 
L 311.62125 276.810337 
L 310.43085 276.802082 
L 309.24045 276.793604 
L 308.05005 276.784896 
L 306.85965 276.775954 
L 305.66925 276.76677 
L 304.47885 276.757338 
L 303.28845 276.747652 
L 302.09805 276.737705 
L 300.90765 276.727491 
L 299.71725 276.717001 
L 298.52685 276.706229 
L 297.33645 276.695167 
L 296.14605 276.683808 
L 294.95565 276.672144 
L 293.76525 276.660167 
L 292.57485 276.647869 
L 291.38445 276.635241 
L 290.19405 276.622274 
L 289.00365 276.60896 
L 287.81325 276.59529 
L 286.62285 276.581255 
L 285.43245 276.566844 
L 284.24205 276.552048 
L 283.05165 276.536857 
L 281.86125 276.521261 
L 280.67085 276.505249 
L 279.48045 276.48881 
L 278.29005 276.471933 
L 277.09965 276.454607 
L 275.90925 276.436821 
L 274.71885 276.418562 
L 273.52845 276.399817 
L 272.33805 276.380575 
L 271.14765 276.360823 
L 269.95725 276.340547 
L 268.76685 276.319734 
L 267.57645 276.29837 
L 266.38605 276.276441 
L 265.19565 276.253932 
L 264.00525 276.230828 
L 262.81485 276.207115 
L 261.62445 276.182776 
L 260.43405 276.157796 
L 259.24365 276.132157 
L 258.05325 276.105844 
L 256.86285 276.078838 
L 255.67245 276.051123 
L 254.48205 276.022679 
L 253.29165 275.99349 
L 252.10125 275.963535 
L 250.91085 275.932794 
L 249.72045 275.901249 
L 248.53005 275.868879 
L 247.33965 275.835662 
L 246.14925 275.801578 
L 244.95885 275.766604 
L 243.76845 275.730718 
L 242.57805 275.693896 
L 241.38765 275.656116 
L 240.19725 275.617353 
L 239.00685 275.577581 
L 237.81645 275.536777 
L 236.62605 275.494914 
L 235.43565 275.451965 
L 234.24525 275.407903 
L 233.05485 275.3627 
L 231.86445 275.316328 
L 230.67405 275.268757 
L 229.48365 275.219958 
L 228.29325 275.1699 
L 227.10285 275.11855 
L 225.91245 275.065879 
L 224.72205 275.011851 
L 223.53165 274.956434 
L 222.34125 274.899593 
L 221.15085 274.841293 
L 219.96045 274.781497 
L 218.77005 274.720169 
L 217.57965 274.65727 
L 216.38925 274.592762 
L 215.19885 274.526605 
L 214.00845 274.458759 
L 212.81805 274.389181 
L 211.62765 274.317829 
L 210.43725 274.244659 
L 209.24685 274.169627 
L 208.05645 274.092687 
L 206.86605 274.013792 
L 205.67565 273.932893 
L 204.48525 273.849942 
L 203.29485 273.764889 
L 202.10445 273.677681 
L 200.91405 273.588266 
L 199.72365 273.496591 
L 198.53325 273.402599 
L 197.34285 273.306234 
L 196.15245 273.207438 
L 194.96205 273.106152 
L 193.77165 273.002315 
L 192.58125 272.895864 
L 191.39085 272.786735 
L 190.20045 272.674863 
L 189.01005 272.560182 
L 187.81965 272.442622 
L 186.62925 272.322113 
L 185.43885 272.198583 
L 184.24845 272.071958 
L 183.05805 271.942163 
L 181.86765 271.80912 
L 180.67725 271.672748 
L 179.48685 271.532968 
L 178.29645 271.389695 
L 177.10605 271.242843 
L 175.91565 271.092325 
L 174.72525 270.938051 
L 173.53485 270.779927 
L 172.34445 270.61786 
L 171.15405 270.451751 
L 169.96365 270.281501 
L 168.77325 270.107008 
L 167.58285 269.928165 
L 166.39245 269.744866 
L 165.20205 269.556999 
L 164.01165 269.364449 
L 162.82125 269.167101 
L 161.63085 268.964833 
L 160.44045 268.757522 
L 159.25005 268.545041 
L 158.05965 268.327258 
L 156.86925 268.10404 
L 155.67885 267.875249 
L 154.48845 267.640741 
L 153.29805 267.400371 
L 152.10765 267.153987 
L 150.91725 266.901434 
L 149.72685 266.642553 
L 148.53645 266.377179 
L 147.34605 266.105141 
L 146.15565 265.826266 
L 144.96525 265.540371 
L 143.77485 265.247272 
L 142.58445 264.946777 
L 141.39405 264.638686 
L 140.20365 264.322797 
L 139.01325 263.998897 
L 137.82285 263.666768 
L 136.63245 263.326186 
L 135.44205 262.976917 
L 134.25165 262.618721 
L 133.06125 262.251349 
L 131.87085 261.874544 
L 130.68045 261.48804 
L 129.49005 261.091561 
L 128.29965 260.684823 
L 127.10925 260.26753 
L 125.91885 259.839378 
L 124.72845 259.400051 
L 123.53805 258.94922 
L 122.34765 258.486547 
L 121.15725 258.01168 
L 119.96685 257.524255 
L 118.77645 257.023895 
L 117.58605 256.510209 
L 116.39565 255.982791 
L 115.20525 255.441221 
L 114.01485 254.885064 
L 112.82445 254.313868 
L 111.63405 253.727165 
L 110.44365 253.12447 
L 109.25325 252.50528 
L 108.06285 251.869075 
L 106.87245 251.215314 
L 105.68205 250.543438 
L 104.49165 249.852869 
L 103.30125 249.143005 
L 102.11085 248.413227 
L 100.92045 247.662892 
L 99.73005 246.891336 
L 98.53965 246.09787 
L 97.34925 245.281787 
L 96.15885 244.442351 
L 94.96845 243.578807 
L 93.77805 242.690374 
L 92.58765 241.776247 
L 91.39725 240.835599 
L 90.20685 239.867577 
L 89.01645 238.871304 
L 87.82605 237.845883 
L 86.63565 236.79039 
L 85.44525 235.703882 
L 84.25485 234.585393 
L 83.06445 233.433938 
L 81.87405 232.248511 
L 80.68365 231.028091 
L 79.49325 229.771641 
L 78.30285 228.478108 
L 77.11245 227.146431 
L 75.92205 225.77554 
L 74.73165 224.36436 
L 73.54125 222.911814 
L 72.35085 221.416827 
L 71.16045 219.878333 
L 69.97005 218.295276 
L 68.77965 216.666617 
L 67.58925 214.991341 
L 66.39885 213.268462 
L 65.20845 211.497029 
L 64.01805 209.676136 
L 62.82765 207.804927 
L 61.63725 205.882606 
L 60.44685 203.908446 
L 59.25645 201.881796 
L 58.06605 199.802092 
L 56.87565 197.66887 
L 55.68525 195.481771 
L 54.49485 193.240553 
L 53.30445 190.945105 
L 52.11405 188.595453 
L 50.92365 186.191775 
L 49.73325 183.734406 
L 48.54285 181.223853 
L 47.35245 178.660804 
L 46.16205 176.046133 
L 44.97165 173.380913 
L 43.78125 170.666419 
z
" clip-path="url(#p199b8c2c3d)" style="fill: #ff7f0e"/>
   </g>
   <g id="FillBetweenPolyCollection_3">
    <path d="M 43.78125 117.444019 
L 43.78125 170.666419 
L 44.97165 173.380913 
L 46.16205 176.046133 
L 47.35245 178.660804 
L 48.54285 181.223853 
L 49.73325 183.734406 
L 50.92365 186.191775 
L 52.11405 188.595453 
L 53.30445 190.945105 
L 54.49485 193.240553 
L 55.68525 195.481771 
L 56.87565 197.66887 
L 58.06605 199.802092 
L 59.25645 201.881796 
L 60.44685 203.908446 
L 61.63725 205.882606 
L 62.82765 207.804927 
L 64.01805 209.676136 
L 65.20845 211.497029 
L 66.39885 213.268462 
L 67.58925 214.991341 
L 68.77965 216.666617 
L 69.97005 218.295276 
L 71.16045 219.878333 
L 72.35085 221.416827 
L 73.54125 222.911814 
L 74.73165 224.36436 
L 75.92205 225.77554 
L 77.11245 227.146431 
L 78.30285 228.478108 
L 79.49325 229.771641 
L 80.68365 231.028091 
L 81.87405 232.248511 
L 83.06445 233.433938 
L 84.25485 234.585393 
L 85.44525 235.703882 
L 86.63565 236.79039 
L 87.82605 237.845883 
L 89.01645 238.871304 
L 90.20685 239.867577 
L 91.39725 240.835599 
L 92.58765 241.776247 
L 93.77805 242.690374 
L 94.96845 243.578807 
L 96.15885 244.442351 
L 97.34925 245.281787 
L 98.53965 246.09787 
L 99.73005 246.891336 
L 100.92045 247.662892 
L 102.11085 248.413227 
L 103.30125 249.143005 
L 104.49165 249.852869 
L 105.68205 250.543438 
L 106.87245 251.215314 
L 108.06285 251.869075 
L 109.25325 252.50528 
L 110.44365 253.12447 
L 111.63405 253.727165 
L 112.82445 254.313868 
L 114.01485 254.885064 
L 115.20525 255.441221 
L 116.39565 255.982791 
L 117.58605 256.510209 
L 118.77645 257.023895 
L 119.96685 257.524255 
L 121.15725 258.01168 
L 122.34765 258.486547 
L 123.53805 258.94922 
L 124.72845 259.400051 
L 125.91885 259.839378 
L 127.10925 260.26753 
L 128.29965 260.684823 
L 129.49005 261.091561 
L 130.68045 261.48804 
L 131.87085 261.874544 
L 133.06125 262.251349 
L 134.25165 262.618721 
L 135.44205 262.976917 
L 136.63245 263.326186 
L 137.82285 263.666768 
L 139.01325 263.998897 
L 140.20365 264.322797 
L 141.39405 264.638686 
L 142.58445 264.946777 
L 143.77485 265.247272 
L 144.96525 265.540371 
L 146.15565 265.826266 
L 147.34605 266.105141 
L 148.53645 266.377179 
L 149.72685 266.642553 
L 150.91725 266.901434 
L 152.10765 267.153987 
L 153.29805 267.400371 
L 154.48845 267.640741 
L 155.67885 267.875249 
L 156.86925 268.10404 
L 158.05965 268.327258 
L 159.25005 268.545041 
L 160.44045 268.757522 
L 161.63085 268.964833 
L 162.82125 269.167101 
L 164.01165 269.364449 
L 165.20205 269.556999 
L 166.39245 269.744866 
L 167.58285 269.928165 
L 168.77325 270.107008 
L 169.96365 270.281501 
L 171.15405 270.451751 
L 172.34445 270.61786 
L 173.53485 270.779927 
L 174.72525 270.938051 
L 175.91565 271.092325 
L 177.10605 271.242843 
L 178.29645 271.389695 
L 179.48685 271.532968 
L 180.67725 271.672748 
L 181.86765 271.80912 
L 183.05805 271.942163 
L 184.24845 272.071958 
L 185.43885 272.198583 
L 186.62925 272.322113 
L 187.81965 272.442622 
L 189.01005 272.560182 
L 190.20045 272.674863 
L 191.39085 272.786735 
L 192.58125 272.895864 
L 193.77165 273.002315 
L 194.96205 273.106152 
L 196.15245 273.207438 
L 197.34285 273.306234 
L 198.53325 273.402599 
L 199.72365 273.496591 
L 200.91405 273.588266 
L 202.10445 273.677681 
L 203.29485 273.764889 
L 204.48525 273.849942 
L 205.67565 273.932893 
L 206.86605 274.013792 
L 208.05645 274.092687 
L 209.24685 274.169627 
L 210.43725 274.244659 
L 211.62765 274.317829 
L 212.81805 274.389181 
L 214.00845 274.458759 
L 215.19885 274.526605 
L 216.38925 274.592762 
L 217.57965 274.65727 
L 218.77005 274.720169 
L 219.96045 274.781497 
L 221.15085 274.841293 
L 222.34125 274.899593 
L 223.53165 274.956434 
L 224.72205 275.011851 
L 225.91245 275.065879 
L 227.10285 275.11855 
L 228.29325 275.1699 
L 229.48365 275.219958 
L 230.67405 275.268757 
L 231.86445 275.316328 
L 233.05485 275.3627 
L 234.24525 275.407903 
L 235.43565 275.451965 
L 236.62605 275.494914 
L 237.81645 275.536777 
L 239.00685 275.577581 
L 240.19725 275.617353 
L 241.38765 275.656116 
L 242.57805 275.693896 
L 243.76845 275.730718 
L 244.95885 275.766604 
L 246.14925 275.801578 
L 247.33965 275.835662 
L 248.53005 275.868879 
L 249.72045 275.901249 
L 250.91085 275.932794 
L 252.10125 275.963535 
L 253.29165 275.99349 
L 254.48205 276.022679 
L 255.67245 276.051123 
L 256.86285 276.078838 
L 258.05325 276.105844 
L 259.24365 276.132157 
L 260.43405 276.157796 
L 261.62445 276.182776 
L 262.81485 276.207115 
L 264.00525 276.230828 
L 265.19565 276.253932 
L 266.38605 276.276441 
L 267.57645 276.29837 
L 268.76685 276.319734 
L 269.95725 276.340547 
L 271.14765 276.360823 
L 272.33805 276.380575 
L 273.52845 276.399817 
L 274.71885 276.418562 
L 275.90925 276.436821 
L 277.09965 276.454607 
L 278.29005 276.471933 
L 279.48045 276.48881 
L 280.67085 276.505249 
L 281.86125 276.521261 
L 283.05165 276.536857 
L 284.24205 276.552048 
L 285.43245 276.566844 
L 286.62285 276.581255 
L 287.81325 276.59529 
L 289.00365 276.60896 
L 290.19405 276.622274 
L 291.38445 276.635241 
L 292.57485 276.647869 
L 293.76525 276.660167 
L 294.95565 276.672144 
L 296.14605 276.683808 
L 297.33645 276.695167 
L 298.52685 276.706229 
L 299.71725 276.717001 
L 300.90765 276.727491 
L 302.09805 276.737705 
L 303.28845 276.747652 
L 304.47885 276.757338 
L 305.66925 276.76677 
L 306.85965 276.775954 
L 308.05005 276.784896 
L 309.24045 276.793604 
L 310.43085 276.802082 
L 311.62125 276.810337 
L 312.81165 276.818375 
L 314.00205 276.826201 
L 315.19245 276.83382 
L 316.38285 276.841239 
L 317.57325 276.848462 
L 318.76365 276.855494 
L 319.95405 276.862341 
L 321.14445 276.869006 
L 322.33485 276.875496 
L 323.52525 276.881814 
L 324.71565 276.887964 
L 325.90605 276.893952 
L 327.09645 276.899781 
L 328.28685 276.905456 
L 329.47725 276.91098 
L 330.66765 276.916358 
L 331.85805 276.921593 
L 333.04845 276.926689 
L 334.23885 276.93165 
L 335.42925 276.936479 
L 336.61965 276.94118 
L 337.81005 276.945756 
L 339.00045 276.95021 
L 340.19085 276.954545 
L 341.38125 276.958765 
L 342.57165 276.962873 
L 343.76205 276.966871 
L 344.95245 276.970763 
L 346.14285 276.974551 
L 347.33325 276.978238 
L 348.52365 276.981826 
L 349.71405 276.985319 
L 350.90445 276.988719 
L 352.09485 276.992027 
L 353.28525 276.995247 
L 354.47565 276.998382 
L 355.66605 277.001432 
L 356.85645 277.004401 
L 358.04685 277.00729 
L 359.23725 277.010102 
L 360.42765 277.012838 
L 361.61805 277.015502 
L 362.80845 277.018093 
L 363.99885 277.020616 
L 365.18925 277.02307 
L 366.37965 277.025459 
L 367.57005 277.027784 
L 368.76045 277.030046 
L 369.95085 277.032248 
L 371.14125 277.03439 
L 372.33165 277.036475 
L 373.52205 277.038504 
L 374.71245 277.040478 
L 375.90285 277.042399 
L 377.09325 277.044269 
L 378.28365 277.046088 
L 379.47405 277.047858 
L 380.66445 277.04958 
L 381.85485 277.051256 
L 383.04525 277.052887 
L 384.23565 277.054474 
L 385.42605 277.056018 
L 386.61645 277.05752 
L 387.80685 277.058982 
L 388.99725 277.060405 
L 390.18765 277.061789 
L 391.37805 277.063135 
L 392.56845 277.064445 
L 393.75885 277.06572 
L 394.94925 277.066961 
L 396.13965 277.068167 
L 397.33005 277.069342 
L 398.52045 277.070484 
L 399.71085 277.071595 
L 399.71085 273.093667 
L 399.71085 273.093667 
L 398.52045 273.043527 
L 397.33005 272.992778 
L 396.13965 272.941412 
L 394.94925 272.889421 
L 393.75885 272.836799 
L 392.56845 272.783538 
L 391.37805 272.72963 
L 390.18765 272.675067 
L 388.99725 272.619843 
L 387.80685 272.563949 
L 386.61645 272.507378 
L 385.42605 272.450121 
L 384.23565 272.39217 
L 383.04525 272.333518 
L 381.85485 272.274155 
L 380.66445 272.214074 
L 379.47405 272.153267 
L 378.28365 272.091724 
L 377.09325 272.029437 
L 375.90285 271.966397 
L 374.71245 271.902596 
L 373.52205 271.838025 
L 372.33165 271.772674 
L 371.14125 271.706534 
L 369.95085 271.639597 
L 368.76045 271.571853 
L 367.57005 271.503291 
L 366.37965 271.433904 
L 365.18925 271.363681 
L 363.99885 271.292612 
L 362.80845 271.220688 
L 361.61805 271.147898 
L 360.42765 271.074232 
L 359.23725 270.999681 
L 358.04685 270.924233 
L 356.85645 270.847878 
L 355.66605 270.770607 
L 354.47565 270.692407 
L 353.28525 270.613268 
L 352.09485 270.533179 
L 350.90445 270.45213 
L 349.71405 270.370108 
L 348.52365 270.287102 
L 347.33325 270.203102 
L 346.14285 270.118095 
L 344.95245 270.032069 
L 343.76205 269.945014 
L 342.57165 269.856915 
L 341.38125 269.767763 
L 340.19085 269.677544 
L 339.00045 269.586245 
L 337.81005 269.493855 
L 336.61965 269.400359 
L 335.42925 269.305747 
L 334.23885 269.210004 
L 333.04845 269.113117 
L 331.85805 269.015074 
L 330.66765 268.915859 
L 329.47725 268.815461 
L 328.28685 268.713864 
L 327.09645 268.611056 
L 325.90605 268.507021 
L 324.71565 268.401746 
L 323.52525 268.295216 
L 322.33485 268.187416 
L 321.14445 268.078332 
L 319.95405 267.967949 
L 318.76365 267.85625 
L 317.57325 267.743222 
L 316.38285 267.628849 
L 315.19245 267.513114 
L 314.00205 267.396003 
L 312.81165 267.277498 
L 311.62125 267.157584 
L 310.43085 267.036243 
L 309.24045 266.913461 
L 308.05005 266.789218 
L 306.85965 266.6635 
L 305.66925 266.536287 
L 304.47885 266.407564 
L 303.28845 266.277311 
L 302.09805 266.145512 
L 300.90765 266.012147 
L 299.71725 265.8772 
L 298.52685 265.74065 
L 297.33645 265.60248 
L 296.14605 265.462671 
L 294.95565 265.321203 
L 293.76525 265.178057 
L 292.57485 265.033213 
L 291.38445 264.886651 
L 290.19405 264.738351 
L 289.00365 264.588293 
L 287.81325 264.436456 
L 286.62285 264.282819 
L 285.43245 264.127361 
L 284.24205 263.97006 
L 283.05165 263.810896 
L 281.86125 263.649846 
L 280.67085 263.486887 
L 279.48045 263.321998 
L 278.29005 263.155155 
L 277.09965 262.986336 
L 275.90925 262.815518 
L 274.71885 262.642676 
L 273.52845 262.467787 
L 272.33805 262.290827 
L 271.14765 262.111771 
L 269.95725 261.930595 
L 268.76685 261.747274 
L 267.57645 261.561781 
L 266.38605 261.374092 
L 265.19565 261.184181 
L 264.00525 260.992021 
L 262.81485 260.797585 
L 261.62445 260.600848 
L 260.43405 260.40178 
L 259.24365 260.200356 
L 258.05325 259.996546 
L 256.86285 259.790322 
L 255.67245 259.581657 
L 254.48205 259.37052 
L 253.29165 259.156883 
L 252.10125 258.940716 
L 250.91085 258.721988 
L 249.72045 258.50067 
L 248.53005 258.27673 
L 247.33965 258.050137 
L 246.14925 257.820859 
L 244.95885 257.588865 
L 243.76845 257.354122 
L 242.57805 257.116597 
L 241.38765 256.876258 
L 240.19725 256.633069 
L 239.00685 256.386998 
L 237.81645 256.13801 
L 236.62605 255.88607 
L 235.43565 255.631142 
L 234.24525 255.373191 
L 233.05485 255.112181 
L 231.86445 254.848074 
L 230.67405 254.580834 
L 229.48365 254.310423 
L 228.29325 254.036803 
L 227.10285 253.759935 
L 225.91245 253.479781 
L 224.72205 253.1963 
L 223.53165 252.909453 
L 222.34125 252.619199 
L 221.15085 252.325496 
L 219.96045 252.028305 
L 218.77005 251.727581 
L 217.57965 251.423283 
L 216.38925 251.115367 
L 215.19885 250.80379 
L 214.00845 250.488506 
L 212.81805 250.169472 
L 211.62765 249.846642 
L 210.43725 249.51997 
L 209.24685 249.189408 
L 208.05645 248.85491 
L 206.86605 248.516428 
L 205.67565 248.173914 
L 204.48525 247.827317 
L 203.29485 247.476589 
L 202.10445 247.121678 
L 200.91405 246.762534 
L 199.72365 246.399105 
L 198.53325 246.031338 
L 197.34285 245.659181 
L 196.15245 245.282578 
L 194.96205 244.901476 
L 193.77165 244.515819 
L 192.58125 244.125551 
L 191.39085 243.730614 
L 190.20045 243.330952 
L 189.01005 242.926504 
L 187.81965 242.517213 
L 186.62925 242.103018 
L 185.43885 241.683856 
L 184.24845 241.259668 
L 183.05805 240.830388 
L 181.86765 240.395954 
L 180.67725 239.956301 
L 179.48685 239.511363 
L 178.29645 239.061072 
L 177.10605 238.605362 
L 175.91565 238.144162 
L 174.72525 237.677403 
L 173.53485 237.205014 
L 172.34445 236.726922 
L 171.15405 236.243053 
L 169.96365 235.753333 
L 168.77325 235.257686 
L 167.58285 234.756033 
L 166.39245 234.248297 
L 165.20205 233.734397 
L 164.01165 233.214251 
L 162.82125 232.687776 
L 161.63085 232.154887 
L 160.44045 231.615497 
L 159.25005 231.069519 
L 158.05965 230.516863 
L 156.86925 229.957436 
L 155.67885 229.391145 
L 154.48845 228.817895 
L 153.29805 228.237587 
L 152.10765 227.650122 
L 150.91725 227.055399 
L 149.72685 226.453311 
L 148.53645 225.843753 
L 147.34605 225.226616 
L 146.15565 224.601787 
L 144.96525 223.969152 
L 143.77485 223.328593 
L 142.58445 222.679989 
L 141.39405 222.023218 
L 140.20365 221.358151 
L 139.01325 220.68466 
L 137.82285 220.002609 
L 136.63245 219.311862 
L 135.44205 218.612277 
L 134.25165 217.903709 
L 133.06125 217.186008 
L 131.87085 216.45902 
L 130.68045 215.722587 
L 129.49005 214.976545 
L 128.29965 214.220726 
L 127.10925 213.454957 
L 125.91885 212.679058 
L 124.72845 211.892846 
L 123.53805 211.096129 
L 122.34765 210.288712 
L 121.15725 209.470391 
L 119.96685 208.640958 
L 118.77645 207.800195 
L 117.58605 206.94788 
L 116.39565 206.083782 
L 115.20525 205.207662 
L 114.01485 204.319275 
L 112.82445 203.418366 
L 111.63405 202.504672 
L 110.44365 201.577922 
L 109.25325 200.637836 
L 108.06285 199.684124 
L 106.87245 198.716488 
L 105.68205 197.734618 
L 104.49165 196.738197 
L 103.30125 195.726896 
L 102.11085 194.700377 
L 100.92045 193.658292 
L 99.73005 192.60028 
L 98.53965 191.525973 
L 97.34925 190.434989 
L 96.15885 189.32694 
L 94.96845 188.201423 
L 93.77805 187.058028 
L 92.58765 185.896333 
L 91.39725 184.715906 
L 90.20685 183.516309 
L 89.01645 182.29709 
L 87.82605 181.057792 
L 86.63565 179.79795 
L 85.44525 178.517092 
L 84.25485 177.214737 
L 83.06445 175.890405 
L 81.87405 174.543607 
L 80.68365 173.173854 
L 79.49325 171.780657 
L 78.30285 170.363527 
L 77.11245 168.921979 
L 75.92205 167.455532 
L 74.73165 165.963714 
L 73.54125 164.446064 
L 72.35085 162.902133 
L 71.16045 161.331491 
L 69.97005 159.733725 
L 68.77965 158.108449 
L 67.58925 156.455302 
L 66.39885 154.773958 
L 65.20845 153.064126 
L 64.01805 151.325556 
L 62.82765 149.558047 
L 61.63725 147.761448 
L 60.44685 145.935664 
L 59.25645 144.080668 
L 58.06605 142.196495 
L 56.87565 140.283261 
L 55.68525 138.341157 
L 54.49485 136.370466 
L 53.30445 134.371559 
L 52.11405 132.344907 
L 50.92365 130.291085 
L 49.73325 128.210775 
L 48.54285 126.104776 
L 47.35245 123.974001 
L 46.16205 121.819487 
L 44.97165 119.642397 
L 43.78125 117.444019 
z
" clip-path="url(#p199b8c2c3d)" style="fill: #2ca02c"/>
   </g>
   <g id="FillBetweenPolyCollection_4">
    <path d="M 43.78125 64.221619 
L 43.78125 117.444019 
L 44.97165 119.642397 
L 46.16205 121.819487 
L 47.35245 123.974001 
L 48.54285 126.104776 
L 49.73325 128.210775 
L 50.92365 130.291085 
L 52.11405 132.344907 
L 53.30445 134.371559 
L 54.49485 136.370466 
L 55.68525 138.341157 
L 56.87565 140.283261 
L 58.06605 142.196495 
L 59.25645 144.080668 
L 60.44685 145.935664 
L 61.63725 147.761448 
L 62.82765 149.558047 
L 64.01805 151.325556 
L 65.20845 153.064126 
L 66.39885 154.773958 
L 67.58925 156.455302 
L 68.77965 158.108449 
L 69.97005 159.733725 
L 71.16045 161.331491 
L 72.35085 162.902133 
L 73.54125 164.446064 
L 74.73165 165.963714 
L 75.92205 167.455532 
L 77.11245 168.921979 
L 78.30285 170.363527 
L 79.49325 171.780657 
L 80.68365 173.173854 
L 81.87405 174.543607 
L 83.06445 175.890405 
L 84.25485 177.214737 
L 85.44525 178.517092 
L 86.63565 179.79795 
L 87.82605 181.057792 
L 89.01645 182.29709 
L 90.20685 183.516309 
L 91.39725 184.715906 
L 92.58765 185.896333 
L 93.77805 187.058028 
L 94.96845 188.201423 
L 96.15885 189.32694 
L 97.34925 190.434989 
L 98.53965 191.525973 
L 99.73005 192.60028 
L 100.92045 193.658292 
L 102.11085 194.700377 
L 103.30125 195.726896 
L 104.49165 196.738197 
L 105.68205 197.734618 
L 106.87245 198.716488 
L 108.06285 199.684124 
L 109.25325 200.637836 
L 110.44365 201.577922 
L 111.63405 202.504672 
L 112.82445 203.418366 
L 114.01485 204.319275 
L 115.20525 205.207662 
L 116.39565 206.083782 
L 117.58605 206.94788 
L 118.77645 207.800195 
L 119.96685 208.640958 
L 121.15725 209.470391 
L 122.34765 210.288712 
L 123.53805 211.096129 
L 124.72845 211.892846 
L 125.91885 212.679058 
L 127.10925 213.454957 
L 128.29965 214.220726 
L 129.49005 214.976545 
L 130.68045 215.722587 
L 131.87085 216.45902 
L 133.06125 217.186008 
L 134.25165 217.903709 
L 135.44205 218.612277 
L 136.63245 219.311862 
L 137.82285 220.002609 
L 139.01325 220.68466 
L 140.20365 221.358151 
L 141.39405 222.023218 
L 142.58445 222.679989 
L 143.77485 223.328593 
L 144.96525 223.969152 
L 146.15565 224.601787 
L 147.34605 225.226616 
L 148.53645 225.843753 
L 149.72685 226.453311 
L 150.91725 227.055399 
L 152.10765 227.650122 
L 153.29805 228.237587 
L 154.48845 228.817895 
L 155.67885 229.391145 
L 156.86925 229.957436 
L 158.05965 230.516863 
L 159.25005 231.069519 
L 160.44045 231.615497 
L 161.63085 232.154887 
L 162.82125 232.687776 
L 164.01165 233.214251 
L 165.20205 233.734397 
L 166.39245 234.248297 
L 167.58285 234.756033 
L 168.77325 235.257686 
L 169.96365 235.753333 
L 171.15405 236.243053 
L 172.34445 236.726922 
L 173.53485 237.205014 
L 174.72525 237.677403 
L 175.91565 238.144162 
L 177.10605 238.605362 
L 178.29645 239.061072 
L 179.48685 239.511363 
L 180.67725 239.956301 
L 181.86765 240.395954 
L 183.05805 240.830388 
L 184.24845 241.259668 
L 185.43885 241.683856 
L 186.62925 242.103018 
L 187.81965 242.517213 
L 189.01005 242.926504 
L 190.20045 243.330952 
L 191.39085 243.730614 
L 192.58125 244.125551 
L 193.77165 244.515819 
L 194.96205 244.901476 
L 196.15245 245.282578 
L 197.34285 245.659181 
L 198.53325 246.031338 
L 199.72365 246.399105 
L 200.91405 246.762534 
L 202.10445 247.121678 
L 203.29485 247.476589 
L 204.48525 247.827317 
L 205.67565 248.173914 
L 206.86605 248.516428 
L 208.05645 248.85491 
L 209.24685 249.189408 
L 210.43725 249.51997 
L 211.62765 249.846642 
L 212.81805 250.169472 
L 214.00845 250.488506 
L 215.19885 250.80379 
L 216.38925 251.115367 
L 217.57965 251.423283 
L 218.77005 251.727581 
L 219.96045 252.028305 
L 221.15085 252.325496 
L 222.34125 252.619199 
L 223.53165 252.909453 
L 224.72205 253.1963 
L 225.91245 253.479781 
L 227.10285 253.759935 
L 228.29325 254.036803 
L 229.48365 254.310423 
L 230.67405 254.580834 
L 231.86445 254.848074 
L 233.05485 255.112181 
L 234.24525 255.373191 
L 235.43565 255.631142 
L 236.62605 255.88607 
L 237.81645 256.13801 
L 239.00685 256.386998 
L 240.19725 256.633069 
L 241.38765 256.876258 
L 242.57805 257.116597 
L 243.76845 257.354122 
L 244.95885 257.588865 
L 246.14925 257.820859 
L 247.33965 258.050137 
L 248.53005 258.27673 
L 249.72045 258.50067 
L 250.91085 258.721988 
L 252.10125 258.940716 
L 253.29165 259.156883 
L 254.48205 259.37052 
L 255.67245 259.581657 
L 256.86285 259.790322 
L 258.05325 259.996546 
L 259.24365 260.200356 
L 260.43405 260.40178 
L 261.62445 260.600848 
L 262.81485 260.797585 
L 264.00525 260.992021 
L 265.19565 261.184181 
L 266.38605 261.374092 
L 267.57645 261.561781 
L 268.76685 261.747274 
L 269.95725 261.930595 
L 271.14765 262.111771 
L 272.33805 262.290827 
L 273.52845 262.467787 
L 274.71885 262.642676 
L 275.90925 262.815518 
L 277.09965 262.986336 
L 278.29005 263.155155 
L 279.48045 263.321998 
L 280.67085 263.486887 
L 281.86125 263.649846 
L 283.05165 263.810896 
L 284.24205 263.97006 
L 285.43245 264.127361 
L 286.62285 264.282819 
L 287.81325 264.436456 
L 289.00365 264.588293 
L 290.19405 264.738351 
L 291.38445 264.886651 
L 292.57485 265.033213 
L 293.76525 265.178057 
L 294.95565 265.321203 
L 296.14605 265.462671 
L 297.33645 265.60248 
L 298.52685 265.74065 
L 299.71725 265.8772 
L 300.90765 266.012147 
L 302.09805 266.145512 
L 303.28845 266.277311 
L 304.47885 266.407564 
L 305.66925 266.536287 
L 306.85965 266.6635 
L 308.05005 266.789218 
L 309.24045 266.913461 
L 310.43085 267.036243 
L 311.62125 267.157584 
L 312.81165 267.277498 
L 314.00205 267.396003 
L 315.19245 267.513114 
L 316.38285 267.628849 
L 317.57325 267.743222 
L 318.76365 267.85625 
L 319.95405 267.967949 
L 321.14445 268.078332 
L 322.33485 268.187416 
L 323.52525 268.295216 
L 324.71565 268.401746 
L 325.90605 268.507021 
L 327.09645 268.611056 
L 328.28685 268.713864 
L 329.47725 268.815461 
L 330.66765 268.915859 
L 331.85805 269.015074 
L 333.04845 269.113117 
L 334.23885 269.210004 
L 335.42925 269.305747 
L 336.61965 269.400359 
L 337.81005 269.493855 
L 339.00045 269.586245 
L 340.19085 269.677544 
L 341.38125 269.767763 
L 342.57165 269.856915 
L 343.76205 269.945014 
L 344.95245 270.032069 
L 346.14285 270.118095 
L 347.33325 270.203102 
L 348.52365 270.287102 
L 349.71405 270.370108 
L 350.90445 270.45213 
L 352.09485 270.533179 
L 353.28525 270.613268 
L 354.47565 270.692407 
L 355.66605 270.770607 
L 356.85645 270.847878 
L 358.04685 270.924233 
L 359.23725 270.999681 
L 360.42765 271.074232 
L 361.61805 271.147898 
L 362.80845 271.220688 
L 363.99885 271.292612 
L 365.18925 271.363681 
L 366.37965 271.433904 
L 367.57005 271.503291 
L 368.76045 271.571853 
L 369.95085 271.639597 
L 371.14125 271.706534 
L 372.33165 271.772674 
L 373.52205 271.838025 
L 374.71245 271.902596 
L 375.90285 271.966397 
L 377.09325 272.029437 
L 378.28365 272.091724 
L 379.47405 272.153267 
L 380.66445 272.214074 
L 381.85485 272.274155 
L 383.04525 272.333518 
L 384.23565 272.39217 
L 385.42605 272.450121 
L 386.61645 272.507378 
L 387.80685 272.563949 
L 388.99725 272.619843 
L 390.18765 272.675067 
L 391.37805 272.72963 
L 392.56845 272.783538 
L 393.75885 272.836799 
L 394.94925 272.889421 
L 396.13965 272.941412 
L 397.33005 272.992778 
L 398.52045 273.043527 
L 399.71085 273.093667 
L 399.71085 226.58306 
L 399.71085 226.58306 
L 398.52045 226.345299 
L 397.33005 226.106462 
L 396.13965 225.866545 
L 394.94925 225.625544 
L 393.75885 225.383453 
L 392.56845 225.140268 
L 391.37805 224.895983 
L 390.18765 224.650594 
L 388.99725 224.404097 
L 387.80685 224.156485 
L 386.61645 223.907754 
L 385.42605 223.6579 
L 384.23565 223.406916 
L 383.04525 223.154799 
L 381.85485 222.901543 
L 380.66445 222.647142 
L 379.47405 222.391592 
L 378.28365 222.134889 
L 377.09325 221.877025 
L 375.90285 221.617997 
L 374.71245 221.357799 
L 373.52205 221.096426 
L 372.33165 220.833873 
L 371.14125 220.570134 
L 369.95085 220.305204 
L 368.76045 220.039078 
L 367.57005 219.77175 
L 366.37965 219.503215 
L 365.18925 219.233467 
L 363.99885 218.962502 
L 362.80845 218.690313 
L 361.61805 218.416895 
L 360.42765 218.142243 
L 359.23725 217.866351 
L 358.04685 217.589213 
L 356.85645 217.310824 
L 355.66605 217.031177 
L 354.47565 216.750268 
L 353.28525 216.468091 
L 352.09485 216.18464 
L 350.90445 215.899909 
L 349.71405 215.613891 
L 348.52365 215.326583 
L 347.33325 215.037977 
L 346.14285 214.748067 
L 344.95245 214.456849 
L 343.76205 214.164315 
L 342.57165 213.870459 
L 341.38125 213.575277 
L 340.19085 213.278761 
L 339.00045 212.980905 
L 337.81005 212.681703 
L 336.61965 212.38115 
L 335.42925 212.079239 
L 334.23885 211.775963 
L 333.04845 211.471316 
L 331.85805 211.165293 
L 330.66765 210.857886 
L 329.47725 210.549089 
L 328.28685 210.238896 
L 327.09645 209.9273 
L 325.90605 209.614295 
L 324.71565 209.299874 
L 323.52525 208.984031 
L 322.33485 208.666759 
L 321.14445 208.34805 
L 319.95405 208.0279 
L 318.76365 207.7063 
L 317.57325 207.383244 
L 316.38285 207.058725 
L 315.19245 206.732736 
L 314.00205 206.40527 
L 312.81165 206.076321 
L 311.62125 205.745881 
L 310.43085 205.413942 
L 309.24045 205.080499 
L 308.05005 204.745544 
L 306.85965 204.409069 
L 305.66925 204.071068 
L 304.47885 203.731532 
L 303.28845 203.390455 
L 302.09805 203.04783 
L 300.90765 202.703648 
L 299.71725 202.357902 
L 298.52685 202.010585 
L 297.33645 201.661689 
L 296.14605 201.311206 
L 294.95565 200.959129 
L 293.76525 200.60545 
L 292.57485 200.250161 
L 291.38445 199.893254 
L 290.19405 199.534721 
L 289.00365 199.174555 
L 287.81325 198.812746 
L 286.62285 198.449287 
L 285.43245 198.084171 
L 284.24205 197.717387 
L 283.05165 197.348929 
L 281.86125 196.978788 
L 280.67085 196.606955 
L 279.48045 196.233423 
L 278.29005 195.858181 
L 277.09965 195.481223 
L 275.90925 195.102539 
L 274.71885 194.72212 
L 273.52845 194.339957 
L 272.33805 193.956042 
L 271.14765 193.570366 
L 269.95725 193.18292 
L 268.76685 192.793694 
L 267.57645 192.402679 
L 266.38605 192.009867 
L 265.19565 191.615247 
L 264.00525 191.218811 
L 262.81485 190.820549 
L 261.62445 190.420452 
L 260.43405 190.018509 
L 259.24365 189.614711 
L 258.05325 189.209049 
L 256.86285 188.801513 
L 255.67245 188.392092 
L 254.48205 187.980776 
L 253.29165 187.567556 
L 252.10125 187.152421 
L 250.91085 186.735362 
L 249.72045 186.316367 
L 248.53005 185.895426 
L 247.33965 185.472529 
L 246.14925 185.047665 
L 244.95885 184.620823 
L 243.76845 184.191993 
L 242.57805 183.761163 
L 241.38765 183.328323 
L 240.19725 182.893462 
L 239.00685 182.456568 
L 237.81645 182.01763 
L 236.62605 181.576637 
L 235.43565 181.133578 
L 234.24525 180.68844 
L 233.05485 180.241212 
L 231.86445 179.791882 
L 230.67405 179.340438 
L 229.48365 178.886869 
L 228.29325 178.431162 
L 227.10285 177.973305 
L 225.91245 177.513286 
L 224.72205 177.051092 
L 223.53165 176.58671 
L 222.34125 176.120129 
L 221.15085 175.651335 
L 219.96045 175.180315 
L 218.77005 174.707057 
L 217.57965 174.231546 
L 216.38925 173.753771 
L 215.19885 173.273717 
L 214.00845 172.791371 
L 212.81805 172.306719 
L 211.62765 171.819748 
L 210.43725 171.330443 
L 209.24685 170.838791 
L 208.05645 170.344777 
L 206.86605 169.848387 
L 205.67565 169.349606 
L 204.48525 168.84842 
L 203.29485 168.344815 
L 202.10445 167.838774 
L 200.91405 167.330283 
L 199.72365 166.819326 
L 198.53325 166.305889 
L 197.34285 165.789955 
L 196.15245 165.271509 
L 194.96205 164.750535 
L 193.77165 164.227016 
L 192.58125 163.700936 
L 191.39085 163.172279 
L 190.20045 162.641028 
L 189.01005 162.107166 
L 187.81965 161.570676 
L 186.62925 161.03154 
L 185.43885 160.48974 
L 184.24845 159.945259 
L 183.05805 159.398079 
L 181.86765 158.848182 
L 180.67725 158.295548 
L 179.48685 157.740158 
L 178.29645 157.181994 
L 177.10605 156.621036 
L 175.91565 156.057264 
L 174.72525 155.490659 
L 173.53485 154.921198 
L 172.34445 154.348862 
L 171.15405 153.77363 
L 169.96365 153.19548 
L 168.77325 152.614389 
L 167.58285 152.030335 
L 166.39245 151.443296 
L 165.20205 150.853249 
L 164.01165 150.260168 
L 162.82125 149.664031 
L 161.63085 149.064811 
L 160.44045 148.462484 
L 159.25005 147.857024 
L 158.05965 147.248404 
L 156.86925 146.636597 
L 155.67885 146.021574 
L 154.48845 145.403307 
L 153.29805 144.781767 
L 152.10765 144.156923 
L 150.91725 143.528744 
L 149.72685 142.897198 
L 148.53645 142.262253 
L 147.34605 141.623874 
L 146.15565 140.982027 
L 144.96525 140.336675 
L 143.77485 139.687782 
L 142.58445 139.035309 
L 141.39405 138.379216 
L 140.20365 137.719464 
L 139.01325 137.056009 
L 137.82285 136.388809 
L 136.63245 135.717817 
L 135.44205 135.042987 
L 134.25165 134.364271 
L 133.06125 133.681619 
L 131.87085 132.994978 
L 130.68045 132.304295 
L 129.49005 131.609514 
L 128.29965 130.910576 
L 127.10925 130.207422 
L 125.91885 129.49999 
L 124.72845 128.788214 
L 123.53805 128.072027 
L 122.34765 127.351359 
L 121.15725 126.626138 
L 119.96685 125.896288 
L 118.77645 125.161732 
L 117.58605 124.422387 
L 116.39565 123.67817 
L 115.20525 122.928993 
L 114.01485 122.174765 
L 112.82445 121.415392 
L 111.63405 120.650776 
L 110.44365 119.880816 
L 109.25325 119.105407 
L 108.06285 118.324439 
L 106.87245 117.537801 
L 105.68205 116.745375 
L 104.49165 115.947041 
L 103.30125 115.142675 
L 102.11085 114.332147 
L 100.92045 113.515326 
L 99.73005 112.692073 
L 98.53965 111.86225 
L 97.34925 111.02571 
L 96.15885 110.182305 
L 94.96845 109.331883 
L 93.77805 108.474288 
L 92.58765 107.60936 
L 91.39725 106.736937 
L 90.20685 105.856852 
L 89.01645 104.968938 
L 87.82605 104.073024 
L 86.63565 103.168936 
L 85.44525 102.256502 
L 84.25485 101.335547 
L 83.06445 100.405894 
L 81.87405 99.467371 
L 80.68365 98.519803 
L 79.49325 97.563019 
L 78.30285 96.596852 
L 77.11245 95.621137 
L 75.92205 94.635716 
L 74.73165 93.640438 
L 73.54125 92.635158 
L 72.35085 91.619742 
L 71.16045 90.594066 
L 69.97005 89.55802 
L 68.77965 88.511509 
L 67.58925 87.454453 
L 66.39885 86.386791 
L 65.20845 85.308484 
L 64.01805 84.219516 
L 62.82765 83.119894 
L 61.63725 82.009656 
L 60.44685 80.888868 
L 59.25645 79.757632 
L 58.06605 78.616082 
L 56.87565 77.464392 
L 55.68525 76.302777 
L 54.49485 75.131494 
L 53.30445 73.950846 
L 52.11405 72.761184 
L 50.92365 71.56291 
L 49.73325 70.356477 
L 48.54285 69.142391 
L 47.35245 67.921215 
L 46.16205 66.693567 
L 44.97165 65.460124 
L 43.78125 64.221619 
z
" clip-path="url(#p199b8c2c3d)" style="fill: #d62728"/>
   </g>
   <g id="FillBetweenPolyCollection_5">
    <path d="M 43.78125 10.999219 
L 43.78125 64.221619 
L 44.97165 65.460124 
L 46.16205 66.693567 
L 47.35245 67.921215 
L 48.54285 69.142391 
L 49.73325 70.356477 
L 50.92365 71.56291 
L 52.11405 72.761184 
L 53.30445 73.950846 
L 54.49485 75.131494 
L 55.68525 76.302777 
L 56.87565 77.464392 
L 58.06605 78.616082 
L 59.25645 79.757632 
L 60.44685 80.888868 
L 61.63725 82.009656 
L 62.82765 83.119894 
L 64.01805 84.219516 
L 65.20845 85.308484 
L 66.39885 86.386791 
L 67.58925 87.454453 
L 68.77965 88.511509 
L 69.97005 89.55802 
L 71.16045 90.594066 
L 72.35085 91.619742 
L 73.54125 92.635158 
L 74.73165 93.640438 
L 75.92205 94.635716 
L 77.11245 95.621137 
L 78.30285 96.596852 
L 79.49325 97.563019 
L 80.68365 98.519803 
L 81.87405 99.467371 
L 83.06445 100.405894 
L 84.25485 101.335547 
L 85.44525 102.256502 
L 86.63565 103.168936 
L 87.82605 104.073024 
L 89.01645 104.968938 
L 90.20685 105.856852 
L 91.39725 106.736937 
L 92.58765 107.60936 
L 93.77805 108.474288 
L 94.96845 109.331883 
L 96.15885 110.182305 
L 97.34925 111.02571 
L 98.53965 111.86225 
L 99.73005 112.692073 
L 100.92045 113.515326 
L 102.11085 114.332147 
L 103.30125 115.142675 
L 104.49165 115.947041 
L 105.68205 116.745375 
L 106.87245 117.537801 
L 108.06285 118.324439 
L 109.25325 119.105407 
L 110.44365 119.880816 
L 111.63405 120.650776 
L 112.82445 121.415392 
L 114.01485 122.174765 
L 115.20525 122.928993 
L 116.39565 123.67817 
L 117.58605 124.422387 
L 118.77645 125.161732 
L 119.96685 125.896288 
L 121.15725 126.626138 
L 122.34765 127.351359 
L 123.53805 128.072027 
L 124.72845 128.788214 
L 125.91885 129.49999 
L 127.10925 130.207422 
L 128.29965 130.910576 
L 129.49005 131.609514 
L 130.68045 132.304295 
L 131.87085 132.994978 
L 133.06125 133.681619 
L 134.25165 134.364271 
L 135.44205 135.042987 
L 136.63245 135.717817 
L 137.82285 136.388809 
L 139.01325 137.056009 
L 140.20365 137.719464 
L 141.39405 138.379216 
L 142.58445 139.035309 
L 143.77485 139.687782 
L 144.96525 140.336675 
L 146.15565 140.982027 
L 147.34605 141.623874 
L 148.53645 142.262253 
L 149.72685 142.897198 
L 150.91725 143.528744 
L 152.10765 144.156923 
L 153.29805 144.781767 
L 154.48845 145.403307 
L 155.67885 146.021574 
L 156.86925 146.636597 
L 158.05965 147.248404 
L 159.25005 147.857024 
L 160.44045 148.462484 
L 161.63085 149.064811 
L 162.82125 149.664031 
L 164.01165 150.260168 
L 165.20205 150.853249 
L 166.39245 151.443296 
L 167.58285 152.030335 
L 168.77325 152.614389 
L 169.96365 153.19548 
L 171.15405 153.77363 
L 172.34445 154.348862 
L 173.53485 154.921198 
L 174.72525 155.490659 
L 175.91565 156.057264 
L 177.10605 156.621036 
L 178.29645 157.181994 
L 179.48685 157.740158 
L 180.67725 158.295548 
L 181.86765 158.848182 
L 183.05805 159.398079 
L 184.24845 159.945259 
L 185.43885 160.48974 
L 186.62925 161.03154 
L 187.81965 161.570676 
L 189.01005 162.107166 
L 190.20045 162.641028 
L 191.39085 163.172279 
L 192.58125 163.700936 
L 193.77165 164.227016 
L 194.96205 164.750535 
L 196.15245 165.271509 
L 197.34285 165.789955 
L 198.53325 166.305889 
L 199.72365 166.819326 
L 200.91405 167.330283 
L 202.10445 167.838774 
L 203.29485 168.344815 
L 204.48525 168.84842 
L 205.67565 169.349606 
L 206.86605 169.848387 
L 208.05645 170.344777 
L 209.24685 170.838791 
L 210.43725 171.330443 
L 211.62765 171.819748 
L 212.81805 172.306719 
L 214.00845 172.791371 
L 215.19885 173.273717 
L 216.38925 173.753771 
L 217.57965 174.231546 
L 218.77005 174.707057 
L 219.96045 175.180315 
L 221.15085 175.651335 
L 222.34125 176.120129 
L 223.53165 176.58671 
L 224.72205 177.051092 
L 225.91245 177.513286 
L 227.10285 177.973305 
L 228.29325 178.431162 
L 229.48365 178.886869 
L 230.67405 179.340438 
L 231.86445 179.791882 
L 233.05485 180.241212 
L 234.24525 180.68844 
L 235.43565 181.133578 
L 236.62605 181.576637 
L 237.81645 182.01763 
L 239.00685 182.456568 
L 240.19725 182.893462 
L 241.38765 183.328323 
L 242.57805 183.761163 
L 243.76845 184.191993 
L 244.95885 184.620823 
L 246.14925 185.047665 
L 247.33965 185.472529 
L 248.53005 185.895426 
L 249.72045 186.316367 
L 250.91085 186.735362 
L 252.10125 187.152421 
L 253.29165 187.567556 
L 254.48205 187.980776 
L 255.67245 188.392092 
L 256.86285 188.801513 
L 258.05325 189.209049 
L 259.24365 189.614711 
L 260.43405 190.018509 
L 261.62445 190.420452 
L 262.81485 190.820549 
L 264.00525 191.218811 
L 265.19565 191.615247 
L 266.38605 192.009867 
L 267.57645 192.402679 
L 268.76685 192.793694 
L 269.95725 193.18292 
L 271.14765 193.570366 
L 272.33805 193.956042 
L 273.52845 194.339957 
L 274.71885 194.72212 
L 275.90925 195.102539 
L 277.09965 195.481223 
L 278.29005 195.858181 
L 279.48045 196.233423 
L 280.67085 196.606955 
L 281.86125 196.978788 
L 283.05165 197.348929 
L 284.24205 197.717387 
L 285.43245 198.084171 
L 286.62285 198.449287 
L 287.81325 198.812746 
L 289.00365 199.174555 
L 290.19405 199.534721 
L 291.38445 199.893254 
L 292.57485 200.250161 
L 293.76525 200.60545 
L 294.95565 200.959129 
L 296.14605 201.311206 
L 297.33645 201.661689 
L 298.52685 202.010585 
L 299.71725 202.357902 
L 300.90765 202.703648 
L 302.09805 203.04783 
L 303.28845 203.390455 
L 304.47885 203.731532 
L 305.66925 204.071068 
L 306.85965 204.409069 
L 308.05005 204.745544 
L 309.24045 205.080499 
L 310.43085 205.413942 
L 311.62125 205.745881 
L 312.81165 206.076321 
L 314.00205 206.40527 
L 315.19245 206.732736 
L 316.38285 207.058725 
L 317.57325 207.383244 
L 318.76365 207.7063 
L 319.95405 208.0279 
L 321.14445 208.34805 
L 322.33485 208.666759 
L 323.52525 208.984031 
L 324.71565 209.299874 
L 325.90605 209.614295 
L 327.09645 209.9273 
L 328.28685 210.238896 
L 329.47725 210.549089 
L 330.66765 210.857886 
L 331.85805 211.165293 
L 333.04845 211.471316 
L 334.23885 211.775963 
L 335.42925 212.079239 
L 336.61965 212.38115 
L 337.81005 212.681703 
L 339.00045 212.980905 
L 340.19085 213.278761 
L 341.38125 213.575277 
L 342.57165 213.870459 
L 343.76205 214.164315 
L 344.95245 214.456849 
L 346.14285 214.748067 
L 347.33325 215.037977 
L 348.52365 215.326583 
L 349.71405 215.613891 
L 350.90445 215.899909 
L 352.09485 216.18464 
L 353.28525 216.468091 
L 354.47565 216.750268 
L 355.66605 217.031177 
L 356.85645 217.310824 
L 358.04685 217.589213 
L 359.23725 217.866351 
L 360.42765 218.142243 
L 361.61805 218.416895 
L 362.80845 218.690313 
L 363.99885 218.962502 
L 365.18925 219.233467 
L 366.37965 219.503215 
L 367.57005 219.77175 
L 368.76045 220.039078 
L 369.95085 220.305204 
L 371.14125 220.570134 
L 372.33165 220.833873 
L 373.52205 221.096426 
L 374.71245 221.357799 
L 375.90285 221.617997 
L 377.09325 221.877025 
L 378.28365 222.134889 
L 379.47405 222.391592 
L 380.66445 222.647142 
L 381.85485 222.901543 
L 383.04525 223.154799 
L 384.23565 223.406916 
L 385.42605 223.6579 
L 386.61645 223.907754 
L 387.80685 224.156485 
L 388.99725 224.404097 
L 390.18765 224.650594 
L 391.37805 224.895983 
L 392.56845 225.140268 
L 393.75885 225.383453 
L 394.94925 225.625544 
L 396.13965 225.866545 
L 397.33005 226.106462 
L 398.52045 226.345299 
L 399.71085 226.58306 
L 399.71085 10.999219 
L 399.71085 10.999219 
L 398.52045 10.999219 
L 397.33005 10.999219 
L 396.13965 10.999219 
L 394.94925 10.999219 
L 393.75885 10.999219 
L 392.56845 10.999219 
L 391.37805 10.999219 
L 390.18765 10.999219 
L 388.99725 10.999219 
L 387.80685 10.999219 
L 386.61645 10.999219 
L 385.42605 10.999219 
L 384.23565 10.999219 
L 383.04525 10.999219 
L 381.85485 10.999219 
L 380.66445 10.999219 
L 379.47405 10.999219 
L 378.28365 10.999219 
L 377.09325 10.999219 
L 375.90285 10.999219 
L 374.71245 10.999219 
L 373.52205 10.999219 
L 372.33165 10.999219 
L 371.14125 10.999219 
L 369.95085 10.999219 
L 368.76045 10.999219 
L 367.57005 10.999219 
L 366.37965 10.999219 
L 365.18925 10.999219 
L 363.99885 10.999219 
L 362.80845 10.999219 
L 361.61805 10.999219 
L 360.42765 10.999219 
L 359.23725 10.999219 
L 358.04685 10.999219 
L 356.85645 10.999219 
L 355.66605 10.999219 
L 354.47565 10.999219 
L 353.28525 10.999219 
L 352.09485 10.999219 
L 350.90445 10.999219 
L 349.71405 10.999219 
L 348.52365 10.999219 
L 347.33325 10.999219 
L 346.14285 10.999219 
L 344.95245 10.999219 
L 343.76205 10.999219 
L 342.57165 10.999219 
L 341.38125 10.999219 
L 340.19085 10.999219 
L 339.00045 10.999219 
L 337.81005 10.999219 
L 336.61965 10.999219 
L 335.42925 10.999219 
L 334.23885 10.999219 
L 333.04845 10.999219 
L 331.85805 10.999219 
L 330.66765 10.999219 
L 329.47725 10.999219 
L 328.28685 10.999219 
L 327.09645 10.999219 
L 325.90605 10.999219 
L 324.71565 10.999219 
L 323.52525 10.999219 
L 322.33485 10.999219 
L 321.14445 10.999219 
L 319.95405 10.999219 
L 318.76365 10.999219 
L 317.57325 10.999219 
L 316.38285 10.999219 
L 315.19245 10.999219 
L 314.00205 10.999219 
L 312.81165 10.999219 
L 311.62125 10.999219 
L 310.43085 10.999219 
L 309.24045 10.999219 
L 308.05005 10.999219 
L 306.85965 10.999219 
L 305.66925 10.999219 
L 304.47885 10.999219 
L 303.28845 10.999219 
L 302.09805 10.999219 
L 300.90765 10.999219 
L 299.71725 10.999219 
L 298.52685 10.999219 
L 297.33645 10.999219 
L 296.14605 10.999219 
L 294.95565 10.999219 
L 293.76525 10.999219 
L 292.57485 10.999219 
L 291.38445 10.999219 
L 290.19405 10.999219 
L 289.00365 10.999219 
L 287.81325 10.999219 
L 286.62285 10.999219 
L 285.43245 10.999219 
L 284.24205 10.999219 
L 283.05165 10.999219 
L 281.86125 10.999219 
L 280.67085 10.999219 
L 279.48045 10.999219 
L 278.29005 10.999219 
L 277.09965 10.999219 
L 275.90925 10.999219 
L 274.71885 10.999219 
L 273.52845 10.999219 
L 272.33805 10.999219 
L 271.14765 10.999219 
L 269.95725 10.999219 
L 268.76685 10.999219 
L 267.57645 10.999219 
L 266.38605 10.999219 
L 265.19565 10.999219 
L 264.00525 10.999219 
L 262.81485 10.999219 
L 261.62445 10.999219 
L 260.43405 10.999219 
L 259.24365 10.999219 
L 258.05325 10.999219 
L 256.86285 10.999219 
L 255.67245 10.999219 
L 254.48205 10.999219 
L 253.29165 10.999219 
L 252.10125 10.999219 
L 250.91085 10.999219 
L 249.72045 10.999219 
L 248.53005 10.999219 
L 247.33965 10.999219 
L 246.14925 10.999219 
L 244.95885 10.999219 
L 243.76845 10.999219 
L 242.57805 10.999219 
L 241.38765 10.999219 
L 240.19725 10.999219 
L 239.00685 10.999219 
L 237.81645 10.999219 
L 236.62605 10.999219 
L 235.43565 10.999219 
L 234.24525 10.999219 
L 233.05485 10.999219 
L 231.86445 10.999219 
L 230.67405 10.999219 
L 229.48365 10.999219 
L 228.29325 10.999219 
L 227.10285 10.999219 
L 225.91245 10.999219 
L 224.72205 10.999219 
L 223.53165 10.999219 
L 222.34125 10.999219 
L 221.15085 10.999219 
L 219.96045 10.999219 
L 218.77005 10.999219 
L 217.57965 10.999219 
L 216.38925 10.999219 
L 215.19885 10.999219 
L 214.00845 10.999219 
L 212.81805 10.999219 
L 211.62765 10.999219 
L 210.43725 10.999219 
L 209.24685 10.999219 
L 208.05645 10.999219 
L 206.86605 10.999219 
L 205.67565 10.999219 
L 204.48525 10.999219 
L 203.29485 10.999219 
L 202.10445 10.999219 
L 200.91405 10.999219 
L 199.72365 10.999219 
L 198.53325 10.999219 
L 197.34285 10.999219 
L 196.15245 10.999219 
L 194.96205 10.999219 
L 193.77165 10.999219 
L 192.58125 10.999219 
L 191.39085 10.999219 
L 190.20045 10.999219 
L 189.01005 10.999219 
L 187.81965 10.999219 
L 186.62925 10.999219 
L 185.43885 10.999219 
L 184.24845 10.999219 
L 183.05805 10.999219 
L 181.86765 10.999219 
L 180.67725 10.999219 
L 179.48685 10.999219 
L 178.29645 10.999219 
L 177.10605 10.999219 
L 175.91565 10.999219 
L 174.72525 10.999219 
L 173.53485 10.999219 
L 172.34445 10.999219 
L 171.15405 10.999219 
L 169.96365 10.999219 
L 168.77325 10.999219 
L 167.58285 10.999219 
L 166.39245 10.999219 
L 165.20205 10.999219 
L 164.01165 10.999219 
L 162.82125 10.999219 
L 161.63085 10.999219 
L 160.44045 10.999219 
L 159.25005 10.999219 
L 158.05965 10.999219 
L 156.86925 10.999219 
L 155.67885 10.999219 
L 154.48845 10.999219 
L 153.29805 10.999219 
L 152.10765 10.999219 
L 150.91725 10.999219 
L 149.72685 10.999219 
L 148.53645 10.999219 
L 147.34605 10.999219 
L 146.15565 10.999219 
L 144.96525 10.999219 
L 143.77485 10.999219 
L 142.58445 10.999219 
L 141.39405 10.999219 
L 140.20365 10.999219 
L 139.01325 10.999219 
L 137.82285 10.999219 
L 136.63245 10.999219 
L 135.44205 10.999219 
L 134.25165 10.999219 
L 133.06125 10.999219 
L 131.87085 10.999219 
L 130.68045 10.999219 
L 129.49005 10.999219 
L 128.29965 10.999219 
L 127.10925 10.999219 
L 125.91885 10.999219 
L 124.72845 10.999219 
L 123.53805 10.999219 
L 122.34765 10.999219 
L 121.15725 10.999219 
L 119.96685 10.999219 
L 118.77645 10.999219 
L 117.58605 10.999219 
L 116.39565 10.999219 
L 115.20525 10.999219 
L 114.01485 10.999219 
L 112.82445 10.999219 
L 111.63405 10.999219 
L 110.44365 10.999219 
L 109.25325 10.999219 
L 108.06285 10.999219 
L 106.87245 10.999219 
L 105.68205 10.999219 
L 104.49165 10.999219 
L 103.30125 10.999219 
L 102.11085 10.999219 
L 100.92045 10.999219 
L 99.73005 10.999219 
L 98.53965 10.999219 
L 97.34925 10.999219 
L 96.15885 10.999219 
L 94.96845 10.999219 
L 93.77805 10.999219 
L 92.58765 10.999219 
L 91.39725 10.999219 
L 90.20685 10.999219 
L 89.01645 10.999219 
L 87.82605 10.999219 
L 86.63565 10.999219 
L 85.44525 10.999219 
L 84.25485 10.999219 
L 83.06445 10.999219 
L 81.87405 10.999219 
L 80.68365 10.999219 
L 79.49325 10.999219 
L 78.30285 10.999219 
L 77.11245 10.999219 
L 75.92205 10.999219 
L 74.73165 10.999219 
L 73.54125 10.999219 
L 72.35085 10.999219 
L 71.16045 10.999219 
L 69.97005 10.999219 
L 68.77965 10.999219 
L 67.58925 10.999219 
L 66.39885 10.999219 
L 65.20845 10.999219 
L 64.01805 10.999219 
L 62.82765 10.999219 
L 61.63725 10.999219 
L 60.44685 10.999219 
L 59.25645 10.999219 
L 58.06605 10.999219 
L 56.87565 10.999219 
L 55.68525 10.999219 
L 54.49485 10.999219 
L 53.30445 10.999219 
L 52.11405 10.999219 
L 50.92365 10.999219 
L 49.73325 10.999219 
L 48.54285 10.999219 
L 47.35245 10.999219 
L 46.16205 10.999219 
L 44.97165 10.999219 
L 43.78125 10.999219 
z
" clip-path="url(#p199b8c2c3d)" style="fill: #9467bd"/>
   </g>
   <g id="matplotlib.axis_1">
    <g id="xtick_1">
     <g id="line2d_1">
      <defs>
       <path id="m6341ceea06" d="M 0 0 
L 0 3.5 
" style="stroke: #000000; stroke-width: 0.8"/>
      </defs>
      <g>
       <use xlink:href="#m6341ceea06" x="43.78125" y="277.111219" style="stroke: #000000; stroke-width: 0.8"/>
      </g>
     </g>
     <g id="text_1">
      <!-- 0 -->
      <g transform="translate(40.6 291.709656) scale(0.1 -0.1)">
       <defs>
        <path id="DejaVuSans-30" d="M 2034 4250 
Q 1547 4250 1301 3770 
Q 1056 3291 1056 2328 
Q 1056 1369 1301 889 
Q 1547 409 2034 409 
Q 2525 409 2770 889 
Q 3016 1369 3016 2328 
Q 3016 3291 2770 3770 
Q 2525 4250 2034 4250 
z
M 2034 4750 
Q 2819 4750 3233 4129 
Q 3647 3509 3647 2328 
Q 3647 1150 3233 529 
Q 2819 -91 2034 -91 
Q 1250 -91 836 529 
Q 422 1150 422 2328 
Q 422 3509 836 4129 
Q 1250 4750 2034 4750 
z
" transform="scale(0.015625)"/>
       </defs>
       <use xlink:href="#DejaVuSans-30"/>
      </g>
     </g>
    </g>
    <g id="xtick_2">
     <g id="line2d_2">
      <g>
       <use xlink:href="#m6341ceea06" x="103.30125" y="277.111219" style="stroke: #000000; stroke-width: 0.8"/>
      </g>
     </g>
     <g id="text_2">
      <!-- 5 -->
      <g transform="translate(100.12 291.709656) scale(0.1 -0.1)">
       <defs>
        <path id="DejaVuSans-35" d="M 691 4666 
L 3169 4666 
L 3169 4134 
L 1269 4134 
L 1269 2991 
Q 1406 3038 1543 3061 
Q 1681 3084 1819 3084 
Q 2600 3084 3056 2656 
Q 3513 2228 3513 1497 
Q 3513 744 3044 326 
Q 2575 -91 1722 -91 
Q 1428 -91 1123 -41 
Q 819 9 494 109 
L 494 744 
Q 775 591 1075 516 
Q 1375 441 1709 441 
Q 2250 441 2565 725 
Q 2881 1009 2881 1497 
Q 2881 1984 2565 2268 
Q 2250 2553 1709 2553 
Q 1456 2553 1204 2497 
Q 953 2441 691 2322 
L 691 4666 
z
" transform="scale(0.015625)"/>
       </defs>
       <use xlink:href="#DejaVuSans-35"/>
      </g>
     </g>
    </g>
    <g id="xtick_3">
     <g id="line2d_3">
      <g>
       <use xlink:href="#m6341ceea06" x="162.82125" y="277.111219" style="stroke: #000000; stroke-width: 0.8"/>
      </g>
     </g>
     <g id="text_3">
      <!-- 10 -->
      <g transform="translate(156.45875 291.709656) scale(0.1 -0.1)">
       <defs>
        <path id="DejaVuSans-31" d="M 794 531 
L 1825 531 
L 1825 4091 
L 703 3866 
L 703 4441 
L 1819 4666 
L 2450 4666 
L 2450 531 
L 3481 531 
L 3481 0 
L 794 0 
L 794 531 
z
" transform="scale(0.015625)"/>
       </defs>
       <use xlink:href="#DejaVuSans-31"/>
       <use xlink:href="#DejaVuSans-30" transform="translate(63.623047 0)"/>
      </g>
     </g>
    </g>
    <g id="xtick_4">
     <g id="line2d_4">
      <g>
       <use xlink:href="#m6341ceea06" x="222.34125" y="277.111219" style="stroke: #000000; stroke-width: 0.8"/>
      </g>
     </g>
     <g id="text_4">
      <!-- 15 -->
      <g transform="translate(215.97875 291.709656) scale(0.1 -0.1)">
       <use xlink:href="#DejaVuSans-31"/>
       <use xlink:href="#DejaVuSans-35" transform="translate(63.623047 0)"/>
      </g>
     </g>
    </g>
    <g id="xtick_5">
     <g id="line2d_5">
      <g>
       <use xlink:href="#m6341ceea06" x="281.86125" y="277.111219" style="stroke: #000000; stroke-width: 0.8"/>
      </g>
     </g>
     <g id="text_5">
      <!-- 20 -->
      <g transform="translate(275.49875 291.709656) scale(0.1 -0.1)">
       <defs>
        <path id="DejaVuSans-32" d="M 1228 531 
L 3431 531 
L 3431 0 
L 469 0 
L 469 531 
Q 828 903 1448 1529 
Q 2069 2156 2228 2338 
Q 2531 2678 2651 2914 
Q 2772 3150 2772 3378 
Q 2772 3750 2511 3984 
Q 2250 4219 1831 4219 
Q 1534 4219 1204 4116 
Q 875 4013 500 3803 
L 500 4441 
Q 881 4594 1212 4672 
Q 1544 4750 1819 4750 
Q 2544 4750 2975 4387 
Q 3406 4025 3406 3419 
Q 3406 3131 3298 2873 
Q 3191 2616 2906 2266 
Q 2828 2175 2409 1742 
Q 1991 1309 1228 531 
z
" transform="scale(0.015625)"/>
       </defs>
       <use xlink:href="#DejaVuSans-32"/>
       <use xlink:href="#DejaVuSans-30" transform="translate(63.623047 0)"/>
      </g>
     </g>
    </g>
    <g id="xtick_6">
     <g id="line2d_6">
      <g>
       <use xlink:href="#m6341ceea06" x="341.38125" y="277.111219" style="stroke: #000000; stroke-width: 0.8"/>
      </g>
     </g>
     <g id="text_6">
      <!-- 25 -->
      <g transform="translate(335.01875 291.709656) scale(0.1 -0.1)">
       <use xlink:href="#DejaVuSans-32"/>
       <use xlink:href="#DejaVuSans-35" transform="translate(63.623047 0)"/>
      </g>
     </g>
    </g>
    <g id="xtick_7">
     <g id="line2d_7">
      <g>
       <use xlink:href="#m6341ceea06" x="400.90125" y="277.111219" style="stroke: #000000; stroke-width: 0.8"/>
      </g>
     </g>
     <g id="text_7">
      <!-- 30 -->
      <g transform="translate(394.53875 291.709656) scale(0.1 -0.1)">
       <defs>
        <path id="DejaVuSans-33" d="M 2597 2516 
Q 3050 2419 3304 2112 
Q 3559 1806 3559 1356 
Q 3559 666 3084 287 
Q 2609 -91 1734 -91 
Q 1441 -91 1130 -33 
Q 819 25 488 141 
L 488 750 
Q 750 597 1062 519 
Q 1375 441 1716 441 
Q 2309 441 2620 675 
Q 2931 909 2931 1356 
Q 2931 1769 2642 2001 
Q 2353 2234 1838 2234 
L 1294 2234 
L 1294 2753 
L 1863 2753 
Q 2328 2753 2575 2939 
Q 2822 3125 2822 3475 
Q 2822 3834 2567 4026 
Q 2313 4219 1838 4219 
Q 1578 4219 1281 4162 
Q 984 4106 628 3988 
L 628 4550 
Q 988 4650 1302 4700 
Q 1616 4750 1894 4750 
Q 2613 4750 3031 4423 
Q 3450 4097 3450 3541 
Q 3450 3153 3228 2886 
Q 3006 2619 2597 2516 
z
" transform="scale(0.015625)"/>
       </defs>
       <use xlink:href="#DejaVuSans-33"/>
       <use xlink:href="#DejaVuSans-30" transform="translate(63.623047 0)"/>
      </g>
     </g>
    </g>
    <g id="text_8">
     <!-- time -->
     <g transform="translate(211.045156 305.387781) scale(0.1 -0.1)">
      <defs>
       <path id="DejaVuSans-74" d="M 1172 4494 
L 1172 3500 
L 2356 3500 
L 2356 3053 
L 1172 3053 
L 1172 1153 
Q 1172 725 1289 603 
Q 1406 481 1766 481 
L 2356 481 
L 2356 0 
L 1766 0 
Q 1100 0 847 248 
Q 594 497 594 1153 
L 594 3053 
L 172 3053 
L 172 3500 
L 594 3500 
L 594 4494 
L 1172 4494 
z
" transform="scale(0.015625)"/>
       <path id="DejaVuSans-69" d="M 603 3500 
L 1178 3500 
L 1178 0 
L 603 0 
L 603 3500 
z
M 603 4863 
L 1178 4863 
L 1178 4134 
L 603 4134 
L 603 4863 
z
" transform="scale(0.015625)"/>
       <path id="DejaVuSans-6d" d="M 3328 2828 
Q 3544 3216 3844 3400 
Q 4144 3584 4550 3584 
Q 5097 3584 5394 3201 
Q 5691 2819 5691 2113 
L 5691 0 
L 5113 0 
L 5113 2094 
Q 5113 2597 4934 2840 
Q 4756 3084 4391 3084 
Q 3944 3084 3684 2787 
Q 3425 2491 3425 1978 
L 3425 0 
L 2847 0 
L 2847 2094 
Q 2847 2600 2669 2842 
Q 2491 3084 2119 3084 
Q 1678 3084 1418 2786 
Q 1159 2488 1159 1978 
L 1159 0 
L 581 0 
L 581 3500 
L 1159 3500 
L 1159 2956 
Q 1356 3278 1631 3431 
Q 1906 3584 2284 3584 
Q 2666 3584 2933 3390 
Q 3200 3197 3328 2828 
z
" transform="scale(0.015625)"/>
       <path id="DejaVuSans-65" d="M 3597 1894 
L 3597 1613 
L 953 1613 
Q 991 1019 1311 708 
Q 1631 397 2203 397 
Q 2534 397 2845 478 
Q 3156 559 3463 722 
L 3463 178 
Q 3153 47 2828 -22 
Q 2503 -91 2169 -91 
Q 1331 -91 842 396 
Q 353 884 353 1716 
Q 353 2575 817 3079 
Q 1281 3584 2069 3584 
Q 2775 3584 3186 3129 
Q 3597 2675 3597 1894 
z
M 3022 2063 
Q 3016 2534 2758 2815 
Q 2500 3097 2075 3097 
Q 1594 3097 1305 2825 
Q 1016 2553 972 2059 
L 3022 2063 
z
" transform="scale(0.015625)"/>
      </defs>
      <use xlink:href="#DejaVuSans-74"/>
      <use xlink:href="#DejaVuSans-69" transform="translate(39.208984 0)"/>
      <use xlink:href="#DejaVuSans-6d" transform="translate(66.992188 0)"/>
      <use xlink:href="#DejaVuSans-65" transform="translate(164.404297 0)"/>
     </g>
    </g>
   </g>
   <g id="matplotlib.axis_2">
    <g id="ytick_1">
     <g id="line2d_8">
      <defs>
       <path id="m23ed6991d9" d="M 0 0 
L -3.5 0 
" style="stroke: #000000; stroke-width: 0.8"/>
      </defs>
      <g>
       <use xlink:href="#m23ed6991d9" x="43.78125" y="277.111219" style="stroke: #000000; stroke-width: 0.8"/>
      </g>
     </g>
     <g id="text_9">
      <!-- 0.0 -->
      <g transform="translate(20.878125 280.910437) scale(0.1 -0.1)">
       <defs>
        <path id="DejaVuSans-2e" d="M 684 794 
L 1344 794 
L 1344 0 
L 684 0 
L 684 794 
z
" transform="scale(0.015625)"/>
       </defs>
       <use xlink:href="#DejaVuSans-30"/>
       <use xlink:href="#DejaVuSans-2e" transform="translate(63.623047 0)"/>
       <use xlink:href="#DejaVuSans-30" transform="translate(95.410156 0)"/>
      </g>
     </g>
    </g>
    <g id="ytick_2">
     <g id="line2d_9">
      <g>
       <use xlink:href="#m23ed6991d9" x="43.78125" y="223.888819" style="stroke: #000000; stroke-width: 0.8"/>
      </g>
     </g>
     <g id="text_10">
      <!-- 0.2 -->
      <g transform="translate(20.878125 227.688037) scale(0.1 -0.1)">
       <use xlink:href="#DejaVuSans-30"/>
       <use xlink:href="#DejaVuSans-2e" transform="translate(63.623047 0)"/>
       <use xlink:href="#DejaVuSans-32" transform="translate(95.410156 0)"/>
      </g>
     </g>
    </g>
    <g id="ytick_3">
     <g id="line2d_10">
      <g>
       <use xlink:href="#m23ed6991d9" x="43.78125" y="170.666419" style="stroke: #000000; stroke-width: 0.8"/>
      </g>
     </g>
     <g id="text_11">
      <!-- 0.4 -->
      <g transform="translate(20.878125 174.465637) scale(0.1 -0.1)">
       <defs>
        <path id="DejaVuSans-34" d="M 2419 4116 
L 825 1625 
L 2419 1625 
L 2419 4116 
z
M 2253 4666 
L 3047 4666 
L 3047 1625 
L 3713 1625 
L 3713 1100 
L 3047 1100 
L 3047 0 
L 2419 0 
L 2419 1100 
L 313 1100 
L 313 1709 
L 2253 4666 
z
" transform="scale(0.015625)"/>
       </defs>
       <use xlink:href="#DejaVuSans-30"/>
       <use xlink:href="#DejaVuSans-2e" transform="translate(63.623047 0)"/>
       <use xlink:href="#DejaVuSans-34" transform="translate(95.410156 0)"/>
      </g>
     </g>
    </g>
    <g id="ytick_4">
     <g id="line2d_11">
      <g>
       <use xlink:href="#m23ed6991d9" x="43.78125" y="117.444019" style="stroke: #000000; stroke-width: 0.8"/>
      </g>
     </g>
     <g id="text_12">
      <!-- 0.6 -->
      <g transform="translate(20.878125 121.243237) scale(0.1 -0.1)">
       <defs>
        <path id="DejaVuSans-36" d="M 2113 2584 
Q 1688 2584 1439 2293 
Q 1191 2003 1191 1497 
Q 1191 994 1439 701 
Q 1688 409 2113 409 
Q 2538 409 2786 701 
Q 3034 994 3034 1497 
Q 3034 2003 2786 2293 
Q 2538 2584 2113 2584 
z
M 3366 4563 
L 3366 3988 
Q 3128 4100 2886 4159 
Q 2644 4219 2406 4219 
Q 1781 4219 1451 3797 
Q 1122 3375 1075 2522 
Q 1259 2794 1537 2939 
Q 1816 3084 2150 3084 
Q 2853 3084 3261 2657 
Q 3669 2231 3669 1497 
Q 3669 778 3244 343 
Q 2819 -91 2113 -91 
Q 1303 -91 875 529 
Q 447 1150 447 2328 
Q 447 3434 972 4092 
Q 1497 4750 2381 4750 
Q 2619 4750 2861 4703 
Q 3103 4656 3366 4563 
z
" transform="scale(0.015625)"/>
       </defs>
       <use xlink:href="#DejaVuSans-30"/>
       <use xlink:href="#DejaVuSans-2e" transform="translate(63.623047 0)"/>
       <use xlink:href="#DejaVuSans-36" transform="translate(95.410156 0)"/>
      </g>
     </g>
    </g>
    <g id="ytick_5">
     <g id="line2d_12">
      <g>
       <use xlink:href="#m23ed6991d9" x="43.78125" y="64.221619" style="stroke: #000000; stroke-width: 0.8"/>
      </g>
     </g>
     <g id="text_13">
      <!-- 0.8 -->
      <g transform="translate(20.878125 68.020837) scale(0.1 -0.1)">
       <defs>
        <path id="DejaVuSans-38" d="M 2034 2216 
Q 1584 2216 1326 1975 
Q 1069 1734 1069 1313 
Q 1069 891 1326 650 
Q 1584 409 2034 409 
Q 2484 409 2743 651 
Q 3003 894 3003 1313 
Q 3003 1734 2745 1975 
Q 2488 2216 2034 2216 
z
M 1403 2484 
Q 997 2584 770 2862 
Q 544 3141 544 3541 
Q 544 4100 942 4425 
Q 1341 4750 2034 4750 
Q 2731 4750 3128 4425 
Q 3525 4100 3525 3541 
Q 3525 3141 3298 2862 
Q 3072 2584 2669 2484 
Q 3125 2378 3379 2068 
Q 3634 1759 3634 1313 
Q 3634 634 3220 271 
Q 2806 -91 2034 -91 
Q 1263 -91 848 271 
Q 434 634 434 1313 
Q 434 1759 690 2068 
Q 947 2378 1403 2484 
z
M 1172 3481 
Q 1172 3119 1398 2916 
Q 1625 2713 2034 2713 
Q 2441 2713 2670 2916 
Q 2900 3119 2900 3481 
Q 2900 3844 2670 4047 
Q 2441 4250 2034 4250 
Q 1625 4250 1398 4047 
Q 1172 3844 1172 3481 
z
" transform="scale(0.015625)"/>
       </defs>
       <use xlink:href="#DejaVuSans-30"/>
       <use xlink:href="#DejaVuSans-2e" transform="translate(63.623047 0)"/>
       <use xlink:href="#DejaVuSans-38" transform="translate(95.410156 0)"/>
      </g>
     </g>
    </g>
    <g id="ytick_6">
     <g id="line2d_13">
      <g>
       <use xlink:href="#m23ed6991d9" x="43.78125" y="10.999219" style="stroke: #000000; stroke-width: 0.8"/>
      </g>
     </g>
     <g id="text_14">
      <!-- 1.0 -->
      <g transform="translate(20.878125 14.798437) scale(0.1 -0.1)">
       <use xlink:href="#DejaVuSans-31"/>
       <use xlink:href="#DejaVuSans-2e" transform="translate(63.623047 0)"/>
       <use xlink:href="#DejaVuSans-30" transform="translate(95.410156 0)"/>
      </g>
     </g>
    </g>
    <g id="text_15">
     <!-- fraction -->
     <g transform="translate(14.798438 163.261469) rotate(-90) scale(0.1 -0.1)">
      <defs>
       <path id="DejaVuSans-66" d="M 2375 4863 
L 2375 4384 
L 1825 4384 
Q 1516 4384 1395 4259 
Q 1275 4134 1275 3809 
L 1275 3500 
L 2222 3500 
L 2222 3053 
L 1275 3053 
L 1275 0 
L 697 0 
L 697 3053 
L 147 3053 
L 147 3500 
L 697 3500 
L 697 3744 
Q 697 4328 969 4595 
Q 1241 4863 1831 4863 
L 2375 4863 
z
" transform="scale(0.015625)"/>
       <path id="DejaVuSans-72" d="M 2631 2963 
Q 2534 3019 2420 3045 
Q 2306 3072 2169 3072 
Q 1681 3072 1420 2755 
Q 1159 2438 1159 1844 
L 1159 0 
L 581 0 
L 581 3500 
L 1159 3500 
L 1159 2956 
Q 1341 3275 1631 3429 
Q 1922 3584 2338 3584 
Q 2397 3584 2469 3576 
Q 2541 3569 2628 3553 
L 2631 2963 
z
" transform="scale(0.015625)"/>
       <path id="DejaVuSans-61" d="M 2194 1759 
Q 1497 1759 1228 1600 
Q 959 1441 959 1056 
Q 959 750 1161 570 
Q 1363 391 1709 391 
Q 2188 391 2477 730 
Q 2766 1069 2766 1631 
L 2766 1759 
L 2194 1759 
z
M 3341 1997 
L 3341 0 
L 2766 0 
L 2766 531 
Q 2569 213 2275 61 
Q 1981 -91 1556 -91 
Q 1019 -91 701 211 
Q 384 513 384 1019 
Q 384 1609 779 1909 
Q 1175 2209 1959 2209 
L 2766 2209 
L 2766 2266 
Q 2766 2663 2505 2880 
Q 2244 3097 1772 3097 
Q 1472 3097 1187 3025 
Q 903 2953 641 2809 
L 641 3341 
Q 956 3463 1253 3523 
Q 1550 3584 1831 3584 
Q 2591 3584 2966 3190 
Q 3341 2797 3341 1997 
z
" transform="scale(0.015625)"/>
       <path id="DejaVuSans-63" d="M 3122 3366 
L 3122 2828 
Q 2878 2963 2633 3030 
Q 2388 3097 2138 3097 
Q 1578 3097 1268 2742 
Q 959 2388 959 1747 
Q 959 1106 1268 751 
Q 1578 397 2138 397 
Q 2388 397 2633 464 
Q 2878 531 3122 666 
L 3122 134 
Q 2881 22 2623 -34 
Q 2366 -91 2075 -91 
Q 1284 -91 818 406 
Q 353 903 353 1747 
Q 353 2603 823 3093 
Q 1294 3584 2113 3584 
Q 2378 3584 2631 3529 
Q 2884 3475 3122 3366 
z
" transform="scale(0.015625)"/>
       <path id="DejaVuSans-6f" d="M 1959 3097 
Q 1497 3097 1228 2736 
Q 959 2375 959 1747 
Q 959 1119 1226 758 
Q 1494 397 1959 397 
Q 2419 397 2687 759 
Q 2956 1122 2956 1747 
Q 2956 2369 2687 2733 
Q 2419 3097 1959 3097 
z
M 1959 3584 
Q 2709 3584 3137 3096 
Q 3566 2609 3566 1747 
Q 3566 888 3137 398 
Q 2709 -91 1959 -91 
Q 1206 -91 779 398 
Q 353 888 353 1747 
Q 353 2609 779 3096 
Q 1206 3584 1959 3584 
z
" transform="scale(0.015625)"/>
       <path id="DejaVuSans-6e" d="M 3513 2113 
L 3513 0 
L 2938 0 
L 2938 2094 
Q 2938 2591 2744 2837 
Q 2550 3084 2163 3084 
Q 1697 3084 1428 2787 
Q 1159 2491 1159 1978 
L 1159 0 
L 581 0 
L 581 3500 
L 1159 3500 
L 1159 2956 
Q 1366 3272 1645 3428 
Q 1925 3584 2291 3584 
Q 2894 3584 3203 3211 
Q 3513 2838 3513 2113 
z
" transform="scale(0.015625)"/>
      </defs>
      <use xlink:href="#DejaVuSans-66"/>
      <use xlink:href="#DejaVuSans-72" transform="translate(35.205078 0)"/>
      <use xlink:href="#DejaVuSans-61" transform="translate(76.318359 0)"/>
      <use xlink:href="#DejaVuSans-63" transform="translate(137.597656 0)"/>
      <use xlink:href="#DejaVuSans-74" transform="translate(192.578125 0)"/>
      <use xlink:href="#DejaVuSans-69" transform="translate(231.787109 0)"/>
      <use xlink:href="#DejaVuSans-6f" transform="translate(259.570312 0)"/>
      <use xlink:href="#DejaVuSans-6e" transform="translate(320.751953 0)"/>
     </g>
    </g>
   </g>
   <g id="patch_3">
    <path d="M 43.78125 277.111219 
L 43.78125 10.999219 
" style="fill: none; stroke: #000000; stroke-width: 0.8; stroke-linejoin: miter; stroke-linecap: square"/>
   </g>
   <g id="patch_4">
    <path d="M 400.90125 277.111219 
L 400.90125 10.999219 
" style="fill: none; stroke: #000000; stroke-width: 0.8; stroke-linejoin: miter; stroke-linecap: square"/>
   </g>
   <g id="patch_5">
    <path d="M 43.78125 277.111219 
L 400.90125 277.111219 
" style="fill: none; stroke: #000000; stroke-width: 0.8; stroke-linejoin: miter; stroke-linecap: square"/>
   </g>
   <g id="patch_6">
    <path d="M 43.78125 10.999219 
L 400.90125 10.999219 
" style="fill: none; stroke: #000000; stroke-width: 0.8; stroke-linejoin: miter; stroke-linecap: square"/>
   </g>
   <g id="legend_1">
    <g id="patch_7">
     <path d="M 309.591875 107.067969 
L 393.90125 107.067969 
Q 395.90125 107.067969 395.90125 105.067969 
L 395.90125 17.999219 
Q 395.90125 15.999219 393.90125 15.999219 
L 309.591875 15.999219 
Q 307.591875 15.999219 307.591875 17.999219 
L 307.591875 105.067969 
Q 307.591875 107.067969 309.591875 107.067969 
z
" style="fill: #ffffff; opacity: 0.8; stroke: #cccccc; stroke-linejoin: miter"/>
    </g>
    <g id="text_16">
     <!-- variants -->
     <g transform="translate(331.480938 27.597656) scale(0.1 -0.1)">
      <defs>
       <path id="DejaVuSans-76" d="M 191 3500 
L 800 3500 
L 1894 563 
L 2988 3500 
L 3597 3500 
L 2284 0 
L 1503 0 
L 191 3500 
z
" transform="scale(0.015625)"/>
       <path id="DejaVuSans-73" d="M 2834 3397 
L 2834 2853 
Q 2591 2978 2328 3040 
Q 2066 3103 1784 3103 
Q 1356 3103 1142 2972 
Q 928 2841 928 2578 
Q 928 2378 1081 2264 
Q 1234 2150 1697 2047 
L 1894 2003 
Q 2506 1872 2764 1633 
Q 3022 1394 3022 966 
Q 3022 478 2636 193 
Q 2250 -91 1575 -91 
Q 1294 -91 989 -36 
Q 684 19 347 128 
L 347 722 
Q 666 556 975 473 
Q 1284 391 1588 391 
Q 1994 391 2212 530 
Q 2431 669 2431 922 
Q 2431 1156 2273 1281 
Q 2116 1406 1581 1522 
L 1381 1569 
Q 847 1681 609 1914 
Q 372 2147 372 2553 
Q 372 3047 722 3315 
Q 1072 3584 1716 3584 
Q 2034 3584 2315 3537 
Q 2597 3491 2834 3397 
z
" transform="scale(0.015625)"/>
      </defs>
      <use xlink:href="#DejaVuSans-76"/>
      <use xlink:href="#DejaVuSans-61" transform="translate(59.179688 0)"/>
      <use xlink:href="#DejaVuSans-72" transform="translate(120.458984 0)"/>
      <use xlink:href="#DejaVuSans-69" transform="translate(161.572266 0)"/>
      <use xlink:href="#DejaVuSans-61" transform="translate(189.355469 0)"/>
      <use xlink:href="#DejaVuSans-6e" transform="translate(250.634766 0)"/>
      <use xlink:href="#DejaVuSans-74" transform="translate(314.013672 0)"/>
      <use xlink:href="#DejaVuSans-73" transform="translate(353.222656 0)"/>
     </g>
    </g>
    <g id="patch_8">
     <path d="M 311.591875 42.275781 
L 331.591875 42.275781 
L 331.591875 35.275781 
L 311.591875 35.275781 
z
" style="fill: #9467bd"/>
    </g>
    <g id="text_17">
     <!-- score 1.00 -->
     <g transform="translate(339.591875 42.275781) scale(0.1 -0.1)">
      <defs>
       <path id="DejaVuSans-20" transform="scale(0.015625)"/>
      </defs>
      <use xlink:href="#DejaVuSans-73"/>
      <use xlink:href="#DejaVuSans-63" transform="translate(52.099609 0)"/>
      <use xlink:href="#DejaVuSans-6f" transform="translate(107.080078 0)"/>
      <use xlink:href="#DejaVuSans-72" transform="translate(168.261719 0)"/>
      <use xlink:href="#DejaVuSans-65" transform="translate(207.125 0)"/>
      <use xlink:href="#DejaVuSans-20" transform="translate(268.648438 0)"/>
      <use xlink:href="#DejaVuSans-31" transform="translate(300.435547 0)"/>
      <use xlink:href="#DejaVuSans-2e" transform="translate(364.058594 0)"/>
      <use xlink:href="#DejaVuSans-30" transform="translate(395.845703 0)"/>
      <use xlink:href="#DejaVuSans-30" transform="translate(459.46875 0)"/>
     </g>
    </g>
    <g id="patch_9">
     <path d="M 311.591875 56.953906 
L 331.591875 56.953906 
L 331.591875 49.953906 
L 311.591875 49.953906 
z
" style="fill: #d62728"/>
    </g>
    <g id="text_18">
     <!-- score 0.90 -->
     <g transform="translate(339.591875 56.953906) scale(0.1 -0.1)">
      <defs>
       <path id="DejaVuSans-39" d="M 703 97 
L 703 672 
Q 941 559 1184 500 
Q 1428 441 1663 441 
Q 2288 441 2617 861 
Q 2947 1281 2994 2138 
Q 2813 1869 2534 1725 
Q 2256 1581 1919 1581 
Q 1219 1581 811 2004 
Q 403 2428 403 3163 
Q 403 3881 828 4315 
Q 1253 4750 1959 4750 
Q 2769 4750 3195 4129 
Q 3622 3509 3622 2328 
Q 3622 1225 3098 567 
Q 2575 -91 1691 -91 
Q 1453 -91 1209 -44 
Q 966 3 703 97 
z
M 1959 2075 
Q 2384 2075 2632 2365 
Q 2881 2656 2881 3163 
Q 2881 3666 2632 3958 
Q 2384 4250 1959 4250 
Q 1534 4250 1286 3958 
Q 1038 3666 1038 3163 
Q 1038 2656 1286 2365 
Q 1534 2075 1959 2075 
z
" transform="scale(0.015625)"/>
      </defs>
      <use xlink:href="#DejaVuSans-73"/>
      <use xlink:href="#DejaVuSans-63" transform="translate(52.099609 0)"/>
      <use xlink:href="#DejaVuSans-6f" transform="translate(107.080078 0)"/>
      <use xlink:href="#DejaVuSans-72" transform="translate(168.261719 0)"/>
      <use xlink:href="#DejaVuSans-65" transform="translate(207.125 0)"/>
      <use xlink:href="#DejaVuSans-20" transform="translate(268.648438 0)"/>
      <use xlink:href="#DejaVuSans-30" transform="translate(300.435547 0)"/>
      <use xlink:href="#DejaVuSans-2e" transform="translate(364.058594 0)"/>
      <use xlink:href="#DejaVuSans-39" transform="translate(395.845703 0)"/>
      <use xlink:href="#DejaVuSans-30" transform="translate(459.46875 0)"/>
     </g>
    </g>
    <g id="patch_10">
     <path d="M 311.591875 71.632031 
L 331.591875 71.632031 
L 331.591875 64.632031 
L 311.591875 64.632031 
z
" style="fill: #2ca02c"/>
    </g>
    <g id="text_19">
     <!-- score 0.75 -->
     <g transform="translate(339.591875 71.632031) scale(0.1 -0.1)">
      <defs>
       <path id="DejaVuSans-37" d="M 525 4666 
L 3525 4666 
L 3525 4397 
L 1831 0 
L 1172 0 
L 2766 4134 
L 525 4134 
L 525 4666 
z
" transform="scale(0.015625)"/>
      </defs>
      <use xlink:href="#DejaVuSans-73"/>
      <use xlink:href="#DejaVuSans-63" transform="translate(52.099609 0)"/>
      <use xlink:href="#DejaVuSans-6f" transform="translate(107.080078 0)"/>
      <use xlink:href="#DejaVuSans-72" transform="translate(168.261719 0)"/>
      <use xlink:href="#DejaVuSans-65" transform="translate(207.125 0)"/>
      <use xlink:href="#DejaVuSans-20" transform="translate(268.648438 0)"/>
      <use xlink:href="#DejaVuSans-30" transform="translate(300.435547 0)"/>
      <use xlink:href="#DejaVuSans-2e" transform="translate(364.058594 0)"/>
      <use xlink:href="#DejaVuSans-37" transform="translate(395.845703 0)"/>
      <use xlink:href="#DejaVuSans-35" transform="translate(459.46875 0)"/>
     </g>
    </g>
    <g id="patch_11">
     <path d="M 311.591875 86.310156 
L 331.591875 86.310156 
L 331.591875 79.310156 
L 311.591875 79.310156 
z
" style="fill: #ff7f0e"/>
    </g>
    <g id="text_20">
     <!-- score 0.50 -->
     <g transform="translate(339.591875 86.310156) scale(0.1 -0.1)">
      <use xlink:href="#DejaVuSans-73"/>
      <use xlink:href="#DejaVuSans-63" transform="translate(52.099609 0)"/>
      <use xlink:href="#DejaVuSans-6f" transform="translate(107.080078 0)"/>
      <use xlink:href="#DejaVuSans-72" transform="translate(168.261719 0)"/>
      <use xlink:href="#DejaVuSans-65" transform="translate(207.125 0)"/>
      <use xlink:href="#DejaVuSans-20" transform="translate(268.648438 0)"/>
      <use xlink:href="#DejaVuSans-30" transform="translate(300.435547 0)"/>
      <use xlink:href="#DejaVuSans-2e" transform="translate(364.058594 0)"/>
      <use xlink:href="#DejaVuSans-35" transform="translate(395.845703 0)"/>
      <use xlink:href="#DejaVuSans-30" transform="translate(459.46875 0)"/>
     </g>
    </g>
    <g id="patch_12">
     <path d="M 311.591875 100.988281 
L 331.591875 100.988281 
L 331.591875 93.988281 
L 311.591875 93.988281 
z
" style="fill: #1f77b4"/>
    </g>
    <g id="text_21">
     <!-- score 0.00 -->
     <g transform="translate(339.591875 100.988281) scale(0.1 -0.1)">
      <use xlink:href="#DejaVuSans-73"/>
      <use xlink:href="#DejaVuSans-63" transform="translate(52.099609 0)"/>
      <use xlink:href="#DejaVuSans-6f" transform="translate(107.080078 0)"/>
      <use xlink:href="#DejaVuSans-72" transform="translate(168.261719 0)"/>
      <use xlink:href="#DejaVuSans-65" transform="translate(207.125 0)"/>
      <use xlink:href="#DejaVuSans-20" transform="translate(268.648438 0)"/>
      <use xlink:href="#DejaVuSans-30" transform="translate(300.435547 0)"/>
      <use xlink:href="#DejaVuSans-2e" transform="translate(364.058594 0)"/>
      <use xlink:href="#DejaVuSans-30" transform="translate(395.845703 0)"/>
      <use xlink:href="#DejaVuSans-30" transform="translate(459.46875 0)"/>
     </g>
    </g>
   </g>
  </g>
 </g>
 <defs>
  <clipPath id="p199b8c2c3d">
   <rect x="43.78125" y="10.999219" width="357.12" height="266.112"/>
  </clipPath>
 </defs>
</svg>
