<?xml version="1.0" encoding="UTF-8" standalone="no"?>
<svg
   width="512.98029pt"
   height="646.69464pt"
   viewBox="0 0 512.98028 646.69465"
   version="1.1"
   id="svg6185"
   sodipodi:docname="g6pd_histo_2.svg"
   inkscape:version="1.2.2 (b0a8486541, 2022-12-01)"
   xmlns:inkscape="http://www.inkscape.org/namespaces/inkscape"
   xmlns:sodipodi="http://sodipodi.sourceforge.net/DTD/sodipodi-0.dtd"
   xmlns:xlink="http://www.w3.org/1999/xlink"
   xmlns="http://www.w3.org/2000/svg"
   xmlns:svg="http://www.w3.org/2000/svg"
   xmlns:rdf="http://www.w3.org/1999/02/22-rdf-syntax-ns#"
   xmlns:cc="http://creativecommons.org/ns#"
   xmlns:dc="http://purl.org/dc/elements/1.1/">
  <sodipodi:namedview
     id="namedview6187"
     pagecolor="#ffffff"
     bordercolor="#666666"
     borderopacity="1.0"
     inkscape:showpageshadow="2"
     inkscape:pageopacity="0.0"
     inkscape:pagecheckerboard="0"
     inkscape:deskcolor="#d1d1d1"
     inkscape:document-units="pt"
     showgrid="false"
     inkscape:zoom="0.96290881"
     inkscape:cx="-272.09222"
     inkscape:cy="298.57448"
     inkscape:window-width="3840"
     inkscape:window-height="2135"
     inkscape:window-x="1200"
     inkscape:window-y="0"
     inkscape:window-maximized="1"
     inkscape:current-layer="svg6185" />
  <metadata
     id="metadata2">
    <rdf:RDF>
      <cc:Work>
        <dc:type
           rdf:resource="http://purl.org/dc/dcmitype/StillImage" />
        <dc:date>2024-07-29T16:39:19.817698</dc:date>
        <dc:format>image/svg+xml</dc:format>
        <dc:creator>
          <cc:Agent>
            <dc:title>Matplotlib v3.9.0, https://matplotlib.org/</dc:title>
          </cc:Agent>
        </dc:creator>
      </cc:Work>
    </rdf:RDF>
  </metadata>
  <defs
     id="defs6">
    <style
       type="text/css"
       id="style4">*{stroke-linejoin: round; stroke-linecap: butt}</style>
  </defs>
  <g
     id="patch_1"
     transform="translate(-731.57974,-95.5904)">
    <path
       d="M 0,799.92 H 1382.4 V 0 H 0 Z"
       style="fill:#ffffff"
       id="path8" />
  </g>
  <g
     id="axes_2"
     transform="translate(-731.57974,-95.5904)">
    <g
       id="patch_7">
      <path
         d="M 757.17818,711.9288 H 1244.16 V 95.9904 H 757.17818 Z"
         style="fill:#ffffff"
         id="path5433" />
    </g>
    <g
       id="patch_8">
      <path
         d="m 779.31372,711.9288 h 8.85421 v -0.81473 h -8.85421 z"
         clip-path="url(#pa74707a125)"
         style="fill:#1f77b4"
         id="path5436" />
    </g>
    <g
       id="patch_9">
      <path
         d="m 788.16793,711.9288 h 8.85422 v 0 z"
         clip-path="url(#pa74707a125)"
         style="fill:#1f77b4"
         id="path5439" />
    </g>
    <g
       id="patch_10">
      <path
         d="m 797.02215,711.9288 h 8.85421 v -5.70313 h -8.85421 z"
         clip-path="url(#pa74707a125)"
         style="fill:#1f77b4"
         id="path5442" />
    </g>
    <g
       id="patch_11">
      <path
         d="m 805.87636,711.9288 h 8.85422 v -38.29247 h -8.85422 z"
         clip-path="url(#pa74707a125)"
         style="fill:#1f77b4"
         id="path5445" />
    </g>
    <g
       id="patch_12">
      <path
         d="m 814.73058,711.9288 h 8.85421 v -55.40187 h -8.85421 z"
         clip-path="url(#pa74707a125)"
         style="fill:#1f77b4"
         id="path5448" />
    </g>
    <g
       id="patch_13">
      <path
         d="m 823.58479,711.9288 h 8.85422 v -93.69433 h -8.85422 z"
         clip-path="url(#pa74707a125)"
         style="fill:#1f77b4"
         id="path5451" />
    </g>
    <g
       id="patch_14">
      <path
         d="m 832.43901,711.9288 h 8.85421 v -82.28807 h -8.85421 z"
         clip-path="url(#pa74707a125)"
         style="fill:#1f77b4"
         id="path5454" />
    </g>
    <g
       id="patch_15">
      <path
         d="m 841.29322,711.9288 h 8.85422 v -49.69873 h -8.85422 z"
         clip-path="url(#pa74707a125)"
         style="fill:#1f77b4"
         id="path5457" />
    </g>
    <g
       id="patch_16">
      <path
         d="m 850.14744,711.9288 h 8.85421 v -43.9956 h -8.85421 z"
         clip-path="url(#pa74707a125)"
         style="fill:#1f77b4"
         id="path5460" />
    </g>
    <g
       id="patch_17">
      <path
         d="m 859.00165,711.9288 h 8.85422 v -14.6652 h -8.85422 z"
         clip-path="url(#pa74707a125)"
         style="fill:#1f77b4"
         id="path5463" />
    </g>
    <g
       id="patch_18">
      <path
         d="m 867.85587,711.9288 h 8.85421 v -3.25893 h -8.85421 z"
         clip-path="url(#pa74707a125)"
         style="fill:#1f77b4"
         id="path5466" />
    </g>
    <g
       id="patch_19">
      <path
         d="m 876.71008,711.9288 h 8.85422 v -3.25893 h -8.85422 z"
         clip-path="url(#pa74707a125)"
         style="fill:#1f77b4"
         id="path5469" />
    </g>
    <g
       id="patch_20">
      <path
         d="m 885.5643,711.9288 h 8.85421 v -0.81473 h -8.85421 z"
         clip-path="url(#pa74707a125)"
         style="fill:#1f77b4"
         id="path5472" />
    </g>
    <g
       id="patch_21">
      <path
         d="m 894.41851,711.9288 h 8.85422 v -1.62947 h -8.85422 z"
         clip-path="url(#pa74707a125)"
         style="fill:#1f77b4"
         id="path5475" />
    </g>
    <g
       id="patch_22">
      <path
         d="m 903.27273,711.9288 h 8.85421 v -0.81473 h -8.85421 z"
         clip-path="url(#pa74707a125)"
         style="fill:#1f77b4"
         id="path5478" />
    </g>
    <g
       id="patch_23">
      <path
         d="m 912.12694,711.9288 h 8.85422 v 0 z"
         clip-path="url(#pa74707a125)"
         style="fill:#1f77b4"
         id="path5481" />
    </g>
    <g
       id="patch_24">
      <path
         d="m 920.98116,711.9288 h 8.85421 v 0 z"
         clip-path="url(#pa74707a125)"
         style="fill:#1f77b4"
         id="path5484" />
    </g>
    <g
       id="patch_25">
      <path
         d="m 929.83537,711.9288 h 8.85422 v -0.81473 h -8.85422 z"
         clip-path="url(#pa74707a125)"
         style="fill:#1f77b4"
         id="path5487" />
    </g>
    <g
       id="patch_26">
      <path
         d="m 938.68959,711.9288 h 8.85421 v 0 z"
         clip-path="url(#pa74707a125)"
         style="fill:#1f77b4"
         id="path5490" />
    </g>
    <g
       id="patch_27">
      <path
         d="m 947.5438,711.9288 h 8.85422 v 0 z"
         clip-path="url(#pa74707a125)"
         style="fill:#1f77b4"
         id="path5493" />
    </g>
    <g
       id="patch_28">
      <path
         d="m 956.39802,711.9288 h 8.85421 v -0.81473 h -8.85421 z"
         clip-path="url(#pa74707a125)"
         style="fill:#1f77b4"
         id="path5496" />
    </g>
    <g
       id="patch_29">
      <path
         d="m 965.25223,711.9288 h 8.85422 v 0 z"
         clip-path="url(#pa74707a125)"
         style="fill:#1f77b4"
         id="path5499" />
    </g>
    <g
       id="patch_30">
      <path
         d="m 974.10645,711.9288 h 8.85421 v 0 z"
         clip-path="url(#pa74707a125)"
         style="fill:#1f77b4"
         id="path5502" />
    </g>
    <g
       id="patch_31">
      <path
         d="m 982.96066,711.9288 h 8.85422 v 0 z"
         clip-path="url(#pa74707a125)"
         style="fill:#1f77b4"
         id="path5505" />
    </g>
    <g
       id="patch_32">
      <path
         d="m 991.81488,711.9288 h 8.85422 v 0 z"
         clip-path="url(#pa74707a125)"
         style="fill:#1f77b4"
         id="path5508" />
    </g>
    <g
       id="patch_33">
      <path
         d="m 1000.6691,711.9288 h 8.8542 v 0 z"
         clip-path="url(#pa74707a125)"
         style="fill:#1f77b4"
         id="path5511" />
    </g>
    <g
       id="patch_34">
      <path
         d="m 1009.5233,711.9288 h 8.8542 v 0 z"
         clip-path="url(#pa74707a125)"
         style="fill:#1f77b4"
         id="path5514" />
    </g>
    <g
       id="patch_35">
      <path
         d="m 1018.3775,711.9288 h 8.8542 v 0 z"
         clip-path="url(#pa74707a125)"
         style="fill:#1f77b4"
         id="path5517" />
    </g>
    <g
       id="patch_36">
      <path
         d="m 1027.2317,711.9288 h 8.8543 v 0 z"
         clip-path="url(#pa74707a125)"
         style="fill:#1f77b4"
         id="path5520" />
    </g>
    <g
       id="patch_37">
      <path
         d="m 1036.086,711.9288 h 8.8542 v 0 z"
         clip-path="url(#pa74707a125)"
         style="fill:#1f77b4"
         id="path5523" />
    </g>
    <g
       id="patch_38">
      <path
         d="m 1044.9402,711.9288 h 8.8542 v 0 z"
         clip-path="url(#pa74707a125)"
         style="fill:#1f77b4"
         id="path5526" />
    </g>
    <g
       id="patch_39">
      <path
         d="m 1053.7944,711.9288 h 8.8542 v 0 z"
         clip-path="url(#pa74707a125)"
         style="fill:#1f77b4"
         id="path5529" />
    </g>
    <g
       id="patch_40">
      <path
         d="m 1062.6486,711.9288 h 8.8542 v 0 z"
         clip-path="url(#pa74707a125)"
         style="fill:#1f77b4"
         id="path5532" />
    </g>
    <g
       id="patch_41">
      <path
         d="m 1071.5028,711.9288 h 8.8542 v 0 z"
         clip-path="url(#pa74707a125)"
         style="fill:#1f77b4"
         id="path5535" />
    </g>
    <g
       id="patch_42">
      <path
         d="m 1080.357,711.9288 h 8.8542 v 0 z"
         clip-path="url(#pa74707a125)"
         style="fill:#1f77b4"
         id="path5538" />
    </g>
    <g
       id="patch_43">
      <path
         d="m 1089.2112,711.9288 h 8.8543 v 0 z"
         clip-path="url(#pa74707a125)"
         style="fill:#1f77b4"
         id="path5541" />
    </g>
    <g
       id="patch_44">
      <path
         d="m 1098.0655,711.9288 h 8.8542 v -0.81473 h -8.8542 z"
         clip-path="url(#pa74707a125)"
         style="fill:#1f77b4"
         id="path5544" />
    </g>
    <g
       id="patch_45">
      <path
         d="m 1106.9197,711.9288 h 8.8542 v 0 z"
         clip-path="url(#pa74707a125)"
         style="fill:#1f77b4"
         id="path5547" />
    </g>
    <g
       id="patch_46">
      <path
         d="m 1115.7739,711.9288 h 8.8542 v 0 z"
         clip-path="url(#pa74707a125)"
         style="fill:#1f77b4"
         id="path5550" />
    </g>
    <g
       id="patch_47">
      <path
         d="m 1124.6281,711.9288 h 8.8542 v 0 z"
         clip-path="url(#pa74707a125)"
         style="fill:#1f77b4"
         id="path5553" />
    </g>
    <g
       id="patch_48">
      <path
         d="m 1133.4823,711.9288 h 8.8542 v -0.81473 h -8.8542 z"
         clip-path="url(#pa74707a125)"
         style="fill:#1f77b4"
         id="path5556" />
    </g>
    <g
       id="patch_49">
      <path
         d="m 1142.3365,711.9288 h 8.8542 v 0 z"
         clip-path="url(#pa74707a125)"
         style="fill:#1f77b4"
         id="path5559" />
    </g>
    <g
       id="patch_50">
      <path
         d="m 1151.1907,711.9288 h 8.8543 v 0 z"
         clip-path="url(#pa74707a125)"
         style="fill:#1f77b4"
         id="path5562" />
    </g>
    <g
       id="patch_51">
      <path
         d="m 1160.045,711.9288 h 8.8542 v 0 z"
         clip-path="url(#pa74707a125)"
         style="fill:#1f77b4"
         id="path5565" />
    </g>
    <g
       id="patch_52">
      <path
         d="m 1168.8992,711.9288 h 8.8542 v 0 z"
         clip-path="url(#pa74707a125)"
         style="fill:#1f77b4"
         id="path5568" />
    </g>
    <g
       id="patch_53">
      <path
         d="m 1177.7534,711.9288 h 8.8542 v 0 z"
         clip-path="url(#pa74707a125)"
         style="fill:#1f77b4"
         id="path5571" />
    </g>
    <g
       id="patch_54">
      <path
         d="m 1186.6076,711.9288 h 8.8542 v 0 z"
         clip-path="url(#pa74707a125)"
         style="fill:#1f77b4"
         id="path5574" />
    </g>
    <g
       id="patch_55">
      <path
         d="m 1195.4618,711.9288 h 8.8542 v 0 z"
         clip-path="url(#pa74707a125)"
         style="fill:#1f77b4"
         id="path5577" />
    </g>
    <g
       id="patch_56">
      <path
         d="m 1204.316,711.9288 h 8.8542 v 0 z"
         clip-path="url(#pa74707a125)"
         style="fill:#1f77b4"
         id="path5580" />
    </g>
    <g
       id="patch_57">
      <path
         d="m 1213.1702,711.9288 h 8.8543 v 0 z"
         clip-path="url(#pa74707a125)"
         style="fill:#1f77b4"
         id="path5583" />
    </g>
    <g
       id="patch_58">
      <path
         d="m 779.31372,711.11407 h 8.85421 v 0 z"
         clip-path="url(#pa74707a125)"
         style="fill:#ff7f0e"
         id="path5586" />
    </g>
    <g
       id="patch_59">
      <path
         d="m 788.16793,711.9288 h 8.85422 v 0 z"
         clip-path="url(#pa74707a125)"
         style="fill:#ff7f0e"
         id="path5589" />
    </g>
    <g
       id="patch_60">
      <path
         d="m 797.02215,706.22567 h 8.85421 v 0 z"
         clip-path="url(#pa74707a125)"
         style="fill:#ff7f0e"
         id="path5592" />
    </g>
    <g
       id="patch_61">
      <path
         d="m 805.87636,673.63633 h 8.85422 v 0 z"
         clip-path="url(#pa74707a125)"
         style="fill:#ff7f0e"
         id="path5595" />
    </g>
    <g
       id="patch_62">
      <path
         d="m 814.73058,656.52693 h 8.85421 v 0 z"
         clip-path="url(#pa74707a125)"
         style="fill:#ff7f0e"
         id="path5598" />
    </g>
    <g
       id="patch_63">
      <path
         d="m 823.58479,618.23447 h 8.85422 v 0 z"
         clip-path="url(#pa74707a125)"
         style="fill:#ff7f0e"
         id="path5601" />
    </g>
    <g
       id="patch_64">
      <path
         d="m 832.43901,629.64073 h 8.85421 v 0 z"
         clip-path="url(#pa74707a125)"
         style="fill:#ff7f0e"
         id="path5604" />
    </g>
    <g
       id="patch_65">
      <path
         d="m 841.29322,662.23007 h 8.85422 v 0 z"
         clip-path="url(#pa74707a125)"
         style="fill:#ff7f0e"
         id="path5607" />
    </g>
    <g
       id="patch_66">
      <path
         d="m 850.14744,667.9332 h 8.85421 v 0 z"
         clip-path="url(#pa74707a125)"
         style="fill:#ff7f0e"
         id="path5610" />
    </g>
    <g
       id="patch_67">
      <path
         d="m 859.00165,697.2636 h 8.85422 v 0 z"
         clip-path="url(#pa74707a125)"
         style="fill:#ff7f0e"
         id="path5613" />
    </g>
    <g
       id="patch_68">
      <path
         d="m 867.85587,708.66987 h 8.85421 v 0 z"
         clip-path="url(#pa74707a125)"
         style="fill:#ff7f0e"
         id="path5616" />
    </g>
    <g
       id="patch_69">
      <path
         d="m 876.71008,708.66987 h 8.85422 v 0 z"
         clip-path="url(#pa74707a125)"
         style="fill:#ff7f0e"
         id="path5619" />
    </g>
    <g
       id="patch_70">
      <path
         d="m 885.5643,711.11407 h 8.85421 v 0 z"
         clip-path="url(#pa74707a125)"
         style="fill:#ff7f0e"
         id="path5622" />
    </g>
    <g
       id="patch_71">
      <path
         d="m 894.41851,710.29933 h 8.85422 v 0 z"
         clip-path="url(#pa74707a125)"
         style="fill:#ff7f0e"
         id="path5625" />
    </g>
    <g
       id="patch_72">
      <path
         d="m 903.27273,711.11407 h 8.85421 v 0 z"
         clip-path="url(#pa74707a125)"
         style="fill:#ff7f0e"
         id="path5628" />
    </g>
    <g
       id="patch_73">
      <path
         d="m 912.12694,711.9288 h 8.85422 v 0 z"
         clip-path="url(#pa74707a125)"
         style="fill:#ff7f0e"
         id="path5631" />
    </g>
    <g
       id="patch_74">
      <path
         d="m 920.98116,711.9288 h 8.85421 v 0 z"
         clip-path="url(#pa74707a125)"
         style="fill:#ff7f0e"
         id="path5634" />
    </g>
    <g
       id="patch_75">
      <path
         d="m 929.83537,711.11407 h 8.85422 v 0 z"
         clip-path="url(#pa74707a125)"
         style="fill:#ff7f0e"
         id="path5637" />
    </g>
    <g
       id="patch_76">
      <path
         d="m 938.68959,711.9288 h 8.85421 v 0 z"
         clip-path="url(#pa74707a125)"
         style="fill:#ff7f0e"
         id="path5640" />
    </g>
    <g
       id="patch_77">
      <path
         d="m 947.5438,711.9288 h 8.85422 v 0 z"
         clip-path="url(#pa74707a125)"
         style="fill:#ff7f0e"
         id="path5643" />
    </g>
    <g
       id="patch_78">
      <path
         d="m 956.39802,711.11407 h 8.85421 v 0 z"
         clip-path="url(#pa74707a125)"
         style="fill:#ff7f0e"
         id="path5646" />
    </g>
    <g
       id="patch_79">
      <path
         d="m 965.25223,711.9288 h 8.85422 v 0 z"
         clip-path="url(#pa74707a125)"
         style="fill:#ff7f0e"
         id="path5649" />
    </g>
    <g
       id="patch_80">
      <path
         d="m 974.10645,711.9288 h 8.85421 v 0 z"
         clip-path="url(#pa74707a125)"
         style="fill:#ff7f0e"
         id="path5652" />
    </g>
    <g
       id="patch_81">
      <path
         d="m 982.96066,711.9288 h 8.85422 v 0 z"
         clip-path="url(#pa74707a125)"
         style="fill:#ff7f0e"
         id="path5655" />
    </g>
    <g
       id="patch_82">
      <path
         d="m 991.81488,711.9288 h 8.85422 v 0 z"
         clip-path="url(#pa74707a125)"
         style="fill:#ff7f0e"
         id="path5658" />
    </g>
    <g
       id="patch_83">
      <path
         d="m 1000.6691,711.9288 h 8.8542 v 0 z"
         clip-path="url(#pa74707a125)"
         style="fill:#ff7f0e"
         id="path5661" />
    </g>
    <g
       id="patch_84">
      <path
         d="m 1009.5233,711.9288 h 8.8542 v 0 z"
         clip-path="url(#pa74707a125)"
         style="fill:#ff7f0e"
         id="path5664" />
    </g>
    <g
       id="patch_85">
      <path
         d="m 1018.3775,711.9288 h 8.8542 v 0 z"
         clip-path="url(#pa74707a125)"
         style="fill:#ff7f0e"
         id="path5667" />
    </g>
    <g
       id="patch_86">
      <path
         d="m 1027.2317,711.9288 h 8.8543 v -0.81473 h -8.8543 z"
         clip-path="url(#pa74707a125)"
         style="fill:#ff7f0e"
         id="path5670" />
    </g>
    <g
       id="patch_87">
      <path
         d="m 1036.086,711.9288 h 8.8542 v 0 z"
         clip-path="url(#pa74707a125)"
         style="fill:#ff7f0e"
         id="path5673" />
    </g>
    <g
       id="patch_88">
      <path
         d="m 1044.9402,711.9288 h 8.8542 v -1.62947 h -8.8542 z"
         clip-path="url(#pa74707a125)"
         style="fill:#ff7f0e"
         id="path5676" />
    </g>
    <g
       id="patch_89">
      <path
         d="m 1053.7944,711.9288 h 8.8542 v -0.81473 h -8.8542 z"
         clip-path="url(#pa74707a125)"
         style="fill:#ff7f0e"
         id="path5679" />
    </g>
    <g
       id="patch_90">
      <path
         d="m 1062.6486,711.9288 h 8.8542 v -5.70313 h -8.8542 z"
         clip-path="url(#pa74707a125)"
         style="fill:#ff7f0e"
         id="path5682" />
    </g>
    <g
       id="patch_91">
      <path
         d="m 1071.5028,711.9288 h 8.8542 v -1.62947 h -8.8542 z"
         clip-path="url(#pa74707a125)"
         style="fill:#ff7f0e"
         id="path5685" />
    </g>
    <g
       id="patch_92">
      <path
         d="m 1080.357,711.9288 h 8.8542 v -2.4442 h -8.8542 z"
         clip-path="url(#pa74707a125)"
         style="fill:#ff7f0e"
         id="path5688" />
    </g>
    <g
       id="patch_93">
      <path
         d="m 1089.2112,711.9288 h 8.8543 v -4.8884 h -8.8543 z"
         clip-path="url(#pa74707a125)"
         style="fill:#ff7f0e"
         id="path5691" />
    </g>
    <g
       id="patch_94">
      <path
         d="m 1098.0655,711.11407 h 8.8542 v -13.03574 h -8.8542 z"
         clip-path="url(#pa74707a125)"
         style="fill:#ff7f0e"
         id="path5694" />
    </g>
    <g
       id="patch_95">
      <path
         d="m 1106.9197,711.9288 h 8.8542 v -18.73887 h -8.8542 z"
         clip-path="url(#pa74707a125)"
         style="fill:#ff7f0e"
         id="path5697" />
    </g>
    <g
       id="patch_96">
      <path
         d="m 1115.7739,711.9288 h 8.8542 v -30.14513 h -8.8542 z"
         clip-path="url(#pa74707a125)"
         style="fill:#ff7f0e"
         id="path5700" />
    </g>
    <g
       id="patch_97">
      <path
         d="m 1124.6281,711.9288 h 8.8542 v -48.884 h -8.8542 z"
         clip-path="url(#pa74707a125)"
         style="fill:#ff7f0e"
         id="path5703" />
    </g>
    <g
       id="patch_98">
      <path
         d="m 1133.4823,711.11407 h 8.8542 v -64.36394 h -8.8542 z"
         clip-path="url(#pa74707a125)"
         style="fill:#ff7f0e"
         id="path5706" />
    </g>
    <g
       id="patch_99">
      <path
         d="m 1142.3365,711.9288 h 8.8542 v -78.2144 h -8.8542 z"
         clip-path="url(#pa74707a125)"
         style="fill:#ff7f0e"
         id="path5709" />
    </g>
    <g
       id="patch_100">
      <path
         d="m 1151.1907,711.9288 h 8.8543 v -49.69873 h -8.8543 z"
         clip-path="url(#pa74707a125)"
         style="fill:#ff7f0e"
         id="path5712" />
    </g>
    <g
       id="patch_101">
      <path
         d="m 1160.045,711.9288 h 8.8542 v -28.51567 h -8.8542 z"
         clip-path="url(#pa74707a125)"
         style="fill:#ff7f0e"
         id="path5715" />
    </g>
    <g
       id="patch_102">
      <path
         d="m 1168.8992,711.9288 h 8.8542 v -4.8884 h -8.8542 z"
         clip-path="url(#pa74707a125)"
         style="fill:#ff7f0e"
         id="path5718" />
    </g>
    <g
       id="patch_103">
      <path
         d="m 1177.7534,711.9288 h 8.8542 v -4.8884 h -8.8542 z"
         clip-path="url(#pa74707a125)"
         style="fill:#ff7f0e"
         id="path5721" />
    </g>
    <g
       id="patch_104">
      <path
         d="m 1186.6076,711.9288 h 8.8542 v -4.8884 h -8.8542 z"
         clip-path="url(#pa74707a125)"
         style="fill:#ff7f0e"
         id="path5724" />
    </g>
    <g
       id="patch_105">
      <path
         d="m 1195.4618,711.9288 h 8.8542 v -1.62947 h -8.8542 z"
         clip-path="url(#pa74707a125)"
         style="fill:#ff7f0e"
         id="path5727" />
    </g>
    <g
       id="patch_106">
      <path
         d="m 1204.316,711.9288 h 8.8542 v -0.81473 h -8.8542 z"
         clip-path="url(#pa74707a125)"
         style="fill:#ff7f0e"
         id="path5730" />
    </g>
    <g
       id="patch_107">
      <path
         d="m 1213.1702,711.9288 h 8.8543 v 0 z"
         clip-path="url(#pa74707a125)"
         style="fill:#ff7f0e"
         id="path5733" />
    </g>
    <g
       id="patch_108">
      <path
         d="m 779.31372,711.11407 h 8.85421 v -8.14734 h -8.85421 z"
         clip-path="url(#pa74707a125)"
         style="fill:#2ca02c"
         id="path5736" />
    </g>
    <g
       id="patch_109">
      <path
         d="m 788.16793,711.9288 h 8.85422 v -39.1072 h -8.85422 z"
         clip-path="url(#pa74707a125)"
         style="fill:#2ca02c"
         id="path5739" />
    </g>
    <g
       id="patch_110">
      <path
         d="m 797.02215,706.22567 h 8.85421 V 597.0514 h -8.85421 z"
         clip-path="url(#pa74707a125)"
         style="fill:#2ca02c"
         id="path5742" />
    </g>
    <g
       id="patch_111">
      <path
         d="m 805.87636,673.63633 h 8.85422 v -256.641 h -8.85422 z"
         clip-path="url(#pa74707a125)"
         style="fill:#2ca02c"
         id="path5745" />
    </g>
    <g
       id="patch_112">
      <path
         d="m 814.73058,656.52693 h 8.85421 V 239.38347 h -8.85421 z"
         clip-path="url(#pa74707a125)"
         style="fill:#2ca02c"
         id="path5748" />
    </g>
    <g
       id="patch_113">
      <path
         d="m 823.58479,618.23447 h 8.85422 V 125.3208 h -8.85422 z"
         clip-path="url(#pa74707a125)"
         style="fill:#2ca02c"
         id="path5751" />
    </g>
    <g
       id="patch_114">
      <path
         d="m 832.43901,629.64073 h 8.85421 v -457.0654 h -8.85421 z"
         clip-path="url(#pa74707a125)"
         style="fill:#2ca02c"
         id="path5754" />
    </g>
    <g
       id="patch_115">
      <path
         d="m 841.29322,662.23007 h 8.85422 V 337.9662 h -8.85422 z"
         clip-path="url(#pa74707a125)"
         style="fill:#2ca02c"
         id="path5757" />
    </g>
    <g
       id="patch_116">
      <path
         d="m 850.14744,667.9332 h 8.85421 v -268.862 h -8.85421 z"
         clip-path="url(#pa74707a125)"
         style="fill:#2ca02c"
         id="path5760" />
    </g>
    <g
       id="patch_117">
      <path
         d="m 859.00165,697.2636 h 8.85422 V 548.98213 h -8.85422 z"
         clip-path="url(#pa74707a125)"
         style="fill:#2ca02c"
         id="path5763" />
    </g>
    <g
       id="patch_118">
      <path
         d="m 867.85587,708.66987 h 8.85421 V 578.31253 h -8.85421 z"
         clip-path="url(#pa74707a125)"
         style="fill:#2ca02c"
         id="path5766" />
    </g>
    <g
       id="patch_119">
      <path
         d="m 876.71008,708.66987 h 8.85422 v -95.3238 h -8.85422 z"
         clip-path="url(#pa74707a125)"
         style="fill:#2ca02c"
         id="path5769" />
    </g>
    <g
       id="patch_120">
      <path
         d="m 885.5643,711.11407 h 8.85421 V 628.826 h -8.85421 z"
         clip-path="url(#pa74707a125)"
         style="fill:#2ca02c"
         id="path5772" />
    </g>
    <g
       id="patch_121">
      <path
         d="m 894.41851,710.29933 h 8.85422 V 626.3818 h -8.85422 z"
         clip-path="url(#pa74707a125)"
         style="fill:#2ca02c"
         id="path5775" />
    </g>
    <g
       id="patch_122">
      <path
         d="m 903.27273,711.11407 h 8.85421 v -71.69654 h -8.85421 z"
         clip-path="url(#pa74707a125)"
         style="fill:#2ca02c"
         id="path5778" />
    </g>
    <g
       id="patch_123">
      <path
         d="m 912.12694,711.9288 h 8.85422 v -75.7702 h -8.85422 z"
         clip-path="url(#pa74707a125)"
         style="fill:#2ca02c"
         id="path5781" />
    </g>
    <g
       id="patch_124">
      <path
         d="m 920.98116,711.9288 h 8.85421 v -62.73447 h -8.85421 z"
         clip-path="url(#pa74707a125)"
         style="fill:#2ca02c"
         id="path5784" />
    </g>
    <g
       id="patch_125">
      <path
         d="m 929.83537,711.11407 h 8.85422 V 653.268 h -8.85422 z"
         clip-path="url(#pa74707a125)"
         style="fill:#2ca02c"
         id="path5787" />
    </g>
    <g
       id="patch_126">
      <path
         d="m 938.68959,711.9288 h 8.85421 v -79.02913 h -8.85421 z"
         clip-path="url(#pa74707a125)"
         style="fill:#2ca02c"
         id="path5790" />
    </g>
    <g
       id="patch_127">
      <path
         d="m 947.5438,711.9288 h 8.85422 v -73.326 h -8.85422 z"
         clip-path="url(#pa74707a125)"
         style="fill:#2ca02c"
         id="path5793" />
    </g>
    <g
       id="patch_128">
      <path
         d="m 956.39802,711.11407 h 8.85421 V 645.9354 h -8.85421 z"
         clip-path="url(#pa74707a125)"
         style="fill:#2ca02c"
         id="path5796" />
    </g>
    <g
       id="patch_129">
      <path
         d="m 965.25223,711.9288 h 8.85422 v -67.62287 h -8.85422 z"
         clip-path="url(#pa74707a125)"
         style="fill:#2ca02c"
         id="path5799" />
    </g>
    <g
       id="patch_130">
      <path
         d="m 974.10645,711.9288 h 8.85421 v -79.84387 h -8.85421 z"
         clip-path="url(#pa74707a125)"
         style="fill:#2ca02c"
         id="path5802" />
    </g>
    <g
       id="patch_131">
      <path
         d="m 982.96066,711.9288 h 8.85422 v -74.14073 h -8.85422 z"
         clip-path="url(#pa74707a125)"
         style="fill:#2ca02c"
         id="path5805" />
    </g>
    <g
       id="patch_132">
      <path
         d="m 991.81488,711.9288 h 8.85422 v -81.47333 h -8.85422 z"
         clip-path="url(#pa74707a125)"
         style="fill:#2ca02c"
         id="path5808" />
    </g>
    <g
       id="patch_133">
      <path
         d="m 1000.6691,711.9288 h 8.8542 v -79.02913 h -8.8542 z"
         clip-path="url(#pa74707a125)"
         style="fill:#2ca02c"
         id="path5811" />
    </g>
    <g
       id="patch_134">
      <path
         d="m 1009.5233,711.9288 h 8.8542 v -85.547 h -8.8542 z"
         clip-path="url(#pa74707a125)"
         style="fill:#2ca02c"
         id="path5814" />
    </g>
    <g
       id="patch_135">
      <path
         d="m 1018.3775,711.9288 h 8.8542 v -93.69433 h -8.8542 z"
         clip-path="url(#pa74707a125)"
         style="fill:#2ca02c"
         id="path5817" />
    </g>
    <g
       id="patch_136">
      <path
         d="m 1027.2317,711.11407 h 8.8543 v -97.768 h -8.8543 z"
         clip-path="url(#pa74707a125)"
         style="fill:#2ca02c"
         id="path5820" />
    </g>
    <g
       id="patch_137">
      <path
         d="m 1036.086,711.9288 h 8.8542 V 591.34827 h -8.8542 z"
         clip-path="url(#pa74707a125)"
         style="fill:#2ca02c"
         id="path5823" />
    </g>
    <g
       id="patch_138">
      <path
         d="m 1044.9402,710.29933 h 8.8542 V 591.34827 h -8.8542 z"
         clip-path="url(#pa74707a125)"
         style="fill:#2ca02c"
         id="path5826" />
    </g>
    <g
       id="patch_139">
      <path
         d="m 1053.7944,711.11407 h 8.8542 V 567.721 h -8.8542 z"
         clip-path="url(#pa74707a125)"
         style="fill:#2ca02c"
         id="path5829" />
    </g>
    <g
       id="patch_140">
      <path
         d="m 1062.6486,706.22567 h 8.8542 V 555.5 h -8.8542 z"
         clip-path="url(#pa74707a125)"
         style="fill:#2ca02c"
         id="path5832" />
    </g>
    <g
       id="patch_141">
      <path
         d="m 1071.5028,710.29933 h 8.8542 v -178.4266 h -8.8542 z"
         clip-path="url(#pa74707a125)"
         style="fill:#2ca02c"
         id="path5835" />
    </g>
    <g
       id="patch_142">
      <path
         d="m 1080.357,709.4846 h 8.8542 v -207.757 h -8.8542 z"
         clip-path="url(#pa74707a125)"
         style="fill:#2ca02c"
         id="path5838" />
    </g>
    <g
       id="patch_143">
      <path
         d="m 1089.2112,707.0404 h 8.8543 V 476.47087 h -8.8543 z"
         clip-path="url(#pa74707a125)"
         style="fill:#2ca02c"
         id="path5841" />
    </g>
    <g
       id="patch_144">
      <path
         d="m 1098.0655,698.07833 h 8.8542 V 437.36367 h -8.8542 z"
         clip-path="url(#pa74707a125)"
         style="fill:#2ca02c"
         id="path5844" />
    </g>
    <g
       id="patch_145">
      <path
         d="m 1106.9197,693.18993 h 8.8542 V 398.25647 h -8.8542 z"
         clip-path="url(#pa74707a125)"
         style="fill:#2ca02c"
         id="path5847" />
    </g>
    <g
       id="patch_146">
      <path
         d="m 1115.7739,681.78367 h 8.8542 V 328.1894 h -8.8542 z"
         clip-path="url(#pa74707a125)"
         style="fill:#2ca02c"
         id="path5850" />
    </g>
    <g
       id="patch_147">
      <path
         d="m 1124.6281,663.0448 h 8.8542 V 298.859 h -8.8542 z"
         clip-path="url(#pa74707a125)"
         style="fill:#2ca02c"
         id="path5853" />
    </g>
    <g
       id="patch_148">
      <path
         d="m 1133.4823,646.75013 h 8.8542 V 283.37907 h -8.8542 z"
         clip-path="url(#pa74707a125)"
         style="fill:#2ca02c"
         id="path5856" />
    </g>
    <g
       id="patch_149">
      <path
         d="m 1142.3365,633.7144 h 8.8542 V 298.859 h -8.8542 z"
         clip-path="url(#pa74707a125)"
         style="fill:#2ca02c"
         id="path5859" />
    </g>
    <g
       id="patch_150">
      <path
         d="m 1151.1907,662.23007 h 8.8543 V 453.65833 h -8.8543 z"
         clip-path="url(#pa74707a125)"
         style="fill:#2ca02c"
         id="path5862" />
    </g>
    <g
       id="patch_151">
      <path
         d="m 1160.045,683.41313 h 8.8542 V 566.90627 h -8.8542 z"
         clip-path="url(#pa74707a125)"
         style="fill:#2ca02c"
         id="path5865" />
    </g>
    <g
       id="patch_152">
      <path
         d="m 1168.8992,707.0404 h 8.8542 v -61.105 h -8.8542 z"
         clip-path="url(#pa74707a125)"
         style="fill:#2ca02c"
         id="path5868" />
    </g>
    <g
       id="patch_153">
      <path
         d="m 1177.7534,707.0404 h 8.8542 v -35.03353 h -8.8542 z"
         clip-path="url(#pa74707a125)"
         style="fill:#2ca02c"
         id="path5871" />
    </g>
    <g
       id="patch_154">
      <path
         d="m 1186.6076,707.0404 h 8.8542 v -23.62727 h -8.8542 z"
         clip-path="url(#pa74707a125)"
         style="fill:#2ca02c"
         id="path5874" />
    </g>
    <g
       id="patch_155">
      <path
         d="m 1195.4618,710.29933 h 8.8542 v -31.7746 h -8.8542 z"
         clip-path="url(#pa74707a125)"
         style="fill:#2ca02c"
         id="path5877" />
    </g>
    <g
       id="patch_156">
      <path
         d="m 1204.316,711.11407 h 8.8542 V 694.8194 h -8.8542 z"
         clip-path="url(#pa74707a125)"
         style="fill:#2ca02c"
         id="path5880" />
    </g>
    <g
       id="patch_157">
      <path
         d="m 1213.1702,711.9288 h 8.8543 v -4.8884 h -8.8543 z"
         clip-path="url(#pa74707a125)"
         style="fill:#2ca02c"
         id="path5883" />
    </g>
    <g
       id="matplotlib.axis_3">
      <g
         id="xtick_8">
        <g
           id="line2d_15">
          <g
             id="g5888">
            <path
               id="use5886"
               d="m 814.03162,711.92877 v 3.5"
               style="stroke:#000000;stroke-width:0.8" />
          </g>
        </g>
        <g
           id="text_18">
          <!-- −0.03 -->
          <g
             transform="matrix(0.1,0,0,-0.1,798.70896,726.52724)"
             id="g5901">
            <path
               id="use5891"
               d="M 10.59375,35.5 H 73.1875 V 27.203125 H 10.59375 Z"
               style="stroke-width:0.015625" />
            <path
               id="use5893"
               d="m 115.57031,66.40625 q -7.60937,0 -11.45312,-7.5 -3.82813,-7.484375 -3.82813,-22.53125 0,-14.984375 3.82813,-22.484375 3.84375,-7.5 11.45312,-7.5 7.67188,0 11.5,7.5 3.84375,7.5 3.84375,22.484375 0,15.046875 -3.84375,22.53125 -3.82812,7.5 -11.5,7.5 z m 0,7.8125 q 12.26563,0 18.73438,-9.703125 6.46875,-9.6875 6.46875,-28.140625 0,-18.40625 -6.46875,-28.109375 -6.46875,-9.6875 -18.73438,-9.6875 -12.25,0 -18.718748,9.6875 -6.46875,9.703125 -6.46875,28.109375 0,18.453125 6.46875,28.140625 6.468748,9.703125 18.718748,9.703125 z"
               style="stroke-width:0.015625" />
            <path
               id="use5895"
               d="m 158.09961,12.40625 h 10.3125 V 0 h -10.3125 z"
               style="stroke-width:0.015625" />
            <path
               id="use5897"
               d="m 210.98047,66.40625 q -7.60938,0 -11.45313,-7.5 -3.82812,-7.484375 -3.82812,-22.53125 0,-14.984375 3.82812,-22.484375 3.84375,-7.5 11.45313,-7.5 7.67187,0 11.5,7.5 3.84375,7.5 3.84375,22.484375 0,15.046875 -3.84375,22.53125 -3.82813,7.5 -11.5,7.5 z m 0,7.8125 q 12.26562,0 18.73437,-9.703125 6.46875,-9.6875 6.46875,-28.140625 0,-18.40625 -6.46875,-28.109375 -6.46875,-9.6875 -18.73437,-9.6875 -12.25,0 -18.71875,9.6875 -6.46875,9.703125 -6.46875,28.109375 0,18.453125 6.46875,28.140625 6.46875,9.703125 18.71875,9.703125 z"
               style="stroke-width:0.015625" />
            <path
               id="use5899"
               d="m 283.40039,39.3125 q 7.07813,-1.515625 11.04688,-6.3125 3.98437,-4.78125 3.98437,-11.8125 0,-10.78125 -7.42187,-16.703125 -7.42188,-5.90625 -21.09375,-5.90625 -4.57813,0 -9.4375,0.90625 -4.85938,0.90625 -10.03125,2.71875 v 9.515625 q 4.09375,-2.390625 8.96875,-3.609375 4.89062,-1.21875 10.21875,-1.21875 9.26562,0 14.125,3.65625 4.85937,3.65625 4.85937,10.640625 0,6.453125 -4.51562,10.078125 -4.51563,3.640625 -12.5625,3.640625 h -8.5 v 8.109375 h 8.89062 q 7.26563,0 11.125,2.90625 3.85938,2.90625 3.85938,8.375 0,5.609375 -3.98438,8.609375 -3.96875,3.015625 -11.39062,3.015625 -4.0625,0 -8.70313,-0.890625 -4.64062,-0.875 -10.20312,-2.71875 v 8.78125 q 5.625,1.5625 10.53125,2.34375 4.90625,0.78125 9.25,0.78125 11.23437,0 17.76562,-5.109375 6.54688,-5.09375 6.54688,-13.78125 0,-6.0625 -3.46875,-10.234375 -3.46875,-4.171875 -9.85938,-5.78125 z"
               style="stroke-width:0.015625" />
          </g>
        </g>
      </g>
      <g
         id="xtick_9">
        <g
           id="line2d_16">
          <g
             id="g5907">
            <path
               id="use5905"
               d="m 881.24377,711.92877 v 3.5"
               style="stroke:#000000;stroke-width:0.8" />
          </g>
        </g>
        <g
           id="text_19">
          <!-- −0.02 -->
          <g
             transform="matrix(0.1,0,0,-0.1,865.9211,726.52724)"
             id="g5920">
            <path
               id="use5910"
               d="M 10.59375,35.5 H 73.1875 V 27.203125 H 10.59375 Z"
               style="stroke-width:0.015625" />
            <path
               id="use5912"
               d="m 115.57031,66.40625 q -7.60937,0 -11.45312,-7.5 -3.82813,-7.484375 -3.82813,-22.53125 0,-14.984375 3.82813,-22.484375 3.84375,-7.5 11.45312,-7.5 7.67188,0 11.5,7.5 3.84375,7.5 3.84375,22.484375 0,15.046875 -3.84375,22.53125 -3.82812,7.5 -11.5,7.5 z m 0,7.8125 q 12.26563,0 18.73438,-9.703125 6.46875,-9.6875 6.46875,-28.140625 0,-18.40625 -6.46875,-28.109375 -6.46875,-9.6875 -18.73438,-9.6875 -12.25,0 -18.718748,9.6875 -6.46875,9.703125 -6.46875,28.109375 0,18.453125 6.46875,28.140625 6.468748,9.703125 18.718748,9.703125 z"
               style="stroke-width:0.015625" />
            <path
               id="use5914"
               d="m 158.09961,12.40625 h 10.3125 V 0 h -10.3125 z"
               style="stroke-width:0.015625" />
            <path
               id="use5916"
               d="m 210.98047,66.40625 q -7.60938,0 -11.45313,-7.5 -3.82812,-7.484375 -3.82812,-22.53125 0,-14.984375 3.82812,-22.484375 3.84375,-7.5 11.45313,-7.5 7.67187,0 11.5,7.5 3.84375,7.5 3.84375,22.484375 0,15.046875 -3.84375,22.53125 -3.82813,7.5 -11.5,7.5 z m 0,7.8125 q 12.26562,0 18.73437,-9.703125 6.46875,-9.6875 6.46875,-28.140625 0,-18.40625 -6.46875,-28.109375 -6.46875,-9.6875 -18.73437,-9.6875 -12.25,0 -18.71875,9.6875 -6.46875,9.703125 -6.46875,28.109375 0,18.453125 6.46875,28.140625 6.46875,9.703125 18.71875,9.703125 z"
               style="stroke-width:0.015625" />
            <path
               id="use5918"
               d="m 262.00977,8.296875 h 34.42187 V 0 h -46.28125 v 8.296875 q 5.60938,5.8125 15.29688,15.59375 9.70312,9.796875 12.1875,12.640625 4.73437,5.3125 6.60937,9 1.89063,3.6875 1.89063,7.25 0,5.8125 -4.07813,9.46875 -4.07812,3.671875 -10.625,3.671875 -4.64062,0 -9.79687,-1.609375 -5.14063,-1.609375 -11,-4.890625 v 9.96875 q 5.95312,2.390625 11.125,3.609375 5.1875,1.21875 9.48437,1.21875 11.32813,0 18.0625,-5.671875 6.73438,-5.65625 6.73438,-15.125 0,-4.5 -1.6875,-8.53125 -1.67188,-4.015625 -6.125,-9.484375 -1.21875,-1.421875 -7.76563,-8.1875 -6.53125,-6.765625 -18.45312,-18.921875 z"
               style="stroke-width:0.015625" />
          </g>
        </g>
      </g>
      <g
         id="xtick_10">
        <g
           id="line2d_17">
          <g
             id="g5926">
            <path
               id="use5924"
               d="m 948.45587,711.92877 v 3.5"
               style="stroke:#000000;stroke-width:0.8" />
          </g>
        </g>
        <g
           id="text_20">
          <!-- −0.01 -->
          <g
             transform="matrix(0.1,0,0,-0.1,933.13323,726.52724)"
             id="g5939">
            <path
               id="use5929"
               d="M 10.59375,35.5 H 73.1875 V 27.203125 H 10.59375 Z"
               style="stroke-width:0.015625" />
            <path
               id="use5931"
               d="m 115.57031,66.40625 q -7.60937,0 -11.45312,-7.5 -3.82813,-7.484375 -3.82813,-22.53125 0,-14.984375 3.82813,-22.484375 3.84375,-7.5 11.45312,-7.5 7.67188,0 11.5,7.5 3.84375,7.5 3.84375,22.484375 0,15.046875 -3.84375,22.53125 -3.82812,7.5 -11.5,7.5 z m 0,7.8125 q 12.26563,0 18.73438,-9.703125 6.46875,-9.6875 6.46875,-28.140625 0,-18.40625 -6.46875,-28.109375 -6.46875,-9.6875 -18.73438,-9.6875 -12.25,0 -18.718748,9.6875 -6.46875,9.703125 -6.46875,28.109375 0,18.453125 6.46875,28.140625 6.468748,9.703125 18.718748,9.703125 z"
               style="stroke-width:0.015625" />
            <path
               id="use5933"
               d="m 158.09961,12.40625 h 10.3125 V 0 h -10.3125 z"
               style="stroke-width:0.015625" />
            <path
               id="use5935"
               d="m 210.98047,66.40625 q -7.60938,0 -11.45313,-7.5 -3.82812,-7.484375 -3.82812,-22.53125 0,-14.984375 3.82812,-22.484375 3.84375,-7.5 11.45313,-7.5 7.67187,0 11.5,7.5 3.84375,7.5 3.84375,22.484375 0,15.046875 -3.84375,22.53125 -3.82813,7.5 -11.5,7.5 z m 0,7.8125 q 12.26562,0 18.73437,-9.703125 6.46875,-9.6875 6.46875,-28.140625 0,-18.40625 -6.46875,-28.109375 -6.46875,-9.6875 -18.73437,-9.6875 -12.25,0 -18.71875,9.6875 -6.46875,9.703125 -6.46875,28.109375 0,18.453125 6.46875,28.140625 6.46875,9.703125 18.71875,9.703125 z"
               style="stroke-width:0.015625" />
            <path
               id="use5937"
               d="m 255.22852,8.296875 h 16.10937 v 55.625 L 253.80664,60.40625 v 8.984375 l 17.4375,3.515625 h 9.85938 V 8.296875 h 16.10937 V 0 h -41.98437 z"
               style="stroke-width:0.015625" />
          </g>
        </g>
      </g>
      <g
         id="xtick_11">
        <g
           id="line2d_18">
          <g
             id="g5945">
            <path
               id="use5943"
               d="m 1015.668,711.92877 v 3.5"
               style="stroke:#000000;stroke-width:0.8" />
          </g>
        </g>
        <g
           id="text_21">
          <!-- 0.00 -->
          <g
             transform="matrix(0.1,0,0,-0.1,1004.5352,726.52724)"
             id="g5956">
            <path
               id="use5948"
               d="m 31.78125,66.40625 q -7.609375,0 -11.453125,-7.5 Q 16.5,51.421875 16.5,36.375 q 0,-14.984375 3.828125,-22.484375 3.84375,-7.5 11.453125,-7.5 7.671875,0 11.5,7.5 3.84375,7.5 3.84375,22.484375 0,15.046875 -3.84375,22.53125 -3.828125,7.5 -11.5,7.5 z m 0,7.8125 q 12.265625,0 18.734375,-9.703125 6.46875,-9.6875 6.46875,-28.140625 0,-18.40625 -6.46875,-28.109375 -6.46875,-9.6875 -18.734375,-9.6875 -12.25,0 -18.71875,9.6875 Q 6.59375,17.96875 6.59375,36.375 q 0,18.453125 6.46875,28.140625 6.46875,9.703125 18.71875,9.703125 z"
               style="stroke-width:0.015625" />
            <path
               id="use5950"
               d="m 74.310547,12.40625 h 10.3125 V 0 h -10.3125 z"
               style="stroke-width:0.015625" />
            <path
               id="use5952"
               d="m 127.19141,66.40625 q -7.60938,0 -11.45313,-7.5 -3.82812,-7.484375 -3.82812,-22.53125 0,-14.984375 3.82812,-22.484375 3.84375,-7.5 11.45313,-7.5 7.67187,0 11.5,7.5 3.84375,7.5 3.84375,22.484375 0,15.046875 -3.84375,22.53125 -3.82813,7.5 -11.5,7.5 z m 0,7.8125 q 12.26562,0 18.73437,-9.703125 6.46875,-9.6875 6.46875,-28.140625 0,-18.40625 -6.46875,-28.109375 -6.46875,-9.6875 -18.73437,-9.6875 -12.25,0 -18.71875,9.6875 -6.46875,9.703125 -6.46875,28.109375 0,18.453125 6.46875,28.140625 6.46875,9.703125 18.71875,9.703125 z"
               style="stroke-width:0.015625" />
            <path
               id="use5954"
               d="m 190.81445,66.40625 q -7.60937,0 -11.45312,-7.5 -3.82813,-7.484375 -3.82813,-22.53125 0,-14.984375 3.82813,-22.484375 3.84375,-7.5 11.45312,-7.5 7.67188,0 11.5,7.5 3.84375,7.5 3.84375,22.484375 0,15.046875 -3.84375,22.53125 -3.82812,7.5 -11.5,7.5 z m 0,7.8125 q 12.26563,0 18.73438,-9.703125 6.46875,-9.6875 6.46875,-28.140625 0,-18.40625 -6.46875,-28.109375 -6.46875,-9.6875 -18.73438,-9.6875 -12.25,0 -18.71875,9.6875 -6.46875,9.703125 -6.46875,28.109375 0,18.453125 6.46875,28.140625 6.46875,9.703125 18.71875,9.703125 z"
               style="stroke-width:0.015625" />
          </g>
        </g>
      </g>
      <g
         id="xtick_12">
        <g
           id="line2d_19">
          <g
             id="g5962">
            <path
               id="use5960"
               d="m 1082.8801,711.92877 v 3.5"
               style="stroke:#000000;stroke-width:0.8" />
          </g>
        </g>
        <g
           id="text_22">
          <!-- 0.01 -->
          <g
             transform="matrix(0.1,0,0,-0.1,1071.7473,726.52724)"
             id="g5973">
            <path
               id="use5965"
               d="m 31.78125,66.40625 q -7.609375,0 -11.453125,-7.5 Q 16.5,51.421875 16.5,36.375 q 0,-14.984375 3.828125,-22.484375 3.84375,-7.5 11.453125,-7.5 7.671875,0 11.5,7.5 3.84375,7.5 3.84375,22.484375 0,15.046875 -3.84375,22.53125 -3.828125,7.5 -11.5,7.5 z m 0,7.8125 q 12.265625,0 18.734375,-9.703125 6.46875,-9.6875 6.46875,-28.140625 0,-18.40625 -6.46875,-28.109375 -6.46875,-9.6875 -18.734375,-9.6875 -12.25,0 -18.71875,9.6875 Q 6.59375,17.96875 6.59375,36.375 q 0,18.453125 6.46875,28.140625 6.46875,9.703125 18.71875,9.703125 z"
               style="stroke-width:0.015625" />
            <path
               id="use5967"
               d="m 74.310547,12.40625 h 10.3125 V 0 h -10.3125 z"
               style="stroke-width:0.015625" />
            <path
               id="use5969"
               d="m 127.19141,66.40625 q -7.60938,0 -11.45313,-7.5 -3.82812,-7.484375 -3.82812,-22.53125 0,-14.984375 3.82812,-22.484375 3.84375,-7.5 11.45313,-7.5 7.67187,0 11.5,7.5 3.84375,7.5 3.84375,22.484375 0,15.046875 -3.84375,22.53125 -3.82813,7.5 -11.5,7.5 z m 0,7.8125 q 12.26562,0 18.73437,-9.703125 6.46875,-9.6875 6.46875,-28.140625 0,-18.40625 -6.46875,-28.109375 -6.46875,-9.6875 -18.73437,-9.6875 -12.25,0 -18.71875,9.6875 -6.46875,9.703125 -6.46875,28.109375 0,18.453125 6.46875,28.140625 6.46875,9.703125 18.71875,9.703125 z"
               style="stroke-width:0.015625" />
            <path
               id="use5971"
               d="m 171.43945,8.296875 h 16.10938 v 55.625 L 170.01758,60.40625 v 8.984375 l 17.4375,3.515625 h 9.85937 V 8.296875 h 16.10938 V 0 h -41.98438 z"
               style="stroke-width:0.015625" />
          </g>
        </g>
      </g>
      <g
         id="xtick_13">
        <g
           id="line2d_20">
          <g
             id="g5979">
            <path
               id="use5977"
               d="m 1150.0923,711.92877 v 3.5"
               style="stroke:#000000;stroke-width:0.8" />
          </g>
        </g>
        <g
           id="text_23">
          <!-- 0.02 -->
          <g
             transform="matrix(0.1,0,0,-0.1,1138.9595,726.52724)"
             id="g5990">
            <path
               id="use5982"
               d="m 31.78125,66.40625 q -7.609375,0 -11.453125,-7.5 Q 16.5,51.421875 16.5,36.375 q 0,-14.984375 3.828125,-22.484375 3.84375,-7.5 11.453125,-7.5 7.671875,0 11.5,7.5 3.84375,7.5 3.84375,22.484375 0,15.046875 -3.84375,22.53125 -3.828125,7.5 -11.5,7.5 z m 0,7.8125 q 12.265625,0 18.734375,-9.703125 6.46875,-9.6875 6.46875,-28.140625 0,-18.40625 -6.46875,-28.109375 -6.46875,-9.6875 -18.734375,-9.6875 -12.25,0 -18.71875,9.6875 Q 6.59375,17.96875 6.59375,36.375 q 0,18.453125 6.46875,28.140625 6.46875,9.703125 18.71875,9.703125 z"
               style="stroke-width:0.015625" />
            <path
               id="use5984"
               d="m 74.310547,12.40625 h 10.3125 V 0 h -10.3125 z"
               style="stroke-width:0.015625" />
            <path
               id="use5986"
               d="m 127.19141,66.40625 q -7.60938,0 -11.45313,-7.5 -3.82812,-7.484375 -3.82812,-22.53125 0,-14.984375 3.82812,-22.484375 3.84375,-7.5 11.45313,-7.5 7.67187,0 11.5,7.5 3.84375,7.5 3.84375,22.484375 0,15.046875 -3.84375,22.53125 -3.82813,7.5 -11.5,7.5 z m 0,7.8125 q 12.26562,0 18.73437,-9.703125 6.46875,-9.6875 6.46875,-28.140625 0,-18.40625 -6.46875,-28.109375 -6.46875,-9.6875 -18.73437,-9.6875 -12.25,0 -18.71875,9.6875 -6.46875,9.703125 -6.46875,28.109375 0,18.453125 6.46875,28.140625 6.46875,9.703125 18.71875,9.703125 z"
               style="stroke-width:0.015625" />
            <path
               id="use5988"
               d="m 178.2207,8.296875 h 34.42188 V 0 h -46.28125 v 8.296875 q 5.60937,5.8125 15.29687,15.59375 9.70313,9.796875 12.1875,12.640625 4.73438,5.3125 6.60938,9 1.89062,3.6875 1.89062,7.25 0,5.8125 -4.07812,9.46875 -4.07813,3.671875 -10.625,3.671875 -4.64063,0 -9.79688,-1.609375 -5.14062,-1.609375 -11,-4.890625 v 9.96875 q 5.95313,2.390625 11.125,3.609375 5.1875,1.21875 9.48438,1.21875 11.32812,0 18.0625,-5.671875 6.73437,-5.65625 6.73437,-15.125 0,-4.5 -1.6875,-8.53125 -1.67187,-4.015625 -6.125,-9.484375 -1.21875,-1.421875 -7.76562,-8.1875 -6.53125,-6.765625 -18.45313,-18.921875 z"
               style="stroke-width:0.015625" />
          </g>
        </g>
      </g>
      <g
         id="xtick_14">
        <g
           id="line2d_21">
          <g
             id="g5996">
            <path
               id="use5994"
               d="m 1217.3044,711.92877 v 3.5"
               style="stroke:#000000;stroke-width:0.8" />
          </g>
        </g>
        <g
           id="text_24">
          <!-- 0.03 -->
          <g
             transform="matrix(0.1,0,0,-0.1,1206.1716,726.52724)"
             id="g6007">
            <path
               id="use5999"
               d="m 31.78125,66.40625 q -7.609375,0 -11.453125,-7.5 Q 16.5,51.421875 16.5,36.375 q 0,-14.984375 3.828125,-22.484375 3.84375,-7.5 11.453125,-7.5 7.671875,0 11.5,7.5 3.84375,7.5 3.84375,22.484375 0,15.046875 -3.84375,22.53125 -3.828125,7.5 -11.5,7.5 z m 0,7.8125 q 12.265625,0 18.734375,-9.703125 6.46875,-9.6875 6.46875,-28.140625 0,-18.40625 -6.46875,-28.109375 -6.46875,-9.6875 -18.734375,-9.6875 -12.25,0 -18.71875,9.6875 Q 6.59375,17.96875 6.59375,36.375 q 0,18.453125 6.46875,28.140625 6.46875,9.703125 18.71875,9.703125 z"
               style="stroke-width:0.015625" />
            <path
               id="use6001"
               d="m 74.310547,12.40625 h 10.3125 V 0 h -10.3125 z"
               style="stroke-width:0.015625" />
            <path
               id="use6003"
               d="m 127.19141,66.40625 q -7.60938,0 -11.45313,-7.5 -3.82812,-7.484375 -3.82812,-22.53125 0,-14.984375 3.82812,-22.484375 3.84375,-7.5 11.45313,-7.5 7.67187,0 11.5,7.5 3.84375,7.5 3.84375,22.484375 0,15.046875 -3.84375,22.53125 -3.82813,7.5 -11.5,7.5 z m 0,7.8125 q 12.26562,0 18.73437,-9.703125 6.46875,-9.6875 6.46875,-28.140625 0,-18.40625 -6.46875,-28.109375 -6.46875,-9.6875 -18.73437,-9.6875 -12.25,0 -18.71875,9.6875 -6.46875,9.703125 -6.46875,28.109375 0,18.453125 6.46875,28.140625 6.46875,9.703125 18.71875,9.703125 z"
               style="stroke-width:0.015625" />
            <path
               id="use6005"
               d="M 199.61133,39.3125 Q 206.68945,37.796875 210.6582,33 q 3.98438,-4.78125 3.98438,-11.8125 0,-10.78125 -7.42188,-16.703125 -7.42187,-5.90625 -21.09375,-5.90625 -4.57812,0 -9.4375,0.90625 -4.85937,0.90625 -10.03125,2.71875 v 9.515625 q 4.09375,-2.390625 8.96875,-3.609375 4.89063,-1.21875 10.21875,-1.21875 9.26563,0 14.125,3.65625 4.85938,3.65625 4.85938,10.640625 0,6.453125 -4.51563,10.078125 -4.51562,3.640625 -12.5625,3.640625 h -8.5 v 8.109375 h 8.89063 q 7.26562,0 11.125,2.90625 3.85937,2.90625 3.85937,8.375 0,5.609375 -3.98437,8.609375 -3.96875,3.015625 -11.39063,3.015625 -4.0625,0 -8.70312,-0.890625 -4.64063,-0.875 -10.20313,-2.71875 v 8.78125 q 5.625,1.5625 10.53125,2.34375 4.90625,0.78125 9.25,0.78125 11.23438,0 17.76563,-5.109375 6.54687,-5.09375 6.54687,-13.78125 0,-6.0625 -3.46875,-10.234375 -3.46875,-4.171875 -9.85937,-5.78125 z"
               style="stroke-width:0.015625" />
          </g>
        </g>
      </g>
      <g
         id="text_25">
        <!-- Score (avg) -->
        <g
           transform="matrix(0.1,0,0,-0.1,971.97847,740.20536)"
           id="g6036">
          <defs
             id="defs6012">
            <path
               id="DejaVuSans-67"
               d="m 2906,1791 q 0,625 -258,968 -257,344 -723,344 -462,0 -720,-344 -258,-343 -258,-968 0,-622 258,-966 258,-344 720,-344 466,0 723,344 258,344 258,966 z M 3481,434 q 0,-893 -397,-1329 -396,-436 -1215,-436 -303,0 -572,45 -269,45 -522,139 v 559 q 253,-137 500,-202 247,-66 503,-66 566,0 847,295 281,295 281,892 V 616 Q 2728,306 2450,153 2172,0 1784,0 1141,0 747,490 353,981 353,1791 q 0,812 394,1302 394,491 1037,491 388,0 666,-153 278,-153 456,-462 v 531 h 575 z"
               transform="scale(0.015625)" />
          </defs>
          <path
             id="use6014"
             d="m 53.515625,70.515625 v -9.625 q -5.609375,2.6875 -10.59375,4 -4.984375,1.328125 -9.625,1.328125 -8.046875,0 -12.421875,-3.125 -4.375,-3.125 -4.375,-8.890625 0,-4.84375 2.90625,-7.3125 2.90625,-2.453125 11.015625,-3.96875 L 36.375,41.703125 Q 47.40625,39.59375 52.65625,34.296875 57.90625,29 57.90625,20.125 q 0,-10.609375 -7.109375,-16.078125 -7.09375,-5.46875 -20.8125,-5.46875 -5.171875,0 -11.015625,1.171875 Q 13.140625,0.921875 6.890625,3.21875 V 13.375 q 6,-3.359375 11.765625,-5.078125 5.765625,-1.703125 11.328125,-1.703125 8.4375,0 13.03125,3.3125 4.59375,3.328125 4.59375,9.484375 0,5.359375 -3.296875,8.390625 Q 41.015625,30.8125 33.5,32.328125 L 27.484375,33.5 q -11.03125,2.1875 -15.96875,6.875 -4.921875,4.6875 -4.921875,13.046875 0,9.671875 6.8125,15.234375 6.8125,5.5625 18.765625,5.5625 5.140625,0 10.453125,-0.9375 5.328125,-0.921875 10.890625,-2.765625 z"
             style="stroke-width:0.015625" />
          <path
             id="use6016"
             d="M 112.25781,52.59375 V 44.1875 q -3.8125,2.109375 -7.64062,3.15625 -3.82813,1.046875 -7.734378,1.046875 -8.75,0 -13.59375,-5.546875 -4.828125,-5.53125 -4.828125,-15.546875 0,-10.015625 4.828125,-15.5625 4.84375,-5.53125 13.59375,-5.53125 3.906248,0 7.734378,1.046875 3.82812,1.046875 7.64062,3.15625 v -8.3125 q -3.76562,-1.75 -7.79687,-2.625 -4.01563,-0.890625 -8.562503,-0.890625 -12.359375,0 -19.640625,7.765625 -7.265625,7.765625 -7.265625,20.953125 0,13.375 7.34375,21.03125 Q 83.695312,56 96.492187,56 q 4.140623,0 8.093753,-0.859375 3.95312,-0.84375 7.67187,-2.546875 z"
             style="stroke-width:0.015625" />
          <path
             id="use6018"
             d="m 149.06641,48.390625 q -7.21875,0 -11.42188,-5.640625 -4.20312,-5.640625 -4.20312,-15.453125 0,-9.8125 4.17187,-15.453125 4.1875,-5.640625 11.45313,-5.640625 7.1875,0 11.375,5.65625 4.20312,5.671875 4.20312,15.4375 0,9.71875 -4.20312,15.40625 -4.1875,5.6875 -11.375,5.6875 z m 0,7.609375 q 11.71875,0 18.40625,-7.625 6.70312,-7.609375 6.70312,-21.078125 0,-13.421875 -6.70312,-21.078125 -6.6875,-7.640625 -18.40625,-7.640625 -11.76563,0 -18.4375,7.640625 -6.65625,7.65625 -6.65625,21.078125 0,13.46875 6.65625,21.078125 6.67187,7.625 18.4375,7.625 z"
             style="stroke-width:0.015625" />
          <path
             id="use6020"
             d="m 220.74805,46.296875 q -1.51563,0.875 -3.29688,1.28125 Q 215.66992,48 213.5293,48 205.9043,48 201.82617,43.046875 197.74805,38.09375 197.74805,28.8125 V 0 h -9.03125 v 54.6875 h 9.03125 v -8.5 q 2.84375,4.984375 7.375,7.390625 Q 209.66992,56 216.16992,56 q 0.92188,0 2.04688,-0.125 1.125,-0.109375 2.48437,-0.359375 z"
             style="stroke-width:0.015625" />
          <path
             id="use6022"
             d="m 274.70508,29.59375 v -4.390625 h -41.3125 q 0.59375,-9.28125 5.59375,-14.140625 5,-4.859375 13.9375,-4.859375 5.17187,0 10.03125,1.265625 4.85937,1.265625 9.65625,3.8125 v -8.5 q -4.84375,-2.046875 -9.92188,-3.125 -5.07812,-1.078125 -10.29687,-1.078125 -13.09375,0 -20.73438,7.609375 -7.64062,7.625 -7.64062,20.625 0,13.421875 7.25,21.296875 Q 238.51758,56 250.83008,56 q 11.03125,0 17.45312,-7.109375 6.42188,-7.09375 6.42188,-19.296875 z m -8.98438,2.640625 q -0.0937,7.359375 -4.125,11.75 -4.03125,4.40625 -10.67187,4.40625 -7.51563,0 -12.03125,-4.25 -4.51563,-4.25 -5.20313,-11.96875 z"
             style="stroke-width:0.015625" />
          <path
             id="use6024"
             d=""
             style="stroke-width:0.015625" />
          <path
             id="use6026"
             d="M 342.8125,75.875 Q 336.28125,64.65625 333.09375,53.65625 329.92187,42.671875 329.92187,31.390625 329.92187,20.125 333.125,9.0625 336.32812,-2 342.8125,-13.1875 H 335 q -7.3125,11.484375 -10.95313,22.5625 -3.64062,11.078125 -3.64062,22.015625 0,10.890625 3.60937,21.921875 3.625,11.046875 10.98438,22.5625 z"
             style="stroke-width:0.015625" />
          <path
             id="use6028"
             d="m 385.10742,27.484375 q -10.89062,0 -15.09375,-2.484375 -4.20312,-2.484375 -4.20312,-8.5 0,-4.78125 3.15625,-7.59375 3.15625,-2.796875 8.5625,-2.796875 7.48437,0 12,5.296875 4.51562,5.296875 4.51562,14.078125 v 2 z m 17.92188,3.71875 V 0 h -8.98438 v 8.296875 q -3.07812,-4.96875 -7.67187,-7.34375 -4.59375,-2.375 -11.23438,-2.375 -8.39062,0 -13.35937,4.71875 -4.95313,4.71875 -4.95313,12.625 0,9.21875 6.17188,13.90625 6.1875,4.6875 18.4375,4.6875 h 12.60937 v 0.890625 q 0,6.203125 -4.07812,9.59375 -4.07813,3.390625 -11.45313,3.390625 -4.6875,0 -9.14062,-1.125 -4.4375,-1.125 -8.53125,-3.375 v 8.3125 q 4.92187,1.90625 9.5625,2.84375 Q 375.04492,56 379.43555,56 q 11.875,0 17.73437,-6.15625 5.85938,-6.140625 5.85938,-18.640625 z"
             style="stroke-width:0.015625" />
          <path
             id="use6030"
             d="m 415.08984,54.6875 h 9.51563 L 441.69922,8.796875 458.79297,54.6875 h 9.51562 L 447.79297,0 h -12.20313 z"
             style="stroke-width:0.015625" />
          <use
             xlink:href="#DejaVuSans-67"
             x="471.28516"
             id="use6032" />
          <path
             id="use6034"
             d="m 542.77734,75.875 h 7.8125 q 7.3125,-11.515625 10.95313,-22.5625 3.64062,-11.03125 3.64062,-21.921875 0,-10.9375 -3.64062,-22.015625 -3.64063,-11.078125 -10.95313,-22.5625 h -7.8125 q 6.48438,11.1875 9.6875,22.25 3.20313,11.0625 3.20313,22.328125 0,11.28125 -3.20313,22.265625 -3.20312,11 -9.6875,22.21875 z"
             style="stroke-width:0.015625" />
        </g>
      </g>
    </g>
    <g
       id="matplotlib.axis_4">
      <g
         id="ytick_8">
        <g
           id="line2d_22">
          <g
             id="g6042">
            <path
               id="use6040"
               d="m 757.17816,711.92877 h -3.5"
               style="stroke:#000000;stroke-width:0.8" />
          </g>
        </g>
        <g
           id="text_26">
          <!-- 0 -->
          <g
             transform="matrix(0.1,0,0,-0.1,743.81568,715.72802)"
             id="g6047">
            <path
               id="use6045"
               d="m 31.78125,66.40625 q -7.609375,0 -11.453125,-7.5 Q 16.5,51.421875 16.5,36.375 q 0,-14.984375 3.828125,-22.484375 3.84375,-7.5 11.453125,-7.5 7.671875,0 11.5,7.5 3.84375,7.5 3.84375,22.484375 0,15.046875 -3.84375,22.53125 -3.828125,7.5 -11.5,7.5 z m 0,7.8125 q 12.265625,0 18.734375,-9.703125 6.46875,-9.6875 6.46875,-28.140625 0,-18.40625 -6.46875,-28.109375 -6.46875,-9.6875 -18.734375,-9.6875 -12.25,0 -18.71875,9.6875 Q 6.59375,17.96875 6.59375,36.375 q 0,18.453125 6.46875,28.140625 6.46875,9.703125 18.71875,9.703125 z"
               style="stroke-width:0.015625" />
          </g>
        </g>
      </g>
      <g
         id="ytick_9">
        <g
           id="line2d_23">
          <g
             id="g6053">
            <path
               id="use6051"
               d="m 757.17816,630.45544 h -3.5"
               style="stroke:#000000;stroke-width:0.8" />
          </g>
        </g>
        <g
           id="text_27">
          <!-- 100 -->
          <g
             transform="matrix(0.1,0,0,-0.1,731.09068,634.25468)"
             id="g6062">
            <path
               id="use6056"
               d="m 12.40625,8.296875 h 16.109375 v 55.625 L 10.984375,60.40625 v 8.984375 l 17.4375,3.515625 H 38.28125 V 8.296875 H 54.390625 V 0 H 12.40625 Z"
               style="stroke-width:0.015625" />
            <path
               id="use6058"
               d="m 95.404297,66.40625 q -7.609375,0 -11.453125,-7.5 -3.828125,-7.484375 -3.828125,-22.53125 0,-14.984375 3.828125,-22.484375 3.84375,-7.5 11.453125,-7.5 7.671873,0 11.500003,7.5 3.84375,7.5 3.84375,22.484375 0,15.046875 -3.84375,22.53125 -3.82813,7.5 -11.500003,7.5 z m 0,7.8125 q 12.265623,0 18.734373,-9.703125 6.46875,-9.6875 6.46875,-28.140625 0,-18.40625 -6.46875,-28.109375 -6.46875,-9.6875 -18.734373,-9.6875 -12.25,0 -18.71875,9.6875 -6.46875,9.703125 -6.46875,28.109375 0,18.453125 6.46875,28.140625 6.46875,9.703125 18.71875,9.703125 z"
               style="stroke-width:0.015625" />
            <path
               id="use6060"
               d="m 159.02734,66.40625 q -7.60937,0 -11.45312,-7.5 -3.82813,-7.484375 -3.82813,-22.53125 0,-14.984375 3.82813,-22.484375 3.84375,-7.5 11.45312,-7.5 7.67188,0 11.5,7.5 3.84375,7.5 3.84375,22.484375 0,15.046875 -3.84375,22.53125 -3.82812,7.5 -11.5,7.5 z m 0,7.8125 q 12.26563,0 18.73438,-9.703125 6.46875,-9.6875 6.46875,-28.140625 0,-18.40625 -6.46875,-28.109375 -6.46875,-9.6875 -18.73438,-9.6875 -12.25,0 -18.71875,9.6875 -6.46875,9.703125 -6.46875,28.109375 0,18.453125 6.46875,28.140625 6.46875,9.703125 18.71875,9.703125 z"
               style="stroke-width:0.015625" />
          </g>
        </g>
      </g>
      <g
         id="ytick_10">
        <g
           id="line2d_24">
          <g
             id="g6068">
            <path
               id="use6066"
               d="m 757.17816,548.98212 h -3.5"
               style="stroke:#000000;stroke-width:0.8" />
          </g>
        </g>
        <g
           id="text_28">
          <!-- 200 -->
          <g
             transform="matrix(0.1,0,0,-0.1,731.09068,552.78135)"
             id="g6077">
            <path
               id="use6071"
               d="M 19.1875,8.296875 H 53.609375 V 0 H 7.328125 v 8.296875 q 5.609375,5.8125 15.296875,15.59375 9.703125,9.796875 12.1875,12.640625 4.734375,5.3125 6.609375,9 1.890625,3.6875 1.890625,7.25 0,5.8125 -4.078125,9.46875 -4.078125,3.671875 -10.625,3.671875 -4.640625,0 -9.796875,-1.609375 -5.140625,-1.609375 -11,-4.890625 v 9.96875 Q 13.765625,71.78125 18.9375,73 q 5.1875,1.21875 9.484375,1.21875 11.328125,0 18.0625,-5.671875 6.734375,-5.65625 6.734375,-15.125 0,-4.5 -1.6875,-8.53125 Q 49.859375,40.875 45.40625,35.40625 44.1875,33.984375 37.640625,27.21875 31.109375,20.453125 19.1875,8.296875 Z"
               style="stroke-width:0.015625" />
            <path
               id="use6073"
               d="m 95.404297,66.40625 q -7.609375,0 -11.453125,-7.5 -3.828125,-7.484375 -3.828125,-22.53125 0,-14.984375 3.828125,-22.484375 3.84375,-7.5 11.453125,-7.5 7.671873,0 11.500003,7.5 3.84375,7.5 3.84375,22.484375 0,15.046875 -3.84375,22.53125 -3.82813,7.5 -11.500003,7.5 z m 0,7.8125 q 12.265623,0 18.734373,-9.703125 6.46875,-9.6875 6.46875,-28.140625 0,-18.40625 -6.46875,-28.109375 -6.46875,-9.6875 -18.734373,-9.6875 -12.25,0 -18.71875,9.6875 -6.46875,9.703125 -6.46875,28.109375 0,18.453125 6.46875,28.140625 6.46875,9.703125 18.71875,9.703125 z"
               style="stroke-width:0.015625" />
            <path
               id="use6075"
               d="m 159.02734,66.40625 q -7.60937,0 -11.45312,-7.5 -3.82813,-7.484375 -3.82813,-22.53125 0,-14.984375 3.82813,-22.484375 3.84375,-7.5 11.45312,-7.5 7.67188,0 11.5,7.5 3.84375,7.5 3.84375,22.484375 0,15.046875 -3.84375,22.53125 -3.82812,7.5 -11.5,7.5 z m 0,7.8125 q 12.26563,0 18.73438,-9.703125 6.46875,-9.6875 6.46875,-28.140625 0,-18.40625 -6.46875,-28.109375 -6.46875,-9.6875 -18.73438,-9.6875 -12.25,0 -18.71875,9.6875 -6.46875,9.703125 -6.46875,28.109375 0,18.453125 6.46875,28.140625 6.46875,9.703125 18.71875,9.703125 z"
               style="stroke-width:0.015625" />
          </g>
        </g>
      </g>
      <g
         id="ytick_11">
        <g
           id="line2d_25">
          <g
             id="g6083">
            <path
               id="use6081"
               d="m 757.17816,467.50879 h -3.5"
               style="stroke:#000000;stroke-width:0.8" />
          </g>
        </g>
        <g
           id="text_29">
          <!-- 300 -->
          <g
             transform="matrix(0.1,0,0,-0.1,731.09068,471.30802)"
             id="g6092">
            <path
               id="use6086"
               d="M 40.578125,39.3125 Q 47.65625,37.796875 51.625,33 q 3.984375,-4.78125 3.984375,-11.8125 0,-10.78125 -7.421875,-16.703125 -7.421875,-5.90625 -21.09375,-5.90625 -4.578125,0 -9.4375,0.90625 -4.859375,0.90625 -10.03125,2.71875 v 9.515625 q 4.09375,-2.390625 8.96875,-3.609375 4.890625,-1.21875 10.21875,-1.21875 9.265625,0 14.125,3.65625 4.859375,3.65625 4.859375,10.640625 0,6.453125 -4.515625,10.078125 -4.515625,3.640625 -12.5625,3.640625 h -8.5 v 8.109375 h 8.890625 q 7.265625,0 11.125,2.90625 3.859375,2.90625 3.859375,8.375 0,5.609375 -3.984375,8.609375 -3.96875,3.015625 -11.390625,3.015625 -4.0625,0 -8.703125,-0.890625 Q 15.375,64.15625 9.8125,62.3125 v 8.78125 q 5.625,1.5625 10.53125,2.34375 4.90625,0.78125 9.25,0.78125 11.234375,0 17.765625,-5.109375 6.546875,-5.09375 6.546875,-13.78125 0,-6.0625 -3.46875,-10.234375 -3.46875,-4.171875 -9.859375,-5.78125 z"
               style="stroke-width:0.015625" />
            <path
               id="use6088"
               d="m 95.404297,66.40625 q -7.609375,0 -11.453125,-7.5 -3.828125,-7.484375 -3.828125,-22.53125 0,-14.984375 3.828125,-22.484375 3.84375,-7.5 11.453125,-7.5 7.671873,0 11.500003,7.5 3.84375,7.5 3.84375,22.484375 0,15.046875 -3.84375,22.53125 -3.82813,7.5 -11.500003,7.5 z m 0,7.8125 q 12.265623,0 18.734373,-9.703125 6.46875,-9.6875 6.46875,-28.140625 0,-18.40625 -6.46875,-28.109375 -6.46875,-9.6875 -18.734373,-9.6875 -12.25,0 -18.71875,9.6875 -6.46875,9.703125 -6.46875,28.109375 0,18.453125 6.46875,28.140625 6.46875,9.703125 18.71875,9.703125 z"
               style="stroke-width:0.015625" />
            <path
               id="use6090"
               d="m 159.02734,66.40625 q -7.60937,0 -11.45312,-7.5 -3.82813,-7.484375 -3.82813,-22.53125 0,-14.984375 3.82813,-22.484375 3.84375,-7.5 11.45312,-7.5 7.67188,0 11.5,7.5 3.84375,7.5 3.84375,22.484375 0,15.046875 -3.84375,22.53125 -3.82812,7.5 -11.5,7.5 z m 0,7.8125 q 12.26563,0 18.73438,-9.703125 6.46875,-9.6875 6.46875,-28.140625 0,-18.40625 -6.46875,-28.109375 -6.46875,-9.6875 -18.73438,-9.6875 -12.25,0 -18.71875,9.6875 -6.46875,9.703125 -6.46875,28.109375 0,18.453125 6.46875,28.140625 6.46875,9.703125 18.71875,9.703125 z"
               style="stroke-width:0.015625" />
          </g>
        </g>
      </g>
      <g
         id="ytick_12">
        <g
           id="line2d_26">
          <g
             id="g6098">
            <path
               id="use6096"
               d="m 757.17816,386.03546 h -3.5"
               style="stroke:#000000;stroke-width:0.8" />
          </g>
        </g>
        <g
           id="text_30">
          <!-- 400 -->
          <g
             transform="matrix(0.1,0,0,-0.1,731.09068,389.83468)"
             id="g6107">
            <path
               id="use6101"
               d="M 37.796875,64.3125 12.890625,25.390625 h 24.90625 z m -2.59375,8.59375 h 12.40625 V 25.390625 h 10.40625 V 17.1875 H 47.609375 V 0 h -9.8125 V 17.1875 H 4.890625 v 9.515625 z"
               style="stroke-width:0.015625" />
            <path
               id="use6103"
               d="m 95.404297,66.40625 q -7.609375,0 -11.453125,-7.5 -3.828125,-7.484375 -3.828125,-22.53125 0,-14.984375 3.828125,-22.484375 3.84375,-7.5 11.453125,-7.5 7.671873,0 11.500003,7.5 3.84375,7.5 3.84375,22.484375 0,15.046875 -3.84375,22.53125 -3.82813,7.5 -11.500003,7.5 z m 0,7.8125 q 12.265623,0 18.734373,-9.703125 6.46875,-9.6875 6.46875,-28.140625 0,-18.40625 -6.46875,-28.109375 -6.46875,-9.6875 -18.734373,-9.6875 -12.25,0 -18.71875,9.6875 -6.46875,9.703125 -6.46875,28.109375 0,18.453125 6.46875,28.140625 6.46875,9.703125 18.71875,9.703125 z"
               style="stroke-width:0.015625" />
            <path
               id="use6105"
               d="m 159.02734,66.40625 q -7.60937,0 -11.45312,-7.5 -3.82813,-7.484375 -3.82813,-22.53125 0,-14.984375 3.82813,-22.484375 3.84375,-7.5 11.45312,-7.5 7.67188,0 11.5,7.5 3.84375,7.5 3.84375,22.484375 0,15.046875 -3.84375,22.53125 -3.82812,7.5 -11.5,7.5 z m 0,7.8125 q 12.26563,0 18.73438,-9.703125 6.46875,-9.6875 6.46875,-28.140625 0,-18.40625 -6.46875,-28.109375 -6.46875,-9.6875 -18.73438,-9.6875 -12.25,0 -18.71875,9.6875 -6.46875,9.703125 -6.46875,28.109375 0,18.453125 6.46875,28.140625 6.46875,9.703125 18.71875,9.703125 z"
               style="stroke-width:0.015625" />
          </g>
        </g>
      </g>
      <g
         id="ytick_13">
        <g
           id="line2d_27">
          <g
             id="g6113">
            <path
               id="use6111"
               d="m 757.17816,304.56213 h -3.5"
               style="stroke:#000000;stroke-width:0.8" />
          </g>
        </g>
        <g
           id="text_31">
          <!-- 500 -->
          <g
             transform="matrix(0.1,0,0,-0.1,731.09068,308.36135)"
             id="g6125">
            <defs
               id="defs6117">
              <path
                 id="DejaVuSans-35"
                 d="M 691,4666 H 3169 V 4134 H 1269 V 2991 q 137,47 274,70 138,23 276,23 781,0 1237,-428 457,-428 457,-1159 Q 3513,744 3044,326 2575,-91 1722,-91 1428,-91 1123,-41 819,9 494,109 v 635 q 281,-153 581,-228 300,-75 634,-75 541,0 856,284 316,284 316,772 0,487 -316,771 -315,285 -856,285 -253,0 -505,-56 -251,-56 -513,-175 z"
                 transform="scale(0.015625)" />
            </defs>
            <use
               xlink:href="#DejaVuSans-35"
               id="use6119" />
            <path
               id="use6121"
               d="m 95.404297,66.40625 q -7.609375,0 -11.453125,-7.5 -3.828125,-7.484375 -3.828125,-22.53125 0,-14.984375 3.828125,-22.484375 3.84375,-7.5 11.453125,-7.5 7.671873,0 11.500003,7.5 3.84375,7.5 3.84375,22.484375 0,15.046875 -3.84375,22.53125 -3.82813,7.5 -11.500003,7.5 z m 0,7.8125 q 12.265623,0 18.734373,-9.703125 6.46875,-9.6875 6.46875,-28.140625 0,-18.40625 -6.46875,-28.109375 -6.46875,-9.6875 -18.734373,-9.6875 -12.25,0 -18.71875,9.6875 -6.46875,9.703125 -6.46875,28.109375 0,18.453125 6.46875,28.140625 6.46875,9.703125 18.71875,9.703125 z"
               style="stroke-width:0.015625" />
            <path
               id="use6123"
               d="m 159.02734,66.40625 q -7.60937,0 -11.45312,-7.5 -3.82813,-7.484375 -3.82813,-22.53125 0,-14.984375 3.82813,-22.484375 3.84375,-7.5 11.45312,-7.5 7.67188,0 11.5,7.5 3.84375,7.5 3.84375,22.484375 0,15.046875 -3.84375,22.53125 -3.82812,7.5 -11.5,7.5 z m 0,7.8125 q 12.26563,0 18.73438,-9.703125 6.46875,-9.6875 6.46875,-28.140625 0,-18.40625 -6.46875,-28.109375 -6.46875,-9.6875 -18.73438,-9.6875 -12.25,0 -18.71875,9.6875 -6.46875,9.703125 -6.46875,28.109375 0,18.453125 6.46875,28.140625 6.46875,9.703125 18.71875,9.703125 z"
               style="stroke-width:0.015625" />
          </g>
        </g>
      </g>
      <g
         id="ytick_14">
        <g
           id="line2d_28">
          <g
             id="g6131">
            <path
               id="use6129"
               d="m 757.17816,223.08881 h -3.5"
               style="stroke:#000000;stroke-width:0.8" />
          </g>
        </g>
        <g
           id="text_32">
          <!-- 600 -->
          <g
             transform="matrix(0.1,0,0,-0.1,731.09068,226.88802)"
             id="g6143">
            <defs
               id="defs6135">
              <path
                 id="DejaVuSans-36"
                 d="m 2113,2584 q -425,0 -674,-291 -248,-290 -248,-796 0,-503 248,-796 249,-292 674,-292 425,0 673,292 248,293 248,796 0,506 -248,796 -248,291 -673,291 z m 1253,1979 v -575 q -238,112 -480,171 -242,60 -480,60 -625,0 -955,-422 -329,-422 -376,-1275 184,272 462,417 279,145 613,145 703,0 1111,-427 408,-426 408,-1160 0,-719 -425,-1154 -425,-434 -1131,-434 -810,0 -1238,620 -428,621 -428,1799 0,1106 525,1764 525,658 1409,658 238,0 480,-47 242,-47 505,-140 z"
                 transform="scale(0.015625)" />
            </defs>
            <use
               xlink:href="#DejaVuSans-36"
               id="use6137" />
            <path
               id="use6139"
               d="m 95.404297,66.40625 q -7.609375,0 -11.453125,-7.5 -3.828125,-7.484375 -3.828125,-22.53125 0,-14.984375 3.828125,-22.484375 3.84375,-7.5 11.453125,-7.5 7.671873,0 11.500003,7.5 3.84375,7.5 3.84375,22.484375 0,15.046875 -3.84375,22.53125 -3.82813,7.5 -11.500003,7.5 z m 0,7.8125 q 12.265623,0 18.734373,-9.703125 6.46875,-9.6875 6.46875,-28.140625 0,-18.40625 -6.46875,-28.109375 -6.46875,-9.6875 -18.734373,-9.6875 -12.25,0 -18.71875,9.6875 -6.46875,9.703125 -6.46875,28.109375 0,18.453125 6.46875,28.140625 6.46875,9.703125 18.71875,9.703125 z"
               style="stroke-width:0.015625" />
            <path
               id="use6141"
               d="m 159.02734,66.40625 q -7.60937,0 -11.45312,-7.5 -3.82813,-7.484375 -3.82813,-22.53125 0,-14.984375 3.82813,-22.484375 3.84375,-7.5 11.45312,-7.5 7.67188,0 11.5,7.5 3.84375,7.5 3.84375,22.484375 0,15.046875 -3.84375,22.53125 -3.82812,7.5 -11.5,7.5 z m 0,7.8125 q 12.26563,0 18.73438,-9.703125 6.46875,-9.6875 6.46875,-28.140625 0,-18.40625 -6.46875,-28.109375 -6.46875,-9.6875 -18.73438,-9.6875 -12.25,0 -18.71875,9.6875 -6.46875,9.703125 -6.46875,28.109375 0,18.453125 6.46875,28.140625 6.46875,9.703125 18.71875,9.703125 z"
               style="stroke-width:0.015625" />
          </g>
        </g>
      </g>
      <g
         id="ytick_15">
        <g
           id="line2d_29">
          <g
             id="g6149">
            <path
               id="use6147"
               d="m 757.17816,141.61546 h -3.5"
               style="stroke:#000000;stroke-width:0.8" />
          </g>
        </g>
        <g
           id="text_33">
          <!-- 700 -->
          <g
             transform="matrix(0.1,0,0,-0.1,731.09068,145.41468)"
             id="g6158">
            <path
               id="use6152"
               d="m 8.203125,72.90625 h 46.875 V 68.703125 L 28.609375,0 H 18.3125 L 43.21875,64.59375 H 8.203125 Z"
               style="stroke-width:0.015625" />
            <path
               id="use6154"
               d="m 95.404297,66.40625 q -7.609375,0 -11.453125,-7.5 -3.828125,-7.484375 -3.828125,-22.53125 0,-14.984375 3.828125,-22.484375 3.84375,-7.5 11.453125,-7.5 7.671873,0 11.500003,7.5 3.84375,7.5 3.84375,22.484375 0,15.046875 -3.84375,22.53125 -3.82813,7.5 -11.500003,7.5 z m 0,7.8125 q 12.265623,0 18.734373,-9.703125 6.46875,-9.6875 6.46875,-28.140625 0,-18.40625 -6.46875,-28.109375 -6.46875,-9.6875 -18.734373,-9.6875 -12.25,0 -18.71875,9.6875 -6.46875,9.703125 -6.46875,28.109375 0,18.453125 6.46875,28.140625 6.46875,9.703125 18.71875,9.703125 z"
               style="stroke-width:0.015625" />
            <path
               id="use6156"
               d="m 159.02734,66.40625 q -7.60937,0 -11.45312,-7.5 -3.82813,-7.484375 -3.82813,-22.53125 0,-14.984375 3.82813,-22.484375 3.84375,-7.5 11.45312,-7.5 7.67188,0 11.5,7.5 3.84375,7.5 3.84375,22.484375 0,15.046875 -3.84375,22.53125 -3.82812,7.5 -11.5,7.5 z m 0,7.8125 q 12.26563,0 18.73438,-9.703125 6.46875,-9.6875 6.46875,-28.140625 0,-18.40625 -6.46875,-28.109375 -6.46875,-9.6875 -18.73438,-9.6875 -12.25,0 -18.71875,9.6875 -6.46875,9.703125 -6.46875,28.109375 0,18.453125 6.46875,28.140625 6.46875,9.703125 18.71875,9.703125 z"
               style="stroke-width:0.015625" />
          </g>
        </g>
      </g>
    </g>
    <g
       id="patch_158">
      <path
         d="M 757.17818,711.9288 V 95.9904"
         style="fill:none;stroke:#000000;stroke-width:0.8;stroke-linecap:square;stroke-linejoin:miter"
         id="path6163" />
    </g>
    <g
       id="patch_159">
      <path
         d="M 1244.16,711.9288 V 95.9904"
         style="fill:none;stroke:#000000;stroke-width:0.8;stroke-linecap:square;stroke-linejoin:miter"
         id="path6166" />
    </g>
    <g
       id="patch_160">
      <path
         d="M 757.17818,711.9288 H 1244.16"
         style="fill:none;stroke:#000000;stroke-width:0.8;stroke-linecap:square;stroke-linejoin:miter"
         id="path6169" />
    </g>
    <g
       id="patch_161">
      <path
         d="M 757.17818,95.9904 H 1244.16"
         style="fill:none;stroke:#000000;stroke-width:0.8;stroke-linecap:square;stroke-linejoin:miter"
         id="path6172" />
    </g>
  </g>
  <defs
     id="defs6183">
    <clipPath
       id="p8eacf098bd">
      <rect
         x="172.8"
         y="95.990402"
         width="486.98181"
         height="615.93842"
         id="rect6177" />
    </clipPath>
    <clipPath
       id="pa74707a125">
      <rect
         x="757.17816"
         y="95.990402"
         width="486.98181"
         height="615.93842"
         id="rect6180" />
    </clipPath>
  </defs>
</svg>
