<?xml version="1.0" encoding="utf-8" standalone="no"?>
<!DOCTYPE svg PUBLIC "-//W3C//DTD SVG 1.1//EN"
  "http://www.w3.org/Graphics/SVG/1.1/DTD/svg11.dtd">
<svg xmlns:xlink="http://www.w3.org/1999/xlink" width="1382.4pt" height="799.92pt" viewBox="0 0 1382.4 799.92" xmlns="http://www.w3.org/2000/svg" version="1.1">
 <metadata>
  <rdf:RDF xmlns:dc="http://purl.org/dc/elements/1.1/" xmlns:cc="http://creativecommons.org/ns#" xmlns:rdf="http://www.w3.org/1999/02/22-rdf-syntax-ns#">
   <cc:Work>
    <dc:type rdf:resource="http://purl.org/dc/dcmitype/StillImage"/>
    <dc:date>2024-07-30T14:17:47.036812</dc:date>
    <dc:format>image/svg+xml</dc:format>
    <dc:creator>
     <cc:Agent>
      <dc:title>Matplotlib v3.9.0, https://matplotlib.org/</dc:title>
     </cc:Agent>
    </dc:creator>
   </cc:Work>
  </rdf:RDF>
 </metadata>
 <defs>
  <style type="text/css">*{stroke-linejoin: round; stroke-linecap: butt}</style>
 </defs>
 <g id="figure_1">
  <g id="patch_1">
   <path d="M 0 799.92 
L 1382.4 799.92 
L 1382.4 0 
L 0 0 
z
" style="fill: #ffffff"/>
  </g>
  <g id="axes_1">
   <g id="patch_2">
    <path d="M 13.824 791.9208 
L 1368.576 791.9208 
L 1368.576 7.9992 
L 13.824 7.9992 
z
" style="fill: #ffffff"/>
   </g>
   <g id="matplotlib.axis_1">
    <g id="xtick_1">
     <g id="line2d_1">
      <defs>
       <path id="mbded83d509" d="M 0 0 
L 0 3.5 
" style="stroke: #000000; stroke-width: 0.8"/>
      </defs>
      <g>
       <use xlink:href="#mbded83d509" x="75.403636" y="791.9208" style="stroke: #000000; stroke-width: 0.8"/>
      </g>
     </g>
     <g id="text_1">
      <!-- 0.0 -->
      <g transform="translate(67.452074 806.519237) scale(0.1 -0.1)">
       <defs>
        <path id="DejaVuSans-30" d="M 2034 4250 
Q 1547 4250 1301 3770 
Q 1056 3291 1056 2328 
Q 1056 1369 1301 889 
Q 1547 409 2034 409 
Q 2525 409 2770 889 
Q 3016 1369 3016 2328 
Q 3016 3291 2770 3770 
Q 2525 4250 2034 4250 
z
M 2034 4750 
Q 2819 4750 3233 4129 
Q 3647 3509 3647 2328 
Q 3647 1150 3233 529 
Q 2819 -91 2034 -91 
Q 1250 -91 836 529 
Q 422 1150 422 2328 
Q 422 3509 836 4129 
Q 1250 4750 2034 4750 
z
" transform="scale(0.015625)"/>
        <path id="DejaVuSans-2e" d="M 684 794 
L 1344 794 
L 1344 0 
L 684 0 
L 684 794 
z
" transform="scale(0.015625)"/>
       </defs>
       <use xlink:href="#DejaVuSans-30"/>
       <use xlink:href="#DejaVuSans-2e" x="63.623047"/>
       <use xlink:href="#DejaVuSans-30" x="95.410156"/>
      </g>
     </g>
    </g>
    <g id="xtick_2">
     <g id="line2d_2">
      <g>
       <use xlink:href="#mbded83d509" x="321.722182" y="791.9208" style="stroke: #000000; stroke-width: 0.8"/>
      </g>
     </g>
     <g id="text_2">
      <!-- 0.2 -->
      <g transform="translate(313.770619 806.519237) scale(0.1 -0.1)">
       <defs>
        <path id="DejaVuSans-32" d="M 1228 531 
L 3431 531 
L 3431 0 
L 469 0 
L 469 531 
Q 828 903 1448 1529 
Q 2069 2156 2228 2338 
Q 2531 2678 2651 2914 
Q 2772 3150 2772 3378 
Q 2772 3750 2511 3984 
Q 2250 4219 1831 4219 
Q 1534 4219 1204 4116 
Q 875 4013 500 3803 
L 500 4441 
Q 881 4594 1212 4672 
Q 1544 4750 1819 4750 
Q 2544 4750 2975 4387 
Q 3406 4025 3406 3419 
Q 3406 3131 3298 2873 
Q 3191 2616 2906 2266 
Q 2828 2175 2409 1742 
Q 1991 1309 1228 531 
z
" transform="scale(0.015625)"/>
       </defs>
       <use xlink:href="#DejaVuSans-30"/>
       <use xlink:href="#DejaVuSans-2e" x="63.623047"/>
       <use xlink:href="#DejaVuSans-32" x="95.410156"/>
      </g>
     </g>
    </g>
    <g id="xtick_3">
     <g id="line2d_3">
      <g>
       <use xlink:href="#mbded83d509" x="568.040727" y="791.9208" style="stroke: #000000; stroke-width: 0.8"/>
      </g>
     </g>
     <g id="text_3">
      <!-- 0.4 -->
      <g transform="translate(560.089165 806.519237) scale(0.1 -0.1)">
       <defs>
        <path id="DejaVuSans-34" d="M 2419 4116 
L 825 1625 
L 2419 1625 
L 2419 4116 
z
M 2253 4666 
L 3047 4666 
L 3047 1625 
L 3713 1625 
L 3713 1100 
L 3047 1100 
L 3047 0 
L 2419 0 
L 2419 1100 
L 313 1100 
L 313 1709 
L 2253 4666 
z
" transform="scale(0.015625)"/>
       </defs>
       <use xlink:href="#DejaVuSans-30"/>
       <use xlink:href="#DejaVuSans-2e" x="63.623047"/>
       <use xlink:href="#DejaVuSans-34" x="95.410156"/>
      </g>
     </g>
    </g>
    <g id="xtick_4">
     <g id="line2d_4">
      <g>
       <use xlink:href="#mbded83d509" x="814.359273" y="791.9208" style="stroke: #000000; stroke-width: 0.8"/>
      </g>
     </g>
     <g id="text_4">
      <!-- 0.6 -->
      <g transform="translate(806.40771 806.519237) scale(0.1 -0.1)">
       <defs>
        <path id="DejaVuSans-36" d="M 2113 2584 
Q 1688 2584 1439 2293 
Q 1191 2003 1191 1497 
Q 1191 994 1439 701 
Q 1688 409 2113 409 
Q 2538 409 2786 701 
Q 3034 994 3034 1497 
Q 3034 2003 2786 2293 
Q 2538 2584 2113 2584 
z
M 3366 4563 
L 3366 3988 
Q 3128 4100 2886 4159 
Q 2644 4219 2406 4219 
Q 1781 4219 1451 3797 
Q 1122 3375 1075 2522 
Q 1259 2794 1537 2939 
Q 1816 3084 2150 3084 
Q 2853 3084 3261 2657 
Q 3669 2231 3669 1497 
Q 3669 778 3244 343 
Q 2819 -91 2113 -91 
Q 1303 -91 875 529 
Q 447 1150 447 2328 
Q 447 3434 972 4092 
Q 1497 4750 2381 4750 
Q 2619 4750 2861 4703 
Q 3103 4656 3366 4563 
z
" transform="scale(0.015625)"/>
       </defs>
       <use xlink:href="#DejaVuSans-30"/>
       <use xlink:href="#DejaVuSans-2e" x="63.623047"/>
       <use xlink:href="#DejaVuSans-36" x="95.410156"/>
      </g>
     </g>
    </g>
    <g id="xtick_5">
     <g id="line2d_5">
      <g>
       <use xlink:href="#mbded83d509" x="1060.677818" y="791.9208" style="stroke: #000000; stroke-width: 0.8"/>
      </g>
     </g>
     <g id="text_5">
      <!-- 0.8 -->
      <g transform="translate(1052.726256 806.519237) scale(0.1 -0.1)">
       <defs>
        <path id="DejaVuSans-38" d="M 2034 2216 
Q 1584 2216 1326 1975 
Q 1069 1734 1069 1313 
Q 1069 891 1326 650 
Q 1584 409 2034 409 
Q 2484 409 2743 651 
Q 3003 894 3003 1313 
Q 3003 1734 2745 1975 
Q 2488 2216 2034 2216 
z
M 1403 2484 
Q 997 2584 770 2862 
Q 544 3141 544 3541 
Q 544 4100 942 4425 
Q 1341 4750 2034 4750 
Q 2731 4750 3128 4425 
Q 3525 4100 3525 3541 
Q 3525 3141 3298 2862 
Q 3072 2584 2669 2484 
Q 3125 2378 3379 2068 
Q 3634 1759 3634 1313 
Q 3634 634 3220 271 
Q 2806 -91 2034 -91 
Q 1263 -91 848 271 
Q 434 634 434 1313 
Q 434 1759 690 2068 
Q 947 2378 1403 2484 
z
M 1172 3481 
Q 1172 3119 1398 2916 
Q 1625 2713 2034 2713 
Q 2441 2713 2670 2916 
Q 2900 3119 2900 3481 
Q 2900 3844 2670 4047 
Q 2441 4250 2034 4250 
Q 1625 4250 1398 4047 
Q 1172 3844 1172 3481 
z
" transform="scale(0.015625)"/>
       </defs>
       <use xlink:href="#DejaVuSans-30"/>
       <use xlink:href="#DejaVuSans-2e" x="63.623047"/>
       <use xlink:href="#DejaVuSans-38" x="95.410156"/>
      </g>
     </g>
    </g>
    <g id="xtick_6">
     <g id="line2d_6">
      <g>
       <use xlink:href="#mbded83d509" x="1306.996364" y="791.9208" style="stroke: #000000; stroke-width: 0.8"/>
      </g>
     </g>
     <g id="text_6">
      <!-- 1.0 -->
      <g transform="translate(1299.044801 806.519237) scale(0.1 -0.1)">
       <defs>
        <path id="DejaVuSans-31" d="M 794 531 
L 1825 531 
L 1825 4091 
L 703 3866 
L 703 4441 
L 1819 4666 
L 2450 4666 
L 2450 531 
L 3481 531 
L 3481 0 
L 794 0 
L 794 531 
z
" transform="scale(0.015625)"/>
       </defs>
       <use xlink:href="#DejaVuSans-31"/>
       <use xlink:href="#DejaVuSans-2e" x="63.623047"/>
       <use xlink:href="#DejaVuSans-30" x="95.410156"/>
      </g>
     </g>
    </g>
   </g>
   <g id="matplotlib.axis_2">
    <g id="ytick_1">
     <g id="line2d_7">
      <defs>
       <path id="m00beb4784b" d="M 0 0 
L -3.5 0 
" style="stroke: #000000; stroke-width: 0.8"/>
      </defs>
      <g>
       <use xlink:href="#m00beb4784b" x="13.824" y="791.9208" style="stroke: #000000; stroke-width: 0.8"/>
      </g>
     </g>
     <g id="text_7">
      <!-- 0.0 -->
      <g transform="translate(-9.079125 795.720019) scale(0.1 -0.1)">
       <use xlink:href="#DejaVuSans-30"/>
       <use xlink:href="#DejaVuSans-2e" x="63.623047"/>
       <use xlink:href="#DejaVuSans-30" x="95.410156"/>
      </g>
     </g>
    </g>
    <g id="ytick_2">
     <g id="line2d_8">
      <g>
       <use xlink:href="#m00beb4784b" x="13.824" y="635.13648" style="stroke: #000000; stroke-width: 0.8"/>
      </g>
     </g>
     <g id="text_8">
      <!-- 0.2 -->
      <g transform="translate(-9.079125 638.935699) scale(0.1 -0.1)">
       <use xlink:href="#DejaVuSans-30"/>
       <use xlink:href="#DejaVuSans-2e" x="63.623047"/>
       <use xlink:href="#DejaVuSans-32" x="95.410156"/>
      </g>
     </g>
    </g>
    <g id="ytick_3">
     <g id="line2d_9">
      <g>
       <use xlink:href="#m00beb4784b" x="13.824" y="478.35216" style="stroke: #000000; stroke-width: 0.8"/>
      </g>
     </g>
     <g id="text_9">
      <!-- 0.4 -->
      <g transform="translate(-9.079125 482.151379) scale(0.1 -0.1)">
       <use xlink:href="#DejaVuSans-30"/>
       <use xlink:href="#DejaVuSans-2e" x="63.623047"/>
       <use xlink:href="#DejaVuSans-34" x="95.410156"/>
      </g>
     </g>
    </g>
    <g id="ytick_4">
     <g id="line2d_10">
      <g>
       <use xlink:href="#m00beb4784b" x="13.824" y="321.56784" style="stroke: #000000; stroke-width: 0.8"/>
      </g>
     </g>
     <g id="text_10">
      <!-- 0.6 -->
      <g transform="translate(-9.079125 325.367059) scale(0.1 -0.1)">
       <use xlink:href="#DejaVuSans-30"/>
       <use xlink:href="#DejaVuSans-2e" x="63.623047"/>
       <use xlink:href="#DejaVuSans-36" x="95.410156"/>
      </g>
     </g>
    </g>
    <g id="ytick_5">
     <g id="line2d_11">
      <g>
       <use xlink:href="#m00beb4784b" x="13.824" y="164.78352" style="stroke: #000000; stroke-width: 0.8"/>
      </g>
     </g>
     <g id="text_11">
      <!-- 0.8 -->
      <g transform="translate(-9.079125 168.582739) scale(0.1 -0.1)">
       <use xlink:href="#DejaVuSans-30"/>
       <use xlink:href="#DejaVuSans-2e" x="63.623047"/>
       <use xlink:href="#DejaVuSans-38" x="95.410156"/>
      </g>
     </g>
    </g>
    <g id="ytick_6">
     <g id="line2d_12">
      <g>
       <use xlink:href="#m00beb4784b" x="13.824" y="7.9992" style="stroke: #000000; stroke-width: 0.8"/>
      </g>
     </g>
     <g id="text_12">
      <!-- 1.0 -->
      <g transform="translate(-9.079125 11.798419) scale(0.1 -0.1)">
       <use xlink:href="#DejaVuSans-31"/>
       <use xlink:href="#DejaVuSans-2e" x="63.623047"/>
       <use xlink:href="#DejaVuSans-30" x="95.410156"/>
      </g>
     </g>
    </g>
   </g>
   <g id="line2d_13">
    <path d="M 75.403636 504.485546 
L 143.825455 458.975588 
L 212.247273 407.320032 
L 280.669091 339.868318 
L 349.090909 299.896169 
L 485.934545 219.162175 
L 691.2 136.176418 
L 896.465455 88.671459 
L 1101.730909 43.548171 
L 1306.996364 7.9992 
" clip-path="url(#p363f539ceb)" style="fill: none; stroke: #0000ff; stroke-width: 1.5; stroke-linecap: square"/>
   </g>
   <g id="line2d_14">
    <path d="M 75.403636 512.347665 
L 87.843967 500.737734 
L 100.284298 489.344366 
L 112.724628 478.163913 
L 125.164959 467.192788 
L 137.605289 456.427462 
L 150.04562 445.864469 
L 162.48595 435.500398 
L 174.926281 425.331894 
L 187.366612 415.355662 
L 199.806942 405.568459 
L 212.247273 395.967096 
L 224.687603 386.548439 
L 237.127934 377.309406 
L 249.568264 368.246966 
L 262.008595 359.358139 
L 274.448926 350.639993 
L 286.889256 342.089649 
L 299.329587 333.704273 
L 311.769917 325.481079 
L 324.210248 317.417327 
L 336.650579 309.510325 
L 349.090909 301.757423 
L 361.53124 294.156017 
L 373.97157 286.703548 
L 386.411901 279.397496 
L 398.852231 272.235387 
L 411.292562 265.214785 
L 423.732893 258.333298 
L 436.173223 251.588571 
L 448.613554 244.97829 
L 461.053884 238.50018 
L 473.494215 232.152003 
L 485.934545 225.931558 
L 498.374876 219.836683 
L 510.815207 213.86525 
L 523.255537 208.015167 
L 535.695868 202.284378 
L 548.136198 196.670861 
L 560.576529 191.172627 
L 573.01686 185.787721 
L 585.45719 180.51422 
L 597.897521 175.350234 
L 610.337851 170.293904 
L 622.778182 165.343402 
L 635.218512 160.496932 
L 647.658843 155.752726 
L 660.099174 151.109047 
L 672.539504 146.564186 
L 684.979835 142.116463 
L 697.420165 137.764228 
L 709.860496 133.505854 
L 722.300826 129.339746 
L 734.741157 125.264333 
L 747.181488 121.278071 
L 759.621818 117.379442 
L 772.062149 113.566953 
L 784.502479 109.839137 
L 796.94281 106.194549 
L 809.38314 102.631771 
L 821.823471 99.149408 
L 834.263802 95.746087 
L 846.704132 92.420459 
L 859.144463 89.171198 
L 871.584793 85.996999 
L 884.025124 82.89658 
L 896.465455 79.86868 
L 908.905785 76.912059 
L 921.346116 74.025498 
L 933.786446 71.207797 
L 946.226777 68.457779 
L 958.667107 65.774283 
L 971.107438 63.156171 
L 983.547769 60.602322 
L 995.988099 58.111634 
L 1008.42843 55.683024 
L 1020.86876 53.315427 
L 1033.309091 51.007794 
L 1045.749421 48.759097 
L 1058.189752 46.568322 
L 1070.630083 44.434474 
L 1083.070413 42.356574 
L 1095.510744 40.333659 
L 1107.951074 38.364783 
L 1120.391405 36.449016 
L 1132.831736 34.585441 
L 1145.272066 32.773159 
L 1157.712397 31.011286 
L 1170.152727 29.298952 
L 1182.593058 27.635301 
L 1195.033388 26.019493 
L 1207.473719 24.4507 
L 1219.91405 22.928109 
L 1232.35438 21.450921 
L 1244.794711 20.01835 
L 1257.235041 18.629624 
L 1269.675372 17.283981 
L 1282.115702 15.980675 
L 1294.556033 14.718971 
L 1306.996364 13.498147 
" clip-path="url(#p363f539ceb)" style="fill: none; stroke-dasharray: 5.55,2.4; stroke-dashoffset: 0; stroke: #0000ff; stroke-width: 1.5"/>
   </g>
   <g id="line2d_15">
    <path d="M 75.403636 7.9992 
L 143.825455 135.169254 
L 212.247273 293.51344 
L 280.669091 440.804065 
L 349.090909 562.818367 
L 485.934545 685.605646 
L 691.2 756.418001 
L 896.465455 785.675152 
L 1101.730909 786.04618 
L 1306.996364 791.9208 
" clip-path="url(#p363f539ceb)" style="fill: none; stroke: #008000; stroke-width: 1.5; stroke-linecap: square"/>
   </g>
   <g id="line2d_16">
    <path d="M 75.403636 8.535158 
L 87.843967 21.839134 
L 100.284298 40.580892 
L 112.724628 63.454197 
L 125.164959 89.375234 
L 137.605289 117.448764 
L 150.04562 146.939172 
L 162.48595 177.245731 
L 174.926281 207.881473 
L 187.366612 238.455164 
L 199.806942 268.655939 
L 212.247273 298.240217 
L 224.687603 327.020569 
L 237.127934 354.856259 
L 249.568264 381.645223 
L 262.008595 407.317266 
L 274.448926 431.828316 
L 286.889256 455.155561 
L 299.329587 477.293367 
L 311.769917 498.249832 
L 324.210248 518.043904 
L 336.650579 536.70297 
L 349.090909 554.260847 
L 361.53124 570.756113 
L 373.97157 586.230732 
L 386.411901 600.728914 
L 398.852231 614.296198 
L 411.292562 626.97869 
L 423.732893 638.822467 
L 436.173223 649.873092 
L 448.613554 660.175237 
L 461.053884 669.772393 
L 473.494215 678.706648 
L 485.934545 687.018531 
L 498.374876 694.746897 
L 510.815207 701.928859 
L 523.255537 708.599752 
L 535.695868 714.793117 
L 548.136198 720.540716 
L 560.576529 725.872554 
L 573.01686 730.816923 
L 585.45719 735.400452 
L 597.897521 739.648161 
L 610.337851 743.583525 
L 622.778182 747.228543 
L 635.218512 750.603802 
L 647.658843 753.728552 
L 660.099174 756.620767 
L 672.539504 759.297223 
L 684.979835 761.77356 
L 697.420165 764.064348 
L 709.860496 766.183153 
L 722.300826 768.142596 
L 734.741157 769.954414 
L 747.181488 771.629512 
L 759.621818 773.178023 
L 772.062149 774.609353 
L 784.502479 775.932232 
L 796.94281 777.154758 
L 809.38314 778.284443 
L 821.823471 779.328248 
L 834.263802 780.292627 
L 846.704132 781.183558 
L 859.144463 782.006579 
L 871.584793 782.766817 
L 884.025124 783.469021 
L 896.465455 784.117583 
L 908.905785 784.716571 
L 921.346116 785.269748 
L 933.786446 785.780593 
L 946.226777 786.252327 
L 958.667107 786.687926 
L 971.107438 787.090144 
L 983.547769 787.461526 
L 995.988099 787.804425 
L 1008.42843 788.121016 
L 1020.86876 788.41331 
L 1033.309091 788.683163 
L 1045.749421 788.932293 
L 1058.189752 789.162286 
L 1070.630083 789.374607 
L 1083.070413 789.570611 
L 1095.510744 789.751547 
L 1107.951074 789.918572 
L 1120.391405 790.072752 
L 1132.831736 790.215073 
L 1145.272066 790.346446 
L 1157.712397 790.467711 
L 1170.152727 790.579643 
L 1182.593058 790.682962 
L 1195.033388 790.778327 
L 1207.473719 790.866351 
L 1219.91405 790.947597 
L 1232.35438 791.022588 
L 1244.794711 791.091804 
L 1257.235041 791.155689 
L 1269.675372 791.214654 
L 1282.115702 791.269076 
L 1294.556033 791.319307 
L 1306.996364 791.365668 
" clip-path="url(#p363f539ceb)" style="fill: none; stroke-dasharray: 5.55,2.4; stroke-dashoffset: 0; stroke: #008000; stroke-width: 1.5"/>
   </g>
   <g id="line2d_17">
    <path d="M 75.403636 398.914174 
L 143.825455 492.582869 
L 212.247273 375.898522 
L 280.669091 392.459931 
L 349.090909 151.987087 
L 485.934545 168.660548 
L 691.2 145.234036 
L 896.465455 7.9992 
L 1101.730909 65.459891 
L 1306.996364 91.575671 
" clip-path="url(#p363f539ceb)" style="fill: none; stroke: #ff0000; stroke-width: 1.5; stroke-linecap: square"/>
   </g>
   <g id="line2d_18">
    <path d="M 75.403636 483.398315 
L 87.843967 469.750628 
L 100.284298 456.452617 
L 112.724628 443.496637 
L 125.164959 430.875209 
L 137.605289 418.581014 
L 150.04562 406.606889 
L 162.48595 394.945827 
L 174.926281 383.590969 
L 187.366612 372.535604 
L 199.806942 361.773165 
L 212.247273 351.297226 
L 224.687603 341.101499 
L 237.127934 331.17983 
L 249.568264 321.526199 
L 262.008595 312.134713 
L 274.448926 302.999607 
L 286.889256 294.11524 
L 299.329587 285.476089 
L 311.769917 277.076755 
L 324.210248 268.91195 
L 336.650579 260.976501 
L 349.090909 253.265348 
L 361.53124 245.773537 
L 373.97157 238.496222 
L 386.411901 231.428661 
L 398.852231 224.566213 
L 411.292562 217.904337 
L 423.732893 211.43859 
L 436.173223 205.164624 
L 448.613554 199.078185 
L 461.053884 193.17511 
L 473.494215 187.451326 
L 485.934545 181.902846 
L 498.374876 176.525771 
L 510.815207 171.316283 
L 523.255537 166.270649 
L 535.695868 161.385214 
L 548.136198 156.656404 
L 560.576529 152.080719 
L 573.01686 147.654736 
L 585.45719 143.375106 
L 597.897521 139.238551 
L 610.337851 135.241863 
L 622.778182 131.381905 
L 635.218512 127.655606 
L 647.658843 124.059962 
L 660.099174 120.592033 
L 672.539504 117.248942 
L 684.979835 114.027875 
L 697.420165 110.926078 
L 709.860496 107.940856 
L 722.300826 105.069573 
L 734.741157 102.309648 
L 747.181488 99.658558 
L 759.621818 97.113832 
L 772.062149 94.673055 
L 784.502479 92.333861 
L 796.94281 90.093937 
L 809.38314 87.95102 
L 821.823471 85.902894 
L 834.263802 83.947393 
L 846.704132 82.082396 
L 859.144463 80.305828 
L 871.584793 78.61566 
L 884.025124 77.009906 
L 896.465455 75.486623 
L 908.905785 74.043908 
L 921.346116 72.679903 
L 933.786446 71.392788 
L 946.226777 70.180781 
L 958.667107 69.04214 
L 971.107438 67.975162 
L 983.547769 66.978177 
L 995.988099 66.049556 
L 1008.42843 65.1877 
L 1020.86876 64.391049 
L 1033.309091 63.658075 
L 1045.749421 62.987282 
L 1058.189752 62.377207 
L 1070.630083 61.826421 
L 1083.070413 61.333522 
L 1095.510744 60.897142 
L 1107.951074 60.515939 
L 1120.391405 60.188604 
L 1132.831736 59.913854 
L 1145.272066 59.690433 
L 1157.712397 59.517115 
L 1170.152727 59.392698 
L 1182.593058 59.316008 
L 1195.033388 59.285895 
L 1207.473719 59.301235 
L 1219.91405 59.360928 
L 1232.35438 59.463897 
L 1244.794711 59.60909 
L 1257.235041 59.795477 
L 1269.675372 60.022051 
L 1282.115702 60.287826 
L 1294.556033 60.591838 
L 1306.996364 60.933143 
" clip-path="url(#p363f539ceb)" style="fill: none; stroke-dasharray: 5.55,2.4; stroke-dashoffset: 0; stroke: #ff0000; stroke-width: 1.5"/>
   </g>
   <g id="line2d_19">
    <path d="M 75.403636 653.537815 
L 143.825455 621.807611 
L 212.247273 581.553555 
L 280.669091 485.989969 
L 349.090909 453.8595 
L 485.934545 437.95801 
L 691.2 290.48716 
L 896.465455 50.836794 
L 1101.730909 33.588954 
L 1306.996364 7.9992 
" clip-path="url(#p363f539ceb)" style="fill: none; stroke: #00bfbf; stroke-width: 1.5; stroke-linecap: square"/>
   </g>
   <g id="line2d_20">
    <path d="M 75.403636 685.222806 
L 87.843967 671.630541 
L 100.284298 658.273949 
L 112.724628 645.148945 
L 125.164959 632.251513 
L 137.605289 619.577707 
L 150.04562 607.123649 
L 162.48595 594.885531 
L 174.926281 582.859606 
L 187.366612 571.042197 
L 199.806942 559.429687 
L 212.247273 548.018524 
L 224.687603 536.805218 
L 237.127934 525.786337 
L 249.568264 514.95851 
L 262.008595 504.318424 
L 274.448926 493.862825 
L 286.889256 483.588514 
L 299.329587 473.492347 
L 311.769917 463.571235 
L 324.210248 453.822144 
L 336.650579 444.24209 
L 349.090909 434.828143 
L 361.53124 425.577422 
L 373.97157 416.487098 
L 386.411901 407.55439 
L 398.852231 398.776564 
L 411.292562 390.150934 
L 423.732893 381.674864 
L 436.173223 373.345757 
L 448.613554 365.161068 
L 461.053884 357.118292 
L 473.494215 349.214967 
L 485.934545 341.448677 
L 498.374876 333.817045 
L 510.815207 326.317737 
L 523.255537 318.948457 
L 535.695868 311.706952 
L 548.136198 304.591006 
L 560.576529 297.598442 
L 573.01686 290.727121 
L 585.45719 283.97494 
L 597.897521 277.339835 
L 610.337851 270.819773 
L 622.778182 264.412762 
L 635.218512 258.116841 
L 647.658843 251.930084 
L 660.099174 245.850598 
L 672.539504 239.876522 
L 684.979835 234.00603 
L 697.420165 228.237326 
L 709.860496 222.568643 
L 722.300826 216.998249 
L 734.741157 211.524439 
L 747.181488 206.145539 
L 759.621818 200.859902 
L 772.062149 195.665911 
L 784.502479 190.561979 
L 796.94281 185.546542 
L 809.38314 180.618067 
L 821.823471 175.775046 
L 834.263802 171.015997 
L 846.704132 166.339464 
L 859.144463 161.744017 
L 871.584793 157.22825 
L 884.025124 152.79078 
L 896.465455 148.430251 
L 908.905785 144.145328 
L 921.346116 139.934701 
L 933.786446 135.797081 
L 946.226777 131.731202 
L 958.667107 127.735821 
L 971.107438 123.809715 
L 983.547769 119.951683 
L 995.988099 116.160545 
L 1008.42843 112.43514 
L 1020.86876 108.77433 
L 1033.309091 105.176993 
L 1045.749421 101.64203 
L 1058.189752 98.16836 
L 1070.630083 94.754918 
L 1083.070413 91.400661 
L 1095.510744 88.104564 
L 1107.951074 84.865616 
L 1120.391405 81.682829 
L 1132.831736 78.555226 
L 1145.272066 75.481853 
L 1157.712397 72.461769 
L 1170.152727 69.494049 
L 1182.593058 66.577786 
L 1195.033388 63.712087 
L 1207.473719 60.896076 
L 1219.91405 58.128891 
L 1232.35438 55.409686 
L 1244.794711 52.737629 
L 1257.235041 50.111902 
L 1269.675372 47.531703 
L 1282.115702 44.99624 
L 1294.556033 42.50474 
L 1306.996364 40.056439 
" clip-path="url(#p363f539ceb)" style="fill: none; stroke-dasharray: 5.55,2.4; stroke-dashoffset: 0; stroke: #00bfbf; stroke-width: 1.5"/>
   </g>
   <g id="line2d_21">
    <path d="M 75.403636 530.657762 
L 143.825455 324.111577 
L 212.247273 112.928371 
L 280.669091 197.366324 
L 349.090909 171.31068 
L 485.934545 7.9992 
L 691.2 218.475812 
L 896.465455 296.73107 
L 1101.730909 608.471398 
L 1306.996364 651.661941 
" clip-path="url(#p363f539ceb)" style="fill: none; stroke: #bf00bf; stroke-width: 1.5; stroke-linecap: square"/>
   </g>
   <g id="line2d_22">
    <path d="M 75.403636 508.884336 
L 87.843967 455.841357 
L 100.284298 408.569715 
L 112.724628 366.548146 
L 125.164959 329.301223 
L 137.605289 296.395334 
L 150.04562 267.43503 
L 162.48595 242.059677 
L 174.926281 219.940411 
L 187.366612 200.777353 
L 199.806942 184.297076 
L 212.247273 170.250282 
L 224.687603 158.409692 
L 237.127934 148.568117 
L 249.568264 140.536694 
L 262.008595 134.143285 
L 274.448926 129.231011 
L 286.889256 125.656908 
L 299.329587 123.290715 
L 311.769917 122.013756 
L 324.210248 121.717924 
L 336.650579 122.304754 
L 349.090909 123.684579 
L 361.53124 125.775754 
L 373.97157 128.503957 
L 386.411901 131.801539 
L 398.852231 135.606943 
L 411.292562 139.864169 
L 423.732893 144.52228 
L 436.173223 149.534965 
L 448.613554 154.860122 
L 461.053884 160.459497 
L 473.494215 166.298339 
L 485.934545 172.345093 
L 498.374876 178.571119 
L 510.815207 184.950434 
L 523.255537 191.459477 
L 535.695868 198.076897 
L 548.136198 204.783353 
L 560.576529 211.561343 
L 573.01686 218.395035 
L 585.45719 225.27012 
L 597.897521 232.173681 
L 610.337851 239.094063 
L 622.778182 246.020765 
L 635.218512 252.944336 
L 647.658843 259.856281 
L 660.099174 266.748975 
L 672.539504 273.615587 
L 684.979835 280.450006 
L 697.420165 287.246778 
L 709.860496 294.001047 
L 722.300826 300.708499 
L 734.741157 307.365316 
L 747.181488 313.968127 
L 759.621818 320.513971 
L 772.062149 327.000256 
L 784.502479 333.42473 
L 796.94281 339.785443 
L 809.38314 346.080725 
L 821.823471 352.309156 
L 834.263802 358.469545 
L 846.704132 364.560907 
L 859.144463 370.582446 
L 871.584793 376.533531 
L 884.025124 382.413689 
L 896.465455 388.222581 
L 908.905785 393.959996 
L 921.346116 399.625832 
L 933.786446 405.220091 
L 946.226777 410.742864 
L 958.667107 416.194326 
L 971.107438 421.574723 
L 983.547769 426.884368 
L 995.988099 432.123631 
L 1008.42843 437.292936 
L 1020.86876 442.392752 
L 1033.309091 447.423591 
L 1045.749421 452.385999 
L 1058.189752 457.280555 
L 1070.630083 462.107866 
L 1083.070413 466.868563 
L 1095.510744 471.5633 
L 1107.951074 476.192747 
L 1120.391405 480.75759 
L 1132.831736 485.258529 
L 1145.272066 489.696274 
L 1157.712397 494.071544 
L 1170.152727 498.385065 
L 1182.593058 502.637569 
L 1195.033388 506.82979 
L 1207.473719 510.962469 
L 1219.91405 515.036343 
L 1232.35438 519.052153 
L 1244.794711 523.010638 
L 1257.235041 526.912536 
L 1269.675372 530.758583 
L 1282.115702 534.549509 
L 1294.556033 538.286045 
L 1306.996364 541.968915 
" clip-path="url(#p363f539ceb)" style="fill: none; stroke-dasharray: 5.55,2.4; stroke-dashoffset: 0; stroke: #bf00bf; stroke-width: 1.5"/>
   </g>
   <g id="line2d_23">
    <path d="M 75.403636 202.444649 
L 143.825455 147.42504 
L 212.247273 52.079131 
L 280.669091 69.608314 
L 349.090909 7.9992 
L 485.934545 230.390389 
L 691.2 195.231069 
L 896.465455 244.367848 
L 1101.730909 293.825842 
L 1306.996364 392.081045 
" clip-path="url(#p363f539ceb)" style="fill: none; stroke: #bfbf00; stroke-width: 1.5; stroke-linecap: square"/>
   </g>
   <g id="line2d_24">
    <path d="M 75.403636 175.944086 
L 87.843967 166.183098 
L 100.284298 157.132878 
L 112.724628 148.764491 
L 125.164959 141.050051 
L 137.605289 133.962681 
L 150.04562 127.476479 
L 162.48595 121.566484 
L 174.926281 116.208646 
L 187.366612 111.379786 
L 199.806942 107.057576 
L 212.247273 103.2205 
L 224.687603 99.847833 
L 237.127934 96.919606 
L 249.568264 94.416588 
L 262.008595 92.320251 
L 274.448926 90.612754 
L 286.889256 89.276912 
L 299.329587 88.296175 
L 311.769917 87.65461 
L 324.210248 87.336872 
L 336.650579 87.32819 
L 349.090909 87.61434 
L 361.53124 88.181633 
L 373.97157 89.016891 
L 386.411901 90.107432 
L 398.852231 91.441048 
L 411.292562 93.005994 
L 423.732893 94.790969 
L 436.173223 96.785099 
L 448.613554 98.977923 
L 461.053884 101.35938 
L 473.494215 103.919791 
L 485.934545 106.649851 
L 498.374876 109.540608 
L 510.815207 112.58346 
L 523.255537 115.770132 
L 535.695868 119.092675 
L 548.136198 122.543445 
L 560.576529 126.115099 
L 573.01686 129.800579 
L 585.45719 133.593106 
L 597.897521 137.486169 
L 610.337851 141.473513 
L 622.778182 145.549133 
L 635.218512 149.707261 
L 647.658843 153.942362 
L 660.099174 158.249124 
L 672.539504 162.622449 
L 684.979835 167.057445 
L 697.420165 171.54942 
L 709.860496 176.093875 
L 722.300826 180.686495 
L 734.741157 185.323144 
L 747.181488 189.999857 
L 759.621818 194.712837 
L 772.062149 199.458444 
L 784.502479 204.233194 
L 796.94281 209.03375 
L 809.38314 213.856918 
L 821.823471 218.699642 
L 834.263802 223.558998 
L 846.704132 228.43219 
L 859.144463 233.316544 
L 871.584793 238.209507 
L 884.025124 243.108636 
L 896.465455 248.011601 
L 908.905785 252.916176 
L 921.346116 257.820238 
L 933.786446 262.721762 
L 946.226777 267.618815 
L 958.667107 272.509557 
L 971.107438 277.392235 
L 983.547769 282.265179 
L 995.988099 287.126802 
L 1008.42843 291.975593 
L 1020.86876 296.810117 
L 1033.309091 301.629009 
L 1045.749421 306.430976 
L 1058.189752 311.21479 
L 1070.630083 315.979288 
L 1083.070413 320.723367 
L 1095.510744 325.445985 
L 1107.951074 330.146157 
L 1120.391405 334.822951 
L 1132.831736 339.47549 
L 1145.272066 344.102945 
L 1157.712397 348.704538 
L 1170.152727 353.279535 
L 1182.593058 357.827249 
L 1195.033388 362.347037 
L 1207.473719 366.838293 
L 1219.91405 371.300455 
L 1232.35438 375.732998 
L 1244.794711 380.135432 
L 1257.235041 384.507304 
L 1269.675372 388.848193 
L 1282.115702 393.157712 
L 1294.556033 397.435503 
L 1306.996364 401.68124 
" clip-path="url(#p363f539ceb)" style="fill: none; stroke-dasharray: 5.55,2.4; stroke-dashoffset: 0; stroke: #bfbf00; stroke-width: 1.5"/>
   </g>
   <g id="line2d_25">
    <path d="M 75.403636 530.531091 
L 143.825455 7.9992 
L 212.247273 500.827715 
L 280.669091 400.57882 
L 349.090909 330.033302 
L 485.934545 522.115134 
L 691.2 529.540978 
L 896.465455 691.919434 
L 1101.730909 716.672247 
L 1306.996364 613.205487 
" clip-path="url(#p363f539ceb)" style="fill: none; stroke: #000000; stroke-width: 1.5; stroke-linecap: square"/>
   </g>
   <g id="line2d_26">
    <path d="M 75.403636 443.033589 
L 87.843967 410.048261 
L 100.284298 382.369522 
L 112.724628 359.429183 
L 125.164959 340.714203 
L 137.605289 325.761513 
L 150.04562 314.153307 
L 162.48595 305.512784 
L 174.926281 299.500276 
L 187.366612 295.809738 
L 199.806942 294.165571 
L 212.247273 294.319736 
L 224.687603 296.049132 
L 237.127934 299.153229 
L 249.568264 303.451916 
L 262.008595 308.783547 
L 274.448926 315.003178 
L 286.889256 321.98096 
L 299.329587 329.60069 
L 311.769917 337.758491 
L 324.210248 346.36162 
L 336.650579 355.327388 
L 349.090909 364.582179 
L 361.53124 374.060566 
L 373.97157 383.704501 
L 386.411901 393.462593 
L 398.852231 403.289446 
L 411.292562 413.145063 
L 423.732893 422.994307 
L 436.173223 432.806409 
L 448.613554 442.554529 
L 461.053884 452.215354 
L 473.494215 461.768736 
L 485.934545 471.197367 
L 498.374876 480.486478 
L 510.815207 489.623578 
L 523.255537 498.598209 
L 535.695868 507.401726 
L 548.136198 516.027105 
L 560.576529 524.46876 
L 573.01686 532.722387 
L 585.45719 540.784816 
L 597.897521 548.653882 
L 610.337851 556.328307 
L 622.778182 563.807598 
L 635.218512 571.091944 
L 647.658843 578.182137 
L 660.099174 585.079494 
L 672.539504 591.785786 
L 684.979835 598.303177 
L 697.420165 604.634167 
L 709.860496 610.781546 
L 722.300826 616.748346 
L 734.741157 622.537802 
L 747.181488 628.153317 
L 759.621818 633.59843 
L 772.062149 638.876788 
L 784.502479 643.992122 
L 796.94281 648.94822 
L 809.38314 653.748915 
L 821.823471 658.398062 
L 834.263802 662.899524 
L 846.704132 667.257159 
L 859.144463 671.47481 
L 871.584793 675.556291 
L 884.025124 679.50538 
L 896.465455 683.325812 
L 908.905785 687.021273 
L 921.346116 690.595392 
L 933.786446 694.051738 
L 946.226777 697.393814 
L 958.667107 700.625059 
L 971.107438 703.748837 
L 983.547769 706.768443 
L 995.988099 709.687098 
L 1008.42843 712.507945 
L 1020.86876 715.234055 
L 1033.309091 717.868419 
L 1045.749421 720.413953 
L 1058.189752 722.873499 
L 1070.630083 725.249819 
L 1083.070413 727.545601 
L 1095.510744 729.763459 
L 1107.951074 731.905934 
L 1120.391405 733.975491 
L 1132.831736 735.974526 
L 1145.272066 737.905364 
L 1157.712397 739.77026 
L 1170.152727 741.571401 
L 1182.593058 743.310909 
L 1195.033388 744.990838 
L 1207.473719 746.613183 
L 1219.91405 748.179872 
L 1232.35438 749.692775 
L 1244.794711 751.153703 
L 1257.235041 752.564409 
L 1269.675372 753.92659 
L 1282.115702 755.241887 
L 1294.556033 756.511891 
L 1306.996364 757.738138 
" clip-path="url(#p363f539ceb)" style="fill: none; stroke-dasharray: 5.55,2.4; stroke-dashoffset: 0; stroke: #000000; stroke-width: 1.5"/>
   </g>
   <g id="patch_3">
    <path d="M 13.824 791.9208 
L 13.824 7.9992 
" style="fill: none; stroke: #000000; stroke-width: 0.8; stroke-linejoin: miter; stroke-linecap: square"/>
   </g>
   <g id="patch_4">
    <path d="M 1368.576 791.9208 
L 1368.576 7.9992 
" style="fill: none; stroke: #000000; stroke-width: 0.8; stroke-linejoin: miter; stroke-linecap: square"/>
   </g>
   <g id="patch_5">
    <path d="M 13.824 791.9208 
L 1368.576 791.9208 
" style="fill: none; stroke: #000000; stroke-width: 0.8; stroke-linejoin: miter; stroke-linecap: square"/>
   </g>
   <g id="patch_6">
    <path d="M 13.824 7.9992 
L 1368.576 7.9992 
" style="fill: none; stroke: #000000; stroke-width: 0.8; stroke-linejoin: miter; stroke-linecap: square"/>
   </g>
   <g id="legend_1">
    <g id="patch_7">
     <path d="M 20.824 786.9208 
L 266.308375 786.9208 
Q 268.308375 786.9208 268.308375 784.9208 
L 268.308375 580.42705 
Q 268.308375 578.42705 266.308375 578.42705 
L 20.824 578.42705 
Q 18.824 578.42705 18.824 580.42705 
L 18.824 784.9208 
Q 18.824 786.9208 20.824 786.9208 
z
" style="fill: #ffffff; opacity: 0.8; stroke: #cccccc; stroke-linejoin: miter"/>
    </g>
    <g id="line2d_27">
     <path d="M 22.824 586.525488 
L 32.824 586.525488 
L 42.824 586.525488 
" style="fill: none; stroke: #0000ff; stroke-width: 1.5; stroke-linecap: square"/>
    </g>
    <g id="text_13">
     <!-- p.= stress -->
     <g transform="translate(50.824 590.025488) scale(0.1 -0.1)">
      <defs>
       <path id="DejaVuSans-70" d="M 1159 525 
L 1159 -1331 
L 581 -1331 
L 581 3500 
L 1159 3500 
L 1159 2969 
Q 1341 3281 1617 3432 
Q 1894 3584 2278 3584 
Q 2916 3584 3314 3078 
Q 3713 2572 3713 1747 
Q 3713 922 3314 415 
Q 2916 -91 2278 -91 
Q 1894 -91 1617 61 
Q 1341 213 1159 525 
z
M 3116 1747 
Q 3116 2381 2855 2742 
Q 2594 3103 2138 3103 
Q 1681 3103 1420 2742 
Q 1159 2381 1159 1747 
Q 1159 1113 1420 752 
Q 1681 391 2138 391 
Q 2594 391 2855 752 
Q 3116 1113 3116 1747 
z
" transform="scale(0.015625)"/>
       <path id="DejaVuSans-3d" d="M 678 2906 
L 4684 2906 
L 4684 2381 
L 678 2381 
L 678 2906 
z
M 678 1631 
L 4684 1631 
L 4684 1100 
L 678 1100 
L 678 1631 
z
" transform="scale(0.015625)"/>
       <path id="DejaVuSans-20" transform="scale(0.015625)"/>
       <path id="DejaVuSans-73" d="M 2834 3397 
L 2834 2853 
Q 2591 2978 2328 3040 
Q 2066 3103 1784 3103 
Q 1356 3103 1142 2972 
Q 928 2841 928 2578 
Q 928 2378 1081 2264 
Q 1234 2150 1697 2047 
L 1894 2003 
Q 2506 1872 2764 1633 
Q 3022 1394 3022 966 
Q 3022 478 2636 193 
Q 2250 -91 1575 -91 
Q 1294 -91 989 -36 
Q 684 19 347 128 
L 347 722 
Q 666 556 975 473 
Q 1284 391 1588 391 
Q 1994 391 2212 530 
Q 2431 669 2431 922 
Q 2431 1156 2273 1281 
Q 2116 1406 1581 1522 
L 1381 1569 
Q 847 1681 609 1914 
Q 372 2147 372 2553 
Q 372 3047 722 3315 
Q 1072 3584 1716 3584 
Q 2034 3584 2315 3537 
Q 2597 3491 2834 3397 
z
" transform="scale(0.015625)"/>
       <path id="DejaVuSans-74" d="M 1172 4494 
L 1172 3500 
L 2356 3500 
L 2356 3053 
L 1172 3053 
L 1172 1153 
Q 1172 725 1289 603 
Q 1406 481 1766 481 
L 2356 481 
L 2356 0 
L 1766 0 
Q 1100 0 847 248 
Q 594 497 594 1153 
L 594 3053 
L 172 3053 
L 172 3500 
L 594 3500 
L 594 4494 
L 1172 4494 
z
" transform="scale(0.015625)"/>
       <path id="DejaVuSans-72" d="M 2631 2963 
Q 2534 3019 2420 3045 
Q 2306 3072 2169 3072 
Q 1681 3072 1420 2755 
Q 1159 2438 1159 1844 
L 1159 0 
L 581 0 
L 581 3500 
L 1159 3500 
L 1159 2956 
Q 1341 3275 1631 3429 
Q 1922 3584 2338 3584 
Q 2397 3584 2469 3576 
Q 2541 3569 2628 3553 
L 2631 2963 
z
" transform="scale(0.015625)"/>
       <path id="DejaVuSans-65" d="M 3597 1894 
L 3597 1613 
L 953 1613 
Q 991 1019 1311 708 
Q 1631 397 2203 397 
Q 2534 397 2845 478 
Q 3156 559 3463 722 
L 3463 178 
Q 3153 47 2828 -22 
Q 2503 -91 2169 -91 
Q 1331 -91 842 396 
Q 353 884 353 1716 
Q 353 2575 817 3079 
Q 1281 3584 2069 3584 
Q 2775 3584 3186 3129 
Q 3597 2675 3597 1894 
z
M 3022 2063 
Q 3016 2534 2758 2815 
Q 2500 3097 2075 3097 
Q 1594 3097 1305 2825 
Q 1016 2553 972 2059 
L 3022 2063 
z
" transform="scale(0.015625)"/>
      </defs>
      <use xlink:href="#DejaVuSans-70"/>
      <use xlink:href="#DejaVuSans-2e" x="63.476562"/>
      <use xlink:href="#DejaVuSans-3d" x="95.263672"/>
      <use xlink:href="#DejaVuSans-20" x="179.052734"/>
      <use xlink:href="#DejaVuSans-73" x="210.839844"/>
      <use xlink:href="#DejaVuSans-74" x="262.939453"/>
      <use xlink:href="#DejaVuSans-72" x="302.148438"/>
      <use xlink:href="#DejaVuSans-65" x="341.011719"/>
      <use xlink:href="#DejaVuSans-73" x="402.535156"/>
      <use xlink:href="#DejaVuSans-73" x="454.634766"/>
     </g>
    </g>
    <g id="line2d_28">
     <path d="M 22.824 601.203612 
L 32.824 601.203612 
L 42.824 601.203612 
" style="fill: none; stroke-dasharray: 5.55,2.4; stroke-dashoffset: 0; stroke: #0000ff; stroke-width: 1.5"/>
    </g>
    <g id="text_14">
     <!-- p.= stress exp 0.014 0.153 0.452 -->
     <g transform="translate(50.824 604.703612) scale(0.1 -0.1)">
      <defs>
       <path id="DejaVuSans-78" d="M 3513 3500 
L 2247 1797 
L 3578 0 
L 2900 0 
L 1881 1375 
L 863 0 
L 184 0 
L 1544 1831 
L 300 3500 
L 978 3500 
L 1906 2253 
L 2834 3500 
L 3513 3500 
z
" transform="scale(0.015625)"/>
       <path id="DejaVuSans-35" d="M 691 4666 
L 3169 4666 
L 3169 4134 
L 1269 4134 
L 1269 2991 
Q 1406 3038 1543 3061 
Q 1681 3084 1819 3084 
Q 2600 3084 3056 2656 
Q 3513 2228 3513 1497 
Q 3513 744 3044 326 
Q 2575 -91 1722 -91 
Q 1428 -91 1123 -41 
Q 819 9 494 109 
L 494 744 
Q 775 591 1075 516 
Q 1375 441 1709 441 
Q 2250 441 2565 725 
Q 2881 1009 2881 1497 
Q 2881 1984 2565 2268 
Q 2250 2553 1709 2553 
Q 1456 2553 1204 2497 
Q 953 2441 691 2322 
L 691 4666 
z
" transform="scale(0.015625)"/>
       <path id="DejaVuSans-33" d="M 2597 2516 
Q 3050 2419 3304 2112 
Q 3559 1806 3559 1356 
Q 3559 666 3084 287 
Q 2609 -91 1734 -91 
Q 1441 -91 1130 -33 
Q 819 25 488 141 
L 488 750 
Q 750 597 1062 519 
Q 1375 441 1716 441 
Q 2309 441 2620 675 
Q 2931 909 2931 1356 
Q 2931 1769 2642 2001 
Q 2353 2234 1838 2234 
L 1294 2234 
L 1294 2753 
L 1863 2753 
Q 2328 2753 2575 2939 
Q 2822 3125 2822 3475 
Q 2822 3834 2567 4026 
Q 2313 4219 1838 4219 
Q 1578 4219 1281 4162 
Q 984 4106 628 3988 
L 628 4550 
Q 988 4650 1302 4700 
Q 1616 4750 1894 4750 
Q 2613 4750 3031 4423 
Q 3450 4097 3450 3541 
Q 3450 3153 3228 2886 
Q 3006 2619 2597 2516 
z
" transform="scale(0.015625)"/>
      </defs>
      <use xlink:href="#DejaVuSans-70"/>
      <use xlink:href="#DejaVuSans-2e" x="63.476562"/>
      <use xlink:href="#DejaVuSans-3d" x="95.263672"/>
      <use xlink:href="#DejaVuSans-20" x="179.052734"/>
      <use xlink:href="#DejaVuSans-73" x="210.839844"/>
      <use xlink:href="#DejaVuSans-74" x="262.939453"/>
      <use xlink:href="#DejaVuSans-72" x="302.148438"/>
      <use xlink:href="#DejaVuSans-65" x="341.011719"/>
      <use xlink:href="#DejaVuSans-73" x="402.535156"/>
      <use xlink:href="#DejaVuSans-73" x="454.634766"/>
      <use xlink:href="#DejaVuSans-20" x="506.734375"/>
      <use xlink:href="#DejaVuSans-65" x="538.521484"/>
      <use xlink:href="#DejaVuSans-78" x="598.294922"/>
      <use xlink:href="#DejaVuSans-70" x="657.474609"/>
      <use xlink:href="#DejaVuSans-20" x="720.951172"/>
      <use xlink:href="#DejaVuSans-30" x="752.738281"/>
      <use xlink:href="#DejaVuSans-2e" x="816.361328"/>
      <use xlink:href="#DejaVuSans-30" x="848.148438"/>
      <use xlink:href="#DejaVuSans-31" x="911.771484"/>
      <use xlink:href="#DejaVuSans-34" x="975.394531"/>
      <use xlink:href="#DejaVuSans-20" x="1039.017578"/>
      <use xlink:href="#DejaVuSans-30" x="1070.804688"/>
      <use xlink:href="#DejaVuSans-2e" x="1134.427734"/>
      <use xlink:href="#DejaVuSans-31" x="1166.214844"/>
      <use xlink:href="#DejaVuSans-35" x="1229.837891"/>
      <use xlink:href="#DejaVuSans-33" x="1293.460938"/>
      <use xlink:href="#DejaVuSans-20" x="1357.083984"/>
      <use xlink:href="#DejaVuSans-30" x="1388.871094"/>
      <use xlink:href="#DejaVuSans-2e" x="1452.494141"/>
      <use xlink:href="#DejaVuSans-34" x="1484.28125"/>
      <use xlink:href="#DejaVuSans-35" x="1547.904297"/>
      <use xlink:href="#DejaVuSans-32" x="1611.527344"/>
     </g>
    </g>
    <g id="line2d_29">
     <path d="M 22.824 615.881737 
L 32.824 615.881737 
L 42.824 615.881737 
" style="fill: none; stroke: #008000; stroke-width: 1.5; stroke-linecap: square"/>
    </g>
    <g id="text_15">
     <!-- p.Ala109Ter stress -->
     <g transform="translate(50.824 619.381737) scale(0.1 -0.1)">
      <defs>
       <path id="DejaVuSans-41" d="M 2188 4044 
L 1331 1722 
L 3047 1722 
L 2188 4044 
z
M 1831 4666 
L 2547 4666 
L 4325 0 
L 3669 0 
L 3244 1197 
L 1141 1197 
L 716 0 
L 50 0 
L 1831 4666 
z
" transform="scale(0.015625)"/>
       <path id="DejaVuSans-6c" d="M 603 4863 
L 1178 4863 
L 1178 0 
L 603 0 
L 603 4863 
z
" transform="scale(0.015625)"/>
       <path id="DejaVuSans-61" d="M 2194 1759 
Q 1497 1759 1228 1600 
Q 959 1441 959 1056 
Q 959 750 1161 570 
Q 1363 391 1709 391 
Q 2188 391 2477 730 
Q 2766 1069 2766 1631 
L 2766 1759 
L 2194 1759 
z
M 3341 1997 
L 3341 0 
L 2766 0 
L 2766 531 
Q 2569 213 2275 61 
Q 1981 -91 1556 -91 
Q 1019 -91 701 211 
Q 384 513 384 1019 
Q 384 1609 779 1909 
Q 1175 2209 1959 2209 
L 2766 2209 
L 2766 2266 
Q 2766 2663 2505 2880 
Q 2244 3097 1772 3097 
Q 1472 3097 1187 3025 
Q 903 2953 641 2809 
L 641 3341 
Q 956 3463 1253 3523 
Q 1550 3584 1831 3584 
Q 2591 3584 2966 3190 
Q 3341 2797 3341 1997 
z
" transform="scale(0.015625)"/>
       <path id="DejaVuSans-39" d="M 703 97 
L 703 672 
Q 941 559 1184 500 
Q 1428 441 1663 441 
Q 2288 441 2617 861 
Q 2947 1281 2994 2138 
Q 2813 1869 2534 1725 
Q 2256 1581 1919 1581 
Q 1219 1581 811 2004 
Q 403 2428 403 3163 
Q 403 3881 828 4315 
Q 1253 4750 1959 4750 
Q 2769 4750 3195 4129 
Q 3622 3509 3622 2328 
Q 3622 1225 3098 567 
Q 2575 -91 1691 -91 
Q 1453 -91 1209 -44 
Q 966 3 703 97 
z
M 1959 2075 
Q 2384 2075 2632 2365 
Q 2881 2656 2881 3163 
Q 2881 3666 2632 3958 
Q 2384 4250 1959 4250 
Q 1534 4250 1286 3958 
Q 1038 3666 1038 3163 
Q 1038 2656 1286 2365 
Q 1534 2075 1959 2075 
z
" transform="scale(0.015625)"/>
       <path id="DejaVuSans-54" d="M -19 4666 
L 3928 4666 
L 3928 4134 
L 2272 4134 
L 2272 0 
L 1638 0 
L 1638 4134 
L -19 4134 
L -19 4666 
z
" transform="scale(0.015625)"/>
      </defs>
      <use xlink:href="#DejaVuSans-70"/>
      <use xlink:href="#DejaVuSans-2e" x="63.476562"/>
      <use xlink:href="#DejaVuSans-41" x="95.263672"/>
      <use xlink:href="#DejaVuSans-6c" x="163.671875"/>
      <use xlink:href="#DejaVuSans-61" x="191.455078"/>
      <use xlink:href="#DejaVuSans-31" x="252.734375"/>
      <use xlink:href="#DejaVuSans-30" x="316.357422"/>
      <use xlink:href="#DejaVuSans-39" x="379.980469"/>
      <use xlink:href="#DejaVuSans-54" x="443.603516"/>
      <use xlink:href="#DejaVuSans-65" x="487.6875"/>
      <use xlink:href="#DejaVuSans-72" x="549.210938"/>
      <use xlink:href="#DejaVuSans-20" x="590.324219"/>
      <use xlink:href="#DejaVuSans-73" x="622.111328"/>
      <use xlink:href="#DejaVuSans-74" x="674.210938"/>
      <use xlink:href="#DejaVuSans-72" x="713.419922"/>
      <use xlink:href="#DejaVuSans-65" x="752.283203"/>
      <use xlink:href="#DejaVuSans-73" x="813.806641"/>
      <use xlink:href="#DejaVuSans-73" x="865.90625"/>
     </g>
    </g>
    <g id="line2d_30">
     <path d="M 22.824 630.559863 
L 32.824 630.559863 
L 42.824 630.559863 
" style="fill: none; stroke-dasharray: 5.55,2.4; stroke-dashoffset: 0; stroke: #008000; stroke-width: 1.5"/>
    </g>
    <g id="text_16">
     <!-- p.Ala109Ter stress exp 0.795 0.667 0.666 -->
     <g transform="translate(50.824 634.059863) scale(0.1 -0.1)">
      <defs>
       <path id="DejaVuSans-37" d="M 525 4666 
L 3525 4666 
L 3525 4397 
L 1831 0 
L 1172 0 
L 2766 4134 
L 525 4134 
L 525 4666 
z
" transform="scale(0.015625)"/>
      </defs>
      <use xlink:href="#DejaVuSans-70"/>
      <use xlink:href="#DejaVuSans-2e" x="63.476562"/>
      <use xlink:href="#DejaVuSans-41" x="95.263672"/>
      <use xlink:href="#DejaVuSans-6c" x="163.671875"/>
      <use xlink:href="#DejaVuSans-61" x="191.455078"/>
      <use xlink:href="#DejaVuSans-31" x="252.734375"/>
      <use xlink:href="#DejaVuSans-30" x="316.357422"/>
      <use xlink:href="#DejaVuSans-39" x="379.980469"/>
      <use xlink:href="#DejaVuSans-54" x="443.603516"/>
      <use xlink:href="#DejaVuSans-65" x="487.6875"/>
      <use xlink:href="#DejaVuSans-72" x="549.210938"/>
      <use xlink:href="#DejaVuSans-20" x="590.324219"/>
      <use xlink:href="#DejaVuSans-73" x="622.111328"/>
      <use xlink:href="#DejaVuSans-74" x="674.210938"/>
      <use xlink:href="#DejaVuSans-72" x="713.419922"/>
      <use xlink:href="#DejaVuSans-65" x="752.283203"/>
      <use xlink:href="#DejaVuSans-73" x="813.806641"/>
      <use xlink:href="#DejaVuSans-73" x="865.90625"/>
      <use xlink:href="#DejaVuSans-20" x="918.005859"/>
      <use xlink:href="#DejaVuSans-65" x="949.792969"/>
      <use xlink:href="#DejaVuSans-78" x="1009.566406"/>
      <use xlink:href="#DejaVuSans-70" x="1068.746094"/>
      <use xlink:href="#DejaVuSans-20" x="1132.222656"/>
      <use xlink:href="#DejaVuSans-30" x="1164.009766"/>
      <use xlink:href="#DejaVuSans-2e" x="1227.632812"/>
      <use xlink:href="#DejaVuSans-37" x="1259.419922"/>
      <use xlink:href="#DejaVuSans-39" x="1323.042969"/>
      <use xlink:href="#DejaVuSans-35" x="1386.666016"/>
      <use xlink:href="#DejaVuSans-20" x="1450.289062"/>
      <use xlink:href="#DejaVuSans-30" x="1482.076172"/>
      <use xlink:href="#DejaVuSans-2e" x="1545.699219"/>
      <use xlink:href="#DejaVuSans-36" x="1577.486328"/>
      <use xlink:href="#DejaVuSans-36" x="1641.109375"/>
      <use xlink:href="#DejaVuSans-37" x="1704.732422"/>
      <use xlink:href="#DejaVuSans-20" x="1768.355469"/>
      <use xlink:href="#DejaVuSans-30" x="1800.142578"/>
      <use xlink:href="#DejaVuSans-2e" x="1863.765625"/>
      <use xlink:href="#DejaVuSans-36" x="1895.552734"/>
      <use xlink:href="#DejaVuSans-36" x="1959.175781"/>
      <use xlink:href="#DejaVuSans-36" x="2022.798828"/>
     </g>
    </g>
    <g id="line2d_31">
     <path d="M 22.824 645.237988 
L 32.824 645.237988 
L 42.824 645.237988 
" style="fill: none; stroke: #ff0000; stroke-width: 1.5; stroke-linecap: square"/>
    </g>
    <g id="text_17">
     <!-- p.Ala300Met stress -->
     <g transform="translate(50.824 648.737988) scale(0.1 -0.1)">
      <defs>
       <path id="DejaVuSans-4d" d="M 628 4666 
L 1569 4666 
L 2759 1491 
L 3956 4666 
L 4897 4666 
L 4897 0 
L 4281 0 
L 4281 4097 
L 3078 897 
L 2444 897 
L 1241 4097 
L 1241 0 
L 628 0 
L 628 4666 
z
" transform="scale(0.015625)"/>
      </defs>
      <use xlink:href="#DejaVuSans-70"/>
      <use xlink:href="#DejaVuSans-2e" x="63.476562"/>
      <use xlink:href="#DejaVuSans-41" x="95.263672"/>
      <use xlink:href="#DejaVuSans-6c" x="163.671875"/>
      <use xlink:href="#DejaVuSans-61" x="191.455078"/>
      <use xlink:href="#DejaVuSans-33" x="252.734375"/>
      <use xlink:href="#DejaVuSans-30" x="316.357422"/>
      <use xlink:href="#DejaVuSans-30" x="379.980469"/>
      <use xlink:href="#DejaVuSans-4d" x="443.603516"/>
      <use xlink:href="#DejaVuSans-65" x="529.882812"/>
      <use xlink:href="#DejaVuSans-74" x="591.40625"/>
      <use xlink:href="#DejaVuSans-20" x="630.615234"/>
      <use xlink:href="#DejaVuSans-73" x="662.402344"/>
      <use xlink:href="#DejaVuSans-74" x="714.501953"/>
      <use xlink:href="#DejaVuSans-72" x="753.710938"/>
      <use xlink:href="#DejaVuSans-65" x="792.574219"/>
      <use xlink:href="#DejaVuSans-73" x="854.097656"/>
      <use xlink:href="#DejaVuSans-73" x="906.197266"/>
     </g>
    </g>
    <g id="line2d_32">
     <path d="M 22.824 659.916113 
L 32.824 659.916113 
L 42.824 659.916113 
" style="fill: none; stroke-dasharray: 5.55,2.4; stroke-dashoffset: 0; stroke: #ff0000; stroke-width: 1.5"/>
    </g>
    <g id="text_18">
     <!-- p.Ala300Met stress exp 0.028 0.186 0.465 -->
     <g transform="translate(50.824 663.416113) scale(0.1 -0.1)">
      <use xlink:href="#DejaVuSans-70"/>
      <use xlink:href="#DejaVuSans-2e" x="63.476562"/>
      <use xlink:href="#DejaVuSans-41" x="95.263672"/>
      <use xlink:href="#DejaVuSans-6c" x="163.671875"/>
      <use xlink:href="#DejaVuSans-61" x="191.455078"/>
      <use xlink:href="#DejaVuSans-33" x="252.734375"/>
      <use xlink:href="#DejaVuSans-30" x="316.357422"/>
      <use xlink:href="#DejaVuSans-30" x="379.980469"/>
      <use xlink:href="#DejaVuSans-4d" x="443.603516"/>
      <use xlink:href="#DejaVuSans-65" x="529.882812"/>
      <use xlink:href="#DejaVuSans-74" x="591.40625"/>
      <use xlink:href="#DejaVuSans-20" x="630.615234"/>
      <use xlink:href="#DejaVuSans-73" x="662.402344"/>
      <use xlink:href="#DejaVuSans-74" x="714.501953"/>
      <use xlink:href="#DejaVuSans-72" x="753.710938"/>
      <use xlink:href="#DejaVuSans-65" x="792.574219"/>
      <use xlink:href="#DejaVuSans-73" x="854.097656"/>
      <use xlink:href="#DejaVuSans-73" x="906.197266"/>
      <use xlink:href="#DejaVuSans-20" x="958.296875"/>
      <use xlink:href="#DejaVuSans-65" x="990.083984"/>
      <use xlink:href="#DejaVuSans-78" x="1049.857422"/>
      <use xlink:href="#DejaVuSans-70" x="1109.037109"/>
      <use xlink:href="#DejaVuSans-20" x="1172.513672"/>
      <use xlink:href="#DejaVuSans-30" x="1204.300781"/>
      <use xlink:href="#DejaVuSans-2e" x="1267.923828"/>
      <use xlink:href="#DejaVuSans-30" x="1299.710938"/>
      <use xlink:href="#DejaVuSans-32" x="1363.333984"/>
      <use xlink:href="#DejaVuSans-38" x="1426.957031"/>
      <use xlink:href="#DejaVuSans-20" x="1490.580078"/>
      <use xlink:href="#DejaVuSans-30" x="1522.367188"/>
      <use xlink:href="#DejaVuSans-2e" x="1585.990234"/>
      <use xlink:href="#DejaVuSans-31" x="1617.777344"/>
      <use xlink:href="#DejaVuSans-38" x="1681.400391"/>
      <use xlink:href="#DejaVuSans-36" x="1745.023438"/>
      <use xlink:href="#DejaVuSans-20" x="1808.646484"/>
      <use xlink:href="#DejaVuSans-30" x="1840.433594"/>
      <use xlink:href="#DejaVuSans-2e" x="1904.056641"/>
      <use xlink:href="#DejaVuSans-34" x="1935.84375"/>
      <use xlink:href="#DejaVuSans-36" x="1999.466797"/>
      <use xlink:href="#DejaVuSans-35" x="2063.089844"/>
     </g>
    </g>
    <g id="line2d_33">
     <path d="M 22.824 674.594237 
L 32.824 674.594237 
L 42.824 674.594237 
" style="fill: none; stroke: #00bfbf; stroke-width: 1.5; stroke-linecap: square"/>
    </g>
    <g id="text_19">
     <!-- p.Asp282Gln stress -->
     <g transform="translate(50.824 678.094237) scale(0.1 -0.1)">
      <defs>
       <path id="DejaVuSans-47" d="M 3809 666 
L 3809 1919 
L 2778 1919 
L 2778 2438 
L 4434 2438 
L 4434 434 
Q 4069 175 3628 42 
Q 3188 -91 2688 -91 
Q 1594 -91 976 548 
Q 359 1188 359 2328 
Q 359 3472 976 4111 
Q 1594 4750 2688 4750 
Q 3144 4750 3555 4637 
Q 3966 4525 4313 4306 
L 4313 3634 
Q 3963 3931 3569 4081 
Q 3175 4231 2741 4231 
Q 1884 4231 1454 3753 
Q 1025 3275 1025 2328 
Q 1025 1384 1454 906 
Q 1884 428 2741 428 
Q 3075 428 3337 486 
Q 3600 544 3809 666 
z
" transform="scale(0.015625)"/>
       <path id="DejaVuSans-6e" d="M 3513 2113 
L 3513 0 
L 2938 0 
L 2938 2094 
Q 2938 2591 2744 2837 
Q 2550 3084 2163 3084 
Q 1697 3084 1428 2787 
Q 1159 2491 1159 1978 
L 1159 0 
L 581 0 
L 581 3500 
L 1159 3500 
L 1159 2956 
Q 1366 3272 1645 3428 
Q 1925 3584 2291 3584 
Q 2894 3584 3203 3211 
Q 3513 2838 3513 2113 
z
" transform="scale(0.015625)"/>
      </defs>
      <use xlink:href="#DejaVuSans-70"/>
      <use xlink:href="#DejaVuSans-2e" x="63.476562"/>
      <use xlink:href="#DejaVuSans-41" x="95.263672"/>
      <use xlink:href="#DejaVuSans-73" x="163.671875"/>
      <use xlink:href="#DejaVuSans-70" x="215.771484"/>
      <use xlink:href="#DejaVuSans-32" x="279.248047"/>
      <use xlink:href="#DejaVuSans-38" x="342.871094"/>
      <use xlink:href="#DejaVuSans-32" x="406.494141"/>
      <use xlink:href="#DejaVuSans-47" x="470.117188"/>
      <use xlink:href="#DejaVuSans-6c" x="547.607422"/>
      <use xlink:href="#DejaVuSans-6e" x="575.390625"/>
      <use xlink:href="#DejaVuSans-20" x="638.769531"/>
      <use xlink:href="#DejaVuSans-73" x="670.556641"/>
      <use xlink:href="#DejaVuSans-74" x="722.65625"/>
      <use xlink:href="#DejaVuSans-72" x="761.865234"/>
      <use xlink:href="#DejaVuSans-65" x="800.728516"/>
      <use xlink:href="#DejaVuSans-73" x="862.251953"/>
      <use xlink:href="#DejaVuSans-73" x="914.351562"/>
     </g>
    </g>
    <g id="line2d_34">
     <path d="M 22.824 689.272362 
L 32.824 689.272362 
L 42.824 689.272362 
" style="fill: none; stroke-dasharray: 5.55,2.4; stroke-dashoffset: 0; stroke: #00bfbf; stroke-width: 1.5"/>
    </g>
    <g id="text_20">
     <!-- p.Asp282Gln stress exp 0.000 0.173 0.379 -->
     <g transform="translate(50.824 692.772362) scale(0.1 -0.1)">
      <use xlink:href="#DejaVuSans-70"/>
      <use xlink:href="#DejaVuSans-2e" x="63.476562"/>
      <use xlink:href="#DejaVuSans-41" x="95.263672"/>
      <use xlink:href="#DejaVuSans-73" x="163.671875"/>
      <use xlink:href="#DejaVuSans-70" x="215.771484"/>
      <use xlink:href="#DejaVuSans-32" x="279.248047"/>
      <use xlink:href="#DejaVuSans-38" x="342.871094"/>
      <use xlink:href="#DejaVuSans-32" x="406.494141"/>
      <use xlink:href="#DejaVuSans-47" x="470.117188"/>
      <use xlink:href="#DejaVuSans-6c" x="547.607422"/>
      <use xlink:href="#DejaVuSans-6e" x="575.390625"/>
      <use xlink:href="#DejaVuSans-20" x="638.769531"/>
      <use xlink:href="#DejaVuSans-73" x="670.556641"/>
      <use xlink:href="#DejaVuSans-74" x="722.65625"/>
      <use xlink:href="#DejaVuSans-72" x="761.865234"/>
      <use xlink:href="#DejaVuSans-65" x="800.728516"/>
      <use xlink:href="#DejaVuSans-73" x="862.251953"/>
      <use xlink:href="#DejaVuSans-73" x="914.351562"/>
      <use xlink:href="#DejaVuSans-20" x="966.451172"/>
      <use xlink:href="#DejaVuSans-65" x="998.238281"/>
      <use xlink:href="#DejaVuSans-78" x="1058.011719"/>
      <use xlink:href="#DejaVuSans-70" x="1117.191406"/>
      <use xlink:href="#DejaVuSans-20" x="1180.667969"/>
      <use xlink:href="#DejaVuSans-30" x="1212.455078"/>
      <use xlink:href="#DejaVuSans-2e" x="1276.078125"/>
      <use xlink:href="#DejaVuSans-30" x="1307.865234"/>
      <use xlink:href="#DejaVuSans-30" x="1371.488281"/>
      <use xlink:href="#DejaVuSans-30" x="1435.111328"/>
      <use xlink:href="#DejaVuSans-20" x="1498.734375"/>
      <use xlink:href="#DejaVuSans-30" x="1530.521484"/>
      <use xlink:href="#DejaVuSans-2e" x="1594.144531"/>
      <use xlink:href="#DejaVuSans-31" x="1625.931641"/>
      <use xlink:href="#DejaVuSans-37" x="1689.554688"/>
      <use xlink:href="#DejaVuSans-33" x="1753.177734"/>
      <use xlink:href="#DejaVuSans-20" x="1816.800781"/>
      <use xlink:href="#DejaVuSans-30" x="1848.587891"/>
      <use xlink:href="#DejaVuSans-2e" x="1912.210938"/>
      <use xlink:href="#DejaVuSans-33" x="1943.998047"/>
      <use xlink:href="#DejaVuSans-37" x="2007.621094"/>
      <use xlink:href="#DejaVuSans-39" x="2071.244141"/>
     </g>
    </g>
    <g id="line2d_35">
     <path d="M 22.824 703.950488 
L 32.824 703.950488 
L 42.824 703.950488 
" style="fill: none; stroke: #bf00bf; stroke-width: 1.5; stroke-linecap: square"/>
    </g>
    <g id="text_21">
     <!-- p.Gln195Leu stress -->
     <g transform="translate(50.824 707.450488) scale(0.1 -0.1)">
      <defs>
       <path id="DejaVuSans-4c" d="M 628 4666 
L 1259 4666 
L 1259 531 
L 3531 531 
L 3531 0 
L 628 0 
L 628 4666 
z
" transform="scale(0.015625)"/>
       <path id="DejaVuSans-75" d="M 544 1381 
L 544 3500 
L 1119 3500 
L 1119 1403 
Q 1119 906 1312 657 
Q 1506 409 1894 409 
Q 2359 409 2629 706 
Q 2900 1003 2900 1516 
L 2900 3500 
L 3475 3500 
L 3475 0 
L 2900 0 
L 2900 538 
Q 2691 219 2414 64 
Q 2138 -91 1772 -91 
Q 1169 -91 856 284 
Q 544 659 544 1381 
z
M 1991 3584 
L 1991 3584 
z
" transform="scale(0.015625)"/>
      </defs>
      <use xlink:href="#DejaVuSans-70"/>
      <use xlink:href="#DejaVuSans-2e" x="63.476562"/>
      <use xlink:href="#DejaVuSans-47" x="95.263672"/>
      <use xlink:href="#DejaVuSans-6c" x="172.753906"/>
      <use xlink:href="#DejaVuSans-6e" x="200.537109"/>
      <use xlink:href="#DejaVuSans-31" x="263.916016"/>
      <use xlink:href="#DejaVuSans-39" x="327.539062"/>
      <use xlink:href="#DejaVuSans-35" x="391.162109"/>
      <use xlink:href="#DejaVuSans-4c" x="454.785156"/>
      <use xlink:href="#DejaVuSans-65" x="508.748047"/>
      <use xlink:href="#DejaVuSans-75" x="570.271484"/>
      <use xlink:href="#DejaVuSans-20" x="633.650391"/>
      <use xlink:href="#DejaVuSans-73" x="665.4375"/>
      <use xlink:href="#DejaVuSans-74" x="717.537109"/>
      <use xlink:href="#DejaVuSans-72" x="756.746094"/>
      <use xlink:href="#DejaVuSans-65" x="795.609375"/>
      <use xlink:href="#DejaVuSans-73" x="857.132812"/>
      <use xlink:href="#DejaVuSans-73" x="909.232422"/>
     </g>
    </g>
    <g id="line2d_36">
     <path d="M 22.824 718.628612 
L 32.824 718.628612 
L 42.824 718.628612 
" style="fill: none; stroke-dasharray: 5.55,2.4; stroke-dashoffset: 0; stroke: #bf00bf; stroke-width: 1.5"/>
    </g>
    <g id="text_22">
     <!-- p.Gln195Leu stress exp 0.145 0.761 0.454 -->
     <g transform="translate(50.824 722.128612) scale(0.1 -0.1)">
      <use xlink:href="#DejaVuSans-70"/>
      <use xlink:href="#DejaVuSans-2e" x="63.476562"/>
      <use xlink:href="#DejaVuSans-47" x="95.263672"/>
      <use xlink:href="#DejaVuSans-6c" x="172.753906"/>
      <use xlink:href="#DejaVuSans-6e" x="200.537109"/>
      <use xlink:href="#DejaVuSans-31" x="263.916016"/>
      <use xlink:href="#DejaVuSans-39" x="327.539062"/>
      <use xlink:href="#DejaVuSans-35" x="391.162109"/>
      <use xlink:href="#DejaVuSans-4c" x="454.785156"/>
      <use xlink:href="#DejaVuSans-65" x="508.748047"/>
      <use xlink:href="#DejaVuSans-75" x="570.271484"/>
      <use xlink:href="#DejaVuSans-20" x="633.650391"/>
      <use xlink:href="#DejaVuSans-73" x="665.4375"/>
      <use xlink:href="#DejaVuSans-74" x="717.537109"/>
      <use xlink:href="#DejaVuSans-72" x="756.746094"/>
      <use xlink:href="#DejaVuSans-65" x="795.609375"/>
      <use xlink:href="#DejaVuSans-73" x="857.132812"/>
      <use xlink:href="#DejaVuSans-73" x="909.232422"/>
      <use xlink:href="#DejaVuSans-20" x="961.332031"/>
      <use xlink:href="#DejaVuSans-65" x="993.119141"/>
      <use xlink:href="#DejaVuSans-78" x="1052.892578"/>
      <use xlink:href="#DejaVuSans-70" x="1112.072266"/>
      <use xlink:href="#DejaVuSans-20" x="1175.548828"/>
      <use xlink:href="#DejaVuSans-30" x="1207.335938"/>
      <use xlink:href="#DejaVuSans-2e" x="1270.958984"/>
      <use xlink:href="#DejaVuSans-31" x="1302.746094"/>
      <use xlink:href="#DejaVuSans-34" x="1366.369141"/>
      <use xlink:href="#DejaVuSans-35" x="1429.992188"/>
      <use xlink:href="#DejaVuSans-20" x="1493.615234"/>
      <use xlink:href="#DejaVuSans-30" x="1525.402344"/>
      <use xlink:href="#DejaVuSans-2e" x="1589.025391"/>
      <use xlink:href="#DejaVuSans-37" x="1620.8125"/>
      <use xlink:href="#DejaVuSans-36" x="1684.435547"/>
      <use xlink:href="#DejaVuSans-31" x="1748.058594"/>
      <use xlink:href="#DejaVuSans-20" x="1811.681641"/>
      <use xlink:href="#DejaVuSans-30" x="1843.46875"/>
      <use xlink:href="#DejaVuSans-2e" x="1907.091797"/>
      <use xlink:href="#DejaVuSans-34" x="1938.878906"/>
      <use xlink:href="#DejaVuSans-35" x="2002.501953"/>
      <use xlink:href="#DejaVuSans-34" x="2066.125"/>
     </g>
    </g>
    <g id="line2d_37">
     <path d="M 22.824 733.306737 
L 32.824 733.306737 
L 42.824 733.306737 
" style="fill: none; stroke: #bfbf00; stroke-width: 1.5; stroke-linecap: square"/>
    </g>
    <g id="text_23">
     <!-- p.Phe237Ser stress -->
     <g transform="translate(50.824 736.806737) scale(0.1 -0.1)">
      <defs>
       <path id="DejaVuSans-50" d="M 1259 4147 
L 1259 2394 
L 2053 2394 
Q 2494 2394 2734 2622 
Q 2975 2850 2975 3272 
Q 2975 3691 2734 3919 
Q 2494 4147 2053 4147 
L 1259 4147 
z
M 628 4666 
L 2053 4666 
Q 2838 4666 3239 4311 
Q 3641 3956 3641 3272 
Q 3641 2581 3239 2228 
Q 2838 1875 2053 1875 
L 1259 1875 
L 1259 0 
L 628 0 
L 628 4666 
z
" transform="scale(0.015625)"/>
       <path id="DejaVuSans-68" d="M 3513 2113 
L 3513 0 
L 2938 0 
L 2938 2094 
Q 2938 2591 2744 2837 
Q 2550 3084 2163 3084 
Q 1697 3084 1428 2787 
Q 1159 2491 1159 1978 
L 1159 0 
L 581 0 
L 581 4863 
L 1159 4863 
L 1159 2956 
Q 1366 3272 1645 3428 
Q 1925 3584 2291 3584 
Q 2894 3584 3203 3211 
Q 3513 2838 3513 2113 
z
" transform="scale(0.015625)"/>
       <path id="DejaVuSans-53" d="M 3425 4513 
L 3425 3897 
Q 3066 4069 2747 4153 
Q 2428 4238 2131 4238 
Q 1616 4238 1336 4038 
Q 1056 3838 1056 3469 
Q 1056 3159 1242 3001 
Q 1428 2844 1947 2747 
L 2328 2669 
Q 3034 2534 3370 2195 
Q 3706 1856 3706 1288 
Q 3706 609 3251 259 
Q 2797 -91 1919 -91 
Q 1588 -91 1214 -16 
Q 841 59 441 206 
L 441 856 
Q 825 641 1194 531 
Q 1563 422 1919 422 
Q 2459 422 2753 634 
Q 3047 847 3047 1241 
Q 3047 1584 2836 1778 
Q 2625 1972 2144 2069 
L 1759 2144 
Q 1053 2284 737 2584 
Q 422 2884 422 3419 
Q 422 4038 858 4394 
Q 1294 4750 2059 4750 
Q 2388 4750 2728 4690 
Q 3069 4631 3425 4513 
z
" transform="scale(0.015625)"/>
      </defs>
      <use xlink:href="#DejaVuSans-70"/>
      <use xlink:href="#DejaVuSans-2e" x="63.476562"/>
      <use xlink:href="#DejaVuSans-50" x="95.263672"/>
      <use xlink:href="#DejaVuSans-68" x="155.566406"/>
      <use xlink:href="#DejaVuSans-65" x="218.945312"/>
      <use xlink:href="#DejaVuSans-32" x="280.46875"/>
      <use xlink:href="#DejaVuSans-33" x="344.091797"/>
      <use xlink:href="#DejaVuSans-37" x="407.714844"/>
      <use xlink:href="#DejaVuSans-53" x="471.337891"/>
      <use xlink:href="#DejaVuSans-65" x="534.814453"/>
      <use xlink:href="#DejaVuSans-72" x="596.337891"/>
      <use xlink:href="#DejaVuSans-20" x="637.451172"/>
      <use xlink:href="#DejaVuSans-73" x="669.238281"/>
      <use xlink:href="#DejaVuSans-74" x="721.337891"/>
      <use xlink:href="#DejaVuSans-72" x="760.546875"/>
      <use xlink:href="#DejaVuSans-65" x="799.410156"/>
      <use xlink:href="#DejaVuSans-73" x="860.933594"/>
      <use xlink:href="#DejaVuSans-73" x="913.033203"/>
     </g>
    </g>
    <g id="line2d_38">
     <path d="M 22.824 747.984862 
L 32.824 747.984862 
L 42.824 747.984862 
" style="fill: none; stroke-dasharray: 5.55,2.4; stroke-dashoffset: 0; stroke: #bfbf00; stroke-width: 1.5"/>
    </g>
    <g id="text_24">
     <!-- p.Phe237Ser stress exp 0.122 0.223 0.595 -->
     <g transform="translate(50.824 751.484862) scale(0.1 -0.1)">
      <use xlink:href="#DejaVuSans-70"/>
      <use xlink:href="#DejaVuSans-2e" x="63.476562"/>
      <use xlink:href="#DejaVuSans-50" x="95.263672"/>
      <use xlink:href="#DejaVuSans-68" x="155.566406"/>
      <use xlink:href="#DejaVuSans-65" x="218.945312"/>
      <use xlink:href="#DejaVuSans-32" x="280.46875"/>
      <use xlink:href="#DejaVuSans-33" x="344.091797"/>
      <use xlink:href="#DejaVuSans-37" x="407.714844"/>
      <use xlink:href="#DejaVuSans-53" x="471.337891"/>
      <use xlink:href="#DejaVuSans-65" x="534.814453"/>
      <use xlink:href="#DejaVuSans-72" x="596.337891"/>
      <use xlink:href="#DejaVuSans-20" x="637.451172"/>
      <use xlink:href="#DejaVuSans-73" x="669.238281"/>
      <use xlink:href="#DejaVuSans-74" x="721.337891"/>
      <use xlink:href="#DejaVuSans-72" x="760.546875"/>
      <use xlink:href="#DejaVuSans-65" x="799.410156"/>
      <use xlink:href="#DejaVuSans-73" x="860.933594"/>
      <use xlink:href="#DejaVuSans-73" x="913.033203"/>
      <use xlink:href="#DejaVuSans-20" x="965.132812"/>
      <use xlink:href="#DejaVuSans-65" x="996.919922"/>
      <use xlink:href="#DejaVuSans-78" x="1056.693359"/>
      <use xlink:href="#DejaVuSans-70" x="1115.873047"/>
      <use xlink:href="#DejaVuSans-20" x="1179.349609"/>
      <use xlink:href="#DejaVuSans-30" x="1211.136719"/>
      <use xlink:href="#DejaVuSans-2e" x="1274.759766"/>
      <use xlink:href="#DejaVuSans-31" x="1306.546875"/>
      <use xlink:href="#DejaVuSans-32" x="1370.169922"/>
      <use xlink:href="#DejaVuSans-32" x="1433.792969"/>
      <use xlink:href="#DejaVuSans-20" x="1497.416016"/>
      <use xlink:href="#DejaVuSans-30" x="1529.203125"/>
      <use xlink:href="#DejaVuSans-2e" x="1592.826172"/>
      <use xlink:href="#DejaVuSans-32" x="1624.613281"/>
      <use xlink:href="#DejaVuSans-32" x="1688.236328"/>
      <use xlink:href="#DejaVuSans-33" x="1751.859375"/>
      <use xlink:href="#DejaVuSans-20" x="1815.482422"/>
      <use xlink:href="#DejaVuSans-30" x="1847.269531"/>
      <use xlink:href="#DejaVuSans-2e" x="1910.892578"/>
      <use xlink:href="#DejaVuSans-35" x="1942.679688"/>
      <use xlink:href="#DejaVuSans-39" x="2006.302734"/>
      <use xlink:href="#DejaVuSans-35" x="2069.925781"/>
     </g>
    </g>
    <g id="line2d_39">
     <path d="M 22.824 762.662987 
L 32.824 762.662987 
L 42.824 762.662987 
" style="fill: none; stroke: #000000; stroke-width: 1.5; stroke-linecap: square"/>
    </g>
    <g id="text_25">
     <!-- p.Phe241Pro stress -->
     <g transform="translate(50.824 766.162987) scale(0.1 -0.1)">
      <defs>
       <path id="DejaVuSans-6f" d="M 1959 3097 
Q 1497 3097 1228 2736 
Q 959 2375 959 1747 
Q 959 1119 1226 758 
Q 1494 397 1959 397 
Q 2419 397 2687 759 
Q 2956 1122 2956 1747 
Q 2956 2369 2687 2733 
Q 2419 3097 1959 3097 
z
M 1959 3584 
Q 2709 3584 3137 3096 
Q 3566 2609 3566 1747 
Q 3566 888 3137 398 
Q 2709 -91 1959 -91 
Q 1206 -91 779 398 
Q 353 888 353 1747 
Q 353 2609 779 3096 
Q 1206 3584 1959 3584 
z
" transform="scale(0.015625)"/>
      </defs>
      <use xlink:href="#DejaVuSans-70"/>
      <use xlink:href="#DejaVuSans-2e" x="63.476562"/>
      <use xlink:href="#DejaVuSans-50" x="95.263672"/>
      <use xlink:href="#DejaVuSans-68" x="155.566406"/>
      <use xlink:href="#DejaVuSans-65" x="218.945312"/>
      <use xlink:href="#DejaVuSans-32" x="280.46875"/>
      <use xlink:href="#DejaVuSans-34" x="344.091797"/>
      <use xlink:href="#DejaVuSans-31" x="407.714844"/>
      <use xlink:href="#DejaVuSans-50" x="471.337891"/>
      <use xlink:href="#DejaVuSans-72" x="529.890625"/>
      <use xlink:href="#DejaVuSans-6f" x="568.753906"/>
      <use xlink:href="#DejaVuSans-20" x="629.935547"/>
      <use xlink:href="#DejaVuSans-73" x="661.722656"/>
      <use xlink:href="#DejaVuSans-74" x="713.822266"/>
      <use xlink:href="#DejaVuSans-72" x="753.03125"/>
      <use xlink:href="#DejaVuSans-65" x="791.894531"/>
      <use xlink:href="#DejaVuSans-73" x="853.417969"/>
      <use xlink:href="#DejaVuSans-73" x="905.517578"/>
     </g>
    </g>
    <g id="line2d_40">
     <path d="M 22.824 777.341113 
L 32.824 777.341113 
L 42.824 777.341113 
" style="fill: none; stroke-dasharray: 5.55,2.4; stroke-dashoffset: 0; stroke: #000000; stroke-width: 1.5"/>
    </g>
    <g id="text_26">
     <!-- p.Phe241Pro stress exp 0.350 0.608 0.482 -->
     <g transform="translate(50.824 780.841113) scale(0.1 -0.1)">
      <use xlink:href="#DejaVuSans-70"/>
      <use xlink:href="#DejaVuSans-2e" x="63.476562"/>
      <use xlink:href="#DejaVuSans-50" x="95.263672"/>
      <use xlink:href="#DejaVuSans-68" x="155.566406"/>
      <use xlink:href="#DejaVuSans-65" x="218.945312"/>
      <use xlink:href="#DejaVuSans-32" x="280.46875"/>
      <use xlink:href="#DejaVuSans-34" x="344.091797"/>
      <use xlink:href="#DejaVuSans-31" x="407.714844"/>
      <use xlink:href="#DejaVuSans-50" x="471.337891"/>
      <use xlink:href="#DejaVuSans-72" x="529.890625"/>
      <use xlink:href="#DejaVuSans-6f" x="568.753906"/>
      <use xlink:href="#DejaVuSans-20" x="629.935547"/>
      <use xlink:href="#DejaVuSans-73" x="661.722656"/>
      <use xlink:href="#DejaVuSans-74" x="713.822266"/>
      <use xlink:href="#DejaVuSans-72" x="753.03125"/>
      <use xlink:href="#DejaVuSans-65" x="791.894531"/>
      <use xlink:href="#DejaVuSans-73" x="853.417969"/>
      <use xlink:href="#DejaVuSans-73" x="905.517578"/>
      <use xlink:href="#DejaVuSans-20" x="957.617188"/>
      <use xlink:href="#DejaVuSans-65" x="989.404297"/>
      <use xlink:href="#DejaVuSans-78" x="1049.177734"/>
      <use xlink:href="#DejaVuSans-70" x="1108.357422"/>
      <use xlink:href="#DejaVuSans-20" x="1171.833984"/>
      <use xlink:href="#DejaVuSans-30" x="1203.621094"/>
      <use xlink:href="#DejaVuSans-2e" x="1267.244141"/>
      <use xlink:href="#DejaVuSans-33" x="1299.03125"/>
      <use xlink:href="#DejaVuSans-35" x="1362.654297"/>
      <use xlink:href="#DejaVuSans-30" x="1426.277344"/>
      <use xlink:href="#DejaVuSans-20" x="1489.900391"/>
      <use xlink:href="#DejaVuSans-30" x="1521.6875"/>
      <use xlink:href="#DejaVuSans-2e" x="1585.310547"/>
      <use xlink:href="#DejaVuSans-36" x="1617.097656"/>
      <use xlink:href="#DejaVuSans-30" x="1680.720703"/>
      <use xlink:href="#DejaVuSans-38" x="1744.34375"/>
      <use xlink:href="#DejaVuSans-20" x="1807.966797"/>
      <use xlink:href="#DejaVuSans-30" x="1839.753906"/>
      <use xlink:href="#DejaVuSans-2e" x="1903.376953"/>
      <use xlink:href="#DejaVuSans-34" x="1935.164062"/>
      <use xlink:href="#DejaVuSans-38" x="1998.787109"/>
      <use xlink:href="#DejaVuSans-32" x="2062.410156"/>
     </g>
    </g>
   </g>
  </g>
 </g>
 <defs>
  <clipPath id="p363f539ceb">
   <rect x="13.824" y="7.9992" width="1354.752" height="783.9216"/>
  </clipPath>
 </defs>
</svg>
