<?xml version="1.0" encoding="utf-8" standalone="no"?>
<!DOCTYPE svg PUBLIC "-//W3C//DTD SVG 1.1//EN"
  "http://www.w3.org/Graphics/SVG/1.1/DTD/svg11.dtd">
<svg xmlns:xlink="http://www.w3.org/1999/xlink" width="440.39952pt" height="728.39952pt" viewBox="0 0 440.39952 728.39952" xmlns="http://www.w3.org/2000/svg" version="1.1">
 <metadata>
  <rdf:RDF xmlns:dc="http://purl.org/dc/elements/1.1/" xmlns:cc="http://creativecommons.org/ns#" xmlns:rdf="http://www.w3.org/1999/02/22-rdf-syntax-ns#">
   <cc:Work>
    <dc:type rdf:resource="http://purl.org/dc/dcmitype/StillImage"/>
    <dc:date>2025-10-09T15:30:24.184434</dc:date>
    <dc:format>image/svg+xml</dc:format>
    <dc:creator>
     <cc:Agent>
      <dc:title>Matplotlib v3.10.6, https://matplotlib.org/</dc:title>
     </cc:Agent>
    </dc:creator>
   </cc:Work>
  </rdf:RDF>
 </metadata>
 <defs>
  <style type="text/css">*{stroke-linejoin: round; stroke-linecap: butt}</style>
 </defs>
 <g id="figure_1">
  <g id="patch_1">
   <path d="M 0 728.39952 
L 440.39952 728.39952 
L 440.39952 0 
L 0 0 
z
" style="fill: #ffffff"/>
  </g>
  <g id="axes_1">
   <g id="patch_2">
    <path d="M 40.603125 330.24351 
L 433.19952 330.24351 
L 433.19952 22.318125 
L 40.603125 22.318125 
z
" style="fill: #ffffff"/>
   </g>
   <g id="matplotlib.axis_1">
    <g id="xtick_1">
     <g id="line2d_1">
      <defs>
       <path id="madc0f0a4bf" d="M 0 0 
L 0 3.5 
" style="stroke: #000000; stroke-width: 0.8"/>
      </defs>
      <g>
       <use xlink:href="#madc0f0a4bf" x="58.448416" y="330.24351" style="stroke: #000000; stroke-width: 0.8"/>
      </g>
     </g>
     <g id="text_1">
      <!-- 0 -->
      <g transform="translate(55.267166 344.841947) scale(0.1 -0.1)">
       <defs>
        <path id="DejaVuSans-30" d="M 2034 4250 
Q 1547 4250 1301 3770 
Q 1056 3291 1056 2328 
Q 1056 1369 1301 889 
Q 1547 409 2034 409 
Q 2525 409 2770 889 
Q 3016 1369 3016 2328 
Q 3016 3291 2770 3770 
Q 2525 4250 2034 4250 
z
M 2034 4750 
Q 2819 4750 3233 4129 
Q 3647 3509 3647 2328 
Q 3647 1150 3233 529 
Q 2819 -91 2034 -91 
Q 1250 -91 836 529 
Q 422 1150 422 2328 
Q 422 3509 836 4129 
Q 1250 4750 2034 4750 
z
" transform="scale(0.015625)"/>
       </defs>
       <use xlink:href="#DejaVuSans-30"/>
      </g>
     </g>
    </g>
    <g id="xtick_2">
     <g id="line2d_2">
      <g>
       <use xlink:href="#madc0f0a4bf" x="78.276516" y="330.24351" style="stroke: #000000; stroke-width: 0.8"/>
      </g>
     </g>
     <g id="text_2">
      <!-- 4 -->
      <g transform="translate(75.095266 344.841947) scale(0.1 -0.1)">
       <defs>
        <path id="DejaVuSans-34" d="M 2419 4116 
L 825 1625 
L 2419 1625 
L 2419 4116 
z
M 2253 4666 
L 3047 4666 
L 3047 1625 
L 3713 1625 
L 3713 1100 
L 3047 1100 
L 3047 0 
L 2419 0 
L 2419 1100 
L 313 1100 
L 313 1709 
L 2253 4666 
z
" transform="scale(0.015625)"/>
       </defs>
       <use xlink:href="#DejaVuSans-34"/>
      </g>
     </g>
    </g>
    <g id="xtick_3">
     <g id="line2d_3">
      <g>
       <use xlink:href="#madc0f0a4bf" x="98.104617" y="330.24351" style="stroke: #000000; stroke-width: 0.8"/>
      </g>
     </g>
     <g id="text_3">
      <!-- 8 -->
      <g transform="translate(94.923367 344.841947) scale(0.1 -0.1)">
       <defs>
        <path id="DejaVuSans-38" d="M 2034 2216 
Q 1584 2216 1326 1975 
Q 1069 1734 1069 1313 
Q 1069 891 1326 650 
Q 1584 409 2034 409 
Q 2484 409 2743 651 
Q 3003 894 3003 1313 
Q 3003 1734 2745 1975 
Q 2488 2216 2034 2216 
z
M 1403 2484 
Q 997 2584 770 2862 
Q 544 3141 544 3541 
Q 544 4100 942 4425 
Q 1341 4750 2034 4750 
Q 2731 4750 3128 4425 
Q 3525 4100 3525 3541 
Q 3525 3141 3298 2862 
Q 3072 2584 2669 2484 
Q 3125 2378 3379 2068 
Q 3634 1759 3634 1313 
Q 3634 634 3220 271 
Q 2806 -91 2034 -91 
Q 1263 -91 848 271 
Q 434 634 434 1313 
Q 434 1759 690 2068 
Q 947 2378 1403 2484 
z
M 1172 3481 
Q 1172 3119 1398 2916 
Q 1625 2713 2034 2713 
Q 2441 2713 2670 2916 
Q 2900 3119 2900 3481 
Q 2900 3844 2670 4047 
Q 2441 4250 2034 4250 
Q 1625 4250 1398 4047 
Q 1172 3844 1172 3481 
z
" transform="scale(0.015625)"/>
       </defs>
       <use xlink:href="#DejaVuSans-38"/>
      </g>
     </g>
    </g>
    <g id="xtick_4">
     <g id="line2d_4">
      <g>
       <use xlink:href="#madc0f0a4bf" x="117.932718" y="330.24351" style="stroke: #000000; stroke-width: 0.8"/>
      </g>
     </g>
     <g id="text_4">
      <!-- 12 -->
      <g transform="translate(111.570218 344.841947) scale(0.1 -0.1)">
       <defs>
        <path id="DejaVuSans-31" d="M 794 531 
L 1825 531 
L 1825 4091 
L 703 3866 
L 703 4441 
L 1819 4666 
L 2450 4666 
L 2450 531 
L 3481 531 
L 3481 0 
L 794 0 
L 794 531 
z
" transform="scale(0.015625)"/>
        <path id="DejaVuSans-32" d="M 1228 531 
L 3431 531 
L 3431 0 
L 469 0 
L 469 531 
Q 828 903 1448 1529 
Q 2069 2156 2228 2338 
Q 2531 2678 2651 2914 
Q 2772 3150 2772 3378 
Q 2772 3750 2511 3984 
Q 2250 4219 1831 4219 
Q 1534 4219 1204 4116 
Q 875 4013 500 3803 
L 500 4441 
Q 881 4594 1212 4672 
Q 1544 4750 1819 4750 
Q 2544 4750 2975 4387 
Q 3406 4025 3406 3419 
Q 3406 3131 3298 2873 
Q 3191 2616 2906 2266 
Q 2828 2175 2409 1742 
Q 1991 1309 1228 531 
z
" transform="scale(0.015625)"/>
       </defs>
       <use xlink:href="#DejaVuSans-31"/>
       <use xlink:href="#DejaVuSans-32" transform="translate(63.623047 0)"/>
      </g>
     </g>
    </g>
    <g id="xtick_5">
     <g id="line2d_5">
      <g>
       <use xlink:href="#madc0f0a4bf" x="137.760819" y="330.24351" style="stroke: #000000; stroke-width: 0.8"/>
      </g>
     </g>
     <g id="text_5">
      <!-- 16 -->
      <g transform="translate(131.398319 344.841947) scale(0.1 -0.1)">
       <defs>
        <path id="DejaVuSans-36" d="M 2113 2584 
Q 1688 2584 1439 2293 
Q 1191 2003 1191 1497 
Q 1191 994 1439 701 
Q 1688 409 2113 409 
Q 2538 409 2786 701 
Q 3034 994 3034 1497 
Q 3034 2003 2786 2293 
Q 2538 2584 2113 2584 
z
M 3366 4563 
L 3366 3988 
Q 3128 4100 2886 4159 
Q 2644 4219 2406 4219 
Q 1781 4219 1451 3797 
Q 1122 3375 1075 2522 
Q 1259 2794 1537 2939 
Q 1816 3084 2150 3084 
Q 2853 3084 3261 2657 
Q 3669 2231 3669 1497 
Q 3669 778 3244 343 
Q 2819 -91 2113 -91 
Q 1303 -91 875 529 
Q 447 1150 447 2328 
Q 447 3434 972 4092 
Q 1497 4750 2381 4750 
Q 2619 4750 2861 4703 
Q 3103 4656 3366 4563 
z
" transform="scale(0.015625)"/>
       </defs>
       <use xlink:href="#DejaVuSans-31"/>
       <use xlink:href="#DejaVuSans-36" transform="translate(63.623047 0)"/>
      </g>
     </g>
    </g>
    <g id="xtick_6">
     <g id="line2d_6">
      <g>
       <use xlink:href="#madc0f0a4bf" x="177.41702" y="330.24351" style="stroke: #000000; stroke-width: 0.8"/>
      </g>
     </g>
     <g id="text_6">
      <!-- 24 -->
      <g transform="translate(171.05452 344.841947) scale(0.1 -0.1)">
       <use xlink:href="#DejaVuSans-32"/>
       <use xlink:href="#DejaVuSans-34" transform="translate(63.623047 0)"/>
      </g>
     </g>
    </g>
    <g id="xtick_7">
     <g id="line2d_7">
      <g>
       <use xlink:href="#madc0f0a4bf" x="236.901323" y="330.24351" style="stroke: #000000; stroke-width: 0.8"/>
      </g>
     </g>
     <g id="text_7">
      <!-- 36 -->
      <g transform="translate(230.538823 344.841947) scale(0.1 -0.1)">
       <defs>
        <path id="DejaVuSans-33" d="M 2597 2516 
Q 3050 2419 3304 2112 
Q 3559 1806 3559 1356 
Q 3559 666 3084 287 
Q 2609 -91 1734 -91 
Q 1441 -91 1130 -33 
Q 819 25 488 141 
L 488 750 
Q 750 597 1062 519 
Q 1375 441 1716 441 
Q 2309 441 2620 675 
Q 2931 909 2931 1356 
Q 2931 1769 2642 2001 
Q 2353 2234 1838 2234 
L 1294 2234 
L 1294 2753 
L 1863 2753 
Q 2328 2753 2575 2939 
Q 2822 3125 2822 3475 
Q 2822 3834 2567 4026 
Q 2313 4219 1838 4219 
Q 1578 4219 1281 4162 
Q 984 4106 628 3988 
L 628 4550 
Q 988 4650 1302 4700 
Q 1616 4750 1894 4750 
Q 2613 4750 3031 4423 
Q 3450 4097 3450 3541 
Q 3450 3153 3228 2886 
Q 3006 2619 2597 2516 
z
" transform="scale(0.015625)"/>
       </defs>
       <use xlink:href="#DejaVuSans-33"/>
       <use xlink:href="#DejaVuSans-36" transform="translate(63.623047 0)"/>
      </g>
     </g>
    </g>
    <g id="xtick_8">
     <g id="line2d_8">
      <g>
       <use xlink:href="#madc0f0a4bf" x="296.385625" y="330.24351" style="stroke: #000000; stroke-width: 0.8"/>
      </g>
     </g>
     <g id="text_8">
      <!-- 48 -->
      <g transform="translate(290.023125 344.841947) scale(0.1 -0.1)">
       <use xlink:href="#DejaVuSans-34"/>
       <use xlink:href="#DejaVuSans-38" transform="translate(63.623047 0)"/>
      </g>
     </g>
    </g>
    <g id="xtick_9">
     <g id="line2d_9">
      <g>
       <use xlink:href="#madc0f0a4bf" x="355.869927" y="330.24351" style="stroke: #000000; stroke-width: 0.8"/>
      </g>
     </g>
     <g id="text_9">
      <!-- 60 -->
      <g transform="translate(349.507427 344.841947) scale(0.1 -0.1)">
       <use xlink:href="#DejaVuSans-36"/>
       <use xlink:href="#DejaVuSans-30" transform="translate(63.623047 0)"/>
      </g>
     </g>
    </g>
    <g id="xtick_10">
     <g id="line2d_10">
      <g>
       <use xlink:href="#madc0f0a4bf" x="415.354229" y="330.24351" style="stroke: #000000; stroke-width: 0.8"/>
      </g>
     </g>
     <g id="text_10">
      <!-- 72 -->
      <g transform="translate(408.991729 344.841947) scale(0.1 -0.1)">
       <defs>
        <path id="DejaVuSans-37" d="M 525 4666 
L 3525 4666 
L 3525 4397 
L 1831 0 
L 1172 0 
L 2766 4134 
L 525 4134 
L 525 4666 
z
" transform="scale(0.015625)"/>
       </defs>
       <use xlink:href="#DejaVuSans-37"/>
       <use xlink:href="#DejaVuSans-32" transform="translate(63.623047 0)"/>
      </g>
     </g>
    </g>
    <g id="text_11">
     <!-- time (h) -->
     <g transform="translate(216.945854 358.520072) scale(0.1 -0.1)">
      <defs>
       <path id="DejaVuSans-74" d="M 1172 4494 
L 1172 3500 
L 2356 3500 
L 2356 3053 
L 1172 3053 
L 1172 1153 
Q 1172 725 1289 603 
Q 1406 481 1766 481 
L 2356 481 
L 2356 0 
L 1766 0 
Q 1100 0 847 248 
Q 594 497 594 1153 
L 594 3053 
L 172 3053 
L 172 3500 
L 594 3500 
L 594 4494 
L 1172 4494 
z
" transform="scale(0.015625)"/>
       <path id="DejaVuSans-69" d="M 603 3500 
L 1178 3500 
L 1178 0 
L 603 0 
L 603 3500 
z
M 603 4863 
L 1178 4863 
L 1178 4134 
L 603 4134 
L 603 4863 
z
" transform="scale(0.015625)"/>
       <path id="DejaVuSans-6d" d="M 3328 2828 
Q 3544 3216 3844 3400 
Q 4144 3584 4550 3584 
Q 5097 3584 5394 3201 
Q 5691 2819 5691 2113 
L 5691 0 
L 5113 0 
L 5113 2094 
Q 5113 2597 4934 2840 
Q 4756 3084 4391 3084 
Q 3944 3084 3684 2787 
Q 3425 2491 3425 1978 
L 3425 0 
L 2847 0 
L 2847 2094 
Q 2847 2600 2669 2842 
Q 2491 3084 2119 3084 
Q 1678 3084 1418 2786 
Q 1159 2488 1159 1978 
L 1159 0 
L 581 0 
L 581 3500 
L 1159 3500 
L 1159 2956 
Q 1356 3278 1631 3431 
Q 1906 3584 2284 3584 
Q 2666 3584 2933 3390 
Q 3200 3197 3328 2828 
z
" transform="scale(0.015625)"/>
       <path id="DejaVuSans-65" d="M 3597 1894 
L 3597 1613 
L 953 1613 
Q 991 1019 1311 708 
Q 1631 397 2203 397 
Q 2534 397 2845 478 
Q 3156 559 3463 722 
L 3463 178 
Q 3153 47 2828 -22 
Q 2503 -91 2169 -91 
Q 1331 -91 842 396 
Q 353 884 353 1716 
Q 353 2575 817 3079 
Q 1281 3584 2069 3584 
Q 2775 3584 3186 3129 
Q 3597 2675 3597 1894 
z
M 3022 2063 
Q 3016 2534 2758 2815 
Q 2500 3097 2075 3097 
Q 1594 3097 1305 2825 
Q 1016 2553 972 2059 
L 3022 2063 
z
" transform="scale(0.015625)"/>
       <path id="DejaVuSans-20" transform="scale(0.015625)"/>
       <path id="DejaVuSans-28" d="M 1984 4856 
Q 1566 4138 1362 3434 
Q 1159 2731 1159 2009 
Q 1159 1288 1364 580 
Q 1569 -128 1984 -844 
L 1484 -844 
Q 1016 -109 783 600 
Q 550 1309 550 2009 
Q 550 2706 781 3412 
Q 1013 4119 1484 4856 
L 1984 4856 
z
" transform="scale(0.015625)"/>
       <path id="DejaVuSans-68" d="M 3513 2113 
L 3513 0 
L 2938 0 
L 2938 2094 
Q 2938 2591 2744 2837 
Q 2550 3084 2163 3084 
Q 1697 3084 1428 2787 
Q 1159 2491 1159 1978 
L 1159 0 
L 581 0 
L 581 4863 
L 1159 4863 
L 1159 2956 
Q 1366 3272 1645 3428 
Q 1925 3584 2291 3584 
Q 2894 3584 3203 3211 
Q 3513 2838 3513 2113 
z
" transform="scale(0.015625)"/>
       <path id="DejaVuSans-29" d="M 513 4856 
L 1013 4856 
Q 1481 4119 1714 3412 
Q 1947 2706 1947 2009 
Q 1947 1309 1714 600 
Q 1481 -109 1013 -844 
L 513 -844 
Q 928 -128 1133 580 
Q 1338 1288 1338 2009 
Q 1338 2731 1133 3434 
Q 928 4138 513 4856 
z
" transform="scale(0.015625)"/>
      </defs>
      <use xlink:href="#DejaVuSans-74"/>
      <use xlink:href="#DejaVuSans-69" transform="translate(39.208984 0)"/>
      <use xlink:href="#DejaVuSans-6d" transform="translate(66.992188 0)"/>
      <use xlink:href="#DejaVuSans-65" transform="translate(164.404297 0)"/>
      <use xlink:href="#DejaVuSans-20" transform="translate(225.927734 0)"/>
      <use xlink:href="#DejaVuSans-28" transform="translate(257.714844 0)"/>
      <use xlink:href="#DejaVuSans-68" transform="translate(296.728516 0)"/>
      <use xlink:href="#DejaVuSans-29" transform="translate(360.107422 0)"/>
     </g>
    </g>
   </g>
   <g id="matplotlib.axis_2">
    <g id="ytick_1">
     <g id="line2d_11">
      <defs>
       <path id="ma31e9b0b18" d="M 0 0 
L -3.5 0 
" style="stroke: #000000; stroke-width: 0.8"/>
      </defs>
      <g>
       <use xlink:href="#ma31e9b0b18" x="40.603125" y="312.153633" style="stroke: #000000; stroke-width: 0.8"/>
      </g>
     </g>
     <g id="text_12">
      <!-- 0 -->
      <g transform="translate(27.240625 315.952852) scale(0.1 -0.1)">
       <use xlink:href="#DejaVuSans-30"/>
      </g>
     </g>
    </g>
    <g id="ytick_2">
     <g id="line2d_12">
      <g>
       <use xlink:href="#ma31e9b0b18" x="40.603125" y="271.663865" style="stroke: #000000; stroke-width: 0.8"/>
      </g>
     </g>
     <g id="text_13">
      <!-- 10 -->
      <g transform="translate(20.878125 275.463084) scale(0.1 -0.1)">
       <use xlink:href="#DejaVuSans-31"/>
       <use xlink:href="#DejaVuSans-30" transform="translate(63.623047 0)"/>
      </g>
     </g>
    </g>
    <g id="ytick_3">
     <g id="line2d_13">
      <g>
       <use xlink:href="#ma31e9b0b18" x="40.603125" y="231.174098" style="stroke: #000000; stroke-width: 0.8"/>
      </g>
     </g>
     <g id="text_14">
      <!-- 20 -->
      <g transform="translate(20.878125 234.973316) scale(0.1 -0.1)">
       <use xlink:href="#DejaVuSans-32"/>
       <use xlink:href="#DejaVuSans-30" transform="translate(63.623047 0)"/>
      </g>
     </g>
    </g>
    <g id="ytick_4">
     <g id="line2d_14">
      <g>
       <use xlink:href="#ma31e9b0b18" x="40.603125" y="190.68433" style="stroke: #000000; stroke-width: 0.8"/>
      </g>
     </g>
     <g id="text_15">
      <!-- 30 -->
      <g transform="translate(20.878125 194.483549) scale(0.1 -0.1)">
       <use xlink:href="#DejaVuSans-33"/>
       <use xlink:href="#DejaVuSans-30" transform="translate(63.623047 0)"/>
      </g>
     </g>
    </g>
    <g id="ytick_5">
     <g id="line2d_15">
      <g>
       <use xlink:href="#ma31e9b0b18" x="40.603125" y="150.194562" style="stroke: #000000; stroke-width: 0.8"/>
      </g>
     </g>
     <g id="text_16">
      <!-- 40 -->
      <g transform="translate(20.878125 153.993781) scale(0.1 -0.1)">
       <use xlink:href="#DejaVuSans-34"/>
       <use xlink:href="#DejaVuSans-30" transform="translate(63.623047 0)"/>
      </g>
     </g>
    </g>
    <g id="ytick_6">
     <g id="line2d_16">
      <g>
       <use xlink:href="#ma31e9b0b18" x="40.603125" y="109.704795" style="stroke: #000000; stroke-width: 0.8"/>
      </g>
     </g>
     <g id="text_17">
      <!-- 50 -->
      <g transform="translate(20.878125 113.504013) scale(0.1 -0.1)">
       <defs>
        <path id="DejaVuSans-35" d="M 691 4666 
L 3169 4666 
L 3169 4134 
L 1269 4134 
L 1269 2991 
Q 1406 3038 1543 3061 
Q 1681 3084 1819 3084 
Q 2600 3084 3056 2656 
Q 3513 2228 3513 1497 
Q 3513 744 3044 326 
Q 2575 -91 1722 -91 
Q 1428 -91 1123 -41 
Q 819 9 494 109 
L 494 744 
Q 775 591 1075 516 
Q 1375 441 1709 441 
Q 2250 441 2565 725 
Q 2881 1009 2881 1497 
Q 2881 1984 2565 2268 
Q 2250 2553 1709 2553 
Q 1456 2553 1204 2497 
Q 953 2441 691 2322 
L 691 4666 
z
" transform="scale(0.015625)"/>
       </defs>
       <use xlink:href="#DejaVuSans-35"/>
       <use xlink:href="#DejaVuSans-30" transform="translate(63.623047 0)"/>
      </g>
     </g>
    </g>
    <g id="ytick_7">
     <g id="line2d_17">
      <g>
       <use xlink:href="#ma31e9b0b18" x="40.603125" y="69.215027" style="stroke: #000000; stroke-width: 0.8"/>
      </g>
     </g>
     <g id="text_18">
      <!-- 60 -->
      <g transform="translate(20.878125 73.014246) scale(0.1 -0.1)">
       <use xlink:href="#DejaVuSans-36"/>
       <use xlink:href="#DejaVuSans-30" transform="translate(63.623047 0)"/>
      </g>
     </g>
    </g>
    <g id="ytick_8">
     <g id="line2d_18">
      <g>
       <use xlink:href="#ma31e9b0b18" x="40.603125" y="28.725259" style="stroke: #000000; stroke-width: 0.8"/>
      </g>
     </g>
     <g id="text_19">
      <!-- 70 -->
      <g transform="translate(20.878125 32.524478) scale(0.1 -0.1)">
       <use xlink:href="#DejaVuSans-37"/>
       <use xlink:href="#DejaVuSans-30" transform="translate(63.623047 0)"/>
      </g>
     </g>
    </g>
    <g id="text_20">
     <!-- fraction (ppm) -->
     <g transform="translate(14.798438 212.196442) rotate(-90) scale(0.1 -0.1)">
      <defs>
       <path id="DejaVuSans-66" d="M 2375 4863 
L 2375 4384 
L 1825 4384 
Q 1516 4384 1395 4259 
Q 1275 4134 1275 3809 
L 1275 3500 
L 2222 3500 
L 2222 3053 
L 1275 3053 
L 1275 0 
L 697 0 
L 697 3053 
L 147 3053 
L 147 3500 
L 697 3500 
L 697 3744 
Q 697 4328 969 4595 
Q 1241 4863 1831 4863 
L 2375 4863 
z
" transform="scale(0.015625)"/>
       <path id="DejaVuSans-72" d="M 2631 2963 
Q 2534 3019 2420 3045 
Q 2306 3072 2169 3072 
Q 1681 3072 1420 2755 
Q 1159 2438 1159 1844 
L 1159 0 
L 581 0 
L 581 3500 
L 1159 3500 
L 1159 2956 
Q 1341 3275 1631 3429 
Q 1922 3584 2338 3584 
Q 2397 3584 2469 3576 
Q 2541 3569 2628 3553 
L 2631 2963 
z
" transform="scale(0.015625)"/>
       <path id="DejaVuSans-61" d="M 2194 1759 
Q 1497 1759 1228 1600 
Q 959 1441 959 1056 
Q 959 750 1161 570 
Q 1363 391 1709 391 
Q 2188 391 2477 730 
Q 2766 1069 2766 1631 
L 2766 1759 
L 2194 1759 
z
M 3341 1997 
L 3341 0 
L 2766 0 
L 2766 531 
Q 2569 213 2275 61 
Q 1981 -91 1556 -91 
Q 1019 -91 701 211 
Q 384 513 384 1019 
Q 384 1609 779 1909 
Q 1175 2209 1959 2209 
L 2766 2209 
L 2766 2266 
Q 2766 2663 2505 2880 
Q 2244 3097 1772 3097 
Q 1472 3097 1187 3025 
Q 903 2953 641 2809 
L 641 3341 
Q 956 3463 1253 3523 
Q 1550 3584 1831 3584 
Q 2591 3584 2966 3190 
Q 3341 2797 3341 1997 
z
" transform="scale(0.015625)"/>
       <path id="DejaVuSans-63" d="M 3122 3366 
L 3122 2828 
Q 2878 2963 2633 3030 
Q 2388 3097 2138 3097 
Q 1578 3097 1268 2742 
Q 959 2388 959 1747 
Q 959 1106 1268 751 
Q 1578 397 2138 397 
Q 2388 397 2633 464 
Q 2878 531 3122 666 
L 3122 134 
Q 2881 22 2623 -34 
Q 2366 -91 2075 -91 
Q 1284 -91 818 406 
Q 353 903 353 1747 
Q 353 2603 823 3093 
Q 1294 3584 2113 3584 
Q 2378 3584 2631 3529 
Q 2884 3475 3122 3366 
z
" transform="scale(0.015625)"/>
       <path id="DejaVuSans-6f" d="M 1959 3097 
Q 1497 3097 1228 2736 
Q 959 2375 959 1747 
Q 959 1119 1226 758 
Q 1494 397 1959 397 
Q 2419 397 2687 759 
Q 2956 1122 2956 1747 
Q 2956 2369 2687 2733 
Q 2419 3097 1959 3097 
z
M 1959 3584 
Q 2709 3584 3137 3096 
Q 3566 2609 3566 1747 
Q 3566 888 3137 398 
Q 2709 -91 1959 -91 
Q 1206 -91 779 398 
Q 353 888 353 1747 
Q 353 2609 779 3096 
Q 1206 3584 1959 3584 
z
" transform="scale(0.015625)"/>
       <path id="DejaVuSans-6e" d="M 3513 2113 
L 3513 0 
L 2938 0 
L 2938 2094 
Q 2938 2591 2744 2837 
Q 2550 3084 2163 3084 
Q 1697 3084 1428 2787 
Q 1159 2491 1159 1978 
L 1159 0 
L 581 0 
L 581 3500 
L 1159 3500 
L 1159 2956 
Q 1366 3272 1645 3428 
Q 1925 3584 2291 3584 
Q 2894 3584 3203 3211 
Q 3513 2838 3513 2113 
z
" transform="scale(0.015625)"/>
       <path id="DejaVuSans-70" d="M 1159 525 
L 1159 -1331 
L 581 -1331 
L 581 3500 
L 1159 3500 
L 1159 2969 
Q 1341 3281 1617 3432 
Q 1894 3584 2278 3584 
Q 2916 3584 3314 3078 
Q 3713 2572 3713 1747 
Q 3713 922 3314 415 
Q 2916 -91 2278 -91 
Q 1894 -91 1617 61 
Q 1341 213 1159 525 
z
M 3116 1747 
Q 3116 2381 2855 2742 
Q 2594 3103 2138 3103 
Q 1681 3103 1420 2742 
Q 1159 2381 1159 1747 
Q 1159 1113 1420 752 
Q 1681 391 2138 391 
Q 2594 391 2855 752 
Q 3116 1113 3116 1747 
z
" transform="scale(0.015625)"/>
      </defs>
      <use xlink:href="#DejaVuSans-66"/>
      <use xlink:href="#DejaVuSans-72" transform="translate(35.205078 0)"/>
      <use xlink:href="#DejaVuSans-61" transform="translate(76.318359 0)"/>
      <use xlink:href="#DejaVuSans-63" transform="translate(137.597656 0)"/>
      <use xlink:href="#DejaVuSans-74" transform="translate(192.578125 0)"/>
      <use xlink:href="#DejaVuSans-69" transform="translate(231.787109 0)"/>
      <use xlink:href="#DejaVuSans-6f" transform="translate(259.570312 0)"/>
      <use xlink:href="#DejaVuSans-6e" transform="translate(320.751953 0)"/>
      <use xlink:href="#DejaVuSans-20" transform="translate(384.130859 0)"/>
      <use xlink:href="#DejaVuSans-28" transform="translate(415.917969 0)"/>
      <use xlink:href="#DejaVuSans-70" transform="translate(454.931641 0)"/>
      <use xlink:href="#DejaVuSans-70" transform="translate(518.408203 0)"/>
      <use xlink:href="#DejaVuSans-6d" transform="translate(581.884766 0)"/>
      <use xlink:href="#DejaVuSans-29" transform="translate(679.296875 0)"/>
     </g>
    </g>
   </g>
   <g id="line2d_19">
    <path d="M 58.448416 46.004019 
L 78.276516 94.171834 
L 98.104617 147.832353 
L 117.932718 189.50011 
L 137.760819 241.281484 
L 177.41702 276.544051 
L 236.901323 299.671142 
L 296.385625 312.153633 
L 355.869927 309.493369 
L 415.354229 312.153633 
" clip-path="url(#pada447e25e)" style="fill: none; stroke-dasharray: 1.5,2.475; stroke-dashoffset: 0; stroke: #0000ff; stroke-width: 1.5"/>
    <defs>
     <path id="m1f7c41c076" d="M 0 3 
C 0.795609 3 1.55874 2.683901 2.12132 2.12132 
C 2.683901 1.55874 3 0.795609 3 0 
C 3 -0.795609 2.683901 -1.55874 2.12132 -2.12132 
C 1.55874 -2.683901 0.795609 -3 0 -3 
C -0.795609 -3 -1.55874 -2.683901 -2.12132 -2.12132 
C -2.683901 -1.55874 -3 -0.795609 -3 0 
C -3 0.795609 -2.683901 1.55874 -2.12132 2.12132 
C -1.55874 2.683901 -0.795609 3 0 3 
z
" style="stroke: #0000ff"/>
    </defs>
    <g clip-path="url(#pada447e25e)">
     <use xlink:href="#m1f7c41c076" x="58.448416" y="46.004019" style="fill: #0000ff; stroke: #0000ff"/>
     <use xlink:href="#m1f7c41c076" x="78.276516" y="94.171834" style="fill: #0000ff; stroke: #0000ff"/>
     <use xlink:href="#m1f7c41c076" x="98.104617" y="147.832353" style="fill: #0000ff; stroke: #0000ff"/>
     <use xlink:href="#m1f7c41c076" x="117.932718" y="189.50011" style="fill: #0000ff; stroke: #0000ff"/>
     <use xlink:href="#m1f7c41c076" x="137.760819" y="241.281484" style="fill: #0000ff; stroke: #0000ff"/>
     <use xlink:href="#m1f7c41c076" x="177.41702" y="276.544051" style="fill: #0000ff; stroke: #0000ff"/>
     <use xlink:href="#m1f7c41c076" x="236.901323" y="299.671142" style="fill: #0000ff; stroke: #0000ff"/>
     <use xlink:href="#m1f7c41c076" x="296.385625" y="312.153633" style="fill: #0000ff; stroke: #0000ff"/>
     <use xlink:href="#m1f7c41c076" x="355.869927" y="309.493369" style="fill: #0000ff; stroke: #0000ff"/>
     <use xlink:href="#m1f7c41c076" x="415.354229" y="312.153633" style="fill: #0000ff; stroke: #0000ff"/>
    </g>
   </g>
   <g id="line2d_20">
    <path d="M 58.448416 36.314733 
L 63.405441 54.875892 
L 68.362466 72.295321 
L 73.319491 88.639644 
L 78.276516 103.971728 
L 83.233542 118.350895 
L 88.190567 131.833108 
L 93.147592 144.471168 
L 98.104617 156.314878 
L 103.061642 167.411215 
L 108.018668 177.804483 
L 112.975693 187.536463 
L 117.932718 196.646552 
L 122.889743 205.171894 
L 127.846768 213.147507 
L 132.803794 220.606401 
L 137.760819 227.579689 
L 142.717844 234.096693 
L 147.674869 240.185044 
L 152.631894 245.870779 
L 157.588919 251.178424 
L 162.545945 256.131085 
L 167.50297 260.750525 
L 172.459995 265.057239 
L 177.41702 269.070528 
L 182.374045 272.808562 
L 187.331071 276.288447 
L 192.288096 279.526286 
L 197.245121 282.537232 
L 202.202146 285.335545 
L 207.159171 287.934642 
L 212.116197 290.347144 
L 217.073222 292.584922 
L 222.030247 294.659141 
L 226.987272 296.580297 
L 231.944297 298.358261 
L 236.901323 300.002307 
L 241.858348 301.521153 
L 246.815373 302.922991 
L 251.772398 304.215516 
L 256.729423 305.405956 
L 261.686448 306.501099 
L 266.643474 307.507317 
L 271.600499 308.430593 
L 276.557524 309.276541 
L 281.514549 310.050428 
L 286.471574 310.757197 
L 291.4286 311.401482 
L 296.385625 311.987628 
L 301.34265 312.519709 
L 306.299675 313.001541 
L 311.2567 313.436703 
L 316.213726 313.828544 
L 321.170751 314.1802 
L 326.127776 314.494608 
L 331.084801 314.774517 
L 336.041826 315.022497 
L 340.998851 315.240953 
L 345.955877 315.432131 
L 350.912902 315.598134 
L 355.869927 315.740924 
L 360.826952 315.862333 
L 365.783977 315.964074 
L 370.741003 316.047741 
L 375.698028 316.114825 
L 380.655053 316.166715 
L 385.612078 316.204703 
L 390.569103 316.229995 
L 395.526129 316.243713 
L 400.483154 316.246902 
L 405.440179 316.240531 
L 410.397204 316.225503 
L 415.354229 316.202656 
" clip-path="url(#pada447e25e)" style="fill: none; stroke: #0000ff; stroke-width: 1.5; stroke-linecap: square"/>
   </g>
   <g id="line2d_21">
    <path d="M 58.448416 272.231191 
L 78.276516 281.683059 
L 98.104617 263.465846 
L 117.932718 223.130915 
L 137.760819 234.012545 
L 177.41702 233.812554 
L 236.901323 193.56997 
L 296.385625 146.60337 
L 355.869927 117.06765 
L 415.354229 158.690749 
" clip-path="url(#pada447e25e)" style="fill: none; stroke-dasharray: 1.5,2.475; stroke-dashoffset: 0; stroke: #008000; stroke-width: 1.5"/>
    <defs>
     <path id="m31d10e1871" d="M 0 3 
C 0.795609 3 1.55874 2.683901 2.12132 2.12132 
C 2.683901 1.55874 3 0.795609 3 0 
C 3 -0.795609 2.683901 -1.55874 2.12132 -2.12132 
C 1.55874 -2.683901 0.795609 -3 0 -3 
C -0.795609 -3 -1.55874 -2.683901 -2.12132 -2.12132 
C -2.683901 -1.55874 -3 -0.795609 -3 0 
C -3 0.795609 -2.683901 1.55874 -2.12132 2.12132 
C -1.55874 2.683901 -0.795609 3 0 3 
z
" style="stroke: #008000"/>
    </defs>
    <g clip-path="url(#pada447e25e)">
     <use xlink:href="#m31d10e1871" x="58.448416" y="272.231191" style="fill: #008000; stroke: #008000"/>
     <use xlink:href="#m31d10e1871" x="78.276516" y="281.683059" style="fill: #008000; stroke: #008000"/>
     <use xlink:href="#m31d10e1871" x="98.104617" y="263.465846" style="fill: #008000; stroke: #008000"/>
     <use xlink:href="#m31d10e1871" x="117.932718" y="223.130915" style="fill: #008000; stroke: #008000"/>
     <use xlink:href="#m31d10e1871" x="137.760819" y="234.012545" style="fill: #008000; stroke: #008000"/>
     <use xlink:href="#m31d10e1871" x="177.41702" y="233.812554" style="fill: #008000; stroke: #008000"/>
     <use xlink:href="#m31d10e1871" x="236.901323" y="193.56997" style="fill: #008000; stroke: #008000"/>
     <use xlink:href="#m31d10e1871" x="296.385625" y="146.60337" style="fill: #008000; stroke: #008000"/>
     <use xlink:href="#m31d10e1871" x="355.869927" y="117.06765" style="fill: #008000; stroke: #008000"/>
     <use xlink:href="#m31d10e1871" x="415.354229" y="158.690749" style="fill: #008000; stroke: #008000"/>
    </g>
   </g>
   <g id="line2d_22">
    <path d="M 58.448416 284.285984 
L 63.405441 280.601695 
L 68.362466 276.97581 
L 73.319491 273.407647 
L 78.276516 269.896532 
L 83.233542 266.441797 
L 88.190567 263.042782 
L 93.147592 259.698834 
L 98.104617 256.409305 
L 103.061642 253.173556 
L 108.018668 249.990953 
L 112.975693 246.860868 
L 117.932718 243.782682 
L 122.889743 240.755781 
L 127.846768 237.779556 
L 132.803794 234.853408 
L 137.760819 231.976739 
L 142.717844 229.148963 
L 147.674869 226.369496 
L 152.631894 223.637761 
L 157.588919 220.953188 
L 162.545945 218.315212 
L 167.50297 215.723275 
L 172.459995 213.176823 
L 177.41702 210.67531 
L 182.374045 208.218195 
L 187.331071 205.804941 
L 192.288096 203.435018 
L 197.245121 201.107902 
L 202.202146 198.823074 
L 207.159171 196.580021 
L 212.116197 194.378234 
L 217.073222 192.217211 
L 222.030247 190.096454 
L 226.987272 188.015471 
L 231.944297 185.973774 
L 236.901323 183.970883 
L 241.858348 182.00632 
L 246.815373 180.079613 
L 251.772398 178.190297 
L 256.729423 176.337908 
L 261.686448 174.52199 
L 266.643474 172.742091 
L 271.600499 170.997764 
L 276.557524 169.288566 
L 281.514549 167.61406 
L 286.471574 165.973812 
L 291.4286 164.367394 
L 296.385625 162.794382 
L 301.34265 161.254356 
L 306.299675 159.746902 
L 311.2567 158.271609 
L 316.213726 156.828072 
L 321.170751 155.415887 
L 326.127776 154.034658 
L 331.084801 152.683992 
L 336.041826 151.3635 
L 340.998851 150.072797 
L 345.955877 148.811502 
L 350.912902 147.579239 
L 355.869927 146.375635 
L 360.826952 145.200322 
L 365.783977 144.052936 
L 370.741003 142.933115 
L 375.698028 141.840504 
L 380.655053 140.774749 
L 385.612078 139.735501 
L 390.569103 138.722416 
L 395.526129 137.735151 
L 400.483154 136.77337 
L 405.440179 135.836738 
L 410.397204 134.924925 
L 415.354229 134.037603 
" clip-path="url(#pada447e25e)" style="fill: none; stroke: #008000; stroke-width: 1.5; stroke-linecap: square"/>
   </g>
   <g id="line2d_23">
    <path d="M 58.448416 174.088521 
L 78.276516 197.303007 
L 98.104617 156.961313 
L 117.932718 201.369806 
L 137.760819 68.644197 
L 177.41702 166.154349 
L 236.901323 124.91627 
L 296.385625 100.466411 
L 355.869927 118.841159 
L 415.354229 78.448718 
" clip-path="url(#pada447e25e)" style="fill: none; stroke-dasharray: 1.5,2.475; stroke-dashoffset: 0; stroke: #ff0000; stroke-width: 1.5"/>
    <defs>
     <path id="m993440d9d8" d="M 0 3 
C 0.795609 3 1.55874 2.683901 2.12132 2.12132 
C 2.683901 1.55874 3 0.795609 3 0 
C 3 -0.795609 2.683901 -1.55874 2.12132 -2.12132 
C 1.55874 -2.683901 0.795609 -3 0 -3 
C -0.795609 -3 -1.55874 -2.683901 -2.12132 -2.12132 
C -2.683901 -1.55874 -3 -0.795609 -3 0 
C -3 0.795609 -2.683901 1.55874 -2.12132 2.12132 
C -1.55874 2.683901 -0.795609 3 0 3 
z
" style="stroke: #ff0000"/>
    </defs>
    <g clip-path="url(#pada447e25e)">
     <use xlink:href="#m993440d9d8" x="58.448416" y="174.088521" style="fill: #ff0000; stroke: #ff0000"/>
     <use xlink:href="#m993440d9d8" x="78.276516" y="197.303007" style="fill: #ff0000; stroke: #ff0000"/>
     <use xlink:href="#m993440d9d8" x="98.104617" y="156.961313" style="fill: #ff0000; stroke: #ff0000"/>
     <use xlink:href="#m993440d9d8" x="117.932718" y="201.369806" style="fill: #ff0000; stroke: #ff0000"/>
     <use xlink:href="#m993440d9d8" x="137.760819" y="68.644197" style="fill: #ff0000; stroke: #ff0000"/>
     <use xlink:href="#m993440d9d8" x="177.41702" y="166.154349" style="fill: #ff0000; stroke: #ff0000"/>
     <use xlink:href="#m993440d9d8" x="236.901323" y="124.91627" style="fill: #ff0000; stroke: #ff0000"/>
     <use xlink:href="#m993440d9d8" x="296.385625" y="100.466411" style="fill: #ff0000; stroke: #ff0000"/>
     <use xlink:href="#m993440d9d8" x="355.869927" y="118.841159" style="fill: #ff0000; stroke: #ff0000"/>
     <use xlink:href="#m993440d9d8" x="415.354229" y="78.448718" style="fill: #ff0000; stroke: #ff0000"/>
    </g>
   </g>
   <g id="line2d_24">
    <path d="M 58.448416 187.301833 
L 63.405441 183.736637 
L 68.362466 180.375118 
L 73.319491 177.202305 
L 78.276516 174.204309 
L 83.233542 171.368245 
L 88.190567 168.682158 
L 93.147592 166.13496 
L 98.104617 163.716362 
L 103.061642 161.416818 
L 108.018668 159.227473 
L 112.975693 157.140112 
L 117.932718 155.147112 
L 122.889743 153.241401 
L 127.846768 151.416419 
L 132.803794 149.666077 
L 137.760819 147.984727 
L 142.717844 146.367129 
L 147.674869 144.808421 
L 152.631894 143.304091 
L 157.588919 141.849953 
L 162.545945 140.442122 
L 167.50297 139.076994 
L 172.459995 137.751224 
L 177.41702 136.461708 
L 182.374045 135.205566 
L 187.331071 133.980125 
L 192.288096 132.782904 
L 197.245121 131.6116 
L 202.202146 130.464078 
L 207.159171 129.338352 
L 212.116197 128.232583 
L 217.073222 127.145062 
L 222.030247 126.074201 
L 226.987272 125.018529 
L 231.944297 123.976677 
L 236.901323 122.947377 
L 241.858348 121.929449 
L 246.815373 120.921798 
L 251.772398 119.923408 
L 256.729423 118.933334 
L 261.686448 117.9507 
L 266.643474 116.97469 
L 271.600499 116.004547 
L 276.557524 115.039568 
L 281.514549 114.079099 
L 286.471574 113.122532 
L 291.4286 112.169302 
L 296.385625 111.218884 
L 301.34265 110.270788 
L 306.299675 109.324562 
L 311.2567 108.379782 
L 316.213726 107.436055 
L 321.170751 106.493014 
L 326.127776 105.550318 
L 331.084801 104.607651 
L 336.041826 103.664715 
L 340.998851 102.721237 
L 345.955877 101.776957 
L 350.912902 100.831638 
L 355.869927 99.885055 
L 360.826952 98.936999 
L 365.783977 97.987275 
L 370.741003 97.035703 
L 375.698028 96.08211 
L 380.655053 95.126338 
L 385.612078 94.168238 
L 390.569103 93.207671 
L 395.526129 92.244505 
L 400.483154 91.278618 
L 405.440179 90.309895 
L 410.397204 89.338228 
L 415.354229 88.363514 
" clip-path="url(#pada447e25e)" style="fill: none; stroke: #ff0000; stroke-width: 1.5; stroke-linecap: square"/>
   </g>
   <g id="line2d_25">
    <path d="M 58.448416 296.628239 
L 78.276516 305.121962 
L 98.104617 272.594806 
L 117.932718 286.435959 
L 137.760819 288.529583 
L 177.41702 276.544051 
L 236.901323 284.068028 
L 296.385625 293.156062 
L 355.869927 303.286088 
L 415.354229 306.13548 
" clip-path="url(#pada447e25e)" style="fill: none; stroke-dasharray: 1.5,2.475; stroke-dashoffset: 0; stroke: #00bfbf; stroke-width: 1.5"/>
    <defs>
     <path id="mf4bb24902b" d="M 0 3 
C 0.795609 3 1.55874 2.683901 2.12132 2.12132 
C 2.683901 1.55874 3 0.795609 3 0 
C 3 -0.795609 2.683901 -1.55874 2.12132 -2.12132 
C 1.55874 -2.683901 0.795609 -3 0 -3 
C -0.795609 -3 -1.55874 -2.683901 -2.12132 -2.12132 
C -2.683901 -1.55874 -3 -0.795609 -3 0 
C -3 0.795609 -2.683901 1.55874 -2.12132 2.12132 
C -1.55874 2.683901 -0.795609 3 0 3 
z
" style="stroke: #00bfbf"/>
    </defs>
    <g clip-path="url(#pada447e25e)">
     <use xlink:href="#mf4bb24902b" x="58.448416" y="296.628239" style="fill: #00bfbf; stroke: #00bfbf"/>
     <use xlink:href="#mf4bb24902b" x="78.276516" y="305.121962" style="fill: #00bfbf; stroke: #00bfbf"/>
     <use xlink:href="#mf4bb24902b" x="98.104617" y="272.594806" style="fill: #00bfbf; stroke: #00bfbf"/>
     <use xlink:href="#mf4bb24902b" x="117.932718" y="286.435959" style="fill: #00bfbf; stroke: #00bfbf"/>
     <use xlink:href="#mf4bb24902b" x="137.760819" y="288.529583" style="fill: #00bfbf; stroke: #00bfbf"/>
     <use xlink:href="#mf4bb24902b" x="177.41702" y="276.544051" style="fill: #00bfbf; stroke: #00bfbf"/>
     <use xlink:href="#mf4bb24902b" x="236.901323" y="284.068028" style="fill: #00bfbf; stroke: #00bfbf"/>
     <use xlink:href="#mf4bb24902b" x="296.385625" y="293.156062" style="fill: #00bfbf; stroke: #00bfbf"/>
     <use xlink:href="#mf4bb24902b" x="355.869927" y="303.286088" style="fill: #00bfbf; stroke: #00bfbf"/>
     <use xlink:href="#mf4bb24902b" x="415.354229" y="306.13548" style="fill: #00bfbf; stroke: #00bfbf"/>
    </g>
   </g>
   <g id="line2d_26">
    <path d="M 58.448416 289.944658 
L 63.405441 289.747371 
L 68.362466 289.552644 
L 73.319491 289.360697 
L 78.276516 289.17176 
L 83.233542 288.986067 
L 88.190567 288.803867 
L 93.147592 288.625416 
L 98.104617 288.450979 
L 103.061642 288.280832 
L 108.018668 288.115262 
L 112.975693 287.954567 
L 117.932718 287.799055 
L 122.889743 287.649047 
L 127.846768 287.504874 
L 132.803794 287.366881 
L 137.760819 287.235425 
L 142.717844 287.110877 
L 147.674869 286.99362 
L 152.631894 286.884051 
L 157.588919 286.782584 
L 162.545945 286.689643 
L 167.50297 286.605672 
L 172.459995 286.531128 
L 177.41702 286.466485 
L 182.374045 286.412234 
L 187.331071 286.368883 
L 192.288096 286.336957 
L 197.245121 286.317 
L 202.202146 286.309576 
L 207.159171 286.315267 
L 212.116197 286.334674 
L 217.073222 286.368422 
L 222.030247 286.417154 
L 226.987272 286.481537 
L 231.944297 286.562259 
L 236.901323 286.660033 
L 241.858348 286.775596 
L 246.815373 286.909707 
L 251.772398 287.063154 
L 256.729423 287.236748 
L 261.686448 287.43133 
L 266.643474 287.647767 
L 271.600499 287.886955 
L 276.557524 288.14982 
L 281.514549 288.437318 
L 286.471574 288.750435 
L 291.4286 289.090192 
L 296.385625 289.457641 
L 301.34265 289.85387 
L 306.299675 290.28 
L 311.2567 290.73719 
L 316.213726 291.226634 
L 321.170751 291.749569 
L 326.127776 292.307266 
L 331.084801 292.90104 
L 336.041826 293.532247 
L 340.998851 294.202286 
L 345.955877 294.912602 
L 350.912902 295.664682 
L 355.869927 296.460064 
L 360.826952 297.300332 
L 365.783977 298.18712 
L 370.741003 299.122114 
L 375.698028 300.107053 
L 380.655053 301.143727 
L 385.612078 302.233987 
L 390.569103 303.379738 
L 395.526129 304.582944 
L 400.483154 305.845631 
L 405.440179 307.169887 
L 410.397204 308.557865 
L 415.354229 310.011782 
" clip-path="url(#pada447e25e)" style="fill: none; stroke: #00bfbf; stroke-width: 1.5; stroke-linecap: square"/>
   </g>
   <g id="line2d_27">
    <path d="M 58.448416 143.592211 
L 78.276516 148.081311 
L 98.104617 111.316513 
L 117.932718 136.086479 
L 137.760819 119.526766 
L 177.41702 208.885847 
L 236.901323 165.484365 
L 296.385625 130.319738 
L 355.869927 200.42257 
L 415.354229 231.911602 
" clip-path="url(#pada447e25e)" style="fill: none; stroke-dasharray: 1.5,2.475; stroke-dashoffset: 0; stroke: #bf00bf; stroke-width: 1.5"/>
    <defs>
     <path id="m8ac0ad6e1f" d="M 0 3 
C 0.795609 3 1.55874 2.683901 2.12132 2.12132 
C 2.683901 1.55874 3 0.795609 3 0 
C 3 -0.795609 2.683901 -1.55874 2.12132 -2.12132 
C 1.55874 -2.683901 0.795609 -3 0 -3 
C -0.795609 -3 -1.55874 -2.683901 -2.12132 -2.12132 
C -2.683901 -1.55874 -3 -0.795609 -3 0 
C -3 0.795609 -2.683901 1.55874 -2.12132 2.12132 
C -1.55874 2.683901 -0.795609 3 0 3 
z
" style="stroke: #bf00bf"/>
    </defs>
    <g clip-path="url(#pada447e25e)">
     <use xlink:href="#m8ac0ad6e1f" x="58.448416" y="143.592211" style="fill: #bf00bf; stroke: #bf00bf"/>
     <use xlink:href="#m8ac0ad6e1f" x="78.276516" y="148.081311" style="fill: #bf00bf; stroke: #bf00bf"/>
     <use xlink:href="#m8ac0ad6e1f" x="98.104617" y="111.316513" style="fill: #bf00bf; stroke: #bf00bf"/>
     <use xlink:href="#m8ac0ad6e1f" x="117.932718" y="136.086479" style="fill: #bf00bf; stroke: #bf00bf"/>
     <use xlink:href="#m8ac0ad6e1f" x="137.760819" y="119.526766" style="fill: #bf00bf; stroke: #bf00bf"/>
     <use xlink:href="#m8ac0ad6e1f" x="177.41702" y="208.885847" style="fill: #bf00bf; stroke: #bf00bf"/>
     <use xlink:href="#m8ac0ad6e1f" x="236.901323" y="165.484365" style="fill: #bf00bf; stroke: #bf00bf"/>
     <use xlink:href="#m8ac0ad6e1f" x="296.385625" y="130.319738" style="fill: #bf00bf; stroke: #bf00bf"/>
     <use xlink:href="#m8ac0ad6e1f" x="355.869927" y="200.42257" style="fill: #bf00bf; stroke: #bf00bf"/>
     <use xlink:href="#m8ac0ad6e1f" x="415.354229" y="231.911602" style="fill: #bf00bf; stroke: #bf00bf"/>
    </g>
   </g>
   <g id="line2d_28">
    <path d="M 58.448416 139.415933 
L 63.405441 139.413376 
L 68.362466 139.431107 
L 73.319491 139.469569 
L 78.276516 139.529208 
L 83.233542 139.610481 
L 88.190567 139.713849 
L 93.147592 139.839783 
L 98.104617 139.98876 
L 103.061642 140.161267 
L 108.018668 140.357795 
L 112.975693 140.578847 
L 117.932718 140.824931 
L 122.889743 141.096564 
L 127.846768 141.394273 
L 132.803794 141.718592 
L 137.760819 142.070062 
L 142.717844 142.449236 
L 147.674869 142.856673 
L 152.631894 143.292942 
L 157.588919 143.758621 
L 162.545945 144.254296 
L 167.50297 144.780566 
L 172.459995 145.338034 
L 177.41702 145.927316 
L 182.374045 146.549038 
L 187.331071 147.203833 
L 192.288096 147.892348 
L 197.245121 148.615236 
L 202.202146 149.373162 
L 207.159171 150.166803 
L 212.116197 150.996844 
L 217.073222 151.863982 
L 222.030247 152.768924 
L 226.987272 153.712389 
L 231.944297 154.695106 
L 236.901323 155.717817 
L 241.858348 156.781274 
L 246.815373 157.88624 
L 251.772398 159.033493 
L 256.729423 160.223819 
L 261.686448 161.458019 
L 266.643474 162.736904 
L 271.600499 164.061299 
L 276.557524 165.432042 
L 281.514549 166.849983 
L 286.471574 168.315985 
L 291.4286 169.830923 
L 296.385625 171.395689 
L 301.34265 173.011184 
L 306.299675 174.678327 
L 311.2567 176.398047 
L 316.213726 178.17129 
L 321.170751 179.999015 
L 326.127776 181.882195 
L 331.084801 183.82182 
L 336.041826 185.818893 
L 340.998851 187.874433 
L 345.955877 189.989473 
L 350.912902 192.165063 
L 355.869927 194.402268 
L 360.826952 196.70217 
L 365.783977 199.065866 
L 370.741003 201.49447 
L 375.698028 203.989112 
L 380.655053 206.550941 
L 385.612078 209.18112 
L 390.569103 211.880832 
L 395.526129 214.651277 
L 400.483154 217.493671 
L 405.440179 220.409251 
L 410.397204 223.39927 
L 415.354229 226.465001 
" clip-path="url(#pada447e25e)" style="fill: none; stroke: #bf00bf; stroke-width: 1.5; stroke-linecap: square"/>
   </g>
   <g id="line2d_29">
    <path d="M 58.448416 124.739947 
L 78.276516 180.895775 
L 98.104617 220.864033 
L 117.932718 213.239502 
L 137.760819 248.550422 
L 177.41702 290.787884 
L 236.901323 296.550519 
L 296.385625 312.153633 
L 355.869927 312.153633 
L 415.354229 311.150607 
" clip-path="url(#pada447e25e)" style="fill: none; stroke-dasharray: 1.5,2.475; stroke-dashoffset: 0; stroke: #bfbf00; stroke-width: 1.5"/>
    <defs>
     <path id="m7d6cd0b251" d="M 0 3 
C 0.795609 3 1.55874 2.683901 2.12132 2.12132 
C 2.683901 1.55874 3 0.795609 3 0 
C 3 -0.795609 2.683901 -1.55874 2.12132 -2.12132 
C 1.55874 -2.683901 0.795609 -3 0 -3 
C -0.795609 -3 -1.55874 -2.683901 -2.12132 -2.12132 
C -2.683901 -1.55874 -3 -0.795609 -3 0 
C -3 0.795609 -2.683901 1.55874 -2.12132 2.12132 
C -1.55874 2.683901 -0.795609 3 0 3 
z
" style="stroke: #bfbf00"/>
    </defs>
    <g clip-path="url(#pada447e25e)">
     <use xlink:href="#m7d6cd0b251" x="58.448416" y="124.739947" style="fill: #bfbf00; stroke: #bfbf00"/>
     <use xlink:href="#m7d6cd0b251" x="78.276516" y="180.895775" style="fill: #bfbf00; stroke: #bfbf00"/>
     <use xlink:href="#m7d6cd0b251" x="98.104617" y="220.864033" style="fill: #bfbf00; stroke: #bfbf00"/>
     <use xlink:href="#m7d6cd0b251" x="117.932718" y="213.239502" style="fill: #bfbf00; stroke: #bfbf00"/>
     <use xlink:href="#m7d6cd0b251" x="137.760819" y="248.550422" style="fill: #bfbf00; stroke: #bfbf00"/>
     <use xlink:href="#m7d6cd0b251" x="177.41702" y="290.787884" style="fill: #bfbf00; stroke: #bfbf00"/>
     <use xlink:href="#m7d6cd0b251" x="236.901323" y="296.550519" style="fill: #bfbf00; stroke: #bfbf00"/>
     <use xlink:href="#m7d6cd0b251" x="296.385625" y="312.153633" style="fill: #bfbf00; stroke: #bfbf00"/>
     <use xlink:href="#m7d6cd0b251" x="355.869927" y="312.153633" style="fill: #bfbf00; stroke: #bfbf00"/>
     <use xlink:href="#m7d6cd0b251" x="415.354229" y="311.150607" style="fill: #bfbf00; stroke: #bfbf00"/>
    </g>
   </g>
   <g id="line2d_30">
    <path d="M 58.448416 129.883193 
L 63.405441 141.881668 
L 68.362466 153.128648 
L 73.319491 163.670042 
L 78.276516 173.54899 
L 83.233542 182.806033 
L 88.190567 191.479264 
L 93.147592 199.604475 
L 98.104617 207.215298 
L 103.061642 214.343331 
L 108.018668 221.018262 
L 112.975693 227.267983 
L 117.932718 233.118696 
L 122.889743 238.595019 
L 127.846768 243.720074 
L 132.803794 248.515585 
L 137.760819 253.001954 
L 142.717844 257.198347 
L 147.674869 261.122763 
L 152.631894 264.792108 
L 157.588919 268.22226 
L 162.545945 271.428128 
L 167.50297 274.423715 
L 172.459995 277.222167 
L 177.41702 279.835831 
L 182.374045 282.276297 
L 187.331071 284.554448 
L 192.288096 286.6805 
L 197.245121 288.664044 
L 202.202146 290.514083 
L 207.159171 292.239067 
L 212.116197 293.846928 
L 217.073222 295.345109 
L 222.030247 296.740597 
L 226.987272 298.039945 
L 231.944297 299.249305 
L 236.901323 300.374447 
L 241.858348 301.420786 
L 246.815373 302.393401 
L 251.772398 303.297055 
L 256.729423 304.136216 
L 261.686448 304.915077 
L 266.643474 305.637565 
L 271.600499 306.307367 
L 276.557524 306.927937 
L 281.514549 307.502514 
L 286.471574 308.034134 
L 291.4286 308.525643 
L 296.385625 308.979707 
L 301.34265 309.398826 
L 306.299675 309.785342 
L 311.2567 310.141447 
L 316.213726 310.469197 
L 321.170751 310.770516 
L 326.127776 311.047206 
L 331.084801 311.300955 
L 336.041826 311.533343 
L 340.998851 311.745848 
L 345.955877 311.939854 
L 350.912902 312.116657 
L 355.869927 312.277467 
L 360.826952 312.423417 
L 365.783977 312.555569 
L 370.741003 312.674912 
L 375.698028 312.782374 
L 380.655053 312.878819 
L 385.612078 312.965057 
L 390.569103 313.041845 
L 395.526129 313.109887 
L 400.483154 313.169844 
L 405.440179 313.222331 
L 410.397204 313.267921 
L 415.354229 313.307152 
" clip-path="url(#pada447e25e)" style="fill: none; stroke: #bfbf00; stroke-width: 1.5; stroke-linecap: square"/>
   </g>
   <g id="patch_3">
    <path d="M 40.603125 330.24351 
L 40.603125 22.318125 
" style="fill: none; stroke: #000000; stroke-width: 0.8; stroke-linejoin: miter; stroke-linecap: square"/>
   </g>
   <g id="patch_4">
    <path d="M 433.19952 330.24351 
L 433.19952 22.318125 
" style="fill: none; stroke: #000000; stroke-width: 0.8; stroke-linejoin: miter; stroke-linecap: square"/>
   </g>
   <g id="patch_5">
    <path d="M 40.603125 330.24351 
L 433.19952 330.24351 
" style="fill: none; stroke: #000000; stroke-width: 0.8; stroke-linejoin: miter; stroke-linecap: square"/>
   </g>
   <g id="patch_6">
    <path d="M 40.603125 22.318125 
L 433.19952 22.318125 
" style="fill: none; stroke: #000000; stroke-width: 0.8; stroke-linejoin: miter; stroke-linecap: square"/>
   </g>
   <g id="text_21">
    <!-- Replicate 3 -->
    <g transform="translate(203.423198 16.318125) scale(0.12 -0.12)">
     <defs>
      <path id="DejaVuSans-52" d="M 2841 2188 
Q 3044 2119 3236 1894 
Q 3428 1669 3622 1275 
L 4263 0 
L 3584 0 
L 2988 1197 
Q 2756 1666 2539 1819 
Q 2322 1972 1947 1972 
L 1259 1972 
L 1259 0 
L 628 0 
L 628 4666 
L 2053 4666 
Q 2853 4666 3247 4331 
Q 3641 3997 3641 3322 
Q 3641 2881 3436 2590 
Q 3231 2300 2841 2188 
z
M 1259 4147 
L 1259 2491 
L 2053 2491 
Q 2509 2491 2742 2702 
Q 2975 2913 2975 3322 
Q 2975 3731 2742 3939 
Q 2509 4147 2053 4147 
L 1259 4147 
z
" transform="scale(0.015625)"/>
      <path id="DejaVuSans-6c" d="M 603 4863 
L 1178 4863 
L 1178 0 
L 603 0 
L 603 4863 
z
" transform="scale(0.015625)"/>
     </defs>
     <use xlink:href="#DejaVuSans-52"/>
     <use xlink:href="#DejaVuSans-65" transform="translate(64.982422 0)"/>
     <use xlink:href="#DejaVuSans-70" transform="translate(126.505859 0)"/>
     <use xlink:href="#DejaVuSans-6c" transform="translate(189.982422 0)"/>
     <use xlink:href="#DejaVuSans-69" transform="translate(217.765625 0)"/>
     <use xlink:href="#DejaVuSans-63" transform="translate(245.548828 0)"/>
     <use xlink:href="#DejaVuSans-61" transform="translate(300.529297 0)"/>
     <use xlink:href="#DejaVuSans-74" transform="translate(361.808594 0)"/>
     <use xlink:href="#DejaVuSans-65" transform="translate(401.017578 0)"/>
     <use xlink:href="#DejaVuSans-20" transform="translate(462.541016 0)"/>
     <use xlink:href="#DejaVuSans-33" transform="translate(494.328125 0)"/>
    </g>
   </g>
   <g id="legend_1">
    <g id="patch_7">
     <path d="M 188.963041 118.386875 
L 284.839604 118.386875 
Q 286.839604 118.386875 286.839604 116.386875 
L 286.839604 29.318125 
Q 286.839604 27.318125 284.839604 27.318125 
L 188.963041 27.318125 
Q 186.963041 27.318125 186.963041 29.318125 
L 186.963041 116.386875 
Q 186.963041 118.386875 188.963041 118.386875 
z
" style="fill: #ffffff; opacity: 0.8; stroke: #cccccc; stroke-linejoin: miter"/>
    </g>
    <g id="line2d_31">
     <path d="M 190.963041 35.416562 
L 200.963041 35.416562 
L 210.963041 35.416562 
" style="fill: none; stroke: #0000ff; stroke-width: 1.5; stroke-linecap: square"/>
    </g>
    <g id="text_22">
     <!-- p.Ala109Ter -->
     <g transform="translate(218.963041 38.916562) scale(0.1 -0.1)">
      <defs>
       <path id="DejaVuSans-2e" d="M 684 794 
L 1344 794 
L 1344 0 
L 684 0 
L 684 794 
z
" transform="scale(0.015625)"/>
       <path id="DejaVuSans-41" d="M 2188 4044 
L 1331 1722 
L 3047 1722 
L 2188 4044 
z
M 1831 4666 
L 2547 4666 
L 4325 0 
L 3669 0 
L 3244 1197 
L 1141 1197 
L 716 0 
L 50 0 
L 1831 4666 
z
" transform="scale(0.015625)"/>
       <path id="DejaVuSans-39" d="M 703 97 
L 703 672 
Q 941 559 1184 500 
Q 1428 441 1663 441 
Q 2288 441 2617 861 
Q 2947 1281 2994 2138 
Q 2813 1869 2534 1725 
Q 2256 1581 1919 1581 
Q 1219 1581 811 2004 
Q 403 2428 403 3163 
Q 403 3881 828 4315 
Q 1253 4750 1959 4750 
Q 2769 4750 3195 4129 
Q 3622 3509 3622 2328 
Q 3622 1225 3098 567 
Q 2575 -91 1691 -91 
Q 1453 -91 1209 -44 
Q 966 3 703 97 
z
M 1959 2075 
Q 2384 2075 2632 2365 
Q 2881 2656 2881 3163 
Q 2881 3666 2632 3958 
Q 2384 4250 1959 4250 
Q 1534 4250 1286 3958 
Q 1038 3666 1038 3163 
Q 1038 2656 1286 2365 
Q 1534 2075 1959 2075 
z
" transform="scale(0.015625)"/>
       <path id="DejaVuSans-54" d="M -19 4666 
L 3928 4666 
L 3928 4134 
L 2272 4134 
L 2272 0 
L 1638 0 
L 1638 4134 
L -19 4134 
L -19 4666 
z
" transform="scale(0.015625)"/>
      </defs>
      <use xlink:href="#DejaVuSans-70"/>
      <use xlink:href="#DejaVuSans-2e" transform="translate(63.476562 0)"/>
      <use xlink:href="#DejaVuSans-41" transform="translate(95.263672 0)"/>
      <use xlink:href="#DejaVuSans-6c" transform="translate(163.671875 0)"/>
      <use xlink:href="#DejaVuSans-61" transform="translate(191.455078 0)"/>
      <use xlink:href="#DejaVuSans-31" transform="translate(252.734375 0)"/>
      <use xlink:href="#DejaVuSans-30" transform="translate(316.357422 0)"/>
      <use xlink:href="#DejaVuSans-39" transform="translate(379.980469 0)"/>
      <use xlink:href="#DejaVuSans-54" transform="translate(443.603516 0)"/>
      <use xlink:href="#DejaVuSans-65" transform="translate(487.6875 0)"/>
      <use xlink:href="#DejaVuSans-72" transform="translate(549.210938 0)"/>
     </g>
    </g>
    <g id="line2d_32">
     <path d="M 190.963041 50.094687 
L 200.963041 50.094687 
L 210.963041 50.094687 
" style="fill: none; stroke: #008000; stroke-width: 1.5; stroke-linecap: square"/>
    </g>
    <g id="text_23">
     <!-- p.Asp282Gln -->
     <g transform="translate(218.963041 53.594687) scale(0.1 -0.1)">
      <defs>
       <path id="DejaVuSans-73" d="M 2834 3397 
L 2834 2853 
Q 2591 2978 2328 3040 
Q 2066 3103 1784 3103 
Q 1356 3103 1142 2972 
Q 928 2841 928 2578 
Q 928 2378 1081 2264 
Q 1234 2150 1697 2047 
L 1894 2003 
Q 2506 1872 2764 1633 
Q 3022 1394 3022 966 
Q 3022 478 2636 193 
Q 2250 -91 1575 -91 
Q 1294 -91 989 -36 
Q 684 19 347 128 
L 347 722 
Q 666 556 975 473 
Q 1284 391 1588 391 
Q 1994 391 2212 530 
Q 2431 669 2431 922 
Q 2431 1156 2273 1281 
Q 2116 1406 1581 1522 
L 1381 1569 
Q 847 1681 609 1914 
Q 372 2147 372 2553 
Q 372 3047 722 3315 
Q 1072 3584 1716 3584 
Q 2034 3584 2315 3537 
Q 2597 3491 2834 3397 
z
" transform="scale(0.015625)"/>
       <path id="DejaVuSans-47" d="M 3809 666 
L 3809 1919 
L 2778 1919 
L 2778 2438 
L 4434 2438 
L 4434 434 
Q 4069 175 3628 42 
Q 3188 -91 2688 -91 
Q 1594 -91 976 548 
Q 359 1188 359 2328 
Q 359 3472 976 4111 
Q 1594 4750 2688 4750 
Q 3144 4750 3555 4637 
Q 3966 4525 4313 4306 
L 4313 3634 
Q 3963 3931 3569 4081 
Q 3175 4231 2741 4231 
Q 1884 4231 1454 3753 
Q 1025 3275 1025 2328 
Q 1025 1384 1454 906 
Q 1884 428 2741 428 
Q 3075 428 3337 486 
Q 3600 544 3809 666 
z
" transform="scale(0.015625)"/>
      </defs>
      <use xlink:href="#DejaVuSans-70"/>
      <use xlink:href="#DejaVuSans-2e" transform="translate(63.476562 0)"/>
      <use xlink:href="#DejaVuSans-41" transform="translate(95.263672 0)"/>
      <use xlink:href="#DejaVuSans-73" transform="translate(163.671875 0)"/>
      <use xlink:href="#DejaVuSans-70" transform="translate(215.771484 0)"/>
      <use xlink:href="#DejaVuSans-32" transform="translate(279.248047 0)"/>
      <use xlink:href="#DejaVuSans-38" transform="translate(342.871094 0)"/>
      <use xlink:href="#DejaVuSans-32" transform="translate(406.494141 0)"/>
      <use xlink:href="#DejaVuSans-47" transform="translate(470.117188 0)"/>
      <use xlink:href="#DejaVuSans-6c" transform="translate(547.607422 0)"/>
      <use xlink:href="#DejaVuSans-6e" transform="translate(575.390625 0)"/>
     </g>
    </g>
    <g id="line2d_33">
     <path d="M 190.963041 64.772812 
L 200.963041 64.772812 
L 210.963041 64.772812 
" style="fill: none; stroke: #ff0000; stroke-width: 1.5; stroke-linecap: square"/>
    </g>
    <g id="text_24">
     <!-- p.Ala300Met -->
     <g transform="translate(218.963041 68.272812) scale(0.1 -0.1)">
      <defs>
       <path id="DejaVuSans-4d" d="M 628 4666 
L 1569 4666 
L 2759 1491 
L 3956 4666 
L 4897 4666 
L 4897 0 
L 4281 0 
L 4281 4097 
L 3078 897 
L 2444 897 
L 1241 4097 
L 1241 0 
L 628 0 
L 628 4666 
z
" transform="scale(0.015625)"/>
      </defs>
      <use xlink:href="#DejaVuSans-70"/>
      <use xlink:href="#DejaVuSans-2e" transform="translate(63.476562 0)"/>
      <use xlink:href="#DejaVuSans-41" transform="translate(95.263672 0)"/>
      <use xlink:href="#DejaVuSans-6c" transform="translate(163.671875 0)"/>
      <use xlink:href="#DejaVuSans-61" transform="translate(191.455078 0)"/>
      <use xlink:href="#DejaVuSans-33" transform="translate(252.734375 0)"/>
      <use xlink:href="#DejaVuSans-30" transform="translate(316.357422 0)"/>
      <use xlink:href="#DejaVuSans-30" transform="translate(379.980469 0)"/>
      <use xlink:href="#DejaVuSans-4d" transform="translate(443.603516 0)"/>
      <use xlink:href="#DejaVuSans-65" transform="translate(529.882812 0)"/>
      <use xlink:href="#DejaVuSans-74" transform="translate(591.40625 0)"/>
     </g>
    </g>
    <g id="line2d_34">
     <path d="M 190.963041 79.450937 
L 200.963041 79.450937 
L 210.963041 79.450937 
" style="fill: none; stroke: #00bfbf; stroke-width: 1.5; stroke-linecap: square"/>
    </g>
    <g id="text_25">
     <!-- p.Gln195Leu -->
     <g transform="translate(218.963041 82.950937) scale(0.1 -0.1)">
      <defs>
       <path id="DejaVuSans-4c" d="M 628 4666 
L 1259 4666 
L 1259 531 
L 3531 531 
L 3531 0 
L 628 0 
L 628 4666 
z
" transform="scale(0.015625)"/>
       <path id="DejaVuSans-75" d="M 544 1381 
L 544 3500 
L 1119 3500 
L 1119 1403 
Q 1119 906 1312 657 
Q 1506 409 1894 409 
Q 2359 409 2629 706 
Q 2900 1003 2900 1516 
L 2900 3500 
L 3475 3500 
L 3475 0 
L 2900 0 
L 2900 538 
Q 2691 219 2414 64 
Q 2138 -91 1772 -91 
Q 1169 -91 856 284 
Q 544 659 544 1381 
z
M 1991 3584 
L 1991 3584 
z
" transform="scale(0.015625)"/>
      </defs>
      <use xlink:href="#DejaVuSans-70"/>
      <use xlink:href="#DejaVuSans-2e" transform="translate(63.476562 0)"/>
      <use xlink:href="#DejaVuSans-47" transform="translate(95.263672 0)"/>
      <use xlink:href="#DejaVuSans-6c" transform="translate(172.753906 0)"/>
      <use xlink:href="#DejaVuSans-6e" transform="translate(200.537109 0)"/>
      <use xlink:href="#DejaVuSans-31" transform="translate(263.916016 0)"/>
      <use xlink:href="#DejaVuSans-39" transform="translate(327.539062 0)"/>
      <use xlink:href="#DejaVuSans-35" transform="translate(391.162109 0)"/>
      <use xlink:href="#DejaVuSans-4c" transform="translate(454.785156 0)"/>
      <use xlink:href="#DejaVuSans-65" transform="translate(508.748047 0)"/>
      <use xlink:href="#DejaVuSans-75" transform="translate(570.271484 0)"/>
     </g>
    </g>
    <g id="line2d_35">
     <path d="M 190.963041 94.129062 
L 200.963041 94.129062 
L 210.963041 94.129062 
" style="fill: none; stroke: #bf00bf; stroke-width: 1.5; stroke-linecap: square"/>
    </g>
    <g id="text_26">
     <!-- p.Phe237Ser -->
     <g transform="translate(218.963041 97.629062) scale(0.1 -0.1)">
      <defs>
       <path id="DejaVuSans-50" d="M 1259 4147 
L 1259 2394 
L 2053 2394 
Q 2494 2394 2734 2622 
Q 2975 2850 2975 3272 
Q 2975 3691 2734 3919 
Q 2494 4147 2053 4147 
L 1259 4147 
z
M 628 4666 
L 2053 4666 
Q 2838 4666 3239 4311 
Q 3641 3956 3641 3272 
Q 3641 2581 3239 2228 
Q 2838 1875 2053 1875 
L 1259 1875 
L 1259 0 
L 628 0 
L 628 4666 
z
" transform="scale(0.015625)"/>
       <path id="DejaVuSans-53" d="M 3425 4513 
L 3425 3897 
Q 3066 4069 2747 4153 
Q 2428 4238 2131 4238 
Q 1616 4238 1336 4038 
Q 1056 3838 1056 3469 
Q 1056 3159 1242 3001 
Q 1428 2844 1947 2747 
L 2328 2669 
Q 3034 2534 3370 2195 
Q 3706 1856 3706 1288 
Q 3706 609 3251 259 
Q 2797 -91 1919 -91 
Q 1588 -91 1214 -16 
Q 841 59 441 206 
L 441 856 
Q 825 641 1194 531 
Q 1563 422 1919 422 
Q 2459 422 2753 634 
Q 3047 847 3047 1241 
Q 3047 1584 2836 1778 
Q 2625 1972 2144 2069 
L 1759 2144 
Q 1053 2284 737 2584 
Q 422 2884 422 3419 
Q 422 4038 858 4394 
Q 1294 4750 2059 4750 
Q 2388 4750 2728 4690 
Q 3069 4631 3425 4513 
z
" transform="scale(0.015625)"/>
      </defs>
      <use xlink:href="#DejaVuSans-70"/>
      <use xlink:href="#DejaVuSans-2e" transform="translate(63.476562 0)"/>
      <use xlink:href="#DejaVuSans-50" transform="translate(95.263672 0)"/>
      <use xlink:href="#DejaVuSans-68" transform="translate(155.566406 0)"/>
      <use xlink:href="#DejaVuSans-65" transform="translate(218.945312 0)"/>
      <use xlink:href="#DejaVuSans-32" transform="translate(280.46875 0)"/>
      <use xlink:href="#DejaVuSans-33" transform="translate(344.091797 0)"/>
      <use xlink:href="#DejaVuSans-37" transform="translate(407.714844 0)"/>
      <use xlink:href="#DejaVuSans-53" transform="translate(471.337891 0)"/>
      <use xlink:href="#DejaVuSans-65" transform="translate(534.814453 0)"/>
      <use xlink:href="#DejaVuSans-72" transform="translate(596.337891 0)"/>
     </g>
    </g>
    <g id="line2d_36">
     <path d="M 190.963041 108.807187 
L 200.963041 108.807187 
L 210.963041 108.807187 
" style="fill: none; stroke: #bfbf00; stroke-width: 1.5; stroke-linecap: square"/>
    </g>
    <g id="text_27">
     <!-- p.Met267Ter -->
     <g transform="translate(218.963041 112.307187) scale(0.1 -0.1)">
      <use xlink:href="#DejaVuSans-70"/>
      <use xlink:href="#DejaVuSans-2e" transform="translate(63.476562 0)"/>
      <use xlink:href="#DejaVuSans-4d" transform="translate(95.263672 0)"/>
      <use xlink:href="#DejaVuSans-65" transform="translate(181.542969 0)"/>
      <use xlink:href="#DejaVuSans-74" transform="translate(243.066406 0)"/>
      <use xlink:href="#DejaVuSans-32" transform="translate(282.275391 0)"/>
      <use xlink:href="#DejaVuSans-36" transform="translate(345.898438 0)"/>
      <use xlink:href="#DejaVuSans-37" transform="translate(409.521484 0)"/>
      <use xlink:href="#DejaVuSans-54" transform="translate(473.144531 0)"/>
      <use xlink:href="#DejaVuSans-65" transform="translate(517.228516 0)"/>
      <use xlink:href="#DejaVuSans-72" transform="translate(578.751953 0)"/>
     </g>
    </g>
   </g>
  </g>
  <g id="axes_2">
   <g id="patch_8">
    <path d="M 40.603125 690.84327 
L 433.19952 690.84327 
L 433.19952 382.917885 
L 40.603125 382.917885 
z
" style="fill: #ffffff"/>
   </g>
   <g id="matplotlib.axis_3">
    <g id="xtick_11">
     <g id="line2d_37">
      <g>
       <use xlink:href="#madc0f0a4bf" x="58.448416" y="690.84327" style="stroke: #000000; stroke-width: 0.8"/>
      </g>
     </g>
     <g id="text_28">
      <!-- 0 -->
      <g transform="translate(55.267166 705.441707) scale(0.1 -0.1)">
       <use xlink:href="#DejaVuSans-30"/>
      </g>
     </g>
    </g>
    <g id="xtick_12">
     <g id="line2d_38">
      <g>
       <use xlink:href="#madc0f0a4bf" x="78.276516" y="690.84327" style="stroke: #000000; stroke-width: 0.8"/>
      </g>
     </g>
     <g id="text_29">
      <!-- 4 -->
      <g transform="translate(75.095266 705.441707) scale(0.1 -0.1)">
       <use xlink:href="#DejaVuSans-34"/>
      </g>
     </g>
    </g>
    <g id="xtick_13">
     <g id="line2d_39">
      <g>
       <use xlink:href="#madc0f0a4bf" x="98.104617" y="690.84327" style="stroke: #000000; stroke-width: 0.8"/>
      </g>
     </g>
     <g id="text_30">
      <!-- 8 -->
      <g transform="translate(94.923367 705.441707) scale(0.1 -0.1)">
       <use xlink:href="#DejaVuSans-38"/>
      </g>
     </g>
    </g>
    <g id="xtick_14">
     <g id="line2d_40">
      <g>
       <use xlink:href="#madc0f0a4bf" x="117.932718" y="690.84327" style="stroke: #000000; stroke-width: 0.8"/>
      </g>
     </g>
     <g id="text_31">
      <!-- 12 -->
      <g transform="translate(111.570218 705.441707) scale(0.1 -0.1)">
       <use xlink:href="#DejaVuSans-31"/>
       <use xlink:href="#DejaVuSans-32" transform="translate(63.623047 0)"/>
      </g>
     </g>
    </g>
    <g id="xtick_15">
     <g id="line2d_41">
      <g>
       <use xlink:href="#madc0f0a4bf" x="137.760819" y="690.84327" style="stroke: #000000; stroke-width: 0.8"/>
      </g>
     </g>
     <g id="text_32">
      <!-- 16 -->
      <g transform="translate(131.398319 705.441707) scale(0.1 -0.1)">
       <use xlink:href="#DejaVuSans-31"/>
       <use xlink:href="#DejaVuSans-36" transform="translate(63.623047 0)"/>
      </g>
     </g>
    </g>
    <g id="xtick_16">
     <g id="line2d_42">
      <g>
       <use xlink:href="#madc0f0a4bf" x="177.41702" y="690.84327" style="stroke: #000000; stroke-width: 0.8"/>
      </g>
     </g>
     <g id="text_33">
      <!-- 24 -->
      <g transform="translate(171.05452 705.441707) scale(0.1 -0.1)">
       <use xlink:href="#DejaVuSans-32"/>
       <use xlink:href="#DejaVuSans-34" transform="translate(63.623047 0)"/>
      </g>
     </g>
    </g>
    <g id="xtick_17">
     <g id="line2d_43">
      <g>
       <use xlink:href="#madc0f0a4bf" x="236.901323" y="690.84327" style="stroke: #000000; stroke-width: 0.8"/>
      </g>
     </g>
     <g id="text_34">
      <!-- 36 -->
      <g transform="translate(230.538823 705.441707) scale(0.1 -0.1)">
       <use xlink:href="#DejaVuSans-33"/>
       <use xlink:href="#DejaVuSans-36" transform="translate(63.623047 0)"/>
      </g>
     </g>
    </g>
    <g id="xtick_18">
     <g id="line2d_44">
      <g>
       <use xlink:href="#madc0f0a4bf" x="296.385625" y="690.84327" style="stroke: #000000; stroke-width: 0.8"/>
      </g>
     </g>
     <g id="text_35">
      <!-- 48 -->
      <g transform="translate(290.023125 705.441707) scale(0.1 -0.1)">
       <use xlink:href="#DejaVuSans-34"/>
       <use xlink:href="#DejaVuSans-38" transform="translate(63.623047 0)"/>
      </g>
     </g>
    </g>
    <g id="xtick_19">
     <g id="line2d_45">
      <g>
       <use xlink:href="#madc0f0a4bf" x="355.869927" y="690.84327" style="stroke: #000000; stroke-width: 0.8"/>
      </g>
     </g>
     <g id="text_36">
      <!-- 60 -->
      <g transform="translate(349.507427 705.441707) scale(0.1 -0.1)">
       <use xlink:href="#DejaVuSans-36"/>
       <use xlink:href="#DejaVuSans-30" transform="translate(63.623047 0)"/>
      </g>
     </g>
    </g>
    <g id="xtick_20">
     <g id="line2d_46">
      <g>
       <use xlink:href="#madc0f0a4bf" x="415.354229" y="690.84327" style="stroke: #000000; stroke-width: 0.8"/>
      </g>
     </g>
     <g id="text_37">
      <!-- 72 -->
      <g transform="translate(408.991729 705.441707) scale(0.1 -0.1)">
       <use xlink:href="#DejaVuSans-37"/>
       <use xlink:href="#DejaVuSans-32" transform="translate(63.623047 0)"/>
      </g>
     </g>
    </g>
    <g id="text_38">
     <!-- time (h) -->
     <g transform="translate(216.945854 719.119832) scale(0.1 -0.1)">
      <use xlink:href="#DejaVuSans-74"/>
      <use xlink:href="#DejaVuSans-69" transform="translate(39.208984 0)"/>
      <use xlink:href="#DejaVuSans-6d" transform="translate(66.992188 0)"/>
      <use xlink:href="#DejaVuSans-65" transform="translate(164.404297 0)"/>
      <use xlink:href="#DejaVuSans-20" transform="translate(225.927734 0)"/>
      <use xlink:href="#DejaVuSans-28" transform="translate(257.714844 0)"/>
      <use xlink:href="#DejaVuSans-68" transform="translate(296.728516 0)"/>
      <use xlink:href="#DejaVuSans-29" transform="translate(360.107422 0)"/>
     </g>
    </g>
   </g>
   <g id="matplotlib.axis_4">
    <g id="ytick_9">
     <g id="line2d_47">
      <g>
       <use xlink:href="#ma31e9b0b18" x="40.603125" y="674.014096" style="stroke: #000000; stroke-width: 0.8"/>
      </g>
     </g>
     <g id="text_39">
      <!-- 0 -->
      <g transform="translate(27.240625 677.813314) scale(0.1 -0.1)">
       <use xlink:href="#DejaVuSans-30"/>
      </g>
     </g>
    </g>
    <g id="ytick_10">
     <g id="line2d_48">
      <g>
       <use xlink:href="#ma31e9b0b18" x="40.603125" y="633.202536" style="stroke: #000000; stroke-width: 0.8"/>
      </g>
     </g>
     <g id="text_40">
      <!-- 10 -->
      <g transform="translate(20.878125 637.001755) scale(0.1 -0.1)">
       <use xlink:href="#DejaVuSans-31"/>
       <use xlink:href="#DejaVuSans-30" transform="translate(63.623047 0)"/>
      </g>
     </g>
    </g>
    <g id="ytick_11">
     <g id="line2d_49">
      <g>
       <use xlink:href="#ma31e9b0b18" x="40.603125" y="592.390976" style="stroke: #000000; stroke-width: 0.8"/>
      </g>
     </g>
     <g id="text_41">
      <!-- 20 -->
      <g transform="translate(20.878125 596.190195) scale(0.1 -0.1)">
       <use xlink:href="#DejaVuSans-32"/>
       <use xlink:href="#DejaVuSans-30" transform="translate(63.623047 0)"/>
      </g>
     </g>
    </g>
    <g id="ytick_12">
     <g id="line2d_50">
      <g>
       <use xlink:href="#ma31e9b0b18" x="40.603125" y="551.579416" style="stroke: #000000; stroke-width: 0.8"/>
      </g>
     </g>
     <g id="text_42">
      <!-- 30 -->
      <g transform="translate(20.878125 555.378635) scale(0.1 -0.1)">
       <use xlink:href="#DejaVuSans-33"/>
       <use xlink:href="#DejaVuSans-30" transform="translate(63.623047 0)"/>
      </g>
     </g>
    </g>
    <g id="ytick_13">
     <g id="line2d_51">
      <g>
       <use xlink:href="#ma31e9b0b18" x="40.603125" y="510.767856" style="stroke: #000000; stroke-width: 0.8"/>
      </g>
     </g>
     <g id="text_43">
      <!-- 40 -->
      <g transform="translate(20.878125 514.567075) scale(0.1 -0.1)">
       <use xlink:href="#DejaVuSans-34"/>
       <use xlink:href="#DejaVuSans-30" transform="translate(63.623047 0)"/>
      </g>
     </g>
    </g>
    <g id="ytick_14">
     <g id="line2d_52">
      <g>
       <use xlink:href="#ma31e9b0b18" x="40.603125" y="469.956297" style="stroke: #000000; stroke-width: 0.8"/>
      </g>
     </g>
     <g id="text_44">
      <!-- 50 -->
      <g transform="translate(20.878125 473.755515) scale(0.1 -0.1)">
       <use xlink:href="#DejaVuSans-35"/>
       <use xlink:href="#DejaVuSans-30" transform="translate(63.623047 0)"/>
      </g>
     </g>
    </g>
    <g id="ytick_15">
     <g id="line2d_53">
      <g>
       <use xlink:href="#ma31e9b0b18" x="40.603125" y="429.144737" style="stroke: #000000; stroke-width: 0.8"/>
      </g>
     </g>
     <g id="text_45">
      <!-- 60 -->
      <g transform="translate(20.878125 432.943956) scale(0.1 -0.1)">
       <use xlink:href="#DejaVuSans-36"/>
       <use xlink:href="#DejaVuSans-30" transform="translate(63.623047 0)"/>
      </g>
     </g>
    </g>
    <g id="ytick_16">
     <g id="line2d_54">
      <g>
       <use xlink:href="#ma31e9b0b18" x="40.603125" y="388.333177" style="stroke: #000000; stroke-width: 0.8"/>
      </g>
     </g>
     <g id="text_46">
      <!-- 70 -->
      <g transform="translate(20.878125 392.132396) scale(0.1 -0.1)">
       <use xlink:href="#DejaVuSans-37"/>
       <use xlink:href="#DejaVuSans-30" transform="translate(63.623047 0)"/>
      </g>
     </g>
    </g>
    <g id="text_47">
     <!-- fraction (ppm) -->
     <g transform="translate(14.798438 572.796202) rotate(-90) scale(0.1 -0.1)">
      <use xlink:href="#DejaVuSans-66"/>
      <use xlink:href="#DejaVuSans-72" transform="translate(35.205078 0)"/>
      <use xlink:href="#DejaVuSans-61" transform="translate(76.318359 0)"/>
      <use xlink:href="#DejaVuSans-63" transform="translate(137.597656 0)"/>
      <use xlink:href="#DejaVuSans-74" transform="translate(192.578125 0)"/>
      <use xlink:href="#DejaVuSans-69" transform="translate(231.787109 0)"/>
      <use xlink:href="#DejaVuSans-6f" transform="translate(259.570312 0)"/>
      <use xlink:href="#DejaVuSans-6e" transform="translate(320.751953 0)"/>
      <use xlink:href="#DejaVuSans-20" transform="translate(384.130859 0)"/>
      <use xlink:href="#DejaVuSans-28" transform="translate(415.917969 0)"/>
      <use xlink:href="#DejaVuSans-70" transform="translate(454.931641 0)"/>
      <use xlink:href="#DejaVuSans-70" transform="translate(518.408203 0)"/>
      <use xlink:href="#DejaVuSans-6d" transform="translate(581.884766 0)"/>
      <use xlink:href="#DejaVuSans-29" transform="translate(679.296875 0)"/>
     </g>
    </g>
   </g>
   <g id="line2d_55">
    <path d="M 58.448416 405.74926 
L 78.276516 461.276237 
L 98.104617 524.471349 
L 117.932718 583.341057 
L 137.760819 608.499476 
L 177.41702 647.748239 
L 236.901323 666.167405 
L 296.385625 672.218426 
L 355.869927 673.341555 
L 415.354229 674.014096 
" clip-path="url(#paffb66ebf9)" style="fill: none; stroke-dasharray: 1.5,2.475; stroke-dashoffset: 0; stroke: #0000ff; stroke-width: 1.5"/>
    <g clip-path="url(#paffb66ebf9)">
     <use xlink:href="#m1f7c41c076" x="58.448416" y="405.74926" style="fill: #0000ff; stroke: #0000ff"/>
     <use xlink:href="#m1f7c41c076" x="78.276516" y="461.276237" style="fill: #0000ff; stroke: #0000ff"/>
     <use xlink:href="#m1f7c41c076" x="98.104617" y="524.471349" style="fill: #0000ff; stroke: #0000ff"/>
     <use xlink:href="#m1f7c41c076" x="117.932718" y="583.341057" style="fill: #0000ff; stroke: #0000ff"/>
     <use xlink:href="#m1f7c41c076" x="137.760819" y="608.499476" style="fill: #0000ff; stroke: #0000ff"/>
     <use xlink:href="#m1f7c41c076" x="177.41702" y="647.748239" style="fill: #0000ff; stroke: #0000ff"/>
     <use xlink:href="#m1f7c41c076" x="236.901323" y="666.167405" style="fill: #0000ff; stroke: #0000ff"/>
     <use xlink:href="#m1f7c41c076" x="296.385625" y="672.218426" style="fill: #0000ff; stroke: #0000ff"/>
     <use xlink:href="#m1f7c41c076" x="355.869927" y="673.341555" style="fill: #0000ff; stroke: #0000ff"/>
     <use xlink:href="#m1f7c41c076" x="415.354229" y="674.014096" style="fill: #0000ff; stroke: #0000ff"/>
    </g>
   </g>
   <g id="line2d_56">
    <path d="M 58.448416 396.914493 
L 63.405441 418.633562 
L 68.362466 438.774744 
L 73.319491 457.44748 
L 78.276516 474.753852 
L 83.233542 490.789073 
L 88.190567 505.641929 
L 93.147592 519.395214 
L 98.104617 532.126114 
L 103.061642 543.906588 
L 108.018668 554.803703 
L 112.975693 564.879968 
L 117.932718 574.193629 
L 122.889743 582.798955 
L 127.846768 590.746503 
L 132.803794 598.083363 
L 137.760819 604.85339 
L 142.717844 611.097422 
L 147.674869 616.853478 
L 152.631894 622.156951 
L 157.588919 627.040779 
L 162.545945 631.535615 
L 167.50297 635.669977 
L 172.459995 639.470396 
L 177.41702 642.961544 
L 182.374045 646.166365 
L 187.331071 649.106191 
L 192.288096 651.800849 
L 197.245121 654.268766 
L 202.202146 656.527062 
L 207.159171 658.591643 
L 212.116197 660.477277 
L 217.073222 662.197682 
L 222.030247 663.765586 
L 226.987272 665.192808 
L 231.944297 666.490308 
L 236.901323 667.668258 
L 241.858348 668.736086 
L 246.815373 669.702535 
L 251.772398 670.575709 
L 256.729423 671.363115 
L 261.686448 672.071707 
L 266.643474 672.707925 
L 271.600499 673.277728 
L 276.557524 673.786632 
L 281.514549 674.23974 
L 286.471574 674.641767 
L 291.4286 674.997076 
L 296.385625 675.309693 
L 301.34265 675.583341 
L 306.299675 675.821454 
L 311.2567 676.027201 
L 316.213726 676.203506 
L 321.170751 676.353062 
L 326.127776 676.478353 
L 331.084801 676.581665 
L 336.041826 676.665102 
L 340.998851 676.730599 
L 345.955877 676.779935 
L 350.912902 676.814745 
L 355.869927 676.836529 
L 360.826952 676.846662 
L 365.783977 676.846405 
L 370.741003 676.836915 
L 375.698028 676.819248 
L 380.655053 676.79437 
L 385.612078 676.763163 
L 390.569103 676.726433 
L 395.526129 676.684914 
L 400.483154 676.639274 
L 405.440179 676.590119 
L 410.397204 676.538001 
L 415.354229 676.48342 
" clip-path="url(#paffb66ebf9)" style="fill: none; stroke: #0000ff; stroke-width: 1.5; stroke-linecap: square"/>
   </g>
   <g id="line2d_57">
    <path d="M 58.448416 633.77437 
L 78.276516 610.192738 
L 98.104617 610.164384 
L 117.932718 605.102586 
L 137.760819 581.120232 
L 177.41702 577.158749 
L 236.901323 548.467046 
L 296.385625 480.081721 
L 355.869927 502.51624 
L 415.354229 442.306492 
" clip-path="url(#paffb66ebf9)" style="fill: none; stroke-dasharray: 1.5,2.475; stroke-dashoffset: 0; stroke: #008000; stroke-width: 1.5"/>
    <g clip-path="url(#paffb66ebf9)">
     <use xlink:href="#m31d10e1871" x="58.448416" y="633.77437" style="fill: #008000; stroke: #008000"/>
     <use xlink:href="#m31d10e1871" x="78.276516" y="610.192738" style="fill: #008000; stroke: #008000"/>
     <use xlink:href="#m31d10e1871" x="98.104617" y="610.164384" style="fill: #008000; stroke: #008000"/>
     <use xlink:href="#m31d10e1871" x="117.932718" y="605.102586" style="fill: #008000; stroke: #008000"/>
     <use xlink:href="#m31d10e1871" x="137.760819" y="581.120232" style="fill: #008000; stroke: #008000"/>
     <use xlink:href="#m31d10e1871" x="177.41702" y="577.158749" style="fill: #008000; stroke: #008000"/>
     <use xlink:href="#m31d10e1871" x="236.901323" y="548.467046" style="fill: #008000; stroke: #008000"/>
     <use xlink:href="#m31d10e1871" x="296.385625" y="480.081721" style="fill: #008000; stroke: #008000"/>
     <use xlink:href="#m31d10e1871" x="355.869927" y="502.51624" style="fill: #008000; stroke: #008000"/>
     <use xlink:href="#m31d10e1871" x="415.354229" y="442.306492" style="fill: #008000; stroke: #008000"/>
    </g>
   </g>
   <g id="line2d_58">
    <path d="M 58.448416 629.130876 
L 63.405441 626.636008 
L 68.362466 624.140866 
L 73.319491 621.64545 
L 78.276516 619.14976 
L 83.233542 616.653795 
L 88.190567 614.157554 
L 93.147592 611.661037 
L 98.104617 609.164243 
L 103.061642 606.667172 
L 108.018668 604.169824 
L 112.975693 601.672198 
L 117.932718 599.174293 
L 122.889743 596.676109 
L 127.846768 594.177646 
L 132.803794 591.678903 
L 137.760819 589.17988 
L 142.717844 586.680575 
L 147.674869 584.180989 
L 152.631894 581.681121 
L 157.588919 579.180971 
L 162.545945 576.680538 
L 167.50297 574.179821 
L 172.459995 571.678821 
L 177.41702 569.177536 
L 182.374045 566.675967 
L 187.331071 564.174112 
L 192.288096 561.671972 
L 197.245121 559.169545 
L 202.202146 556.666831 
L 207.159171 554.16383 
L 212.116197 551.660542 
L 217.073222 549.156965 
L 222.030247 546.653099 
L 226.987272 544.148944 
L 231.944297 541.6445 
L 236.901323 539.139765 
L 241.858348 536.63474 
L 246.815373 534.129423 
L 251.772398 531.623815 
L 256.729423 529.117915 
L 261.686448 526.611722 
L 266.643474 524.105236 
L 271.600499 521.598456 
L 276.557524 519.091382 
L 281.514549 516.584014 
L 286.471574 514.07635 
L 291.4286 511.568391 
L 296.385625 509.060136 
L 301.34265 506.551585 
L 306.299675 504.042736 
L 311.2567 501.53359 
L 316.213726 499.024146 
L 321.170751 496.514403 
L 326.127776 494.004362 
L 331.084801 491.494021 
L 336.041826 488.98338 
L 340.998851 486.472438 
L 345.955877 483.961196 
L 350.912902 481.449652 
L 355.869927 478.937806 
L 360.826952 476.425658 
L 365.783977 473.913206 
L 370.741003 471.400452 
L 375.698028 468.887393 
L 380.655053 466.374031 
L 385.612078 463.860363 
L 390.569103 461.34639 
L 395.526129 458.832111 
L 400.483154 456.317525 
L 405.440179 453.802633 
L 410.397204 451.287434 
L 415.354229 448.771927 
" clip-path="url(#paffb66ebf9)" style="fill: none; stroke: #008000; stroke-width: 1.5; stroke-linecap: square"/>
   </g>
   <g id="line2d_59">
    <path d="M 58.448416 534.851712 
L 78.276516 585.373321 
L 98.104617 558.07646 
L 117.932718 533.77313 
L 137.760819 523.428254 
L 177.41702 444.18785 
L 236.901323 477.846831 
L 296.385625 422.620277 
L 355.869927 439.297423 
L 415.354229 488.648013 
" clip-path="url(#paffb66ebf9)" style="fill: none; stroke-dasharray: 1.5,2.475; stroke-dashoffset: 0; stroke: #ff0000; stroke-width: 1.5"/>
    <g clip-path="url(#paffb66ebf9)">
     <use xlink:href="#m993440d9d8" x="58.448416" y="534.851712" style="fill: #ff0000; stroke: #ff0000"/>
     <use xlink:href="#m993440d9d8" x="78.276516" y="585.373321" style="fill: #ff0000; stroke: #ff0000"/>
     <use xlink:href="#m993440d9d8" x="98.104617" y="558.07646" style="fill: #ff0000; stroke: #ff0000"/>
     <use xlink:href="#m993440d9d8" x="117.932718" y="533.77313" style="fill: #ff0000; stroke: #ff0000"/>
     <use xlink:href="#m993440d9d8" x="137.760819" y="523.428254" style="fill: #ff0000; stroke: #ff0000"/>
     <use xlink:href="#m993440d9d8" x="177.41702" y="444.18785" style="fill: #ff0000; stroke: #ff0000"/>
     <use xlink:href="#m993440d9d8" x="236.901323" y="477.846831" style="fill: #ff0000; stroke: #ff0000"/>
     <use xlink:href="#m993440d9d8" x="296.385625" y="422.620277" style="fill: #ff0000; stroke: #ff0000"/>
     <use xlink:href="#m993440d9d8" x="355.869927" y="439.297423" style="fill: #ff0000; stroke: #ff0000"/>
     <use xlink:href="#m993440d9d8" x="415.354229" y="488.648013" style="fill: #ff0000; stroke: #ff0000"/>
    </g>
   </g>
   <g id="line2d_60">
    <path d="M 58.448416 579.902548 
L 63.405441 573.816107 
L 68.362466 567.936001 
L 73.319491 562.257369 
L 78.276516 556.77545 
L 83.233542 551.485582 
L 88.190567 546.383199 
L 93.147592 541.463827 
L 98.104617 536.723089 
L 103.061642 532.156696 
L 108.018668 527.760447 
L 112.975693 523.530231 
L 117.932718 519.462022 
L 122.889743 515.551876 
L 127.846768 511.795933 
L 132.803794 508.190414 
L 137.760819 504.731618 
L 142.717844 501.415923 
L 147.674869 498.239783 
L 152.631894 495.199725 
L 157.588919 492.292352 
L 162.545945 489.514336 
L 167.50297 486.862421 
L 172.459995 484.33342 
L 177.41702 481.924214 
L 182.374045 479.631749 
L 187.331071 477.453037 
L 192.288096 475.385154 
L 197.245121 473.425238 
L 202.202146 471.57049 
L 207.159171 469.818168 
L 212.116197 468.165591 
L 217.073222 466.610136 
L 222.030247 465.149237 
L 226.987272 463.780381 
L 231.944297 462.501112 
L 236.901323 461.309027 
L 241.858348 460.201774 
L 246.815373 459.177054 
L 251.772398 458.232617 
L 256.729423 457.366262 
L 261.686448 456.575838 
L 266.643474 455.85924 
L 271.600499 455.21441 
L 276.557524 454.639335 
L 281.514549 454.132046 
L 286.471574 453.690619 
L 291.4286 453.313173 
L 296.385625 452.997866 
L 301.34265 452.742902 
L 306.299675 452.546521 
L 311.2567 452.407004 
L 316.213726 452.322671 
L 321.170751 452.29188 
L 326.127776 452.313026 
L 331.084801 452.384539 
L 336.041826 452.504886 
L 340.998851 452.67257 
L 345.955877 452.886125 
L 350.912902 453.144123 
L 355.869927 453.445164 
L 360.826952 453.787884 
L 365.783977 454.170948 
L 370.741003 454.593054 
L 375.698028 455.052929 
L 380.655053 455.549329 
L 385.612078 456.081041 
L 390.569103 456.646879 
L 395.526129 457.245685 
L 400.483154 457.876328 
L 405.440179 458.537705 
L 410.397204 459.228738 
L 415.354229 459.948376 
" clip-path="url(#paffb66ebf9)" style="fill: none; stroke: #ff0000; stroke-width: 1.5; stroke-linecap: square"/>
   </g>
   <g id="line2d_61">
    <path d="M 58.448416 658.365314 
L 78.276516 627.920893 
L 98.104617 638.728728 
L 117.932718 636.535906 
L 137.760819 632.94523 
L 177.41702 629.690462 
L 236.901323 644.589006 
L 296.385625 643.487703 
L 355.869927 664.598527 
L 415.354229 665.83618 
" clip-path="url(#paffb66ebf9)" style="fill: none; stroke-dasharray: 1.5,2.475; stroke-dashoffset: 0; stroke: #00bfbf; stroke-width: 1.5"/>
    <g clip-path="url(#paffb66ebf9)">
     <use xlink:href="#mf4bb24902b" x="58.448416" y="658.365314" style="fill: #00bfbf; stroke: #00bfbf"/>
     <use xlink:href="#mf4bb24902b" x="78.276516" y="627.920893" style="fill: #00bfbf; stroke: #00bfbf"/>
     <use xlink:href="#mf4bb24902b" x="98.104617" y="638.728728" style="fill: #00bfbf; stroke: #00bfbf"/>
     <use xlink:href="#mf4bb24902b" x="117.932718" y="636.535906" style="fill: #00bfbf; stroke: #00bfbf"/>
     <use xlink:href="#mf4bb24902b" x="137.760819" y="632.94523" style="fill: #00bfbf; stroke: #00bfbf"/>
     <use xlink:href="#mf4bb24902b" x="177.41702" y="629.690462" style="fill: #00bfbf; stroke: #00bfbf"/>
     <use xlink:href="#mf4bb24902b" x="236.901323" y="644.589006" style="fill: #00bfbf; stroke: #00bfbf"/>
     <use xlink:href="#mf4bb24902b" x="296.385625" y="643.487703" style="fill: #00bfbf; stroke: #00bfbf"/>
     <use xlink:href="#mf4bb24902b" x="355.869927" y="664.598527" style="fill: #00bfbf; stroke: #00bfbf"/>
     <use xlink:href="#mf4bb24902b" x="415.354229" y="665.83618" style="fill: #00bfbf; stroke: #00bfbf"/>
    </g>
   </g>
   <g id="line2d_62">
    <path d="M 58.448416 639.3785 
L 63.405441 639.233797 
L 68.362466 639.095049 
L 73.319491 638.962515 
L 78.276516 638.836465 
L 83.233542 638.717172 
L 88.190567 638.604919 
L 93.147592 638.499999 
L 98.104617 638.402709 
L 103.061642 638.313358 
L 108.018668 638.232261 
L 112.975693 638.159744 
L 117.932718 638.096141 
L 122.889743 638.041794 
L 127.846768 637.997056 
L 132.803794 637.962289 
L 137.760819 637.937867 
L 142.717844 637.92417 
L 147.674869 637.921591 
L 152.631894 637.930535 
L 157.588919 637.951415 
L 162.545945 637.984656 
L 167.50297 638.030696 
L 172.459995 638.089982 
L 177.41702 638.162976 
L 182.374045 638.25015 
L 187.331071 638.351988 
L 192.288096 638.468991 
L 197.245121 638.601668 
L 202.202146 638.750544 
L 207.159171 638.916158 
L 212.116197 639.099063 
L 217.073222 639.299825 
L 222.030247 639.519027 
L 226.987272 639.757265 
L 231.944297 640.015152 
L 236.901323 640.293316 
L 241.858348 640.592402 
L 246.815373 640.913071 
L 251.772398 641.256001 
L 256.729423 641.621887 
L 261.686448 642.011442 
L 266.643474 642.425399 
L 271.600499 642.864508 
L 276.557524 643.329537 
L 281.514549 643.821275 
L 286.471574 644.34053 
L 291.4286 644.888133 
L 296.385625 645.464933 
L 301.34265 646.071801 
L 306.299675 646.70963 
L 311.2567 647.379335 
L 316.213726 648.081857 
L 321.170751 648.818155 
L 326.127776 649.589217 
L 331.084801 650.396051 
L 336.041826 651.239694 
L 340.998851 652.121207 
L 345.955877 653.041677 
L 350.912902 654.002218 
L 355.869927 655.003971 
L 360.826952 656.048105 
L 365.783977 657.13582 
L 370.741003 658.268343 
L 375.698028 659.446931 
L 380.655053 660.672872 
L 385.612078 661.947487 
L 390.569103 663.272126 
L 395.526129 664.648176 
L 400.483154 666.077053 
L 405.440179 667.560211 
L 410.397204 669.099137 
L 415.354229 670.695354 
" clip-path="url(#paffb66ebf9)" style="fill: none; stroke: #00bfbf; stroke-width: 1.5; stroke-linecap: square"/>
   </g>
   <g id="line2d_63">
    <path d="M 58.448416 504.113033 
L 78.276516 482.550023 
L 98.104617 482.464959 
L 117.932718 480.57828 
L 137.760819 473.558916 
L 177.41702 501.644411 
L 236.901323 532.773665 
L 296.385625 593.20894 
L 355.869927 546.903921 
L 415.354229 559.52328 
" clip-path="url(#paffb66ebf9)" style="fill: none; stroke-dasharray: 1.5,2.475; stroke-dashoffset: 0; stroke: #bf00bf; stroke-width: 1.5"/>
    <g clip-path="url(#paffb66ebf9)">
     <use xlink:href="#m8ac0ad6e1f" x="58.448416" y="504.113033" style="fill: #bf00bf; stroke: #bf00bf"/>
     <use xlink:href="#m8ac0ad6e1f" x="78.276516" y="482.550023" style="fill: #bf00bf; stroke: #bf00bf"/>
     <use xlink:href="#m8ac0ad6e1f" x="98.104617" y="482.464959" style="fill: #bf00bf; stroke: #bf00bf"/>
     <use xlink:href="#m8ac0ad6e1f" x="117.932718" y="480.57828" style="fill: #bf00bf; stroke: #bf00bf"/>
     <use xlink:href="#m8ac0ad6e1f" x="137.760819" y="473.558916" style="fill: #bf00bf; stroke: #bf00bf"/>
     <use xlink:href="#m8ac0ad6e1f" x="177.41702" y="501.644411" style="fill: #bf00bf; stroke: #bf00bf"/>
     <use xlink:href="#m8ac0ad6e1f" x="236.901323" y="532.773665" style="fill: #bf00bf; stroke: #bf00bf"/>
     <use xlink:href="#m8ac0ad6e1f" x="296.385625" y="593.20894" style="fill: #bf00bf; stroke: #bf00bf"/>
     <use xlink:href="#m8ac0ad6e1f" x="355.869927" y="546.903921" style="fill: #bf00bf; stroke: #bf00bf"/>
     <use xlink:href="#m8ac0ad6e1f" x="415.354229" y="559.52328" style="fill: #bf00bf; stroke: #bf00bf"/>
    </g>
   </g>
   <g id="line2d_64">
    <path d="M 58.448416 475.945675 
L 63.405441 477.538727 
L 68.362466 479.12387 
L 73.319491 480.701136 
L 78.276516 482.270559 
L 83.233542 483.832172 
L 88.190567 485.386009 
L 93.147592 486.932102 
L 98.104617 488.470484 
L 103.061642 490.001188 
L 108.018668 491.524247 
L 112.975693 493.039693 
L 117.932718 494.547559 
L 122.889743 496.047877 
L 127.846768 497.540678 
L 132.803794 499.025995 
L 137.760819 500.50386 
L 142.717844 501.974305 
L 147.674869 503.437361 
L 152.631894 504.893059 
L 157.588919 506.341432 
L 162.545945 507.78251 
L 167.50297 509.216324 
L 172.459995 510.642906 
L 177.41702 512.062286 
L 182.374045 513.474495 
L 187.331071 514.879564 
L 192.288096 516.277523 
L 197.245121 517.668403 
L 202.202146 519.052233 
L 207.159171 520.429045 
L 212.116197 521.798868 
L 217.073222 523.161732 
L 222.030247 524.517667 
L 226.987272 525.866702 
L 231.944297 527.208868 
L 236.901323 528.544193 
L 241.858348 529.872707 
L 246.815373 531.19444 
L 251.772398 532.509419 
L 256.729423 533.817675 
L 261.686448 535.119236 
L 266.643474 536.414131 
L 271.600499 537.702389 
L 276.557524 538.984038 
L 281.514549 540.259106 
L 286.471574 541.527622 
L 291.4286 542.789614 
L 296.385625 544.045111 
L 301.34265 545.294139 
L 306.299675 546.536728 
L 311.2567 547.772904 
L 316.213726 549.002696 
L 321.170751 550.22613 
L 326.127776 551.443235 
L 331.084801 552.654038 
L 336.041826 553.858566 
L 340.998851 555.056846 
L 345.955877 556.248905 
L 350.912902 557.434769 
L 355.869927 558.614467 
L 360.826952 559.788024 
L 365.783977 560.955467 
L 370.741003 562.116822 
L 375.698028 563.272117 
L 380.655053 564.421376 
L 385.612078 565.564626 
L 390.569103 566.701894 
L 395.526129 567.833206 
L 400.483154 568.958586 
L 405.440179 570.078061 
L 410.397204 571.191657 
L 415.354229 572.299398 
" clip-path="url(#paffb66ebf9)" style="fill: none; stroke: #bf00bf; stroke-width: 1.5; stroke-linecap: square"/>
   </g>
   <g id="line2d_65">
    <path d="M 58.448416 485.11094 
L 78.276516 496.732547 
L 98.104617 598.402594 
L 117.932718 612.35643 
L 137.760819 616.322117 
L 177.41702 639.540159 
L 236.901323 670.09075 
L 296.385625 672.218426 
L 355.869927 671.996474 
L 415.354229 674.014096 
" clip-path="url(#paffb66ebf9)" style="fill: none; stroke-dasharray: 1.5,2.475; stroke-dashoffset: 0; stroke: #bfbf00; stroke-width: 1.5"/>
    <g clip-path="url(#paffb66ebf9)">
     <use xlink:href="#m7d6cd0b251" x="58.448416" y="485.11094" style="fill: #bfbf00; stroke: #bfbf00"/>
     <use xlink:href="#m7d6cd0b251" x="78.276516" y="496.732547" style="fill: #bfbf00; stroke: #bfbf00"/>
     <use xlink:href="#m7d6cd0b251" x="98.104617" y="598.402594" style="fill: #bfbf00; stroke: #bfbf00"/>
     <use xlink:href="#m7d6cd0b251" x="117.932718" y="612.35643" style="fill: #bfbf00; stroke: #bfbf00"/>
     <use xlink:href="#m7d6cd0b251" x="137.760819" y="616.322117" style="fill: #bfbf00; stroke: #bfbf00"/>
     <use xlink:href="#m7d6cd0b251" x="177.41702" y="639.540159" style="fill: #bfbf00; stroke: #bfbf00"/>
     <use xlink:href="#m7d6cd0b251" x="236.901323" y="670.09075" style="fill: #bfbf00; stroke: #bfbf00"/>
     <use xlink:href="#m7d6cd0b251" x="296.385625" y="672.218426" style="fill: #bfbf00; stroke: #bfbf00"/>
     <use xlink:href="#m7d6cd0b251" x="355.869927" y="671.996474" style="fill: #bfbf00; stroke: #bfbf00"/>
     <use xlink:href="#m7d6cd0b251" x="415.354229" y="674.014096" style="fill: #bfbf00; stroke: #bfbf00"/>
    </g>
   </g>
   <g id="line2d_66">
    <path d="M 58.448416 474.350756 
L 63.405441 490.438705 
L 68.362466 505.26039 
L 73.319491 518.913743 
L 78.276516 531.489224 
L 83.233542 543.070386 
L 88.190567 553.734394 
L 93.147592 563.552514 
L 98.104617 572.590551 
L 103.061642 580.909269 
L 108.018668 588.564769 
L 112.975693 595.608843 
L 117.932718 602.089304 
L 122.889743 608.050283 
L 127.846768 613.532514 
L 132.803794 618.573587 
L 137.760819 623.208193 
L 142.717844 627.468341 
L 147.674869 631.383562 
L 152.631894 634.981102 
L 157.588919 638.286093 
L 162.545945 641.321715 
L 167.50297 644.109348 
L 172.459995 646.668706 
L 177.41702 649.017968 
L 182.374045 651.173894 
L 187.331071 653.151935 
L 192.288096 654.966333 
L 197.245121 656.630215 
L 202.202146 658.155676 
L 207.159171 659.553864 
L 212.116197 660.835048 
L 217.073222 662.008687 
L 222.030247 663.083496 
L 226.987272 664.0675 
L 231.944297 664.968089 
L 236.901323 665.792067 
L 241.858348 666.545697 
L 246.815373 667.234744 
L 251.772398 667.864516 
L 256.729423 668.439895 
L 261.686448 668.965371 
L 266.643474 669.445079 
L 271.600499 669.882818 
L 276.557524 670.282083 
L 281.514549 670.646087 
L 286.471574 670.977785 
L 291.4286 671.27989 
L 296.385625 671.554898 
L 301.34265 671.805101 
L 306.299675 672.032604 
L 311.2567 672.23934 
L 316.213726 672.427085 
L 321.170751 672.597468 
L 326.127776 672.751984 
L 331.084801 672.892007 
L 336.041826 673.018794 
L 340.998851 673.133501 
L 345.955877 673.237186 
L 350.912902 673.330819 
L 355.869927 673.41529 
L 360.826952 673.491413 
L 365.783977 673.559934 
L 370.741003 673.621536 
L 375.698028 673.676845 
L 380.655053 673.726434 
L 385.612078 673.770824 
L 390.569103 673.810495 
L 395.526129 673.845884 
L 400.483154 673.877391 
L 405.440179 673.905381 
L 410.397204 673.930187 
L 415.354229 673.952114 
" clip-path="url(#paffb66ebf9)" style="fill: none; stroke: #bfbf00; stroke-width: 1.5; stroke-linecap: square"/>
   </g>
   <g id="patch_9">
    <path d="M 40.603125 690.84327 
L 40.603125 382.917885 
" style="fill: none; stroke: #000000; stroke-width: 0.8; stroke-linejoin: miter; stroke-linecap: square"/>
   </g>
   <g id="patch_10">
    <path d="M 433.19952 690.84327 
L 433.19952 382.917885 
" style="fill: none; stroke: #000000; stroke-width: 0.8; stroke-linejoin: miter; stroke-linecap: square"/>
   </g>
   <g id="patch_11">
    <path d="M 40.603125 690.84327 
L 433.19952 690.84327 
" style="fill: none; stroke: #000000; stroke-width: 0.8; stroke-linejoin: miter; stroke-linecap: square"/>
   </g>
   <g id="patch_12">
    <path d="M 40.603125 382.917885 
L 433.19952 382.917885 
" style="fill: none; stroke: #000000; stroke-width: 0.8; stroke-linejoin: miter; stroke-linecap: square"/>
   </g>
   <g id="text_48">
    <!-- Replicate 4 -->
    <g transform="translate(203.423198 376.917885) scale(0.12 -0.12)">
     <use xlink:href="#DejaVuSans-52"/>
     <use xlink:href="#DejaVuSans-65" transform="translate(64.982422 0)"/>
     <use xlink:href="#DejaVuSans-70" transform="translate(126.505859 0)"/>
     <use xlink:href="#DejaVuSans-6c" transform="translate(189.982422 0)"/>
     <use xlink:href="#DejaVuSans-69" transform="translate(217.765625 0)"/>
     <use xlink:href="#DejaVuSans-63" transform="translate(245.548828 0)"/>
     <use xlink:href="#DejaVuSans-61" transform="translate(300.529297 0)"/>
     <use xlink:href="#DejaVuSans-74" transform="translate(361.808594 0)"/>
     <use xlink:href="#DejaVuSans-65" transform="translate(401.017578 0)"/>
     <use xlink:href="#DejaVuSans-20" transform="translate(462.541016 0)"/>
     <use xlink:href="#DejaVuSans-34" transform="translate(494.328125 0)"/>
    </g>
   </g>
   <g id="legend_2">
    <g id="patch_13">
     <path d="M 47.603125 478.986635 
L 143.479688 478.986635 
Q 145.479688 478.986635 145.479688 476.986635 
L 145.479688 389.917885 
Q 145.479688 387.917885 143.479688 387.917885 
L 47.603125 387.917885 
Q 45.603125 387.917885 45.603125 389.917885 
L 45.603125 476.986635 
Q 45.603125 478.986635 47.603125 478.986635 
z
" style="fill: #ffffff; opacity: 0.8; stroke: #cccccc; stroke-linejoin: miter"/>
    </g>
    <g id="line2d_67">
     <path d="M 49.603125 396.016322 
L 59.603125 396.016322 
L 69.603125 396.016322 
" style="fill: none; stroke: #0000ff; stroke-width: 1.5; stroke-linecap: square"/>
    </g>
    <g id="text_49">
     <!-- p.Ala109Ter -->
     <g transform="translate(77.603125 399.516322) scale(0.1 -0.1)">
      <use xlink:href="#DejaVuSans-70"/>
      <use xlink:href="#DejaVuSans-2e" transform="translate(63.476562 0)"/>
      <use xlink:href="#DejaVuSans-41" transform="translate(95.263672 0)"/>
      <use xlink:href="#DejaVuSans-6c" transform="translate(163.671875 0)"/>
      <use xlink:href="#DejaVuSans-61" transform="translate(191.455078 0)"/>
      <use xlink:href="#DejaVuSans-31" transform="translate(252.734375 0)"/>
      <use xlink:href="#DejaVuSans-30" transform="translate(316.357422 0)"/>
      <use xlink:href="#DejaVuSans-39" transform="translate(379.980469 0)"/>
      <use xlink:href="#DejaVuSans-54" transform="translate(443.603516 0)"/>
      <use xlink:href="#DejaVuSans-65" transform="translate(487.6875 0)"/>
      <use xlink:href="#DejaVuSans-72" transform="translate(549.210938 0)"/>
     </g>
    </g>
    <g id="line2d_68">
     <path d="M 49.603125 410.694447 
L 59.603125 410.694447 
L 69.603125 410.694447 
" style="fill: none; stroke: #008000; stroke-width: 1.5; stroke-linecap: square"/>
    </g>
    <g id="text_50">
     <!-- p.Asp282Gln -->
     <g transform="translate(77.603125 414.194447) scale(0.1 -0.1)">
      <use xlink:href="#DejaVuSans-70"/>
      <use xlink:href="#DejaVuSans-2e" transform="translate(63.476562 0)"/>
      <use xlink:href="#DejaVuSans-41" transform="translate(95.263672 0)"/>
      <use xlink:href="#DejaVuSans-73" transform="translate(163.671875 0)"/>
      <use xlink:href="#DejaVuSans-70" transform="translate(215.771484 0)"/>
      <use xlink:href="#DejaVuSans-32" transform="translate(279.248047 0)"/>
      <use xlink:href="#DejaVuSans-38" transform="translate(342.871094 0)"/>
      <use xlink:href="#DejaVuSans-32" transform="translate(406.494141 0)"/>
      <use xlink:href="#DejaVuSans-47" transform="translate(470.117188 0)"/>
      <use xlink:href="#DejaVuSans-6c" transform="translate(547.607422 0)"/>
      <use xlink:href="#DejaVuSans-6e" transform="translate(575.390625 0)"/>
     </g>
    </g>
    <g id="line2d_69">
     <path d="M 49.603125 425.372572 
L 59.603125 425.372572 
L 69.603125 425.372572 
" style="fill: none; stroke: #ff0000; stroke-width: 1.5; stroke-linecap: square"/>
    </g>
    <g id="text_51">
     <!-- p.Ala300Met -->
     <g transform="translate(77.603125 428.872572) scale(0.1 -0.1)">
      <use xlink:href="#DejaVuSans-70"/>
      <use xlink:href="#DejaVuSans-2e" transform="translate(63.476562 0)"/>
      <use xlink:href="#DejaVuSans-41" transform="translate(95.263672 0)"/>
      <use xlink:href="#DejaVuSans-6c" transform="translate(163.671875 0)"/>
      <use xlink:href="#DejaVuSans-61" transform="translate(191.455078 0)"/>
      <use xlink:href="#DejaVuSans-33" transform="translate(252.734375 0)"/>
      <use xlink:href="#DejaVuSans-30" transform="translate(316.357422 0)"/>
      <use xlink:href="#DejaVuSans-30" transform="translate(379.980469 0)"/>
      <use xlink:href="#DejaVuSans-4d" transform="translate(443.603516 0)"/>
      <use xlink:href="#DejaVuSans-65" transform="translate(529.882812 0)"/>
      <use xlink:href="#DejaVuSans-74" transform="translate(591.40625 0)"/>
     </g>
    </g>
    <g id="line2d_70">
     <path d="M 49.603125 440.050697 
L 59.603125 440.050697 
L 69.603125 440.050697 
" style="fill: none; stroke: #00bfbf; stroke-width: 1.5; stroke-linecap: square"/>
    </g>
    <g id="text_52">
     <!-- p.Gln195Leu -->
     <g transform="translate(77.603125 443.550697) scale(0.1 -0.1)">
      <use xlink:href="#DejaVuSans-70"/>
      <use xlink:href="#DejaVuSans-2e" transform="translate(63.476562 0)"/>
      <use xlink:href="#DejaVuSans-47" transform="translate(95.263672 0)"/>
      <use xlink:href="#DejaVuSans-6c" transform="translate(172.753906 0)"/>
      <use xlink:href="#DejaVuSans-6e" transform="translate(200.537109 0)"/>
      <use xlink:href="#DejaVuSans-31" transform="translate(263.916016 0)"/>
      <use xlink:href="#DejaVuSans-39" transform="translate(327.539062 0)"/>
      <use xlink:href="#DejaVuSans-35" transform="translate(391.162109 0)"/>
      <use xlink:href="#DejaVuSans-4c" transform="translate(454.785156 0)"/>
      <use xlink:href="#DejaVuSans-65" transform="translate(508.748047 0)"/>
      <use xlink:href="#DejaVuSans-75" transform="translate(570.271484 0)"/>
     </g>
    </g>
    <g id="line2d_71">
     <path d="M 49.603125 454.728822 
L 59.603125 454.728822 
L 69.603125 454.728822 
" style="fill: none; stroke: #bf00bf; stroke-width: 1.5; stroke-linecap: square"/>
    </g>
    <g id="text_53">
     <!-- p.Phe237Ser -->
     <g transform="translate(77.603125 458.228822) scale(0.1 -0.1)">
      <use xlink:href="#DejaVuSans-70"/>
      <use xlink:href="#DejaVuSans-2e" transform="translate(63.476562 0)"/>
      <use xlink:href="#DejaVuSans-50" transform="translate(95.263672 0)"/>
      <use xlink:href="#DejaVuSans-68" transform="translate(155.566406 0)"/>
      <use xlink:href="#DejaVuSans-65" transform="translate(218.945312 0)"/>
      <use xlink:href="#DejaVuSans-32" transform="translate(280.46875 0)"/>
      <use xlink:href="#DejaVuSans-33" transform="translate(344.091797 0)"/>
      <use xlink:href="#DejaVuSans-37" transform="translate(407.714844 0)"/>
      <use xlink:href="#DejaVuSans-53" transform="translate(471.337891 0)"/>
      <use xlink:href="#DejaVuSans-65" transform="translate(534.814453 0)"/>
      <use xlink:href="#DejaVuSans-72" transform="translate(596.337891 0)"/>
     </g>
    </g>
    <g id="line2d_72">
     <path d="M 49.603125 469.406947 
L 59.603125 469.406947 
L 69.603125 469.406947 
" style="fill: none; stroke: #bfbf00; stroke-width: 1.5; stroke-linecap: square"/>
    </g>
    <g id="text_54">
     <!-- p.Met267Ter -->
     <g transform="translate(77.603125 472.906947) scale(0.1 -0.1)">
      <use xlink:href="#DejaVuSans-70"/>
      <use xlink:href="#DejaVuSans-2e" transform="translate(63.476562 0)"/>
      <use xlink:href="#DejaVuSans-4d" transform="translate(95.263672 0)"/>
      <use xlink:href="#DejaVuSans-65" transform="translate(181.542969 0)"/>
      <use xlink:href="#DejaVuSans-74" transform="translate(243.066406 0)"/>
      <use xlink:href="#DejaVuSans-32" transform="translate(282.275391 0)"/>
      <use xlink:href="#DejaVuSans-36" transform="translate(345.898438 0)"/>
      <use xlink:href="#DejaVuSans-37" transform="translate(409.521484 0)"/>
      <use xlink:href="#DejaVuSans-54" transform="translate(473.144531 0)"/>
      <use xlink:href="#DejaVuSans-65" transform="translate(517.228516 0)"/>
      <use xlink:href="#DejaVuSans-72" transform="translate(578.751953 0)"/>
     </g>
    </g>
   </g>
  </g>
 </g>
 <defs>
  <clipPath id="pada447e25e">
   <rect x="40.603125" y="22.318125" width="392.596395" height="307.925385"/>
  </clipPath>
  <clipPath id="paffb66ebf9">
   <rect x="40.603125" y="382.917885" width="392.596395" height="307.925385"/>
  </clipPath>
 </defs>
</svg>
