<?xml version="1.0" encoding="UTF-8" standalone="no"?>
<!DOCTYPE svg PUBLIC "-//W3C//DTD SVG 1.0//EN" "http://www.w3.org/TR/2001/PR-SVG-20010719/DTD/svg10.dtd">
<svg width="15cm" height="18cm" viewBox="199 -81 284 342" xmlns="http://www.w3.org/2000/svg" xmlns:xlink="http://www.w3.org/1999/xlink">
  <g>
    <path style="fill: #d8e5e5" d="M 200 176.667 C 224,164.167 236,160 260,160 C 284,160 296,164.167 320,176.667 L 320,243.333 C 296,255.833 284,260 260,260 C 236,260 224,255.833 200,243.333 L 200,176.667z"/>
    <path style="fill: none; fill-opacity:0; stroke-width: 2; stroke: #000000" d="M 200 176.667 C 224,164.167 236,160 260,160 C 284,160 296,164.167 320,176.667 L 320,243.333 C 296,255.833 284,260 260,260 C 236,260 224,255.833 200,243.333 L 200,176.667"/>
    <path style="fill: none; fill-opacity:0; stroke-width: 2; stroke: #000000" d="M 200 176.667 C 224,189.167 236,193.333 260,193.333 C 284,193.333 296,189.167 320,176.667"/>
    <text font-size="12.8" style="fill: #000000;text-anchor:middle;font-family:sans-serif;font-style:normal;font-weight:normal" x="260" y="214.333">
      <tspan x="260" y="214.333">ERP</tspan>
      <tspan x="260" y="230.333">Database</tspan>
    </text>
  </g>
  <g>
    <rect style="fill: #d8e5e5" x="200" y="40" width="120" height="80"/>
    <rect style="fill: none; fill-opacity:0; stroke-width: 2; stroke: #000000" x="200" y="40" width="120" height="80"/>
    <text font-size="12.8" style="fill: #000000;text-anchor:middle;font-family:sans-serif;font-style:normal;font-weight:normal" x="260" y="75.9">
      <tspan x="260" y="75.9">ERP</tspan>
      <tspan x="260" y="91.9">Logic</tspan>
    </text>
  </g>
  <g>
    <line style="fill: none; fill-opacity:0; stroke-width: 2; stroke: #000000" x1="260" y1="120" x2="260" y2="150.264"/>
    <polygon style="fill: #000000" points="260,157.764 255,147.764 260,150.264 265,147.764 "/>
    <polygon style="fill: none; fill-opacity:0; stroke-width: 2; stroke: #000000" points="260,157.764 255,147.764 260,150.264 265,147.764 "/>
  </g>
  <g>
    <rect style="fill: #d8e5e5" x="360" y="41" width="120" height="79"/>
    <rect style="fill: none; fill-opacity:0; stroke-width: 2; stroke: #000000" x="360" y="41" width="120" height="79"/>
    <text font-size="12.8" style="fill: #000000;text-anchor:middle;font-family:sans-serif;font-style:normal;font-weight:normal" x="420" y="76.4">
      <tspan x="420" y="76.4">Web</tspan>
      <tspan x="420" y="92.4">Server</tspan>
    </text>
  </g>
  <g>
    <rect style="fill: #d8e5e5" x="200" y="-80" width="120" height="80"/>
    <rect style="fill: none; fill-opacity:0; stroke-width: 2; stroke: #000000" x="200" y="-80" width="120" height="80"/>
    <text font-size="12.8" style="fill: #000000;text-anchor:middle;font-family:sans-serif;font-style:normal;font-weight:normal" x="260" y="-44.1">
      <tspan x="260" y="-44.1">ERP</tspan>
      <tspan x="260" y="-28.1">Client</tspan>
    </text>
  </g>
  <g>
    <line style="fill: none; fill-opacity:0; stroke-width: 2; stroke: #000000" x1="260" y1="0.898438" x2="260" y2="29.3655"/>
    <polygon style="fill: #000000" points="260,36.8655 255,26.8655 260,29.3655 265,26.8655 "/>
    <polygon style="fill: none; fill-opacity:0; stroke-width: 2; stroke: #000000" points="260,36.8655 255,26.8655 260,29.3655 265,26.8655 "/>
  </g>
  <g>
    <line style="fill: none; fill-opacity:0; stroke-width: 2; stroke: #000000" x1="369.98" y1="120.985" x2="316.708" y2="164.102"/>
    <polygon style="fill: #000000" points="310.879,168.82 315.506,158.642 316.708,164.102 321.797,166.415 "/>
    <polygon style="fill: none; fill-opacity:0; stroke-width: 2; stroke: #000000" points="310.879,168.82 315.506,158.642 316.708,164.102 321.797,166.415 "/>
  </g>
  <g>
    <rect style="fill: #d8e5e5" x="360" y="-80" width="121.5" height="80"/>
    <rect style="fill: none; fill-opacity:0; stroke-width: 2; stroke: #000000" x="360" y="-80" width="121.5" height="80"/>
    <text font-size="12.8" style="fill: #000000;text-anchor:middle;font-family:sans-serif;font-style:normal;font-weight:normal" x="420.75" y="-44.1">
      <tspan x="420.75" y="-44.1">Web</tspan>
      <tspan x="420.75" y="-28.1">Application</tspan>
    </text>
  </g>
  <g>
    <line style="fill: none; fill-opacity:0; stroke-width: 2; stroke: #000000" x1="420.495" y1="0.980591" x2="420.313" y2="30.2689"/>
    <polygon style="fill: #000000" points="420.266,37.7688 415.328,27.7379 420.313,30.2689 425.328,27.8001 "/>
    <polygon style="fill: none; fill-opacity:0; stroke-width: 2; stroke: #000000" points="420.266,37.7688 415.328,27.7379 420.313,30.2689 425.328,27.8001 "/>
  </g>
</svg>
