<?xml version="1.0" encoding="UTF-8" standalone="no"?>
<!-- Created with Inkscape (http://www.inkscape.org/) -->

<svg
   width="67.521545mm"
   height="7.7258091mm"
   viewBox="0 0 67.521545 7.7258091"
   version="1.1"
   id="svg5"
   sodipodi:docname="characters.svg"
   inkscape:version="1.2.2 (b0a8486541, 2022-12-01)"
   xmlns:inkscape="http://www.inkscape.org/namespaces/inkscape"
   xmlns:sodipodi="http://sodipodi.sourceforge.net/DTD/sodipodi-0.dtd"
   xmlns="http://www.w3.org/2000/svg"
   xmlns:svg="http://www.w3.org/2000/svg">
  <sodipodi:namedview
     id="namedview16"
     pagecolor="#ffffff"
     bordercolor="#666666"
     borderopacity="1.0"
     inkscape:showpageshadow="2"
     inkscape:pageopacity="0.0"
     inkscape:pagecheckerboard="0"
     inkscape:deskcolor="#d1d1d1"
     inkscape:document-units="mm"
     showgrid="false"
     inkscape:zoom="0.88016274"
     inkscape:cx="197.69071"
     inkscape:cy="226.66263"
     inkscape:window-width="1909"
     inkscape:window-height="2121"
     inkscape:window-x="1925"
     inkscape:window-y="5"
     inkscape:window-maximized="1"
     inkscape:current-layer="svg5" />
  <defs
     id="defs2" />
  <g
     id="layer1"
     transform="translate(-52.603866,-88.840973)">
    <path
       d="m 58.382348,92.873211 c 0,-2.254243 -1.174746,-3.788822 -2.899824,-3.788822 -1.904994,0 -2.878658,1.936744 -2.878658,3.714738 0,2.233077 1.174747,3.767655 2.878658,3.767655 1.703911,0 2.899824,-1.523995 2.899824,-3.693571 z m -1.142996,-0.07408 c 0,1.566329 -0.349249,3.259657 -1.735662,3.259657 -0.698497,0 -1.756827,-0.465665 -1.756827,-3.14324 0,-1.142997 0.275165,-3.323156 1.777994,-3.323156 1.407579,0 1.714495,1.725077 1.714495,3.206739 z"
       style="font-size:10.5833px;line-height:1.25;font-family:'TeX Gyre Bonum';-inkscape-font-specification:'TeX Gyre Bonum';letter-spacing:0px;word-spacing:0px;stroke-width:0.264583"
       id="path310" />
    <path
       d="M 64.044422,96.429199 V 96.1117 l -0.338666,-0.02117 c -0.80433,-0.05292 -0.952497,-0.22225 -0.952497,-1.132413 v -5.736149 h -0.338665 c -0.687915,0.15875 -0.910164,0.201083 -1.968494,0.328082 v 0.317499 l 0.423332,0.02117 c 0.772581,0.03175 0.878414,0.15875 0.878414,0.99483 v 4.053404 c 0,0.592665 0.04233,1.09008 -0.96308,1.15358 l -0.349249,0.02117 v 0.317499 z"
       style="font-size:10.5833px;line-height:1.25;font-family:'TeX Gyre Bonum';-inkscape-font-specification:'TeX Gyre Bonum';letter-spacing:0px;word-spacing:0px;stroke-width:0.264583"
       id="path275" />
    <path
       d="m 71.399824,94.450122 -0.402165,-0.105833 -0.105833,0.243416 c -0.359832,0.825497 -0.603248,0.973664 -1.566329,0.973664 h -2.402409 c 1.259413,-0.793748 1.650995,-1.068914 2.169577,-1.502829 1.238246,-1.037163 1.852077,-2.010827 1.852077,-2.910407 0,-1.206496 -1.079496,-2.063744 -2.603492,-2.063744 -1.386412,0 -2.550575,0.910164 -2.550575,1.989661 0,0.507998 0.317499,0.888997 0.719665,0.888997 0.317499,0 0.603248,-0.275166 0.603248,-0.571498 0,-0.105833 -0.05292,-0.243416 -0.127,-0.338666 -0.190499,-0.232833 -0.222249,-0.306916 -0.222249,-0.486832 0,-0.507998 0.719664,-0.973663 1.492245,-0.973663 0.867831,0 1.439329,0.571498 1.439329,1.407579 0,0.80433 -0.391582,1.608661 -1.269996,2.592908 -0.698498,0.772581 -1.344079,1.280579 -2.677575,2.095493 v 0.740831 h 5.143484 z"
       style="font-size:10.5833px;line-height:1.25;font-family:'TeX Gyre Bonum';-inkscape-font-specification:'TeX Gyre Bonum';letter-spacing:0px;word-spacing:0px;stroke-width:0.264583"
       id="path277" />
    <path
       d="m 77.961478,94.354872 c 0,-1.555745 -1.661578,-1.83091 -2.127243,-1.92616 1.640411,-0.370416 1.756828,-1.259413 1.756828,-1.619245 0,-0.99483 -1.068914,-1.725078 -2.529409,-1.725078 -1.682745,0 -2.381242,1.05833 -2.381242,1.714495 0,0.391582 0.264582,0.677331 0.613831,0.677331 0.317499,0 0.582082,-0.232833 0.582082,-0.507998 0,-0.254 -0.179917,-0.433916 -0.179917,-0.624415 0,-0.433915 0.582082,-0.783164 1.301746,-0.783164 0.878414,0 1.449912,0.518581 1.449912,1.322912 0,1.111247 -1.037163,1.386412 -1.714494,1.386412 l -0.529165,-0.02117 v 0.476248 c 0.433915,-0.04233 0.613831,-0.05292 0.740831,-0.05292 0.793747,0 1.820327,0.338665 1.820327,1.703911 0,1.079497 -0.677331,1.714495 -1.809744,1.714495 -1.269996,0 -1.523995,-0.656165 -1.523995,-0.814914 0,-0.127 0.09525,-0.232833 0.09525,-0.476249 0,-0.338666 -0.243416,-0.592665 -0.592665,-0.592665 -0.359832,0 -0.645581,0.328083 -0.645581,0.730248 0,0.709081 0.846664,1.629828 2.624658,1.629828 1.777994,0 3.04799,-0.920747 3.04799,-2.21191 z"
       style="font-size:10.5833px;line-height:1.25;font-family:'TeX Gyre Bonum';-inkscape-font-specification:'TeX Gyre Bonum';letter-spacing:0px;word-spacing:0px;stroke-width:0.264583"
       id="path279" />
    <path
       d="m 84.777132,93.857457 h -1.608661 v -4.635485 h -1.005414 l -3.471322,4.804818 0.15875,0.433915 h 3.312572 v 0.444499 c 0,0.687915 -0.02117,1.132413 -0.677331,1.18533 l -0.349249,0.02117 v 0.317499 h 3.058574 V 96.1117 L 83.845802,96.09053 C 83.231971,96.03761 83.168471,95.656614 83.168471,94.9052 V 94.460705 H 84.5443 Z m -2.614075,0 h -2.719908 c 0.0635,-0.09525 0,0 2.719908,-3.735904 z"
       style="font-size:10.5833px;line-height:1.25;font-family:'TeX Gyre Bonum';-inkscape-font-specification:'TeX Gyre Bonum';letter-spacing:0px;word-spacing:0px;stroke-width:0.264583"
       id="path281" />
    <path
       d="m 91.169455,93.931541 c 0,-1.418163 -1.09008,-2.391826 -2.666992,-2.391826 -0.709081,0 -1.185329,0.169333 -1.809744,0.666748 v -2.11666 h 3.619488 l 0.179916,-1.24883 h -0.402165 c -0.190499,0.328083 -0.317499,0.380999 -0.857247,0.380999 h -3.196157 v 3.799405 l 0.455082,0.105833 c 0.529165,-0.730248 0.941914,-0.973664 1.661578,-0.973664 1.12183,0 1.820328,0.751414 1.820328,1.936744 0,1.217079 -0.761998,2.000244 -1.936744,2.000244 -0.687915,0 -1.259413,-0.285749 -1.259413,-0.656165 0,-0.179916 0.105833,-0.317499 0.105833,-0.507998 0,-0.317499 -0.285749,-0.592665 -0.613831,-0.592665 -0.359832,0 -0.645581,0.306916 -0.645581,0.677331 0,0.878414 1.121829,1.555745 2.561158,1.555745 1.767411,0 2.984491,-1.079496 2.984491,-2.635241 z"
       style="font-size:10.5833px;line-height:1.25;font-family:'TeX Gyre Bonum';-inkscape-font-specification:'TeX Gyre Bonum';letter-spacing:0px;word-spacing:0px;stroke-width:0.264583"
       id="path283" />
    <path
       d="m 97.794608,94.15379 c 0,-1.344079 -1.079497,-2.328326 -2.550576,-2.328326 -0.89958,0 -1.513411,0.328082 -2.063743,1.079496 0.04233,-0.740831 0.04233,-0.793747 0.08467,-1.111246 0.201083,-1.523995 0.846664,-2.285993 1.915578,-2.285993 0.412748,0 0.783164,0.127 0.984246,0.328083 0.07408,0.07408 0.09525,0.148166 0.105833,0.296332 0,0.497415 0.264583,0.836081 0.666748,0.836081 0.317499,0 0.550332,-0.22225 0.550332,-0.518582 0,-0.719664 -1.068913,-1.365246 -2.27541,-1.365246 -1.291162,0 -3.185573,0.888997 -3.185573,3.979321 0,2.846908 1.756828,3.503072 2.931574,3.503072 1.598079,0 2.836325,-1.047747 2.836325,-2.412992 z m -1.195913,0.05292 c 0,1.132413 -0.645582,1.852078 -1.661578,1.852078 -1.037164,0 -1.661578,-0.677331 -1.661578,-1.777995 0,-1.164163 0.666748,-1.904994 1.725077,-1.904994 0.963081,0 1.598079,0.719665 1.598079,1.830911 z"
       style="font-size:10.5833px;line-height:1.25;font-family:'TeX Gyre Bonum';-inkscape-font-specification:'TeX Gyre Bonum';letter-spacing:0px;word-spacing:0px;stroke-width:0.264583"
       id="path285" />
    <path
       d="m 104.31393,89.88872 -0.0847,-0.666748 H 99.085781 L 98.747116,91.1058 h 0.338665 c 0.306916,-0.888998 0.645582,-1.015997 1.682749,-1.015997 h 2.77282 c -1.85208,1.89441 -3.16441,4.243903 -3.545405,6.339396 h 1.365245 c 0,0 0,-3.20674 2.95274,-6.540479 z"
       style="font-size:10.5833px;line-height:1.25;font-family:'TeX Gyre Bonum';-inkscape-font-specification:'TeX Gyre Bonum';letter-spacing:0px;word-spacing:0px;stroke-width:0.264583"
       id="path287" />
    <path
       d="m 110.84383,94.280789 c 0,-1.195912 -1.03716,-1.629828 -1.89441,-1.936743 0.73025,-0.1905 1.59808,-0.571499 1.59808,-1.576912 0,-0.984247 -1.04774,-1.682745 -2.51882,-1.682745 -1.47108,0 -2.50825,0.814914 -2.50825,1.968494 0,1.015997 0.762,1.396996 1.397,1.650995 -0.762,0.232832 -1.77799,0.677331 -1.77799,1.873244 0,1.142996 1.18533,1.98966 2.77282,1.98966 1.68275,0 2.93157,-0.973663 2.93157,-2.285993 z m -1.16416,-3.471322 c 0,0.677331 -0.47625,1.174746 -1.26999,1.354662 -0.84667,-0.264582 -1.95791,-0.486831 -1.95791,-1.386412 0,-0.719664 0.74083,-1.269996 1.69332,-1.269996 0.889,0 1.53458,0.550332 1.53458,1.301746 z m 0.23283,3.873488 c 0,0.846664 -0.81491,1.460495 -1.91557,1.460495 -1.17475,0 -1.92616,-0.613831 -1.92616,-1.555745 0,-0.793747 0.42333,-1.322912 1.36524,-1.693328 1.29116,0.412749 2.47649,0.603248 2.47649,1.788578 z"
       style="font-size:10.5833px;line-height:1.25;font-family:'TeX Gyre Bonum';-inkscape-font-specification:'TeX Gyre Bonum';letter-spacing:0px;word-spacing:0px;stroke-width:0.264583"
       id="path289" />
    <path
       d="m 117.3314,92.650961 c 0,-3.026823 -1.72507,-3.566572 -2.87865,-3.566572 -1.5875,0 -2.82574,1.068914 -2.82574,2.444742 0,1.333496 1.04774,2.296577 2.50824,2.296577 1.28058,0 1.77799,-0.656165 2.09549,-1.195913 0,0.910163 -0.13758,1.873244 -0.32808,2.328326 -0.30692,0.730247 -0.91016,1.132413 -1.68275,1.132413 -0.33866,0 -0.70908,-0.09525 -0.89958,-0.22225 -0.30691,-0.190499 -0.15875,-0.370415 -0.24341,-0.634998 -0.0953,-0.296332 -0.34925,-0.497415 -0.62442,-0.497415 -0.28575,0 -0.51858,0.232833 -0.51858,0.529165 0,0.677331 1.05833,1.301746 2.22249,1.301746 1.27,0 3.17499,-0.634998 3.17499,-3.915821 z m -1.22766,-1.269996 c 0,1.18533 -0.64558,1.936744 -1.68274,1.936744 -1.00542,0 -1.651,-0.740831 -1.651,-1.883827 0,-1.132413 0.67733,-1.873244 1.7145,-1.873244 0.99483,0 1.61924,0.698498 1.61924,1.820327 z"
       style="font-size:10.5833px;line-height:1.25;font-family:'TeX Gyre Bonum';-inkscape-font-specification:'TeX Gyre Bonum';letter-spacing:0px;word-spacing:0px;stroke-width:0.264583"
       id="path291" />
    <path
       d="m 120.12541,95.889451 c 0,-0.370416 -0.30692,-0.677331 -0.66675,-0.677331 -0.381,0 -0.68792,0.296332 -0.68792,0.666748 0,0.380998 0.30692,0.687914 0.67734,0.687914 0.37041,0 0.67733,-0.306916 0.67733,-0.677331 z m 0,-4.011071 c 0,-0.370415 -0.30692,-0.677331 -0.66675,-0.677331 -0.381,0 -0.68792,0.296333 -0.68792,0.677331 0,0.370416 0.30692,0.677332 0.67734,0.677332 0.37041,0 0.67733,-0.306916 0.67733,-0.677332 z"
       style="font-size:10.5833px;line-height:1.25;font-family:'TeX Gyre Bonum';-inkscape-font-specification:'TeX Gyre Bonum';letter-spacing:0px;word-spacing:0px;stroke-width:0.264583"
       id="path293" />
  </g>
</svg>
