<?xml version="1.0" encoding="utf-8" standalone="no"?>
<!DOCTYPE svg PUBLIC "-//W3C//DTD SVG 1.1//EN"
  "http://www.w3.org/Graphics/SVG/1.1/DTD/svg11.dtd">
<svg xmlns:xlink="http://www.w3.org/1999/xlink" width="440.39952pt" height="872.39952pt" viewBox="0 0 440.39952 872.39952" xmlns="http://www.w3.org/2000/svg" version="1.1">
 <metadata>
  <rdf:RDF xmlns:dc="http://purl.org/dc/elements/1.1/" xmlns:cc="http://creativecommons.org/ns#" xmlns:rdf="http://www.w3.org/1999/02/22-rdf-syntax-ns#">
   <cc:Work>
    <dc:type rdf:resource="http://purl.org/dc/dcmitype/StillImage"/>
    <dc:date>2025-09-26T23:09:40.850132</dc:date>
    <dc:format>image/svg+xml</dc:format>
    <dc:creator>
     <cc:Agent>
      <dc:title>Matplotlib v3.10.6, https://matplotlib.org/</dc:title>
     </cc:Agent>
    </dc:creator>
   </cc:Work>
  </rdf:RDF>
 </metadata>
 <defs>
  <style type="text/css">*{stroke-linejoin: round; stroke-linecap: butt}</style>
 </defs>
 <g id="figure_1">
  <g id="patch_1">
   <path d="M 0 872.39952 
L 440.39952 872.39952 
L 440.39952 0 
L 0 0 
z
" style="fill: #ffffff"/>
  </g>
  <g id="axes_1">
   <g id="patch_2">
    <path d="M 33.2875 200.521395 
L 433.19952 200.521395 
L 433.19952 22.318125 
L 33.2875 22.318125 
z
" style="fill: #ffffff"/>
   </g>
   <g id="patch_3">
    <path d="M 60.554229 200.521395 
L 133.265505 200.521395 
L 133.265505 200.521395 
L 60.554229 200.521395 
z
" clip-path="url(#pc97d1323b4)" style="fill: #1f77b4"/>
   </g>
   <g id="patch_4">
    <path d="M 151.443324 200.521395 
L 224.1546 200.521395 
L 224.1546 30.803995 
L 151.443324 30.803995 
z
" clip-path="url(#pc97d1323b4)" style="fill: #1f77b4"/>
   </g>
   <g id="patch_5">
    <path d="M 242.33242 200.521395 
L 315.043696 200.521395 
L 315.043696 191.5889 
L 242.33242 191.5889 
z
" clip-path="url(#pc97d1323b4)" style="fill: #1f77b4"/>
   </g>
   <g id="patch_6">
    <path d="M 333.221515 200.521395 
L 405.932791 200.521395 
L 405.932791 200.521395 
L 333.221515 200.521395 
z
" clip-path="url(#pc97d1323b4)" style="fill: #1f77b4"/>
   </g>
   <g id="matplotlib.axis_1">
    <g id="xtick_1">
     <g id="line2d_1">
      <defs>
       <path id="m3622ef96f0" d="M 0 0 
L 0 3.5 
" style="stroke: #000000; stroke-width: 0.8"/>
      </defs>
      <g>
       <use xlink:href="#m3622ef96f0" x="96.909867" y="200.521395" style="stroke: #000000; stroke-width: 0.8"/>
      </g>
     </g>
     <g id="text_1">
      <!-- 0.25 -->
      <g transform="translate(85.777054 215.119833) scale(0.1 -0.1)">
       <defs>
        <path id="DejaVuSans-30" d="M 2034 4250 
Q 1547 4250 1301 3770 
Q 1056 3291 1056 2328 
Q 1056 1369 1301 889 
Q 1547 409 2034 409 
Q 2525 409 2770 889 
Q 3016 1369 3016 2328 
Q 3016 3291 2770 3770 
Q 2525 4250 2034 4250 
z
M 2034 4750 
Q 2819 4750 3233 4129 
Q 3647 3509 3647 2328 
Q 3647 1150 3233 529 
Q 2819 -91 2034 -91 
Q 1250 -91 836 529 
Q 422 1150 422 2328 
Q 422 3509 836 4129 
Q 1250 4750 2034 4750 
z
" transform="scale(0.015625)"/>
        <path id="DejaVuSans-2e" d="M 684 794 
L 1344 794 
L 1344 0 
L 684 0 
L 684 794 
z
" transform="scale(0.015625)"/>
        <path id="DejaVuSans-32" d="M 1228 531 
L 3431 531 
L 3431 0 
L 469 0 
L 469 531 
Q 828 903 1448 1529 
Q 2069 2156 2228 2338 
Q 2531 2678 2651 2914 
Q 2772 3150 2772 3378 
Q 2772 3750 2511 3984 
Q 2250 4219 1831 4219 
Q 1534 4219 1204 4116 
Q 875 4013 500 3803 
L 500 4441 
Q 881 4594 1212 4672 
Q 1544 4750 1819 4750 
Q 2544 4750 2975 4387 
Q 3406 4025 3406 3419 
Q 3406 3131 3298 2873 
Q 3191 2616 2906 2266 
Q 2828 2175 2409 1742 
Q 1991 1309 1228 531 
z
" transform="scale(0.015625)"/>
        <path id="DejaVuSans-35" d="M 691 4666 
L 3169 4666 
L 3169 4134 
L 1269 4134 
L 1269 2991 
Q 1406 3038 1543 3061 
Q 1681 3084 1819 3084 
Q 2600 3084 3056 2656 
Q 3513 2228 3513 1497 
Q 3513 744 3044 326 
Q 2575 -91 1722 -91 
Q 1428 -91 1123 -41 
Q 819 9 494 109 
L 494 744 
Q 775 591 1075 516 
Q 1375 441 1709 441 
Q 2250 441 2565 725 
Q 2881 1009 2881 1497 
Q 2881 1984 2565 2268 
Q 2250 2553 1709 2553 
Q 1456 2553 1204 2497 
Q 953 2441 691 2322 
L 691 4666 
z
" transform="scale(0.015625)"/>
       </defs>
       <use xlink:href="#DejaVuSans-30"/>
       <use xlink:href="#DejaVuSans-2e" transform="translate(63.623047 0)"/>
       <use xlink:href="#DejaVuSans-32" transform="translate(95.410156 0)"/>
       <use xlink:href="#DejaVuSans-35" transform="translate(159.033203 0)"/>
      </g>
     </g>
    </g>
    <g id="xtick_2">
     <g id="line2d_2">
      <g>
       <use xlink:href="#m3622ef96f0" x="187.798962" y="200.521395" style="stroke: #000000; stroke-width: 0.8"/>
      </g>
     </g>
     <g id="text_2">
      <!-- 0.50 -->
      <g transform="translate(176.66615 215.119833) scale(0.1 -0.1)">
       <use xlink:href="#DejaVuSans-30"/>
       <use xlink:href="#DejaVuSans-2e" transform="translate(63.623047 0)"/>
       <use xlink:href="#DejaVuSans-35" transform="translate(95.410156 0)"/>
       <use xlink:href="#DejaVuSans-30" transform="translate(159.033203 0)"/>
      </g>
     </g>
    </g>
    <g id="xtick_3">
     <g id="line2d_3">
      <g>
       <use xlink:href="#m3622ef96f0" x="278.688058" y="200.521395" style="stroke: #000000; stroke-width: 0.8"/>
      </g>
     </g>
     <g id="text_3">
      <!-- 0.75 -->
      <g transform="translate(267.555245 215.119833) scale(0.1 -0.1)">
       <defs>
        <path id="DejaVuSans-37" d="M 525 4666 
L 3525 4666 
L 3525 4397 
L 1831 0 
L 1172 0 
L 2766 4134 
L 525 4134 
L 525 4666 
z
" transform="scale(0.015625)"/>
       </defs>
       <use xlink:href="#DejaVuSans-30"/>
       <use xlink:href="#DejaVuSans-2e" transform="translate(63.623047 0)"/>
       <use xlink:href="#DejaVuSans-37" transform="translate(95.410156 0)"/>
       <use xlink:href="#DejaVuSans-35" transform="translate(159.033203 0)"/>
      </g>
     </g>
    </g>
    <g id="xtick_4">
     <g id="line2d_4">
      <g>
       <use xlink:href="#m3622ef96f0" x="369.577153" y="200.521395" style="stroke: #000000; stroke-width: 0.8"/>
      </g>
     </g>
     <g id="text_4">
      <!-- 1.00 -->
      <g transform="translate(358.444341 215.119833) scale(0.1 -0.1)">
       <defs>
        <path id="DejaVuSans-31" d="M 794 531 
L 1825 531 
L 1825 4091 
L 703 3866 
L 703 4441 
L 1819 4666 
L 2450 4666 
L 2450 531 
L 3481 531 
L 3481 0 
L 794 0 
L 794 531 
z
" transform="scale(0.015625)"/>
       </defs>
       <use xlink:href="#DejaVuSans-31"/>
       <use xlink:href="#DejaVuSans-2e" transform="translate(63.623047 0)"/>
       <use xlink:href="#DejaVuSans-30" transform="translate(95.410156 0)"/>
       <use xlink:href="#DejaVuSans-30" transform="translate(159.033203 0)"/>
      </g>
     </g>
    </g>
   </g>
   <g id="matplotlib.axis_2">
    <g id="ytick_1">
     <g id="line2d_5">
      <defs>
       <path id="m7d91bf310d" d="M 0 0 
L -3.5 0 
" style="stroke: #000000; stroke-width: 0.8"/>
      </defs>
      <g>
       <use xlink:href="#m7d91bf310d" x="33.2875" y="200.521395" style="stroke: #000000; stroke-width: 0.8"/>
      </g>
     </g>
     <g id="text_5">
      <!-- 0 -->
      <g transform="translate(19.925 204.320614) scale(0.1 -0.1)">
       <use xlink:href="#DejaVuSans-30"/>
      </g>
     </g>
    </g>
    <g id="ytick_2">
     <g id="line2d_6">
      <g>
       <use xlink:href="#m7d91bf310d" x="33.2875" y="178.190158" style="stroke: #000000; stroke-width: 0.8"/>
      </g>
     </g>
     <g id="text_6">
      <!-- 25 -->
      <g transform="translate(13.5625 181.989377) scale(0.1 -0.1)">
       <use xlink:href="#DejaVuSans-32"/>
       <use xlink:href="#DejaVuSans-35" transform="translate(63.623047 0)"/>
      </g>
     </g>
    </g>
    <g id="ytick_3">
     <g id="line2d_7">
      <g>
       <use xlink:href="#m7d91bf310d" x="33.2875" y="155.858921" style="stroke: #000000; stroke-width: 0.8"/>
      </g>
     </g>
     <g id="text_7">
      <!-- 50 -->
      <g transform="translate(13.5625 159.65814) scale(0.1 -0.1)">
       <use xlink:href="#DejaVuSans-35"/>
       <use xlink:href="#DejaVuSans-30" transform="translate(63.623047 0)"/>
      </g>
     </g>
    </g>
    <g id="ytick_4">
     <g id="line2d_8">
      <g>
       <use xlink:href="#m7d91bf310d" x="33.2875" y="133.527684" style="stroke: #000000; stroke-width: 0.8"/>
      </g>
     </g>
     <g id="text_8">
      <!-- 75 -->
      <g transform="translate(13.5625 137.326903) scale(0.1 -0.1)">
       <use xlink:href="#DejaVuSans-37"/>
       <use xlink:href="#DejaVuSans-35" transform="translate(63.623047 0)"/>
      </g>
     </g>
    </g>
    <g id="ytick_5">
     <g id="line2d_9">
      <g>
       <use xlink:href="#m7d91bf310d" x="33.2875" y="111.196448" style="stroke: #000000; stroke-width: 0.8"/>
      </g>
     </g>
     <g id="text_9">
      <!-- 100 -->
      <g transform="translate(7.2 114.995666) scale(0.1 -0.1)">
       <use xlink:href="#DejaVuSans-31"/>
       <use xlink:href="#DejaVuSans-30" transform="translate(63.623047 0)"/>
       <use xlink:href="#DejaVuSans-30" transform="translate(127.246094 0)"/>
      </g>
     </g>
    </g>
    <g id="ytick_6">
     <g id="line2d_10">
      <g>
       <use xlink:href="#m7d91bf310d" x="33.2875" y="88.865211" style="stroke: #000000; stroke-width: 0.8"/>
      </g>
     </g>
     <g id="text_10">
      <!-- 125 -->
      <g transform="translate(7.2 92.66443) scale(0.1 -0.1)">
       <use xlink:href="#DejaVuSans-31"/>
       <use xlink:href="#DejaVuSans-32" transform="translate(63.623047 0)"/>
       <use xlink:href="#DejaVuSans-35" transform="translate(127.246094 0)"/>
      </g>
     </g>
    </g>
    <g id="ytick_7">
     <g id="line2d_11">
      <g>
       <use xlink:href="#m7d91bf310d" x="33.2875" y="66.533974" style="stroke: #000000; stroke-width: 0.8"/>
      </g>
     </g>
     <g id="text_11">
      <!-- 150 -->
      <g transform="translate(7.2 70.333193) scale(0.1 -0.1)">
       <use xlink:href="#DejaVuSans-31"/>
       <use xlink:href="#DejaVuSans-35" transform="translate(63.623047 0)"/>
       <use xlink:href="#DejaVuSans-30" transform="translate(127.246094 0)"/>
      </g>
     </g>
    </g>
    <g id="ytick_8">
     <g id="line2d_12">
      <g>
       <use xlink:href="#m7d91bf310d" x="33.2875" y="44.202737" style="stroke: #000000; stroke-width: 0.8"/>
      </g>
     </g>
     <g id="text_12">
      <!-- 175 -->
      <g transform="translate(7.2 48.001956) scale(0.1 -0.1)">
       <use xlink:href="#DejaVuSans-31"/>
       <use xlink:href="#DejaVuSans-37" transform="translate(63.623047 0)"/>
       <use xlink:href="#DejaVuSans-35" transform="translate(127.246094 0)"/>
      </g>
     </g>
    </g>
   </g>
   <g id="patch_7">
    <path d="M 33.2875 200.521395 
L 33.2875 22.318125 
" style="fill: none; stroke: #000000; stroke-width: 0.8; stroke-linejoin: miter; stroke-linecap: square"/>
   </g>
   <g id="patch_8">
    <path d="M 433.19952 200.521395 
L 433.19952 22.318125 
" style="fill: none; stroke: #000000; stroke-width: 0.8; stroke-linejoin: miter; stroke-linecap: square"/>
   </g>
   <g id="patch_9">
    <path d="M 33.2875 200.521395 
L 433.19952 200.521395 
" style="fill: none; stroke: #000000; stroke-width: 0.8; stroke-linejoin: miter; stroke-linecap: square"/>
   </g>
   <g id="patch_10">
    <path d="M 33.2875 22.318125 
L 433.19952 22.318125 
" style="fill: none; stroke: #000000; stroke-width: 0.8; stroke-linejoin: miter; stroke-linecap: square"/>
   </g>
   <g id="text_13">
    <!-- mu 0.575 sigma 0.031 -->
    <g transform="translate(165.399448 16.318125) scale(0.12 -0.12)">
     <defs>
      <path id="DejaVuSans-6d" d="M 3328 2828 
Q 3544 3216 3844 3400 
Q 4144 3584 4550 3584 
Q 5097 3584 5394 3201 
Q 5691 2819 5691 2113 
L 5691 0 
L 5113 0 
L 5113 2094 
Q 5113 2597 4934 2840 
Q 4756 3084 4391 3084 
Q 3944 3084 3684 2787 
Q 3425 2491 3425 1978 
L 3425 0 
L 2847 0 
L 2847 2094 
Q 2847 2600 2669 2842 
Q 2491 3084 2119 3084 
Q 1678 3084 1418 2786 
Q 1159 2488 1159 1978 
L 1159 0 
L 581 0 
L 581 3500 
L 1159 3500 
L 1159 2956 
Q 1356 3278 1631 3431 
Q 1906 3584 2284 3584 
Q 2666 3584 2933 3390 
Q 3200 3197 3328 2828 
z
" transform="scale(0.015625)"/>
      <path id="DejaVuSans-75" d="M 544 1381 
L 544 3500 
L 1119 3500 
L 1119 1403 
Q 1119 906 1312 657 
Q 1506 409 1894 409 
Q 2359 409 2629 706 
Q 2900 1003 2900 1516 
L 2900 3500 
L 3475 3500 
L 3475 0 
L 2900 0 
L 2900 538 
Q 2691 219 2414 64 
Q 2138 -91 1772 -91 
Q 1169 -91 856 284 
Q 544 659 544 1381 
z
M 1991 3584 
L 1991 3584 
z
" transform="scale(0.015625)"/>
      <path id="DejaVuSans-20" transform="scale(0.015625)"/>
      <path id="DejaVuSans-73" d="M 2834 3397 
L 2834 2853 
Q 2591 2978 2328 3040 
Q 2066 3103 1784 3103 
Q 1356 3103 1142 2972 
Q 928 2841 928 2578 
Q 928 2378 1081 2264 
Q 1234 2150 1697 2047 
L 1894 2003 
Q 2506 1872 2764 1633 
Q 3022 1394 3022 966 
Q 3022 478 2636 193 
Q 2250 -91 1575 -91 
Q 1294 -91 989 -36 
Q 684 19 347 128 
L 347 722 
Q 666 556 975 473 
Q 1284 391 1588 391 
Q 1994 391 2212 530 
Q 2431 669 2431 922 
Q 2431 1156 2273 1281 
Q 2116 1406 1581 1522 
L 1381 1569 
Q 847 1681 609 1914 
Q 372 2147 372 2553 
Q 372 3047 722 3315 
Q 1072 3584 1716 3584 
Q 2034 3584 2315 3537 
Q 2597 3491 2834 3397 
z
" transform="scale(0.015625)"/>
      <path id="DejaVuSans-69" d="M 603 3500 
L 1178 3500 
L 1178 0 
L 603 0 
L 603 3500 
z
M 603 4863 
L 1178 4863 
L 1178 4134 
L 603 4134 
L 603 4863 
z
" transform="scale(0.015625)"/>
      <path id="DejaVuSans-67" d="M 2906 1791 
Q 2906 2416 2648 2759 
Q 2391 3103 1925 3103 
Q 1463 3103 1205 2759 
Q 947 2416 947 1791 
Q 947 1169 1205 825 
Q 1463 481 1925 481 
Q 2391 481 2648 825 
Q 2906 1169 2906 1791 
z
M 3481 434 
Q 3481 -459 3084 -895 
Q 2688 -1331 1869 -1331 
Q 1566 -1331 1297 -1286 
Q 1028 -1241 775 -1147 
L 775 -588 
Q 1028 -725 1275 -790 
Q 1522 -856 1778 -856 
Q 2344 -856 2625 -561 
Q 2906 -266 2906 331 
L 2906 616 
Q 2728 306 2450 153 
Q 2172 0 1784 0 
Q 1141 0 747 490 
Q 353 981 353 1791 
Q 353 2603 747 3093 
Q 1141 3584 1784 3584 
Q 2172 3584 2450 3431 
Q 2728 3278 2906 2969 
L 2906 3500 
L 3481 3500 
L 3481 434 
z
" transform="scale(0.015625)"/>
      <path id="DejaVuSans-61" d="M 2194 1759 
Q 1497 1759 1228 1600 
Q 959 1441 959 1056 
Q 959 750 1161 570 
Q 1363 391 1709 391 
Q 2188 391 2477 730 
Q 2766 1069 2766 1631 
L 2766 1759 
L 2194 1759 
z
M 3341 1997 
L 3341 0 
L 2766 0 
L 2766 531 
Q 2569 213 2275 61 
Q 1981 -91 1556 -91 
Q 1019 -91 701 211 
Q 384 513 384 1019 
Q 384 1609 779 1909 
Q 1175 2209 1959 2209 
L 2766 2209 
L 2766 2266 
Q 2766 2663 2505 2880 
Q 2244 3097 1772 3097 
Q 1472 3097 1187 3025 
Q 903 2953 641 2809 
L 641 3341 
Q 956 3463 1253 3523 
Q 1550 3584 1831 3584 
Q 2591 3584 2966 3190 
Q 3341 2797 3341 1997 
z
" transform="scale(0.015625)"/>
      <path id="DejaVuSans-33" d="M 2597 2516 
Q 3050 2419 3304 2112 
Q 3559 1806 3559 1356 
Q 3559 666 3084 287 
Q 2609 -91 1734 -91 
Q 1441 -91 1130 -33 
Q 819 25 488 141 
L 488 750 
Q 750 597 1062 519 
Q 1375 441 1716 441 
Q 2309 441 2620 675 
Q 2931 909 2931 1356 
Q 2931 1769 2642 2001 
Q 2353 2234 1838 2234 
L 1294 2234 
L 1294 2753 
L 1863 2753 
Q 2328 2753 2575 2939 
Q 2822 3125 2822 3475 
Q 2822 3834 2567 4026 
Q 2313 4219 1838 4219 
Q 1578 4219 1281 4162 
Q 984 4106 628 3988 
L 628 4550 
Q 988 4650 1302 4700 
Q 1616 4750 1894 4750 
Q 2613 4750 3031 4423 
Q 3450 4097 3450 3541 
Q 3450 3153 3228 2886 
Q 3006 2619 2597 2516 
z
" transform="scale(0.015625)"/>
     </defs>
     <use xlink:href="#DejaVuSans-6d"/>
     <use xlink:href="#DejaVuSans-75" transform="translate(97.412109 0)"/>
     <use xlink:href="#DejaVuSans-20" transform="translate(160.791016 0)"/>
     <use xlink:href="#DejaVuSans-30" transform="translate(192.578125 0)"/>
     <use xlink:href="#DejaVuSans-2e" transform="translate(256.201172 0)"/>
     <use xlink:href="#DejaVuSans-35" transform="translate(287.988281 0)"/>
     <use xlink:href="#DejaVuSans-37" transform="translate(351.611328 0)"/>
     <use xlink:href="#DejaVuSans-35" transform="translate(415.234375 0)"/>
     <use xlink:href="#DejaVuSans-20" transform="translate(478.857422 0)"/>
     <use xlink:href="#DejaVuSans-73" transform="translate(510.644531 0)"/>
     <use xlink:href="#DejaVuSans-69" transform="translate(562.744141 0)"/>
     <use xlink:href="#DejaVuSans-67" transform="translate(590.527344 0)"/>
     <use xlink:href="#DejaVuSans-6d" transform="translate(654.003906 0)"/>
     <use xlink:href="#DejaVuSans-61" transform="translate(751.416016 0)"/>
     <use xlink:href="#DejaVuSans-20" transform="translate(812.695312 0)"/>
     <use xlink:href="#DejaVuSans-30" transform="translate(844.482422 0)"/>
     <use xlink:href="#DejaVuSans-2e" transform="translate(908.105469 0)"/>
     <use xlink:href="#DejaVuSans-30" transform="translate(939.892578 0)"/>
     <use xlink:href="#DejaVuSans-33" transform="translate(1003.515625 0)"/>
     <use xlink:href="#DejaVuSans-31" transform="translate(1067.138672 0)"/>
    </g>
   </g>
  </g>
  <g id="axes_2">
   <g id="patch_11">
    <path d="M 33.2875 416.521395 
L 433.19952 416.521395 
L 433.19952 238.318125 
L 33.2875 238.318125 
z
" style="fill: #ffffff"/>
   </g>
   <g id="patch_12">
    <path d="M 60.554229 416.521395 
L 133.265505 416.521395 
L 133.265505 416.521395 
L 60.554229 416.521395 
z
" clip-path="url(#p3bb6f1e979)" style="fill: #1f77b4"/>
   </g>
   <g id="patch_13">
    <path d="M 151.443324 416.521395 
L 224.1546 416.521395 
L 224.1546 246.803995 
L 151.443324 246.803995 
z
" clip-path="url(#p3bb6f1e979)" style="fill: #1f77b4"/>
   </g>
   <g id="patch_14">
    <path d="M 242.33242 416.521395 
L 315.043696 416.521395 
L 315.043696 376.711141 
L 242.33242 376.711141 
z
" clip-path="url(#p3bb6f1e979)" style="fill: #1f77b4"/>
   </g>
   <g id="patch_15">
    <path d="M 333.221515 416.521395 
L 405.932791 416.521395 
L 405.932791 416.521395 
L 333.221515 416.521395 
z
" clip-path="url(#p3bb6f1e979)" style="fill: #1f77b4"/>
   </g>
   <g id="matplotlib.axis_3">
    <g id="xtick_5">
     <g id="line2d_13">
      <g>
       <use xlink:href="#m3622ef96f0" x="96.909867" y="416.521395" style="stroke: #000000; stroke-width: 0.8"/>
      </g>
     </g>
     <g id="text_14">
      <!-- 0.25 -->
      <g transform="translate(85.777054 431.119832) scale(0.1 -0.1)">
       <use xlink:href="#DejaVuSans-30"/>
       <use xlink:href="#DejaVuSans-2e" transform="translate(63.623047 0)"/>
       <use xlink:href="#DejaVuSans-32" transform="translate(95.410156 0)"/>
       <use xlink:href="#DejaVuSans-35" transform="translate(159.033203 0)"/>
      </g>
     </g>
    </g>
    <g id="xtick_6">
     <g id="line2d_14">
      <g>
       <use xlink:href="#m3622ef96f0" x="187.798962" y="416.521395" style="stroke: #000000; stroke-width: 0.8"/>
      </g>
     </g>
     <g id="text_15">
      <!-- 0.50 -->
      <g transform="translate(176.66615 431.119832) scale(0.1 -0.1)">
       <use xlink:href="#DejaVuSans-30"/>
       <use xlink:href="#DejaVuSans-2e" transform="translate(63.623047 0)"/>
       <use xlink:href="#DejaVuSans-35" transform="translate(95.410156 0)"/>
       <use xlink:href="#DejaVuSans-30" transform="translate(159.033203 0)"/>
      </g>
     </g>
    </g>
    <g id="xtick_7">
     <g id="line2d_15">
      <g>
       <use xlink:href="#m3622ef96f0" x="278.688058" y="416.521395" style="stroke: #000000; stroke-width: 0.8"/>
      </g>
     </g>
     <g id="text_16">
      <!-- 0.75 -->
      <g transform="translate(267.555245 431.119832) scale(0.1 -0.1)">
       <use xlink:href="#DejaVuSans-30"/>
       <use xlink:href="#DejaVuSans-2e" transform="translate(63.623047 0)"/>
       <use xlink:href="#DejaVuSans-37" transform="translate(95.410156 0)"/>
       <use xlink:href="#DejaVuSans-35" transform="translate(159.033203 0)"/>
      </g>
     </g>
    </g>
    <g id="xtick_8">
     <g id="line2d_16">
      <g>
       <use xlink:href="#m3622ef96f0" x="369.577153" y="416.521395" style="stroke: #000000; stroke-width: 0.8"/>
      </g>
     </g>
     <g id="text_17">
      <!-- 1.00 -->
      <g transform="translate(358.444341 431.119832) scale(0.1 -0.1)">
       <use xlink:href="#DejaVuSans-31"/>
       <use xlink:href="#DejaVuSans-2e" transform="translate(63.623047 0)"/>
       <use xlink:href="#DejaVuSans-30" transform="translate(95.410156 0)"/>
       <use xlink:href="#DejaVuSans-30" transform="translate(159.033203 0)"/>
      </g>
     </g>
    </g>
   </g>
   <g id="matplotlib.axis_4">
    <g id="ytick_9">
     <g id="line2d_17">
      <g>
       <use xlink:href="#m7d91bf310d" x="33.2875" y="416.521395" style="stroke: #000000; stroke-width: 0.8"/>
      </g>
     </g>
     <g id="text_18">
      <!-- 0 -->
      <g transform="translate(19.925 420.320614) scale(0.1 -0.1)">
       <use xlink:href="#DejaVuSans-30"/>
      </g>
     </g>
    </g>
    <g id="ytick_10">
     <g id="line2d_18">
      <g>
       <use xlink:href="#m7d91bf310d" x="33.2875" y="390.330438" style="stroke: #000000; stroke-width: 0.8"/>
      </g>
     </g>
     <g id="text_19">
      <!-- 25 -->
      <g transform="translate(13.5625 394.129657) scale(0.1 -0.1)">
       <use xlink:href="#DejaVuSans-32"/>
       <use xlink:href="#DejaVuSans-35" transform="translate(63.623047 0)"/>
      </g>
     </g>
    </g>
    <g id="ytick_11">
     <g id="line2d_19">
      <g>
       <use xlink:href="#m7d91bf310d" x="33.2875" y="364.139481" style="stroke: #000000; stroke-width: 0.8"/>
      </g>
     </g>
     <g id="text_20">
      <!-- 50 -->
      <g transform="translate(13.5625 367.9387) scale(0.1 -0.1)">
       <use xlink:href="#DejaVuSans-35"/>
       <use xlink:href="#DejaVuSans-30" transform="translate(63.623047 0)"/>
      </g>
     </g>
    </g>
    <g id="ytick_12">
     <g id="line2d_20">
      <g>
       <use xlink:href="#m7d91bf310d" x="33.2875" y="337.948525" style="stroke: #000000; stroke-width: 0.8"/>
      </g>
     </g>
     <g id="text_21">
      <!-- 75 -->
      <g transform="translate(13.5625 341.747743) scale(0.1 -0.1)">
       <use xlink:href="#DejaVuSans-37"/>
       <use xlink:href="#DejaVuSans-35" transform="translate(63.623047 0)"/>
      </g>
     </g>
    </g>
    <g id="ytick_13">
     <g id="line2d_21">
      <g>
       <use xlink:href="#m7d91bf310d" x="33.2875" y="311.757568" style="stroke: #000000; stroke-width: 0.8"/>
      </g>
     </g>
     <g id="text_22">
      <!-- 100 -->
      <g transform="translate(7.2 315.556787) scale(0.1 -0.1)">
       <use xlink:href="#DejaVuSans-31"/>
       <use xlink:href="#DejaVuSans-30" transform="translate(63.623047 0)"/>
       <use xlink:href="#DejaVuSans-30" transform="translate(127.246094 0)"/>
      </g>
     </g>
    </g>
    <g id="ytick_14">
     <g id="line2d_22">
      <g>
       <use xlink:href="#m7d91bf310d" x="33.2875" y="285.566611" style="stroke: #000000; stroke-width: 0.8"/>
      </g>
     </g>
     <g id="text_23">
      <!-- 125 -->
      <g transform="translate(7.2 289.36583) scale(0.1 -0.1)">
       <use xlink:href="#DejaVuSans-31"/>
       <use xlink:href="#DejaVuSans-32" transform="translate(63.623047 0)"/>
       <use xlink:href="#DejaVuSans-35" transform="translate(127.246094 0)"/>
      </g>
     </g>
    </g>
    <g id="ytick_15">
     <g id="line2d_23">
      <g>
       <use xlink:href="#m7d91bf310d" x="33.2875" y="259.375654" style="stroke: #000000; stroke-width: 0.8"/>
      </g>
     </g>
     <g id="text_24">
      <!-- 150 -->
      <g transform="translate(7.2 263.174873) scale(0.1 -0.1)">
       <use xlink:href="#DejaVuSans-31"/>
       <use xlink:href="#DejaVuSans-35" transform="translate(63.623047 0)"/>
       <use xlink:href="#DejaVuSans-30" transform="translate(127.246094 0)"/>
      </g>
     </g>
    </g>
   </g>
   <g id="patch_16">
    <path d="M 33.2875 416.521395 
L 33.2875 238.318125 
" style="fill: none; stroke: #000000; stroke-width: 0.8; stroke-linejoin: miter; stroke-linecap: square"/>
   </g>
   <g id="patch_17">
    <path d="M 433.19952 416.521395 
L 433.19952 238.318125 
" style="fill: none; stroke: #000000; stroke-width: 0.8; stroke-linejoin: miter; stroke-linecap: square"/>
   </g>
   <g id="patch_18">
    <path d="M 33.2875 416.521395 
L 433.19952 416.521395 
" style="fill: none; stroke: #000000; stroke-width: 0.8; stroke-linejoin: miter; stroke-linecap: square"/>
   </g>
   <g id="patch_19">
    <path d="M 33.2875 238.318125 
L 433.19952 238.318125 
" style="fill: none; stroke: #000000; stroke-width: 0.8; stroke-linejoin: miter; stroke-linecap: square"/>
   </g>
   <g id="text_25">
    <!-- mu 0.575 sigma 0.062 -->
    <g transform="translate(165.399448 232.318125) scale(0.12 -0.12)">
     <defs>
      <path id="DejaVuSans-36" d="M 2113 2584 
Q 1688 2584 1439 2293 
Q 1191 2003 1191 1497 
Q 1191 994 1439 701 
Q 1688 409 2113 409 
Q 2538 409 2786 701 
Q 3034 994 3034 1497 
Q 3034 2003 2786 2293 
Q 2538 2584 2113 2584 
z
M 3366 4563 
L 3366 3988 
Q 3128 4100 2886 4159 
Q 2644 4219 2406 4219 
Q 1781 4219 1451 3797 
Q 1122 3375 1075 2522 
Q 1259 2794 1537 2939 
Q 1816 3084 2150 3084 
Q 2853 3084 3261 2657 
Q 3669 2231 3669 1497 
Q 3669 778 3244 343 
Q 2819 -91 2113 -91 
Q 1303 -91 875 529 
Q 447 1150 447 2328 
Q 447 3434 972 4092 
Q 1497 4750 2381 4750 
Q 2619 4750 2861 4703 
Q 3103 4656 3366 4563 
z
" transform="scale(0.015625)"/>
     </defs>
     <use xlink:href="#DejaVuSans-6d"/>
     <use xlink:href="#DejaVuSans-75" transform="translate(97.412109 0)"/>
     <use xlink:href="#DejaVuSans-20" transform="translate(160.791016 0)"/>
     <use xlink:href="#DejaVuSans-30" transform="translate(192.578125 0)"/>
     <use xlink:href="#DejaVuSans-2e" transform="translate(256.201172 0)"/>
     <use xlink:href="#DejaVuSans-35" transform="translate(287.988281 0)"/>
     <use xlink:href="#DejaVuSans-37" transform="translate(351.611328 0)"/>
     <use xlink:href="#DejaVuSans-35" transform="translate(415.234375 0)"/>
     <use xlink:href="#DejaVuSans-20" transform="translate(478.857422 0)"/>
     <use xlink:href="#DejaVuSans-73" transform="translate(510.644531 0)"/>
     <use xlink:href="#DejaVuSans-69" transform="translate(562.744141 0)"/>
     <use xlink:href="#DejaVuSans-67" transform="translate(590.527344 0)"/>
     <use xlink:href="#DejaVuSans-6d" transform="translate(654.003906 0)"/>
     <use xlink:href="#DejaVuSans-61" transform="translate(751.416016 0)"/>
     <use xlink:href="#DejaVuSans-20" transform="translate(812.695312 0)"/>
     <use xlink:href="#DejaVuSans-30" transform="translate(844.482422 0)"/>
     <use xlink:href="#DejaVuSans-2e" transform="translate(908.105469 0)"/>
     <use xlink:href="#DejaVuSans-30" transform="translate(939.892578 0)"/>
     <use xlink:href="#DejaVuSans-36" transform="translate(1003.515625 0)"/>
     <use xlink:href="#DejaVuSans-32" transform="translate(1067.138672 0)"/>
    </g>
   </g>
  </g>
  <g id="axes_3">
   <g id="patch_20">
    <path d="M 33.2875 632.521395 
L 433.19952 632.521395 
L 433.19952 454.318125 
L 33.2875 454.318125 
z
" style="fill: #ffffff"/>
   </g>
   <g id="patch_21">
    <path d="M 60.554229 632.521395 
L 133.265505 632.521395 
L 133.265505 617.322822 
L 60.554229 617.322822 
z
" clip-path="url(#pd17c661623)" style="fill: #1f77b4"/>
   </g>
   <g id="patch_22">
    <path d="M 151.443324 632.521395 
L 224.1546 632.521395 
L 224.1546 462.803995 
L 151.443324 462.803995 
z
" clip-path="url(#pd17c661623)" style="fill: #1f77b4"/>
   </g>
   <g id="patch_23">
    <path d="M 242.33242 632.521395 
L 315.043696 632.521395 
L 315.043696 565.394364 
L 242.33242 565.394364 
z
" clip-path="url(#pd17c661623)" style="fill: #1f77b4"/>
   </g>
   <g id="patch_24">
    <path d="M 333.221515 632.521395 
L 405.932791 632.521395 
L 405.932791 631.254847 
L 333.221515 631.254847 
z
" clip-path="url(#pd17c661623)" style="fill: #1f77b4"/>
   </g>
   <g id="matplotlib.axis_5">
    <g id="xtick_9">
     <g id="line2d_24">
      <g>
       <use xlink:href="#m3622ef96f0" x="96.909867" y="632.521395" style="stroke: #000000; stroke-width: 0.8"/>
      </g>
     </g>
     <g id="text_26">
      <!-- 0.25 -->
      <g transform="translate(85.777054 647.119833) scale(0.1 -0.1)">
       <use xlink:href="#DejaVuSans-30"/>
       <use xlink:href="#DejaVuSans-2e" transform="translate(63.623047 0)"/>
       <use xlink:href="#DejaVuSans-32" transform="translate(95.410156 0)"/>
       <use xlink:href="#DejaVuSans-35" transform="translate(159.033203 0)"/>
      </g>
     </g>
    </g>
    <g id="xtick_10">
     <g id="line2d_25">
      <g>
       <use xlink:href="#m3622ef96f0" x="187.798962" y="632.521395" style="stroke: #000000; stroke-width: 0.8"/>
      </g>
     </g>
     <g id="text_27">
      <!-- 0.50 -->
      <g transform="translate(176.66615 647.119833) scale(0.1 -0.1)">
       <use xlink:href="#DejaVuSans-30"/>
       <use xlink:href="#DejaVuSans-2e" transform="translate(63.623047 0)"/>
       <use xlink:href="#DejaVuSans-35" transform="translate(95.410156 0)"/>
       <use xlink:href="#DejaVuSans-30" transform="translate(159.033203 0)"/>
      </g>
     </g>
    </g>
    <g id="xtick_11">
     <g id="line2d_26">
      <g>
       <use xlink:href="#m3622ef96f0" x="278.688058" y="632.521395" style="stroke: #000000; stroke-width: 0.8"/>
      </g>
     </g>
     <g id="text_28">
      <!-- 0.75 -->
      <g transform="translate(267.555245 647.119833) scale(0.1 -0.1)">
       <use xlink:href="#DejaVuSans-30"/>
       <use xlink:href="#DejaVuSans-2e" transform="translate(63.623047 0)"/>
       <use xlink:href="#DejaVuSans-37" transform="translate(95.410156 0)"/>
       <use xlink:href="#DejaVuSans-35" transform="translate(159.033203 0)"/>
      </g>
     </g>
    </g>
    <g id="xtick_12">
     <g id="line2d_27">
      <g>
       <use xlink:href="#m3622ef96f0" x="369.577153" y="632.521395" style="stroke: #000000; stroke-width: 0.8"/>
      </g>
     </g>
     <g id="text_29">
      <!-- 1.00 -->
      <g transform="translate(358.444341 647.119833) scale(0.1 -0.1)">
       <use xlink:href="#DejaVuSans-31"/>
       <use xlink:href="#DejaVuSans-2e" transform="translate(63.623047 0)"/>
       <use xlink:href="#DejaVuSans-30" transform="translate(95.410156 0)"/>
       <use xlink:href="#DejaVuSans-30" transform="translate(159.033203 0)"/>
      </g>
     </g>
    </g>
   </g>
   <g id="matplotlib.axis_6">
    <g id="ytick_16">
     <g id="line2d_28">
      <g>
       <use xlink:href="#m7d91bf310d" x="33.2875" y="632.521395" style="stroke: #000000; stroke-width: 0.8"/>
      </g>
     </g>
     <g id="text_30">
      <!-- 0 -->
      <g transform="translate(19.925 636.320614) scale(0.1 -0.1)">
       <use xlink:href="#DejaVuSans-30"/>
      </g>
     </g>
    </g>
    <g id="ytick_17">
     <g id="line2d_29">
      <g>
       <use xlink:href="#m7d91bf310d" x="33.2875" y="607.19044" style="stroke: #000000; stroke-width: 0.8"/>
      </g>
     </g>
     <g id="text_31">
      <!-- 20 -->
      <g transform="translate(13.5625 610.989659) scale(0.1 -0.1)">
       <use xlink:href="#DejaVuSans-32"/>
       <use xlink:href="#DejaVuSans-30" transform="translate(63.623047 0)"/>
      </g>
     </g>
    </g>
    <g id="ytick_18">
     <g id="line2d_30">
      <g>
       <use xlink:href="#m7d91bf310d" x="33.2875" y="581.859485" style="stroke: #000000; stroke-width: 0.8"/>
      </g>
     </g>
     <g id="text_32">
      <!-- 40 -->
      <g transform="translate(13.5625 585.658703) scale(0.1 -0.1)">
       <defs>
        <path id="DejaVuSans-34" d="M 2419 4116 
L 825 1625 
L 2419 1625 
L 2419 4116 
z
M 2253 4666 
L 3047 4666 
L 3047 1625 
L 3713 1625 
L 3713 1100 
L 3047 1100 
L 3047 0 
L 2419 0 
L 2419 1100 
L 313 1100 
L 313 1709 
L 2253 4666 
z
" transform="scale(0.015625)"/>
       </defs>
       <use xlink:href="#DejaVuSans-34"/>
       <use xlink:href="#DejaVuSans-30" transform="translate(63.623047 0)"/>
      </g>
     </g>
    </g>
    <g id="ytick_19">
     <g id="line2d_31">
      <g>
       <use xlink:href="#m7d91bf310d" x="33.2875" y="556.528529" style="stroke: #000000; stroke-width: 0.8"/>
      </g>
     </g>
     <g id="text_33">
      <!-- 60 -->
      <g transform="translate(13.5625 560.327748) scale(0.1 -0.1)">
       <use xlink:href="#DejaVuSans-36"/>
       <use xlink:href="#DejaVuSans-30" transform="translate(63.623047 0)"/>
      </g>
     </g>
    </g>
    <g id="ytick_20">
     <g id="line2d_32">
      <g>
       <use xlink:href="#m7d91bf310d" x="33.2875" y="531.197574" style="stroke: #000000; stroke-width: 0.8"/>
      </g>
     </g>
     <g id="text_34">
      <!-- 80 -->
      <g transform="translate(13.5625 534.996793) scale(0.1 -0.1)">
       <defs>
        <path id="DejaVuSans-38" d="M 2034 2216 
Q 1584 2216 1326 1975 
Q 1069 1734 1069 1313 
Q 1069 891 1326 650 
Q 1584 409 2034 409 
Q 2484 409 2743 651 
Q 3003 894 3003 1313 
Q 3003 1734 2745 1975 
Q 2488 2216 2034 2216 
z
M 1403 2484 
Q 997 2584 770 2862 
Q 544 3141 544 3541 
Q 544 4100 942 4425 
Q 1341 4750 2034 4750 
Q 2731 4750 3128 4425 
Q 3525 4100 3525 3541 
Q 3525 3141 3298 2862 
Q 3072 2584 2669 2484 
Q 3125 2378 3379 2068 
Q 3634 1759 3634 1313 
Q 3634 634 3220 271 
Q 2806 -91 2034 -91 
Q 1263 -91 848 271 
Q 434 634 434 1313 
Q 434 1759 690 2068 
Q 947 2378 1403 2484 
z
M 1172 3481 
Q 1172 3119 1398 2916 
Q 1625 2713 2034 2713 
Q 2441 2713 2670 2916 
Q 2900 3119 2900 3481 
Q 2900 3844 2670 4047 
Q 2441 4250 2034 4250 
Q 1625 4250 1398 4047 
Q 1172 3844 1172 3481 
z
" transform="scale(0.015625)"/>
       </defs>
       <use xlink:href="#DejaVuSans-38"/>
       <use xlink:href="#DejaVuSans-30" transform="translate(63.623047 0)"/>
      </g>
     </g>
    </g>
    <g id="ytick_21">
     <g id="line2d_33">
      <g>
       <use xlink:href="#m7d91bf310d" x="33.2875" y="505.866619" style="stroke: #000000; stroke-width: 0.8"/>
      </g>
     </g>
     <g id="text_35">
      <!-- 100 -->
      <g transform="translate(7.2 509.665838) scale(0.1 -0.1)">
       <use xlink:href="#DejaVuSans-31"/>
       <use xlink:href="#DejaVuSans-30" transform="translate(63.623047 0)"/>
       <use xlink:href="#DejaVuSans-30" transform="translate(127.246094 0)"/>
      </g>
     </g>
    </g>
    <g id="ytick_22">
     <g id="line2d_34">
      <g>
       <use xlink:href="#m7d91bf310d" x="33.2875" y="480.535664" style="stroke: #000000; stroke-width: 0.8"/>
      </g>
     </g>
     <g id="text_36">
      <!-- 120 -->
      <g transform="translate(7.2 484.334882) scale(0.1 -0.1)">
       <use xlink:href="#DejaVuSans-31"/>
       <use xlink:href="#DejaVuSans-32" transform="translate(63.623047 0)"/>
       <use xlink:href="#DejaVuSans-30" transform="translate(127.246094 0)"/>
      </g>
     </g>
    </g>
    <g id="ytick_23">
     <g id="line2d_35">
      <g>
       <use xlink:href="#m7d91bf310d" x="33.2875" y="455.204708" style="stroke: #000000; stroke-width: 0.8"/>
      </g>
     </g>
     <g id="text_37">
      <!-- 140 -->
      <g transform="translate(7.2 459.003927) scale(0.1 -0.1)">
       <use xlink:href="#DejaVuSans-31"/>
       <use xlink:href="#DejaVuSans-34" transform="translate(63.623047 0)"/>
       <use xlink:href="#DejaVuSans-30" transform="translate(127.246094 0)"/>
      </g>
     </g>
    </g>
   </g>
   <g id="patch_25">
    <path d="M 33.2875 632.521395 
L 33.2875 454.318125 
" style="fill: none; stroke: #000000; stroke-width: 0.8; stroke-linejoin: miter; stroke-linecap: square"/>
   </g>
   <g id="patch_26">
    <path d="M 433.19952 632.521395 
L 433.19952 454.318125 
" style="fill: none; stroke: #000000; stroke-width: 0.8; stroke-linejoin: miter; stroke-linecap: square"/>
   </g>
   <g id="patch_27">
    <path d="M 33.2875 632.521395 
L 433.19952 632.521395 
" style="fill: none; stroke: #000000; stroke-width: 0.8; stroke-linejoin: miter; stroke-linecap: square"/>
   </g>
   <g id="patch_28">
    <path d="M 33.2875 454.318125 
L 433.19952 454.318125 
" style="fill: none; stroke: #000000; stroke-width: 0.8; stroke-linejoin: miter; stroke-linecap: square"/>
   </g>
   <g id="text_38">
    <!-- mu 0.575 sigma 0.125 -->
    <g transform="translate(165.399448 448.318125) scale(0.12 -0.12)">
     <use xlink:href="#DejaVuSans-6d"/>
     <use xlink:href="#DejaVuSans-75" transform="translate(97.412109 0)"/>
     <use xlink:href="#DejaVuSans-20" transform="translate(160.791016 0)"/>
     <use xlink:href="#DejaVuSans-30" transform="translate(192.578125 0)"/>
     <use xlink:href="#DejaVuSans-2e" transform="translate(256.201172 0)"/>
     <use xlink:href="#DejaVuSans-35" transform="translate(287.988281 0)"/>
     <use xlink:href="#DejaVuSans-37" transform="translate(351.611328 0)"/>
     <use xlink:href="#DejaVuSans-35" transform="translate(415.234375 0)"/>
     <use xlink:href="#DejaVuSans-20" transform="translate(478.857422 0)"/>
     <use xlink:href="#DejaVuSans-73" transform="translate(510.644531 0)"/>
     <use xlink:href="#DejaVuSans-69" transform="translate(562.744141 0)"/>
     <use xlink:href="#DejaVuSans-67" transform="translate(590.527344 0)"/>
     <use xlink:href="#DejaVuSans-6d" transform="translate(654.003906 0)"/>
     <use xlink:href="#DejaVuSans-61" transform="translate(751.416016 0)"/>
     <use xlink:href="#DejaVuSans-20" transform="translate(812.695312 0)"/>
     <use xlink:href="#DejaVuSans-30" transform="translate(844.482422 0)"/>
     <use xlink:href="#DejaVuSans-2e" transform="translate(908.105469 0)"/>
     <use xlink:href="#DejaVuSans-31" transform="translate(939.892578 0)"/>
     <use xlink:href="#DejaVuSans-32" transform="translate(1003.515625 0)"/>
     <use xlink:href="#DejaVuSans-35" transform="translate(1067.138672 0)"/>
    </g>
   </g>
  </g>
  <g id="axes_4">
   <g id="patch_29">
    <path d="M 33.2875 848.521395 
L 433.19952 848.521395 
L 433.19952 670.318125 
L 33.2875 670.318125 
z
" style="fill: #ffffff"/>
   </g>
   <g id="patch_30">
    <path d="M 60.554229 848.521395 
L 133.265505 848.521395 
L 133.265505 736.173257 
L 60.554229 736.173257 
z
" clip-path="url(#pb310f1f442)" style="fill: #1f77b4"/>
   </g>
   <g id="patch_31">
    <path d="M 151.443324 848.521395 
L 224.1546 848.521395 
L 224.1546 678.803995 
L 151.443324 678.803995 
z
" clip-path="url(#pb310f1f442)" style="fill: #1f77b4"/>
   </g>
   <g id="patch_32">
    <path d="M 242.33242 848.521395 
L 315.043696 848.521395 
L 315.043696 709.879012 
L 242.33242 709.879012 
z
" clip-path="url(#pb310f1f442)" style="fill: #1f77b4"/>
   </g>
   <g id="patch_33">
    <path d="M 333.221515 848.521395 
L 405.932791 848.521395 
L 405.932791 791.152133 
L 333.221515 791.152133 
z
" clip-path="url(#pb310f1f442)" style="fill: #1f77b4"/>
   </g>
   <g id="matplotlib.axis_7">
    <g id="xtick_13">
     <g id="line2d_36">
      <g>
       <use xlink:href="#m3622ef96f0" x="96.909867" y="848.521395" style="stroke: #000000; stroke-width: 0.8"/>
      </g>
     </g>
     <g id="text_39">
      <!-- 0.25 -->
      <g transform="translate(85.777054 863.119832) scale(0.1 -0.1)">
       <use xlink:href="#DejaVuSans-30"/>
       <use xlink:href="#DejaVuSans-2e" transform="translate(63.623047 0)"/>
       <use xlink:href="#DejaVuSans-32" transform="translate(95.410156 0)"/>
       <use xlink:href="#DejaVuSans-35" transform="translate(159.033203 0)"/>
      </g>
     </g>
    </g>
    <g id="xtick_14">
     <g id="line2d_37">
      <g>
       <use xlink:href="#m3622ef96f0" x="187.798962" y="848.521395" style="stroke: #000000; stroke-width: 0.8"/>
      </g>
     </g>
     <g id="text_40">
      <!-- 0.50 -->
      <g transform="translate(176.66615 863.119832) scale(0.1 -0.1)">
       <use xlink:href="#DejaVuSans-30"/>
       <use xlink:href="#DejaVuSans-2e" transform="translate(63.623047 0)"/>
       <use xlink:href="#DejaVuSans-35" transform="translate(95.410156 0)"/>
       <use xlink:href="#DejaVuSans-30" transform="translate(159.033203 0)"/>
      </g>
     </g>
    </g>
    <g id="xtick_15">
     <g id="line2d_38">
      <g>
       <use xlink:href="#m3622ef96f0" x="278.688058" y="848.521395" style="stroke: #000000; stroke-width: 0.8"/>
      </g>
     </g>
     <g id="text_41">
      <!-- 0.75 -->
      <g transform="translate(267.555245 863.119832) scale(0.1 -0.1)">
       <use xlink:href="#DejaVuSans-30"/>
       <use xlink:href="#DejaVuSans-2e" transform="translate(63.623047 0)"/>
       <use xlink:href="#DejaVuSans-37" transform="translate(95.410156 0)"/>
       <use xlink:href="#DejaVuSans-35" transform="translate(159.033203 0)"/>
      </g>
     </g>
    </g>
    <g id="xtick_16">
     <g id="line2d_39">
      <g>
       <use xlink:href="#m3622ef96f0" x="369.577153" y="848.521395" style="stroke: #000000; stroke-width: 0.8"/>
      </g>
     </g>
     <g id="text_42">
      <!-- 1.00 -->
      <g transform="translate(358.444341 863.119832) scale(0.1 -0.1)">
       <use xlink:href="#DejaVuSans-31"/>
       <use xlink:href="#DejaVuSans-2e" transform="translate(63.623047 0)"/>
       <use xlink:href="#DejaVuSans-30" transform="translate(95.410156 0)"/>
       <use xlink:href="#DejaVuSans-30" transform="translate(159.033203 0)"/>
      </g>
     </g>
    </g>
   </g>
   <g id="matplotlib.axis_8">
    <g id="ytick_24">
     <g id="line2d_40">
      <g>
       <use xlink:href="#m7d91bf310d" x="33.2875" y="848.521395" style="stroke: #000000; stroke-width: 0.8"/>
      </g>
     </g>
     <g id="text_43">
      <!-- 0 -->
      <g transform="translate(19.925 852.320614) scale(0.1 -0.1)">
       <use xlink:href="#DejaVuSans-30"/>
      </g>
     </g>
    </g>
    <g id="ytick_25">
     <g id="line2d_41">
      <g>
       <use xlink:href="#m7d91bf310d" x="33.2875" y="824.617536" style="stroke: #000000; stroke-width: 0.8"/>
      </g>
     </g>
     <g id="text_44">
      <!-- 10 -->
      <g transform="translate(13.5625 828.416755) scale(0.1 -0.1)">
       <use xlink:href="#DejaVuSans-31"/>
       <use xlink:href="#DejaVuSans-30" transform="translate(63.623047 0)"/>
      </g>
     </g>
    </g>
    <g id="ytick_26">
     <g id="line2d_42">
      <g>
       <use xlink:href="#m7d91bf310d" x="33.2875" y="800.713677" style="stroke: #000000; stroke-width: 0.8"/>
      </g>
     </g>
     <g id="text_45">
      <!-- 20 -->
      <g transform="translate(13.5625 804.512895) scale(0.1 -0.1)">
       <use xlink:href="#DejaVuSans-32"/>
       <use xlink:href="#DejaVuSans-30" transform="translate(63.623047 0)"/>
      </g>
     </g>
    </g>
    <g id="ytick_27">
     <g id="line2d_43">
      <g>
       <use xlink:href="#m7d91bf310d" x="33.2875" y="776.809818" style="stroke: #000000; stroke-width: 0.8"/>
      </g>
     </g>
     <g id="text_46">
      <!-- 30 -->
      <g transform="translate(13.5625 780.609036) scale(0.1 -0.1)">
       <use xlink:href="#DejaVuSans-33"/>
       <use xlink:href="#DejaVuSans-30" transform="translate(63.623047 0)"/>
      </g>
     </g>
    </g>
    <g id="ytick_28">
     <g id="line2d_44">
      <g>
       <use xlink:href="#m7d91bf310d" x="33.2875" y="752.905958" style="stroke: #000000; stroke-width: 0.8"/>
      </g>
     </g>
     <g id="text_47">
      <!-- 40 -->
      <g transform="translate(13.5625 756.705177) scale(0.1 -0.1)">
       <use xlink:href="#DejaVuSans-34"/>
       <use xlink:href="#DejaVuSans-30" transform="translate(63.623047 0)"/>
      </g>
     </g>
    </g>
    <g id="ytick_29">
     <g id="line2d_45">
      <g>
       <use xlink:href="#m7d91bf310d" x="33.2875" y="729.002099" style="stroke: #000000; stroke-width: 0.8"/>
      </g>
     </g>
     <g id="text_48">
      <!-- 50 -->
      <g transform="translate(13.5625 732.801318) scale(0.1 -0.1)">
       <use xlink:href="#DejaVuSans-35"/>
       <use xlink:href="#DejaVuSans-30" transform="translate(63.623047 0)"/>
      </g>
     </g>
    </g>
    <g id="ytick_30">
     <g id="line2d_46">
      <g>
       <use xlink:href="#m7d91bf310d" x="33.2875" y="705.09824" style="stroke: #000000; stroke-width: 0.8"/>
      </g>
     </g>
     <g id="text_49">
      <!-- 60 -->
      <g transform="translate(13.5625 708.897459) scale(0.1 -0.1)">
       <use xlink:href="#DejaVuSans-36"/>
       <use xlink:href="#DejaVuSans-30" transform="translate(63.623047 0)"/>
      </g>
     </g>
    </g>
    <g id="ytick_31">
     <g id="line2d_47">
      <g>
       <use xlink:href="#m7d91bf310d" x="33.2875" y="681.194381" style="stroke: #000000; stroke-width: 0.8"/>
      </g>
     </g>
     <g id="text_50">
      <!-- 70 -->
      <g transform="translate(13.5625 684.9936) scale(0.1 -0.1)">
       <use xlink:href="#DejaVuSans-37"/>
       <use xlink:href="#DejaVuSans-30" transform="translate(63.623047 0)"/>
      </g>
     </g>
    </g>
   </g>
   <g id="patch_34">
    <path d="M 33.2875 848.521395 
L 33.2875 670.318125 
" style="fill: none; stroke: #000000; stroke-width: 0.8; stroke-linejoin: miter; stroke-linecap: square"/>
   </g>
   <g id="patch_35">
    <path d="M 433.19952 848.521395 
L 433.19952 670.318125 
" style="fill: none; stroke: #000000; stroke-width: 0.8; stroke-linejoin: miter; stroke-linecap: square"/>
   </g>
   <g id="patch_36">
    <path d="M 33.2875 848.521395 
L 433.19952 848.521395 
" style="fill: none; stroke: #000000; stroke-width: 0.8; stroke-linejoin: miter; stroke-linecap: square"/>
   </g>
   <g id="patch_37">
    <path d="M 33.2875 670.318125 
L 433.19952 670.318125 
" style="fill: none; stroke: #000000; stroke-width: 0.8; stroke-linejoin: miter; stroke-linecap: square"/>
   </g>
   <g id="text_51">
    <!-- mu 0.575 sigma 0.250 -->
    <g transform="translate(165.399448 664.318125) scale(0.12 -0.12)">
     <use xlink:href="#DejaVuSans-6d"/>
     <use xlink:href="#DejaVuSans-75" transform="translate(97.412109 0)"/>
     <use xlink:href="#DejaVuSans-20" transform="translate(160.791016 0)"/>
     <use xlink:href="#DejaVuSans-30" transform="translate(192.578125 0)"/>
     <use xlink:href="#DejaVuSans-2e" transform="translate(256.201172 0)"/>
     <use xlink:href="#DejaVuSans-35" transform="translate(287.988281 0)"/>
     <use xlink:href="#DejaVuSans-37" transform="translate(351.611328 0)"/>
     <use xlink:href="#DejaVuSans-35" transform="translate(415.234375 0)"/>
     <use xlink:href="#DejaVuSans-20" transform="translate(478.857422 0)"/>
     <use xlink:href="#DejaVuSans-73" transform="translate(510.644531 0)"/>
     <use xlink:href="#DejaVuSans-69" transform="translate(562.744141 0)"/>
     <use xlink:href="#DejaVuSans-67" transform="translate(590.527344 0)"/>
     <use xlink:href="#DejaVuSans-6d" transform="translate(654.003906 0)"/>
     <use xlink:href="#DejaVuSans-61" transform="translate(751.416016 0)"/>
     <use xlink:href="#DejaVuSans-20" transform="translate(812.695312 0)"/>
     <use xlink:href="#DejaVuSans-30" transform="translate(844.482422 0)"/>
     <use xlink:href="#DejaVuSans-2e" transform="translate(908.105469 0)"/>
     <use xlink:href="#DejaVuSans-32" transform="translate(939.892578 0)"/>
     <use xlink:href="#DejaVuSans-35" transform="translate(1003.515625 0)"/>
     <use xlink:href="#DejaVuSans-30" transform="translate(1067.138672 0)"/>
    </g>
   </g>
  </g>
  <g id="axes_5">
   <g id="matplotlib.axis_9"/>
   <g id="line2d_48">
    <path d="M 51.465319 192.421246 
L 55.137606 192.421246 
L 58.809892 192.421246 
L 62.482179 192.421246 
L 66.154466 192.421246 
L 69.826753 192.421246 
L 73.499039 192.421246 
L 77.171326 192.421246 
L 80.843613 192.421246 
L 84.515899 192.421246 
L 88.188186 192.421246 
L 91.860473 192.421246 
L 95.532759 192.421246 
L 99.205046 192.421246 
L 102.877333 192.421246 
L 106.549619 192.421246 
L 110.221906 192.421246 
L 113.894193 192.421246 
L 117.566479 192.421246 
L 121.238766 192.421246 
L 124.911053 192.421246 
L 128.583339 192.421246 
L 132.255626 192.421246 
L 135.927913 192.421246 
L 139.6002 192.421246 
L 143.272486 192.421246 
L 146.944773 192.421244 
L 150.61706 192.42123 
L 154.289346 192.421146 
L 157.961633 192.420711 
L 161.63392 192.418669 
L 165.306206 192.410061 
L 168.978493 192.377514 
L 172.65078 192.26723 
L 176.323066 191.932642 
L 179.995353 191.024963 
L 183.66764 188.826943 
L 187.339926 184.086715 
L 191.012213 175.012284 
L 194.6845 159.665319 
L 198.356786 136.903454 
L 202.029073 107.659524 
L 205.70136 75.849677 
L 209.373647 48.006746 
L 213.045933 31.262363 
L 216.71822 30.418274 
L 220.390507 45.725673 
L 224.062793 72.76474 
L 227.73508 104.502615 
L 231.407367 134.230918 
L 235.079653 157.727916 
L 238.75194 173.788947 
L 242.424227 183.407357 
L 246.096513 188.49314 
L 249.7688 190.879263 
L 253.441087 191.875989 
L 257.113373 192.247567 
L 260.78566 192.371413 
L 264.457947 192.408366 
L 268.130234 192.418248 
L 271.80252 192.420617 
L 275.474807 192.421128 
L 279.147094 192.421226 
L 282.81938 192.421243 
L 286.491667 192.421246 
L 290.163954 192.421246 
L 293.83624 192.421246 
L 297.508527 192.421246 
L 301.180814 192.421246 
L 304.8531 192.421246 
L 308.525387 192.421246 
L 312.197674 192.421246 
L 315.86996 192.421246 
L 319.542247 192.421246 
L 323.214534 192.421246 
L 326.88682 192.421246 
L 330.559107 192.421246 
L 334.231394 192.421246 
L 337.903681 192.421246 
L 341.575967 192.421246 
L 345.248254 192.421246 
L 348.920541 192.421246 
L 352.592827 192.421246 
L 356.265114 192.421246 
L 359.937401 192.421246 
L 363.609687 192.421246 
L 367.281974 192.421246 
L 370.954261 192.421246 
L 374.626547 192.421246 
L 378.298834 192.421246 
L 381.971121 192.421246 
L 385.643407 192.421246 
L 389.315694 192.421246 
L 392.987981 192.421246 
L 396.660267 192.421246 
L 400.332554 192.421246 
L 404.004841 192.421246 
L 407.677128 192.421246 
L 411.349414 192.421246 
L 415.021701 192.421246 
" clip-path="url(#pc97d1323b4)" style="fill: none; stroke: #ffa500; stroke-width: 1.5; stroke-linecap: square"/>
   </g>
   <g id="patch_38">
    <path d="M 33.2875 200.521395 
L 33.2875 22.318125 
" style="fill: none; stroke: #000000; stroke-width: 0.8; stroke-linejoin: miter; stroke-linecap: square"/>
   </g>
   <g id="patch_39">
    <path d="M 433.19952 200.521395 
L 433.19952 22.318125 
" style="fill: none; stroke: #000000; stroke-width: 0.8; stroke-linejoin: miter; stroke-linecap: square"/>
   </g>
   <g id="patch_40">
    <path d="M 33.2875 200.521395 
L 433.19952 200.521395 
" style="fill: none; stroke: #000000; stroke-width: 0.8; stroke-linejoin: miter; stroke-linecap: square"/>
   </g>
   <g id="patch_41">
    <path d="M 33.2875 22.318125 
L 433.19952 22.318125 
" style="fill: none; stroke: #000000; stroke-width: 0.8; stroke-linejoin: miter; stroke-linecap: square"/>
   </g>
  </g>
  <g id="axes_6">
   <g id="matplotlib.axis_10"/>
   <g id="line2d_49">
    <path d="M 51.465319 408.421246 
L 55.137606 408.421246 
L 58.809892 408.421246 
L 62.482179 408.421246 
L 66.154466 408.421246 
L 69.826753 408.421246 
L 73.499039 408.421246 
L 77.171326 408.421245 
L 80.843613 408.421242 
L 84.515899 408.421235 
L 88.188186 408.421219 
L 91.860473 408.421179 
L 95.532759 408.421087 
L 99.205046 408.420879 
L 102.877333 408.42042 
L 106.549619 408.419435 
L 110.221906 408.417378 
L 113.894193 408.413198 
L 117.566479 408.404932 
L 121.238766 408.38903 
L 124.911053 408.359268 
L 128.583339 408.305087 
L 132.255626 408.209153 
L 135.927913 408.043974 
L 139.6002 407.767454 
L 143.272486 407.317471 
L 146.944773 406.605824 
L 150.61706 405.512332 
L 154.289346 403.88036 
L 157.961633 401.515563 
L 161.63392 398.189988 
L 165.306206 393.653721 
L 168.978493 387.655731 
L 172.65078 379.974406 
L 176.323066 370.456398 
L 179.995353 359.060054 
L 183.66764 345.897366 
L 187.339926 331.266521 
L 191.012213 315.666646 
L 194.6845 299.787511 
L 198.356786 284.470175 
L 202.029073 270.639343 
L 205.70136 259.213834 
L 209.373647 251.006672 
L 213.045933 246.62971 
L 216.71822 246.418274 
L 220.390507 250.388717 
L 224.062793 258.23633 
L 227.73508 269.373976 
L 231.407367 283.00467 
L 235.079653 298.215628 
L 238.75194 314.078427 
L 242.424227 329.740171 
L 246.096513 344.493698 
L 249.7688 357.819893 
L 253.441087 369.400773 
L 257.113373 379.106964 
L 260.78566 386.966553 
L 264.457947 393.123703 
L 268.130234 397.795061 
L 271.80252 401.230245 
L 275.474807 403.68038 
L 279.147094 405.376281 
L 282.81938 406.515946 
L 286.491667 407.259796 
L 290.163954 407.731492 
L 293.83624 408.022181 
L 297.508527 408.196315 
L 301.180814 408.297733 
L 304.8531 408.355172 
L 308.525387 408.386811 
L 312.197674 408.403762 
L 315.86996 408.412598 
L 319.542247 408.417079 
L 323.214534 408.41929 
L 326.88682 408.420352 
L 330.559107 408.420848 
L 334.231394 408.421073 
L 337.903681 408.421173 
L 341.575967 408.421216 
L 345.248254 408.421234 
L 348.920541 408.421242 
L 352.592827 408.421245 
L 356.265114 408.421246 
L 359.937401 408.421246 
L 363.609687 408.421246 
L 367.281974 408.421246 
L 370.954261 408.421246 
L 374.626547 408.421246 
L 378.298834 408.421246 
L 381.971121 408.421246 
L 385.643407 408.421246 
L 389.315694 408.421246 
L 392.987981 408.421246 
L 396.660267 408.421246 
L 400.332554 408.421246 
L 404.004841 408.421246 
L 407.677128 408.421246 
L 411.349414 408.421246 
L 415.021701 408.421246 
" clip-path="url(#p3bb6f1e979)" style="fill: none; stroke: #ffa500; stroke-width: 1.5; stroke-linecap: square"/>
   </g>
   <g id="patch_42">
    <path d="M 33.2875 416.521395 
L 33.2875 238.318125 
" style="fill: none; stroke: #000000; stroke-width: 0.8; stroke-linejoin: miter; stroke-linecap: square"/>
   </g>
   <g id="patch_43">
    <path d="M 433.19952 416.521395 
L 433.19952 238.318125 
" style="fill: none; stroke: #000000; stroke-width: 0.8; stroke-linejoin: miter; stroke-linecap: square"/>
   </g>
   <g id="patch_44">
    <path d="M 33.2875 416.521395 
L 433.19952 416.521395 
" style="fill: none; stroke: #000000; stroke-width: 0.8; stroke-linejoin: miter; stroke-linecap: square"/>
   </g>
   <g id="patch_45">
    <path d="M 33.2875 238.318125 
L 433.19952 238.318125 
" style="fill: none; stroke: #000000; stroke-width: 0.8; stroke-linejoin: miter; stroke-linecap: square"/>
   </g>
  </g>
  <g id="axes_7">
   <g id="matplotlib.axis_11"/>
   <g id="line2d_50">
    <path d="M 51.465319 624.182721 
L 55.137606 624.099846 
L 58.809892 623.992228 
L 62.482179 623.853462 
L 66.154466 623.675799 
L 69.826753 623.449948 
L 73.499039 623.164887 
L 77.171326 622.807665 
L 80.843613 622.363236 
L 84.515899 621.814307 
L 88.188186 621.141236 
L 91.860473 620.321984 
L 95.532759 619.332143 
L 99.205046 618.14506 
L 102.877333 616.73207 
L 106.549619 615.062856 
L 110.221906 613.105951 
L 113.894193 610.829397 
L 117.566479 608.201554 
L 121.238766 605.192066 
L 124.911053 601.772973 
L 128.583339 597.919945 
L 132.255626 593.613612 
L 135.927913 588.840952 
L 139.6002 583.596684 
L 143.272486 577.884614 
L 146.944773 571.71886 
L 150.61706 565.124903 
L 154.289346 558.140382 
L 157.961633 550.815575 
L 161.63392 543.213498 
L 165.306206 535.409589 
L 168.978493 527.49092 
L 172.65078 519.554947 
L 176.323066 511.707788 
L 179.995353 504.062059 
L 183.66764 496.734325 
L 187.339926 489.842235 
L 191.012213 483.50144 
L 194.6845 477.822397 
L 198.356786 472.907189 
L 202.029073 468.846479 
L 205.70136 465.716735 
L 209.373647 463.577835 
L 213.045933 462.471162 
L 216.71822 462.418274 
L 220.390507 463.420203 
L 224.062793 465.457424 
L 227.73508 468.490486 
L 231.407367 472.461284 
L 235.079653 477.294909 
L 238.75194 482.901997 
L 242.424227 489.181473 
L 246.096513 496.023577 
L 249.7688 503.313033 
L 253.441087 510.932249 
L 257.113373 518.764419 
L 260.78566 526.696412 
L 264.457947 534.621355 
L 268.130234 542.440841 
L 271.80252 550.066695 
L 275.474807 557.422274 
L 279.147094 564.443296 
L 282.81938 571.07821 
L 286.491667 577.288126 
L 290.163954 583.04638 
L 293.83624 588.33776 
L 297.508527 593.157483 
L 301.180814 597.50998 
L 304.8531 601.407561 
L 308.525387 604.869023 
L 312.197674 607.918263 
L 315.86996 610.582935 
L 319.542247 612.893207 
L 323.214534 614.880637 
L 326.88682 616.577191 
L 330.559107 618.014416 
L 334.231394 619.222769 
L 337.903681 620.231099 
L 341.575967 621.066273 
L 345.248254 621.752931 
L 348.920541 622.313351 
L 352.592827 622.767413 
L 356.265114 623.132643 
L 359.937401 623.424305 
L 363.609687 623.65555 
L 367.281974 623.837587 
L 370.954261 623.979869 
L 374.626547 624.090293 
L 378.298834 624.175389 
L 381.971121 624.240505 
L 385.643407 624.289984 
L 389.315694 624.327319 
L 392.987981 624.355295 
L 396.660267 624.376111 
L 400.332554 624.391494 
L 404.004841 624.402783 
L 407.677128 624.411011 
L 411.349414 624.416966 
L 415.021701 624.421246 
" clip-path="url(#pd17c661623)" style="fill: none; stroke: #ffa500; stroke-width: 1.5; stroke-linecap: square"/>
   </g>
   <g id="patch_46">
    <path d="M 33.2875 632.521395 
L 33.2875 454.318125 
" style="fill: none; stroke: #000000; stroke-width: 0.8; stroke-linejoin: miter; stroke-linecap: square"/>
   </g>
   <g id="patch_47">
    <path d="M 433.19952 632.521395 
L 433.19952 454.318125 
" style="fill: none; stroke: #000000; stroke-width: 0.8; stroke-linejoin: miter; stroke-linecap: square"/>
   </g>
   <g id="patch_48">
    <path d="M 33.2875 632.521395 
L 433.19952 632.521395 
" style="fill: none; stroke: #000000; stroke-width: 0.8; stroke-linejoin: miter; stroke-linecap: square"/>
   </g>
   <g id="patch_49">
    <path d="M 33.2875 454.318125 
L 433.19952 454.318125 
" style="fill: none; stroke: #000000; stroke-width: 0.8; stroke-linejoin: miter; stroke-linecap: square"/>
   </g>
  </g>
  <g id="axes_8">
   <g id="matplotlib.axis_12"/>
   <g id="line2d_51">
    <path d="M 51.465319 821.040022 
L 55.137606 818.415844 
L 58.809892 815.662297 
L 62.482179 812.779273 
L 66.154466 809.767311 
L 69.826753 806.62764 
L 73.499039 803.36222 
L 77.171326 799.973778 
L 80.843613 796.465838 
L 84.515899 792.842749 
L 88.188186 789.10971 
L 91.860473 785.272784 
L 95.532759 781.338906 
L 99.205046 777.315891 
L 102.877333 773.212428 
L 106.549619 769.03807 
L 110.221906 764.803212 
L 113.894193 760.519066 
L 117.566479 756.197627 
L 121.238766 751.851627 
L 124.911053 747.494485 
L 128.583339 743.140248 
L 132.255626 738.80352 
L 135.927913 734.499392 
L 139.6002 730.243358 
L 143.272486 726.051226 
L 146.944773 721.939027 
L 150.61706 717.922911 
L 154.289346 714.01905 
L 157.961633 710.243529 
L 161.63392 706.612233 
L 165.306206 703.140746 
L 168.978493 699.844229 
L 172.65078 696.737323 
L 176.323066 693.834028 
L 179.995353 691.147611 
L 183.66764 688.690493 
L 187.339926 686.474164 
L 191.012213 684.509088 
L 194.6845 682.804619 
L 198.356786 681.368934 
L 202.029073 680.20896 
L 205.70136 679.330323 
L 209.373647 678.7373 
L 213.045933 678.432787 
L 216.71822 678.418274 
L 220.390507 678.69383 
L 224.062793 679.258109 
L 227.73508 680.108355 
L 231.407367 681.240427 
L 235.079653 682.648831 
L 238.75194 684.326769 
L 242.424227 686.266187 
L 246.096513 688.457844 
L 249.7688 690.891383 
L 253.441087 693.555415 
L 257.113373 696.437606 
L 260.78566 699.52477 
L 264.457947 702.802974 
L 268.130234 706.25764 
L 271.80252 709.873649 
L 275.474807 713.635459 
L 279.147094 717.527207 
L 282.81938 721.532824 
L 286.491667 725.636144 
L 290.163954 729.821006 
L 293.83624 734.071366 
L 297.508527 738.371388 
L 301.180814 742.705542 
L 304.8531 747.058694 
L 308.525387 751.416187 
L 312.197674 755.763916 
L 315.86996 760.088396 
L 319.542247 764.376823 
L 323.214534 768.617128 
L 326.88682 772.798018 
L 330.559107 776.909014 
L 334.231394 780.940479 
L 337.903681 784.883637 
L 341.575967 788.730585 
L 345.248254 792.4743 
L 348.920541 796.108631 
L 352.592827 799.628296 
L 356.265114 803.02886 
L 359.937401 806.306718 
L 363.609687 809.459064 
L 367.281974 812.483864 
L 370.954261 815.379818 
L 374.626547 818.146317 
L 378.298834 820.78341 
L 381.971121 823.29175 
L 385.643407 825.672552 
L 389.315694 827.927549 
L 392.987981 830.058936 
L 396.660267 832.069329 
L 400.332554 833.961714 
L 404.004841 835.7394 
L 407.677128 837.405974 
L 411.349414 838.965253 
L 415.021701 840.421246 
" clip-path="url(#pb310f1f442)" style="fill: none; stroke: #ffa500; stroke-width: 1.5; stroke-linecap: square"/>
   </g>
   <g id="patch_50">
    <path d="M 33.2875 848.521395 
L 33.2875 670.318125 
" style="fill: none; stroke: #000000; stroke-width: 0.8; stroke-linejoin: miter; stroke-linecap: square"/>
   </g>
   <g id="patch_51">
    <path d="M 433.19952 848.521395 
L 433.19952 670.318125 
" style="fill: none; stroke: #000000; stroke-width: 0.8; stroke-linejoin: miter; stroke-linecap: square"/>
   </g>
   <g id="patch_52">
    <path d="M 33.2875 848.521395 
L 433.19952 848.521395 
" style="fill: none; stroke: #000000; stroke-width: 0.8; stroke-linejoin: miter; stroke-linecap: square"/>
   </g>
   <g id="patch_53">
    <path d="M 33.2875 670.318125 
L 433.19952 670.318125 
" style="fill: none; stroke: #000000; stroke-width: 0.8; stroke-linejoin: miter; stroke-linecap: square"/>
   </g>
  </g>
 </g>
 <defs>
  <clipPath id="pc97d1323b4">
   <rect x="33.2875" y="22.318125" width="399.91202" height="178.20327"/>
  </clipPath>
  <clipPath id="p3bb6f1e979">
   <rect x="33.2875" y="238.318125" width="399.91202" height="178.20327"/>
  </clipPath>
  <clipPath id="pd17c661623">
   <rect x="33.2875" y="454.318125" width="399.91202" height="178.20327"/>
  </clipPath>
  <clipPath id="pb310f1f442">
   <rect x="33.2875" y="670.318125" width="399.91202" height="178.20327"/>
  </clipPath>
 </defs>
</svg>
