<?xml version="1.0" encoding="utf-8" standalone="no"?>
<!DOCTYPE svg PUBLIC "-//W3C//DTD SVG 1.1//EN"
  "http://www.w3.org/Graphics/SVG/1.1/DTD/svg11.dtd">
<svg xmlns:xlink="http://www.w3.org/1999/xlink" width="440.342665pt" height="728.39952pt" viewBox="0 0 440.342665 728.39952" xmlns="http://www.w3.org/2000/svg" version="1.1">
 <metadata>
  <rdf:RDF xmlns:dc="http://purl.org/dc/elements/1.1/" xmlns:cc="http://creativecommons.org/ns#" xmlns:rdf="http://www.w3.org/1999/02/22-rdf-syntax-ns#">
   <cc:Work>
    <dc:type rdf:resource="http://purl.org/dc/dcmitype/StillImage"/>
    <dc:date>2025-09-26T23:19:56.759916</dc:date>
    <dc:format>image/svg+xml</dc:format>
    <dc:creator>
     <cc:Agent>
      <dc:title>Matplotlib v3.10.6, https://matplotlib.org/</dc:title>
     </cc:Agent>
    </dc:creator>
   </cc:Work>
  </rdf:RDF>
 </metadata>
 <defs>
  <style type="text/css">*{stroke-linejoin: round; stroke-linecap: butt}</style>
 </defs>
 <g id="figure_1">
  <g id="patch_1">
   <path d="M 0 728.39952 
L 440.342665 728.39952 
L 440.342665 0 
L 0 0 
z
" style="fill: #ffffff"/>
  </g>
  <g id="axes_1">
   <g id="patch_2">
    <path d="M 30.103125 224.521395 
L 211.053625 224.521395 
L 211.053625 22.318125 
L 30.103125 22.318125 
z
" style="fill: #ffffff"/>
   </g>
   <g id="matplotlib.axis_1">
    <g id="xtick_1">
     <g id="line2d_1">
      <defs>
       <path id="ma186b30c3b" d="M 0 0 
L 0 3.5 
" style="stroke: #000000; stroke-width: 0.8"/>
      </defs>
      <g>
       <use xlink:href="#ma186b30c3b" x="38.328148" y="224.521395" style="stroke: #000000; stroke-width: 0.8"/>
      </g>
     </g>
     <g id="text_1">
      <!-- 0.25 -->
      <g transform="translate(27.195335 239.119832) scale(0.1 -0.1)">
       <defs>
        <path id="DejaVuSans-30" d="M 2034 4250 
Q 1547 4250 1301 3770 
Q 1056 3291 1056 2328 
Q 1056 1369 1301 889 
Q 1547 409 2034 409 
Q 2525 409 2770 889 
Q 3016 1369 3016 2328 
Q 3016 3291 2770 3770 
Q 2525 4250 2034 4250 
z
M 2034 4750 
Q 2819 4750 3233 4129 
Q 3647 3509 3647 2328 
Q 3647 1150 3233 529 
Q 2819 -91 2034 -91 
Q 1250 -91 836 529 
Q 422 1150 422 2328 
Q 422 3509 836 4129 
Q 1250 4750 2034 4750 
z
" transform="scale(0.015625)"/>
        <path id="DejaVuSans-2e" d="M 684 794 
L 1344 794 
L 1344 0 
L 684 0 
L 684 794 
z
" transform="scale(0.015625)"/>
        <path id="DejaVuSans-32" d="M 1228 531 
L 3431 531 
L 3431 0 
L 469 0 
L 469 531 
Q 828 903 1448 1529 
Q 2069 2156 2228 2338 
Q 2531 2678 2651 2914 
Q 2772 3150 2772 3378 
Q 2772 3750 2511 3984 
Q 2250 4219 1831 4219 
Q 1534 4219 1204 4116 
Q 875 4013 500 3803 
L 500 4441 
Q 881 4594 1212 4672 
Q 1544 4750 1819 4750 
Q 2544 4750 2975 4387 
Q 3406 4025 3406 3419 
Q 3406 3131 3298 2873 
Q 3191 2616 2906 2266 
Q 2828 2175 2409 1742 
Q 1991 1309 1228 531 
z
" transform="scale(0.015625)"/>
        <path id="DejaVuSans-35" d="M 691 4666 
L 3169 4666 
L 3169 4134 
L 1269 4134 
L 1269 2991 
Q 1406 3038 1543 3061 
Q 1681 3084 1819 3084 
Q 2600 3084 3056 2656 
Q 3513 2228 3513 1497 
Q 3513 744 3044 326 
Q 2575 -91 1722 -91 
Q 1428 -91 1123 -41 
Q 819 9 494 109 
L 494 744 
Q 775 591 1075 516 
Q 1375 441 1709 441 
Q 2250 441 2565 725 
Q 2881 1009 2881 1497 
Q 2881 1984 2565 2268 
Q 2250 2553 1709 2553 
Q 1456 2553 1204 2497 
Q 953 2441 691 2322 
L 691 4666 
z
" transform="scale(0.015625)"/>
       </defs>
       <use xlink:href="#DejaVuSans-30"/>
       <use xlink:href="#DejaVuSans-2e" transform="translate(63.623047 0)"/>
       <use xlink:href="#DejaVuSans-32" transform="translate(95.410156 0)"/>
       <use xlink:href="#DejaVuSans-35" transform="translate(159.033203 0)"/>
      </g>
     </g>
    </g>
    <g id="xtick_2">
     <g id="line2d_2">
      <g>
       <use xlink:href="#ma186b30c3b" x="93.161633" y="224.521395" style="stroke: #000000; stroke-width: 0.8"/>
      </g>
     </g>
     <g id="text_2">
      <!-- 0.50 -->
      <g transform="translate(82.02882 239.119832) scale(0.1 -0.1)">
       <use xlink:href="#DejaVuSans-30"/>
       <use xlink:href="#DejaVuSans-2e" transform="translate(63.623047 0)"/>
       <use xlink:href="#DejaVuSans-35" transform="translate(95.410156 0)"/>
       <use xlink:href="#DejaVuSans-30" transform="translate(159.033203 0)"/>
      </g>
     </g>
    </g>
    <g id="xtick_3">
     <g id="line2d_3">
      <g>
       <use xlink:href="#ma186b30c3b" x="147.995118" y="224.521395" style="stroke: #000000; stroke-width: 0.8"/>
      </g>
     </g>
     <g id="text_3">
      <!-- 0.75 -->
      <g transform="translate(136.862305 239.119832) scale(0.1 -0.1)">
       <defs>
        <path id="DejaVuSans-37" d="M 525 4666 
L 3525 4666 
L 3525 4397 
L 1831 0 
L 1172 0 
L 2766 4134 
L 525 4134 
L 525 4666 
z
" transform="scale(0.015625)"/>
       </defs>
       <use xlink:href="#DejaVuSans-30"/>
       <use xlink:href="#DejaVuSans-2e" transform="translate(63.623047 0)"/>
       <use xlink:href="#DejaVuSans-37" transform="translate(95.410156 0)"/>
       <use xlink:href="#DejaVuSans-35" transform="translate(159.033203 0)"/>
      </g>
     </g>
    </g>
    <g id="xtick_4">
     <g id="line2d_4">
      <g>
       <use xlink:href="#ma186b30c3b" x="202.828602" y="224.521395" style="stroke: #000000; stroke-width: 0.8"/>
      </g>
     </g>
     <g id="text_4">
      <!-- 1.00 -->
      <g transform="translate(191.69579 239.119832) scale(0.1 -0.1)">
       <defs>
        <path id="DejaVuSans-31" d="M 794 531 
L 1825 531 
L 1825 4091 
L 703 3866 
L 703 4441 
L 1819 4666 
L 2450 4666 
L 2450 531 
L 3481 531 
L 3481 0 
L 794 0 
L 794 531 
z
" transform="scale(0.015625)"/>
       </defs>
       <use xlink:href="#DejaVuSans-31"/>
       <use xlink:href="#DejaVuSans-2e" transform="translate(63.623047 0)"/>
       <use xlink:href="#DejaVuSans-30" transform="translate(95.410156 0)"/>
       <use xlink:href="#DejaVuSans-30" transform="translate(159.033203 0)"/>
      </g>
     </g>
    </g>
   </g>
   <g id="matplotlib.axis_2">
    <g id="ytick_1">
     <g id="line2d_5">
      <defs>
       <path id="mfc131d5729" d="M 0 0 
L -3.5 0 
" style="stroke: #000000; stroke-width: 0.8"/>
      </defs>
      <g>
       <use xlink:href="#mfc131d5729" x="30.103125" y="203.075594" style="stroke: #000000; stroke-width: 0.8"/>
      </g>
     </g>
     <g id="text_5">
      <!-- 0.3 -->
      <g transform="translate(7.2 206.874812) scale(0.1 -0.1)">
       <defs>
        <path id="DejaVuSans-33" d="M 2597 2516 
Q 3050 2419 3304 2112 
Q 3559 1806 3559 1356 
Q 3559 666 3084 287 
Q 2609 -91 1734 -91 
Q 1441 -91 1130 -33 
Q 819 25 488 141 
L 488 750 
Q 750 597 1062 519 
Q 1375 441 1716 441 
Q 2309 441 2620 675 
Q 2931 909 2931 1356 
Q 2931 1769 2642 2001 
Q 2353 2234 1838 2234 
L 1294 2234 
L 1294 2753 
L 1863 2753 
Q 2328 2753 2575 2939 
Q 2822 3125 2822 3475 
Q 2822 3834 2567 4026 
Q 2313 4219 1838 4219 
Q 1578 4219 1281 4162 
Q 984 4106 628 3988 
L 628 4550 
Q 988 4650 1302 4700 
Q 1616 4750 1894 4750 
Q 2613 4750 3031 4423 
Q 3450 4097 3450 3541 
Q 3450 3153 3228 2886 
Q 3006 2619 2597 2516 
z
" transform="scale(0.015625)"/>
       </defs>
       <use xlink:href="#DejaVuSans-30"/>
       <use xlink:href="#DejaVuSans-2e" transform="translate(63.623047 0)"/>
       <use xlink:href="#DejaVuSans-33" transform="translate(95.410156 0)"/>
      </g>
     </g>
    </g>
    <g id="ytick_2">
     <g id="line2d_6">
      <g>
       <use xlink:href="#mfc131d5729" x="30.103125" y="178.566106" style="stroke: #000000; stroke-width: 0.8"/>
      </g>
     </g>
     <g id="text_6">
      <!-- 0.4 -->
      <g transform="translate(7.2 182.365325) scale(0.1 -0.1)">
       <defs>
        <path id="DejaVuSans-34" d="M 2419 4116 
L 825 1625 
L 2419 1625 
L 2419 4116 
z
M 2253 4666 
L 3047 4666 
L 3047 1625 
L 3713 1625 
L 3713 1100 
L 3047 1100 
L 3047 0 
L 2419 0 
L 2419 1100 
L 313 1100 
L 313 1709 
L 2253 4666 
z
" transform="scale(0.015625)"/>
       </defs>
       <use xlink:href="#DejaVuSans-30"/>
       <use xlink:href="#DejaVuSans-2e" transform="translate(63.623047 0)"/>
       <use xlink:href="#DejaVuSans-34" transform="translate(95.410156 0)"/>
      </g>
     </g>
    </g>
    <g id="ytick_3">
     <g id="line2d_7">
      <g>
       <use xlink:href="#mfc131d5729" x="30.103125" y="154.056619" style="stroke: #000000; stroke-width: 0.8"/>
      </g>
     </g>
     <g id="text_7">
      <!-- 0.5 -->
      <g transform="translate(7.2 157.855838) scale(0.1 -0.1)">
       <use xlink:href="#DejaVuSans-30"/>
       <use xlink:href="#DejaVuSans-2e" transform="translate(63.623047 0)"/>
       <use xlink:href="#DejaVuSans-35" transform="translate(95.410156 0)"/>
      </g>
     </g>
    </g>
    <g id="ytick_4">
     <g id="line2d_8">
      <g>
       <use xlink:href="#mfc131d5729" x="30.103125" y="129.547132" style="stroke: #000000; stroke-width: 0.8"/>
      </g>
     </g>
     <g id="text_8">
      <!-- 0.6 -->
      <g transform="translate(7.2 133.346351) scale(0.1 -0.1)">
       <defs>
        <path id="DejaVuSans-36" d="M 2113 2584 
Q 1688 2584 1439 2293 
Q 1191 2003 1191 1497 
Q 1191 994 1439 701 
Q 1688 409 2113 409 
Q 2538 409 2786 701 
Q 3034 994 3034 1497 
Q 3034 2003 2786 2293 
Q 2538 2584 2113 2584 
z
M 3366 4563 
L 3366 3988 
Q 3128 4100 2886 4159 
Q 2644 4219 2406 4219 
Q 1781 4219 1451 3797 
Q 1122 3375 1075 2522 
Q 1259 2794 1537 2939 
Q 1816 3084 2150 3084 
Q 2853 3084 3261 2657 
Q 3669 2231 3669 1497 
Q 3669 778 3244 343 
Q 2819 -91 2113 -91 
Q 1303 -91 875 529 
Q 447 1150 447 2328 
Q 447 3434 972 4092 
Q 1497 4750 2381 4750 
Q 2619 4750 2861 4703 
Q 3103 4656 3366 4563 
z
" transform="scale(0.015625)"/>
       </defs>
       <use xlink:href="#DejaVuSans-30"/>
       <use xlink:href="#DejaVuSans-2e" transform="translate(63.623047 0)"/>
       <use xlink:href="#DejaVuSans-36" transform="translate(95.410156 0)"/>
      </g>
     </g>
    </g>
    <g id="ytick_5">
     <g id="line2d_9">
      <g>
       <use xlink:href="#mfc131d5729" x="30.103125" y="105.037645" style="stroke: #000000; stroke-width: 0.8"/>
      </g>
     </g>
     <g id="text_9">
      <!-- 0.7 -->
      <g transform="translate(7.2 108.836863) scale(0.1 -0.1)">
       <use xlink:href="#DejaVuSans-30"/>
       <use xlink:href="#DejaVuSans-2e" transform="translate(63.623047 0)"/>
       <use xlink:href="#DejaVuSans-37" transform="translate(95.410156 0)"/>
      </g>
     </g>
    </g>
    <g id="ytick_6">
     <g id="line2d_10">
      <g>
       <use xlink:href="#mfc131d5729" x="30.103125" y="80.528157" style="stroke: #000000; stroke-width: 0.8"/>
      </g>
     </g>
     <g id="text_10">
      <!-- 0.8 -->
      <g transform="translate(7.2 84.327376) scale(0.1 -0.1)">
       <defs>
        <path id="DejaVuSans-38" d="M 2034 2216 
Q 1584 2216 1326 1975 
Q 1069 1734 1069 1313 
Q 1069 891 1326 650 
Q 1584 409 2034 409 
Q 2484 409 2743 651 
Q 3003 894 3003 1313 
Q 3003 1734 2745 1975 
Q 2488 2216 2034 2216 
z
M 1403 2484 
Q 997 2584 770 2862 
Q 544 3141 544 3541 
Q 544 4100 942 4425 
Q 1341 4750 2034 4750 
Q 2731 4750 3128 4425 
Q 3525 4100 3525 3541 
Q 3525 3141 3298 2862 
Q 3072 2584 2669 2484 
Q 3125 2378 3379 2068 
Q 3634 1759 3634 1313 
Q 3634 634 3220 271 
Q 2806 -91 2034 -91 
Q 1263 -91 848 271 
Q 434 634 434 1313 
Q 434 1759 690 2068 
Q 947 2378 1403 2484 
z
M 1172 3481 
Q 1172 3119 1398 2916 
Q 1625 2713 2034 2713 
Q 2441 2713 2670 2916 
Q 2900 3119 2900 3481 
Q 2900 3844 2670 4047 
Q 2441 4250 2034 4250 
Q 1625 4250 1398 4047 
Q 1172 3844 1172 3481 
z
" transform="scale(0.015625)"/>
       </defs>
       <use xlink:href="#DejaVuSans-30"/>
       <use xlink:href="#DejaVuSans-2e" transform="translate(63.623047 0)"/>
       <use xlink:href="#DejaVuSans-38" transform="translate(95.410156 0)"/>
      </g>
     </g>
    </g>
    <g id="ytick_7">
     <g id="line2d_11">
      <g>
       <use xlink:href="#mfc131d5729" x="30.103125" y="56.01867" style="stroke: #000000; stroke-width: 0.8"/>
      </g>
     </g>
     <g id="text_11">
      <!-- 0.9 -->
      <g transform="translate(7.2 59.817889) scale(0.1 -0.1)">
       <defs>
        <path id="DejaVuSans-39" d="M 703 97 
L 703 672 
Q 941 559 1184 500 
Q 1428 441 1663 441 
Q 2288 441 2617 861 
Q 2947 1281 2994 2138 
Q 2813 1869 2534 1725 
Q 2256 1581 1919 1581 
Q 1219 1581 811 2004 
Q 403 2428 403 3163 
Q 403 3881 828 4315 
Q 1253 4750 1959 4750 
Q 2769 4750 3195 4129 
Q 3622 3509 3622 2328 
Q 3622 1225 3098 567 
Q 2575 -91 1691 -91 
Q 1453 -91 1209 -44 
Q 966 3 703 97 
z
M 1959 2075 
Q 2384 2075 2632 2365 
Q 2881 2656 2881 3163 
Q 2881 3666 2632 3958 
Q 2384 4250 1959 4250 
Q 1534 4250 1286 3958 
Q 1038 3666 1038 3163 
Q 1038 2656 1286 2365 
Q 1534 2075 1959 2075 
z
" transform="scale(0.015625)"/>
       </defs>
       <use xlink:href="#DejaVuSans-30"/>
       <use xlink:href="#DejaVuSans-2e" transform="translate(63.623047 0)"/>
       <use xlink:href="#DejaVuSans-39" transform="translate(95.410156 0)"/>
      </g>
     </g>
    </g>
    <g id="ytick_8">
     <g id="line2d_12">
      <g>
       <use xlink:href="#mfc131d5729" x="30.103125" y="31.509183" style="stroke: #000000; stroke-width: 0.8"/>
      </g>
     </g>
     <g id="text_12">
      <!-- 1.0 -->
      <g transform="translate(7.2 35.308401) scale(0.1 -0.1)">
       <use xlink:href="#DejaVuSans-31"/>
       <use xlink:href="#DejaVuSans-2e" transform="translate(63.623047 0)"/>
       <use xlink:href="#DejaVuSans-30" transform="translate(95.410156 0)"/>
      </g>
     </g>
    </g>
   </g>
   <g id="line2d_13">
    <path d="M 38.328148 215.330337 
L 39.989768 215.330337 
L 41.651389 215.330337 
L 43.31301 215.330337 
L 44.974631 215.330337 
L 46.636252 215.330337 
L 48.297872 215.023969 
L 49.959493 215.023969 
L 51.621114 215.023969 
L 53.282735 215.023969 
L 54.944355 214.104863 
L 56.605976 212.57302 
L 58.267597 208.896597 
L 59.929218 207.977491 
L 61.590838 200.624645 
L 63.252459 197.25459 
L 64.91408 187.757164 
L 66.575701 180.097949 
L 68.237321 174.889683 
L 69.898942 171.519629 
L 71.560563 162.63494 
L 73.222184 157.733042 
L 74.883804 157.120305 
L 76.545425 154.975725 
L 78.207046 154.669356 
L 79.868667 154.669356 
L 81.530287 154.056619 
L 83.191908 154.056619 
L 84.853529 154.056619 
L 86.51515 154.056619 
L 88.17677 154.056619 
L 89.838391 154.056619 
L 91.500012 154.056619 
L 93.161633 154.056619 
L 94.823253 154.056619 
L 96.484874 154.056619 
L 98.146495 154.056619 
L 99.808116 154.056619 
L 101.469736 154.056619 
L 103.131357 154.056619 
L 104.792978 153.75025 
L 106.454599 154.056619 
L 108.116219 153.75025 
L 109.77784 153.137513 
L 111.439461 150.992933 
L 113.101082 149.767459 
L 114.762702 146.091036 
L 116.424323 140.270032 
L 118.085944 131.691712 
L 119.747565 127.70892 
L 121.409185 119.436968 
L 123.070806 118.211494 
L 124.732427 107.794962 
L 126.394048 101.973959 
L 128.055668 97.991167 
L 129.717289 95.846587 
L 131.37891 93.702007 
L 133.040531 94.621112 
L 134.702151 92.782901 
L 136.363772 92.782901 
L 138.025393 93.089269 
L 139.687014 92.782901 
L 141.348634 93.089269 
L 143.010255 92.782901 
L 144.671876 92.782901 
L 146.333497 92.782901 
L 147.995118 92.782901 
L 149.656738 92.782901 
L 151.318359 92.782901 
L 152.97998 92.782901 
L 154.641601 92.782901 
L 156.303221 92.476532 
L 157.964842 92.782901 
L 159.626463 92.782901 
L 161.288084 92.782901 
L 162.949704 92.170164 
L 164.611325 90.638321 
L 166.272946 89.106478 
L 167.934567 88.187372 
L 169.596187 84.20458 
L 171.257808 80.834526 
L 172.919429 74.400785 
L 174.58105 63.065148 
L 176.24267 58.469619 
L 177.904291 51.423141 
L 179.565912 46.521244 
L 181.227533 40.393872 
L 182.889153 34.879237 
L 184.550774 34.572869 
L 186.212395 33.347394 
L 187.874016 32.12192 
L 189.535636 31.509183 
L 191.197257 31.509183 
L 192.858878 31.509183 
L 194.520499 31.509183 
L 196.182119 31.509183 
L 197.84374 31.509183 
L 199.505361 31.509183 
L 201.166982 31.509183 
L 202.828602 31.509183 
" clip-path="url(#p79464b17a2)" style="fill: none; stroke: #1f77b4; stroke-width: 1.5; stroke-linecap: square"/>
   </g>
   <g id="patch_3">
    <path d="M 30.103125 224.521395 
L 30.103125 22.318125 
" style="fill: none; stroke: #000000; stroke-width: 0.8; stroke-linejoin: miter; stroke-linecap: square"/>
   </g>
   <g id="patch_4">
    <path d="M 211.053625 224.521395 
L 211.053625 22.318125 
" style="fill: none; stroke: #000000; stroke-width: 0.8; stroke-linejoin: miter; stroke-linecap: square"/>
   </g>
   <g id="patch_5">
    <path d="M 30.103125 224.521395 
L 211.053625 224.521395 
" style="fill: none; stroke: #000000; stroke-width: 0.8; stroke-linejoin: miter; stroke-linecap: square"/>
   </g>
   <g id="patch_6">
    <path d="M 30.103125 22.318125 
L 211.053625 22.318125 
" style="fill: none; stroke: #000000; stroke-width: 0.8; stroke-linejoin: miter; stroke-linecap: square"/>
   </g>
   <g id="text_13">
    <!-- sigma 0.025 -->
    <g transform="translate(83.371813 16.318125) scale(0.12 -0.12)">
     <defs>
      <path id="DejaVuSans-73" d="M 2834 3397 
L 2834 2853 
Q 2591 2978 2328 3040 
Q 2066 3103 1784 3103 
Q 1356 3103 1142 2972 
Q 928 2841 928 2578 
Q 928 2378 1081 2264 
Q 1234 2150 1697 2047 
L 1894 2003 
Q 2506 1872 2764 1633 
Q 3022 1394 3022 966 
Q 3022 478 2636 193 
Q 2250 -91 1575 -91 
Q 1294 -91 989 -36 
Q 684 19 347 128 
L 347 722 
Q 666 556 975 473 
Q 1284 391 1588 391 
Q 1994 391 2212 530 
Q 2431 669 2431 922 
Q 2431 1156 2273 1281 
Q 2116 1406 1581 1522 
L 1381 1569 
Q 847 1681 609 1914 
Q 372 2147 372 2553 
Q 372 3047 722 3315 
Q 1072 3584 1716 3584 
Q 2034 3584 2315 3537 
Q 2597 3491 2834 3397 
z
" transform="scale(0.015625)"/>
      <path id="DejaVuSans-69" d="M 603 3500 
L 1178 3500 
L 1178 0 
L 603 0 
L 603 3500 
z
M 603 4863 
L 1178 4863 
L 1178 4134 
L 603 4134 
L 603 4863 
z
" transform="scale(0.015625)"/>
      <path id="DejaVuSans-67" d="M 2906 1791 
Q 2906 2416 2648 2759 
Q 2391 3103 1925 3103 
Q 1463 3103 1205 2759 
Q 947 2416 947 1791 
Q 947 1169 1205 825 
Q 1463 481 1925 481 
Q 2391 481 2648 825 
Q 2906 1169 2906 1791 
z
M 3481 434 
Q 3481 -459 3084 -895 
Q 2688 -1331 1869 -1331 
Q 1566 -1331 1297 -1286 
Q 1028 -1241 775 -1147 
L 775 -588 
Q 1028 -725 1275 -790 
Q 1522 -856 1778 -856 
Q 2344 -856 2625 -561 
Q 2906 -266 2906 331 
L 2906 616 
Q 2728 306 2450 153 
Q 2172 0 1784 0 
Q 1141 0 747 490 
Q 353 981 353 1791 
Q 353 2603 747 3093 
Q 1141 3584 1784 3584 
Q 2172 3584 2450 3431 
Q 2728 3278 2906 2969 
L 2906 3500 
L 3481 3500 
L 3481 434 
z
" transform="scale(0.015625)"/>
      <path id="DejaVuSans-6d" d="M 3328 2828 
Q 3544 3216 3844 3400 
Q 4144 3584 4550 3584 
Q 5097 3584 5394 3201 
Q 5691 2819 5691 2113 
L 5691 0 
L 5113 0 
L 5113 2094 
Q 5113 2597 4934 2840 
Q 4756 3084 4391 3084 
Q 3944 3084 3684 2787 
Q 3425 2491 3425 1978 
L 3425 0 
L 2847 0 
L 2847 2094 
Q 2847 2600 2669 2842 
Q 2491 3084 2119 3084 
Q 1678 3084 1418 2786 
Q 1159 2488 1159 1978 
L 1159 0 
L 581 0 
L 581 3500 
L 1159 3500 
L 1159 2956 
Q 1356 3278 1631 3431 
Q 1906 3584 2284 3584 
Q 2666 3584 2933 3390 
Q 3200 3197 3328 2828 
z
" transform="scale(0.015625)"/>
      <path id="DejaVuSans-61" d="M 2194 1759 
Q 1497 1759 1228 1600 
Q 959 1441 959 1056 
Q 959 750 1161 570 
Q 1363 391 1709 391 
Q 2188 391 2477 730 
Q 2766 1069 2766 1631 
L 2766 1759 
L 2194 1759 
z
M 3341 1997 
L 3341 0 
L 2766 0 
L 2766 531 
Q 2569 213 2275 61 
Q 1981 -91 1556 -91 
Q 1019 -91 701 211 
Q 384 513 384 1019 
Q 384 1609 779 1909 
Q 1175 2209 1959 2209 
L 2766 2209 
L 2766 2266 
Q 2766 2663 2505 2880 
Q 2244 3097 1772 3097 
Q 1472 3097 1187 3025 
Q 903 2953 641 2809 
L 641 3341 
Q 956 3463 1253 3523 
Q 1550 3584 1831 3584 
Q 2591 3584 2966 3190 
Q 3341 2797 3341 1997 
z
" transform="scale(0.015625)"/>
      <path id="DejaVuSans-20" transform="scale(0.015625)"/>
     </defs>
     <use xlink:href="#DejaVuSans-73"/>
     <use xlink:href="#DejaVuSans-69" transform="translate(52.099609 0)"/>
     <use xlink:href="#DejaVuSans-67" transform="translate(79.882812 0)"/>
     <use xlink:href="#DejaVuSans-6d" transform="translate(143.359375 0)"/>
     <use xlink:href="#DejaVuSans-61" transform="translate(240.771484 0)"/>
     <use xlink:href="#DejaVuSans-20" transform="translate(302.050781 0)"/>
     <use xlink:href="#DejaVuSans-30" transform="translate(333.837891 0)"/>
     <use xlink:href="#DejaVuSans-2e" transform="translate(397.460938 0)"/>
     <use xlink:href="#DejaVuSans-30" transform="translate(429.248047 0)"/>
     <use xlink:href="#DejaVuSans-32" transform="translate(492.871094 0)"/>
     <use xlink:href="#DejaVuSans-35" transform="translate(556.494141 0)"/>
    </g>
   </g>
  </g>
  <g id="axes_2">
   <g id="patch_7">
    <path d="M 249.284375 224.521395 
L 430.234875 224.521395 
L 430.234875 22.318125 
L 249.284375 22.318125 
z
" style="fill: #ffffff"/>
   </g>
   <g id="matplotlib.axis_3">
    <g id="xtick_5">
     <g id="line2d_14">
      <g>
       <use xlink:href="#ma186b30c3b" x="257.509398" y="224.521395" style="stroke: #000000; stroke-width: 0.8"/>
      </g>
     </g>
     <g id="text_14">
      <!-- 0.25 -->
      <g transform="translate(246.376585 239.119832) scale(0.1 -0.1)">
       <use xlink:href="#DejaVuSans-30"/>
       <use xlink:href="#DejaVuSans-2e" transform="translate(63.623047 0)"/>
       <use xlink:href="#DejaVuSans-32" transform="translate(95.410156 0)"/>
       <use xlink:href="#DejaVuSans-35" transform="translate(159.033203 0)"/>
      </g>
     </g>
    </g>
    <g id="xtick_6">
     <g id="line2d_15">
      <g>
       <use xlink:href="#ma186b30c3b" x="312.342883" y="224.521395" style="stroke: #000000; stroke-width: 0.8"/>
      </g>
     </g>
     <g id="text_15">
      <!-- 0.50 -->
      <g transform="translate(301.21007 239.119832) scale(0.1 -0.1)">
       <use xlink:href="#DejaVuSans-30"/>
       <use xlink:href="#DejaVuSans-2e" transform="translate(63.623047 0)"/>
       <use xlink:href="#DejaVuSans-35" transform="translate(95.410156 0)"/>
       <use xlink:href="#DejaVuSans-30" transform="translate(159.033203 0)"/>
      </g>
     </g>
    </g>
    <g id="xtick_7">
     <g id="line2d_16">
      <g>
       <use xlink:href="#ma186b30c3b" x="367.176368" y="224.521395" style="stroke: #000000; stroke-width: 0.8"/>
      </g>
     </g>
     <g id="text_16">
      <!-- 0.75 -->
      <g transform="translate(356.043555 239.119832) scale(0.1 -0.1)">
       <use xlink:href="#DejaVuSans-30"/>
       <use xlink:href="#DejaVuSans-2e" transform="translate(63.623047 0)"/>
       <use xlink:href="#DejaVuSans-37" transform="translate(95.410156 0)"/>
       <use xlink:href="#DejaVuSans-35" transform="translate(159.033203 0)"/>
      </g>
     </g>
    </g>
    <g id="xtick_8">
     <g id="line2d_17">
      <g>
       <use xlink:href="#ma186b30c3b" x="422.009852" y="224.521395" style="stroke: #000000; stroke-width: 0.8"/>
      </g>
     </g>
     <g id="text_17">
      <!-- 1.00 -->
      <g transform="translate(410.87704 239.119832) scale(0.1 -0.1)">
       <use xlink:href="#DejaVuSans-31"/>
       <use xlink:href="#DejaVuSans-2e" transform="translate(63.623047 0)"/>
       <use xlink:href="#DejaVuSans-30" transform="translate(95.410156 0)"/>
       <use xlink:href="#DejaVuSans-30" transform="translate(159.033203 0)"/>
      </g>
     </g>
    </g>
   </g>
   <g id="matplotlib.axis_4">
    <g id="ytick_9">
     <g id="line2d_18">
      <g>
       <use xlink:href="#mfc131d5729" x="249.284375" y="203.075594" style="stroke: #000000; stroke-width: 0.8"/>
      </g>
     </g>
     <g id="text_18">
      <!-- 0.3 -->
      <g transform="translate(226.38125 206.874812) scale(0.1 -0.1)">
       <use xlink:href="#DejaVuSans-30"/>
       <use xlink:href="#DejaVuSans-2e" transform="translate(63.623047 0)"/>
       <use xlink:href="#DejaVuSans-33" transform="translate(95.410156 0)"/>
      </g>
     </g>
    </g>
    <g id="ytick_10">
     <g id="line2d_19">
      <g>
       <use xlink:href="#mfc131d5729" x="249.284375" y="178.566106" style="stroke: #000000; stroke-width: 0.8"/>
      </g>
     </g>
     <g id="text_19">
      <!-- 0.4 -->
      <g transform="translate(226.38125 182.365325) scale(0.1 -0.1)">
       <use xlink:href="#DejaVuSans-30"/>
       <use xlink:href="#DejaVuSans-2e" transform="translate(63.623047 0)"/>
       <use xlink:href="#DejaVuSans-34" transform="translate(95.410156 0)"/>
      </g>
     </g>
    </g>
    <g id="ytick_11">
     <g id="line2d_20">
      <g>
       <use xlink:href="#mfc131d5729" x="249.284375" y="154.056619" style="stroke: #000000; stroke-width: 0.8"/>
      </g>
     </g>
     <g id="text_20">
      <!-- 0.5 -->
      <g transform="translate(226.38125 157.855838) scale(0.1 -0.1)">
       <use xlink:href="#DejaVuSans-30"/>
       <use xlink:href="#DejaVuSans-2e" transform="translate(63.623047 0)"/>
       <use xlink:href="#DejaVuSans-35" transform="translate(95.410156 0)"/>
      </g>
     </g>
    </g>
    <g id="ytick_12">
     <g id="line2d_21">
      <g>
       <use xlink:href="#mfc131d5729" x="249.284375" y="129.547132" style="stroke: #000000; stroke-width: 0.8"/>
      </g>
     </g>
     <g id="text_21">
      <!-- 0.6 -->
      <g transform="translate(226.38125 133.346351) scale(0.1 -0.1)">
       <use xlink:href="#DejaVuSans-30"/>
       <use xlink:href="#DejaVuSans-2e" transform="translate(63.623047 0)"/>
       <use xlink:href="#DejaVuSans-36" transform="translate(95.410156 0)"/>
      </g>
     </g>
    </g>
    <g id="ytick_13">
     <g id="line2d_22">
      <g>
       <use xlink:href="#mfc131d5729" x="249.284375" y="105.037645" style="stroke: #000000; stroke-width: 0.8"/>
      </g>
     </g>
     <g id="text_22">
      <!-- 0.7 -->
      <g transform="translate(226.38125 108.836863) scale(0.1 -0.1)">
       <use xlink:href="#DejaVuSans-30"/>
       <use xlink:href="#DejaVuSans-2e" transform="translate(63.623047 0)"/>
       <use xlink:href="#DejaVuSans-37" transform="translate(95.410156 0)"/>
      </g>
     </g>
    </g>
    <g id="ytick_14">
     <g id="line2d_23">
      <g>
       <use xlink:href="#mfc131d5729" x="249.284375" y="80.528157" style="stroke: #000000; stroke-width: 0.8"/>
      </g>
     </g>
     <g id="text_23">
      <!-- 0.8 -->
      <g transform="translate(226.38125 84.327376) scale(0.1 -0.1)">
       <use xlink:href="#DejaVuSans-30"/>
       <use xlink:href="#DejaVuSans-2e" transform="translate(63.623047 0)"/>
       <use xlink:href="#DejaVuSans-38" transform="translate(95.410156 0)"/>
      </g>
     </g>
    </g>
    <g id="ytick_15">
     <g id="line2d_24">
      <g>
       <use xlink:href="#mfc131d5729" x="249.284375" y="56.01867" style="stroke: #000000; stroke-width: 0.8"/>
      </g>
     </g>
     <g id="text_24">
      <!-- 0.9 -->
      <g transform="translate(226.38125 59.817889) scale(0.1 -0.1)">
       <use xlink:href="#DejaVuSans-30"/>
       <use xlink:href="#DejaVuSans-2e" transform="translate(63.623047 0)"/>
       <use xlink:href="#DejaVuSans-39" transform="translate(95.410156 0)"/>
      </g>
     </g>
    </g>
    <g id="ytick_16">
     <g id="line2d_25">
      <g>
       <use xlink:href="#mfc131d5729" x="249.284375" y="31.509183" style="stroke: #000000; stroke-width: 0.8"/>
      </g>
     </g>
     <g id="text_25">
      <!-- 1.0 -->
      <g transform="translate(226.38125 35.308401) scale(0.1 -0.1)">
       <use xlink:href="#DejaVuSans-31"/>
       <use xlink:href="#DejaVuSans-2e" transform="translate(63.623047 0)"/>
       <use xlink:href="#DejaVuSans-30" transform="translate(95.410156 0)"/>
      </g>
     </g>
    </g>
   </g>
   <g id="line2d_26">
    <path d="M 257.509398 215.330337 
L 259.171018 214.104863 
L 260.832639 214.7176 
L 262.49426 214.104863 
L 264.155881 212.57302 
L 265.817502 212.57302 
L 267.479122 212.57302 
L 269.140743 212.266651 
L 270.802364 208.590228 
L 272.463985 208.590228 
L 274.125605 205.220174 
L 275.787226 205.832911 
L 277.448847 201.543751 
L 279.110468 197.867328 
L 280.772088 196.335485 
L 282.433709 194.803642 
L 284.09533 184.999847 
L 285.756951 178.566106 
L 287.418571 174.276946 
L 289.080192 176.115158 
L 290.741813 170.906892 
L 292.403434 170.600523 
L 294.065054 168.455943 
L 295.726675 161.103097 
L 297.388296 161.715834 
L 299.049917 159.571254 
L 300.711537 158.345779 
L 302.373158 158.652148 
L 304.034779 157.733042 
L 305.6964 154.975725 
L 307.35802 154.362988 
L 309.019641 154.056619 
L 310.681262 155.282093 
L 312.342883 154.669356 
L 314.004503 153.137513 
L 315.666124 154.056619 
L 317.327745 153.443882 
L 318.989366 150.073827 
L 320.650986 150.992933 
L 322.312607 150.992933 
L 323.974228 150.686565 
L 325.635849 150.686565 
L 327.297469 146.091036 
L 328.95909 147.622879 
L 330.620711 142.414613 
L 332.282332 140.576401 
L 333.943952 136.287241 
L 335.605573 135.674504 
L 337.267194 132.304449 
L 338.928815 124.338866 
L 340.590435 123.113391 
L 342.252056 115.147808 
L 343.913677 113.922334 
L 345.575298 112.084122 
L 347.236918 112.084122 
L 348.898539 104.118539 
L 350.56016 102.893064 
L 352.221781 101.054853 
L 353.883401 97.684798 
L 355.545022 96.459324 
L 357.206643 96.152955 
L 358.868264 95.846587 
L 360.529884 95.23385 
L 362.191505 94.314744 
L 363.853126 93.395638 
L 365.514747 93.395638 
L 367.176368 93.089269 
L 368.837988 92.782901 
L 370.499609 91.863795 
L 372.16123 91.251058 
L 373.822851 91.251058 
L 375.484471 90.025584 
L 377.146092 89.106478 
L 378.807713 88.493741 
L 380.469334 85.123686 
L 382.130954 86.34916 
L 383.792575 84.510949 
L 385.454196 81.447263 
L 387.115817 76.238997 
L 388.777437 78.689946 
L 390.439058 74.094417 
L 392.100679 67.047939 
L 393.7623 64.290622 
L 395.42392 60.614199 
L 397.085541 58.775987 
L 398.747162 51.72951 
L 400.408783 45.602138 
L 402.070403 46.827612 
L 403.732024 46.827612 
L 405.393645 40.393872 
L 407.055266 41.006609 
L 408.716886 36.104712 
L 410.378507 37.330186 
L 412.040128 34.572869 
L 413.701749 34.2665 
L 415.363369 34.2665 
L 417.02499 32.734657 
L 418.686611 32.734657 
L 420.348232 31.509183 
L 422.009852 31.509183 
" clip-path="url(#pd0ee564e5a)" style="fill: none; stroke: #1f77b4; stroke-width: 1.5; stroke-linecap: square"/>
   </g>
   <g id="patch_8">
    <path d="M 249.284375 224.521395 
L 249.284375 22.318125 
" style="fill: none; stroke: #000000; stroke-width: 0.8; stroke-linejoin: miter; stroke-linecap: square"/>
   </g>
   <g id="patch_9">
    <path d="M 430.234875 224.521395 
L 430.234875 22.318125 
" style="fill: none; stroke: #000000; stroke-width: 0.8; stroke-linejoin: miter; stroke-linecap: square"/>
   </g>
   <g id="patch_10">
    <path d="M 249.284375 224.521395 
L 430.234875 224.521395 
" style="fill: none; stroke: #000000; stroke-width: 0.8; stroke-linejoin: miter; stroke-linecap: square"/>
   </g>
   <g id="patch_11">
    <path d="M 249.284375 22.318125 
L 430.234875 22.318125 
" style="fill: none; stroke: #000000; stroke-width: 0.8; stroke-linejoin: miter; stroke-linecap: square"/>
   </g>
   <g id="text_26">
    <!-- sigma 0.050 -->
    <g transform="translate(302.553063 16.318125) scale(0.12 -0.12)">
     <use xlink:href="#DejaVuSans-73"/>
     <use xlink:href="#DejaVuSans-69" transform="translate(52.099609 0)"/>
     <use xlink:href="#DejaVuSans-67" transform="translate(79.882812 0)"/>
     <use xlink:href="#DejaVuSans-6d" transform="translate(143.359375 0)"/>
     <use xlink:href="#DejaVuSans-61" transform="translate(240.771484 0)"/>
     <use xlink:href="#DejaVuSans-20" transform="translate(302.050781 0)"/>
     <use xlink:href="#DejaVuSans-30" transform="translate(333.837891 0)"/>
     <use xlink:href="#DejaVuSans-2e" transform="translate(397.460938 0)"/>
     <use xlink:href="#DejaVuSans-30" transform="translate(429.248047 0)"/>
     <use xlink:href="#DejaVuSans-35" transform="translate(492.871094 0)"/>
     <use xlink:href="#DejaVuSans-30" transform="translate(556.494141 0)"/>
    </g>
   </g>
  </g>
  <g id="axes_3">
   <g id="patch_12">
    <path d="M 30.103125 464.521395 
L 211.053625 464.521395 
L 211.053625 262.318125 
L 30.103125 262.318125 
z
" style="fill: #ffffff"/>
   </g>
   <g id="matplotlib.axis_5">
    <g id="xtick_9">
     <g id="line2d_27">
      <g>
       <use xlink:href="#ma186b30c3b" x="38.328148" y="464.521395" style="stroke: #000000; stroke-width: 0.8"/>
      </g>
     </g>
     <g id="text_27">
      <!-- 0.25 -->
      <g transform="translate(27.195335 479.119832) scale(0.1 -0.1)">
       <use xlink:href="#DejaVuSans-30"/>
       <use xlink:href="#DejaVuSans-2e" transform="translate(63.623047 0)"/>
       <use xlink:href="#DejaVuSans-32" transform="translate(95.410156 0)"/>
       <use xlink:href="#DejaVuSans-35" transform="translate(159.033203 0)"/>
      </g>
     </g>
    </g>
    <g id="xtick_10">
     <g id="line2d_28">
      <g>
       <use xlink:href="#ma186b30c3b" x="93.161633" y="464.521395" style="stroke: #000000; stroke-width: 0.8"/>
      </g>
     </g>
     <g id="text_28">
      <!-- 0.50 -->
      <g transform="translate(82.02882 479.119832) scale(0.1 -0.1)">
       <use xlink:href="#DejaVuSans-30"/>
       <use xlink:href="#DejaVuSans-2e" transform="translate(63.623047 0)"/>
       <use xlink:href="#DejaVuSans-35" transform="translate(95.410156 0)"/>
       <use xlink:href="#DejaVuSans-30" transform="translate(159.033203 0)"/>
      </g>
     </g>
    </g>
    <g id="xtick_11">
     <g id="line2d_29">
      <g>
       <use xlink:href="#ma186b30c3b" x="147.995118" y="464.521395" style="stroke: #000000; stroke-width: 0.8"/>
      </g>
     </g>
     <g id="text_29">
      <!-- 0.75 -->
      <g transform="translate(136.862305 479.119832) scale(0.1 -0.1)">
       <use xlink:href="#DejaVuSans-30"/>
       <use xlink:href="#DejaVuSans-2e" transform="translate(63.623047 0)"/>
       <use xlink:href="#DejaVuSans-37" transform="translate(95.410156 0)"/>
       <use xlink:href="#DejaVuSans-35" transform="translate(159.033203 0)"/>
      </g>
     </g>
    </g>
    <g id="xtick_12">
     <g id="line2d_30">
      <g>
       <use xlink:href="#ma186b30c3b" x="202.828602" y="464.521395" style="stroke: #000000; stroke-width: 0.8"/>
      </g>
     </g>
     <g id="text_30">
      <!-- 1.00 -->
      <g transform="translate(191.69579 479.119832) scale(0.1 -0.1)">
       <use xlink:href="#DejaVuSans-31"/>
       <use xlink:href="#DejaVuSans-2e" transform="translate(63.623047 0)"/>
       <use xlink:href="#DejaVuSans-30" transform="translate(95.410156 0)"/>
       <use xlink:href="#DejaVuSans-30" transform="translate(159.033203 0)"/>
      </g>
     </g>
    </g>
   </g>
   <g id="matplotlib.axis_6">
    <g id="ytick_17">
     <g id="line2d_31">
      <g>
       <use xlink:href="#mfc131d5729" x="30.103125" y="447.82077" style="stroke: #000000; stroke-width: 0.8"/>
      </g>
     </g>
     <g id="text_31">
      <!-- 0.3 -->
      <g transform="translate(7.2 451.619988) scale(0.1 -0.1)">
       <use xlink:href="#DejaVuSans-30"/>
       <use xlink:href="#DejaVuSans-2e" transform="translate(63.623047 0)"/>
       <use xlink:href="#DejaVuSans-33" transform="translate(95.410156 0)"/>
      </g>
     </g>
    </g>
    <g id="ytick_18">
     <g id="line2d_32">
      <g>
       <use xlink:href="#mfc131d5729" x="30.103125" y="421.700535" style="stroke: #000000; stroke-width: 0.8"/>
      </g>
     </g>
     <g id="text_32">
      <!-- 0.4 -->
      <g transform="translate(7.2 425.499753) scale(0.1 -0.1)">
       <use xlink:href="#DejaVuSans-30"/>
       <use xlink:href="#DejaVuSans-2e" transform="translate(63.623047 0)"/>
       <use xlink:href="#DejaVuSans-34" transform="translate(95.410156 0)"/>
      </g>
     </g>
    </g>
    <g id="ytick_19">
     <g id="line2d_33">
      <g>
       <use xlink:href="#mfc131d5729" x="30.103125" y="395.580299" style="stroke: #000000; stroke-width: 0.8"/>
      </g>
     </g>
     <g id="text_33">
      <!-- 0.5 -->
      <g transform="translate(7.2 399.379518) scale(0.1 -0.1)">
       <use xlink:href="#DejaVuSans-30"/>
       <use xlink:href="#DejaVuSans-2e" transform="translate(63.623047 0)"/>
       <use xlink:href="#DejaVuSans-35" transform="translate(95.410156 0)"/>
      </g>
     </g>
    </g>
    <g id="ytick_20">
     <g id="line2d_34">
      <g>
       <use xlink:href="#mfc131d5729" x="30.103125" y="369.460064" style="stroke: #000000; stroke-width: 0.8"/>
      </g>
     </g>
     <g id="text_34">
      <!-- 0.6 -->
      <g transform="translate(7.2 373.259283) scale(0.1 -0.1)">
       <use xlink:href="#DejaVuSans-30"/>
       <use xlink:href="#DejaVuSans-2e" transform="translate(63.623047 0)"/>
       <use xlink:href="#DejaVuSans-36" transform="translate(95.410156 0)"/>
      </g>
     </g>
    </g>
    <g id="ytick_21">
     <g id="line2d_35">
      <g>
       <use xlink:href="#mfc131d5729" x="30.103125" y="343.339829" style="stroke: #000000; stroke-width: 0.8"/>
      </g>
     </g>
     <g id="text_35">
      <!-- 0.7 -->
      <g transform="translate(7.2 347.139048) scale(0.1 -0.1)">
       <use xlink:href="#DejaVuSans-30"/>
       <use xlink:href="#DejaVuSans-2e" transform="translate(63.623047 0)"/>
       <use xlink:href="#DejaVuSans-37" transform="translate(95.410156 0)"/>
      </g>
     </g>
    </g>
    <g id="ytick_22">
     <g id="line2d_36">
      <g>
       <use xlink:href="#mfc131d5729" x="30.103125" y="317.219594" style="stroke: #000000; stroke-width: 0.8"/>
      </g>
     </g>
     <g id="text_36">
      <!-- 0.8 -->
      <g transform="translate(7.2 321.018813) scale(0.1 -0.1)">
       <use xlink:href="#DejaVuSans-30"/>
       <use xlink:href="#DejaVuSans-2e" transform="translate(63.623047 0)"/>
       <use xlink:href="#DejaVuSans-38" transform="translate(95.410156 0)"/>
      </g>
     </g>
    </g>
    <g id="ytick_23">
     <g id="line2d_37">
      <g>
       <use xlink:href="#mfc131d5729" x="30.103125" y="291.099359" style="stroke: #000000; stroke-width: 0.8"/>
      </g>
     </g>
     <g id="text_37">
      <!-- 0.9 -->
      <g transform="translate(7.2 294.898578) scale(0.1 -0.1)">
       <use xlink:href="#DejaVuSans-30"/>
       <use xlink:href="#DejaVuSans-2e" transform="translate(63.623047 0)"/>
       <use xlink:href="#DejaVuSans-39" transform="translate(95.410156 0)"/>
      </g>
     </g>
    </g>
    <g id="ytick_24">
     <g id="line2d_38">
      <g>
       <use xlink:href="#mfc131d5729" x="30.103125" y="264.979124" style="stroke: #000000; stroke-width: 0.8"/>
      </g>
     </g>
     <g id="text_38">
      <!-- 1.0 -->
      <g transform="translate(7.2 268.778343) scale(0.1 -0.1)">
       <use xlink:href="#DejaVuSans-31"/>
       <use xlink:href="#DejaVuSans-2e" transform="translate(63.623047 0)"/>
       <use xlink:href="#DejaVuSans-30" transform="translate(95.410156 0)"/>
      </g>
     </g>
    </g>
   </g>
   <g id="line2d_39">
    <path d="M 38.328148 454.677331 
L 39.989768 455.330337 
L 41.651389 451.412302 
L 43.31301 450.759296 
L 44.974631 451.085799 
L 46.636252 448.473776 
L 48.297872 444.882243 
L 49.959493 447.494267 
L 51.621114 448.147273 
L 53.282735 444.229237 
L 54.944355 442.923226 
L 56.605976 439.00519 
L 58.267597 438.352184 
L 59.929218 434.760652 
L 61.590838 436.066664 
L 63.252459 432.475132 
L 64.91408 428.883599 
L 66.575701 425.292067 
L 68.237321 427.90409 
L 69.898942 424.639061 
L 71.560563 423.986055 
L 73.222184 418.762008 
L 74.883804 415.823482 
L 76.545425 416.80299 
L 78.207046 409.619926 
L 79.868667 415.496979 
L 81.530287 409.293423 
L 83.191908 406.354896 
L 84.853529 403.41637 
L 86.51515 407.334405 
L 88.17677 400.151341 
L 89.838391 401.130849 
L 91.500012 396.886311 
L 93.161633 395.253797 
L 94.823253 394.274288 
L 96.484874 392.641773 
L 98.146495 389.703247 
L 99.808116 391.009258 
L 101.469736 384.152697 
L 103.131357 382.846685 
L 104.792978 381.540673 
L 106.454599 381.21417 
L 108.116219 379.255153 
L 109.77784 374.357608 
L 111.439461 377.949141 
L 113.101082 373.3781 
L 114.762702 371.419082 
L 116.424323 367.501047 
L 118.085944 366.848041 
L 119.747565 361.297491 
L 121.409185 365.868532 
L 123.070806 362.277 
L 124.732427 363.583011 
L 126.394048 354.767432 
L 128.055668 350.849397 
L 129.717289 352.808414 
L 131.37891 352.481912 
L 133.040531 344.319338 
L 134.702151 346.931362 
L 136.363772 344.645841 
L 138.025393 337.136273 
L 139.687014 341.054309 
L 141.348634 336.80977 
L 143.010255 332.891735 
L 144.671876 332.891735 
L 146.333497 330.606215 
L 147.995118 325.055665 
L 149.656738 328.320694 
L 151.318359 327.341185 
L 152.97998 326.035174 
L 154.641601 318.852109 
L 156.303221 320.811126 
L 157.964842 321.137629 
L 159.626463 318.199103 
L 161.288084 311.995547 
L 162.949704 310.689535 
L 164.611325 310.03653 
L 166.272946 311.016038 
L 167.934567 307.424506 
L 169.596187 307.098003 
L 171.257808 303.832974 
L 172.919429 301.22095 
L 174.58105 297.302915 
L 176.24267 293.38488 
L 177.904291 290.11985 
L 179.565912 294.037886 
L 181.227533 293.38488 
L 182.889153 288.813838 
L 184.550774 284.5693 
L 186.212395 283.916294 
L 187.874016 285.222306 
L 189.535636 283.263289 
L 191.197257 281.957277 
L 192.858878 277.059733 
L 194.520499 279.01875 
L 196.182119 276.080224 
L 197.84374 271.509183 
L 199.505361 272.488692 
L 201.166982 271.835686 
L 202.828602 271.509183 
" clip-path="url(#pd7d8b05587)" style="fill: none; stroke: #1f77b4; stroke-width: 1.5; stroke-linecap: square"/>
   </g>
   <g id="patch_13">
    <path d="M 30.103125 464.521395 
L 30.103125 262.318125 
" style="fill: none; stroke: #000000; stroke-width: 0.8; stroke-linejoin: miter; stroke-linecap: square"/>
   </g>
   <g id="patch_14">
    <path d="M 211.053625 464.521395 
L 211.053625 262.318125 
" style="fill: none; stroke: #000000; stroke-width: 0.8; stroke-linejoin: miter; stroke-linecap: square"/>
   </g>
   <g id="patch_15">
    <path d="M 30.103125 464.521395 
L 211.053625 464.521395 
" style="fill: none; stroke: #000000; stroke-width: 0.8; stroke-linejoin: miter; stroke-linecap: square"/>
   </g>
   <g id="patch_16">
    <path d="M 30.103125 262.318125 
L 211.053625 262.318125 
" style="fill: none; stroke: #000000; stroke-width: 0.8; stroke-linejoin: miter; stroke-linecap: square"/>
   </g>
   <g id="text_39">
    <!-- sigma 0.100 -->
    <g transform="translate(83.371813 256.318125) scale(0.12 -0.12)">
     <use xlink:href="#DejaVuSans-73"/>
     <use xlink:href="#DejaVuSans-69" transform="translate(52.099609 0)"/>
     <use xlink:href="#DejaVuSans-67" transform="translate(79.882812 0)"/>
     <use xlink:href="#DejaVuSans-6d" transform="translate(143.359375 0)"/>
     <use xlink:href="#DejaVuSans-61" transform="translate(240.771484 0)"/>
     <use xlink:href="#DejaVuSans-20" transform="translate(302.050781 0)"/>
     <use xlink:href="#DejaVuSans-30" transform="translate(333.837891 0)"/>
     <use xlink:href="#DejaVuSans-2e" transform="translate(397.460938 0)"/>
     <use xlink:href="#DejaVuSans-31" transform="translate(429.248047 0)"/>
     <use xlink:href="#DejaVuSans-30" transform="translate(492.871094 0)"/>
     <use xlink:href="#DejaVuSans-30" transform="translate(556.494141 0)"/>
    </g>
   </g>
  </g>
  <g id="axes_4">
   <g id="patch_17">
    <path d="M 249.284375 464.521395 
L 430.234875 464.521395 
L 430.234875 262.318125 
L 249.284375 262.318125 
z
" style="fill: #ffffff"/>
   </g>
   <g id="matplotlib.axis_7">
    <g id="xtick_13">
     <g id="line2d_40">
      <g>
       <use xlink:href="#ma186b30c3b" x="257.509398" y="464.521395" style="stroke: #000000; stroke-width: 0.8"/>
      </g>
     </g>
     <g id="text_40">
      <!-- 0.25 -->
      <g transform="translate(246.376585 479.119832) scale(0.1 -0.1)">
       <use xlink:href="#DejaVuSans-30"/>
       <use xlink:href="#DejaVuSans-2e" transform="translate(63.623047 0)"/>
       <use xlink:href="#DejaVuSans-32" transform="translate(95.410156 0)"/>
       <use xlink:href="#DejaVuSans-35" transform="translate(159.033203 0)"/>
      </g>
     </g>
    </g>
    <g id="xtick_14">
     <g id="line2d_41">
      <g>
       <use xlink:href="#ma186b30c3b" x="312.342883" y="464.521395" style="stroke: #000000; stroke-width: 0.8"/>
      </g>
     </g>
     <g id="text_41">
      <!-- 0.50 -->
      <g transform="translate(301.21007 479.119832) scale(0.1 -0.1)">
       <use xlink:href="#DejaVuSans-30"/>
       <use xlink:href="#DejaVuSans-2e" transform="translate(63.623047 0)"/>
       <use xlink:href="#DejaVuSans-35" transform="translate(95.410156 0)"/>
       <use xlink:href="#DejaVuSans-30" transform="translate(159.033203 0)"/>
      </g>
     </g>
    </g>
    <g id="xtick_15">
     <g id="line2d_42">
      <g>
       <use xlink:href="#ma186b30c3b" x="367.176368" y="464.521395" style="stroke: #000000; stroke-width: 0.8"/>
      </g>
     </g>
     <g id="text_42">
      <!-- 0.75 -->
      <g transform="translate(356.043555 479.119832) scale(0.1 -0.1)">
       <use xlink:href="#DejaVuSans-30"/>
       <use xlink:href="#DejaVuSans-2e" transform="translate(63.623047 0)"/>
       <use xlink:href="#DejaVuSans-37" transform="translate(95.410156 0)"/>
       <use xlink:href="#DejaVuSans-35" transform="translate(159.033203 0)"/>
      </g>
     </g>
    </g>
    <g id="xtick_16">
     <g id="line2d_43">
      <g>
       <use xlink:href="#ma186b30c3b" x="422.009852" y="464.521395" style="stroke: #000000; stroke-width: 0.8"/>
      </g>
     </g>
     <g id="text_43">
      <!-- 1.00 -->
      <g transform="translate(410.87704 479.119832) scale(0.1 -0.1)">
       <use xlink:href="#DejaVuSans-31"/>
       <use xlink:href="#DejaVuSans-2e" transform="translate(63.623047 0)"/>
       <use xlink:href="#DejaVuSans-30" transform="translate(95.410156 0)"/>
       <use xlink:href="#DejaVuSans-30" transform="translate(159.033203 0)"/>
      </g>
     </g>
    </g>
   </g>
   <g id="matplotlib.axis_8">
    <g id="ytick_25">
     <g id="line2d_44">
      <g>
       <use xlink:href="#mfc131d5729" x="249.284375" y="460.446632" style="stroke: #000000; stroke-width: 0.8"/>
      </g>
     </g>
     <g id="text_44">
      <!-- 0.3 -->
      <g transform="translate(226.38125 464.245851) scale(0.1 -0.1)">
       <use xlink:href="#DejaVuSans-30"/>
       <use xlink:href="#DejaVuSans-2e" transform="translate(63.623047 0)"/>
       <use xlink:href="#DejaVuSans-33" transform="translate(95.410156 0)"/>
      </g>
     </g>
    </g>
    <g id="ytick_26">
     <g id="line2d_45">
      <g>
       <use xlink:href="#mfc131d5729" x="249.284375" y="431.210663" style="stroke: #000000; stroke-width: 0.8"/>
      </g>
     </g>
     <g id="text_45">
      <!-- 0.4 -->
      <g transform="translate(226.38125 435.009882) scale(0.1 -0.1)">
       <use xlink:href="#DejaVuSans-30"/>
       <use xlink:href="#DejaVuSans-2e" transform="translate(63.623047 0)"/>
       <use xlink:href="#DejaVuSans-34" transform="translate(95.410156 0)"/>
      </g>
     </g>
    </g>
    <g id="ytick_27">
     <g id="line2d_46">
      <g>
       <use xlink:href="#mfc131d5729" x="249.284375" y="401.974694" style="stroke: #000000; stroke-width: 0.8"/>
      </g>
     </g>
     <g id="text_46">
      <!-- 0.5 -->
      <g transform="translate(226.38125 405.773913) scale(0.1 -0.1)">
       <use xlink:href="#DejaVuSans-30"/>
       <use xlink:href="#DejaVuSans-2e" transform="translate(63.623047 0)"/>
       <use xlink:href="#DejaVuSans-35" transform="translate(95.410156 0)"/>
      </g>
     </g>
    </g>
    <g id="ytick_28">
     <g id="line2d_47">
      <g>
       <use xlink:href="#mfc131d5729" x="249.284375" y="372.738725" style="stroke: #000000; stroke-width: 0.8"/>
      </g>
     </g>
     <g id="text_47">
      <!-- 0.6 -->
      <g transform="translate(226.38125 376.537944) scale(0.1 -0.1)">
       <use xlink:href="#DejaVuSans-30"/>
       <use xlink:href="#DejaVuSans-2e" transform="translate(63.623047 0)"/>
       <use xlink:href="#DejaVuSans-36" transform="translate(95.410156 0)"/>
      </g>
     </g>
    </g>
    <g id="ytick_29">
     <g id="line2d_48">
      <g>
       <use xlink:href="#mfc131d5729" x="249.284375" y="343.502756" style="stroke: #000000; stroke-width: 0.8"/>
      </g>
     </g>
     <g id="text_48">
      <!-- 0.7 -->
      <g transform="translate(226.38125 347.301975) scale(0.1 -0.1)">
       <use xlink:href="#DejaVuSans-30"/>
       <use xlink:href="#DejaVuSans-2e" transform="translate(63.623047 0)"/>
       <use xlink:href="#DejaVuSans-37" transform="translate(95.410156 0)"/>
      </g>
     </g>
    </g>
    <g id="ytick_30">
     <g id="line2d_49">
      <g>
       <use xlink:href="#mfc131d5729" x="249.284375" y="314.266787" style="stroke: #000000; stroke-width: 0.8"/>
      </g>
     </g>
     <g id="text_49">
      <!-- 0.8 -->
      <g transform="translate(226.38125 318.066006) scale(0.1 -0.1)">
       <use xlink:href="#DejaVuSans-30"/>
       <use xlink:href="#DejaVuSans-2e" transform="translate(63.623047 0)"/>
       <use xlink:href="#DejaVuSans-38" transform="translate(95.410156 0)"/>
      </g>
     </g>
    </g>
    <g id="ytick_31">
     <g id="line2d_50">
      <g>
       <use xlink:href="#mfc131d5729" x="249.284375" y="285.030818" style="stroke: #000000; stroke-width: 0.8"/>
      </g>
     </g>
     <g id="text_50">
      <!-- 0.9 -->
      <g transform="translate(226.38125 288.830037) scale(0.1 -0.1)">
       <use xlink:href="#DejaVuSans-30"/>
       <use xlink:href="#DejaVuSans-2e" transform="translate(63.623047 0)"/>
       <use xlink:href="#DejaVuSans-39" transform="translate(95.410156 0)"/>
      </g>
     </g>
    </g>
   </g>
   <g id="line2d_51">
    <path d="M 257.509398 455.330337 
L 259.171018 452.041291 
L 260.832639 452.77219 
L 262.49426 446.194097 
L 264.155881 443.2705 
L 265.817502 447.655895 
L 267.479122 443.2705 
L 269.140743 441.077802 
L 270.802364 449.848593 
L 272.463985 446.559547 
L 274.125605 444.366849 
L 275.787226 441.808702 
L 277.448847 439.616004 
L 279.110468 439.981454 
L 280.772088 428.652516 
L 282.433709 436.692407 
L 284.09533 422.439872 
L 285.756951 422.805322 
L 287.418571 425.728919 
L 289.080192 423.170771 
L 290.741813 428.652516 
L 292.403434 415.13088 
L 294.065054 415.861779 
L 295.726675 419.881725 
L 297.388296 423.901671 
L 299.049917 420.978074 
L 300.711537 415.49633 
L 302.373158 404.898291 
L 304.034779 404.898291 
L 305.6964 407.821888 
L 307.35802 405.263741 
L 309.019641 403.071043 
L 310.681262 396.1275 
L 312.342883 400.878345 
L 314.004503 396.49295 
L 315.666124 400.512896 
L 317.327745 389.183958 
L 318.989366 400.512896 
L 320.650986 388.087609 
L 322.312607 388.818508 
L 323.974228 385.164012 
L 325.635849 385.164012 
L 327.297469 380.778617 
L 328.95909 385.164012 
L 330.620711 378.951368 
L 332.282332 376.393221 
L 333.943952 374.931423 
L 335.605573 367.622431 
L 337.267194 381.509516 
L 338.928815 375.296872 
L 340.590435 364.333384 
L 342.252056 358.120741 
L 343.913677 354.466245 
L 345.575298 362.140686 
L 347.236918 358.120741 
L 348.898539 361.409787 
L 350.56016 355.928043 
L 352.221781 350.446299 
L 353.883401 351.542648 
L 355.545022 345.695454 
L 357.206643 342.771857 
L 358.868264 332.539268 
L 360.529884 336.193764 
L 362.191505 330.34657 
L 363.853126 337.290113 
L 365.514747 335.097415 
L 367.176368 329.615671 
L 368.837988 326.692074 
L 370.499609 328.519322 
L 372.16123 321.575779 
L 373.822851 328.153872 
L 375.484471 319.017632 
L 377.146092 321.21033 
L 378.807713 320.479431 
L 380.469334 311.70864 
L 382.130954 313.170438 
L 383.792575 309.881392 
L 385.454196 312.439539 
L 387.115817 313.535888 
L 388.777437 305.861446 
L 390.439058 306.226896 
L 392.100679 305.130547 
L 393.7623 302.5724 
L 395.42392 305.861446 
L 397.085541 297.090656 
L 398.747162 297.090656 
L 400.408783 297.090656 
L 402.070403 297.090656 
L 403.732024 286.858066 
L 405.393645 290.512563 
L 407.055266 286.492617 
L 408.716886 286.127167 
L 410.378507 289.781663 
L 412.040128 282.838121 
L 413.701749 288.685314 
L 415.363369 281.741772 
L 417.02499 278.452725 
L 418.686611 271.509183 
L 420.348232 276.260028 
L 422.009852 274.06733 
" clip-path="url(#p7357d44102)" style="fill: none; stroke: #1f77b4; stroke-width: 1.5; stroke-linecap: square"/>
   </g>
   <g id="patch_18">
    <path d="M 249.284375 464.521395 
L 249.284375 262.318125 
" style="fill: none; stroke: #000000; stroke-width: 0.8; stroke-linejoin: miter; stroke-linecap: square"/>
   </g>
   <g id="patch_19">
    <path d="M 430.234875 464.521395 
L 430.234875 262.318125 
" style="fill: none; stroke: #000000; stroke-width: 0.8; stroke-linejoin: miter; stroke-linecap: square"/>
   </g>
   <g id="patch_20">
    <path d="M 249.284375 464.521395 
L 430.234875 464.521395 
" style="fill: none; stroke: #000000; stroke-width: 0.8; stroke-linejoin: miter; stroke-linecap: square"/>
   </g>
   <g id="patch_21">
    <path d="M 249.284375 262.318125 
L 430.234875 262.318125 
" style="fill: none; stroke: #000000; stroke-width: 0.8; stroke-linejoin: miter; stroke-linecap: square"/>
   </g>
   <g id="text_51">
    <!-- sigma 0.200 -->
    <g transform="translate(302.553063 256.318125) scale(0.12 -0.12)">
     <use xlink:href="#DejaVuSans-73"/>
     <use xlink:href="#DejaVuSans-69" transform="translate(52.099609 0)"/>
     <use xlink:href="#DejaVuSans-67" transform="translate(79.882812 0)"/>
     <use xlink:href="#DejaVuSans-6d" transform="translate(143.359375 0)"/>
     <use xlink:href="#DejaVuSans-61" transform="translate(240.771484 0)"/>
     <use xlink:href="#DejaVuSans-20" transform="translate(302.050781 0)"/>
     <use xlink:href="#DejaVuSans-30" transform="translate(333.837891 0)"/>
     <use xlink:href="#DejaVuSans-2e" transform="translate(397.460938 0)"/>
     <use xlink:href="#DejaVuSans-32" transform="translate(429.248047 0)"/>
     <use xlink:href="#DejaVuSans-30" transform="translate(492.871094 0)"/>
     <use xlink:href="#DejaVuSans-30" transform="translate(556.494141 0)"/>
    </g>
   </g>
  </g>
  <g id="axes_5">
   <g id="patch_22">
    <path d="M 30.103125 704.521395 
L 211.053625 704.521395 
L 211.053625 502.318125 
L 30.103125 502.318125 
z
" style="fill: #ffffff"/>
   </g>
   <g id="matplotlib.axis_9">
    <g id="xtick_17">
     <g id="line2d_52">
      <g>
       <use xlink:href="#ma186b30c3b" x="38.328148" y="704.521395" style="stroke: #000000; stroke-width: 0.8"/>
      </g>
     </g>
     <g id="text_52">
      <!-- 0.25 -->
      <g transform="translate(27.195335 719.119832) scale(0.1 -0.1)">
       <use xlink:href="#DejaVuSans-30"/>
       <use xlink:href="#DejaVuSans-2e" transform="translate(63.623047 0)"/>
       <use xlink:href="#DejaVuSans-32" transform="translate(95.410156 0)"/>
       <use xlink:href="#DejaVuSans-35" transform="translate(159.033203 0)"/>
      </g>
     </g>
    </g>
    <g id="xtick_18">
     <g id="line2d_53">
      <g>
       <use xlink:href="#ma186b30c3b" x="93.161633" y="704.521395" style="stroke: #000000; stroke-width: 0.8"/>
      </g>
     </g>
     <g id="text_53">
      <!-- 0.50 -->
      <g transform="translate(82.02882 719.119832) scale(0.1 -0.1)">
       <use xlink:href="#DejaVuSans-30"/>
       <use xlink:href="#DejaVuSans-2e" transform="translate(63.623047 0)"/>
       <use xlink:href="#DejaVuSans-35" transform="translate(95.410156 0)"/>
       <use xlink:href="#DejaVuSans-30" transform="translate(159.033203 0)"/>
      </g>
     </g>
    </g>
    <g id="xtick_19">
     <g id="line2d_54">
      <g>
       <use xlink:href="#ma186b30c3b" x="147.995118" y="704.521395" style="stroke: #000000; stroke-width: 0.8"/>
      </g>
     </g>
     <g id="text_54">
      <!-- 0.75 -->
      <g transform="translate(136.862305 719.119832) scale(0.1 -0.1)">
       <use xlink:href="#DejaVuSans-30"/>
       <use xlink:href="#DejaVuSans-2e" transform="translate(63.623047 0)"/>
       <use xlink:href="#DejaVuSans-37" transform="translate(95.410156 0)"/>
       <use xlink:href="#DejaVuSans-35" transform="translate(159.033203 0)"/>
      </g>
     </g>
    </g>
    <g id="xtick_20">
     <g id="line2d_55">
      <g>
       <use xlink:href="#ma186b30c3b" x="202.828602" y="704.521395" style="stroke: #000000; stroke-width: 0.8"/>
      </g>
     </g>
     <g id="text_55">
      <!-- 1.00 -->
      <g transform="translate(191.69579 719.119832) scale(0.1 -0.1)">
       <use xlink:href="#DejaVuSans-31"/>
       <use xlink:href="#DejaVuSans-2e" transform="translate(63.623047 0)"/>
       <use xlink:href="#DejaVuSans-30" transform="translate(95.410156 0)"/>
       <use xlink:href="#DejaVuSans-30" transform="translate(159.033203 0)"/>
      </g>
     </g>
    </g>
   </g>
   <g id="matplotlib.axis_10">
    <g id="ytick_32">
     <g id="line2d_56">
      <g>
       <use xlink:href="#mfc131d5729" x="30.103125" y="692.188095" style="stroke: #000000; stroke-width: 0.8"/>
      </g>
     </g>
     <g id="text_56">
      <!-- 0.4 -->
      <g transform="translate(7.2 695.987314) scale(0.1 -0.1)">
       <use xlink:href="#DejaVuSans-30"/>
       <use xlink:href="#DejaVuSans-2e" transform="translate(63.623047 0)"/>
       <use xlink:href="#DejaVuSans-34" transform="translate(95.410156 0)"/>
      </g>
     </g>
    </g>
    <g id="ytick_33">
     <g id="line2d_57">
      <g>
       <use xlink:href="#mfc131d5729" x="30.103125" y="650.291536" style="stroke: #000000; stroke-width: 0.8"/>
      </g>
     </g>
     <g id="text_57">
      <!-- 0.5 -->
      <g transform="translate(7.2 654.090755) scale(0.1 -0.1)">
       <use xlink:href="#DejaVuSans-30"/>
       <use xlink:href="#DejaVuSans-2e" transform="translate(63.623047 0)"/>
       <use xlink:href="#DejaVuSans-35" transform="translate(95.410156 0)"/>
      </g>
     </g>
    </g>
    <g id="ytick_34">
     <g id="line2d_58">
      <g>
       <use xlink:href="#mfc131d5729" x="30.103125" y="608.394976" style="stroke: #000000; stroke-width: 0.8"/>
      </g>
     </g>
     <g id="text_58">
      <!-- 0.6 -->
      <g transform="translate(7.2 612.194195) scale(0.1 -0.1)">
       <use xlink:href="#DejaVuSans-30"/>
       <use xlink:href="#DejaVuSans-2e" transform="translate(63.623047 0)"/>
       <use xlink:href="#DejaVuSans-36" transform="translate(95.410156 0)"/>
      </g>
     </g>
    </g>
    <g id="ytick_35">
     <g id="line2d_59">
      <g>
       <use xlink:href="#mfc131d5729" x="30.103125" y="566.498417" style="stroke: #000000; stroke-width: 0.8"/>
      </g>
     </g>
     <g id="text_59">
      <!-- 0.7 -->
      <g transform="translate(7.2 570.297636) scale(0.1 -0.1)">
       <use xlink:href="#DejaVuSans-30"/>
       <use xlink:href="#DejaVuSans-2e" transform="translate(63.623047 0)"/>
       <use xlink:href="#DejaVuSans-37" transform="translate(95.410156 0)"/>
      </g>
     </g>
    </g>
    <g id="ytick_36">
     <g id="line2d_60">
      <g>
       <use xlink:href="#mfc131d5729" x="30.103125" y="524.601858" style="stroke: #000000; stroke-width: 0.8"/>
      </g>
     </g>
     <g id="text_60">
      <!-- 0.8 -->
      <g transform="translate(7.2 528.401076) scale(0.1 -0.1)">
       <use xlink:href="#DejaVuSans-30"/>
       <use xlink:href="#DejaVuSans-2e" transform="translate(63.623047 0)"/>
       <use xlink:href="#DejaVuSans-38" transform="translate(95.410156 0)"/>
      </g>
     </g>
    </g>
   </g>
   <g id="line2d_61">
    <path d="M 38.328148 693.235509 
L 39.989768 666.002746 
L 41.651389 688.522146 
L 43.31301 671.763523 
L 44.974631 695.330337 
L 46.636252 667.05016 
L 48.297872 675.953179 
L 49.959493 660.765676 
L 51.621114 669.668695 
L 53.282735 652.386364 
L 54.944355 652.910071 
L 56.605976 666.526453 
L 58.267597 654.481192 
L 59.929218 660.241969 
L 61.590838 656.57602 
L 63.252459 657.623434 
L 64.91408 654.481192 
L 66.575701 659.718262 
L 68.237321 664.955332 
L 69.898942 644.530759 
L 71.560563 654.481192 
L 73.222184 646.10188 
L 74.883804 644.007052 
L 76.545425 645.578173 
L 78.207046 636.675154 
L 79.868667 628.819549 
L 81.530287 644.007052 
L 83.191908 629.343256 
L 84.853529 641.388517 
L 86.51515 625.1536 
L 88.17677 632.485498 
L 89.838391 637.198861 
L 91.500012 633.009205 
L 93.161633 626.201014 
L 94.823253 618.869116 
L 96.484874 618.869116 
L 98.146495 617.821702 
L 99.808116 623.582479 
L 101.469736 629.866963 
L 103.131357 611.013511 
L 104.792978 605.776441 
L 106.454599 601.063079 
L 108.116219 606.823855 
L 109.77784 617.297995 
L 111.439461 609.44239 
L 113.101082 621.487651 
L 114.762702 601.586786 
L 116.424323 594.778595 
L 118.085944 611.537218 
L 119.747565 586.92299 
L 121.409185 596.349716 
L 123.070806 600.539372 
L 124.732427 595.826009 
L 126.394048 606.300148 
L 128.055668 595.302302 
L 129.717289 601.063079 
L 131.37891 569.640659 
L 133.040531 600.539372 
L 134.702151 582.209627 
L 136.363772 582.733334 
L 138.025393 587.446697 
L 139.687014 583.257041 
L 141.348634 595.302302 
L 143.010255 584.304455 
L 144.671876 584.304455 
L 146.333497 572.782901 
L 147.995118 559.690226 
L 149.656738 563.356175 
L 151.318359 567.545831 
L 152.97998 558.119105 
L 154.641601 568.593245 
L 156.303221 570.164366 
L 157.964842 564.927296 
L 159.626463 553.929449 
L 161.288084 545.550137 
L 162.949704 538.218239 
L 164.611325 548.168672 
L 166.272946 566.498417 
L 167.934567 556.024277 
L 169.596187 543.455309 
L 171.257808 558.642812 
L 172.919429 539.265653 
L 174.58105 538.741946 
L 176.24267 528.267807 
L 177.904291 525.125565 
L 179.565912 525.125565 
L 181.227533 530.362634 
L 182.889153 547.121258 
L 184.550774 547.121258 
L 186.212395 546.073844 
L 187.874016 518.317374 
L 189.535636 528.267807 
L 191.197257 535.599704 
L 192.858878 533.504876 
L 194.520499 535.599704 
L 196.182119 522.50703 
L 197.84374 520.935909 
L 199.505361 513.080304 
L 201.166982 532.981169 
L 202.828602 511.509183 
" clip-path="url(#pf08968a624)" style="fill: none; stroke: #1f77b4; stroke-width: 1.5; stroke-linecap: square"/>
   </g>
   <g id="patch_23">
    <path d="M 30.103125 704.521395 
L 30.103125 502.318125 
" style="fill: none; stroke: #000000; stroke-width: 0.8; stroke-linejoin: miter; stroke-linecap: square"/>
   </g>
   <g id="patch_24">
    <path d="M 211.053625 704.521395 
L 211.053625 502.318125 
" style="fill: none; stroke: #000000; stroke-width: 0.8; stroke-linejoin: miter; stroke-linecap: square"/>
   </g>
   <g id="patch_25">
    <path d="M 30.103125 704.521395 
L 211.053625 704.521395 
" style="fill: none; stroke: #000000; stroke-width: 0.8; stroke-linejoin: miter; stroke-linecap: square"/>
   </g>
   <g id="patch_26">
    <path d="M 30.103125 502.318125 
L 211.053625 502.318125 
" style="fill: none; stroke: #000000; stroke-width: 0.8; stroke-linejoin: miter; stroke-linecap: square"/>
   </g>
   <g id="text_61">
    <!-- sigma 0.500 -->
    <g transform="translate(83.371813 496.318125) scale(0.12 -0.12)">
     <use xlink:href="#DejaVuSans-73"/>
     <use xlink:href="#DejaVuSans-69" transform="translate(52.099609 0)"/>
     <use xlink:href="#DejaVuSans-67" transform="translate(79.882812 0)"/>
     <use xlink:href="#DejaVuSans-6d" transform="translate(143.359375 0)"/>
     <use xlink:href="#DejaVuSans-61" transform="translate(240.771484 0)"/>
     <use xlink:href="#DejaVuSans-20" transform="translate(302.050781 0)"/>
     <use xlink:href="#DejaVuSans-30" transform="translate(333.837891 0)"/>
     <use xlink:href="#DejaVuSans-2e" transform="translate(397.460938 0)"/>
     <use xlink:href="#DejaVuSans-35" transform="translate(429.248047 0)"/>
     <use xlink:href="#DejaVuSans-30" transform="translate(492.871094 0)"/>
     <use xlink:href="#DejaVuSans-30" transform="translate(556.494141 0)"/>
    </g>
   </g>
  </g>
  <g id="axes_6">
   <g id="patch_27">
    <path d="M 249.284375 704.521395 
L 430.234875 704.521395 
L 430.234875 502.318125 
L 249.284375 502.318125 
z
" style="fill: #ffffff"/>
   </g>
   <g id="matplotlib.axis_11">
    <g id="xtick_21">
     <g id="line2d_62">
      <g>
       <use xlink:href="#ma186b30c3b" x="257.509398" y="704.521395" style="stroke: #000000; stroke-width: 0.8"/>
      </g>
     </g>
     <g id="text_62">
      <!-- 0.25 -->
      <g transform="translate(246.376585 719.119832) scale(0.1 -0.1)">
       <use xlink:href="#DejaVuSans-30"/>
       <use xlink:href="#DejaVuSans-2e" transform="translate(63.623047 0)"/>
       <use xlink:href="#DejaVuSans-32" transform="translate(95.410156 0)"/>
       <use xlink:href="#DejaVuSans-35" transform="translate(159.033203 0)"/>
      </g>
     </g>
    </g>
    <g id="xtick_22">
     <g id="line2d_63">
      <g>
       <use xlink:href="#ma186b30c3b" x="312.342883" y="704.521395" style="stroke: #000000; stroke-width: 0.8"/>
      </g>
     </g>
     <g id="text_63">
      <!-- 0.50 -->
      <g transform="translate(301.21007 719.119832) scale(0.1 -0.1)">
       <use xlink:href="#DejaVuSans-30"/>
       <use xlink:href="#DejaVuSans-2e" transform="translate(63.623047 0)"/>
       <use xlink:href="#DejaVuSans-35" transform="translate(95.410156 0)"/>
       <use xlink:href="#DejaVuSans-30" transform="translate(159.033203 0)"/>
      </g>
     </g>
    </g>
    <g id="xtick_23">
     <g id="line2d_64">
      <g>
       <use xlink:href="#ma186b30c3b" x="367.176368" y="704.521395" style="stroke: #000000; stroke-width: 0.8"/>
      </g>
     </g>
     <g id="text_64">
      <!-- 0.75 -->
      <g transform="translate(356.043555 719.119832) scale(0.1 -0.1)">
       <use xlink:href="#DejaVuSans-30"/>
       <use xlink:href="#DejaVuSans-2e" transform="translate(63.623047 0)"/>
       <use xlink:href="#DejaVuSans-37" transform="translate(95.410156 0)"/>
       <use xlink:href="#DejaVuSans-35" transform="translate(159.033203 0)"/>
      </g>
     </g>
    </g>
    <g id="xtick_24">
     <g id="line2d_65">
      <g>
       <use xlink:href="#ma186b30c3b" x="422.009852" y="704.521395" style="stroke: #000000; stroke-width: 0.8"/>
      </g>
     </g>
     <g id="text_65">
      <!-- 1.00 -->
      <g transform="translate(410.87704 719.119832) scale(0.1 -0.1)">
       <use xlink:href="#DejaVuSans-31"/>
       <use xlink:href="#DejaVuSans-2e" transform="translate(63.623047 0)"/>
       <use xlink:href="#DejaVuSans-30" transform="translate(95.410156 0)"/>
       <use xlink:href="#DejaVuSans-30" transform="translate(159.033203 0)"/>
      </g>
     </g>
    </g>
   </g>
   <g id="matplotlib.axis_12">
    <g id="ytick_37">
     <g id="line2d_66">
      <g>
       <use xlink:href="#mfc131d5729" x="249.284375" y="685.418412" style="stroke: #000000; stroke-width: 0.8"/>
      </g>
     </g>
     <g id="text_66">
      <!-- 0.50 -->
      <g transform="translate(220.01875 689.217631) scale(0.1 -0.1)">
       <use xlink:href="#DejaVuSans-30"/>
       <use xlink:href="#DejaVuSans-2e" transform="translate(63.623047 0)"/>
       <use xlink:href="#DejaVuSans-35" transform="translate(95.410156 0)"/>
       <use xlink:href="#DejaVuSans-30" transform="translate(159.033203 0)"/>
      </g>
     </g>
    </g>
    <g id="ytick_38">
     <g id="line2d_67">
      <g>
       <use xlink:href="#mfc131d5729" x="249.284375" y="649.375049" style="stroke: #000000; stroke-width: 0.8"/>
      </g>
     </g>
     <g id="text_67">
      <!-- 0.55 -->
      <g transform="translate(220.01875 653.174267) scale(0.1 -0.1)">
       <use xlink:href="#DejaVuSans-30"/>
       <use xlink:href="#DejaVuSans-2e" transform="translate(63.623047 0)"/>
       <use xlink:href="#DejaVuSans-35" transform="translate(95.410156 0)"/>
       <use xlink:href="#DejaVuSans-35" transform="translate(159.033203 0)"/>
      </g>
     </g>
    </g>
    <g id="ytick_39">
     <g id="line2d_68">
      <g>
       <use xlink:href="#mfc131d5729" x="249.284375" y="613.331685" style="stroke: #000000; stroke-width: 0.8"/>
      </g>
     </g>
     <g id="text_68">
      <!-- 0.60 -->
      <g transform="translate(220.01875 617.130904) scale(0.1 -0.1)">
       <use xlink:href="#DejaVuSans-30"/>
       <use xlink:href="#DejaVuSans-2e" transform="translate(63.623047 0)"/>
       <use xlink:href="#DejaVuSans-36" transform="translate(95.410156 0)"/>
       <use xlink:href="#DejaVuSans-30" transform="translate(159.033203 0)"/>
      </g>
     </g>
    </g>
    <g id="ytick_40">
     <g id="line2d_69">
      <g>
       <use xlink:href="#mfc131d5729" x="249.284375" y="577.288321" style="stroke: #000000; stroke-width: 0.8"/>
      </g>
     </g>
     <g id="text_69">
      <!-- 0.65 -->
      <g transform="translate(220.01875 581.08754) scale(0.1 -0.1)">
       <use xlink:href="#DejaVuSans-30"/>
       <use xlink:href="#DejaVuSans-2e" transform="translate(63.623047 0)"/>
       <use xlink:href="#DejaVuSans-36" transform="translate(95.410156 0)"/>
       <use xlink:href="#DejaVuSans-35" transform="translate(159.033203 0)"/>
      </g>
     </g>
    </g>
    <g id="ytick_41">
     <g id="line2d_70">
      <g>
       <use xlink:href="#mfc131d5729" x="249.284375" y="541.244958" style="stroke: #000000; stroke-width: 0.8"/>
      </g>
     </g>
     <g id="text_70">
      <!-- 0.70 -->
      <g transform="translate(220.01875 545.044176) scale(0.1 -0.1)">
       <use xlink:href="#DejaVuSans-30"/>
       <use xlink:href="#DejaVuSans-2e" transform="translate(63.623047 0)"/>
       <use xlink:href="#DejaVuSans-37" transform="translate(95.410156 0)"/>
       <use xlink:href="#DejaVuSans-30" transform="translate(159.033203 0)"/>
      </g>
     </g>
    </g>
    <g id="ytick_42">
     <g id="line2d_71">
      <g>
       <use xlink:href="#mfc131d5729" x="249.284375" y="505.201594" style="stroke: #000000; stroke-width: 0.8"/>
      </g>
     </g>
     <g id="text_71">
      <!-- 0.75 -->
      <g transform="translate(220.01875 509.000813) scale(0.1 -0.1)">
       <use xlink:href="#DejaVuSans-30"/>
       <use xlink:href="#DejaVuSans-2e" transform="translate(63.623047 0)"/>
       <use xlink:href="#DejaVuSans-37" transform="translate(95.410156 0)"/>
       <use xlink:href="#DejaVuSans-35" transform="translate(159.033203 0)"/>
      </g>
     </g>
    </g>
   </g>
   <g id="line2d_72">
    <path d="M 257.509398 684.517328 
L 259.171018 643.968544 
L 260.832639 652.078301 
L 262.49426 690.824917 
L 264.155881 666.495646 
L 265.817502 667.39673 
L 267.479122 674.605403 
L 269.140743 668.297815 
L 270.802364 664.693478 
L 272.463985 652.078301 
L 274.125605 636.759871 
L 275.787226 668.297815 
L 277.448847 671.902151 
L 279.110468 669.198899 
L 280.772088 674.605403 
L 282.433709 652.078301 
L 284.09533 643.06746 
L 285.756951 695.330337 
L 287.418571 639.463124 
L 289.080192 629.551199 
L 290.741813 671.001067 
L 292.403434 632.254451 
L 294.065054 652.979385 
L 295.726675 627.74903 
L 297.388296 639.463124 
L 299.049917 627.74903 
L 300.711537 618.73819 
L 302.373158 629.551199 
L 304.034779 613.331685 
L 305.6964 631.353367 
L 307.35802 623.24361 
L 309.019641 630.452283 
L 310.681262 607.024096 
L 312.342883 637.660955 
L 314.004503 608.826265 
L 315.666124 617.837105 
L 317.327745 594.408919 
L 318.989366 614.232769 
L 320.650986 616.034937 
L 322.312607 619.639274 
L 323.974228 640.364208 
L 325.635849 605.221928 
L 327.297469 624.144694 
L 328.95909 637.660955 
L 330.620711 604.320844 
L 332.282332 593.507835 
L 333.943952 595.310003 
L 335.605573 592.606751 
L 337.267194 571.881817 
L 338.928815 587.200246 
L 340.590435 576.387237 
L 342.252056 571.881817 
L 343.913677 565.574228 
L 345.575298 605.221928 
L 347.236918 591.705667 
L 348.898539 576.387237 
L 350.56016 590.804583 
L 352.221781 574.585069 
L 353.883401 592.606751 
L 355.545022 580.892658 
L 357.206643 576.387237 
L 358.868264 561.969892 
L 360.529884 589.002415 
L 362.191505 585.398078 
L 363.853126 544.849294 
L 365.514747 568.27748 
L 367.176368 575.486153 
L 368.837988 589.002415 
L 370.499609 565.574228 
L 372.16123 553.860135 
L 373.822851 530.431949 
L 375.484471 538.541705 
L 377.146092 553.860135 
L 378.807713 579.991574 
L 380.469334 543.047126 
L 382.130954 570.079649 
L 383.792575 589.903499 
L 385.454196 531.333033 
L 387.115817 543.94821 
L 388.777437 527.728696 
L 390.439058 543.047126 
L 392.100679 522.322192 
L 393.7623 546.651462 
L 395.42392 539.44279 
L 397.085541 550.255799 
L 398.747162 539.44279 
L 400.408783 559.26664 
L 402.070403 534.937369 
L 403.732024 553.860135 
L 405.393645 524.12436 
L 407.055266 539.44279 
L 408.716886 550.255799 
L 410.378507 530.431949 
L 412.040128 568.27748 
L 413.701749 570.079649 
L 415.363369 553.860135 
L 417.02499 512.410267 
L 418.686611 520.520024 
L 420.348232 516.014603 
L 422.009852 511.509183 
" clip-path="url(#p3c2e05b973)" style="fill: none; stroke: #1f77b4; stroke-width: 1.5; stroke-linecap: square"/>
   </g>
   <g id="patch_28">
    <path d="M 249.284375 704.521395 
L 249.284375 502.318125 
" style="fill: none; stroke: #000000; stroke-width: 0.8; stroke-linejoin: miter; stroke-linecap: square"/>
   </g>
   <g id="patch_29">
    <path d="M 430.234875 704.521395 
L 430.234875 502.318125 
" style="fill: none; stroke: #000000; stroke-width: 0.8; stroke-linejoin: miter; stroke-linecap: square"/>
   </g>
   <g id="patch_30">
    <path d="M 249.284375 704.521395 
L 430.234875 704.521395 
" style="fill: none; stroke: #000000; stroke-width: 0.8; stroke-linejoin: miter; stroke-linecap: square"/>
   </g>
   <g id="patch_31">
    <path d="M 249.284375 502.318125 
L 430.234875 502.318125 
" style="fill: none; stroke: #000000; stroke-width: 0.8; stroke-linejoin: miter; stroke-linecap: square"/>
   </g>
   <g id="text_72">
    <!-- sigma 1.000 -->
    <g transform="translate(302.553063 496.318125) scale(0.12 -0.12)">
     <use xlink:href="#DejaVuSans-73"/>
     <use xlink:href="#DejaVuSans-69" transform="translate(52.099609 0)"/>
     <use xlink:href="#DejaVuSans-67" transform="translate(79.882812 0)"/>
     <use xlink:href="#DejaVuSans-6d" transform="translate(143.359375 0)"/>
     <use xlink:href="#DejaVuSans-61" transform="translate(240.771484 0)"/>
     <use xlink:href="#DejaVuSans-20" transform="translate(302.050781 0)"/>
     <use xlink:href="#DejaVuSans-31" transform="translate(333.837891 0)"/>
     <use xlink:href="#DejaVuSans-2e" transform="translate(397.460938 0)"/>
     <use xlink:href="#DejaVuSans-30" transform="translate(429.248047 0)"/>
     <use xlink:href="#DejaVuSans-30" transform="translate(492.871094 0)"/>
     <use xlink:href="#DejaVuSans-30" transform="translate(556.494141 0)"/>
    </g>
   </g>
  </g>
 </g>
 <defs>
  <clipPath id="p79464b17a2">
   <rect x="30.103125" y="22.318125" width="180.9505" height="202.20327"/>
  </clipPath>
  <clipPath id="pd0ee564e5a">
   <rect x="249.284375" y="22.318125" width="180.9505" height="202.20327"/>
  </clipPath>
  <clipPath id="pd7d8b05587">
   <rect x="30.103125" y="262.318125" width="180.9505" height="202.20327"/>
  </clipPath>
  <clipPath id="p7357d44102">
   <rect x="249.284375" y="262.318125" width="180.9505" height="202.20327"/>
  </clipPath>
  <clipPath id="pf08968a624">
   <rect x="30.103125" y="502.318125" width="180.9505" height="202.20327"/>
  </clipPath>
  <clipPath id="p3c2e05b973">
   <rect x="249.284375" y="502.318125" width="180.9505" height="202.20327"/>
  </clipPath>
 </defs>
</svg>
