<?xml version="1.0" encoding="utf-8" standalone="no"?>
<!DOCTYPE svg PUBLIC "-//W3C//DTD SVG 1.1//EN"
  "http://www.w3.org/Graphics/SVG/1.1/DTD/svg11.dtd">
<svg xmlns:xlink="http://www.w3.org/1999/xlink" width="440.300526pt" height="728.39952pt" viewBox="0 0 440.300526 728.39952" xmlns="http://www.w3.org/2000/svg" version="1.1">
 <metadata>
  <rdf:RDF xmlns:dc="http://purl.org/dc/elements/1.1/" xmlns:cc="http://creativecommons.org/ns#" xmlns:rdf="http://www.w3.org/1999/02/22-rdf-syntax-ns#">
   <cc:Work>
    <dc:type rdf:resource="http://purl.org/dc/dcmitype/StillImage"/>
    <dc:date>2025-09-27T09:20:21.086132</dc:date>
    <dc:format>image/svg+xml</dc:format>
    <dc:creator>
     <cc:Agent>
      <dc:title>Matplotlib v3.10.6, https://matplotlib.org/</dc:title>
     </cc:Agent>
    </dc:creator>
   </cc:Work>
  </rdf:RDF>
 </metadata>
 <defs>
  <style type="text/css">*{stroke-linejoin: round; stroke-linecap: butt}</style>
 </defs>
 <g id="figure_1">
  <g id="patch_1">
   <path d="M 0 728.39952 
L 440.300526 728.39952 
L 440.300526 0 
L 0 0 
z
" style="fill: #ffffff"/>
  </g>
  <g id="axes_1">
   <g id="patch_2">
    <path d="M 30.103125 233.306812 
L 224.50576 233.306812 
L 224.50576 22.318125 
L 30.103125 22.318125 
z
" style="fill: #ffffff"/>
   </g>
   <g id="matplotlib.axis_1">
    <g id="xtick_1">
     <g id="line2d_1">
      <defs>
       <path id="m611f277c8b" d="M 0 0 
L 0 3.5 
" style="stroke: #000000; stroke-width: 0.8"/>
      </defs>
      <g>
       <use xlink:href="#m611f277c8b" x="38.939608" y="233.306812" style="stroke: #000000; stroke-width: 0.8"/>
      </g>
     </g>
    </g>
    <g id="xtick_2">
     <g id="line2d_2">
      <g>
       <use xlink:href="#m611f277c8b" x="97.849498" y="233.306812" style="stroke: #000000; stroke-width: 0.8"/>
      </g>
     </g>
    </g>
    <g id="xtick_3">
     <g id="line2d_3">
      <g>
       <use xlink:href="#m611f277c8b" x="156.759387" y="233.306812" style="stroke: #000000; stroke-width: 0.8"/>
      </g>
     </g>
    </g>
    <g id="xtick_4">
     <g id="line2d_4">
      <g>
       <use xlink:href="#m611f277c8b" x="215.669276" y="233.306812" style="stroke: #000000; stroke-width: 0.8"/>
      </g>
     </g>
    </g>
   </g>
   <g id="matplotlib.axis_2">
    <g id="ytick_1">
     <g id="line2d_5">
      <defs>
       <path id="mbae369eaba" d="M 0 0 
L -3.5 0 
" style="stroke: #000000; stroke-width: 0.8"/>
      </defs>
      <g>
       <use xlink:href="#mbae369eaba" x="30.103125" y="210.929224" style="stroke: #000000; stroke-width: 0.8"/>
      </g>
     </g>
     <g id="text_1">
      <!-- 0.3 -->
      <g transform="translate(7.2 214.728442) scale(0.1 -0.1)">
       <defs>
        <path id="DejaVuSans-30" d="M 2034 4250 
Q 1547 4250 1301 3770 
Q 1056 3291 1056 2328 
Q 1056 1369 1301 889 
Q 1547 409 2034 409 
Q 2525 409 2770 889 
Q 3016 1369 3016 2328 
Q 3016 3291 2770 3770 
Q 2525 4250 2034 4250 
z
M 2034 4750 
Q 2819 4750 3233 4129 
Q 3647 3509 3647 2328 
Q 3647 1150 3233 529 
Q 2819 -91 2034 -91 
Q 1250 -91 836 529 
Q 422 1150 422 2328 
Q 422 3509 836 4129 
Q 1250 4750 2034 4750 
z
" transform="scale(0.015625)"/>
        <path id="DejaVuSans-2e" d="M 684 794 
L 1344 794 
L 1344 0 
L 684 0 
L 684 794 
z
" transform="scale(0.015625)"/>
        <path id="DejaVuSans-33" d="M 2597 2516 
Q 3050 2419 3304 2112 
Q 3559 1806 3559 1356 
Q 3559 666 3084 287 
Q 2609 -91 1734 -91 
Q 1441 -91 1130 -33 
Q 819 25 488 141 
L 488 750 
Q 750 597 1062 519 
Q 1375 441 1716 441 
Q 2309 441 2620 675 
Q 2931 909 2931 1356 
Q 2931 1769 2642 2001 
Q 2353 2234 1838 2234 
L 1294 2234 
L 1294 2753 
L 1863 2753 
Q 2328 2753 2575 2939 
Q 2822 3125 2822 3475 
Q 2822 3834 2567 4026 
Q 2313 4219 1838 4219 
Q 1578 4219 1281 4162 
Q 984 4106 628 3988 
L 628 4550 
Q 988 4650 1302 4700 
Q 1616 4750 1894 4750 
Q 2613 4750 3031 4423 
Q 3450 4097 3450 3541 
Q 3450 3153 3228 2886 
Q 3006 2619 2597 2516 
z
" transform="scale(0.015625)"/>
       </defs>
       <use xlink:href="#DejaVuSans-30"/>
       <use xlink:href="#DejaVuSans-2e" transform="translate(63.623047 0)"/>
       <use xlink:href="#DejaVuSans-33" transform="translate(95.410156 0)"/>
      </g>
     </g>
    </g>
    <g id="ytick_2">
     <g id="line2d_6">
      <g>
       <use xlink:href="#mbae369eaba" x="30.103125" y="185.354837" style="stroke: #000000; stroke-width: 0.8"/>
      </g>
     </g>
     <g id="text_2">
      <!-- 0.4 -->
      <g transform="translate(7.2 189.154056) scale(0.1 -0.1)">
       <defs>
        <path id="DejaVuSans-34" d="M 2419 4116 
L 825 1625 
L 2419 1625 
L 2419 4116 
z
M 2253 4666 
L 3047 4666 
L 3047 1625 
L 3713 1625 
L 3713 1100 
L 3047 1100 
L 3047 0 
L 2419 0 
L 2419 1100 
L 313 1100 
L 313 1709 
L 2253 4666 
z
" transform="scale(0.015625)"/>
       </defs>
       <use xlink:href="#DejaVuSans-30"/>
       <use xlink:href="#DejaVuSans-2e" transform="translate(63.623047 0)"/>
       <use xlink:href="#DejaVuSans-34" transform="translate(95.410156 0)"/>
      </g>
     </g>
    </g>
    <g id="ytick_3">
     <g id="line2d_7">
      <g>
       <use xlink:href="#mbae369eaba" x="30.103125" y="159.780451" style="stroke: #000000; stroke-width: 0.8"/>
      </g>
     </g>
     <g id="text_3">
      <!-- 0.5 -->
      <g transform="translate(7.2 163.57967) scale(0.1 -0.1)">
       <defs>
        <path id="DejaVuSans-35" d="M 691 4666 
L 3169 4666 
L 3169 4134 
L 1269 4134 
L 1269 2991 
Q 1406 3038 1543 3061 
Q 1681 3084 1819 3084 
Q 2600 3084 3056 2656 
Q 3513 2228 3513 1497 
Q 3513 744 3044 326 
Q 2575 -91 1722 -91 
Q 1428 -91 1123 -41 
Q 819 9 494 109 
L 494 744 
Q 775 591 1075 516 
Q 1375 441 1709 441 
Q 2250 441 2565 725 
Q 2881 1009 2881 1497 
Q 2881 1984 2565 2268 
Q 2250 2553 1709 2553 
Q 1456 2553 1204 2497 
Q 953 2441 691 2322 
L 691 4666 
z
" transform="scale(0.015625)"/>
       </defs>
       <use xlink:href="#DejaVuSans-30"/>
       <use xlink:href="#DejaVuSans-2e" transform="translate(63.623047 0)"/>
       <use xlink:href="#DejaVuSans-35" transform="translate(95.410156 0)"/>
      </g>
     </g>
    </g>
    <g id="ytick_4">
     <g id="line2d_8">
      <g>
       <use xlink:href="#mbae369eaba" x="30.103125" y="134.206065" style="stroke: #000000; stroke-width: 0.8"/>
      </g>
     </g>
     <g id="text_4">
      <!-- 0.6 -->
      <g transform="translate(7.2 138.005284) scale(0.1 -0.1)">
       <defs>
        <path id="DejaVuSans-36" d="M 2113 2584 
Q 1688 2584 1439 2293 
Q 1191 2003 1191 1497 
Q 1191 994 1439 701 
Q 1688 409 2113 409 
Q 2538 409 2786 701 
Q 3034 994 3034 1497 
Q 3034 2003 2786 2293 
Q 2538 2584 2113 2584 
z
M 3366 4563 
L 3366 3988 
Q 3128 4100 2886 4159 
Q 2644 4219 2406 4219 
Q 1781 4219 1451 3797 
Q 1122 3375 1075 2522 
Q 1259 2794 1537 2939 
Q 1816 3084 2150 3084 
Q 2853 3084 3261 2657 
Q 3669 2231 3669 1497 
Q 3669 778 3244 343 
Q 2819 -91 2113 -91 
Q 1303 -91 875 529 
Q 447 1150 447 2328 
Q 447 3434 972 4092 
Q 1497 4750 2381 4750 
Q 2619 4750 2861 4703 
Q 3103 4656 3366 4563 
z
" transform="scale(0.015625)"/>
       </defs>
       <use xlink:href="#DejaVuSans-30"/>
       <use xlink:href="#DejaVuSans-2e" transform="translate(63.623047 0)"/>
       <use xlink:href="#DejaVuSans-36" transform="translate(95.410156 0)"/>
      </g>
     </g>
    </g>
    <g id="ytick_5">
     <g id="line2d_9">
      <g>
       <use xlink:href="#mbae369eaba" x="30.103125" y="108.631679" style="stroke: #000000; stroke-width: 0.8"/>
      </g>
     </g>
     <g id="text_5">
      <!-- 0.7 -->
      <g transform="translate(7.2 112.430897) scale(0.1 -0.1)">
       <defs>
        <path id="DejaVuSans-37" d="M 525 4666 
L 3525 4666 
L 3525 4397 
L 1831 0 
L 1172 0 
L 2766 4134 
L 525 4134 
L 525 4666 
z
" transform="scale(0.015625)"/>
       </defs>
       <use xlink:href="#DejaVuSans-30"/>
       <use xlink:href="#DejaVuSans-2e" transform="translate(63.623047 0)"/>
       <use xlink:href="#DejaVuSans-37" transform="translate(95.410156 0)"/>
      </g>
     </g>
    </g>
    <g id="ytick_6">
     <g id="line2d_10">
      <g>
       <use xlink:href="#mbae369eaba" x="30.103125" y="83.057292" style="stroke: #000000; stroke-width: 0.8"/>
      </g>
     </g>
     <g id="text_6">
      <!-- 0.8 -->
      <g transform="translate(7.2 86.856511) scale(0.1 -0.1)">
       <defs>
        <path id="DejaVuSans-38" d="M 2034 2216 
Q 1584 2216 1326 1975 
Q 1069 1734 1069 1313 
Q 1069 891 1326 650 
Q 1584 409 2034 409 
Q 2484 409 2743 651 
Q 3003 894 3003 1313 
Q 3003 1734 2745 1975 
Q 2488 2216 2034 2216 
z
M 1403 2484 
Q 997 2584 770 2862 
Q 544 3141 544 3541 
Q 544 4100 942 4425 
Q 1341 4750 2034 4750 
Q 2731 4750 3128 4425 
Q 3525 4100 3525 3541 
Q 3525 3141 3298 2862 
Q 3072 2584 2669 2484 
Q 3125 2378 3379 2068 
Q 3634 1759 3634 1313 
Q 3634 634 3220 271 
Q 2806 -91 2034 -91 
Q 1263 -91 848 271 
Q 434 634 434 1313 
Q 434 1759 690 2068 
Q 947 2378 1403 2484 
z
M 1172 3481 
Q 1172 3119 1398 2916 
Q 1625 2713 2034 2713 
Q 2441 2713 2670 2916 
Q 2900 3119 2900 3481 
Q 2900 3844 2670 4047 
Q 2441 4250 2034 4250 
Q 1625 4250 1398 4047 
Q 1172 3844 1172 3481 
z
" transform="scale(0.015625)"/>
       </defs>
       <use xlink:href="#DejaVuSans-30"/>
       <use xlink:href="#DejaVuSans-2e" transform="translate(63.623047 0)"/>
       <use xlink:href="#DejaVuSans-38" transform="translate(95.410156 0)"/>
      </g>
     </g>
    </g>
    <g id="ytick_7">
     <g id="line2d_11">
      <g>
       <use xlink:href="#mbae369eaba" x="30.103125" y="57.482906" style="stroke: #000000; stroke-width: 0.8"/>
      </g>
     </g>
     <g id="text_7">
      <!-- 0.9 -->
      <g transform="translate(7.2 61.282125) scale(0.1 -0.1)">
       <defs>
        <path id="DejaVuSans-39" d="M 703 97 
L 703 672 
Q 941 559 1184 500 
Q 1428 441 1663 441 
Q 2288 441 2617 861 
Q 2947 1281 2994 2138 
Q 2813 1869 2534 1725 
Q 2256 1581 1919 1581 
Q 1219 1581 811 2004 
Q 403 2428 403 3163 
Q 403 3881 828 4315 
Q 1253 4750 1959 4750 
Q 2769 4750 3195 4129 
Q 3622 3509 3622 2328 
Q 3622 1225 3098 567 
Q 2575 -91 1691 -91 
Q 1453 -91 1209 -44 
Q 966 3 703 97 
z
M 1959 2075 
Q 2384 2075 2632 2365 
Q 2881 2656 2881 3163 
Q 2881 3666 2632 3958 
Q 2384 4250 1959 4250 
Q 1534 4250 1286 3958 
Q 1038 3666 1038 3163 
Q 1038 2656 1286 2365 
Q 1534 2075 1959 2075 
z
" transform="scale(0.015625)"/>
       </defs>
       <use xlink:href="#DejaVuSans-30"/>
       <use xlink:href="#DejaVuSans-2e" transform="translate(63.623047 0)"/>
       <use xlink:href="#DejaVuSans-39" transform="translate(95.410156 0)"/>
      </g>
     </g>
    </g>
    <g id="ytick_8">
     <g id="line2d_12">
      <g>
       <use xlink:href="#mbae369eaba" x="30.103125" y="31.90852" style="stroke: #000000; stroke-width: 0.8"/>
      </g>
     </g>
     <g id="text_8">
      <!-- 1.0 -->
      <g transform="translate(7.2 35.707739) scale(0.1 -0.1)">
       <defs>
        <path id="DejaVuSans-31" d="M 794 531 
L 1825 531 
L 1825 4091 
L 703 3866 
L 703 4441 
L 1819 4666 
L 2450 4666 
L 2450 531 
L 3481 531 
L 3481 0 
L 794 0 
L 794 531 
z
" transform="scale(0.015625)"/>
       </defs>
       <use xlink:href="#DejaVuSans-31"/>
       <use xlink:href="#DejaVuSans-2e" transform="translate(63.623047 0)"/>
       <use xlink:href="#DejaVuSans-30" transform="translate(95.410156 0)"/>
      </g>
     </g>
    </g>
   </g>
   <g id="line2d_13">
    <path d="M 38.939608 223.716417 
L 40.724757 223.716417 
L 42.509905 223.716417 
L 44.295053 223.716417 
L 46.080201 223.716417 
L 47.865349 223.716417 
L 49.650497 223.716417 
L 51.435646 223.716417 
L 53.220794 223.716417 
L 55.005942 223.716417 
L 56.79109 223.077057 
L 58.576238 222.437698 
L 60.361386 217.96218 
L 62.146534 210.929224 
L 63.931683 212.207943 
L 65.716831 203.256908 
L 67.501979 191.109074 
L 69.287127 187.272916 
L 71.072275 185.354837 
L 72.857423 171.928285 
L 74.642572 170.649565 
L 76.42772 167.452767 
L 78.212868 162.977249 
L 79.998016 161.05917 
L 81.783164 160.419811 
L 83.568312 159.780451 
L 85.353461 159.780451 
L 87.138609 159.780451 
L 88.923757 159.780451 
L 90.708905 159.780451 
L 92.494053 159.780451 
L 94.279201 159.780451 
L 96.06435 159.780451 
L 97.849498 159.780451 
L 99.634646 159.780451 
L 101.419794 159.780451 
L 103.204942 159.780451 
L 104.99009 159.780451 
L 106.775238 159.780451 
L 108.560387 159.780451 
L 110.345535 159.141092 
L 112.130683 159.780451 
L 113.915831 159.780451 
L 115.700979 158.501732 
L 117.486127 154.665574 
L 119.271276 151.468776 
L 121.056424 152.747495 
L 122.841572 146.993258 
L 124.62672 138.681582 
L 126.411868 132.927346 
L 128.197016 123.336951 
L 129.982165 115.664635 
L 131.767313 109.271038 
L 133.552461 106.07424 
L 135.337609 100.959363 
L 137.122757 97.762564 
L 138.907905 95.844486 
L 140.693054 96.483845 
L 142.478202 96.483845 
L 144.26335 96.483845 
L 146.048498 96.483845 
L 147.833646 95.844486 
L 149.618794 95.844486 
L 151.403942 95.844486 
L 153.189091 95.844486 
L 154.974239 95.844486 
L 156.759387 95.844486 
L 158.544535 95.844486 
L 160.329683 95.844486 
L 162.114831 95.844486 
L 163.89998 95.844486 
L 165.685128 95.844486 
L 167.470276 95.844486 
L 169.255424 95.844486 
L 171.040572 95.205126 
L 172.82572 94.565766 
L 174.610869 95.205126 
L 176.396017 93.926407 
L 178.181165 93.926407 
L 179.966313 88.17217 
L 181.751461 80.499854 
L 183.536609 69.63074 
L 185.321758 67.712661 
L 187.106906 56.843546 
L 188.892054 54.286108 
L 190.677202 45.974432 
L 192.46235 38.941476 
L 194.247498 35.744678 
L 196.032646 35.744678 
L 197.817795 35.105318 
L 199.602943 31.90852 
L 201.388091 31.90852 
L 203.173239 32.54788 
L 204.958387 32.54788 
L 206.743535 31.90852 
L 208.528684 31.90852 
L 210.313832 31.90852 
L 212.09898 31.90852 
L 213.884128 31.90852 
L 215.669276 31.90852 
" clip-path="url(#p75ed5e409c)" style="fill: none; stroke: #1f77b4; stroke-width: 1.5; stroke-linecap: square"/>
   </g>
   <g id="patch_3">
    <path d="M 30.103125 233.306812 
L 30.103125 22.318125 
" style="fill: none; stroke: #000000; stroke-width: 0.8; stroke-linejoin: miter; stroke-linecap: square"/>
   </g>
   <g id="patch_4">
    <path d="M 224.50576 233.306812 
L 224.50576 22.318125 
" style="fill: none; stroke: #000000; stroke-width: 0.8; stroke-linejoin: miter; stroke-linecap: square"/>
   </g>
   <g id="patch_5">
    <path d="M 30.103125 233.306812 
L 224.50576 233.306812 
" style="fill: none; stroke: #000000; stroke-width: 0.8; stroke-linejoin: miter; stroke-linecap: square"/>
   </g>
   <g id="patch_6">
    <path d="M 30.103125 22.318125 
L 224.50576 22.318125 
" style="fill: none; stroke: #000000; stroke-width: 0.8; stroke-linejoin: miter; stroke-linecap: square"/>
   </g>
   <g id="text_9">
    <!-- sigma 0.025 -->
    <g transform="translate(90.09788 16.318125) scale(0.12 -0.12)">
     <defs>
      <path id="DejaVuSans-73" d="M 2834 3397 
L 2834 2853 
Q 2591 2978 2328 3040 
Q 2066 3103 1784 3103 
Q 1356 3103 1142 2972 
Q 928 2841 928 2578 
Q 928 2378 1081 2264 
Q 1234 2150 1697 2047 
L 1894 2003 
Q 2506 1872 2764 1633 
Q 3022 1394 3022 966 
Q 3022 478 2636 193 
Q 2250 -91 1575 -91 
Q 1294 -91 989 -36 
Q 684 19 347 128 
L 347 722 
Q 666 556 975 473 
Q 1284 391 1588 391 
Q 1994 391 2212 530 
Q 2431 669 2431 922 
Q 2431 1156 2273 1281 
Q 2116 1406 1581 1522 
L 1381 1569 
Q 847 1681 609 1914 
Q 372 2147 372 2553 
Q 372 3047 722 3315 
Q 1072 3584 1716 3584 
Q 2034 3584 2315 3537 
Q 2597 3491 2834 3397 
z
" transform="scale(0.015625)"/>
      <path id="DejaVuSans-69" d="M 603 3500 
L 1178 3500 
L 1178 0 
L 603 0 
L 603 3500 
z
M 603 4863 
L 1178 4863 
L 1178 4134 
L 603 4134 
L 603 4863 
z
" transform="scale(0.015625)"/>
      <path id="DejaVuSans-67" d="M 2906 1791 
Q 2906 2416 2648 2759 
Q 2391 3103 1925 3103 
Q 1463 3103 1205 2759 
Q 947 2416 947 1791 
Q 947 1169 1205 825 
Q 1463 481 1925 481 
Q 2391 481 2648 825 
Q 2906 1169 2906 1791 
z
M 3481 434 
Q 3481 -459 3084 -895 
Q 2688 -1331 1869 -1331 
Q 1566 -1331 1297 -1286 
Q 1028 -1241 775 -1147 
L 775 -588 
Q 1028 -725 1275 -790 
Q 1522 -856 1778 -856 
Q 2344 -856 2625 -561 
Q 2906 -266 2906 331 
L 2906 616 
Q 2728 306 2450 153 
Q 2172 0 1784 0 
Q 1141 0 747 490 
Q 353 981 353 1791 
Q 353 2603 747 3093 
Q 1141 3584 1784 3584 
Q 2172 3584 2450 3431 
Q 2728 3278 2906 2969 
L 2906 3500 
L 3481 3500 
L 3481 434 
z
" transform="scale(0.015625)"/>
      <path id="DejaVuSans-6d" d="M 3328 2828 
Q 3544 3216 3844 3400 
Q 4144 3584 4550 3584 
Q 5097 3584 5394 3201 
Q 5691 2819 5691 2113 
L 5691 0 
L 5113 0 
L 5113 2094 
Q 5113 2597 4934 2840 
Q 4756 3084 4391 3084 
Q 3944 3084 3684 2787 
Q 3425 2491 3425 1978 
L 3425 0 
L 2847 0 
L 2847 2094 
Q 2847 2600 2669 2842 
Q 2491 3084 2119 3084 
Q 1678 3084 1418 2786 
Q 1159 2488 1159 1978 
L 1159 0 
L 581 0 
L 581 3500 
L 1159 3500 
L 1159 2956 
Q 1356 3278 1631 3431 
Q 1906 3584 2284 3584 
Q 2666 3584 2933 3390 
Q 3200 3197 3328 2828 
z
" transform="scale(0.015625)"/>
      <path id="DejaVuSans-61" d="M 2194 1759 
Q 1497 1759 1228 1600 
Q 959 1441 959 1056 
Q 959 750 1161 570 
Q 1363 391 1709 391 
Q 2188 391 2477 730 
Q 2766 1069 2766 1631 
L 2766 1759 
L 2194 1759 
z
M 3341 1997 
L 3341 0 
L 2766 0 
L 2766 531 
Q 2569 213 2275 61 
Q 1981 -91 1556 -91 
Q 1019 -91 701 211 
Q 384 513 384 1019 
Q 384 1609 779 1909 
Q 1175 2209 1959 2209 
L 2766 2209 
L 2766 2266 
Q 2766 2663 2505 2880 
Q 2244 3097 1772 3097 
Q 1472 3097 1187 3025 
Q 903 2953 641 2809 
L 641 3341 
Q 956 3463 1253 3523 
Q 1550 3584 1831 3584 
Q 2591 3584 2966 3190 
Q 3341 2797 3341 1997 
z
" transform="scale(0.015625)"/>
      <path id="DejaVuSans-20" transform="scale(0.015625)"/>
      <path id="DejaVuSans-32" d="M 1228 531 
L 3431 531 
L 3431 0 
L 469 0 
L 469 531 
Q 828 903 1448 1529 
Q 2069 2156 2228 2338 
Q 2531 2678 2651 2914 
Q 2772 3150 2772 3378 
Q 2772 3750 2511 3984 
Q 2250 4219 1831 4219 
Q 1534 4219 1204 4116 
Q 875 4013 500 3803 
L 500 4441 
Q 881 4594 1212 4672 
Q 1544 4750 1819 4750 
Q 2544 4750 2975 4387 
Q 3406 4025 3406 3419 
Q 3406 3131 3298 2873 
Q 3191 2616 2906 2266 
Q 2828 2175 2409 1742 
Q 1991 1309 1228 531 
z
" transform="scale(0.015625)"/>
     </defs>
     <use xlink:href="#DejaVuSans-73"/>
     <use xlink:href="#DejaVuSans-69" transform="translate(52.099609 0)"/>
     <use xlink:href="#DejaVuSans-67" transform="translate(79.882812 0)"/>
     <use xlink:href="#DejaVuSans-6d" transform="translate(143.359375 0)"/>
     <use xlink:href="#DejaVuSans-61" transform="translate(240.771484 0)"/>
     <use xlink:href="#DejaVuSans-20" transform="translate(302.050781 0)"/>
     <use xlink:href="#DejaVuSans-30" transform="translate(333.837891 0)"/>
     <use xlink:href="#DejaVuSans-2e" transform="translate(397.460938 0)"/>
     <use xlink:href="#DejaVuSans-30" transform="translate(429.248047 0)"/>
     <use xlink:href="#DejaVuSans-32" transform="translate(492.871094 0)"/>
     <use xlink:href="#DejaVuSans-35" transform="translate(556.494141 0)"/>
    </g>
   </g>
  </g>
  <g id="axes_2">
   <g id="patch_7">
    <path d="M 236.401562 233.306812 
L 430.804197 233.306812 
L 430.804197 22.318125 
L 236.401562 22.318125 
z
" style="fill: #ffffff"/>
   </g>
   <g id="matplotlib.axis_3">
    <g id="xtick_5">
     <g id="line2d_14">
      <g>
       <use xlink:href="#m611f277c8b" x="245.238046" y="233.306812" style="stroke: #000000; stroke-width: 0.8"/>
      </g>
     </g>
    </g>
    <g id="xtick_6">
     <g id="line2d_15">
      <g>
       <use xlink:href="#m611f277c8b" x="304.147935" y="233.306812" style="stroke: #000000; stroke-width: 0.8"/>
      </g>
     </g>
    </g>
    <g id="xtick_7">
     <g id="line2d_16">
      <g>
       <use xlink:href="#m611f277c8b" x="363.057824" y="233.306812" style="stroke: #000000; stroke-width: 0.8"/>
      </g>
     </g>
    </g>
    <g id="xtick_8">
     <g id="line2d_17">
      <g>
       <use xlink:href="#m611f277c8b" x="421.967714" y="233.306812" style="stroke: #000000; stroke-width: 0.8"/>
      </g>
     </g>
    </g>
   </g>
   <g id="matplotlib.axis_4">
    <g id="ytick_9">
     <g id="line2d_18">
      <g>
       <use xlink:href="#mbae369eaba" x="236.401562" y="210.929224" style="stroke: #000000; stroke-width: 0.8"/>
      </g>
     </g>
    </g>
    <g id="ytick_10">
     <g id="line2d_19">
      <g>
       <use xlink:href="#mbae369eaba" x="236.401562" y="185.354837" style="stroke: #000000; stroke-width: 0.8"/>
      </g>
     </g>
    </g>
    <g id="ytick_11">
     <g id="line2d_20">
      <g>
       <use xlink:href="#mbae369eaba" x="236.401562" y="159.780451" style="stroke: #000000; stroke-width: 0.8"/>
      </g>
     </g>
    </g>
    <g id="ytick_12">
     <g id="line2d_21">
      <g>
       <use xlink:href="#mbae369eaba" x="236.401562" y="134.206065" style="stroke: #000000; stroke-width: 0.8"/>
      </g>
     </g>
    </g>
    <g id="ytick_13">
     <g id="line2d_22">
      <g>
       <use xlink:href="#mbae369eaba" x="236.401562" y="108.631679" style="stroke: #000000; stroke-width: 0.8"/>
      </g>
     </g>
    </g>
    <g id="ytick_14">
     <g id="line2d_23">
      <g>
       <use xlink:href="#mbae369eaba" x="236.401562" y="83.057292" style="stroke: #000000; stroke-width: 0.8"/>
      </g>
     </g>
    </g>
    <g id="ytick_15">
     <g id="line2d_24">
      <g>
       <use xlink:href="#mbae369eaba" x="236.401562" y="57.482906" style="stroke: #000000; stroke-width: 0.8"/>
      </g>
     </g>
    </g>
    <g id="ytick_16">
     <g id="line2d_25">
      <g>
       <use xlink:href="#mbae369eaba" x="236.401562" y="31.90852" style="stroke: #000000; stroke-width: 0.8"/>
      </g>
     </g>
    </g>
   </g>
   <g id="line2d_26">
    <path d="M 245.238046 223.716417 
L 247.023194 223.077057 
L 248.808342 222.437698 
L 250.59349 223.077057 
L 252.378639 222.437698 
L 254.163787 222.437698 
L 255.948935 221.158978 
L 257.734083 218.60154 
L 259.519231 217.32282 
L 261.304379 216.683461 
L 263.089527 216.044101 
L 264.874676 208.371785 
L 266.659824 210.929224 
L 268.444972 199.42075 
L 270.23012 201.978188 
L 272.015268 190.469715 
L 273.800416 197.502671 
L 275.585565 192.387794 
L 277.370713 186.633557 
L 279.155861 178.321881 
L 280.941009 180.23996 
L 282.726157 173.846364 
L 284.511305 170.010206 
L 286.296454 171.928285 
L 288.081602 167.452767 
L 289.86675 168.092127 
L 291.651898 164.255969 
L 293.437046 165.534688 
L 295.222194 162.33789 
L 297.007343 162.977249 
L 298.792491 159.780451 
L 300.577639 159.780451 
L 302.362787 161.05917 
L 304.147935 159.141092 
L 305.933083 159.780451 
L 307.718231 159.141092 
L 309.50338 159.141092 
L 311.288528 157.223013 
L 313.073676 155.944293 
L 314.858824 154.665574 
L 316.643972 155.304934 
L 318.42912 153.386855 
L 320.214269 150.829416 
L 321.999417 150.190056 
L 323.784565 152.747495 
L 325.569713 140.599661 
L 327.354861 135.484784 
L 329.140009 133.566705 
L 330.925158 130.369907 
L 332.710306 134.206065 
L 334.495454 123.97631 
L 336.280602 125.894389 
L 338.06575 120.140152 
L 339.850898 120.140152 
L 341.636047 106.7136 
L 343.421195 111.189117 
L 345.206343 107.352959 
L 346.991491 100.320003 
L 348.776639 101.598722 
L 350.561787 102.877442 
L 352.346935 98.401924 
L 354.132084 96.483845 
L 355.917232 96.483845 
L 357.70238 95.205126 
L 359.487528 95.844486 
L 361.272676 96.483845 
L 363.057824 94.565766 
L 364.842973 95.205126 
L 366.628121 93.926407 
L 368.413269 94.565766 
L 370.198417 93.926407 
L 371.983565 95.205126 
L 373.768713 93.287047 
L 375.553862 93.926407 
L 377.33901 90.729608 
L 379.124158 91.368968 
L 380.909306 83.057292 
L 382.694454 83.696652 
L 384.479602 79.860494 
L 386.264751 78.581775 
L 388.049899 75.384976 
L 389.835047 70.270099 
L 391.620195 65.794582 
L 393.405343 62.597783 
L 395.190491 58.761625 
L 396.975639 54.286108 
L 398.760788 49.81059 
L 400.545936 45.335073 
L 402.331084 47.253152 
L 404.116232 40.859555 
L 405.90138 45.974432 
L 407.686528 40.220195 
L 409.471677 36.384037 
L 411.256825 37.023397 
L 413.041973 33.187239 
L 414.827121 33.187239 
L 416.612269 32.54788 
L 418.397417 32.54788 
L 420.182566 31.90852 
L 421.967714 32.54788 
" clip-path="url(#pe38fec5009)" style="fill: none; stroke: #1f77b4; stroke-width: 1.5; stroke-linecap: square"/>
   </g>
   <g id="patch_8">
    <path d="M 236.401562 233.306812 
L 236.401562 22.318125 
" style="fill: none; stroke: #000000; stroke-width: 0.8; stroke-linejoin: miter; stroke-linecap: square"/>
   </g>
   <g id="patch_9">
    <path d="M 430.804197 233.306812 
L 430.804197 22.318125 
" style="fill: none; stroke: #000000; stroke-width: 0.8; stroke-linejoin: miter; stroke-linecap: square"/>
   </g>
   <g id="patch_10">
    <path d="M 236.401562 233.306812 
L 430.804197 233.306812 
" style="fill: none; stroke: #000000; stroke-width: 0.8; stroke-linejoin: miter; stroke-linecap: square"/>
   </g>
   <g id="patch_11">
    <path d="M 236.401562 22.318125 
L 430.804197 22.318125 
" style="fill: none; stroke: #000000; stroke-width: 0.8; stroke-linejoin: miter; stroke-linecap: square"/>
   </g>
   <g id="text_10">
    <!-- sigma 0.050 -->
    <g transform="translate(296.396317 16.318125) scale(0.12 -0.12)">
     <use xlink:href="#DejaVuSans-73"/>
     <use xlink:href="#DejaVuSans-69" transform="translate(52.099609 0)"/>
     <use xlink:href="#DejaVuSans-67" transform="translate(79.882812 0)"/>
     <use xlink:href="#DejaVuSans-6d" transform="translate(143.359375 0)"/>
     <use xlink:href="#DejaVuSans-61" transform="translate(240.771484 0)"/>
     <use xlink:href="#DejaVuSans-20" transform="translate(302.050781 0)"/>
     <use xlink:href="#DejaVuSans-30" transform="translate(333.837891 0)"/>
     <use xlink:href="#DejaVuSans-2e" transform="translate(397.460938 0)"/>
     <use xlink:href="#DejaVuSans-30" transform="translate(429.248047 0)"/>
     <use xlink:href="#DejaVuSans-35" transform="translate(492.871094 0)"/>
     <use xlink:href="#DejaVuSans-30" transform="translate(556.494141 0)"/>
    </g>
   </g>
  </g>
  <g id="axes_3">
   <g id="patch_12">
    <path d="M 30.103125 468.914103 
L 224.50576 468.914103 
L 224.50576 257.925417 
L 30.103125 257.925417 
z
" style="fill: #ffffff"/>
   </g>
   <g id="matplotlib.axis_5">
    <g id="xtick_9">
     <g id="line2d_27">
      <g>
       <use xlink:href="#m611f277c8b" x="38.939608" y="468.914103" style="stroke: #000000; stroke-width: 0.8"/>
      </g>
     </g>
    </g>
    <g id="xtick_10">
     <g id="line2d_28">
      <g>
       <use xlink:href="#m611f277c8b" x="97.849498" y="468.914103" style="stroke: #000000; stroke-width: 0.8"/>
      </g>
     </g>
    </g>
    <g id="xtick_11">
     <g id="line2d_29">
      <g>
       <use xlink:href="#m611f277c8b" x="156.759387" y="468.914103" style="stroke: #000000; stroke-width: 0.8"/>
      </g>
     </g>
    </g>
    <g id="xtick_12">
     <g id="line2d_30">
      <g>
       <use xlink:href="#m611f277c8b" x="215.669276" y="468.914103" style="stroke: #000000; stroke-width: 0.8"/>
      </g>
     </g>
    </g>
   </g>
   <g id="matplotlib.axis_6">
    <g id="ytick_17">
     <g id="line2d_31">
      <g>
       <use xlink:href="#mbae369eaba" x="30.103125" y="446.536515" style="stroke: #000000; stroke-width: 0.8"/>
      </g>
     </g>
     <g id="text_11">
      <!-- 0.3 -->
      <g transform="translate(7.2 450.335734) scale(0.1 -0.1)">
       <use xlink:href="#DejaVuSans-30"/>
       <use xlink:href="#DejaVuSans-2e" transform="translate(63.623047 0)"/>
       <use xlink:href="#DejaVuSans-33" transform="translate(95.410156 0)"/>
      </g>
     </g>
    </g>
    <g id="ytick_18">
     <g id="line2d_32">
      <g>
       <use xlink:href="#mbae369eaba" x="30.103125" y="420.962129" style="stroke: #000000; stroke-width: 0.8"/>
      </g>
     </g>
     <g id="text_12">
      <!-- 0.4 -->
      <g transform="translate(7.2 424.761348) scale(0.1 -0.1)">
       <use xlink:href="#DejaVuSans-30"/>
       <use xlink:href="#DejaVuSans-2e" transform="translate(63.623047 0)"/>
       <use xlink:href="#DejaVuSans-34" transform="translate(95.410156 0)"/>
      </g>
     </g>
    </g>
    <g id="ytick_19">
     <g id="line2d_33">
      <g>
       <use xlink:href="#mbae369eaba" x="30.103125" y="395.387743" style="stroke: #000000; stroke-width: 0.8"/>
      </g>
     </g>
     <g id="text_13">
      <!-- 0.5 -->
      <g transform="translate(7.2 399.186962) scale(0.1 -0.1)">
       <use xlink:href="#DejaVuSans-30"/>
       <use xlink:href="#DejaVuSans-2e" transform="translate(63.623047 0)"/>
       <use xlink:href="#DejaVuSans-35" transform="translate(95.410156 0)"/>
      </g>
     </g>
    </g>
    <g id="ytick_20">
     <g id="line2d_34">
      <g>
       <use xlink:href="#mbae369eaba" x="30.103125" y="369.813357" style="stroke: #000000; stroke-width: 0.8"/>
      </g>
     </g>
     <g id="text_14">
      <!-- 0.6 -->
      <g transform="translate(7.2 373.612575) scale(0.1 -0.1)">
       <use xlink:href="#DejaVuSans-30"/>
       <use xlink:href="#DejaVuSans-2e" transform="translate(63.623047 0)"/>
       <use xlink:href="#DejaVuSans-36" transform="translate(95.410156 0)"/>
      </g>
     </g>
    </g>
    <g id="ytick_21">
     <g id="line2d_35">
      <g>
       <use xlink:href="#mbae369eaba" x="30.103125" y="344.23897" style="stroke: #000000; stroke-width: 0.8"/>
      </g>
     </g>
     <g id="text_15">
      <!-- 0.7 -->
      <g transform="translate(7.2 348.038189) scale(0.1 -0.1)">
       <use xlink:href="#DejaVuSans-30"/>
       <use xlink:href="#DejaVuSans-2e" transform="translate(63.623047 0)"/>
       <use xlink:href="#DejaVuSans-37" transform="translate(95.410156 0)"/>
      </g>
     </g>
    </g>
    <g id="ytick_22">
     <g id="line2d_36">
      <g>
       <use xlink:href="#mbae369eaba" x="30.103125" y="318.664584" style="stroke: #000000; stroke-width: 0.8"/>
      </g>
     </g>
     <g id="text_16">
      <!-- 0.8 -->
      <g transform="translate(7.2 322.463803) scale(0.1 -0.1)">
       <use xlink:href="#DejaVuSans-30"/>
       <use xlink:href="#DejaVuSans-2e" transform="translate(63.623047 0)"/>
       <use xlink:href="#DejaVuSans-38" transform="translate(95.410156 0)"/>
      </g>
     </g>
    </g>
    <g id="ytick_23">
     <g id="line2d_37">
      <g>
       <use xlink:href="#mbae369eaba" x="30.103125" y="293.090198" style="stroke: #000000; stroke-width: 0.8"/>
      </g>
     </g>
     <g id="text_17">
      <!-- 0.9 -->
      <g transform="translate(7.2 296.889417) scale(0.1 -0.1)">
       <use xlink:href="#DejaVuSans-30"/>
       <use xlink:href="#DejaVuSans-2e" transform="translate(63.623047 0)"/>
       <use xlink:href="#DejaVuSans-39" transform="translate(95.410156 0)"/>
      </g>
     </g>
    </g>
    <g id="ytick_24">
     <g id="line2d_38">
      <g>
       <use xlink:href="#mbae369eaba" x="30.103125" y="267.515812" style="stroke: #000000; stroke-width: 0.8"/>
      </g>
     </g>
     <g id="text_18">
      <!-- 1.0 -->
      <g transform="translate(7.2 271.31503) scale(0.1 -0.1)">
       <use xlink:href="#DejaVuSans-31"/>
       <use xlink:href="#DejaVuSans-2e" transform="translate(63.623047 0)"/>
       <use xlink:href="#DejaVuSans-30" transform="translate(95.410156 0)"/>
      </g>
     </g>
    </g>
   </g>
   <g id="line2d_39">
    <path d="M 38.939608 453.569472 
L 40.724757 446.536515 
L 42.509905 453.569472 
L 44.295053 449.733314 
L 46.080201 447.175875 
L 47.865349 443.339717 
L 49.650497 449.733314 
L 51.435646 445.257796 
L 53.220794 447.175875 
L 55.005942 445.257796 
L 56.79109 441.421638 
L 58.576238 436.946121 
L 60.361386 437.58548 
L 62.146534 433.749322 
L 63.931683 430.552524 
L 65.716831 435.028042 
L 67.501979 422.880208 
L 69.287127 423.519568 
L 71.072275 427.995085 
L 72.857423 419.04405 
L 74.642572 420.962129 
L 76.42772 415.847252 
L 78.212868 413.289813 
L 79.998016 416.486611 
L 81.783164 409.453655 
L 83.568312 414.568533 
L 85.353461 398.584541 
L 87.138609 401.781339 
L 88.923757 401.14198 
L 90.708905 401.14198 
L 92.494053 400.50262 
L 94.279201 404.978138 
L 96.06435 396.666462 
L 97.849498 397.305822 
L 99.634646 397.945181 
L 101.419794 388.994146 
L 103.204942 392.830304 
L 104.99009 382.60055 
L 106.775238 386.436708 
L 108.560387 381.96119 
L 110.345535 390.272866 
L 112.130683 378.125032 
L 113.915831 382.60055 
L 115.700979 381.96119 
L 117.486127 379.403751 
L 119.271276 368.534637 
L 121.056424 373.649515 
L 122.841572 367.895278 
L 124.62672 367.255918 
L 126.411868 364.05912 
L 128.197016 363.41976 
L 129.982165 356.386804 
L 131.767313 354.468725 
L 133.552461 361.501681 
L 135.337609 352.550646 
L 137.122757 351.271927 
L 138.907905 347.435769 
L 140.693054 342.960251 
L 142.478202 348.075128 
L 144.26335 341.681532 
L 146.048498 342.960251 
L 147.833646 342.320891 
L 149.618794 337.206014 
L 151.403942 338.484733 
L 153.189091 333.369856 
L 154.974239 337.845374 
L 156.759387 330.812418 
L 158.544535 333.369856 
L 160.329683 325.69754 
L 162.114831 321.222023 
L 163.89998 322.500742 
L 165.685128 321.861382 
L 167.470276 319.943303 
L 169.255424 316.746505 
L 171.040572 320.582663 
L 172.82572 316.107145 
L 174.610869 311.631628 
L 176.396017 309.713549 
L 178.181165 302.680593 
L 179.966313 310.992268 
L 181.751461 304.598672 
L 183.536609 299.483794 
L 185.321758 297.565715 
L 187.106906 299.483794 
L 188.892054 294.368917 
L 190.677202 294.368917 
L 192.46235 296.926356 
L 194.247498 292.450838 
L 196.032646 288.61468 
L 197.817795 282.221084 
L 199.602943 282.221084 
L 201.388091 283.499803 
L 203.173239 284.778522 
L 204.958387 282.221084 
L 206.743535 275.188127 
L 208.528684 285.417882 
L 210.313832 273.909408 
L 212.09898 275.188127 
L 213.884128 273.909408 
L 215.669276 278.384926 
" clip-path="url(#p7c3e592ea8)" style="fill: none; stroke: #1f77b4; stroke-width: 1.5; stroke-linecap: square"/>
   </g>
   <g id="patch_13">
    <path d="M 30.103125 468.914103 
L 30.103125 257.925417 
" style="fill: none; stroke: #000000; stroke-width: 0.8; stroke-linejoin: miter; stroke-linecap: square"/>
   </g>
   <g id="patch_14">
    <path d="M 224.50576 468.914103 
L 224.50576 257.925417 
" style="fill: none; stroke: #000000; stroke-width: 0.8; stroke-linejoin: miter; stroke-linecap: square"/>
   </g>
   <g id="patch_15">
    <path d="M 30.103125 468.914103 
L 224.50576 468.914103 
" style="fill: none; stroke: #000000; stroke-width: 0.8; stroke-linejoin: miter; stroke-linecap: square"/>
   </g>
   <g id="patch_16">
    <path d="M 30.103125 257.925417 
L 224.50576 257.925417 
" style="fill: none; stroke: #000000; stroke-width: 0.8; stroke-linejoin: miter; stroke-linecap: square"/>
   </g>
   <g id="text_19">
    <!-- sigma 0.100 -->
    <g transform="translate(90.09788 251.925417) scale(0.12 -0.12)">
     <use xlink:href="#DejaVuSans-73"/>
     <use xlink:href="#DejaVuSans-69" transform="translate(52.099609 0)"/>
     <use xlink:href="#DejaVuSans-67" transform="translate(79.882812 0)"/>
     <use xlink:href="#DejaVuSans-6d" transform="translate(143.359375 0)"/>
     <use xlink:href="#DejaVuSans-61" transform="translate(240.771484 0)"/>
     <use xlink:href="#DejaVuSans-20" transform="translate(302.050781 0)"/>
     <use xlink:href="#DejaVuSans-30" transform="translate(333.837891 0)"/>
     <use xlink:href="#DejaVuSans-2e" transform="translate(397.460938 0)"/>
     <use xlink:href="#DejaVuSans-31" transform="translate(429.248047 0)"/>
     <use xlink:href="#DejaVuSans-30" transform="translate(492.871094 0)"/>
     <use xlink:href="#DejaVuSans-30" transform="translate(556.494141 0)"/>
    </g>
   </g>
  </g>
  <g id="axes_4">
   <g id="patch_17">
    <path d="M 236.401562 468.914103 
L 430.804197 468.914103 
L 430.804197 257.925417 
L 236.401562 257.925417 
z
" style="fill: #ffffff"/>
   </g>
   <g id="matplotlib.axis_7">
    <g id="xtick_13">
     <g id="line2d_40">
      <g>
       <use xlink:href="#m611f277c8b" x="245.238046" y="468.914103" style="stroke: #000000; stroke-width: 0.8"/>
      </g>
     </g>
    </g>
    <g id="xtick_14">
     <g id="line2d_41">
      <g>
       <use xlink:href="#m611f277c8b" x="304.147935" y="468.914103" style="stroke: #000000; stroke-width: 0.8"/>
      </g>
     </g>
    </g>
    <g id="xtick_15">
     <g id="line2d_42">
      <g>
       <use xlink:href="#m611f277c8b" x="363.057824" y="468.914103" style="stroke: #000000; stroke-width: 0.8"/>
      </g>
     </g>
    </g>
    <g id="xtick_16">
     <g id="line2d_43">
      <g>
       <use xlink:href="#m611f277c8b" x="421.967714" y="468.914103" style="stroke: #000000; stroke-width: 0.8"/>
      </g>
     </g>
    </g>
   </g>
   <g id="matplotlib.axis_8">
    <g id="ytick_25">
     <g id="line2d_44">
      <g>
       <use xlink:href="#mbae369eaba" x="236.401562" y="446.536515" style="stroke: #000000; stroke-width: 0.8"/>
      </g>
     </g>
    </g>
    <g id="ytick_26">
     <g id="line2d_45">
      <g>
       <use xlink:href="#mbae369eaba" x="236.401562" y="420.962129" style="stroke: #000000; stroke-width: 0.8"/>
      </g>
     </g>
    </g>
    <g id="ytick_27">
     <g id="line2d_46">
      <g>
       <use xlink:href="#mbae369eaba" x="236.401562" y="395.387743" style="stroke: #000000; stroke-width: 0.8"/>
      </g>
     </g>
    </g>
    <g id="ytick_28">
     <g id="line2d_47">
      <g>
       <use xlink:href="#mbae369eaba" x="236.401562" y="369.813357" style="stroke: #000000; stroke-width: 0.8"/>
      </g>
     </g>
    </g>
    <g id="ytick_29">
     <g id="line2d_48">
      <g>
       <use xlink:href="#mbae369eaba" x="236.401562" y="344.23897" style="stroke: #000000; stroke-width: 0.8"/>
      </g>
     </g>
    </g>
    <g id="ytick_30">
     <g id="line2d_49">
      <g>
       <use xlink:href="#mbae369eaba" x="236.401562" y="318.664584" style="stroke: #000000; stroke-width: 0.8"/>
      </g>
     </g>
    </g>
    <g id="ytick_31">
     <g id="line2d_50">
      <g>
       <use xlink:href="#mbae369eaba" x="236.401562" y="293.090198" style="stroke: #000000; stroke-width: 0.8"/>
      </g>
     </g>
    </g>
    <g id="ytick_32">
     <g id="line2d_51">
      <g>
       <use xlink:href="#mbae369eaba" x="236.401562" y="267.515812" style="stroke: #000000; stroke-width: 0.8"/>
      </g>
     </g>
    </g>
   </g>
   <g id="line2d_52">
    <path d="M 245.238046 444.618436 
L 247.023194 445.897156 
L 248.808342 436.306761 
L 250.59349 433.109963 
L 252.378639 438.864199 
L 254.163787 435.667401 
L 255.948935 429.273805 
L 257.734083 435.667401 
L 259.519231 433.109963 
L 261.304379 431.191884 
L 263.089527 438.22484 
L 264.874676 423.519568 
L 266.659824 424.158927 
L 268.444972 429.913164 
L 270.23012 425.437647 
L 272.015268 420.322769 
L 273.800416 426.077006 
L 275.585565 419.68341 
L 277.370713 420.962129 
L 279.155861 413.289813 
L 280.941009 406.896217 
L 282.726157 410.093015 
L 284.511305 409.453655 
L 286.296454 415.847252 
L 288.081602 415.207892 
L 289.86675 410.732375 
L 291.651898 399.223901 
L 293.437046 403.060059 
L 295.222194 403.060059 
L 297.007343 406.896217 
L 298.792491 396.027102 
L 300.577639 388.354787 
L 302.362787 395.387743 
L 304.147935 402.420699 
L 305.933083 392.830304 
L 307.718231 385.797348 
L 309.50338 385.157988 
L 311.288528 385.797348 
L 313.073676 383.879269 
L 314.858824 376.846313 
L 316.643972 392.190945 
L 318.42912 376.846313 
L 320.214269 374.928234 
L 321.999417 380.043111 
L 323.784565 380.043111 
L 325.569713 361.501681 
L 327.354861 362.7804 
L 329.140009 378.125032 
L 330.925158 376.206953 
L 332.710306 373.649515 
L 334.495454 362.141041 
L 336.280602 363.41976 
L 338.06575 355.108084 
L 339.850898 355.747444 
L 341.636047 351.271927 
L 343.421195 348.714488 
L 345.206343 356.386804 
L 346.991491 345.51769 
L 348.776639 344.87833 
L 350.561787 338.484733 
L 352.346935 335.927295 
L 354.132084 348.075128 
L 355.917232 330.812418 
L 357.70238 340.402812 
L 359.487528 348.075128 
L 361.272676 330.173058 
L 363.057824 334.009216 
L 364.842973 335.287935 
L 366.628121 329.533698 
L 368.413269 330.173058 
L 370.198417 327.615619 
L 371.983565 323.140102 
L 373.768713 330.173058 
L 375.553862 319.943303 
L 377.33901 316.107145 
L 379.124158 318.025224 
L 380.909306 319.303944 
L 382.694454 312.910347 
L 384.479602 313.549707 
L 386.264751 319.303944 
L 388.049899 310.992268 
L 389.835047 310.352909 
L 391.620195 314.189066 
L 393.405343 305.238031 
L 395.190491 308.43483 
L 396.975639 308.43483 
L 398.760788 300.123154 
L 400.545936 298.844435 
L 402.331084 301.401873 
L 404.116232 299.483794 
L 405.90138 301.401873 
L 407.686528 295.008277 
L 409.471677 289.25404 
L 411.256825 292.450838 
L 413.041973 286.696601 
L 414.827121 289.893399 
L 416.612269 289.893399 
L 418.397417 286.696601 
L 420.182566 285.417882 
L 421.967714 291.811478 
" clip-path="url(#p515e2b3300)" style="fill: none; stroke: #1f77b4; stroke-width: 1.5; stroke-linecap: square"/>
   </g>
   <g id="patch_18">
    <path d="M 236.401562 468.914103 
L 236.401562 257.925417 
" style="fill: none; stroke: #000000; stroke-width: 0.8; stroke-linejoin: miter; stroke-linecap: square"/>
   </g>
   <g id="patch_19">
    <path d="M 430.804197 468.914103 
L 430.804197 257.925417 
" style="fill: none; stroke: #000000; stroke-width: 0.8; stroke-linejoin: miter; stroke-linecap: square"/>
   </g>
   <g id="patch_20">
    <path d="M 236.401562 468.914103 
L 430.804197 468.914103 
" style="fill: none; stroke: #000000; stroke-width: 0.8; stroke-linejoin: miter; stroke-linecap: square"/>
   </g>
   <g id="patch_21">
    <path d="M 236.401562 257.925417 
L 430.804197 257.925417 
" style="fill: none; stroke: #000000; stroke-width: 0.8; stroke-linejoin: miter; stroke-linecap: square"/>
   </g>
   <g id="text_20">
    <!-- sigma 0.200 -->
    <g transform="translate(296.396317 251.925417) scale(0.12 -0.12)">
     <use xlink:href="#DejaVuSans-73"/>
     <use xlink:href="#DejaVuSans-69" transform="translate(52.099609 0)"/>
     <use xlink:href="#DejaVuSans-67" transform="translate(79.882812 0)"/>
     <use xlink:href="#DejaVuSans-6d" transform="translate(143.359375 0)"/>
     <use xlink:href="#DejaVuSans-61" transform="translate(240.771484 0)"/>
     <use xlink:href="#DejaVuSans-20" transform="translate(302.050781 0)"/>
     <use xlink:href="#DejaVuSans-30" transform="translate(333.837891 0)"/>
     <use xlink:href="#DejaVuSans-2e" transform="translate(397.460938 0)"/>
     <use xlink:href="#DejaVuSans-32" transform="translate(429.248047 0)"/>
     <use xlink:href="#DejaVuSans-30" transform="translate(492.871094 0)"/>
     <use xlink:href="#DejaVuSans-30" transform="translate(556.494141 0)"/>
    </g>
   </g>
  </g>
  <g id="axes_5">
   <g id="patch_22">
    <path d="M 30.103125 704.521395 
L 224.50576 704.521395 
L 224.50576 493.532708 
L 30.103125 493.532708 
z
" style="fill: #ffffff"/>
   </g>
   <g id="matplotlib.axis_9">
    <g id="xtick_17">
     <g id="line2d_53">
      <g>
       <use xlink:href="#m611f277c8b" x="38.939608" y="704.521395" style="stroke: #000000; stroke-width: 0.8"/>
      </g>
     </g>
     <g id="text_21">
      <!-- 0.25 -->
      <g transform="translate(27.806796 719.119832) scale(0.1 -0.1)">
       <use xlink:href="#DejaVuSans-30"/>
       <use xlink:href="#DejaVuSans-2e" transform="translate(63.623047 0)"/>
       <use xlink:href="#DejaVuSans-32" transform="translate(95.410156 0)"/>
       <use xlink:href="#DejaVuSans-35" transform="translate(159.033203 0)"/>
      </g>
     </g>
    </g>
    <g id="xtick_18">
     <g id="line2d_54">
      <g>
       <use xlink:href="#m611f277c8b" x="97.849498" y="704.521395" style="stroke: #000000; stroke-width: 0.8"/>
      </g>
     </g>
     <g id="text_22">
      <!-- 0.50 -->
      <g transform="translate(86.716685 719.119832) scale(0.1 -0.1)">
       <use xlink:href="#DejaVuSans-30"/>
       <use xlink:href="#DejaVuSans-2e" transform="translate(63.623047 0)"/>
       <use xlink:href="#DejaVuSans-35" transform="translate(95.410156 0)"/>
       <use xlink:href="#DejaVuSans-30" transform="translate(159.033203 0)"/>
      </g>
     </g>
    </g>
    <g id="xtick_19">
     <g id="line2d_55">
      <g>
       <use xlink:href="#m611f277c8b" x="156.759387" y="704.521395" style="stroke: #000000; stroke-width: 0.8"/>
      </g>
     </g>
     <g id="text_23">
      <!-- 0.75 -->
      <g transform="translate(145.626574 719.119832) scale(0.1 -0.1)">
       <use xlink:href="#DejaVuSans-30"/>
       <use xlink:href="#DejaVuSans-2e" transform="translate(63.623047 0)"/>
       <use xlink:href="#DejaVuSans-37" transform="translate(95.410156 0)"/>
       <use xlink:href="#DejaVuSans-35" transform="translate(159.033203 0)"/>
      </g>
     </g>
    </g>
    <g id="xtick_20">
     <g id="line2d_56">
      <g>
       <use xlink:href="#m611f277c8b" x="215.669276" y="704.521395" style="stroke: #000000; stroke-width: 0.8"/>
      </g>
     </g>
     <g id="text_24">
      <!-- 1.00 -->
      <g transform="translate(204.536464 719.119832) scale(0.1 -0.1)">
       <use xlink:href="#DejaVuSans-31"/>
       <use xlink:href="#DejaVuSans-2e" transform="translate(63.623047 0)"/>
       <use xlink:href="#DejaVuSans-30" transform="translate(95.410156 0)"/>
       <use xlink:href="#DejaVuSans-30" transform="translate(159.033203 0)"/>
      </g>
     </g>
    </g>
   </g>
   <g id="matplotlib.axis_10">
    <g id="ytick_33">
     <g id="line2d_57">
      <g>
       <use xlink:href="#mbae369eaba" x="30.103125" y="682.143807" style="stroke: #000000; stroke-width: 0.8"/>
      </g>
     </g>
     <g id="text_25">
      <!-- 0.3 -->
      <g transform="translate(7.2 685.943026) scale(0.1 -0.1)">
       <use xlink:href="#DejaVuSans-30"/>
       <use xlink:href="#DejaVuSans-2e" transform="translate(63.623047 0)"/>
       <use xlink:href="#DejaVuSans-33" transform="translate(95.410156 0)"/>
      </g>
     </g>
    </g>
    <g id="ytick_34">
     <g id="line2d_58">
      <g>
       <use xlink:href="#mbae369eaba" x="30.103125" y="656.569421" style="stroke: #000000; stroke-width: 0.8"/>
      </g>
     </g>
     <g id="text_26">
      <!-- 0.4 -->
      <g transform="translate(7.2 660.36864) scale(0.1 -0.1)">
       <use xlink:href="#DejaVuSans-30"/>
       <use xlink:href="#DejaVuSans-2e" transform="translate(63.623047 0)"/>
       <use xlink:href="#DejaVuSans-34" transform="translate(95.410156 0)"/>
      </g>
     </g>
    </g>
    <g id="ytick_35">
     <g id="line2d_59">
      <g>
       <use xlink:href="#mbae369eaba" x="30.103125" y="630.995034" style="stroke: #000000; stroke-width: 0.8"/>
      </g>
     </g>
     <g id="text_27">
      <!-- 0.5 -->
      <g transform="translate(7.2 634.794253) scale(0.1 -0.1)">
       <use xlink:href="#DejaVuSans-30"/>
       <use xlink:href="#DejaVuSans-2e" transform="translate(63.623047 0)"/>
       <use xlink:href="#DejaVuSans-35" transform="translate(95.410156 0)"/>
      </g>
     </g>
    </g>
    <g id="ytick_36">
     <g id="line2d_60">
      <g>
       <use xlink:href="#mbae369eaba" x="30.103125" y="605.420648" style="stroke: #000000; stroke-width: 0.8"/>
      </g>
     </g>
     <g id="text_28">
      <!-- 0.6 -->
      <g transform="translate(7.2 609.219867) scale(0.1 -0.1)">
       <use xlink:href="#DejaVuSans-30"/>
       <use xlink:href="#DejaVuSans-2e" transform="translate(63.623047 0)"/>
       <use xlink:href="#DejaVuSans-36" transform="translate(95.410156 0)"/>
      </g>
     </g>
    </g>
    <g id="ytick_37">
     <g id="line2d_61">
      <g>
       <use xlink:href="#mbae369eaba" x="30.103125" y="579.846262" style="stroke: #000000; stroke-width: 0.8"/>
      </g>
     </g>
     <g id="text_29">
      <!-- 0.7 -->
      <g transform="translate(7.2 583.645481) scale(0.1 -0.1)">
       <use xlink:href="#DejaVuSans-30"/>
       <use xlink:href="#DejaVuSans-2e" transform="translate(63.623047 0)"/>
       <use xlink:href="#DejaVuSans-37" transform="translate(95.410156 0)"/>
      </g>
     </g>
    </g>
    <g id="ytick_38">
     <g id="line2d_62">
      <g>
       <use xlink:href="#mbae369eaba" x="30.103125" y="554.271876" style="stroke: #000000; stroke-width: 0.8"/>
      </g>
     </g>
     <g id="text_30">
      <!-- 0.8 -->
      <g transform="translate(7.2 558.071094) scale(0.1 -0.1)">
       <use xlink:href="#DejaVuSans-30"/>
       <use xlink:href="#DejaVuSans-2e" transform="translate(63.623047 0)"/>
       <use xlink:href="#DejaVuSans-38" transform="translate(95.410156 0)"/>
      </g>
     </g>
    </g>
    <g id="ytick_39">
     <g id="line2d_63">
      <g>
       <use xlink:href="#mbae369eaba" x="30.103125" y="528.697489" style="stroke: #000000; stroke-width: 0.8"/>
      </g>
     </g>
     <g id="text_31">
      <!-- 0.9 -->
      <g transform="translate(7.2 532.496708) scale(0.1 -0.1)">
       <use xlink:href="#DejaVuSans-30"/>
       <use xlink:href="#DejaVuSans-2e" transform="translate(63.623047 0)"/>
       <use xlink:href="#DejaVuSans-39" transform="translate(95.410156 0)"/>
      </g>
     </g>
    </g>
    <g id="ytick_40">
     <g id="line2d_64">
      <g>
       <use xlink:href="#mbae369eaba" x="30.103125" y="503.123103" style="stroke: #000000; stroke-width: 0.8"/>
      </g>
     </g>
     <g id="text_32">
      <!-- 1.0 -->
      <g transform="translate(7.2 506.922322) scale(0.1 -0.1)">
       <use xlink:href="#DejaVuSans-31"/>
       <use xlink:href="#DejaVuSans-2e" transform="translate(63.623047 0)"/>
       <use xlink:href="#DejaVuSans-30" transform="translate(95.410156 0)"/>
      </g>
     </g>
    </g>
   </g>
   <g id="line2d_65">
    <path d="M 38.939608 649.536465 
L 40.724757 647.618386 
L 42.509905 643.142868 
L 44.295053 646.979026 
L 46.080201 641.864149 
L 47.865349 641.864149 
L 49.650497 641.864149 
L 51.435646 650.175824 
L 53.220794 638.66735 
L 55.005942 634.191833 
L 56.79109 647.618386 
L 58.576238 625.240798 
L 60.361386 630.995034 
L 62.146534 651.454544 
L 63.931683 642.503508 
L 65.716831 641.864149 
L 67.501979 636.109912 
L 69.287127 628.437596 
L 71.072275 619.486561 
L 72.857423 632.913113 
L 74.642572 623.322719 
L 76.42772 631.634394 
L 78.212868 617.568482 
L 79.998016 616.289762 
L 81.783164 617.568482 
L 83.568312 621.40464 
L 85.353461 629.076956 
L 87.138609 618.207841 
L 88.923757 614.371683 
L 90.708905 633.552473 
L 92.494053 604.141929 
L 94.279201 639.30671 
L 96.06435 608.617447 
L 97.849498 616.289762 
L 99.634646 617.568482 
L 101.419794 613.092964 
L 103.204942 611.174885 
L 104.99009 608.617447 
L 106.775238 616.289762 
L 108.560387 618.847201 
L 110.345535 618.847201 
L 112.130683 622.043999 
L 113.915831 616.289762 
L 115.700979 609.896166 
L 117.486127 609.256806 
L 119.271276 607.338727 
L 121.056424 596.469613 
L 122.841572 607.338727 
L 124.62672 615.011043 
L 126.411868 600.305771 
L 128.197016 596.469613 
L 129.982165 588.797297 
L 131.767313 589.436657 
L 133.552461 586.879218 
L 135.337609 590.076016 
L 137.122757 585.600499 
L 138.907905 588.157938 
L 140.693054 594.551534 
L 142.478202 586.239859 
L 144.26335 589.436657 
L 146.048498 586.879218 
L 147.833646 576.010104 
L 149.618794 583.68242 
L 151.403942 570.255867 
L 153.189091 584.32178 
L 154.974239 566.419709 
L 156.759387 579.846262 
L 158.544535 591.354736 
L 160.329683 575.370744 
L 162.114831 569.616507 
L 163.89998 567.698428 
L 165.685128 581.124981 
L 167.470276 576.010104 
L 169.255424 572.173946 
L 171.040572 581.764341 
L 172.82572 565.78035 
L 174.610869 561.944192 
L 176.396017 574.092025 
L 178.181165 574.731385 
L 179.966313 565.14099 
L 181.751461 571.534586 
L 183.536609 569.616507 
L 185.321758 574.731385 
L 187.106906 556.829314 
L 188.892054 561.944192 
L 190.677202 561.944192 
L 192.46235 552.993156 
L 194.247498 555.550595 
L 196.032646 564.50163 
L 197.817795 563.862271 
L 199.602943 561.944192 
L 201.388091 551.075077 
L 203.173239 550.435718 
L 204.958387 555.550595 
L 206.743535 554.271876 
L 208.528684 546.59956 
L 210.313832 552.353797 
L 212.09898 546.59956 
L 213.884128 557.468674 
L 215.669276 544.681481 
" clip-path="url(#pd1194dccce)" style="fill: none; stroke: #1f77b4; stroke-width: 1.5; stroke-linecap: square"/>
   </g>
   <g id="patch_23">
    <path d="M 30.103125 704.521395 
L 30.103125 493.532708 
" style="fill: none; stroke: #000000; stroke-width: 0.8; stroke-linejoin: miter; stroke-linecap: square"/>
   </g>
   <g id="patch_24">
    <path d="M 224.50576 704.521395 
L 224.50576 493.532708 
" style="fill: none; stroke: #000000; stroke-width: 0.8; stroke-linejoin: miter; stroke-linecap: square"/>
   </g>
   <g id="patch_25">
    <path d="M 30.103125 704.521395 
L 224.50576 704.521395 
" style="fill: none; stroke: #000000; stroke-width: 0.8; stroke-linejoin: miter; stroke-linecap: square"/>
   </g>
   <g id="patch_26">
    <path d="M 30.103125 493.532708 
L 224.50576 493.532708 
" style="fill: none; stroke: #000000; stroke-width: 0.8; stroke-linejoin: miter; stroke-linecap: square"/>
   </g>
   <g id="text_33">
    <!-- sigma 0.500 -->
    <g transform="translate(90.09788 487.532708) scale(0.12 -0.12)">
     <use xlink:href="#DejaVuSans-73"/>
     <use xlink:href="#DejaVuSans-69" transform="translate(52.099609 0)"/>
     <use xlink:href="#DejaVuSans-67" transform="translate(79.882812 0)"/>
     <use xlink:href="#DejaVuSans-6d" transform="translate(143.359375 0)"/>
     <use xlink:href="#DejaVuSans-61" transform="translate(240.771484 0)"/>
     <use xlink:href="#DejaVuSans-20" transform="translate(302.050781 0)"/>
     <use xlink:href="#DejaVuSans-30" transform="translate(333.837891 0)"/>
     <use xlink:href="#DejaVuSans-2e" transform="translate(397.460938 0)"/>
     <use xlink:href="#DejaVuSans-35" transform="translate(429.248047 0)"/>
     <use xlink:href="#DejaVuSans-30" transform="translate(492.871094 0)"/>
     <use xlink:href="#DejaVuSans-30" transform="translate(556.494141 0)"/>
    </g>
   </g>
  </g>
  <g id="axes_6">
   <g id="patch_27">
    <path d="M 236.401562 704.521395 
L 430.804197 704.521395 
L 430.804197 493.532708 
L 236.401562 493.532708 
z
" style="fill: #ffffff"/>
   </g>
   <g id="matplotlib.axis_11">
    <g id="xtick_21">
     <g id="line2d_66">
      <g>
       <use xlink:href="#m611f277c8b" x="245.238046" y="704.521395" style="stroke: #000000; stroke-width: 0.8"/>
      </g>
     </g>
     <g id="text_34">
      <!-- 0.25 -->
      <g transform="translate(234.105233 719.119832) scale(0.1 -0.1)">
       <use xlink:href="#DejaVuSans-30"/>
       <use xlink:href="#DejaVuSans-2e" transform="translate(63.623047 0)"/>
       <use xlink:href="#DejaVuSans-32" transform="translate(95.410156 0)"/>
       <use xlink:href="#DejaVuSans-35" transform="translate(159.033203 0)"/>
      </g>
     </g>
    </g>
    <g id="xtick_22">
     <g id="line2d_67">
      <g>
       <use xlink:href="#m611f277c8b" x="304.147935" y="704.521395" style="stroke: #000000; stroke-width: 0.8"/>
      </g>
     </g>
     <g id="text_35">
      <!-- 0.50 -->
      <g transform="translate(293.015123 719.119832) scale(0.1 -0.1)">
       <use xlink:href="#DejaVuSans-30"/>
       <use xlink:href="#DejaVuSans-2e" transform="translate(63.623047 0)"/>
       <use xlink:href="#DejaVuSans-35" transform="translate(95.410156 0)"/>
       <use xlink:href="#DejaVuSans-30" transform="translate(159.033203 0)"/>
      </g>
     </g>
    </g>
    <g id="xtick_23">
     <g id="line2d_68">
      <g>
       <use xlink:href="#m611f277c8b" x="363.057824" y="704.521395" style="stroke: #000000; stroke-width: 0.8"/>
      </g>
     </g>
     <g id="text_36">
      <!-- 0.75 -->
      <g transform="translate(351.925012 719.119832) scale(0.1 -0.1)">
       <use xlink:href="#DejaVuSans-30"/>
       <use xlink:href="#DejaVuSans-2e" transform="translate(63.623047 0)"/>
       <use xlink:href="#DejaVuSans-37" transform="translate(95.410156 0)"/>
       <use xlink:href="#DejaVuSans-35" transform="translate(159.033203 0)"/>
      </g>
     </g>
    </g>
    <g id="xtick_24">
     <g id="line2d_69">
      <g>
       <use xlink:href="#m611f277c8b" x="421.967714" y="704.521395" style="stroke: #000000; stroke-width: 0.8"/>
      </g>
     </g>
     <g id="text_37">
      <!-- 1.00 -->
      <g transform="translate(410.834901 719.119832) scale(0.1 -0.1)">
       <use xlink:href="#DejaVuSans-31"/>
       <use xlink:href="#DejaVuSans-2e" transform="translate(63.623047 0)"/>
       <use xlink:href="#DejaVuSans-30" transform="translate(95.410156 0)"/>
       <use xlink:href="#DejaVuSans-30" transform="translate(159.033203 0)"/>
      </g>
     </g>
    </g>
   </g>
   <g id="matplotlib.axis_12">
    <g id="ytick_41">
     <g id="line2d_70">
      <g>
       <use xlink:href="#mbae369eaba" x="236.401562" y="682.143807" style="stroke: #000000; stroke-width: 0.8"/>
      </g>
     </g>
    </g>
    <g id="ytick_42">
     <g id="line2d_71">
      <g>
       <use xlink:href="#mbae369eaba" x="236.401562" y="656.569421" style="stroke: #000000; stroke-width: 0.8"/>
      </g>
     </g>
    </g>
    <g id="ytick_43">
     <g id="line2d_72">
      <g>
       <use xlink:href="#mbae369eaba" x="236.401562" y="630.995034" style="stroke: #000000; stroke-width: 0.8"/>
      </g>
     </g>
    </g>
    <g id="ytick_44">
     <g id="line2d_73">
      <g>
       <use xlink:href="#mbae369eaba" x="236.401562" y="605.420648" style="stroke: #000000; stroke-width: 0.8"/>
      </g>
     </g>
    </g>
    <g id="ytick_45">
     <g id="line2d_74">
      <g>
       <use xlink:href="#mbae369eaba" x="236.401562" y="579.846262" style="stroke: #000000; stroke-width: 0.8"/>
      </g>
     </g>
    </g>
    <g id="ytick_46">
     <g id="line2d_75">
      <g>
       <use xlink:href="#mbae369eaba" x="236.401562" y="554.271876" style="stroke: #000000; stroke-width: 0.8"/>
      </g>
     </g>
    </g>
    <g id="ytick_47">
     <g id="line2d_76">
      <g>
       <use xlink:href="#mbae369eaba" x="236.401562" y="528.697489" style="stroke: #000000; stroke-width: 0.8"/>
      </g>
     </g>
    </g>
    <g id="ytick_48">
     <g id="line2d_77">
      <g>
       <use xlink:href="#mbae369eaba" x="236.401562" y="503.123103" style="stroke: #000000; stroke-width: 0.8"/>
      </g>
     </g>
    </g>
   </g>
   <g id="line2d_78">
    <path d="M 245.238046 620.76528 
L 247.023194 627.798236 
L 248.808342 618.207841 
L 250.59349 624.601438 
L 252.378639 622.683359 
L 254.163787 619.486561 
L 255.948935 636.749271 
L 257.734083 621.40464 
L 259.519231 614.371683 
L 261.304379 627.158877 
L 263.089527 613.732324 
L 264.874676 616.929122 
L 266.659824 626.519517 
L 268.444972 629.076956 
L 270.23012 627.158877 
L 272.015268 619.486561 
L 273.800416 618.207841 
L 275.585565 630.355675 
L 277.370713 614.371683 
L 279.155861 618.847201 
L 280.941009 611.174885 
L 282.726157 624.601438 
L 284.511305 621.40464 
L 286.296454 613.732324 
L 288.081602 600.945131 
L 289.86675 639.30671 
L 291.651898 630.995034 
L 293.437046 616.929122 
L 295.222194 610.535525 
L 297.007343 602.22385 
L 298.792491 598.387692 
L 300.577639 596.469613 
L 302.362787 614.371683 
L 304.147935 597.748332 
L 305.933083 606.699368 
L 307.718231 609.256806 
L 309.50338 616.929122 
L 311.288528 609.256806 
L 313.073676 603.502569 
L 314.858824 604.781289 
L 316.643972 592.633455 
L 318.42912 603.502569 
L 320.214269 599.666411 
L 321.999417 609.896166 
L 323.784565 593.912174 
L 325.569713 588.797297 
L 327.354861 607.338727 
L 329.140009 598.387692 
L 330.925158 605.420648 
L 332.710306 620.76528 
L 334.495454 592.633455 
L 336.280602 593.272815 
L 338.06575 610.535525 
L 339.850898 593.912174 
L 341.636047 608.617447 
L 343.421195 596.469613 
L 345.206343 604.141929 
L 346.991491 607.338727 
L 348.776639 583.68242 
L 350.561787 596.469613 
L 352.346935 595.190894 
L 354.132084 594.551534 
L 355.917232 591.354736 
L 357.70238 581.124981 
L 359.487528 600.945131 
L 361.272676 602.22385 
L 363.057824 597.108973 
L 364.842973 590.076016 
L 366.628121 579.846262 
L 368.413269 574.731385 
L 370.198417 605.420648 
L 371.983565 593.272815 
L 373.768713 597.108973 
L 375.553862 587.518578 
L 377.33901 588.157938 
L 379.124158 590.715376 
L 380.909306 572.813306 
L 382.694454 592.633455 
L 384.479602 585.600499 
L 386.264751 583.04306 
L 388.049899 571.534586 
L 389.835047 591.994095 
L 391.620195 579.206902 
L 393.405343 593.272815 
L 395.190491 577.928183 
L 396.975639 567.698428 
L 398.760788 585.600499 
L 400.545936 575.370744 
L 402.331084 572.813306 
L 404.116232 588.157938 
L 405.90138 569.616507 
L 407.686528 571.534586 
L 409.471677 594.551534 
L 411.256825 580.485622 
L 413.041973 567.059069 
L 414.827121 570.255867 
L 416.612269 573.452665 
L 418.397417 574.092025 
L 420.182566 574.092025 
L 421.967714 575.370744 
" clip-path="url(#p9477d6d2ba)" style="fill: none; stroke: #1f77b4; stroke-width: 1.5; stroke-linecap: square"/>
   </g>
   <g id="patch_28">
    <path d="M 236.401562 704.521395 
L 236.401562 493.532708 
" style="fill: none; stroke: #000000; stroke-width: 0.8; stroke-linejoin: miter; stroke-linecap: square"/>
   </g>
   <g id="patch_29">
    <path d="M 430.804197 704.521395 
L 430.804197 493.532708 
" style="fill: none; stroke: #000000; stroke-width: 0.8; stroke-linejoin: miter; stroke-linecap: square"/>
   </g>
   <g id="patch_30">
    <path d="M 236.401562 704.521395 
L 430.804197 704.521395 
" style="fill: none; stroke: #000000; stroke-width: 0.8; stroke-linejoin: miter; stroke-linecap: square"/>
   </g>
   <g id="patch_31">
    <path d="M 236.401562 493.532708 
L 430.804197 493.532708 
" style="fill: none; stroke: #000000; stroke-width: 0.8; stroke-linejoin: miter; stroke-linecap: square"/>
   </g>
   <g id="text_38">
    <!-- sigma 1.000 -->
    <g transform="translate(296.396317 487.532708) scale(0.12 -0.12)">
     <use xlink:href="#DejaVuSans-73"/>
     <use xlink:href="#DejaVuSans-69" transform="translate(52.099609 0)"/>
     <use xlink:href="#DejaVuSans-67" transform="translate(79.882812 0)"/>
     <use xlink:href="#DejaVuSans-6d" transform="translate(143.359375 0)"/>
     <use xlink:href="#DejaVuSans-61" transform="translate(240.771484 0)"/>
     <use xlink:href="#DejaVuSans-20" transform="translate(302.050781 0)"/>
     <use xlink:href="#DejaVuSans-31" transform="translate(333.837891 0)"/>
     <use xlink:href="#DejaVuSans-2e" transform="translate(397.460938 0)"/>
     <use xlink:href="#DejaVuSans-30" transform="translate(429.248047 0)"/>
     <use xlink:href="#DejaVuSans-30" transform="translate(492.871094 0)"/>
     <use xlink:href="#DejaVuSans-30" transform="translate(556.494141 0)"/>
    </g>
   </g>
  </g>
 </g>
 <defs>
  <clipPath id="p75ed5e409c">
   <rect x="30.103125" y="22.318125" width="194.402635" height="210.988687"/>
  </clipPath>
  <clipPath id="pe38fec5009">
   <rect x="236.401562" y="22.318125" width="194.402635" height="210.988687"/>
  </clipPath>
  <clipPath id="p7c3e592ea8">
   <rect x="30.103125" y="257.925417" width="194.402635" height="210.988687"/>
  </clipPath>
  <clipPath id="p515e2b3300">
   <rect x="236.401562" y="257.925417" width="194.402635" height="210.988687"/>
  </clipPath>
  <clipPath id="pd1194dccce">
   <rect x="30.103125" y="493.532708" width="194.402635" height="210.988687"/>
  </clipPath>
  <clipPath id="p9477d6d2ba">
   <rect x="236.401562" y="493.532708" width="194.402635" height="210.988687"/>
  </clipPath>
 </defs>
</svg>
